<svg xmlns="http://www.w3.org/2000/svg" viewBox="0 0 525.45 777.13"><defs><style>.cls-1{fill:#f9bb9c}.cls-2{fill:#7a7a7a}.cls-3{fill:#f99c80}.cls-6{fill:#3cb4f7}.cls-7{fill:#32324c}.cls-8{fill:#dc795f}</style></defs><g id="Capa_2" data-name="Capa 2"><g id="Información"><path class="cls-1" d="m323 479 14-28s-20-3.78-36-1.3 4 33.3 4 33.3Z"/><path class="cls-2" d="M347.43 474.1S337 598 305 707l-2 23s29-44 59.16-256.67Z"/><path class="cls-3" d="M341.22 455.4s21.23-5.43 34.54-1.18-2.38 10.62-13 13.79c-8.64 2.56-21.54-12.61-21.54-12.61Zm32.48 26.74s43.93 3.68 58.31 8.38c17.41 5.69 5 12.67-16.24 10.73s-42.07-19.11-42.07-19.11Z"/><path class="cls-3" d="M376.69 484.37s32.48-4.45 47.27-1.29c17.91 3.82 6.26 12.07-15 12.38s-32.27-11.09-32.27-11.09Z"/><path class="cls-1" d="M335.39 450.62c-10.59 11.64-14.24 27.12-14.24 27.12 13.8 12 54 24.08 81.48 24.9s37.48 1.18 30.52-4.86c-9.79-8.47-38.72-16.58-52.78-20.27 0 0-19.46-19.78-45-26.89"/><path class="cls-2" d="M367.23 466.57s9.1 2.54 13.14 10.94c0 0-8.92 17.5-14.61 19.38l-15.57-3.6s15.17-11.15 17.04-26.72Z"/><path d="M281.82 649.54a223.86 223.86 0 0 1-11.63 22.84c-5.81 9.5-3.56 17.64-7.42 26.38s7.09 9.37 10.32.1S276 685 278 684.9s4.93 23.81 4.95 30.57-3.32 23.28-1.13 26.17 9.31-5.77 9.47-23.36 1.51-17 1.51-17 .84 6.93 1.7 14.39-.17 16.29-1.09 21.2 3.85 8 5.65 5.49 6.23-19.47 5-26.46-2.26-18.9-2.26-18.9 4.79 16.32 5.45 20.46-3.06 19.22.11 22.43c1.31 1.32 6.13.34 7.94-21.55 0 0-.33-10.83-1.84-17.69a38.7 38.7 0 0 1 3.93 12.16 106.4 106.4 0 0 1 .77 18.16c-.19 6 5 5.78 6.26-4.61s.85-22.07-1.41-28-2.68-38.75-9.92-51.65Z" style="fill:#ffaf82"/><path d="M272.26 261.65s-21.55 181.23-14.82 226c0 0 1.71 109.27 23.31 165.16a37.87 37.87 0 0 0 32.72-4.81s2.56-116.74-4.3-166.82c0 0 13.32-163.26 4.76-189.85-3.49-10.82-12.19-26.26-41.67-29.68Z" style="fill:#0188e5"/><path class="cls-6" d="M92.58 665.93c70.12 35 147.4 31.66 216-4.3-22.55-115.47-32.63-252.26-36.31-400l-70.57-18.92a107.09 107.09 0 0 0-58 .72l-77.44 22.82 37 232.92Z"/><path class="cls-7" d="M127.41 168.56H112.2c-1.28 2.88-7.73 19.42 11.85 23.58 0 0 4.39 18 22.68 10.9-4.99-11.77-13.05-23.34-19.32-34.48Z"/><path class="cls-1" d="m148.27 193.83.86 21.33.29 7.15 1 25.73s23.88 14.52 50.4 4.53l.7-6.69.69-6.55 2.61-24.85Z"/><path class="cls-3" d="m148.27 193.83.86 21.33.29 7.15c11.32 10.44 28.88 22 52.13 23.57l.69-6.55 2.61-24.85Zm100.38-74.53s7.82-20.86 27.38-11.74 12.14 67.6-22 62.81a86.38 86.38 0 0 1-5.38-51.07Z"/><path class="cls-8" d="M263.35 151.35h-.12a2.71 2.71 0 0 1-2.6-2.83c.69-15.92 12.1-26.83 12.59-27.29a2.72 2.72 0 0 1 3.73 4c-.17.16-10.29 9.95-10.89 23.56a2.71 2.71 0 0 1-2.71 2.56Z"/><path class="cls-8" d="M273.77 144.83a2.72 2.72 0 0 1-2.68-2.31c0-.1-.82-4.7-4.63-6.19a2.72 2.72 0 0 1 2-5.07c6.8 2.66 8 10.13 8 10.45a2.73 2.73 0 0 1-2.29 3.09 2.83 2.83 0 0 1-.4.03Z"/><path class="cls-1" d="M126.65 171q1.29 3.72 2.83 7.37 1.4 3.28 3 6.5c25.25 49.84 114.67 49.64 126.5-2.3 11.66-51.17 8.13-114 8.13-114l-143.37-2s-13.65 56.64 2.91 104.43Z"/><path class="cls-3" d="M126.65 171q1.29 3.72 2.83 7.37c4.48-4.25 4-14.18 4-14.18a12.68 12.68 0 0 1-6.83 6.81Z"/><circle class="cls-7" cx="177.83" cy="121.13" r="6.69"/><path class="cls-7" d="M238.69 121.13a6.69 6.69 0 1 1-6.69-6.69 6.7 6.7 0 0 1 6.69 6.69Zm-14.31-30s-6 6.66-3.91 10.22c0 0 22.72 5.92 34.51 14.33 0 0 2.93-10.27-6.48-15.56s-24.12-8.99-24.12-8.99Zm-37.76 0s5.45 7.12 3 10.48c0 0-23.07 4-35.49 11.35 0 0-2.06-10.44 7.74-14.92s24.75-6.91 24.75-6.91Z"/><path class="cls-3" d="M203.37 159.84a27.55 27.55 0 0 1-8.43-1.41 2.72 2.72 0 1 1 1.72-5.16c.1 0 11.3 3.54 13.55-2.31 2.12-5.52-1.71-21.81-4.62-30.78a2.72 2.72 0 0 1 5.18-1.68c.83 2.57 8 25.31 4.51 34.42-2.03 5.29-6.99 6.92-11.91 6.92Z"/><path class="cls-1" d="M138.25 118.31s-13-19.56-32.59-10.43-12.15 67.6 22 62.81c-.04 0 16.46-24.35 10.59-52.38Z"/><path class="cls-3" d="M119.67 151.35a2.73 2.73 0 0 1-2.72-2.61c-.59-13.65-10.78-23.46-10.88-23.56a2.72 2.72 0 0 1 3.73-4c.49.46 11.9 11.37 12.59 27.29a2.71 2.71 0 0 1-2.6 2.83Z"/><path class="cls-3" d="M109.25 144.83a2.83 2.83 0 0 1-.41 0 2.73 2.73 0 0 1-2.29-3.09c0-.32 1.23-7.79 8-10.45a2.72 2.72 0 0 1 2 5.07c-3.83 1.5-4.62 6.13-4.63 6.18a2.72 2.72 0 0 1-2.67 2.29Z"/><path class="cls-7" d="M135.41 70.67s6 5.21 4.1 17.16-4.38 15.38-4.38 15.38 3.86 9.83 1.47 20l-.19-.46a31.46 31.46 0 0 0-17.26-17.22l-.69-.27s-22.15-1-23.45-26 15-28 15-28-1.75-30.15 17.81-35.58 31.8 6.13 31.8 6.13 2.75-16.51 21.33-18.14c18.13-1.59 22.21 11.68 22.21 11.68S205.2 1.57 231 0c15.32-.9 23 13 23 13s3.78-9.78 26.83-6.77c20.75 2.72 26.51 39.45 3.7 46.62 0 0 15 5.54 7.82 21.51s-24 11.09-24 11.09-17.77 1-24.62-11.41c0 0-8.15 11.73-27.38 8.14s-25.1-11.08-25.1-11.08-12.71 11.74-27.05 7.5-13.69-13.6-28.79-7.93Z"/><path class="cls-7" d="M273.4 78.06s.37 33.52-6.58 49.44l-3.42-17.72 1.09-11.68s-7.94-11.79-4.73-18.1 13.64-1.94 13.64-1.94Zm-71.63 86.14a3.37 3.37 0 0 1 .36-.06h-.18Z"/><path class="cls-7" d="M202.08 162.37c-.47-.06-.81-.09-1.27-.13l-.74-.06-.95-.1c-.64-.07-1.28-.12-1.92-.2l-1.91-.28a72.45 72.45 0 0 1-7.6-1.62 123.72 123.72 0 0 1-15.15-5.35c-2.57-1-5.19-2.17-7.93-3.26l-.54-.22c-.3-.1-.59-.22-.91-.31a16.67 16.67 0 0 0-1.91-.48 15.35 15.35 0 0 0-4.15-.24 14.71 14.71 0 0 0-8.24 3.34 15.15 15.15 0 0 0-4.79 7.32 18.78 18.78 0 0 0-.46 2l-.19 1.27c-.13.81-.25 1.63-.33 2.44a68.11 68.11 0 0 0-.39 9.66 77.5 77.5 0 0 0 .92 9.51 78.54 78.54 0 0 0 5.25 18.34c.3.74.61 1.48 1 2.2l.51 1.09.25.54.13.28.07.14.1.18a26.28 26.28 0 0 0 3.66 5.35 37.56 37.56 0 0 0 8.82 7.29 55.88 55.88 0 0 0 9.26 4.5A73.44 73.44 0 0 0 191.4 230a88.48 88.48 0 0 0 18.9-.19 73.28 73.28 0 0 0 9.53-1.68 55.56 55.56 0 0 0 9.67-3.25 41 41 0 0 0 4.92-2.66 28.54 28.54 0 0 0 4.76-3.78 36.18 36.18 0 0 0 6.47-9 52.14 52.14 0 0 0 3.68-9.29 70 70 0 0 0 2.07-9.29 78.92 78.92 0 0 0 .87-9.33 63.41 63.41 0 0 0-.37-9.5 39.18 39.18 0 0 0-.89-5 21.17 21.17 0 0 0-2.17-5.57 11.19 11.19 0 0 0-2.86-3.31 8.39 8.39 0 0 0-2.7-1.39 8.06 8.06 0 0 0-1.61-.32 7.34 7.34 0 0 0-.81-.05h-.56c-1.12 0-1.82.12-2.63.2s-1.51.17-2.25.27c-5.81.77-11.4 1.71-17 2.66L210 161l-4.2.75-2.1.38-1 .19-.42.08Zm-42.91 5.5c0-.61.07-1.2.14-1.79v-.45c.33 0 5.22 1.85 8 2.82a136.22 136.22 0 0 0 17.18 5.07 84.09 84.09 0 0 0 9.12 1.47l2.31.21c.77.06 1.55.09 2.32.13l1.16.06h4.19c12.63 0 34.84-7.46 35.53-7.7l.16 1.73a30.86 30.86 0 0 1 .21 3.44 50.79 50.79 0 0 1-.63 7.48 59.8 59.8 0 0 1-1.66 7.48 46.13 46.13 0 0 1-5.93 13.18 18.93 18.93 0 0 1-4 4.35 11.16 11.16 0 0 1-2.07 1.25 23.25 23.25 0 0 1-2.7 1.1 42.28 42.28 0 0 1-6.6 1.57 71.28 71.28 0 0 1-7.3.74 96 96 0 0 1-15.05-.58 86.2 86.2 0 0 1-14.42-2.71 37.39 37.39 0 0 1-6.26-2.38 18.18 18.18 0 0 1-4.56-3.08 9.14 9.14 0 0 1-1.27-1.55v-.1l-.11-.2-.22-.41-.44-.81c-.3-.53-.57-1.09-.84-1.64a60.34 60.34 0 0 1-4.89-14 59.37 59.37 0 0 1-1.14-7.35 52.82 52.82 0 0 1-.23-7.33Z"/><path class="cls-3" d="M191.76 200.61a1.65 1.65 0 0 1 .9.26c10 6.29 20 .77 20.44.53a1.71 1.71 0 1 1 1.69 3c-.49.28-12.18 6.79-23.95-.6a1.71 1.71 0 0 1-.53-2.36 1.69 1.69 0 0 1 1.45-.83Z"/><path d="M214.3 189.48a11 11 0 0 1-1.46 5.8 11.2 11.2 0 0 1-20.31-1.78 11.21 11.21 0 1 1 21.77-4Z" style="fill:#920e08"/><path d="M212.84 195.28a11.2 11.2 0 0 1-20.31-1.78 20.5 20.5 0 0 1 11.68-1.21c3.43.59 6.51 1.49 8.63 2.99Z" style="fill:#ff8175"/><path d="M524.46 127.64a3.69 3.69 0 0 1 1 2.21 2.63 2.63 0 0 1-.23 1.31 1.72 1.72 0 0 1-.38.58 2 2 0 0 1-.49.46 4.35 4.35 0 0 1-1.16.58 7.41 7.41 0 0 1-1.2.22 7.17 7.17 0 0 1-2.36-.27c.77-.21 1.52-.32 2.24-.5.35-.09.69-.22 1-.32a3.83 3.83 0 0 0 .87-.48 2.18 2.18 0 0 0 .93-1.57 6.51 6.51 0 0 0-.22-2.22Z" style="fill:#e0a69b"/><path style="fill:#663c36" d="M0 471.7h305.43v305.43H0z"/><path class="cls-6" d="M317.62 481.6S131.87 507.32 88 482.66c-36.54-20.54-31.83-62.41-61.09-166.34 0 0-18.2-33.32 41.72-50.71l45.74 162.08c32.35 3.66 201 21.12 201 21.12s6.44 16.7 2.25 32.79Z"/><path d="M93 326.74s15.26 45.07 18.73 80.44" style="fill:none;stroke:#006acd;stroke-miterlimit:10"/></g></g></svg>