<svg xmlns="http://www.w3.org/2000/svg" viewBox="0 0 237.27 636.95"><defs><style>.cls-9{fill:#32324c}.cls-2{fill:#2c2c2c}.cls-3{fill:#ffaf82}.cls-4{fill:#dd342c}.cls-5{fill:#fff}.cls-6{fill:#2d070a}.cls-7{fill:#f88968}.cls-8{fill:#ffa378}.cls-12{fill:#fbc0a4}.cls-13{fill:#bc2327}</style></defs><g id="Capa_2" data-name="Capa 2"><g id="Información"><ellipse cx="118.64" cy="618.95" rx="118.64" ry="18" style="opacity:.1;fill:#32324c"/><path class="cls-2" d="M65.68 348.88c-.08-24 5.86-40.08 5.86-40.08 38.53-2.49 99.12 0 99.12 0 .08.23.16.46.25.69 0 0 6.22 21.9 2.58 39.39-37.49 23.21-73.61 21.68-107.81 0Z"/><path class="cls-3" d="M60.44 454.83c-.17 6.58-.21 12.07-.08 16l-5.72 114.6 21 2.26c3.67-27.89 12.85-70.93 13.55-110.19l5.23-22.67Z"/><path class="cls-4" d="M76.89 584.85c-.62-8.64-8.34-13.35-16.22-11.19-7.7 2.11-8.63 15-8.63 15a40.42 40.42 0 0 0-11.46 23.19c0 .33-.11.65-.14 1a5.2 5.2 0 0 0 4.32 5.7 115.38 115.38 0 0 0 39.75.1 5.15 5.15 0 0 0 4.21-5.73 3 3 0 0 0 0-.31C87.83 606 86.05 594 78 589.55Z"/><path class="cls-5" d="m73.84 594.81.69-1.58c-.47-.21-11.82-5.07-20.08.33l.94 1.44c7.49-4.89 18.34-.23 18.45-.19Z"/><path class="cls-5" d="M72.42 594.59a1.94 1.94 0 1 0 1.6-2.23 1.95 1.95 0 0 0-1.6 2.23Zm-19.49-.46a1.94 1.94 0 1 0 1.59-2.24 1.93 1.93 0 0 0-1.59 2.24Zm20.72-4.19.69-1.57c-.48-.21-11.83-5.08-20.09.32l.94 1.44c7.49-4.89 18.35-.23 18.46-.19Z"/><path class="cls-5" d="M72.22 589.72a1.94 1.94 0 1 0 1.6-2.23 2 2 0 0 0-1.6 2.23Zm-19.49-.46a1.94 1.94 0 1 0 1.59-2.26 1.93 1.93 0 0 0-1.59 2.26Zm21.11 10.41.69-1.58c-.47-.21-11.82-5.08-20.08.32l.94 1.45c7.49-4.86 18.34-.24 18.45-.19Z"/><path class="cls-5" d="M72.42 599.45a1.94 1.94 0 1 0 1.6-2.24 1.94 1.94 0 0 0-1.6 2.24ZM52.93 599a1.94 1.94 0 1 0 1.59-2.23 1.92 1.92 0 0 0-1.59 2.23Zm6.63-19.77s5.83-2 10.79.43a5.65 5.65 0 0 1 0 4s-6.7-1.08-10.94-.25a6.08 6.08 0 0 1 .15-4.18Z"/><path class="cls-6" d="M44.76 618.51a115.38 115.38 0 0 0 39.75.1 5.15 5.15 0 0 0 4.21-5.73 3 3 0 0 0 0-.31 86.73 86.73 0 0 1-48.11-.76c0 .33-.11.65-.14 1a5.2 5.2 0 0 0 4.29 5.7Z"/><path class="cls-2" d="M68.54 320c-4 24.35-9.26 87.49-14.2 141 0 0 14.33 15.09 44.56 7l10.54-109.51s3.36-29.87-40.9-38.49Z"/><path class="cls-4" d="M68.14 318.68c33.26 20.49 69.28 25.27 106.27 0l-2-61.56.5-113.58-37.51-10.08a56.15 56.15 0 0 0-29.19 0l-37.54 10.05.5 113.58Z"/><path class="cls-3" d="m135.64 117.12-.52 9.73-.65 12.2s-2.42 4.59-13.35 4.59S108 140.5 108 140.5l-.44-5.41-1.47-18Z"/><path class="cls-7" d="m135.64 117.12-.52 9.73c-4.56 3.42-15.35 10.13-27.61 8.24l-1.47-18Z"/><path class="cls-8" d="M87.37 72.85S79 64.66 72.3 70c-7.9 6.31.37 29.05 14.38 26.64Z"/><path class="cls-7" d="M82.48 91a1.37 1.37 0 0 1-1.33-1.27c-.9-11.19-7.45-13.13-7.73-13.21a1.38 1.38 0 0 1 .7-2.68c.36.1 8.72 2.41 9.79 15.67A1.39 1.39 0 0 1 82.64 91Z"/><path class="cls-7" d="M74.65 85.29a1.39 1.39 0 0 1-1-2.34 7.88 7.88 0 0 1 7.47-1.89 1.39 1.39 0 0 1-.68 2.69 5 5 0 0 0-4.78 1.11 1.38 1.38 0 0 1-1.01.43Z"/><path class="cls-8" d="M151.36 72.85s8.37-8.19 15.06-2.84c7.9 6.31-.36 29.05-14.38 26.64Z"/><path class="cls-7" d="M156.25 91a1.38 1.38 0 0 0 1.33-1.27c.9-11.19 7.45-13.13 7.73-13.21a1.39 1.39 0 0 0-.71-2.68c-.35.1-8.72 2.41-9.78 15.67a1.37 1.37 0 0 0 1.27 1.49Z"/><path class="cls-7" d="M164.08 85.29a1.35 1.35 0 0 0 .9-.38 1.38 1.38 0 0 0 .05-2 7.87 7.87 0 0 0-7.47-1.89 1.39 1.39 0 0 0 .69 2.69 5.05 5.05 0 0 1 4.75 1.15 1.38 1.38 0 0 0 1.08.43Z"/><path class="cls-3" d="M119.78 126.67c-28.93 0-37.86-34.36-40.53-59.52a39.71 39.71 0 0 1 38.89-43.91h2.09a39.74 39.74 0 0 1 39 43.15c-2.23 25.49-10.53 60.28-39.45 60.28Z"/><path class="cls-9" d="M110.23 56.68v5s-9.16-1.67-15.37 2.2l-.72-4.17s5.23-5.23 16.09-3.03Zm18.92 0v5s9.16-1.67 15.38 2.2l.71-4.17s-5.24-5.23-16.09-3.03Z"/><path class="cls-9" d="M152.34 36.37s11.88 13.31 6.07 37.56a4.57 4.57 0 0 1-4.41-4.69c.16-5.86-.42-10.89-1.11-13-2-6.16-10.91-9.86-10.35-16.52 0 0-33.12 10.36-51 .19 0 0-.17 9-5.16 14.29-1.88 2 .26 9.09-.46 15.69a7 7 0 0 1-5.46 6A63 63 0 0 1 79 53.83c1.21-9.88 3.35-14.5 3.35-14.5s7.32-19.52 36.18-19.52c26.79 0 33.81 16.56 33.81 16.56Z"/><path class="cls-9" d="M79.37 50.77s-4-15.18-1.61-22.52 7.9-8.44 7.9-8.44S102.25 5 128.87 1s21.41 5 17.86 10.18c0 0 9.9-8 12.65-1.66s-4.57 12.32-4.57 12.32 7.22-6.69 9.76-2-7.16 16.49-13.21 18.62c0-.03-52.95-18.65-71.99 12.31Zm27.99 20.46c0 2.89-1.29 5.23-2.88 5.23s-2.88-2.34-2.88-5.23 1.29-5.23 2.88-5.23 2.87 2.34 2.88 5.23Zm25.88 0c0 2.89 1.29 5.23 2.88 5.23s2.88-2.34 2.88-5.23-1.29-5.23-2.88-5.23-2.88 2.34-2.88 5.23Z"/><path class="cls-7" d="M119.85 90.56a1.53 1.53 0 0 1-.65-2.82l4.35-2.69-3.42-1.25a1.51 1.51 0 0 1-1-1.34l-.59-9.82a1.52 1.52 0 1 1 3-.18l.53 8.82 5.43 2a1.55 1.55 0 0 1 1 1.28 1.53 1.53 0 0 1-.72 1.45l-7 4.34a1.55 1.55 0 0 1-.93.21Zm6.45 12.73a26.6 26.6 0 0 1-20.3-3.68 1.52 1.52 0 1 1 1.66-2.54c12.68 8.32 26.51.19 26.64.1a1.52 1.52 0 0 1 1.57 2.6 32.35 32.35 0 0 1-9.57 3.52Zm-5.17 8.04a15.49 15.49 0 0 1-8.41-2.22 1.07 1.07 0 1 1 1.09-1.83c7.1 4.23 14 .2 14.29 0a1.06 1.06 0 0 1 1.46.37 1.05 1.05 0 0 1-.37 1.45 17.64 17.64 0 0 1-8.06 2.23Z"/><path d="M106 87.66c0 4.09-4.56 7.4-10.19 7.4s-10.19-3.31-10.19-7.4 4.56-7.4 10.19-7.4S106 83.57 106 87.66Zm48.81 0c0 4.09-4.56 7.4-10.19 7.4s-10.19-3.31-10.19-7.4 4.56-7.4 10.19-7.4 10.19 3.31 10.19 7.4Z" style="opacity:.5;fill:#f88968"/><path d="M26.9 320S128.84 569.77 164 617.24l33.78 1.27 15.58-287-1.84-8.31-30.34 295.11-3.54-2.71L28 314.77Z" style="fill:red"/><path class="cls-12" d="M213 311.21a6.07 6.07 0 1 0 3.12-8 6.06 6.06 0 0 0-3.12 8Z"/><path class="cls-3" d="M230 331.85c1.27-1 3-1.48 3.41-3.39.45-2.1-1.06-4.66-1.8-6.53a146.19 146.19 0 0 0-8-16.47L213 311.21c-.26.14-.75 5.76-.9 6.37-.67 2.74-2.69 5.17-3.86 7.76-1.25 2.74-2.91 5.36-3.62 8.31-.9 3.67.58 3.78 3.66 4.31 5.08.88 4 1.48 5.39 5.72.38 1.15 1.38 2.76 2.57 3a2.85 2.85 0 0 0 2.84-1.15c.46-.9.28-2.27.53-3.25.65-2.61 1.76 0 4.07-1.37 1.25-.77 2.57-1.6 3-3a33.67 33.67 0 0 1 2.3-4.95 3.57 3.57 0 0 1 1.02-1.11Z"/><path class="cls-13" d="M162.14 174.17s18.94 33.22 28.85 52.17c0 0 1.32 22.31 20.27 87.74 0 0 9.89 3.94 15.66-3.58 0 0-5.47-67.09-11-90.09 0 0-34.8-66.52-43.1-76.77.01 0-9.37 13.3-10.68 30.53Z"/><path class="cls-12" d="M28.21 309.55a6.06 6.06 0 1 1-5.16-6.84 6.05 6.05 0 0 1 5.16 6.84Z"/><path class="cls-3" d="M17.43 334c-1.49-.6-3.3-.61-4.2-2.34-1-1.9-.24-4.78 0-6.77a146.57 146.57 0 0 1 3.23-18l11.78 2.66c.29.07 2.29 5.35 2.59 5.89 1.39 2.46 4 4.25 5.82 6.43s4.25 4.38 5.73 7c1.85 3.29.46 3.8-2.36 5.15-4.65 2.21-3.4 2.48-3.64 7-.06 1.21-.58 3-1.67 3.56a2.83 2.83 0 0 1-3-.34c-.69-.74-.89-2.11-1.39-3-1.34-2.33-1.7.52-4.29-.21-1.41-.4-2.92-.85-3.74-2.07a35.76 35.76 0 0 0-3.55-4.14 3.69 3.69 0 0 0-1.31-.82Z"/><path class="cls-13" d="M79.54 173.63s-18.94 33.23-28.85 52.18c0 0-1.32 22.31-20.26 87.74 0 0-9.9 3.93-15.67-3.58 0 0 5.47-67.09 11-90.09 0 0 34.8-66.52 43.1-76.77-.01 0 9.37 13.3 10.68 30.52Z"/><path class="cls-3" d="M182.11 454.83c.17 6.58.22 12.07.08 16l5.72 114.64-21 2.26c-3.72-27.93-12.91-70.97-13.6-110.23l-5.23-22.67Z"/><path class="cls-4" d="M165.66 584.85c.62-8.64 8.34-13.35 16.22-11.19 7.7 2.11 8.63 15 8.63 15A40.42 40.42 0 0 1 202 611.81c.05.33.11.65.14 1a5.2 5.2 0 0 1-4.32 5.7 115.38 115.38 0 0 1-39.75.1 5.15 5.15 0 0 1-4.21-5.73 3 3 0 0 1 0-.31c.87-6.55 2.64-18.57 10.66-23Z"/><path class="cls-5" d="m168.71 594.81-.69-1.58c.48-.21 11.82-5.07 20.09.33l-1 1.44c-7.44-4.89-18.29-.23-18.4-.19Z"/><path class="cls-5" d="M170.13 594.59a1.94 1.94 0 1 1-1.59-2.23 1.95 1.95 0 0 1 1.59 2.23Zm19.5-.46a1.94 1.94 0 1 1-1.6-2.24 1.95 1.95 0 0 1 1.6 2.24Zm-20.72-4.19-.7-1.57c.48-.21 11.83-5.08 20.09.32l-.94 1.44c-7.49-4.89-18.36-.23-18.45-.19Z"/><path class="cls-5" d="M170.33 589.72a1.94 1.94 0 1 1-1.6-2.23 1.95 1.95 0 0 1 1.6 2.23Zm19.49-.46a1.94 1.94 0 1 1-1.59-2.24 1.93 1.93 0 0 1 1.59 2.24Zm-21.11 10.41-.69-1.58c.48-.21 11.82-5.08 20.09.32l-1 1.45c-7.44-4.86-18.29-.24-18.4-.19Z"/><path class="cls-5" d="M170.13 599.45a1.94 1.94 0 1 1-1.59-2.24 1.94 1.94 0 0 1 1.59 2.24Zm19.5-.45a1.94 1.94 0 1 1-1.6-2.23 1.94 1.94 0 0 1 1.6 2.23ZM183 579.23s-5.83-2-10.79.43a5.65 5.65 0 0 0 0 4s6.71-1.08 10.94-.25a6.08 6.08 0 0 0-.15-4.18Z"/><path class="cls-6" d="M197.79 618.51a115.38 115.38 0 0 1-39.75.1 5.15 5.15 0 0 1-4.21-5.73 3 3 0 0 1 0-.31 86.73 86.73 0 0 0 48.11-.76c.05.33.11.65.14 1a5.2 5.2 0 0 1-4.29 5.7Z"/><path class="cls-2" d="M173.19 320.21c4 24.35 10.08 87.32 15 140.85 0 0-14.33 15.09-44.56 7l-10.52-109.52s-4.18-29.76 40.08-38.33Z"/></g></g></svg>