<svg xmlns="http://www.w3.org/2000/svg" viewBox="0 0 395.68 705.84"><defs><style>.cls-9{fill:#32324c}.cls-2{fill:#2c2c2c}.cls-3{fill:#ffaf82}.cls-4{fill:#dd342c}.cls-5{fill:#fff}.cls-6{fill:#2d070a}.cls-7{fill:#f88968}.cls-8{fill:#ffa378}.cls-12{fill:#fbc0a4}.cls-13{fill:#bc2327}</style></defs><g id="Capa_2" data-name="Capa 2"><g id="Información"><ellipse cx="264.21" cy="685.9" rx="131.47" ry="19.95" style="opacity:.1;fill:#32324c"/><path class="cls-2" d="M205.52 386.61C205.44 360 212 342.2 212 342.2c42.69-2.76 109.84 0 109.84 0l.27.77s6.9 24.27 2.87 43.64c-41.52 25.73-81.55 24.03-119.46 0Z"/><path class="cls-3" d="M199.72 504c-.19 7.29-.24 13.38-.09 17.68l-6.34 127 23.33 2.5c4.07-30.91 14.24-78.6 15-122.11l5.8-25.12Z"/><path class="cls-4" d="M218 648.12c-.69-9.58-9.24-14.8-18-12.41-8.54 2.34-9.57 16.59-9.57 16.59a44.78 44.78 0 0 0-12.72 25.7c-.06.36-.12.72-.16 1.11a5.77 5.77 0 0 0 4.79 6.31 128.06 128.06 0 0 0 44 .12 5.73 5.73 0 0 0 4.67-6.36v-.34c-1-7.26-2.92-20.57-11.81-25.51Z"/><path class="cls-5" d="m214.57 659.15.77-1.75c-.53-.23-13.1-5.62-22.27.36l1.05 1.6c8.3-5.42 20.33-.26 20.45-.21Z"/><path class="cls-5" d="M213 658.91a2.15 2.15 0 1 0 1.76-2.47 2.15 2.15 0 0 0-1.76 2.47Zm-21.61-.52a2.15 2.15 0 1 0 1.77-2.47 2.16 2.16 0 0 0-1.77 2.47Zm22.96-4.63.77-1.75c-.53-.23-13.1-5.62-22.26.36l1 1.6c8.35-5.42 20.37-.26 20.49-.21Z"/><path class="cls-5" d="M212.78 653.51a2.15 2.15 0 1 0 1.76-2.47 2.15 2.15 0 0 0-1.76 2.47Zm-21.61-.51a2.15 2.15 0 1 0 1.77-2.48 2.15 2.15 0 0 0-1.77 2.48Zm23.4 11.53.77-1.75c-.53-.23-13.1-5.62-22.27.36l1.05 1.6c8.3-5.42 20.33-.26 20.45-.21Z"/><path class="cls-5" d="M213 664.29a2.15 2.15 0 0 0 4.24-.71 2.15 2.15 0 1 0-4.24.71Zm-21.61-.52a2.15 2.15 0 1 0 1.77-2.47 2.16 2.16 0 0 0-1.77 2.47Zm7.35-21.88s6.46-2.24 12 .48a6.2 6.2 0 0 1 0 4.4s-7.43-1.2-12.13-.28c-.03 0-.91-2.65.13-4.6Z"/><path class="cls-6" d="M182.34 685.41a128.06 128.06 0 0 0 44 .12 5.73 5.73 0 0 0 4.67-6.36v-.34a96 96 0 0 1-53.31-.84c-.06.36-.12.72-.16 1.11a5.77 5.77 0 0 0 4.8 6.31Z"/><path class="cls-2" d="M208.69 354.66c-4.45 27-10.26 97-15.73 156.27 0 0 15.88 16.73 49.38 7.75L254 397.32s3.74-33.16-45.31-42.66Z"/><path class="cls-4" d="M208.25 353.15c36.85 22.7 76.77 28 117.76 0l-2.24-68.22.55-125.93-41.57-11.16a62.16 62.16 0 0 0-32.34 0L208.84 159l.56 125.86Z"/><path class="cls-3" d="m283.05 129.79-.57 10.78-.72 13.52s-2.68 5.09-14.8 5.09-14.59-3.48-14.59-3.48l-.49-6-1.63-19.92Z"/><path class="cls-7" d="m283.05 129.79-.57 10.78c-5.05 3.79-17 11.23-30.6 9.14l-1.63-19.92Z"/><path class="cls-8" d="M229.56 80.73s-9.28-9.07-16.69-3.15c-8.76 7 .4 32.19 15.93 29.52Z"/><path class="cls-7" d="M224.14 100.83a1.52 1.52 0 0 1-1.47-1.41c-1-12.39-8.26-14.54-8.57-14.63a1.54 1.54 0 0 1 .78-3c.4.1 9.66 2.67 10.85 17.36a1.54 1.54 0 0 1-1.41 1.65.54.54 0 0 1-.18.03Z"/><path class="cls-7" d="M215.46 94.52a1.56 1.56 0 0 1-1-.43 1.53 1.53 0 0 1-.06-2.17 8.72 8.72 0 0 1 8.28-2.09 1.54 1.54 0 1 1-.76 3 5.59 5.59 0 0 0-5.29 1.17 1.56 1.56 0 0 1-1.17.52Z"/><path class="cls-8" d="M300.47 80.73s9.28-9.07 16.69-3.15c8.76 7-.4 32.19-15.93 29.52Z"/><path class="cls-7" d="M305.89 100.83a1.52 1.52 0 0 0 1.47-1.41c1-12.39 8.26-14.54 8.57-14.63a1.54 1.54 0 0 0-.78-3c-.4.1-9.67 2.67-10.85 17.36a1.53 1.53 0 0 0 1.41 1.65.54.54 0 0 0 .18.03Z"/><path class="cls-7" d="M314.57 94.52a1.56 1.56 0 0 0 1-.43 1.53 1.53 0 0 0 .06-2.17 8.72 8.72 0 0 0-8.28-2.09 1.54 1.54 0 1 0 .76 3A5.59 5.59 0 0 1 313.4 94a1.55 1.55 0 0 0 1.17.52Z"/><path class="cls-3" d="M265.48 140.38c-32.06 0-42-38.09-44.91-66a44 44 0 0 1 43.09-48.66H266a44 44 0 0 1 43.21 47.82c-2.47 28.28-11.68 66.84-43.73 66.84Z"/><path class="cls-9" d="M254.89 62.81v5.55s-10.14-1.86-17 2.43l-.8-4.62s5.77-5.8 17.8-3.36Zm20.97 0v5.55s10.15-1.86 17 2.43l.8-4.62s-5.76-5.8-17.8-3.36Z"/><path class="cls-9" d="M301.56 40.31s13.17 14.74 6.73 41.62a5.07 5.07 0 0 1-4.91-5.2c.18-6.49-.45-12.07-1.22-14.4-2.26-6.82-12.09-10.92-11.48-18.3 0 0-36.7 11.48-56.56.21 0 0-.2 10-5.73 15.84-2.07 2.2.3 10.07-.5 17.38a7.75 7.75 0 0 1-6 6.64 69.8 69.8 0 0 1-1.62-24.45c1.34-10.95 3.71-16.07 3.71-16.07S232 22 264 22c29.77 0 37.56 18.31 37.56 18.31Z"/><path class="cls-9" d="M220.69 56.26s-4.41-16.82-1.78-25 8.75-9.26 8.75-9.26 18.39-16.42 47.89-20.88 23.73 5.51 19.79 11.28c0 0 11-8.92 14-1.83s-5.06 13.65-5.06 13.65 8-7.42 10.81-2.27-7.93 18.28-14.64 20.64c.02 0-58.66-20.59-79.76 13.67Zm31.02 22.67c0 3.21-1.43 5.8-3.19 5.8s-3.19-2.59-3.19-5.8 1.43-5.8 3.19-5.8 3.19 2.6 3.19 5.8Zm28.69 0c0 3.21 1.42 5.8 3.18 5.8s3.19-2.59 3.19-5.8-1.42-5.8-3.19-5.8-3.18 2.6-3.18 5.8Z"/><path class="cls-7" d="M265.55 100.35a1.71 1.71 0 0 1-1.27-.79 1.69 1.69 0 0 1 .55-2.33l4.82-3-3.78-1.39a1.69 1.69 0 0 1-1.11-1.48l-.65-10.88a1.69 1.69 0 1 1 3.38-.2l.58 9.77 6 2.21a1.7 1.7 0 0 1 .31 3l-7.78 4.8a1.68 1.68 0 0 1-1.05.29Zm7.15 14.11a29.4 29.4 0 0 1-22.47-4.08 1.68 1.68 0 0 1 1.84-2.81c14.05 9.22 29.37.21 29.52.11a1.68 1.68 0 0 1 1.74 2.88 35.76 35.76 0 0 1-10.63 3.9Zm-5.7 8.91a17.09 17.09 0 0 1-9.31-2.46 1.17 1.17 0 1 1 1.2-2c7.87 4.68 15.51.22 15.83 0a1.19 1.19 0 0 1 1.62.4 1.18 1.18 0 0 1-.4 1.62 19.71 19.71 0 0 1-8.94 2.44Z"/><path d="M250.25 97.14c0 4.53-5.06 8.2-11.29 8.2s-11.3-3.67-11.3-8.2 5.06-8.2 11.3-8.2 11.29 3.67 11.29 8.2Zm54.05 0c0 4.53-5.06 8.2-11.3 8.2s-11.29-3.67-11.29-8.2 5.06-8.2 11.29-8.2 11.3 3.67 11.3 8.2Z" style="opacity:.5;fill:#f88968"/><path d="M6.55 236.66S275.52 631.4 314.49 684l37.44 1.41 8.6-319.66-2-9.21-25 328.65-3.92-3L7.72 230.82Z" style="fill:red"/><path class="cls-12" d="M367.72 343a6.72 6.72 0 1 0 5.72-7.59 6.72 6.72 0 0 0-5.72 7.59Z"/><path class="cls-3" d="M379.66 370.16c1.65-.68 3.66-.69 4.66-2.6 1.12-2.11.27-5.29 0-7.51a163.17 163.17 0 0 0-3.58-20l-13 3c-.33.07-2.54 5.92-2.88 6.52-1.54 2.73-4.41 4.72-6.44 7.13s-4.71 4.85-6.35 7.78c-2.05 3.65-.51 4.21 2.61 5.7 5.16 2.45 3.78 2.75 4 7.72.07 1.34.64 3.36 1.85 3.94a3.15 3.15 0 0 0 3.37-.37c.77-.82 1-2.34 1.54-3.31 1.49-2.6 1.88.56 4.75-.25 1.57-.44 3.23-.94 4.15-2.28a38.1 38.1 0 0 1 3.93-4.59 4 4 0 0 1 1.39-.88Z"/><path class="cls-13" d="M310.84 192.41s21 36.83 32 57.83c0 0 1.46 24.72 22.45 97.23 0 0 11 4.36 17.37-4 0 0-6.07-74.35-12.19-99.84 0 0-38.56-73.71-47.76-85.07-.03.03-10.43 14.77-11.87 33.85Z"/><path class="cls-3" d="M334.55 504c.19 7.29.24 13.38.09 17.68l6.34 127-23.33 2.5c-4.07-30.91-14.24-78.6-15-122.11L296.84 504Z"/><path class="cls-4" d="M316.32 648.12c.68-9.58 9.24-14.8 18-12.41 8.54 2.34 9.57 16.59 9.57 16.59a44.78 44.78 0 0 1 12.67 25.7c.06.36.12.72.15 1.11a5.75 5.75 0 0 1-4.78 6.31 128.06 128.06 0 0 1-44.05.12 5.72 5.72 0 0 1-4.67-6.36v-.34c1-7.26 2.93-20.57 11.81-25.51Z"/><path class="cls-5" d="m319.7 659.15-.77-1.75c.53-.23 13.1-5.62 22.26.36l-1 1.6c-8.35-5.42-20.37-.26-20.49-.21Z"/><path class="cls-5" d="M321.27 658.91a2.15 2.15 0 1 1-1.76-2.47 2.15 2.15 0 0 1 1.76 2.47Zm21.61-.52a2.15 2.15 0 1 1-4.24-.7 2.15 2.15 0 1 1 4.24.7Zm-22.96-4.63-.77-1.75c.53-.23 13.1-5.62 22.26.36l-1 1.6c-8.35-5.42-20.41-.26-20.49-.21Z"/><path class="cls-5" d="M321.49 653.51a2.15 2.15 0 1 1-1.77-2.47 2.15 2.15 0 0 1 1.77 2.47Zm21.61-.51a2.15 2.15 0 1 1-1.77-2.48 2.15 2.15 0 0 1 1.77 2.48Zm-23.4 11.53-.77-1.75c.53-.23 13.1-5.62 22.26.36l-1 1.6c-8.35-5.42-20.37-.26-20.49-.21Z"/><path class="cls-5" d="M321.27 664.29a2.15 2.15 0 0 1-4.24-.71 2.15 2.15 0 1 1 4.24.71Zm21.61-.52a2.15 2.15 0 1 1-4.24-.71 2.15 2.15 0 0 1 4.24.71Zm-7.35-21.88s-6.46-2.24-12 .48a6.26 6.26 0 0 0 0 4.4s7.43-1.2 12.12-.28c.03 0 .92-2.65-.12-4.6Z"/><path class="cls-6" d="M351.93 685.41a128.06 128.06 0 0 1-44.05.12 5.72 5.72 0 0 1-4.67-6.36v-.34a96.05 96.05 0 0 0 53.32-.84c.06.36.12.72.15 1.11a5.75 5.75 0 0 1-4.75 6.31Z"/><path class="cls-2" d="M324.66 354.84c4.46 27 11.18 96.78 16.65 156.09 0 0-15.88 16.73-49.38 7.75l-11.68-121.36s1.97-24.19 44.41-42.48Z"/><path class="cls-12" d="M36.06 220.11a6.72 6.72 0 1 1 5.67-7.62 6.73 6.73 0 0 1-5.67 7.62Z"/><path class="cls-3" d="M6.67 216.29c.18-1.77-.37-3.7 1.18-5.2 1.71-1.66 5-1.75 7.2-2.14a164.36 164.36 0 0 1 20.16-2.2l.85 13.36c0 .33-5 4.1-5.45 4.6-2.19 2.24-3.28 5.56-5 8.19-1.84 2.78-3.33 5.88-5.68 8.29-2.92 3-3.89 1.67-6.2-.91-3.83-4.28-3.73-2.84-8.56-1.69-1.31.31-3.41.32-4.31-.67a3.14 3.14 0 0 1-.59-3.34c.57-1 2-1.6 2.74-2.41 2.07-2.15-1.07-1.64-1.11-4.63 0-1.62 0-3.36 1-4.61a39.26 39.26 0 0 0 3.29-5.07 3.87 3.87 0 0 0 .48-1.57Z"/><path class="cls-13" d="M194.71 187.33s-42.35 1.76-66 3.59c0 0-21.73 11.88-94.33 32.56 0 0-9.51-7-5.85-16.82 0 0 66.23-34.31 91.08-42.65 0 0 77.49-6.84 92-5.07a43.07 43.07 0 0 1-16.9 28.39Z"/><path class="cls-13" d="M208.14 199.48s-6.9-10.39-17.71-12 21.2-28.58 21.2-28.58 4.02 29.1-3.49 40.58Z"/></g></g></svg>