<svg xmlns="http://www.w3.org/2000/svg" viewBox="0 0 264.11 708.98"><defs><style>.cls-9{fill:#32324c}.cls-2{fill:#2c2c2c}.cls-3{fill:#ffaf82}.cls-4{fill:#dd342c}.cls-5{fill:#fff}.cls-6{fill:#2d070a}.cls-7{fill:#f88968}.cls-8{fill:#ffa378}.cls-12{fill:#fbc0a4}.cls-13{fill:#bc2327}</style></defs><g id="Capa_2" data-name="Capa 2"><g id="Información"><ellipse cx="132.05" cy="688.95" rx="132.05" ry="20.03" style="opacity:.1;fill:#32324c"/><path class="cls-2" d="M73.11 388.33c-.09-26.7 6.52-44.61 6.52-44.61 42.89-2.77 110.33 0 110.33 0 .09.26.18.52.28.77 0 0 6.93 24.38 2.87 43.84-41.72 25.85-81.93 24.14-120 0Z"/><path class="cls-3" d="M67.27 506.27c-.19 7.32-.23 13.44-.08 17.76l-6.37 127.61 23.43 2.52c4.09-31 14.3-79 15.08-122.66l5.83-25.23Z"/><path class="cls-4" d="M85.59 651c-.69-9.62-9.28-14.86-18.06-12.46-8.57 2.35-9.6 16.66-9.6 16.66A45 45 0 0 0 45.17 681c-.06.37-.12.73-.16 1.12a5.8 5.8 0 0 0 4.81 6.34 128.72 128.72 0 0 0 44.25.12 5.76 5.76 0 0 0 4.69-6.39v-.34c-1-7.29-2.94-20.67-11.86-25.63Z"/><path class="cls-5" d="m82.19 662.09.77-1.76c-.53-.24-13.16-5.65-22.36.36l1 1.61c8.4-5.45 20.47-.3 20.59-.21Z"/><path class="cls-5" d="M80.61 661.84a2.16 2.16 0 1 0 1.78-2.49 2.16 2.16 0 0 0-1.78 2.49Zm-21.7-.52a2.16 2.16 0 1 0 1.78-2.48 2.16 2.16 0 0 0-1.78 2.48ZM82 656.67l.77-1.76c-.53-.24-13.16-5.65-22.36.36l1 1.61c8.36-5.45 20.44-.27 20.59-.21Z"/><path class="cls-5" d="M80.39 656.42a2.16 2.16 0 1 0 1.78-2.49 2.16 2.16 0 0 0-1.78 2.49Zm-21.7-.52a2.16 2.16 0 1 0 1.78-2.48 2.16 2.16 0 0 0-1.78 2.48Zm23.5 11.59.77-1.76c-.53-.23-13.16-5.65-22.36.36l1 1.61c8.4-5.45 20.47-.27 20.59-.21Z"/><path class="cls-5" d="M80.61 667.24a2.16 2.16 0 1 0 1.78-2.48 2.17 2.17 0 0 0-1.78 2.48Zm-21.7-.52a2.16 2.16 0 1 0 1.78-2.48 2.17 2.17 0 0 0-1.78 2.48Zm7.38-21.98s6.49-2.24 12 .48a6.23 6.23 0 0 1 0 4.43s-7.45-1.21-12.17-.28c.02 0-.87-2.67.17-4.63Z"/><path class="cls-6" d="M49.82 688.46a128.72 128.72 0 0 0 44.25.12 5.76 5.76 0 0 0 4.69-6.39v-.34a96.51 96.51 0 0 1-53.59-.85c-.06.37-.12.73-.16 1.12a5.8 5.8 0 0 0 4.81 6.34Z"/><path class="cls-2" d="M76.29 356.24c-4.48 27.1-10.31 97.38-15.81 157 0 0 16 16.8 49.6 7.79l11.74-121.9s3.73-33.35-45.53-42.89Z"/><path class="cls-4" d="M75.85 354.72c37 22.8 77.11 28.13 118.28 0l-2.25-68.52.56-126.42-41.76-11.21a62.45 62.45 0 0 0-32.49 0l-41.75 11.17.56 126.42Z"/><path class="cls-3" d="m151 130.36-.58 10.84-.72 13.58s-2.69 5.11-14.86 5.11-14.66-3.5-14.66-3.5l-.49-6-1.64-20Z"/><path class="cls-7" d="m151 130.36-.58 10.84c-5.07 3.8-17.08 11.27-30.73 9.17l-1.64-20Z"/><path class="cls-8" d="M97.25 81.09S87.93 72 80.48 77.93c-8.79 7 .41 32.33 16 29.65Z"/><path class="cls-7" d="M91.81 101.28a1.54 1.54 0 0 1-1.49-1.41c-1-12.46-8.29-14.62-8.6-14.7a1.55 1.55 0 0 1 .79-3c.39.11 9.7 2.69 10.89 17.44a1.54 1.54 0 0 1-1.4 1.67Z"/><path class="cls-7" d="M83.09 94.94a1.61 1.61 0 0 1-1-.43 1.55 1.55 0 0 1-.09-2.18 8.78 8.78 0 0 1 8.32-2.1 1.54 1.54 0 0 1-.76 3 5.63 5.63 0 0 0-5.32 1.24 1.55 1.55 0 0 1-1.15.47Z"/><path class="cls-8" d="M168.48 81.09s9.32-9.12 16.76-3.16c8.8 7-.4 32.33-16 29.65Z"/><path class="cls-7" d="M173.92 101.28a1.53 1.53 0 0 0 1.48-1.41c1-12.46 8.29-14.62 8.6-14.7a1.55 1.55 0 0 0-.78-3c-.4.11-9.71 2.69-10.9 17.44a1.55 1.55 0 0 0 1.42 1.66Z"/><path class="cls-7" d="M182.64 94.94a1.56 1.56 0 0 0 1-.43 1.54 1.54 0 0 0 .06-2.18 8.77 8.77 0 0 0-8.32-2.1 1.54 1.54 0 1 0 .77 3 5.61 5.61 0 0 1 5.31 1.24 1.58 1.58 0 0 0 1.18.47Z"/><path class="cls-3" d="M133.33 141c-32.21 0-42.15-38.25-45.11-66.26a44.18 44.18 0 0 1 43.28-48.87h2.33a44.23 44.23 0 0 1 43.41 48c-2.46 28.41-11.72 67.13-43.91 67.13Z"/><path class="cls-9" d="M122.7 63.09v5.57s-10.2-1.86-17.12 2.45l-.8-4.64s5.83-5.83 17.92-3.38Zm21.06 0v5.57s10.24-1.86 17.11 2.45l.8-4.64s-5.82-5.83-17.91-3.38Z"/><path class="cls-9" d="M169.57 40.49s13.23 14.81 6.76 41.8a5.09 5.09 0 0 1-4.93-5.22c.18-6.52-.46-12.12-1.23-14.46-2.26-6.86-12.14-11-11.53-18.38 0 0-36.86 11.52-56.81.2 0 0-.2 10-5.75 15.91-2.09 2.22.29 10.12-.51 17.46a7.77 7.77 0 0 1-6.07 6.67 69.93 69.93 0 0 1-1.63-24.55c1.35-11 3.73-16.15 3.73-16.15s8.14-21.72 40.27-21.72c29.88 0 37.7 18.44 37.7 18.44Z"/><path class="cls-9" d="M88.34 56.51s-4.42-16.9-1.79-25.07 8.79-9.39 8.79-9.39S113.82 5.6 143.45 1.12s23.83 5.54 19.87 11.34c0 0 11-9 14.08-1.85s-5.08 13.71-5.08 13.71 8-7.45 10.86-2.27-8 18.36-14.7 20.73c0 0-58.94-20.73-80.14 13.73Zm31.16 22.77c0 3.22-1.44 5.83-3.2 5.83s-3.21-2.61-3.21-5.83 1.43-5.83 3.2-5.83 3.21 2.61 3.21 5.83Zm28.81 0c0 3.22 1.43 5.83 3.2 5.83s3.21-2.61 3.21-5.83-1.44-5.83-3.2-5.83-3.21 2.61-3.21 5.83Z"/><path class="cls-7" d="M133.4 100.8a1.7 1.7 0 0 1-.72-3.14l4.84-3-3.8-1.4a1.7 1.7 0 0 1-1.11-1.49L132 80.86a1.71 1.71 0 0 1 1.6-1.8 1.69 1.69 0 0 1 1.79 1.59l.59 9.82 6 2.22a1.7 1.7 0 0 1 .31 3l-7.82 4.82a1.69 1.69 0 0 1-1.07.29Zm7.18 14.2a29.58 29.58 0 0 1-22.57-4.1 1.69 1.69 0 0 1 1.85-2.82c14.11 9.26 29.5.21 29.66.11a1.69 1.69 0 0 1 1.74 2.89 36 36 0 0 1-10.68 3.92Zm-5.75 8.92a17.18 17.18 0 0 1-9.36-2.47 1.18 1.18 0 1 1 1.22-2c7.89 4.7 15.57.22 15.9 0a1.18 1.18 0 0 1 1.22 2 19.81 19.81 0 0 1-8.98 2.47Z"/><path d="M118 97.57c0 4.55-5.08 8.24-11.34 8.24s-11.35-3.69-11.35-8.24 5.08-8.23 11.35-8.23S118 93 118 97.57Zm54.32 0c0 4.55-5.08 8.24-11.34 8.24s-11.35-3.69-11.35-8.24 5.08-8.23 11.35-8.23 11.34 3.66 11.34 8.23Z" style="opacity:.5;fill:#f88968"/><path d="M29.94 356.24s113.47 278 152.62 330.8l37.6 1.42L237.5 369l-2-9.25-33.83 328.49-3.94-3L31.12 350.37Z" style="fill:red"/><path class="cls-12" d="M237.14 346.4a6.75 6.75 0 1 0 3.47-8.88 6.74 6.74 0 0 0-3.47 8.88Z"/><path class="cls-3" d="M256.05 369.39c1.42-1.1 3.35-1.66 3.81-3.78.5-2.34-1.18-5.19-2-7.27A163 163 0 0 0 249 340l-11.82 6.4c-.29.16-.84 6.42-1 7.09-.75 3.06-3 5.76-4.3 8.65-1.38 3-3.23 6-4 9.24-1 4.09.65 4.21 4.08 4.8 5.65 1 4.4 1.64 6 6.37.43 1.28 1.53 3.08 2.86 3.31a3.15 3.15 0 0 0 3.16-1.27c.51-1 .31-2.53.59-3.62.73-2.91 2 0 4.53-1.53 1.39-.85 2.86-1.78 3.38-3.33a38.78 38.78 0 0 1 2.52-5.51 4.09 4.09 0 0 1 1.05-1.21Z"/><path class="cls-13" d="M180.48 193.86s21.08 37 32.11 58.08c0 0 1.47 24.83 22.56 97.66 0 0 11 4.38 17.44-4 0 0-6.09-74.68-12.24-100.28 0 0-38.74-74.05-48-85.45.03.02-10.42 14.82-11.87 33.99Z"/><path class="cls-12" d="M31.4 344.56a6.75 6.75 0 1 1-5.74-7.62 6.76 6.76 0 0 1 5.74 7.62Z"/><path class="cls-3" d="M19.4 371.8c-1.66-.67-3.67-.69-4.68-2.61-1.12-2.11-.27-5.31 0-7.54a164.15 164.15 0 0 1 3.6-20l13.11 3c.33.08 2.55 5.95 2.89 6.56 1.54 2.74 4.43 4.73 6.47 7.16s4.73 4.87 6.38 7.81c2.06 3.66.51 4.23-2.63 5.72-5.17 2.47-3.79 2.77-4 7.76-.07 1.34-.65 3.37-1.86 3.95a3.12 3.12 0 0 1-3.38-.37c-.77-.82-1-2.35-1.55-3.32-1.49-2.61-1.89.57-4.78-.25-1.57-.44-3.24-.94-4.16-2.29a37.69 37.69 0 0 0-3.95-4.61 4.11 4.11 0 0 0-1.46-.97Z"/><path class="cls-13" d="M88.54 193.27s-21.08 37-32.12 58.08c0 0-1.47 24.83-22.55 97.66 0 0-11 4.38-17.44-4 0 0 6.09-74.68 12.23-100.28 0 0 38.74-74.05 48-85.46-.02.02 10.42 14.83 11.88 34Z"/><path class="cls-3" d="M202.71 506.27c.19 7.32.24 13.44.09 17.76l6.36 127.61-23.43 2.52c-4.09-31-14.3-79-15.08-122.66l-5.82-25.23Z"/><path class="cls-4" d="M184.39 651c.69-9.62 9.29-14.86 18.06-12.46 8.57 2.35 9.61 16.66 9.61 16.66a45 45 0 0 1 12.76 25.8c.05.37.11.73.15 1.12a5.79 5.79 0 0 1-4.81 6.34 128.66 128.66 0 0 1-44.24.12 5.77 5.77 0 0 1-4.7-6.39v-.34c1-7.29 2.94-20.67 11.86-25.63Z"/><path class="cls-5" d="m187.79 662.09-.77-1.76c.53-.24 13.16-5.65 22.36.36l-1 1.61c-8.38-5.45-20.47-.3-20.59-.21Z"/><path class="cls-5" d="M189.37 661.84a2.16 2.16 0 1 1-1.77-2.49 2.16 2.16 0 0 1 1.77 2.49Zm21.7-.52a2.16 2.16 0 1 1-1.77-2.48 2.15 2.15 0 0 1 1.77 2.48ZM188 656.67l-.77-1.76c.53-.24 13.16-5.65 22.36.36l-1 1.61c-8.38-5.45-20.46-.27-20.59-.21Z"/><path class="cls-5" d="M189.59 656.42a2.16 2.16 0 1 1-1.77-2.49 2.16 2.16 0 0 1 1.77 2.49Zm21.7-.52a2.16 2.16 0 1 1-1.77-2.48 2.15 2.15 0 0 1 1.77 2.48Zm-23.5 11.59-.77-1.76c.53-.23 13.16-5.65 22.36.36l-1 1.61c-8.38-5.45-20.47-.27-20.59-.21Z"/><path class="cls-5" d="M189.37 667.24a2.16 2.16 0 1 1-1.77-2.48 2.17 2.17 0 0 1 1.77 2.48Zm21.7-.52a2.16 2.16 0 1 1-1.77-2.48 2.16 2.16 0 0 1 1.77 2.48Zm-7.38-21.98s-6.49-2.24-12 .48a6.29 6.29 0 0 0 0 4.43s7.46-1.21 12.18-.28c-.02 0 .87-2.67-.18-4.63Z"/><path class="cls-6" d="M220.16 688.46a128.66 128.66 0 0 1-44.24.12 5.77 5.77 0 0 1-4.7-6.39v-.34a96.54 96.54 0 0 0 53.56-.85c.05.37.11.73.15 1.12a5.79 5.79 0 0 1-4.77 6.34Z"/><path class="cls-2" d="M192.78 356.42c4.47 27.1 11.22 97.2 16.72 156.78 0 0-16 16.8-49.6 7.79l-11.74-121.9s-4.65-33.09 44.62-42.67Z"/></g></g></svg>