<svg xmlns="http://www.w3.org/2000/svg" viewBox="0 0 608.97 807.59"><defs><style>.cls-1{fill:#ffaf82}.cls-3{fill:#08a8b1}.cls-5{fill:#2c2c2c}.cls-6{fill:#02c6cb}.cls-8{fill:#162d47}.cls-9{fill:#f88968}</style></defs><g id="Capa_2" data-name="Capa 2"><g id="Información"><path class="cls-1" d="M26.75 334.27c1.16.2 2.36.37 3.61.53l.83.1c2.26.26 4.62.45 7.05.57 13.63.65 29.31-1.26 40.62-8.34 0 0-2.07-26.77-5.57-32.83 0 0-9.06-10.23-18.63-17 0 0-11.47-9.68-17.47-8.83s-8.45 6.91-8.45 6.91l-2.11-.71c-3.05-1-8.51-2.82-10.32-3.39-9.84-3-16 5.42-1.61 13.79-1.36-.29-10.8-2.54-13.35 5.2-1.8 5.45 10.51 10.63 10.51 10.63S-.42 304 0 309.25c.49 5.79 13 8.31 13.47 8.41-.39.2-7 3.45-4.22 9.82 1.12 2.52 8.04 5.24 17.5 6.79Z"/><path d="M204.14 319.72a31.36 31.36 0 0 0 7.72 7.86 27.62 27.62 0 0 0 22.71 4.42 30.26 30.26 0 0 0 19-14.58 36.22 36.22 0 0 0-1.32-38.06 31.19 31.19 0 0 0-7.72-7.86 27.62 27.62 0 0 0-22.71-4.45 30.24 30.24 0 0 0-19 14.57 36.24 36.24 0 0 0 1.32 38.1Z" style="fill:#f8e8d8"/><path class="cls-3" d="M72.92 338.43c23.14 2.29 154.42-5.47 159.27-5.94l6.33-1.76-10.7-64.73-3.93.68c-.74.13-18.43 3.23-48.16 13.25-7.53 2.53-105.38 7.59-105.38 7.59l-1 50.72Zm282.52-44.56a39.46 39.46 0 0 1-5.93-11.72 41.84 41.84 0 0 1 1.57-29.38c4.06-9.26 10.85-13.63 19.65-17 13.76-5.32 29.49-3.14 38.7 9.27a39.4 39.4 0 0 1 5.93 11.71c6.29 20-3.36 42-21.51 49-13.77 5.3-29.2.53-38.41-11.88Z"/><path class="cls-3" d="m213.43 270.61 4.87-2.44c4.37-1.68 107.37-31.81 152.6-34.11l18.73-2.24 12.47 69.29-21.16 14c-51.23 7-132.85 12.7-143.14 15.9l-3.56 1.11Z"/><path class="cls-3" d="M204.83 320.7a36 36 0 0 1-4.66-33.35c6.14-17.06 23.71-25.46 39.15-18.73a30.34 30.34 0 0 1 12.17 9.79 36 36 0 0 1 4.67 33.35 31.89 31.89 0 0 1-16.09 18.3 27.35 27.35 0 0 1-23.06.43 30.43 30.43 0 0 1-12.18-9.79Z"/><path d="M414 807.1c15-77 9.88-158 9.88-158-33.65-15.4-87.6-29.45-87.6-29.45-28.28 97.45-12.21 187.94-12.21 187.94Z" style="fill:#050705"/><path class="cls-5" d="M538.32 807.59s25.11-45 3.15-173.15l-93.85 14.66S422 621.59 439 801.1Z"/><path class="cls-5" d="M535.24 603s15 52.88 14.8 100c0 0-73.18 32-166.29-3.37-38.07-14.47-57.41-56.9-43.77-95.28.17-.45.33-.91.49-1.37 0 .02 119.06-4.86 194.77.02Z"/><path class="cls-6" d="M479 165.43s54.37.47 79.07 23 .88 67.94-26 73.67-110.81-4.52-119.49-18.94-2.99-76.88 66.42-77.73Z"/><path class="cls-6" d="M562.51 638.12c-81.74 50.64-161.65 45.56-242.2-3.68l43.54-400.38 47.78-6.4 3.83-.51 10.87-1.45 66.8-8.95 11.25 3.84 14.17 4.86 3.39 1.16 63.15 21.61-47 275.13Z"/><path class="cls-3" d="M474.07 262.52c47.83 0 59.08-42.12 59.19-42.54a1.76 1.76 0 1 0-3.42-.87c-.42 1.63-10.75 39.88-55.76 39.88a3.86 3.86 0 0 0-.76 0 1.76 1.76 0 0 0 0 3.52Zm-44.92-6.77a1.77 1.77 0 0 0 0-3.53c-.63 0-14.53-.63-18.05-19.44a1.77 1.77 0 0 0-3.47.65c4.07 21.75 21.28 22.32 21.45 22.32ZM483 522.71s.27 37.5 8.77 71.95c0 0-88.89 14.42-139.18-12.93a236.28 236.28 0 0 1 1-70Z"/><path d="M463.73 431.58h.15a1.73 1.73 0 0 0 1.57-1.86c-3.8-44 13.08-154.94 13.25-156a1.72 1.72 0 1 0-3.4-.52c-.18 1.06-17.12 112.41-13.3 156.8a1.73 1.73 0 0 0 1.73 1.58Zm-58.15-8.83h.15a1.73 1.73 0 0 0 1.57-1.87c-3.8-44 13.64-155.8 13.82-156.92a1.73 1.73 0 0 0-3.41-.54c-.17 1.13-17.68 113.36-13.84 157.76a1.7 1.7 0 0 0 1.71 1.57Z" style="fill:#fff"/><path class="cls-8" d="M371.27 40.45s-16.39 10.8-10.52 40.17S378 113.11 378 113.11s17.17-65.01-6.73-72.66Z"/><path class="cls-1" d="m435.17 180 3.21 37 1.47 17c21.85 15.16 55.95-7.67 55.95-7.67l1.26-58.22c-10.09-6.37-34.63 3.06-49.82 7.78-7.16 2.27-12.07 4.11-12.07 4.11Z"/><path class="cls-9" d="m435.17 180 3.21 37c24.92-6.57 44.89-42 44.89-42l-36 .86c-7.19 2.3-12.1 4.14-12.1 4.14Z"/><path class="cls-1" d="M364.19 84v3.93c0 1.09 0 2.18.08 3.29.34 11.5 1.5 24.2 3 36.91l1 8c.32 2.29.62 4.58.95 6.84.69 4.7 1.4 9.35 2.13 13.85.5 3.13 1 6.2 1.52 9.17a47.2 47.2 0 0 0 1.49 6.07 44.11 44.11 0 0 0 50.67 29.68c12.91-2.6 27.16-5.8 40.45-9.51.67-.17 1.3-.34 2-.53a219.94 219.94 0 0 0 28.76-10 82.18 82.18 0 0 0 3-4.6c8.5-13.58 13.56-28.81 16.57-44.58 1.19-6.3 2.07-12.68 2.7-19.08a11.88 11.88 0 0 1 .26-1.49c0-5.89-.08-11.77-.19-17.43A74 74 0 0 0 441 22.05c-33 1.71-64.44 14.5-72.38 31.5-3.17 6.75-4.41 17.6-4.43 30.45Z"/><path class="cls-8" d="M499.35 177.13c8.49-13.57 13.56-28.81 16.56-44.58-4.69.06-10.8 1.48-18.77 5.17 0 0-1.79 23.28 2.21 39.41Zm-75.5-68.62c0 4.92 2.19 8.91 4.89 8.91s4.89-4 4.89-8.91-2.19-8.9-4.89-8.9-4.89 3.98-4.89 8.9Zm-50.58 0c0 4.92 2.19 8.91 4.89 8.91s4.9-4 4.9-8.91-2.19-8.9-4.9-8.9-4.89 3.98-4.89 8.9Zm145.49-9.91s-15.68-10.21-28.9 8h-10.27s.58-21.11-4.41-32.56-24.66-11.14-27.6-24.64c0 0-48.16 23.18-75.86 8.4-62.62-33.41 69-76.26 117.17-49.3 35.79 20.03 37.34 54.16 29.87 90.1Z"/><path class="cls-8" d="M448.54 93.73s-4.71-9.68-13.76-12.1c-8.37-2.24-14.35-.08-17.34 1.55a3 3 0 0 0-1.36 3.69 3 3 0 0 0 4.1 1.68c5.07-2.36 16.22-5.39 28.36 5.18ZM364.19 84v3.93a24.12 24.12 0 0 1 20.92-.21 3 3 0 0 0 1.28.29 3 3 0 0 0 1.47-5.65c-3-1.63-9-3.8-17.35-1.56a18.35 18.35 0 0 0-6.32 3.2Z"/><path class="cls-1" d="M489.86 106.62s15.74-19.06 28.9-8c14.51 12.17 3.4 53.44-26.09 52.5Z"/><path class="cls-9" d="M492 142.15a2.58 2.58 0 0 0 2.57-2.3c2.4-20.87 14.78-24.08 15.31-24.21a2.59 2.59 0 0 0-1.15-5.06c-.67.15-16.47 4-19.31 28.68a2.58 2.58 0 0 0 2.28 2.87 1.51 1.51 0 0 0 .3.02Z"/><path class="cls-9" d="M508.51 128.93a2.59 2.59 0 0 0 1.94-4.32 14.71 14.71 0 0 0-13.86-4 2.59 2.59 0 1 0 1.11 5.06 9.44 9.44 0 0 1 8.87 2.39 2.56 2.56 0 0 0 1.94.87Zm-97.21 54.58a25 25 0 0 0 16.65-6 2.6 2.6 0 0 0-3.6-3.74c-.37.35-8.29 7.6-21.49 3.08a2.59 2.59 0 1 0-1.68 4.91 31.16 31.16 0 0 0 10.12 1.75Zm-12.47-46.37a2.59 2.59 0 0 0 1.58-4.65l-6.92-5.28 6-1.56a2.58 2.58 0 0 0 1.91-2.1L404 107a2.59 2.59 0 0 0-5.12-.82l-2.38 14.84-9.5 2.5a2.6 2.6 0 0 0-.93 4.58l11.16 8.51a2.59 2.59 0 0 0 1.6.53Zm4.08 34.16c9.78 0 22.11-2.6 32.58-12.92a2.58 2.58 0 1 0-3.62-3.67c-18.36 18.1-44.14 9.16-44.39 9.07a2.58 2.58 0 1 0-1.74 4.86 55.43 55.43 0 0 0 17.17 2.66Z"/><path class="cls-6" d="M565.38 299.34a28.48 28.48 0 0 0 42.65-19 28.48 28.48 0 1 0-42.65 19Z"/><path class="cls-6" d="m583.36 468 11.53-67.57c.7-3.71 17.25-91.26 13.54-128.07l-.31-3.13-56.55 4.26.07 3.06c1 42.17-4 106.1-5.17 114.76l-10.71 66.38Z"/><path class="cls-6" d="M550.53 473.06a24.65 24.65 0 1 0 .47-42.46 24.65 24.65 0 0 0-.43 42.46Z"/><path class="cls-3" d="M551.48 307.88a389.12 389.12 0 0 1-3.87 55.52 102.79 102.79 0 0 1-3.42 15.92l-.84 2.17c.36-1.52.77-3 1-4.52.38-2 .69-4.82 1-6.86 2.23-20.11 3.65-42.11 6.13-62.23Z"/><path class="cls-9" d="M37.44 299.56S37.74 313.47 56 319c0 0-17.69 3.63-21.94-19.58Z"/><path d="M8.46 277.51S29.6 265.37 39 293.79a93.34 93.34 0 0 1 2.73 43 15.59 15.59 0 0 1-12.12-2.52l2.94.82s1.21-52.94-24.09-57.58Z" style="fill:#5c7aea"/><path d="m31.46 310 413.14-2.16 17.48-46.48L33 294s-12.13-1.63-12.13 8.45C20.84 310 31.46 310 31.46 310Z" style="fill:#667ef7"/><path class="cls-1" d="M7 273.56c-2.14 4 3.22 11.63 12 17.07s15.49 7.2 19.71 2.64c3-3.25-3.22-11.63-12-17.07S9.1 269.58 7 273.56Z"/><ellipse class="cls-1" cx="21.09" cy="298.31" rx="8.23" ry="14.79" transform="rotate(-64 21.072 298.294)"/><path class="cls-9" d="M22.73 322.45q1.66.65 3.45 1.26a9.68 9.68 0 0 0 6.18-5.4c2.63-6.5-3.82-9.64-3.82-9.64s5.75 1 6.75-3.73a8.18 8.18 0 0 0-2.44-7.61S38.06 297 39 293s-7.16-11.39-7.16-11.39 4.4 5.76 4.64 9.53-4.4 6.06-10.29 2.76c.64.35 6.63 3.8 6.44 9.07-.21 5.42-10.54 4-11.09 3.93.54.26 10.51 4.75 9.19 9.72-.94 3.38-4.73 5.12-8 5.83Z"/><path class="cls-1" d="M40.57 269.05C35 268 30.41 271.36 29 280.05s.26 14.87 7.64 17.62c5.27 2 11.29-5.14 12.69-13.83s-3.15-13.75-8.76-14.79Z"/><path class="cls-9" d="M29.36 278.33s-1.84 11.08 3.82 16.67 14.58 2.5 16.28-15a18.82 18.82 0 0 1-2.84 14c-4.64 7.25-12.91 5.75-15.36 1.94s-3.6-8.13-1.9-17.61Z"/><path d="M466.83 320.4a13.2 13.2 0 1 0-2.19 18.54 13.21 13.21 0 0 0 2.19-18.54Z" style="fill:#fbc0a4"/><path class="cls-1" d="M419.65 286.21c-2.13 2.78-5.52 4.79-5.33 9 .2 4.68 4.8 9.25 7.4 12.77a319.65 319.65 0 0 0 25.88 30.35l19.23-18c.47-.45-1.58-12.57-1.6-13.93-.09-6.16 2.82-12.38 3.88-18.49 1.11-6.45 3.17-12.9 3.06-19.5-.13-8.22-3.31-7.65-10.09-7.08-11.19.94-9.14-.94-14.5-9.1-1.45-2.2-4.43-5.06-7.06-4.85-2.2.18-4.87 1.82-5.35 4s.65 4.94.67 7.15c.05 5.87-3.75.9-7.83 5.12-2.22 2.3-4.55 4.8-4.76 8a76.39 76.39 0 0 1-2.13 11.7 7.77 7.77 0 0 1-1.47 2.86Z"/><path class="cls-6" d="M529.77 435.17a31.9 31.9 0 0 0-1.91 10.92 31.75 31.75 0 1 0 1.91-10.92Z"/><path class="cls-6" d="M451 355.12c11.33 21.69 81.32 107.47 84.46 111.52l5 4.7 45.8-43-2.78-3.13c-.52-.59-11.17-22.52-36.12-43.67-6.31-5.36-80.58-61.09-80.58-61.09l-27.62 8.89Z"/><path d="M466.83 320.4s113.33 81.1 122.28 113.91" style="fill:none;stroke:#08a8b1;stroke-miterlimit:10"/></g></g></svg>