<svg xmlns="http://www.w3.org/2000/svg" xmlns:xlink="http://www.w3.org/1999/xlink" viewBox="654 145.9 799.8 803.1" xml:space="preserve"><g opacity=".11"><defs><path id="a" d="M658.8 145.9h795v795h-795z"/></defs><clipPath id="b"><use xlink:href="#a" overflow="visible"/></clipPath><path clip-path="url(#b)" fill="#FFC3A1" d="M1056.3 940.9c-219.1 0-397.5-178.3-397.5-397.5s178.3-397.5 397.5-397.5 397.5 178.3 397.5 397.5c.1 219.2-178.3 397.5-397.5 397.5m0-789.8C840 151.1 664 327.1 664 543.4s176 392.3 392.3 392.3 392.3-176 392.3-392.3c.1-216.3-175.9-392.3-392.3-392.3"/></g><g opacity=".11"><defs><path id="c" d="M672.7 213.2h735.8V949H672.7z"/></defs><clipPath id="d"><use xlink:href="#c" overflow="visible"/></clipPath><path clip-path="url(#d)" fill="#FFC3A1" d="M1408.5 581.1c0 203.2-164.7 367.9-367.9 367.9S672.7 784.3 672.7 581.1s164.7-367.9 367.9-367.9 367.9 164.7 367.9 367.9"/></g><path fill="none" d="M2574 903.6H654v-1080"/></svg>