<svg xmlns="http://www.w3.org/2000/svg" xmlns:xlink="http://www.w3.org/1999/xlink" viewBox="0 -1.8 612 289.8" xml:space="preserve"><defs><path id="a" d="M612-48v345.6H0V-48"/></defs><clipPath id="b"><use xlink:href="#a" overflow="visible"/></clipPath><g clip-path="url(#b)"><defs><path id="c" d="M66.6 2.3h543.3v281.1H66.6z"/></defs><clipPath id="d"><use xlink:href="#c" overflow="visible"/></clipPath><g clip-path="url(#d)"><g opacity=".1"><defs><path id="e" opacity=".1" d="M112.9 2.3H610V282H112.9z"/></defs><clipPath id="f"><use xlink:href="#e" overflow="visible"/></clipPath><g clip-path="url(#f)"><defs><path id="g" d="M483.1 2.9c122.8 9.1 172.6 177.6 76.2 260.8-19.7 17-67.2 21.1-92.2 16.6-101-17.7-111.3-74-175.2-32S112 294.2 113 178.2 284.4 136.9 332.1 57c21.8-36.6 87-58.8 151-54.1"/></defs><clipPath id="h"><use xlink:href="#g" overflow="visible"/></clipPath><linearGradient id="i" gradientUnits="userSpaceOnUse" x1="0" y1="-298.537" x2="1" y2="-298.537" gradientTransform="translate(112.846 148555.25) scale(497.1206)"><stop offset="0" style="stop-color:#4f80ff"/><stop offset="1" style="stop-color:#157bb5"/></linearGradient><path clip-path="url(#h)" fill="url(#i)" d="M111.9-1.8h543.7v296H111.9z"/></g></g><defs><path id="j" d="M66.6 2.3h543.3v281.1H66.6z"/></defs><clipPath id="k"><use xlink:href="#j" overflow="visible"/></clipPath><g clip-path="url(#k)"><g opacity=".1"><defs><path id="l" opacity=".1" d="M241.2 35.1h64.1v48h-64.1z"/></defs><clipPath id="m"><use xlink:href="#l" overflow="visible"/></clipPath><g clip-path="url(#m)"><defs><path id="n" d="M304.5 46.9c2.3 7 .1 14.8-5.2 19.5-8.4 7.5-25.4 19.6-45.2 16-28.3-5.1-5.7-44 26.1-47.1 15.9-1.5 22.1 4.9 24.3 11.6"/></defs><clipPath id="o"><use xlink:href="#n" overflow="visible"/></clipPath><linearGradient id="p" gradientUnits="userSpaceOnUse" x1="0" y1="-302.215" x2="1" y2="-302.215" gradientTransform="translate(241.255 19443.023) scale(64.1368)"><stop offset="0" style="stop-color:#4f80ff"/><stop offset="1" style="stop-color:#157bb5"/></linearGradient><path clip-path="url(#o)" fill="url(#p)" d="M225.9 33.8h80.9V86h-80.9z"/></g></g><defs><path id="q" d="M66.6 2.3h543.3v281.1H66.6z"/></defs><clipPath id="r"><use xlink:href="#q" overflow="visible"/></clipPath><g clip-path="url(#r)"><g opacity=".1"><defs><path id="s" opacity=".1" d="M196.3 70.8h34.3v23.8h-34.3z"/></defs><clipPath id="t"><use xlink:href="#s" overflow="visible"/></clipPath><g clip-path="url(#t)"><defs><path id="u" d="M230.2 88.4c-1.1 3.7-4.3 6.2-7.9 6.2-5.7.2-16.2-.7-23.3-9.1-10.1-11.9 10.6-20.1 24.6-10.4 7 4.9 7.7 9.7 6.6 13.3"/></defs><clipPath id="v"><use xlink:href="#u" overflow="visible"/></clipPath><linearGradient id="w" gradientUnits="userSpaceOnUse" x1="0" y1="-305.982" x2="1" y2="-305.982" gradientTransform="translate(196.28 10576.684) scale(34.3047)"><stop offset="0" style="stop-color:#4f80ff"/><stop offset="1" style="stop-color:#157bb5"/></linearGradient><path clip-path="url(#v)" fill="url(#w)" d="M188.8 65.4h42.4v29.4h-42.4z"/></g></g><defs><path id="x" d="M66.6 2.3h543.3v281.1H66.6z"/></defs><clipPath id="y"><use xlink:href="#x" overflow="visible"/></clipPath><g opacity=".6" clip-path="url(#y)"><g opacity=".1"><defs><path id="z" opacity=".1" d="M66.6 261h35v22.4h-35z"/></defs><clipPath id="A"><use xlink:href="#z" overflow="visible"/></clipPath><g clip-path="url(#A)"><defs><path id="B" d="M101.5 274.7c-.5 3.8-3.2 6.9-6.7 7.7-5.5 1.3-16.1 2.5-24.5-4.3-12-9.7 7.1-21.9 22.5-15.1 7.7 3.4 9.2 8 8.7 11.7"/></defs><clipPath id="C"><use xlink:href="#B" overflow="visible"/></clipPath><linearGradient id="D" gradientUnits="userSpaceOnUse" x1="0" y1="-305.796" x2="1" y2="-305.796" gradientTransform="translate(66.61 10973.414) scale(35.0001)"><stop offset="0" style="stop-color:#4f80ff"/><stop offset="1" style="stop-color:#157bb5"/></linearGradient><path clip-path="url(#C)" fill="url(#D)" d="M58.4 256.2H102v28.7H58.4z"/></g></g></g></g></g></g></g></svg>