<svg xmlns="http://www.w3.org/2000/svg" xmlns:xlink="http://www.w3.org/1999/xlink" viewBox="0 0 689.8 690.5" xml:space="preserve"><g opacity=".11"><defs><path id="a" d="M6.3 0h683.5v683.5H6.3z"/></defs><clipPath id="b"><use xlink:href="#a" overflow="visible"/></clipPath><path clip-path="url(#b)" fill="#739FD4" d="M348.1 683.5C159.6 683.5 6.3 530.2 6.3 341.7 6.3 153.3 159.6 0 348.1 0c188.4 0 341.7 153.3 341.7 341.7 0 188.5-153.3 341.8-341.7 341.8m0-679c-186 0-337.3 151.3-337.3 337.3s151.3 337.3 337.3 337.3 337.3-151.3 337.3-337.3S534.1 4.5 348.1 4.5"/></g><g opacity=".11"><defs><path id="c" d="M31.8 57.9h632.6v632.6H31.8z"/></defs><clipPath id="d"><use xlink:href="#c" overflow="visible"/></clipPath><path clip-path="url(#d)" fill="#739FD4" d="M664.4 374.2c0 174.7-141.6 316.3-316.3 316.3-174.7 0-316.3-141.6-316.3-316.3S173.4 57.9 348.1 57.9c174.7 0 316.3 141.6 316.3 316.3"/></g></svg>