<svg xmlns="http://www.w3.org/2000/svg" xmlns:xlink="http://www.w3.org/1999/xlink" viewBox="0 0 1930 1090" xml:space="preserve"><defs><path id="a" d="M1930 0v1090H0V0"/></defs><clipPath id="b"><use xlink:href="#a" overflow="visible"/></clipPath><g opacity=".6" clip-path="url(#b)"><defs><path id="c" d="M210.1 158.5h1713.5v886.6H210.1z"/></defs><clipPath id="d"><use xlink:href="#c" overflow="visible"/></clipPath><g opacity=".1" clip-path="url(#d)"><defs><path id="e" d="M355.9 158.5h1567.7v882H355.9z"/></defs><clipPath id="f"><use xlink:href="#e" overflow="visible"/></clipPath><g clip-path="url(#f)"><defs><path id="g" d="M1523.4 160.5c387.4 28.6 544.3 560 240.2 822.3-62.1 53.6-211.9 66.4-290.9 52.5-318.5-55.9-351-233.5-552.5-100.9S353 1079.3 355.9 713.3c2.9-366 540.9-130.1 691.4-382.2 68.8-115.4 274.4-185.5 476.1-170.6"/></defs><clipPath id="h"><use xlink:href="#g" overflow="visible"/></clipPath><linearGradient id="i" gradientUnits="userSpaceOnUse" x1="0" y1="1089.992" x2="1" y2="1089.992" gradientTransform="matrix(1567.717 0 0 -1567.717 355.871 1709411.125)"><stop offset="0" style="stop-color:#4f80ff"/><stop offset="1" style="stop-color:#157bb5"/></linearGradient><path clip-path="url(#h)" fill="url(#i)" d="M353 145.6h1714.7v933.6H353z"/></g></g><g opacity=".1" clip-path="url(#d)"><defs><path id="j" d="M760.8 262h202.3v151.4H760.8z"/></defs><clipPath id="k"><use xlink:href="#j" overflow="visible"/></clipPath><g clip-path="url(#k)"><defs><path id="l" d="M960.2 299.3c7.3 22.1.3 46.7-16.3 61.6-26.5 23.8-80.1 61.8-142.5 50.5-89.1-16.2-18-138.9 82.2-148.6 50.1-4.9 69.6 15.2 76.6 36.5"/></defs><clipPath id="m"><use xlink:href="#l" overflow="visible"/></clipPath><linearGradient id="n" gradientUnits="userSpaceOnUse" x1="0" y1="1089.987" x2="1" y2="1089.987" gradientTransform="matrix(202.2616 0 0 -202.2616 760.819 220802.781)"><stop offset="0" style="stop-color:#4f80ff"/><stop offset="1" style="stop-color:#157bb5"/></linearGradient><path clip-path="url(#m)" fill="url(#n)" d="M712.3 257.9h255.1v164.7H712.3z"/></g></g><g opacity=".1" clip-path="url(#d)"><defs><path id="o" d="M619 374.7h108.2v75.1H619z"/></defs><clipPath id="p"><use xlink:href="#o" overflow="visible"/></clipPath><g clip-path="url(#p)"><defs><path id="q" d="M725.9 430c-3.5 11.6-13.6 19.4-24.8 19.7-17.9.6-51.2-2.3-73.6-28.7-32-37.6 33.4-63.5 77.5-32.7 22.1 15.4 24.3 30.5 20.9 41.7"/></defs><clipPath id="r"><use xlink:href="#q" overflow="visible"/></clipPath><linearGradient id="s" gradientUnits="userSpaceOnUse" x1="0" y1="1090.077" x2="1" y2="1090.077" gradientTransform="matrix(108.183 0 0 -108.183 618.988 118331.688)"><stop offset="0" style="stop-color:#4f80ff"/><stop offset="1" style="stop-color:#157bb5"/></linearGradient><path clip-path="url(#r)" fill="url(#s)" d="M595.5 357.5h133.8v92.8H595.5z"/></g></g><g opacity=".1" clip-path="url(#d)"><defs><path id="t" d="M210.1 974.5h110.4v70.6H210.1z"/></defs><clipPath id="u"><use xlink:href="#t" overflow="visible"/></clipPath><g clip-path="url(#u)"><defs><path id="v" d="M320.2 1017.7c-1.5 12.1-10.1 21.7-21.1 24.3-17.5 4.1-50.8 7.8-77.2-13.7-37.7-30.7 22.3-69.1 70.8-47.5 24.3 10.8 28.9 25.2 27.5 36.9"/></defs><clipPath id="w"><use xlink:href="#v" overflow="visible"/></clipPath><linearGradient id="x" gradientUnits="userSpaceOnUse" x1="0" y1="1090.048" x2="1" y2="1090.048" gradientTransform="matrix(110.3762 0 0 -110.3762 210.064 121319.828)"><stop offset="0" style="stop-color:#4f80ff"/><stop offset="1" style="stop-color:#157bb5"/></linearGradient><path clip-path="url(#w)" fill="url(#x)" d="M184.2 959.2h137.4v90.5H184.2z"/></g></g></g></svg>