<svg xmlns="http://www.w3.org/2000/svg" viewBox="0 0 268.97 660.48"><defs><linearGradient id="Degradado_sin_nombre_2" x1="273.39" y1="156.94" x2="252.21" y2="43.68" gradientTransform="rotate(-41.03 206.99 146.277)" gradientUnits="userSpaceOnUse"><stop offset="0" stop-color="#fcf7d9"/><stop offset="0" stop-color="#f9edaf"/><stop offset="0" stop-color="#f5e078"/><stop offset="1" stop-color="#edc304" stop-opacity="0"/></linearGradient><style>.cls-1{fill:#ce5300}.cls-2{fill:#ffaf82}.cls-4{fill:#162d47}.cls-10{fill:#02c6cb}.cls-11{fill:#08a8b1}.cls-12{fill:#fff}.cls-13{fill:#2c2c2c}.cls-14{fill:#ed6306}.cls-15{fill:#fcc4a7}.cls-16{fill:#600a0a}.cls-17{fill:#f99a85}</style></defs><g id="Capa_2" data-name="Capa 2"><g id="Información"><path class="cls-1" d="M251.62 126.85s-48.85 54.32-71.68 60.55-39.42-5.19-68.42-47.19c0 0 11.5-13.52 23-27 0 0 29.63 44.21 30.07 44.58 9.93 8.42 76.61-42 76.61-42s7.15 3.96 10.42 11.06Z"/><path class="cls-2" d="M240 115.08s-1.05-12 2.89-17.49 14.19-23.21 19-21.85 11.3 16.09 3.64 35c-4.88 12-13.83 16.12-13.83 16.12Z"/><path d="m267.38 84.41-12 32.37a3.68 3.68 0 0 1-3.16 2.24l-17.17.25a1.76 1.76 0 0 1-1.26-.43l-.09-.1-1.83-2 3-3.23 28.72-31.27 1.55-1.68 1.95 2.07.14.15a1.62 1.62 0 0 1 .15 1.63Z" style="fill:#151a31"/><path class="cls-4" d="m263.57 82.27-28.72 31.27 10.66-28.81a3.66 3.66 0 0 1 3.15-2.23Z"/><path class="cls-4" d="m250.37 117-17.18.25a1.49 1.49 0 0 1-1.53-2.16l12-32.38a3.68 3.68 0 0 1 3.16-2.23l17.18-.23a1.5 1.5 0 0 1 1.53 2.17l-12 32.37a3.68 3.68 0 0 1-3.16 2.21Z"/><g style="opacity:.81"><path d="m250.15 112.41-13.31.19a1.5 1.5 0 0 1-1.53-2.16l9.32-25.18a3.68 3.68 0 0 1 3.16-2.26l13.31-.19a1.5 1.5 0 0 1 1.53 2.19l-9.32 25.19a3.7 3.7 0 0 1-3.16 2.22Z" style="fill:#fcef06"/></g><path class="cls-4" d="M267.25 82.85Z"/><path class="cls-2" d="M239.93 92.75s3.47-1.11 5.18 1.48-1.83 3-4.05 3.36a5.25 5.25 0 0 0-3.76 2.27c-.3 1.42-3.43-5.1 2.63-7.11Zm21.88 7.79s.89-10.81 2.48-17.27c1.07-4.31 4.57-.59 4.34 3.34s-.63 11.88-6.82 13.93Z"/><path d="M262.63 85 213.39 0s-69.07 16.17-65.6 89.24l87.32 22.09c.37 1.38 1.19 1.39 2.49 1.26l13.21-.27c1.92-.28 2.25-1.76 2.6-2.68Z" style="opacity:.13;fill:url(#Degradado_sin_nombre_2)"/><ellipse cx="107.85" cy="644.35" rx="106.32" ry="16.13" style="fill:#32324c;opacity:.1"/><path d="M153.16 304.55 129 419.87l-15 71.48-45.16 120.42-22.21-4.11s10-45.83 12.07-70.26c2.89-35 13.91-67.68 25.48-80.85l3.35-38.7 9.8-113.18Z" style="fill:#050705"/><path class="cls-10" d="m110.84 646.61-72.28-.25a4 4 0 0 1-3.77-5.12v-.12l11.61-37.65a3.25 3.25 0 0 1 4.4-2c4.09 1.76 7 1.14 11.88-.19 8.43-2.3 9.06-3.31 11.51-2 2.2 1.17 3.1 2.61 3.33 4.16.27 1.78-.36 3.72-.93 5.59a13.86 13.86 0 0 0-.8 4 1.15 1.15 0 0 0 0 .19 5.62 5.62 0 0 0 .57 2 16.64 16.64 0 0 0 2.36 3.49c.43.51.89 1 1.34 1.47a44 44 0 0 0 3.41 3.17c.3.26.48.39.48.39.64 0 1.28.12 1.91.21 12.11 1.71 21.79 10.85 26.79 17.2l.54.7a3 3 0 0 1-2.35 4.76Z"/><path class="cls-11" d="m110.84 646.61-72.28-.25a4 4 0 0 1-3.77-5.12v-.12h77.91l.54.7a3 3 0 0 1-2.4 4.79Z"/><path class="cls-12" d="M76.41 615.19a17.13 17.13 0 0 1-4.29 2.08c-.58.2-1.22.4-1.91.59l-.52-1.86c.68-.19 1.3-.37 1.86-.57a13.31 13.31 0 0 0 4.29-2.23 5.62 5.62 0 0 0 .57 1.99Z"/><path class="cls-12" d="M72.15 617a2.2 2.2 0 1 1-2.09-2.3 2.2 2.2 0 0 1 2.09 2.3Zm7.96 3.15a17.78 17.78 0 0 1-3.21 1.48c-.7.26-1.45.5-2.29.73l-.52-1.88c.77-.22 1.48-.44 2.11-.66a18.57 18.57 0 0 0 2.57-1.14c.43.51.89 1 1.34 1.47Z"/><path class="cls-12" d="M76.9 621.55a2.2 2.2 0 1 1-2.09-2.31 2.2 2.2 0 0 1 2.09 2.31Zm9.01 2.37a15.54 15.54 0 0 1-4.85 2.72c-.7.26-1.47.51-2.33.74l-.51-1.88c.79-.22 1.49-.45 2.12-.68a15.68 15.68 0 0 0 3.18-1.5c.3.26.48.39.48.39.64.05 1.28.12 1.91.21Z"/><path class="cls-12" d="M81.07 626.57a2.2 2.2 0 1 1-2.07-2.31 2.21 2.21 0 0 1 2.07 2.31ZM76.63 609c-4.31 0-7.67.24-7.67.24l.2-4.85a39.16 39.16 0 0 1 8.4-1c.27 1.81-.36 3.75-.93 5.61Z"/><path class="cls-13" d="m155.46 594.39-20.66 11.2s-23.69-58.18-36.71-91-12.6-65.27-12.6-65.27c-2.66-7.24-5.36-14.52-8-21.77-11.88-32.22-23.31-64-29-90.46-2.66-12.23-4.09-23.32-3.78-32.78l60.53.3 10.7 113 3.62 19.95Z"/><path class="cls-13" d="M54.31 360s76.1 0 101-58.84l-110.67 3.2s3.86 27.16 9.67 55.64Z"/><path class="cls-10" d="m220.13 616.86-65.64 27a6.57 6.57 0 0 1-8.19-2.79 6.28 6.28 0 0 1-.56-1.27l-11.52-35.57a42.14 42.14 0 0 1 5.67-4.86 7.2 7.2 0 0 0 3.05-6.42c0-.18-.05-.37-.07-.55-1.23-7.26 7.47-13.3 11.91-7.55.57.75 1.11 1.48 1.6 2.19l.36.53c.85 1.28 1.59 2.48 2.19 3.54a.25.25 0 0 1 0 .07 39.13 39.13 0 0 1 2.26 4.55l3.86 2.22L167 599c1.32.77 2.61 1.52 3.87 2.23.58.34 1.16.66 1.73 1 1.38.77 2.73 1.48 4 2.11.59.3 1.18.58 1.77.83 4.85 2.17 9.26 3.2 13.53 2.1 7.52-1.95 19.47-5.95 29.38 2.19a4.1 4.1 0 0 1 .56.54 4.38 4.38 0 0 1-1.71 6.86Z"/><path class="cls-11" d="m220.13 616.86-65.64 27a6.56 6.56 0 0 1-8.19-2.78L221.83 610a4.38 4.38 0 0 1-1.7 6.86Z"/><path class="cls-12" d="M167 599c-.3 1.43-1.29 3.42-3.91 6-.44.43-.93.88-1.47 1.34l-1.27-1.48c.53-.46 1-.89 1.43-1.31 3-2.92 3.39-4.75 3.36-5.59Z"/><path class="cls-12" d="M163 604.76a2.2 2.2 0 1 1-2.88-1.2 2.2 2.2 0 0 1 2.88 1.2Zm9.55-2.53a13.86 13.86 0 0 1-3.33 4.68c-.51.53-1.1 1.06-1.76 1.63l-1.27-1.48c.61-.53 1.16-1 1.63-1.5a11.16 11.16 0 0 0 3-4.3c.58.34 1.18.66 1.73.97Z"/><path class="cls-12" d="M169.19 606.83a2.2 2.2 0 1 1-2.87-1.2 2.19 2.19 0 0 1 2.87 1.2Zm9.17-1.66a14 14 0 0 1-3.24 4.5 22.86 22.86 0 0 1-1.79 1.66l-1.26-1.49c.62-.53 1.16-1 1.63-1.51a12 12 0 0 0 2.89-4c.59.31 1.18.59 1.77.84Z"/><path class="cls-12" d="M175.09 609.6a2.2 2.2 0 0 1-4.07 1.68 2.2 2.2 0 1 1 4.07-1.68Zm-16.16-18.49a50.8 50.8 0 0 0-5.71 2.74l-1.32-3.3a16.21 16.21 0 0 1 4.84-3c.85 1.3 1.59 2.5 2.19 3.56Z"/><path class="cls-14" d="M80.63 80.34S55 80.57 43.4 91.16s-.41 32 12.26 34.68 52.17-2.13 56.25-8.92 1.37-36.18-31.28-36.58Z"/><path class="cls-14" d="M41.29 302.87c38.48 23.85 76.1 21.46 114-1.73l-20.5-188.49-22.5-3-1.8-.24-5.12-.68L74 104.5l-5.3 1.81-6.7 2.29-1.6.54-29.74 10.18L52.8 248.84Z"/><path class="cls-1" d="M82.93 126.05c-22.52 0-27.82-19.83-27.87-20a.83.83 0 1 1 1.61-.41c.2.77 5.06 18.78 26.25 18.78a1.45 1.45 0 0 1 .36 0 .82.82 0 0 1 .83.82.83.83 0 0 1-.82.84Zm21.15-3.19a.82.82 0 0 1-.83-.81.83.83 0 0 1 .81-.85c.3 0 6.84-.29 8.5-9.15a.83.83 0 1 1 1.63.31c-1.92 10.23-10 10.5-10.1 10.5ZM78.72 248.54s-.13 17.66-4.13 33.88c0 0 41.85 6.79 65.52-6.09a111 111 0 0 0-.49-32.94Z"/><path class="cls-12" d="M87.8 205.64h-.07a.82.82 0 0 1-.74-.88c1.78-20.71-6.16-72.94-6.24-73.47a.81.81 0 0 1 1.6-.24c.08.52 8.06 52.95 6.25 73.85a.81.81 0 0 1-.8.74Zm27.37-4.15h-.07a.81.81 0 0 1-.74-.88c1.79-20.7-6.42-73.34-6.5-73.87a.81.81 0 1 1 1.6-.25c.08.53 8.32 53.36 6.52 74.26a.82.82 0 0 1-.81.74Z"/><path class="cls-15" d="M36.77 284.37a39.21 39.21 0 0 1 9.62 6.33c3.79 3.68 7.59 7.7 9.88 10 2.76 2.78-.71 4.14-3.92 2.56-4.87-2.4-6.26-4.87-6.26-4.87S57.67 316 58.71 321.51c.94 5.07-5.92-4.29-12-11.71 0 0 8.24 18.89 6.28 21.79-2.58 3.81-12.5-19.11-12.5-19.11s4.8 18 2.57 18.26c-2.49.31-9.65-17.5-9.65-17.5s2.2 12.65.66 12.3c-3.05-.68-13.1-26.09-9.46-38-.04-.04 9.29-4.2 12.16-3.17Z"/><path class="cls-14" d="M25 205s9.8-10.55 19.45-40.45c0 0 2.72-41.67-13.82-45.21 0 0-23.08 35.17-30.63 78.48 0 0-1.76 52.27 23.86 90.08 0 0 7.75.45 12.88-3.51.03-.02-13.63-56.09-11.74-79.39Z"/><path class="cls-16" d="M131.33 21.5s7.71 5.09 4.95 18.91-8.11 15.3-8.11 15.3-8.1-30.61 3.16-34.21Z"/><path class="cls-15" d="m101.24 87.21-1.51 17.44-.69 8C88.75 119.78 72.7 109 72.7 109l-.6-27.41c4.76-3 16.31 1.44 23.46 3.66 3.37 1.09 5.68 1.96 5.68 1.96Z"/><path class="cls-17" d="m101.24 87.21-1.51 17.44C88 101.56 78.6 84.88 78.6 84.88l17 .41c3.33 1.05 5.64 1.92 5.64 1.92Z"/><path class="cls-15" d="M134.66 42v3.4c-.17 5.41-.71 11.39-1.44 17.38-.15 1.25-.31 2.51-.49 3.75-.14 1.08-.29 2.15-.44 3.22-.33 2.21-.66 4.4-1 6.52-.23 1.47-.47 2.92-.71 4.32a21.57 21.57 0 0 1-.7 2.85 20.78 20.78 0 0 1-23.86 14c-6.07-1.23-12.78-2.73-19-4.48L86 92.71A104.28 104.28 0 0 1 72.46 88c-.5-.71-1-1.43-1.43-2.17a60.45 60.45 0 0 1-7.8-21q-.84-4.46-1.27-9c0-.24-.08-.47-.13-.7 0-2.77 0-5.54.09-8.2A34.82 34.82 0 0 1 98.5 12.84c15.54.8 30.34 6.83 34.08 14.83 1.48 3.18 2.07 8.33 2.08 14.33Z"/><path class="cls-16" d="M71 85.85a60.43 60.43 0 0 1-7.8-21 22.31 22.31 0 0 1 8.84 2.44s.87 10.95-1.04 18.56Z"/><path class="cls-4" d="M106.57 53.55c0 2.31-1 4.19-2.3 4.19S102 55.86 102 53.55s1-4.2 2.31-4.2 2.26 1.88 2.26 4.2Zm23.81 0c0 2.31-1 4.19-2.3 4.19s-2.3-1.88-2.3-4.19 1-4.2 2.3-4.2 2.3 1.88 2.3 4.2Z"/><path class="cls-16" d="M61.89 48.88s7.38-4.81 13.6 3.78h4.84s-.28-9.94 2.07-15.33 11.6-5.26 13-11.61c0 0 22.67 10.91 35.71 4C160.59 13.94 98.64-6.23 76 6.46 59.1 15.89 58.37 32 61.89 48.88Z"/><path class="cls-16" d="M95 46.59s2.22-4.56 6.47-5.7a10.86 10.86 0 0 1 8.17.73 1.42 1.42 0 0 1 .64 1.74 1.42 1.42 0 0 1-1.93.79c-2.44-1.15-7.69-2.54-13.35 2.44ZM134.66 42v1.85a11.37 11.37 0 0 0-9.85-.1 1.42 1.42 0 0 1-1.29-2.52 10.86 10.86 0 0 1 8.17-.73 8.5 8.5 0 0 1 2.97 1.5Z"/><path class="cls-15" d="M75.49 52.66s-7.4-9-13.6-3.78C55.06 54.61 60.29 74 74.17 73.6Z"/><path class="cls-17" d="M74.51 69.38a1.22 1.22 0 0 1-1.21-1.08c-1.13-9.83-7-11.34-7.21-11.4a1.22 1.22 0 0 1 .54-2.38c.32.07 7.76 1.86 9.1 13.5a1.24 1.24 0 0 1-1.08 1.36Z"/><path class="cls-17" d="M66.71 63.16a1.22 1.22 0 0 1-.91-2 6.92 6.92 0 0 1 6.53-1.89 1.23 1.23 0 0 1 .93 1.46 1.24 1.24 0 0 1-1.46.93 4.42 4.42 0 0 0-4.17 1.12 1.23 1.23 0 0 1-.92.38Zm45.77 25.69a11.74 11.74 0 0 1-7.84-2.85 1.22 1.22 0 0 1 1.7-1.76c.17.16 3.9 3.58 10.11 1.45a1.22 1.22 0 0 1 .79 2.31 14.56 14.56 0 0 1-4.76.85Z"/><path class="cls-4" d="M103.13 63.44a9.89 9.89 0 1 1 9.87-9.89 9.91 9.91 0 0 1-9.87 9.89Zm0-18.15a8.26 8.26 0 1 0 8.26 8.26 8.27 8.27 0 0 0-8.26-8.26Zm25.76 18.15a9.89 9.89 0 1 1 9.89-9.89 9.91 9.91 0 0 1-9.89 9.89Zm0-18.15a8.26 8.26 0 1 0 8.26 8.26 8.26 8.26 0 0 0-8.26-8.26Z"/><path class="cls-4" transform="rotate(-85.57 85.082 50.33)" d="M84.27 40.98h1.63v18.7h-1.63z"/><path class="cls-4" d="m112.57 52.81-.94-1.33a7.54 7.54 0 0 1 8.8 0l-1 1.29c-3.23-2.46-6.71-.06-6.86.04Z"/><path class="cls-17" d="M118.35 67a1.19 1.19 0 0 1-1-.49 1.22 1.22 0 0 1 .22-1.71l3.26-2.48-2.83-.7a1.25 1.25 0 0 1-.9-1l-1.25-7.78a1.23 1.23 0 0 1 2.42-.39l1.12 7 4.48 1.16a1.22 1.22 0 0 1 .43 2.16l-5.25 4a1.21 1.21 0 0 1-.7.23Zm-1.92 16.11A21.31 21.31 0 0 1 101.09 77a1.21 1.21 0 0 1 1.7-1.72c8.65 8.52 20.78 4.31 20.9 4.27a1.21 1.21 0 1 1 .82 2.28 25.77 25.77 0 0 1-8.08 1.28Z"/></g></g></svg>