<svg xmlns="http://www.w3.org/2000/svg" viewBox="0 0 339.86 353.54"><defs><style>.cls-1{fill:#ff4f5b}.cls-2{fill:#fff}.cls-4{fill:#263238}.cls-5{opacity:.3}.cls-6{fill:#455a64}.cls-8{fill:#ffbf9d}.cls-9{fill:#ff9a6c}</style></defs><g id="Capa_2" data-name="Capa 2"><g id="Información"><path class="cls-1" d="M220.39 119.06s18.06 4.46 21.08 41.66c1.77 21.77 3.88 43.95 3.88 43.95l39.65 9.38 7 21.64-52 10.23c-14.38 0-30.2-12.42-29.88-26.8l-.55-50Z"/><path class="cls-1" d="M125.07 119.36 117 175.27a57.35 57.35 0 0 0 1.7 24.16l9.94 34.06s-13.5 17.28-2.36 24c2.19 1.31 61.86 4 61.86 4l28.92-2 3.87-82.78-.55-57.65s-20.07-7.32-27.95-8.19c-4.94-.55-26.33-1.25-43.85.35Z"/><path class="cls-2" d="M217.55 176.2a6.06 6.06 0 0 0-2.13-.09 7 7 0 0 1-6.56-4.38 10.75 10.75 0 0 1-1.87 3.86 3.66 3.66 0 0 1-3.86 1.25c-1.44-.54-2.12-2.16-3.19-3.27-2.6-2.71-8-1.52-9.18 2.05-.55 1.61-.89 4-2.59 3.93-2 0-1.93-3.17-3.45-4.39s-3.84.05-5.17 1.53-2.73 3.34-4.71 3.3-3.24-1.8-3.79-3.58-.55-3.69-1.19-5.43-2.28-3.37-4.12-3.09c-2.26.36-3.11 3.1-3.71 5.31s-2.25 4.84-4.47 4.27c-3.18-.82-1.9-6.45-4.71-8.16-2-1.2-4.57.51-5.62 2.58s-1.31 4.5-2.6 6.43-4.38 3-5.84 1.22c-.51-.62-.7-1.45-1.25-2-1-1.09-2.83-.87-4.13-.16s-2.38 1.81-3.75 2.4-4.41-.05-5.08-1.38l-4.12 7.21c-.67 1.5-2.45 3.38-1.41 4a2 2 0 0 0 2.87-1.17A4.41 4.41 0 0 0 127 188c1-.93 1.9-2.46 3.2-2.1.66.18 1.07.81 1.53 1.32a5.12 5.12 0 0 0 6.62.58 29.2 29.2 0 0 0 2.65-2.89c.93-.92 2.33-1.62 3.53-1.1 1.44.61 1.75 2.52 1.61 4.08s-.47 3.28.4 4.59c1.12 1.7 3.73 1.73 5.5.73s3-2.72 4.48-4.14 3.42-2.65 5.42-2.25c2.35.48 4.1 3.08 6.48 2.79 1.63-.19 2.89-1.75 4.54-1.84 1.82-.1 3.21 1.61 5 2.15 4 1.24 7.53-3.7 11.64-3.32 3.78.35 6.81 5.07 10.37 3.76 3.13-1.15 3.16-5.91 5.91-7.8 1.66-1.15 3.87-.95 5.88-.7s4.22.43 5.87-.73 1.83-4.26-.08-4.93Zm3.04-3.28a2.26 2.26 0 0 1 3.45-2.69 4 4 0 0 1 1.18 3.06 7.72 7.72 0 0 0 .55 3.32c.54 1 1.94 1.63 2.82.93.7-.55.73-1.58.83-2.47s.54-1.94 1.43-2 1.45 1 1.61 1.85.23 1.9.93 2.45c1-.29 1.2-1.56 1.43-2.57s1.16-2.17 2.07-1.67c.45.25.61.79.84 1.25s.71.91 1.19.73c.8-.31.38-1.84 1.18-2.14.53-.2 1 .36 1.3.84a6.07 6.07 0 0 1 1.12 2.87 2.1 2.1 0 0 1-1.72 2.22 8.1 8.1 0 0 1-1.78-.43 3.38 3.38 0 0 0-3.26 1.65 9.82 9.82 0 0 0-1.2 3.65 4 4 0 0 0-5.79.39c-1.15 1.49-1.44 4-3.29 4.35a2.69 2.69 0 0 1-2.81-1.92 7.88 7.88 0 0 1-.07-3.68l-2.47 2.09c-.18-1.11-.37-2.21-.56-3.31"/><path class="cls-1" d="M125.07 119.36s-16.61 5.82-22.83 15.17c-8.24 12.37-31.49 48-42.4 75.81-3.42 8.72-.57 22.12 4.48 30a28.36 28.36 0 0 0 31.65 12l58.16-16.42 5.38-32.69-50.66 2.12 14.2-23.35Z"/><path class="cls-2" d="M79.75 171a3.23 3.23 0 0 1 5.06.23c.89 1.42.89 3.77 2.53 4.09 1.2.23 2.15-.94 2.94-1.87s2.24-1.77 3.13-.94.4 2.45 1.37 3.07 2-.3 2.55-1.16 1.31-1.91 2.34-1.81c2.12.2 1.67 4.55 3.8 4.6 1.08 0 1.73-1.23 2.73-1.64 1.3-.54 2.7.46 3.76 1.39a7.15 7.15 0 0 1 1.81 2.07 2.38 2.38 0 0 1-.21 2.6c-.93 1-2.62.6-3.83-.08s-2.5-1.55-3.84-1.21c-2.27.57-3.09 4.31-5.42 4-2.12-.23-2.68-3.69-4.81-3.92s-3.8 3.3-5.85 2.47c-1-.39-1.34-1.58-2.23-2.1a3 3 0 0 0-2.81.14 21.42 21.42 0 0 1-2.62 1.32 2.39 2.39 0 0 1-2.67-.65c-.56-.8.11-2.22 1.07-2l-2.31-.38-.06-1.85"/><path d="M220.15 151.74a17.7 17.7 0 0 1 .17 2.61c.07 1.68.11 4.12.13 7.12.05 6-.06 14.32-.48 23.49s-1.08 17.45-1.68 23.44c-.29 3-.56 5.41-.78 7.08.52 23.45-.36 2.58-.41 2.58a15.11 15.11 0 0 1 .1-2.61c.13-1.82.31-4.21.53-7.1.45-6 1-14.27 1.43-23.43s.62-17.45.73-23.45c.05-2.9.09-5.3.12-7.12a16 16 0 0 1 .14-2.61Zm-111.92 53.83c0 .22-4.41 1.16-9.26 3.84s-8.08 5.87-8.23 5.7a9.74 9.74 0 0 1 2-2.18 31.43 31.43 0 0 1 12.53-6.84 9.64 9.64 0 0 1 2.96-.52Z" style="fill:#e24050"/><path class="cls-1" d="M194.1 343.64c-5.41-.33-21.71-6.76-21.71-6.76L186 311.11s59.09 16.35 61.46 17.19c3.56 1.25 3 14.29-2.58 14.09"/><path class="cls-4" d="M210.62 333.66c.3 0 .69-3.09 2.6-6.35s4.36-5.2 4.18-5.44-3 1.44-5 4.95-2.03 6.86-1.78 6.84Zm-6.16-2.8c.29.05.89-2.74 2.46-5.83s3.43-5.24 3.22-5.45-2.47 1.74-4.1 5-1.83 6.27-1.58 6.28Zm-5.78-1.55c.3 0 .07-3 1.38-6.24s3.43-5.31 3.22-5.52-2.77 1.6-4.14 5.16-.7 6.69-.46 6.6Z"/><path class="cls-4" d="M199.73 321.68c.1 0 .63-1.62.63-4.39a20.28 20.28 0 0 0-.6-4.82 19.3 19.3 0 0 0-.88-2.74 3.34 3.34 0 0 0-.94-1.45 1.56 1.56 0 0 0-2 .1 2.63 2.63 0 0 0-.79 1.67 11.91 11.91 0 0 0-.08 1.56 13.28 13.28 0 0 0 .37 2.89 17.56 17.56 0 0 0 1.82 4.52 12 12 0 0 0 2.65 3.56c.14-.1-.85-1.47-2-3.88a19.41 19.41 0 0 1-1.55-4.4 13.06 13.06 0 0 1-.29-2.7c0-.9 0-2 .55-2.48a.57.57 0 0 1 .78-.06 2.5 2.5 0 0 1 .65 1 22.37 22.37 0 0 1 .89 2.61 23.23 23.23 0 0 1 .78 4.61c.12 2.72-.15 4.38.01 4.4Z"/><path class="cls-4" d="M199.65 321.08c0-.11-1.39-.6-3.81-.61a16.72 16.72 0 0 0-4.19.51 9.12 9.12 0 0 0-2.41.89 2.49 2.49 0 0 0-1.34 2.7 3 3 0 0 0 2.13 2.11 5.39 5.39 0 0 0 2.65 0 10.14 10.14 0 0 0 3.84-1.89 10.5 10.5 0 0 0 2.75-2.7c-.11-.13-1.23.85-3.15 2.13a10.43 10.43 0 0 1-3.63 1.57 4.63 4.63 0 0 1-2.19 0 2 2 0 0 1-1.44-1.41 1.53 1.53 0 0 1 .88-1.64 8.9 8.9 0 0 1 2.15-.84 19.14 19.14 0 0 1 4-.69c2.29-.21 3.74.03 3.76-.13Zm20.05 13.21c.29 0 0-2.56 1.16-5.33s3.08-4.4 2.89-4.63-2.56 1.16-3.8 4.26-.49 5.8-.25 5.7ZM178.47 337a12.55 12.55 0 0 0 2.28 1.07 50.92 50.92 0 0 0 6.58 2c5.65 1.42 13.71 2.23 22.56 2.14s16.83-.5 22.62-.74l6.84-.36a12.29 12.29 0 0 0 2.51-.27 13.56 13.56 0 0 0-2.52-.11h-6.85l-22.61.44a106.12 106.12 0 0 1-22.4-1.83c-5.64-1.05-8.94-2.51-9.01-2.34Z"/><path d="M194.1 343.64c-5.41-.33-21.71-6.76-21.71-6.76L186 311.11s59.09 16.35 61.46 17.19c3.56 1.25 3 14.29-2.58 14.09" class="cls-5"/><path class="cls-4" d="m126.29 257.46-12 24.61s-64-19.47-80.17-18.58S4.78 270.85 1.65 284s-3.57 31.15 15.25 43.7 112.39 19.48 112.39 19.48h37l60.51-79.78-9.75-7.91Z"/><path class="cls-6" d="M111.49 301.65c-6.47-3-13.38-6.81-20.64-10.71a214 214 0 0 0-20.9-10 93.79 93.79 0 0 0-18.09-5.4 63.42 63.42 0 0 0-12.68-1.11c-1.5 0-2.67.13-3.46.14a7.05 7.05 0 0 1-1.22 0 6.48 6.48 0 0 1 1.2-.18c.79-.06 2-.27 3.48-.28A59 59 0 0 1 52 275a90.4 90.4 0 0 1 18.26 5.28 203 203 0 0 1 21 10c7.27 3.9 14.15 7.67 20.58 10.75a126.81 126.81 0 0 0 17.55 7 79 79 0 0 0 12.42 2.82c1.49.26 2.66.31 3.45.42a6.9 6.9 0 0 1 1.2.19 7.37 7.37 0 0 1-1.21 0c-.79-.06-2-.06-3.48-.27a70.75 70.75 0 0 1-12.55-2.59"/><path d="M190.19 340.67c11.89-4.67 77.31-25.49 100.46-52.25 19.28-22.28-11.39-42.22-11.39-42.22s-21.51-.69-28.68 0-109.82 70.05-109.82 70.05 17.93 35 17.48 36.31Z" style="fill:#212c30"/><path class="cls-6" d="M132 293.94a10.8 10.8 0 0 1-3-1.14 42.43 42.43 0 0 1-12.59-9.21 10.77 10.77 0 0 1-2-2.55c.18-.17 3.45 3.53 8.35 7.09s9.37 5.58 9.24 5.81Zm35.65-29a24.7 24.7 0 0 1 .16 4.09c0 2.53.14 6 .48 9.84s.87 7.27 1.29 9.76a23.72 23.72 0 0 1 .58 4.05 18.16 18.16 0 0 1-1.14-3.95 76.41 76.41 0 0 1-1.78-19.7 18.17 18.17 0 0 1 .41-4.09Zm7.65-.85s.31-.07.81.11a3.68 3.68 0 0 1 1.7 1.43 3.93 3.93 0 0 1 .48 3.3 3.56 3.56 0 0 1-3.31 2.33 3.49 3.49 0 0 1-3.51-2 3.69 3.69 0 0 1 .45-3.31 3.23 3.23 0 0 1 1.8-1.33c.52-.12.81 0 .81 0a3.83 3.83 0 0 0-2.12 1.64 3.14 3.14 0 0 0-.26 2.72 2.8 2.8 0 0 0 2.79 1.52 2.88 2.88 0 0 0 2.66-1.78 3.46 3.46 0 0 0-.28-2.76 4.74 4.74 0 0 0-2.02-1.87Zm-31.64-2.59a3.52 3.52 0 0 1 .56 1.22 11.08 11.08 0 0 1 .54 3.62 13.15 13.15 0 0 1-1.19 5.31 11.89 11.89 0 0 1-10.64 7.15 13 13 0 0 1-5.37-.9 11.2 11.2 0 0 1-3.15-1.86c-.65-.57-.94-1-.91-1a19.91 19.91 0 0 0 4.26 2.31 13.24 13.24 0 0 0 5.13.69 11.51 11.51 0 0 0 10-6.73 13.31 13.31 0 0 0 1.29-5 20 20 0 0 0-.52-4.81Zm61.03 12.18a4.22 4.22 0 0 1-2.43-.34 9.2 9.2 0 0 1-6.13-9.39 4.24 4.24 0 0 1 .66-2.36c.13 0-.12.93-.09 2.37a9.64 9.64 0 0 0 5.78 8.85c1.31.61 2.23.74 2.21.87Z"/><path class="cls-8" d="M285.39 215.65s14.1-10.47 16.56-10.93 21.19 1.92 22.32 3 18.52 14.24 15.16 15.37-15.4-8.2-15.4-8.2h-2.24s10.54 7.77 12.24 10.42c1.56 2.44-.61 4.77-2.6 3.46s-11-8.4-11.79-8.29 9.47 8.3 10.33 9.67c1.15 1.84-.21 4.88-2.23 3.65-1.19-.72-10.55-9.1-10.55-9.1s6.86 7.73 7.26 8.89c.66 1.89-1.33 3.23-3 1.86-1.13-.94-5.69-7-7.21-8.21 0 0-1.81-.39-4.93 2.08s-17.75 5.28-17.75 5.28Z"/><path class="cls-8" d="M289.65 218.1c.61 1.68 2.66 2.4 4.44 2.29s3.47-.84 5.24-1.08c5.29-.73 10.55 2.81 15.8 1.83.73-.14 1.59-.53 1.61-1.28s-.69-1.14-1.31-1.44l-15.91-7.74"/><path class="cls-9" d="M299.52 210.68a6.46 6.46 0 0 1 1.8.66c1.14.48 2.76 1.21 4.77 2.14l7 3.29 2 1c.62.35 1.58.54 2.06 1.67a1.51 1.51 0 0 1-.5 1.6 3.13 3.13 0 0 1-1.31.61 12 12 0 0 1-2.61.19c-3.51-.15-6.53-1.41-9.34-1.88a13.6 13.6 0 0 0-4-.2c-1.24.15-2.39.51-3.49.74a6.24 6.24 0 0 1-5.23-.73c-1-.82-1.1-1.65-1.06-1.63s.28.68 1.29 1.31a6 6 0 0 0 4.84.35c1.05-.26 2.2-.66 3.53-.87a13.64 13.64 0 0 1 4.26.12c2.93.44 6 1.65 9.22 1.78a11.37 11.37 0 0 0 2.35-.16c.72-.15 1.25-.58 1.09-.93s-.86-.78-1.54-1.1l-2-1-6.91-3.48a136 136 0 0 1-4.62-2.43 7.09 7.09 0 0 1-1.6-1.05Zm39.84 12.48c0 .12-1.58 0-4-.84a22.21 22.21 0 0 1-4-1.87c-1.38-.91-2.86-2-4.41-3.06l-3.27-2.39.22.09c-5.57-.75-9.58-1.44-9.56-1.67s4.09.09 9.69.72h.11l.11.08 3.29 2.3 4.32 3.1a28.35 28.35 0 0 0 3.79 2c2.25 1.01 3.75 1.38 3.71 1.54Z"/><path class="cls-1" d="M144.35 321s-59.08 16.31-61.45 17.15c-3.56 1.25-3 14.29 2.57 14.09 2.62-.1 45.39 1.59 50.79 1.25s19.94-6.08 19.94-6.08Z"/><path class="cls-4" d="M119.74 343.5c-.3 0-.7-3.08-2.61-6.34s-4.36-5.2-4.17-5.44 3 1.44 5 4.95 2.04 6.86 1.78 6.83Zm6.16-2.79c-.29.05-.89-2.74-2.46-5.83s-3.43-5.25-3.22-5.45 2.47 1.74 4.1 5 1.83 6.26 1.58 6.28Zm5.78-1.55c-.3 0-.07-3-1.39-6.24s-3.42-5.31-3.21-5.53 2.76 1.61 4.14 5.17.7 6.69.46 6.6Z"/><path class="cls-4" d="M130.63 331.53c-.11 0-.63-1.62-.64-4.4a21.29 21.29 0 0 1 .6-4.81 20.8 20.8 0 0 1 .88-2.75 3.2 3.2 0 0 1 .95-1.44 1.56 1.56 0 0 1 2 .1 2.56 2.56 0 0 1 .78 1.67 11.91 11.91 0 0 1 .08 1.56 12.77 12.77 0 0 1-.36 2.89 17.71 17.71 0 0 1-1.82 4.52c-1.38 2.39-2.57 3.62-2.66 3.55s.86-1.47 2-3.88a19.14 19.14 0 0 0 1.55-4.39 13.07 13.07 0 0 0 .28-2.7c0-.91 0-2-.54-2.48a.57.57 0 0 0-.78-.06 2.5 2.5 0 0 0-.65 1 22.47 22.47 0 0 0-.9 2.61 23.86 23.86 0 0 0-.78 4.61c-.1 2.71.17 4.38.01 4.4Z"/><path class="cls-4" d="M130.7 330.93c0-.11 1.4-.6 3.81-.62a17.39 17.39 0 0 1 4.2.52 9.25 9.25 0 0 1 2.41.89 2.47 2.47 0 0 1 1.33 2.7 2.94 2.94 0 0 1-2.12 2.11 5.39 5.39 0 0 1-2.65 0 10 10 0 0 1-3.84-1.89 10.3 10.3 0 0 1-2.75-2.7c.1-.13 1.22.84 3.15 2.13a10.46 10.46 0 0 0 3.62 1.57 4.63 4.63 0 0 0 2.19 0 2 2 0 0 0 1.44-1.41 1.53 1.53 0 0 0-.88-1.65 9.06 9.06 0 0 0-2.14-.83 20 20 0 0 0-4-.7c-2.29-.2-3.74.04-3.77-.12Zm-20.04 13.21c-.29 0 0-2.56-1.17-5.33s-3.07-4.4-2.89-4.63 2.57 1.16 3.81 4.25.49 5.81.25 5.71Z"/><path class="cls-8" d="M205.52 219.79c-5-1.51-2.74-7-11.85-10-6.8-2.26-14.11-6.5-34.16-4.22L155 233.19l19.28-5.13 5.56 12.43a5 5 0 0 0 6.69 2.45l9.77-4.68s2.77 13.44 3.6 14a2.86 2.86 0 0 0 4.39-2.66c-.37-1.81-1.4-25.14-1.4-25.14s7.4 2.1 6.94-.86c-.05-.03.66-2.29-4.31-3.81Z"/><path class="cls-9" d="M184.71 244.13a14.23 14.23 0 0 1 .64-1.52 8.67 8.67 0 0 0-.76-7.51 14.7 14.7 0 0 1-.93-1.37 3.43 3.43 0 0 1 1.23 1.16 7.86 7.86 0 0 1 .8 7.86 3.22 3.22 0 0 1-.98 1.38Zm6.12-3.34a15 15 0 0 0 .13-4.67 15.38 15.38 0 0 0-1.8-4.32s.47.31 1 1a8.17 8.17 0 0 1 1.32 3.19 8.3 8.3 0 0 1-.08 3.46c-.23.89-.51 1.36-.57 1.34Zm4.31-10.65c.05 0 .36.31.69 1a7.11 7.11 0 0 1 .67 2.81 6.87 6.87 0 0 1-.49 2.84c-.28.68-.57 1-.62 1a16.31 16.31 0 0 0 .59-3.84 16 16 0 0 0-.84-3.81Z"/><path d="m259 259.7-99.5-2.49a1.91 1.91 0 0 1-1.86-1.91 1.91 1.91 0 0 1 1.89-1.91l54.87-.69 21.67-67.17a5.37 5.37 0 0 1 5.24-3.71l83.3 2.34a5.35 5.35 0 0 1 4.85 7.23l-26.16 69.42-44.3-1.11" style="fill:#010202"/><path class="cls-2" d="M280.74 219.42c-1-1.81-5.1-2.41-7.09-.92a5.59 5.59 0 0 0-2.58 3.32 4.74 4.74 0 0 0 2.88 5.54c2.11.68 4.46-.48 5.85-2.21s1.91-3.93.94-5.73Z"/><path class="cls-4" d="M200.24 16.12c1-1.44 3.41-.12 4.17 1.5s1.12 3.69 2.73 4.46c2.11 1 5.35-.81 6.66 1.14 1 1.5-.47 3.53-.05 5.28.75 3.14 6.16 2.37 7.69 5.21.92 1.69 0 3.73-.76 5.51s-1 4.23.63 5.24 4.05-.15 5.4 1.16c1.8 1.75-.9 4.75-.34 7.2.41 1.79 2.42 2.68 4.22 3.08s3.81.67 5 2.07c2.63 3.11-1.22 7.91-.14 11.84.65 2.37 3.11 4.37 2.53 6.77-.73 3.06-5.71 3.48-6.41 6.54-.61 2.61 2.35 5.58.72 7.7s-5.14.13-7.4 1.41c-2.61 1.48-2.13 6.36-5 7.08-1.3.31-2.66-.47-4-.27-3.22.47-4.08 6-7.32 5.82-1.9-.12-3.39-2.38-5.24-1.92s-2.09 3-3.65 4c-2.44 1.57-5.27-1.67-8.16-1.8-1.8-.08-3.55 1.09-5.33.76a4.54 4.54 0 0 1-3.24-3.65 16 16 0 0 1 .12-5.16 50.78 50.78 0 0 0-4.74-27.67"/><path class="cls-8" d="m191 117.58-.27-14.85s14.75-2.19 18.14-21.33c1.69-9.52 1.51-25.18.91-38-.67-14.13-16-29-27.49-28l-34.04 12.19v6.2l1 84.43a20.87 20.87 0 0 0 20.87 20.62A20.88 20.88 0 0 0 191 117.58Z"/><path class="cls-4" d="M203.89 56.72a2.46 2.46 0 0 1-2.42 2.44 2.35 2.35 0 0 1-2.47-2.27 2.46 2.46 0 0 1 2.41-2.44 2.35 2.35 0 0 1 2.48 2.27ZM179.57 56a2.46 2.46 0 0 1-2.42 2.44 2.35 2.35 0 0 1-2.5-2.26 2.46 2.46 0 0 1 2.42-2.44 2.35 2.35 0 0 1 2.5 2.26Zm9.92 15.34c0-.15 1.65-.4 4.32-.7.68 0 1.32-.18 1.44-.64a3.44 3.44 0 0 0-.41-2q-.92-2.47-1.91-5.19c-2.65-7.38-4.55-13.45-4.26-13.55s2.69 5.8 5.34 13.18q.94 2.73 1.82 5.22a3.88 3.88 0 0 1 .31 2.66 1.72 1.72 0 0 1-1.13 1 5.2 5.2 0 0 1-1.16.14c-2.68.05-4.35.03-4.36-.12Z"/><path class="cls-9" d="M190.77 102.73a48.87 48.87 0 0 1-25.59-7.32s6.43 13.41 25.67 12Z"/><path class="cls-4" d="M181.66 73c.44 0 .39 2.86 2.82 4.94S190 79.8 190 80.21c0 .18-.69.54-2 .55a7.07 7.07 0 0 1-4.6-1.69 6.26 6.26 0 0 1-2.18-4.14c-.09-1.21.25-1.93.44-1.93Zm-2.14-33.24c1.13.48 1.7 1.06 1.58 1.4-.28.71-2.92.32-6 .64s-5.64 1.13-6 .47c-.17-.31.28-1 1.3-1.66m35.04 3.2c-.48.59-2.29-.06-4.48-.13s-4.06.33-4.48-.31c-.18-.3.12-.9.94-1.46a6.5 6.5 0 0 1 7.22.35c.77.64 1.01 1.26.8 1.55Zm-6.1-24.74c0 .23-.66.41-1.47.41s-1.48-.18-1.48-.41.66-.4 1.48-.4 1.47.18 1.47.4Z"/><path class="cls-4" d="M198.09 22.78c4.94-9.83-6.3-18-11.67-20.72s-12.09-2.86-17.26.19c-2.35 1.39-4.41 3.43-7.06 4.1-6.13 1.54-12.73-4.72-18.43-2-4.67 2.25-5.47 9.27-10.18 11.47-2.27 1.07-4.91.73-7.4 1s-5.29 1.62-5.61 4.11c-.36 2.76 2.56 5.67 1.09 8-1.81 2.91-7.16.2-9.47 2.73-2.16 2.36.38 7.14-2.25 9-1.93 1.33-5.2-.27-6.62 1.59s1.32 4.49 1.61 7-2.12 4.51-4.18 6.07-4.21 4-3.22 6.4c1.14 2.74 5.64 3 6.42 5.86s-3.18 6.22-1.39 8.71c1.19 1.65 3.92 1.18 5.44 2.54 2.53 2.27-.54 6.64.7 9.8 1.72 4.36 9.2 2.45 12.07 6.16 1.6 2 1.37 5.45 3.63 6.74s5.2-.76 7.86-.45c4.33.51 7 7.08 11.16 5.8 2.14-.65 3.71-3.34 5.87-2.8 1.88.46 2.61 3.13 4.51 3.43 2.58.41 3.29-3.36 4.83-5.46 2.05-2.8 6.55-3 8.44-5.86 1.71-2.62.48-6.1-1-8.84s-3.3-5.73-2.57-8.77c.83-3.45 4.82-6.45 3.42-9.72-1.53-3.57-8.2-3.2-8.67-7.06-.44-3.65 5.68-5.72 5-9.32-.47-2.42-3.79-3.38-4.41-5.77-.73-2.78 2.63-5.14 2.59-8 0-1.83-1.43-3.3-2.43-4.84s-1.54-3.83-.14-5c2.23-1.89 5.58 1.56 8.38.72 2-.58 2.67-2.9 3.36-4.83 0 0 5.18-7.85 14.44-6.72s13.14 4.74 13.14 4.74Z"/><path class="cls-4" d="M198.23 19.24a4.12 4.12 0 0 1-1.49 6.45c-2.31.81-4.75-.64-6.79-2s-4.56-2.72-6.81-1.76c-4.14 1.76-3 9.23-7.16 10.87-1.71.67-3.62 0-5.42-.39s-4-.32-5 1.22c-1.35 2.07.47 5.39-1.34 7.08-.75.7-1.93.83-2.61 1.6-1.1 1.25-.23 3.25 1 4.39s2.8 2 3.39 3.57c.95 2.47-1.13 5-3.24 6.62s-4.65 3.2-5.11 5.81c-.74 4.2 4.47 8.24 2.7 12.12-1 2.19-3.95 2.94-6.21 2.11a10.27 10.27 0 0 1-5-5c-4.75-8.63-3.44-19.2-1.83-28.93 1.05-6.37 2.27-13 6-18.24 3.86-5.48 10-8.91 16.35-11.12 4.84-1.69 10-2.79 15.08-2.16s10.09 3.18 12.84 7.5"/><path class="cls-6" d="M143.09 106.3a1 1 0 0 1-.34.19 1.33 1.33 0 0 1-1.14-.11 2.72 2.72 0 0 1-1.18-1.45 2.4 2.4 0 0 1-.13-1.21 3.06 3.06 0 0 1 .56-1.27 7.82 7.82 0 0 1 2.47-2 9.94 9.94 0 0 0 2.91-2.22 3 3 0 0 0 .7-1.78 3.06 3.06 0 0 0-.74-1.89 18.13 18.13 0 0 0-1.65-1.62 6.43 6.43 0 0 1-1.62-2 2.78 2.78 0 0 1 .25-2.71 6.42 6.42 0 0 1 2.17-1.78c.81-.47 1.65-.88 2.42-1.41a3.56 3.56 0 0 0 1.61-2.1 2.79 2.79 0 0 0-.89-2.48 24.94 24.94 0 0 0-2.35-2 7.7 7.7 0 0 1-2.14-2.55 4 4 0 0 1 .2-3.47 9 9 0 0 1 2.29-2.65c.92-.76 1.89-1.36 2.75-2.12a6.77 6.77 0 0 0 2-2.66 3.72 3.72 0 0 0-.42-3.18 18.82 18.82 0 0 0-2.27-2.8 8.06 8.06 0 0 1-2-3.31 4 4 0 0 1 .16-2.06 4.45 4.45 0 0 1 1.13-1.66 20.53 20.53 0 0 1 3.27-2.16 6.35 6.35 0 0 0 2.64-2.42 3.48 3.48 0 0 0-.31-3.31 19.15 19.15 0 0 0-2.23-2.92 8.18 8.18 0 0 1-1.77-3.39 3.53 3.53 0 0 1 .17-2 3.37 3.37 0 0 1 1.27-1.52 7.65 7.65 0 0 1 3.58-.85 15 15 0 0 0 3.36-.42A3 3 0 0 0 160 31c.32-1 .29-2.13.58-3.24a4 4 0 0 1 2.08-2.66c2-1.08 4.27-.77 6.2-.73a9.33 9.33 0 0 0 2.82-.27 7.15 7.15 0 0 0 2.32-1.26 37.29 37.29 0 0 0 3.68-3.77 11.24 11.24 0 0 1 3.9-2.93 9 9 0 0 1 4.32-.63 8.45 8.45 0 0 1 6 3.32 8.81 8.81 0 0 1 1.71 4 6 6 0 0 1 0 1.52s0-.52-.19-1.5A8.85 8.85 0 0 0 191.7 19a8.21 8.21 0 0 0-5.79-3.1 8.69 8.69 0 0 0-4.11.65 10.76 10.76 0 0 0-3.72 2.87 36.85 36.85 0 0 1-3.71 3.85 7.72 7.72 0 0 1-2.56 1.38 9.74 9.74 0 0 1-3 .32c-2 0-4.1-.29-5.9.68a3.39 3.39 0 0 0-1.76 2.27c-.26 1-.22 2.13-.57 3.28a3.66 3.66 0 0 1-2.58 2.46 15.23 15.23 0 0 1-3.52.45 7.11 7.11 0 0 0-3.25.76 2.63 2.63 0 0 0-1 1.2 2.94 2.94 0 0 0-.12 1.59 7.61 7.61 0 0 0 1.63 3.08 20.28 20.28 0 0 1 2.31 3 5.23 5.23 0 0 1 .66 1.91 3.82 3.82 0 0 1-.33 2.05 7 7 0 0 1-2.92 2.73 19.91 19.91 0 0 0-3.15 2.06 4 4 0 0 0-1 1.41 3.23 3.23 0 0 0-.13 1.66 7.22 7.22 0 0 0 1.87 3 19.7 19.7 0 0 1 2.34 2.92 4.38 4.38 0 0 1 .47 3.76 7.36 7.36 0 0 1-2.22 2.94c-.9.79-1.91 1.41-2.76 2.12a8.37 8.37 0 0 0-2.14 2.44 3.26 3.26 0 0 0-.2 2.91 6.87 6.87 0 0 0 2 2.32 24.54 24.54 0 0 1 2.39 2.08 3.38 3.38 0 0 1 1 3 4.1 4.1 0 0 1-1.86 2.44c-.82.56-1.68 1-2.47 1.42a5.89 5.89 0 0 0-2 1.6 2.27 2.27 0 0 0-.22 2.22c.67 1.45 2.2 2.29 3.16 3.53a3.48 3.48 0 0 1 .81 2.18 3.33 3.33 0 0 1-.82 2 9.81 9.81 0 0 1-3 2.26 7.67 7.67 0 0 0-2.42 1.89 2.29 2.29 0 0 0-.45 2.24 2.52 2.52 0 0 0 1.05 1.39 1.26 1.26 0 0 0 1 .17c.29-.03.37-.11.38-.09Z"/><path class="cls-6" d="M110.65 89.51a4.26 4.26 0 0 0 .42-.11 1.36 1.36 0 0 0 .74-.94 3.2 3.2 0 0 0-.19-2 18.35 18.35 0 0 0-1.69-2.29 3.64 3.64 0 0 1-.68-1.63 2.54 2.54 0 0 1 .59-1.86c.85-1.09 2.25-1.69 3.12-2.87a2.52 2.52 0 0 0 .37-2.09 6.1 6.1 0 0 0-1.22-2.1c-.53-.67-1.14-1.33-1.68-2.11a4.41 4.41 0 0 1-.93-2.77 3.41 3.41 0 0 1 1.63-2.61 8.45 8.45 0 0 1 3-1.14c1.07-.19 2.12-.27 3.17-.52a5.18 5.18 0 0 0 2.78-1.41 3.8 3.8 0 0 0 .82-3 19.89 19.89 0 0 0-.87-3.39 9.92 9.92 0 0 1-.63-3.73A4 4 0 0 1 120 51a4.22 4.22 0 0 1 1.54-1.34c2.45-1.24 5.32-.67 7.45-2.1a3 3 0 0 0 1.17-1.35 3.14 3.14 0 0 0 .1-1.8 21.12 21.12 0 0 0-1.63-3.7 5.76 5.76 0 0 1-.59-2.13 3 3 0 0 1 .81-2.18c1.16-1.16 2.74-1.28 4.1-1.61s2.83-.71 3.15-2-.53-2.67-.44-4.25a7.72 7.72 0 0 1 5.13-6.93c3-1 5.86.42 8.44-.23a3.71 3.71 0 0 0 2.88-2.2c.43-1.17.19-2.54.29-3.92a4.28 4.28 0 0 1 .61-2.05 3.4 3.4 0 0 1 1.68-1.32 6.73 6.73 0 0 1 4 0c1.26.33 2.42.81 3.61 1a5.48 5.48 0 0 0 3.4-.35c2.13-1 3.65-2.86 5.44-4.29a14.77 14.77 0 0 1 12.15-2.75 14.52 14.52 0 0 1 8.82 5.5 16.86 16.86 0 0 1 3.2 7.19 16.41 16.41 0 0 1 .17 5 9.75 9.75 0 0 1-.33 1.7s.1-.59.19-1.72a17.24 17.24 0 0 0-.3-4.91 16.83 16.83 0 0 0-3.24-7 14.59 14.59 0 0 0-20.25-2.48c-1.74 1.38-3.24 3.31-5.55 4.39a6 6 0 0 1-3.78.41c-1.27-.24-2.45-.72-3.66-1a6.08 6.08 0 0 0-3.61 0 2.78 2.78 0 0 0-1.36 1.07 3.64 3.64 0 0 0-.5 1.73c-.1 1.27.18 2.68-.31 4.11a4.41 4.41 0 0 1-3.38 2.63c-2.9.67-5.76-.68-8.37.23a7 7 0 0 0-4.64 6.28 7.18 7.18 0 0 0 .28 2.08 4.9 4.9 0 0 1 .13 2.29 2.88 2.88 0 0 1-1.55 1.82 8.71 8.71 0 0 1-2.14.68c-1.38.31-2.86.49-3.74 1.4a2.35 2.35 0 0 0-.62 1.67 5.37 5.37 0 0 0 .53 1.87A21.83 21.83 0 0 1 131 44.3a3.47 3.47 0 0 1-1.56 3.86 9.21 9.21 0 0 1-3.89 1.22 11.45 11.45 0 0 0-3.64.9A3.26 3.26 0 0 0 120 53a9.16 9.16 0 0 0 .58 3.48 20.14 20.14 0 0 1 .88 3.52 4.42 4.42 0 0 1-1 3.46 5.8 5.8 0 0 1-3.07 1.54c-1.08.24-2.18.32-3.19.5a7.63 7.63 0 0 0-2.78 1 2.92 2.92 0 0 0-1.43 2.2 4 4 0 0 0 .83 2.47c.51.75 1.1 1.41 1.64 2.1a6.4 6.4 0 0 1 1.28 2.27 2.92 2.92 0 0 1-.46 2.43c-1 1.29-2.39 1.85-3.18 2.85a2.19 2.19 0 0 0-.54 1.62 3.3 3.3 0 0 0 .6 1.5 18.36 18.36 0 0 1 1.65 2.37 3.27 3.27 0 0 1 .13 2.11 1.38 1.38 0 0 1-.85 1 .79.79 0 0 1-.44.09Zm112.82.98a1.65 1.65 0 0 0 .82.33 2.36 2.36 0 0 0 2-1.31c.57-1 .25-2.41.1-4a6.15 6.15 0 0 1 .35-2.64 26.92 26.92 0 0 0 .88-2.76 2.73 2.73 0 0 0-.8-2.69 8.11 8.11 0 0 0-3-1.39 7.37 7.37 0 0 1-3.46-1.69 2.56 2.56 0 0 1-.56-2.08 4 4 0 0 1 1-1.89c.91-1 2.13-1.87 2.58-3.07s-.42-2.48-1.66-3.11-2.74-.82-4.21-1.48a4.37 4.37 0 0 1-1.92-1.53 4.23 4.23 0 0 1-.7-2.4 10.47 10.47 0 0 1 1.32-4.57 13.16 13.16 0 0 0 1.5-4.1 4.35 4.35 0 0 0-1.3-3.68c-.93-1-2.11-1.77-3.12-2.72a7 7 0 0 1-2.13-3.48 14.3 14.3 0 0 1-.34-3.8c0-2.41.22-4.67-.47-6.57a10.48 10.48 0 0 0-3-4.46 10.78 10.78 0 0 0-3.49-2.13 13.23 13.23 0 0 0-3.45-.71 4.19 4.19 0 0 1 .93-.05A9.62 9.62 0 0 1 204 23a10.65 10.65 0 0 1 3.66 2.1 10.81 10.81 0 0 1 3.19 4.59c.75 2 .6 4.36.58 6.74a14 14 0 0 0 .35 3.63 6.35 6.35 0 0 0 2 3.16c1 .9 2.14 1.67 3.16 2.74a5 5 0 0 1 1.5 4.22c-.39 3.14-2.82 5.54-2.8 8.58a3.48 3.48 0 0 0 .57 2 3.65 3.65 0 0 0 1.6 1.24c1.31.61 2.88.74 4.26 1.52a4.55 4.55 0 0 1 1.74 1.58 2.76 2.76 0 0 1 .19 2.4c-.6 1.5-1.88 2.29-2.72 3.27a3.27 3.27 0 0 0-.9 1.57 1.91 1.91 0 0 0 .4 1.57 7.07 7.07 0 0 0 3.22 1.53 8.42 8.42 0 0 1 3.2 1.56 3.21 3.21 0 0 1 .92 1.51 4 4 0 0 1 0 1.68 25.4 25.4 0 0 1-1 2.8 5.94 5.94 0 0 0-.38 2.48c.11 1.57.43 3.1-.25 4.19a2.5 2.5 0 0 1-2.22 1.34 1 1 0 0 1-.8-.51Z"/><path d="M129.69 167.86v36.18l-9.37.74-3.43-12.98 12.8-23.94z" class="cls-5"/></g></g></svg>