<svg xmlns="http://www.w3.org/2000/svg" xmlns:xlink="http://www.w3.org/1999/xlink" viewBox="0 0 594 794" enable-background="new 0 0 594 794" xml:space="preserve"><defs><path id="a" d="M-334-286h1920V794H-334z"/></defs><clipPath id="b"><use xlink:href="#a" overflow="visible"/></clipPath><g clip-path="url(#b)"><defs><path id="c" d="M-334-286h1920V794H-334z"/></defs><clipPath id="d"><use xlink:href="#c" overflow="visible"/></clipPath><path clip-path="url(#d)" fill="#B3CC3C" d="M579.6 56.8c7.4 0 10.6 3.2 10.6 10.6v47.9c0 6.4-3.5 10-10 10h-95.4c-6.4 0-9.9-3.6-9.9-10.1V67c0-6.7 3.4-10.1 10.1-10.1 47.1-.1 47.7-.1 94.6-.1m-13.3 12.9c-.2-1.1-1.1-.9-1.7-1.1-4.8-1-9.5-1.9-14.3-3.1-2.1-.5-3.1.1-4.1 1.9-5.8 10.2-11.7 20.3-17.5 30.5-1.1 1.8-1.7 2.4-2.9.1-2.2-3.9-4.6-7.6-6.8-11.5-.8-1.3-1.3-1.8-2.8-.8-3.1 2.1-6.3 4-9.5 5.9-1.4.8-1.3 1.4-.3 2.6 6.5 6.8 12.9 13.7 19.3 20.7 1.3 1.4 1.9 1.3 3.1-.1 12.2-14.7 24.4-29.3 36.6-43.9.3-.4.6-.9.9-1.2"/><path clip-path="url(#d)" fill="#FCFCFD" d="m566.3 69.7-.9 1.2c-12.2 14.6-24.5 29.3-36.6 43.9-1.2 1.4-1.8 1.4-3.1.1-6.4-6.9-12.8-13.8-19.3-20.7-1.1-1.1-1.1-1.7.3-2.6 3.2-1.9 6.4-3.9 9.5-5.9 1.5-1 2.1-.5 2.8.8 2.2 3.9 4.7 7.6 6.8 11.5 1.3 2.3 1.9 1.7 2.9-.1 5.8-10.2 11.7-20.3 17.5-30.5 1-1.8 2-2.4 4.1-1.9 4.7 1.2 9.5 2.1 14.3 3.1.6.1 1.5-.1 1.7 1.1"/><g opacity=".28" clip-path="url(#d)"><defs><path id="e" d="M63.9 638h467.2v605.6H63.9z"/></defs><clipPath id="f"><use xlink:href="#e" overflow="visible"/></clipPath><path clip-path="url(#f)" fill="#279593" d="M355.8 975.1c-.2 0-.4-.1-.6-.1-38.5-6.4-38.5-62.1 0-68.5.2 0 .4-.1.6-.1C551.8 876.6 530.3 638 530.3 638l-232.9 3.8L64.6 638S43.1 876.6 239.1 906.5c.7.1 1.3.2 2 .3 36.8 7.3 36.8 60.7 0 67.9-.6.1-1.3.2-2 .3C43 1005 64.6 1243.6 64.6 1243.6l232.9-3.8 232.9 3.8c-.1 0 21.4-238.6-174.6-268.5"/></g><g clip-path="url(#d)"><defs><path id="g" d="M64.5 638H273v605.6H64.5z"/></defs><clipPath id="h"><use xlink:href="#g" overflow="visible"/></clipPath><g opacity=".28" clip-path="url(#h)"><defs><path id="i" d="M64.5 638H273v3.8H64.5z"/></defs><clipPath id="j"><use xlink:href="#i" overflow="visible"/></clipPath><path clip-path="url(#j)" fill="#279593" d="m248.5 641.8 24.5-.4L64.6 638s0 .3-.1.8l184 3z"/></g></g><g opacity=".28" clip-path="url(#d)"><defs><path id="k" d="M277.5 638h253.6v605.6H277.5z"/></defs><clipPath id="l"><use xlink:href="#k" overflow="visible"/></clipPath><path clip-path="url(#l)" fill="#279593" d="M355.8 975.1c-.2 0-.4-.1-.6-.1-38.5-6.4-38.5-62.1 0-68.5.2 0 .4-.1.6-.1C551.8 876.6 530.3 638 530.3 638l-48.9.8c1.1 15.1 14.8 238.8-174.6 267.7-.2 0-.4.1-.6.1-38.5 6.4-38.5 62.1 0 68.5.2 0 .4.1.6.1 189.4 28.9 175.7 252.6 174.6 267.7l48.9.8c0-.1 21.5-238.7-174.5-268.6"/></g><g opacity=".11" clip-path="url(#d)"><defs><path id="m" d="M71.4 638H325v605.6H71.4z"/></defs><clipPath id="n"><use xlink:href="#m" overflow="visible"/></clipPath><path clip-path="url(#n)" fill="#279593" d="M246.6 975.1c.2 0 .4-.1.6-.1 38.5-6.4 38.5-62.1 0-68.5-.2 0-.4-.1-.6-.1C50.6 876.6 72.1 638 72.1 638l48.9.8c-1.1 15.1-14.8 238.8 174.6 267.7.2 0 .4.1.6.1 38.5 6.4 38.5 62.1 0 68.5-.2 0-.4.1-.6.1-189.4 28.8-175.7 252.5-174.6 267.5l-48.9.8c0 .1-21.5-238.5 174.5-268.4"/></g><g opacity=".29" clip-path="url(#d)"><defs><path id="o" d="M135.5 685.1h84.4v172.2h-84.4z"/></defs><clipPath id="p"><use xlink:href="#o" overflow="visible"/></clipPath><path clip-path="url(#p)" fill="#FFF" d="M135.5 685.1h54s-11.8 115 30.4 172.2c0 .1-64.1-28.7-84.4-172.2"/></g><path clip-path="url(#d)" fill="#292929" d="M551.4 622.1c0 8.8-113.8 15.9-254.2 15.9S43 630.9 43 622.1s113.8-15.9 254.2-15.9 254.2 7.1 254.2 15.9"/><path clip-path="url(#d)" fill="#292929" d="M551.4 645.7c0 8.8-113.8 15.9-254.2 15.9S43 654.5 43 645.7v-23.6s188.8 7.7 254.2 7.7c80.6 0 254.2-7.7 254.2-7.7v23.6z"/><g opacity=".63" clip-path="url(#d)"><defs><path id="q" d="M43 622.1h508.5v39.5H43z"/></defs><clipPath id="r"><use xlink:href="#q" overflow="visible"/></clipPath><path clip-path="url(#r)" fill="#292929" d="M551.4 645.7c0 8.8-113.8 15.9-254.2 15.9S43 654.5 43 645.7v-23.6s188.8 7.7 254.2 7.7c80.6 0 254.2-7.7 254.2-7.7v23.6z"/></g><path clip-path="url(#d)" fill="#EA9977" d="M125.1 458.2s43.5 69.5 59.1 84.5c15.6 15 85.5 0 85.5 0l18.7-95.4-68.4-35.7-53.8-12.4-41.1 59z"/><path clip-path="url(#d)" fill="#EA9977" d="M154.7 439.6c9.3 45.1-53.2 102.8-60.6 155.5-3.7 26.4-63 47.4-84.9 44.3-21.9-3.1 44.5-55.2 44.5-55.2s21.8-217.7 34.2-242.6c12.4-24.9 52.9-23.3 68.4-10.9 15.6 12.4 113.5 108.9 113.5 108.9"/><g opacity=".29" clip-path="url(#d)"><defs><path id="s" d="M4.7 321.9h265.1v317.8H4.7z"/></defs><clipPath id="t"><use xlink:href="#s" overflow="visible"/></clipPath><path clip-path="url(#t)" fill="#D46F40" d="M156.2 330.7c-15.6-12.4-56-14-68.4 10.9-12.4 24.9-34.2 242.6-34.2 242.6s-66.4 52.1-44.5 55.2c21.9 3.1 81.2-17.9 84.9-44.3 4.8-34.4 33.2-70.9 49.7-104.7l15.9 20.9 43 27 67.2-98.7s-98-96.4-113.6-108.9"/></g><path clip-path="url(#d)" fill="#EA9977" d="M346 123.5c-5 40.3-36.4 69.6-69.9 65.4-24.6-3.1-43.5-23.2-50-49.6-.5-2.2-4.9.6-5.2-1.7-1.2-7.8 2.5-20.9 3.5-29.3 5-40.3 36.4-69.6 69.9-65.4 33.7 4.2 56.8 40.3 51.7 80.6m22.6 357.6s-45.9-27.2-144.7 8.5l-122.5 52.8s-43.2 20.1-30.6 69.8c0 0 207.6 5.1 253.6 0 45.9-5.1 97-8.2 96.5-77.9-.3-31.4-52.3-53.2-52.3-53.2"/><g opacity=".47" clip-path="url(#d)"><defs><path id="u" d="M144.6 423H250v109.4H144.6z"/></defs><clipPath id="v"><use xlink:href="#u" overflow="visible"/></clipPath><path clip-path="url(#v)" fill="#EA9977" d="M157.1 450.9c-.5-9.9-2.6-19.8-7.5-27.9 0 0 8.9 39.7-5 65.5l2.9 4.4 25.8 39.4 76.7-40.4c.1 0-76.1-21.9-92.9-41"/></g><path clip-path="url(#d)" fill="#EA9977" d="M135.5 576.4s28.9 47.6 30.6 85.1c1.7 37.4-25.7 128-30.6 147.5-4.9 19.4-7.5 52.9 0 63 7.5 10.1 5.2 25.7-8 38.1-13.2 12.4-48.2 29.5-57.1 39.7-8.9 10.1-20.7 9.3-16-7.8 4.6-17.2 26.4-33.6 32.6-60 6.2-26.4 4.7-69.2-1.6-107.3-6.2-38.1-26.2-188-9-208.5 17.2-20.6 59.1 10.2 59.1 10.2m146.2-340.3-6.7-15.4s-108 59.4-124.2 56c-12.1-2.6-61.5-65.9-84.2-97.8-7.7-10.8-9.6-18.1-9.6-18.1l-19.7 32.5s53.2 161 99.6 169.1c46.3 8.1 132.8-51 132.8-51l12-75.3zm38.2-113 26.2.4s-12.1 89.8 4.2 95.6c16.3 5.8-70 9.9-70 9.9s10.3-33.4-1.6-61c-7.1-16.2 41.2-44.9 41.2-44.9"/><path clip-path="url(#d)" fill="#99152A" d="M279.7 217.6s-39.6 17.2-81.3 40.8c9.1 17.8 23.5 52.6 22.2 81.6 27.5-13.8 49.1-28.6 49.1-28.6l12-75.3-2-18.5z"/><g opacity=".29" clip-path="url(#d)"><defs><path id="w" d="M267.7 78.5h84.6V229h-84.6z"/></defs><clipPath id="x"><use xlink:href="#w" overflow="visible"/></clipPath><path clip-path="url(#x)" fill="#D46F40" d="M350.2 219.1c-16.3-5.8-4.2-95.6-4.2-95.6 2-16.3-20.2-31.9-26.2-45-4.3 34.8.3 92.8-52.2 108.6 2.7.8 5.6 1.4 8.5 1.8 2.6.3 5.2.5 7.8.4 2.1 21-3.7 39.8-3.7 39.8s86.4-4.1 70-10"/></g><g opacity=".43" clip-path="url(#d)"><defs><path id="y" d="M198.4 217.6h83.3V340h-83.3z"/></defs><clipPath id="z"><use xlink:href="#y" overflow="visible"/></clipPath><path clip-path="url(#z)" fill="#99152A" d="M279.7 217.6s-39.6 17.2-81.3 40.8c9.1 17.8 23.5 52.6 22.2 81.6 27.5-13.8 49.1-28.6 49.1-28.6l12-75.3-2-18.5z"/></g><path clip-path="url(#d)" fill="#EDBE00" d="M265.5 435.3c-9.2-12.4-44.8-43.9-71.8-69.9-4.3 33.7-16.2 82.6-46.1 127.5 13.1 19.8 28.6 42.1 36.7 49.8 15.6 15 85.5 0 85.5 0l18.7-95.4-23-12z"/><g opacity=".47" clip-path="url(#d)"><defs><path id="A" d="M140.7 589.4h90.6v25h-90.6z"/></defs><clipPath id="B"><use xlink:href="#A" overflow="visible"/></clipPath><path clip-path="url(#B)" fill="#EA9977" d="M231.3 608.9c-28.6 3.7-61.3.5-72.4-.9-3.7-6-10.1-14.7-18.3-18.6 0 0 12.5 14.9 13.3 24.3l8.5.7-.3-.6 69.2.6v-5.5z"/></g><g opacity=".44" clip-path="url(#d)"><defs><path id="C" d="M147.6 458.7h102.5v73.7H147.6z"/></defs><clipPath id="D"><use xlink:href="#C" overflow="visible"/></clipPath><path clip-path="url(#D)" fill="#EDBE00" d="M250.1 491.9s-66.5-14.1-83.3-33.2l-19.2 34.2 25.8 39.4 76.7-40.4z"/></g><path clip-path="url(#d)" fill="#EDBE00" d="M368.6 481.1s-45.9-27.2-144.7 8.5l-74.3 32c8.8 14.8 26.1 47.8 36.6 92.5 56 .6 115.9.5 138.1-2 45.9-5.1 97-8.2 96.5-77.9-.2-31.3-52.2-53.1-52.2-53.1"/><g opacity=".22" clip-path="url(#d)"><defs><path id="E" d="M39.7 190.2h213.4v172.9H39.7z"/></defs><clipPath id="F"><use xlink:href="#E" overflow="visible"/></clipPath><path clip-path="url(#F)" fill="#D46F40" d="M250.1 296.5s-34.6 21.2-93.8 34.2c-48.6 10.7-97.4-100.2-113.4-140.5l-3.1 1.7 2 13.9c13.6 38.1 56.8 149.8 95.2 156.5 33.7 5.9 88.8-23.8 116.2-40.4l-3.1-25.4z"/></g><g opacity=".64" clip-path="url(#d)"><defs><path id="G" d="M185.2 494.1h235.6v120.3H185.2z"/></defs><clipPath id="H"><use xlink:href="#G" overflow="visible"/></clipPath><path clip-path="url(#H)" fill="#EDBE00" d="M367.5 576.2c-55.5 27.3-144.8 31.1-182.2 34.1.1.4 1 3.4 1 3.8 56 .6 115.9.5 138.1-2 45.9-5.1 97-8.2 96.5-77.9 0-5.1-5.2-35.6-7.5-40.1-3.9 9.8-9.6 64.2-45.9 82.1"/></g><path clip-path="url(#d)" fill="#99152A" d="M270.9 229.1s-36.2 60-55.4 86.3c-18 24.7-8.1 59.6 17.8 71.8 7.9 3.7 6.1 5.6 8.1 14.1 5 21.3 12.2 59.1 6.3 78.1 0 0 40-10.2 66.8 8.5 26.8 18.7 64.2 95.3 96.6 74.9 32.3-20.4-22.1-272.3-22.1-272.3s-12-78.2-46.5-85.1c-27.8-5.6-63.1 6.6-71.6 23.7"/><g opacity=".43" clip-path="url(#d)"><defs><path id="I" d="M311.8 311.7h111.3v283.8H311.8z"/></defs><clipPath id="J"><use xlink:href="#I" overflow="visible"/></clipPath><path clip-path="url(#J)" fill="#99152A" d="m329.6 313.6-17.8-1.9 81.5 283.8s27.6-18.6 29.8-40.1c1.3-12.5-38.3-156.3-38.3-156.3l-55.2-85.5z"/></g><path clip-path="url(#d)" fill="#EA9977" d="M314.6 237.5c.7-7.7-.1-8 5.2-13.6 8.1-8.5 16.2-24.8 39.9-7.9 41.4 29.5 52 193.9 61.8 229.8s21.3 112.4 34 128.6c12.7 16.2 20.8 2.3 45.2 10.4 24.3 8.1 45.2 23.3 34.7 29.6-10.4 6.3-77.6 6.3-99.6-9.9s-45.9-91.1-57.1-118.5c-8.3-20.3-47.1-122.3-66.9-174.2-7.6-20-1.7-33.1.2-54.5l2.6-19.8z"/><g opacity=".29" clip-path="url(#d)"><defs><path id="K" d="M335.5 208.6h120.3v366.2H335.5z"/></defs><clipPath id="L"><use xlink:href="#K" overflow="visible"/></clipPath><path clip-path="url(#L)" fill="#D46F40" d="M436.1 537.5c6.8 19 12.1 31.3 19.7 37.2-.1-.2-.2-.3-.4-.5-12.7-16.2-24.3-92.7-34-128.6-9.7-35.9-20.4-200.4-61.8-229.8-10.8-7.7-18.4-8.5-24.2-6.3 15.9 13.8 34.7 40.9 49.3 93.9 31.5 114.1 40.6 203.8 51.4 234.1"/></g><path clip-path="url(#d)" fill="#99152A" d="M401.4 322.8c-9-47.3-21.8-92.7-41.7-106.9-23.6-16.8-38.1-10.5-46.2-1.9-5.3 5.6-8.4 13-9.1 20.7l-1.2 14.2c-1.9 21.3 1.1 42.8 8.7 62.8 4.3 11.4 9.5 25.1 15.2 39.9 18.8-20 57.3-26.8 74.3-28.8"/><g opacity=".43" clip-path="url(#d)"><defs><path id="M" d="M319.9 205.3h81.5v146.2h-81.5z"/></defs><clipPath id="N"><use xlink:href="#M" overflow="visible"/></clipPath><path clip-path="url(#N)" fill="#99152A" d="M350.2 219.1c19.6 14 32.4 58.4 41.3 105.1 3.7-.6 7-1.1 9.8-1.4-9-47.3-21.8-92.7-41.7-106.9-18.3-13.1-31.2-12.2-39.8-7.1 7.9-1 17.9 1.4 30.4 10.3m-24.6 128.8c.5 1.2.9 2.5 1.4 3.7 7.7-8.1 18.5-14 29.8-18.3-11 3.3-22.2 8-31.2 14.6"/></g><g opacity=".43" clip-path="url(#d)"><defs><path id="O" d="M233.4 356.9h48.3v109h-48.3z"/></defs><clipPath id="P"><use xlink:href="#O" overflow="visible"/></clipPath><path clip-path="url(#P)" fill="#99152A" d="M233.4 387.2c6.7.9 38-8.4 48.3-30.3l-31.8 109s3.2-48.4-16.5-78.7"/></g><path clip-path="url(#d)" fill="#292929" d="M316.4 28.3c-3.3.3-6.6.9-9.8 1.8-3 .8-6.1 1.9-9.1 1.3-4-.8-6.5-4.2-9.1-7.1-11.7-13.2-39.5-27.2-60.6-10.1s-17.2 66.9 28.7 63c45.9-3.9 50.1 8.6 51.5 18.7 1.4 10.1-5.7 40.4 11.9 48.2 17.5 7.8 11.5 67.1 21.3 85 15.6 28.6 57.7 55.2 93.4 30.1s24.9-83.1 3.1-97.2c-8.7-5.6-17.1-11.5-25.1-18.1-7.2-6-15.2-12.5-19.7-20.8-4.6-8.6-2.8-19.4-3.6-28.9-.8-9.9-3.1-19.9-8.3-28.5-7.1-11.7-16-21.8-27.8-28.9-11.1-6.6-23.9-9.7-36.8-8.5"/><g opacity=".44" clip-path="url(#d)"><defs><path id="Q" d="M321.7 143.5h136.1v125.6H321.7z"/></defs><clipPath id="R"><use xlink:href="#Q" overflow="visible"/></clipPath><path clip-path="url(#R)" fill="#292929" d="M457.6 204.5c-6.7 10.4-20.9 13.3-29.4 4.1-12.8-13.8-34.7 5.3-52.9-8.7-18.3-14-3-33.5-26.2-50.9-8.5-6.4-18.3-6.4-27.4-3.9 15.3 10.9 10.1 66.7 19.5 83.9 15.6 28.6 57.7 55.2 93.4 30.1 18.5-12.9 24.5-34.7 23-54.6"/></g><path clip-path="url(#d)" fill="#EA9977" d="M66.7 179s-9.1-31.2-14.5-30.8l12 30.6 2.5.2z"/><path clip-path="url(#d)" fill="#1F2232" d="M20.5 106.7 46 204.6c.9 3.7 4.2 6.8 7.3 6.9l40.5 1.7c1.3 0 2.3-.4 3-1.2l.2-.3 4.5-5.8-6.7-9.9-65.1-95.6-3.5-5.2-4.8 6.1-.3.4c-.1 0-.1.1-.1.2-.8 1.3-1 2.9-.5 4.8"/><path clip-path="url(#d)" fill="#1F2232" d="M29.7 100.5 94.8 196l-22.7-87.2c-1-3.7-4.2-6.8-7.3-6.9l-35.1-1.4z"/><path clip-path="url(#d)" fill="#32324C" d="m57.8 205.6 40.6 1.7c3.1.1 4.8-2.7 3.8-6.4l-25.5-98c-1-3.7-4.2-6.8-7.3-6.9l-40.6-1.7c-3.1-.1-4.8 2.7-3.8 6.4l25.5 98c1 3.7 4.3 6.8 7.3 6.9"/><path clip-path="url(#d)" fill="#FFDF57" d="m58.7 191.8 31.4 1.3c3.1.1 4.8-2.7 3.8-6.4l-19.8-76.2c-1-3.7-4.2-6.8-7.3-6.9l-31.4-1.3c-3.1-.1-4.8 2.7-3.8 6.4l19.8 76.2c1 3.7 4.3 6.7 7.3 6.9"/><path clip-path="url(#d)" fill="#1F2232" d="m20.9 102 .1-.1-.1.1z"/><path clip-path="url(#d)" fill="#EA9977" d="M23.4 155.8c-1.9-5.2-1.2-11 2.1-15.4 2.9-3.8 7.3-6.1 13.2.4 11.9 12.9 15.3 48.6.5 58.5l-15.8-43.5zm283.3-59.3s16.3-10.9 23.1 4.2c6 13.3-7.2 40.6-28.8 34l5.7-38.2z"/><g opacity=".29" clip-path="url(#d)"><defs><path id="S" d="M307.9 103.2h14.6V125h-14.6z"/></defs><clipPath id="T"><use xlink:href="#S" overflow="visible"/></clipPath><path clip-path="url(#T)" fill="#D46F40" d="M308 122.6c1.1-4.6 4.5-14.3 14.6-19.4 0 0-10.2 11.5-10.3 19.8 0 1.1-.8 2-1.9 2h-.2c-1.5.1-2.5-1.1-2.2-2.4"/></g><path clip-path="url(#d)" fill="#FFF" d="M308.8 135.9c.1 1 2 .8 2.6 1.6 1 1.1 1 2.7 2.6 2.8 2.1.1.4-3.6 1-4 1.5-.9 3.3 1.1 3.3-1.2 0-1.6-2-1.5-3.2-2.2-.9-.5-.9-2.2-2-2.1-1.3.1-.6 2-1.4 3-.7.8-3 .8-2.9 2.1"/><path clip-path="url(#d)" fill="#920E08" d="M243.3 171.4c1 0 8-4.1 12.1-10 2.8-4 4.7-8.3 6-11.8 1.6-4.3 2.3-7.4 2.3-7.4s-18.3 1.3-36.1 2.3c0 0 7.8 26.9 15.7 26.9"/><path clip-path="url(#d)" fill="#FFF" d="M230.2 152.3c13.4-1.8 26.4-2.3 31.3-2.8 1.6-4.3 2.3-7.4 2.3-7.4s-18.5 1.3-36.1 2.3c-.1.1 2.3 7.9 2.5 7.9"/><path clip-path="url(#d)" fill="#F85C66" d="M243 171.4c5.7-.1 9.4-5.6 12.4-10-2.7-1.2-10.2-2-20 2.5 0 0 3.7 7.6 7.6 7.5"/><path clip-path="url(#d)" fill="#F88968" d="M251 175.5c5.4-2.7 8.6-6.4 8.8-6.7.6-.8.5-1.9-.2-2.5-.8-.6-1.9-.5-2.5.2-.3.3-4.6 5.3-11.7 7.3l3 2.8c1-.3 1.8-.7 2.6-1.1"/><path clip-path="url(#d)" fill="#E28869" d="M221.3 141.6h9.3c1.1 0 1.9-.9 1.9-1.9s-.9-1.9-1.9-1.9h-9.3c-.2 0-.3-.1-.3-.2-.1-.1-.1-.2-.1-.4l7.7-26.5c.3-1-.3-2.1-1.3-2.4-1-.3-2.1.3-2.4 1.3l-7.7 26.5c-.4 1.3-.1 2.7.7 3.8.8 1.1 2 1.7 3.4 1.7"/><path clip-path="url(#d)" fill="#32324C" d="M250.6 84c-.8 2 .3 4.3 2.4 4.9 6.9 2 21.1 7.2 26.1 16.5 0 0 1.1-13.5-23.7-23.4-1.9-.8-4 .1-4.8 2m-11.9 34.5s1-12.4 10.4-14.7c10.6-2.6 19.2 4.1 20.9 10.9 0 0-10.4-10-20.5-6.5-7.6 2.6-10.8 10.3-10.8 10.3"/></g><g clip-path="url(#b)"><defs><path id="U" d="M39.7 137.8s14 19.3 9.3 37.7l157.4 6.9s5.3-94.7-27.5-117L39.7 137.8z"/></defs><clipPath id="W"><use xlink:href="#U" overflow="visible"/></clipPath><defs><filter id="V" filterUnits="userSpaceOnUse" x="6.8" y="16.9" width="237.9" height="214"><feColorMatrix values="1 0 0 0 0 0 1 0 0 0 0 0 1 0 0 0 0 0 1 0"/></filter></defs><mask maskUnits="userSpaceOnUse" x="6.8" y="16.9" width="237.9" height="214" id="Y"><g filter="url(#V)"><linearGradient id="X" gradientUnits="userSpaceOnUse" x1="-334" y1="794.126" x2="-333" y2="794.126" gradientTransform="scale(156.836 -156.836) rotate(17.15 2469.576 1504.74)"><stop offset="0" style="stop-color:#fff"/><stop offset=".216" style="stop-color:#c2c2c2"/><stop offset=".604" style="stop-color:#5b5b5b"/><stop offset=".874" style="stop-color:#191919"/><stop offset="1" style="stop-color:#000"/></linearGradient><path clip-path="url(#W)" fill="url(#X)" d="m6.8 75.5 190-58.6 47.9 155.3-190 58.7z"/></g></mask><linearGradient id="Z" gradientUnits="userSpaceOnUse" x1="-334" y1="794.126" x2="-333" y2="794.126" gradientTransform="scale(156.836 -156.836) rotate(17.15 2469.576 1504.74)"><stop offset="0" style="stop-color:#ffdf57"/><stop offset="1" style="stop-color:#ffdf57"/></linearGradient><path clip-path="url(#W)" mask="url(#Y)" fill="url(#Z)" d="m6.8 75.5 190-58.6 47.9 155.3-190 58.7z"/></g></svg>