<svg xmlns="http://www.w3.org/2000/svg" xmlns:xlink="http://www.w3.org/1999/xlink" viewBox="1229.2 12.9 1278 920.6" xml:space="preserve"><switch><g><defs><path id="a" d="M1229.2-158.8h1930v1090h-1930z"/></defs><clipPath id="b"><use xlink:href="#a" overflow="visible"/></clipPath><g clip-path="url(#b)"><g opacity=".05"><defs><path id="c" opacity=".05" d="M849 85.2h1609.8v850.1H849z"/></defs><clipPath id="d"><use xlink:href="#c" overflow="visible"/></clipPath><path clip-path="url(#d)" fill="#FF8080" d="m1210.5 935.2 844.9-16.5c223.4-4.4 403.6-168.6 403.4-369.6-.2-168.9-59.1-350.8-281.5-435.1-156.4-59.2-364.7-21.9-499.6 63.6-32.4 20.5-62.4 44.3-97.1 61.7-80.7 40.4-148.5 8.4-230-5.7-172.3-29.9-347.6 14.1-443.8 154.9-147.6 216.3-.4 552.7 303.7 546.7"/></g><defs><path id="e" d="M1229.2-158.8h1930v1090h-1930z"/></defs><clipPath id="f"><use xlink:href="#e" overflow="visible"/></clipPath><g opacity=".05" clip-path="url(#f)"><defs><path id="g" opacity=".05" d="M888.4 12.9h1618.8v937.2H888.4z"/></defs><clipPath id="h"><use xlink:href="#g" overflow="visible"/></clipPath><path clip-path="url(#h)" fill="none" stroke="#FF8080" stroke-width="9" stroke-miterlimit="10" d="M1255.1 945.5 2100 929c223.4-4.4 403.3-183.7 402.8-403.5-.5-184.7-59.8-383.8-282.3-476.3-156.5-65.1-364.8-24.6-499.5 68.6-32.4 22.4-62.4 48.4-97 67.3-80.6 44.1-148.5 9-230-6.7-172.5-33-347.7 14.8-443.6 168.6-147.3 236.3.6 604.4 304.7 598.5z"/></g></g></g></switch></svg>