<svg xmlns="http://www.w3.org/2000/svg" viewBox="0 0 674.73 740.19"><defs><style>.cls-4{fill:#ffcfca}.cls-5{fill:#f9bfbb}.cls-6{fill:#c69200}.cls-7{fill:#f95850}.cls-8{fill:#fd7064}.cls-10{fill:#1f3c49}.cls-13{fill:#fff}</style></defs><g id="Capa_2" data-name="Capa 2"><g id="Información"><path d="M629.27 427.23c-.14-34.38-10-69.3-22.75-100.57-27.49-67.29-70.88-127-119.22-181.31-26.42-29.66-54.74-58.15-88.21-79.55-94.9-60.68-197.5-23.92-262.78 59.47-48.46 61.91-75.78 141.41-64.44 220.23 11.77 81.78 73 144.33 136.62 192.31 62 46.78 140.61 79.71 220.34 72 73.5-7.12 158.08-51.5 188.66-121.92 8.43-19.43 11.86-39.95 11.78-60.66Z" style="opacity:.08;fill:#f45151"/><path d="M671.72 499c-.16-37.53-11.91-75.64-27.16-109.76-32.83-73.44-84.65-138.64-142.39-197.88-31.55-32.36-65.37-63.44-105.33-86.79C283.5 38.35 161 78.47 83 169.48 25.12 237-7.49 323.81 6.05 409.83 20.1 499.09 93.29 567.35 169.2 619.72c74 51 167.93 87 263.14 78.55 87.79-7.77 188.79-56.2 225.32-133.06 10.06-21.21 14.16-43.58 14.06-66.21Z" style="fill:none;stroke:#f45151;stroke-miterlimit:10;stroke-width:6px;opacity:.08"/><path style="fill:#282523" d="M174.76 477.36h217.31v261.85H174.76z"/><path class="cls-4" d="M411.57 99.08a1.68 1.68 0 0 0 0 1.32c.37.63 1.31.52 2 .26 5.18-1.89 8.48-7 13.14-9.91a21.87 21.87 0 0 0 4.45-8.44c.1-.35.19-.7.26-1a3.37 3.37 0 0 0-.39-3 2.41 2.41 0 0 0-1.91-.66c-1.8.07-3.27 1.37-4.56 2.61a66.88 66.88 0 0 0-8.1 9.14 32.56 32.56 0 0 0-4.89 9.68Z"/><path class="cls-5" d="M411.57 99.08a1.68 1.68 0 0 0 0 1.32c.37.63 1.31.52 2 .26 5.18-1.89 8.48-7 13.14-9.91a21.87 21.87 0 0 0 4.45-8.44 42.49 42.49 0 0 1-4.12 2.44 102 102 0 0 1-10.58 4.57 32.56 32.56 0 0 0-4.89 9.76Z"/><path class="cls-4" d="M429.06 93.55c-.69 1.33-1.7 3.62-.13 4.73s3.1-.53 4.07-1.67A52.89 52.89 0 0 1 443.8 87c2-1.31 4-2.5 6-3.75a100.71 100.71 0 0 0 13.36-10 3.39 3.39 0 0 0 1-1.25 2.27 2.27 0 0 0-1.39-2.66l-.29-.12a5.83 5.83 0 0 0-3 0c-.7.15-1.39.33-2.08.55a40.32 40.32 0 0 0-9.83 5.2c-7.25 5.03-14.41 10.74-18.51 18.58Z"/><path class="cls-5" d="M434.77 89.9c8.19-8 18-14 27.46-20.46l.29-.21a5.83 5.83 0 0 0-3 0c-.7.15-1.39.33-2.08.55-.76.44-1.52.88-2.29 1.31-1.27.73-2.55 1.46-3.77 2.28a53.82 53.82 0 0 0-4.31 3.38c-4.7 4-9.2 7.8-12.3 13.15Z"/><path class="cls-4" d="M427.79 91.84a3.2 3.2 0 0 0-.5 1.59c.07 1.44 2.19 2.29 3.61 2.56a45.27 45.27 0 0 1 5.56-7.63c6.54-7.23 15-12.83 23-18.35 1-.66 2.08-1.75 1.55-2.8a1.86 1.86 0 0 0-.82-.75 5.72 5.72 0 0 0-4-.43 17.51 17.51 0 0 0-4.32 1.73 31.74 31.74 0 0 0-3.9 2.31c-2.79 2-4.81 4.93-7.14 7.48-.11.13-.23.26-.35.38-4.3 4.62-9.64 8.41-12.69 13.91Z"/><path class="cls-5" d="m437.27 84 6.48-7.64a49 49 0 0 1 3.42-3.78 34.4 34.4 0 0 1 5.45-4.25c1-.64 2-1.24 3-1.84a2 2 0 0 0 .51-.42 17.51 17.51 0 0 0-4.32 1.73 31.74 31.74 0 0 0-3.9 2.31c-2.79 2-4.81 4.93-7.14 7.48-.11.13-.23.26-.35.38a30.76 30.76 0 0 1-3.15 6.03Z"/><path class="cls-4" d="M395.7 131.18c.17-1.8.35-3.6.54-5.39s.19-3.52.26-5.3a33 33 0 0 1 .59-5.7 19.37 19.37 0 0 1 .87-2.91 31.33 31.33 0 0 1 4.62-8 35.56 35.56 0 0 1 5.48-5.56 57 57 0 0 1 5.29-3.76c4.34-2.76 8.91-5.16 13.07-8.19a30.37 30.37 0 0 0 3.94-3.48c.31-.32.62-.66.91-1 3.27-3.65 5.9-7.87 8.85-11.75a7.93 7.93 0 0 1 1.59-1.68c2-1.4 5.05.23 4.77 2.68a1.7 1.7 0 0 1 0 .22v.09a6.52 6.52 0 0 1-.91 1.9c-.7 1.11-1.38 2.24-2.07 3.35-.48.8-1 1.6-1.48 2.41-1.22 1.95-2.43 3.92-3.66 5.89-.77 1.24-1.54 2.5-2.32 3.74-.11.18-.22.36-.34.54-.19.32-.38.61-.57.92a1.44 1.44 0 0 0-.31.92 3.09 3.09 0 0 0 .42.88 2.81 2.81 0 0 1-.39 2.6 3.72 3.72 0 0 1-.19.34 194.28 194.28 0 0 1-15.57 23q1.2 5.35 2.38 10.71a33.86 33.86 0 0 1-14.47 4.48 30.14 30.14 0 0 1-11.3-1.95Z"/><path class="cls-5" d="M398 111.89a20 20 0 0 0-.86 2.9 33.11 33.11 0 0 0-.59 5.71 26.35 26.35 0 0 0 4.35.1 42.67 42.67 0 0 0 5.75-.75 12.24 12.24 0 0 1-5.86-2.38 7.57 7.57 0 0 1-1.69-1.7 6.83 6.83 0 0 1-1.1-3.88Z"/><path class="cls-6" d="M293.9 152.8c-2.76 26.68-5.89 53.19-7 80-1.1 25.37-2.08 50.75-4 76.07a618.14 618.14 0 0 1-61.81 3.13c-20.56.11-41-1.05-60.79-6.92a190 190 0 0 1-30.61-12c8.08-14.09 12.42-29.93 17.32-45.31a450.07 450.07 0 0 0 12.83-50.25c7.2-37.05 8.25-73.64 7.57-111.22-.41-21.44 3.84-44.3 16.79-61.82s36.31-29 58.13-22.76c13.48 3.86 25 13.2 33.08 24.64A89.68 89.68 0 0 1 285 43.85q1 2.46 1.92 5a135.85 135.85 0 0 1 4.66 16.06 189.32 189.32 0 0 1 3.93 25.53c1.76 20.71.49 41.7-1.61 62.36Z"/><path class="cls-4" d="M277.07 158.52c-2.65 2.45-6.21 3.59-9.65 4.65a87.66 87.66 0 0 1-12.6 3.26c-8.36 1.32-16.47-.14-24.87-1.21-.81-4.81-1.64-9.63-2.45-14.44a181.8 181.8 0 0 0-3.67-17.92c-.5-1.81-1-3.6-1.64-5.37-1.46-4.42-3.16-8.75-4.87-13.09l-4.2-10.7a29.38 29.38 0 0 0 7.69 3.24c12.22 3.88 24.57 7.3 37 10.56a53.82 53.82 0 0 0 11.35 2.12l4.27 20.95Z"/><path class="cls-5" d="M273.41 140.57a131 131 0 0 1-39.11-8.11c-4-1.49-8.11-3.12-12.11-5-1.46-4.42-3.16-8.75-4.87-13.09l-4.2-10.7a29.38 29.38 0 0 0 7.69 3.24c12.22 3.88 24.57 7.3 37 10.56a53.82 53.82 0 0 0 11.35 2.12Z"/><path class="cls-4" d="M290.82 104.83c-1.44 7.39-4.09 14.39-9.67 19.65a34.1 34.1 0 0 1-18.1 8.79 43.3 43.3 0 0 1-22.05-2.73 55 55 0 0 1-10-5.09 77.55 77.55 0 0 1-14.84-12.69 95.6 95.6 0 0 1-17.84-27.05c-4.82-11.32-6.91-23.62-4.35-35.91a46 46 0 0 1 5.53-14.22 43.36 43.36 0 0 1 54.5-17.3 55.15 55.15 0 0 1 24.55 22.51 104.13 104.13 0 0 1 4.92 9.51c7.63 16.93 10.9 36.31 7.35 54.53Z"/><path class="cls-6" d="M188.48 86.52c17-3.06 31.05-15.17 38.77-29.59s9.81-30.91 9.58-47c-10.83-.2-21.28 3.36-30.16 9.07-6.78 4.38-13.21 9.48-17.52 16-5.09 7.71-6.92 17-6.55 26s2.89 16.92 5.88 25.52Z"/><path class="cls-6" d="M244.37 19.94c2.37-1.18 4.74-2.89 5.46-5.44.86-3-1.05-6.35-3.77-8s-6-1.85-9.2-1.69C233 5 229 5.81 225.85 8c-4.19 2.87-7.86 10.86-2 13.92s15.03.76 20.52-1.98Z"/><path class="cls-6" d="M286.89 48.83c-10.89.17-21.61-3.63-30.76-9.48-9.73-6.22-17.84-14.62-25.22-23.46-.87-1-1.73-2.09-2.6-3.15 12-3.9 24.88.4 34.94 7.93 8.38 6.27 15.07 14.91 21.72 23.18q1.03 2.46 1.92 4.98Z"/><path class="cls-7" d="M424.77 134.72c-.18-1-.38-2-.56-3-.49-2.75-.74-5.56-1.14-8.32-.84-5.73-7.08-3.87-10.9-2.4a34.49 34.49 0 0 1-13.48 2.32 5.87 5.87 0 0 0-2.54.3c-2.22 1-3.25 4.31-2.82 6.51a96.46 96.46 0 0 0 3.88 15.08c2.29 6.18 13.81 3.5 18.4 2.48 4.19-.92 9.05-2.58 9.57-7.51a19.94 19.94 0 0 0-.41-5.46Z"/><path class="cls-4" d="M325.73 283a280.22 280.22 0 0 1-7.73 28.28A448.59 448.59 0 0 1 296.87 363c-.82 1.74-1.64 3.45-2.47 5.18l-2.09 1.21L260.13 388c-7.94 4.57-15.93 9.16-24.55 12.24-13.89 4.95-27.66 3.53-41.81.56.59 0 3.88-37.18 4-40.15.16-3.18.27-6.35.34-9.53a199.38 199.38 0 0 0-1.76-32.58c-.41-2.71-.87-5.4-1.43-8.09-3.11-15.52-8.42-30.54-13.4-45.56-5.38-16.26-8-33.1-12.65-49.51-.71-2.55-1.16-5.34-.19-7.82 1.47-3.76 5.06-4.82 8.38-6.39 21.14-10 43.45-17.91 66.52-22a188.24 188.24 0 0 1 34.66-3c9.94.1 22.93-.51 30.89 6.51s12.93 16.88 15.58 27.06c2.35 9 3 18.4 3.24 27.73a307.44 307.44 0 0 1-2.22 45.53Zm202.59 403a21.12 21.12 0 0 1-6.82-3.57 72.72 72.72 0 0 1-9.31-8.93c-3.27-3.55-6.46-7.1-9.63-10.66-3.37-3.77-6.75-7.55-10.23-11.32a46.75 46.75 0 0 0-.3-15.61c10-.71 20.33-1.16 30.14.58l.67 5.29Z"/><path class="cls-7" d="M539.31 734.92a5.09 5.09 0 0 1-.84 1.9c-3.13 4.45-7.89 2-11.17-.86-5.2-4.57-9.37-10.58-13.7-16-12.42-15.36-24-31.32-35.68-47.26-1.85-2.53-3.74-5.16-4.55-8.2a12.78 12.78 0 0 1 .24-7.3 10.08 10.08 0 0 1 2.3-3.87 11.91 11.91 0 0 1 4.12-2.54c.94-.38 1.93-.7 2.9-1 3.69-1.16 6.17-2.31 9.87-3.48 9.85 12.18 21.89 22.49 34.6 31.66.36 1.65.71 3.31 1.06 5q3.09 14.34 6.17 28.66.57 2.63 1.13 5.24c.66 3.07 1.32 6.12 2 9.18.57 2.75 2.24 6.01 1.55 8.87Zm4.6-235.61c-.42 4-.84 8-1.22 11.87-2.72 27.6-7.42 55.45-10.33 82.75-1 9.1-2.27 18.27-2.73 27.41-.14 2.88.32 7 0 10.7-.21 2.64-.81 5.09-2.27 6.79-4.19 4.82-16.33 2.67-21.95 2.58s-16.6.86-19.89-4.86c-1.79-3.12-1.34-9.54-1.69-13-.9-9-1.37-18.07-2.29-27.09q-1.53-15-2.54-30.15-.51-7.35-.88-14.7c-.11-2.24-.09-12.55-.23-24.8-.24-21.08-1-47.9-3.77-49.25a.38.38 0 0 0-.22-.07H255.6c27.54-4.7 54.3-14.55 79.63-26.05C364.8 438 257.7 365 288.49 375c42.36 13.77 141.65 26.45 141.65 26.45.29 0 28.92.92 43.78 1.77 14.24.81 28.72 2.73 41.58 8.92a54.5 54.5 0 0 1 10.89 6.86c22.87 18.68 20.52 51.35 17.52 80.31Z"/><path class="cls-8" d="M397.42 138a.55.55 0 0 1-.53-.43 102.28 102.28 0 0 1-1.79-11.66.55.55 0 0 1 1.09-.1 97.54 97.54 0 0 0 1.81 11.56.54.54 0 0 1-.42.64Zm3.42-.71a.54.54 0 0 1-.53-.44c-.71-3.59-1.33-7.25-1.86-10.88a.54.54 0 0 1 1.07-.16c.53 3.62 1.15 7.26 1.85 10.84a.53.53 0 0 1-.43.63Zm5.31.26a.54.54 0 0 1-.53-.42c-.84-3.75-1.87-7.51-3.06-11.17a.54.54 0 1 1 1-.34c1.2 3.69 2.24 7.49 3.09 11.27a.55.55 0 0 1-.41.65Zm3.05-.66a.55.55 0 0 1-.54-.46c-.61-4-1.43-8-2.42-11.85a.54.54 0 0 1 1.05-.27c1 3.93 1.82 7.95 2.45 12a.56.56 0 0 1-.46.62Zm4.52.33a.53.53 0 0 1-.53-.45l-2.08-12.32a.54.54 0 1 1 1.07-.18l2.08 12.32a.55.55 0 0 1-.44.63Zm3.77-.89a.54.54 0 0 1-.53-.44l-2.64-13.83a.54.54 0 0 1 1.07-.2l2.61 13.82a.55.55 0 0 1-.43.64Zm4.51-1.41a.55.55 0 0 1-.54-.48 109.49 109.49 0 0 0-2-11.34.54.54 0 0 1 .4-.65.53.53 0 0 1 .65.41 108.09 108.09 0 0 1 2.06 11.45.54.54 0 0 1-.47.61Z"/><path class="cls-4" d="M220.78 108.92a20.89 20.89 0 0 1-19.84 5.7 20.59 20.59 0 0 1-13.44-11.46 19.68 19.68 0 0 1-1.07-3.14 14.65 14.65 0 0 1-.35-5.78 12.81 12.81 0 0 1 9.26-10 14.81 14.81 0 0 1 13.41 3.43l4.63 8.17ZM500 686.91a21 21 0 0 1-6.82-3.57 71.43 71.43 0 0 1-9.31-8.93c-3.28-3.55-6.46-7.1-9.63-10.66-3.38-3.77-6.76-7.55-10.23-11.32a47 47 0 0 0-.3-15.61c9.94-.71 20.32-1.16 30.14.58l.66 5.29Z"/><path class="cls-8" d="M511 735.83a5.26 5.26 0 0 1-.84 1.9c-3.14 4.45-7.89 2-11.17-.86-5.21-4.57-9.38-10.58-13.71-16-12.41-15.36-24-31.32-35.67-47.26-1.86-2.53-3.75-5.16-4.55-8.2a12.78 12.78 0 0 1 .24-7.3 10.15 10.15 0 0 1 2.3-3.87 11.73 11.73 0 0 1 4.12-2.54c.94-.38 1.93-.7 2.9-1 3.69-1.16 6.16-2.31 9.87-3.47 9.85 12.17 21.89 22.48 34.59 31.65.36 1.65.72 3.31 1.07 5l6.17 28.66q.57 2.63 1.13 5.24c.66 3.07 1.32 6.12 2 9.18.55 2.75 2.21 6.04 1.55 8.87Zm4.62-235.61c-.42 4-.85 8-1.23 11.87-2.71 27.6-7.41 55.45-10.32 82.75-1 9.1-2.27 18.27-2.73 27.42-.14 2.87.32 7 0 10.69-.2 2.64-.8 5.09-2.27 6.79-4.18 4.82-16.32 2.67-21.94 2.58s-16.61.86-19.9-4.86c-1.78-3.12-1.33-9.54-1.68-13-.9-9-1.37-18.07-2.29-27.08q-1.53-15.06-2.54-30.16-.51-7.35-.88-14.69c-.11-2.25-.09-12.56-.23-24.81-.24-21.07-1-47.9-3.77-49.25a.41.41 0 0 0-.23-.07h-218.3c27.54-4.7-19-48.77 6.36-60.27 29.57-13.41 16.36-15.73 44.88-31 2.36-1.27 0 7.33 123.23 15.31h.92c14.76.67 28.07.88 42.92 1.73 14.25.81 28.72 2.73 41.58 8.92a53.93 53.93 0 0 1 10.89 6.85c22.91 18.65 20.53 51.32 17.53 80.28Z"/><path class="cls-8" d="M453.32 473.75c-31 16.34-61.41 15.45-104.18 18.25-39.17 2.57-76.83 0-123.32-8.72-11.44-2.13-28.22-4.13-38.88-9.1-9.75-4.54-16.82-14.26-20.32-24.26a63 63 0 0 1-1.18-36.19c.2-.75.39-1.5.6-2.25a133.36 133.36 0 0 1 13.26-31.76 104 104 0 0 1 15.2-19.55c4-4 3.53-.4 8.69 0 19.64 1.54 71.28 1.1 93.68 2.87 9.68.76-6 27.32 2.95 29.58 43.14 10.88 104.37 10.18 147 8.84 19.1-.59 35.67 8 50.17 19.89 10.43 8.52-42.99 52.05-43.67 52.4Z"/><path d="M176.38 442.4a41.83 41.83 0 0 0 1.25 4.41c1.28 3.9 2.71 7.75 4 11.66a17.78 17.78 0 0 1 1.07 5.18 6.56 6.56 0 0 1-1.83 4.84 4.07 4.07 0 0 1-4.89.6c-1.29-.87-1.78-2.51-2.19-4-.54-2-1.08-3.95-1.61-5.93-.73-2.67-1.45-5.34-2.06-8-1.22-5.48-1.9-11.36.13-16.6.65-1.66 4.65-6.63 5.85-2.76.46 1.49-.23 3.52-.24 5.08a24.76 24.76 0 0 0 .52 5.52Z" style="fill:#f4b9b8"/><path class="cls-5" d="M174.06 445.85a45.2 45.2 0 0 0 1.26 4.41c1.28 3.9 2.71 7.74 4 11.65a17.91 17.91 0 0 1 1.07 5.19 6.55 6.55 0 0 1-1.83 4.83 4.05 4.05 0 0 1-4.89.61c-1.29-.88-1.78-2.51-2.19-4q-.81-3-1.61-5.93c-.73-2.67-1.46-5.34-2.06-8-1.22-5.48-1.9-11.36.13-16.59.65-1.66 4.65-6.63 5.85-2.77.46 1.49-.23 3.53-.24 5.08a25.44 25.44 0 0 0 .51 5.52Z"/><path class="cls-4" d="M192.06 383.7c-1.13-2.1-4.83-5.39-9.25-8.84l-4.8 4c-3.75 3.17-7.49 6.36-11.28 9.49-.82.67-1.94 1.44-3 2.26 5.13 2.73 9.73 5.11 9.83 6a9.49 9.49 0 0 1-.61 3.88l-.12.4a191.17 191.17 0 0 0-6 27.69c-1 6.32-2.06 12.89-1.37 19.3.73 6.79 2.53 13.36 4.22 20a8.48 8.48 0 0 0 1.16 3c1.13 1.55 3.73 2 4.95.29 2.64-3.65 1.2-9.1.31-13.14-.84-3.77-1.89-7.52-2.1-11.39a23.33 23.33 0 0 1 2.28-10.69c1.08-2.5 2.06-5 3.2-7.5a21.4 21.4 0 0 1 1.48-2.8 7.51 7.51 0 0 1 3-2.84 5.06 5.06 0 0 1 4-.27c1.22.63 1.16 2.22 1.27 3.39a17.53 17.53 0 0 1-.26 4.15c-.36 2.34-1 4.77-.64 7.14a6.88 6.88 0 0 0 .23 1.2c1.13 4.24 6.86 8 9 2.34a16.9 16.9 0 0 0 .81-3.81c.86-6.14 3-12.11 2.77-18.34a109.56 109.56 0 0 0-1.36-11.83c-2.35-14.78-4.34-16.88-7.72-23.08Z"/><path class="cls-5" d="M180.87 425.63a25.77 25.77 0 0 1 1-2.62 9.34 9.34 0 0 1 2.86-4 4.26 4.26 0 0 1 4.65-.41 5 5 0 0 1 2 3.52c.52 3.37-.81 6.72-1.9 9.95a22.1 22.1 0 0 0-1.23 5.12c-.32-2.37.28-4.8.64-7.14a17.53 17.53 0 0 0 .26-4.15c-.11-1.17 0-2.76-1.27-3.39a5.06 5.06 0 0 0-4 .27 7.51 7.51 0 0 0-3.01 2.85Z"/><path class="cls-7" d="M195.65 381.88c-2.48-5.31-6.4-9.91-10.61-14a14.72 14.72 0 0 0-4.08-3.09c-4.18-1.89-9.16 1.84-12.55 4a57.26 57.26 0 0 0-11.19 9.47 7.58 7.58 0 0 0-2.33 4.16c-.18 2 1.14 3.82 2.39 5.41l8.66 11a9.52 9.52 0 0 0 3.29 3 8.62 8.62 0 0 0 4.81.29 48.75 48.75 0 0 0 19.66-7.44 9 9 0 0 0 3.25-3.09c1.1-2.06.64-4.59-.12-6.8a30 30 0 0 0-1.18-2.91Z"/><path class="cls-8" d="M172 400.78a.53.53 0 0 1-.3-.09 13.84 13.84 0 0 1-2.77-2.63l-.27-.3a56.67 56.67 0 0 0-5.68-5.6.55.55 0 0 1-.05-.77.54.54 0 0 1 .76-.06 58.88 58.88 0 0 1 5.79 5.71l.27.31a13.61 13.61 0 0 0 2.54 2.44.54.54 0 0 1 .16.75.53.53 0 0 1-.45.24Zm4.12-1.13a.59.59 0 0 1-.38-.14 28.26 28.26 0 0 1-2.22-2.44 48.66 48.66 0 0 1-4.64-6.16 1.58 1.58 0 0 1-.17-1.61.5.5 0 0 1 .67-.14.6.6 0 0 1 .25.72s0 .11.19.48a47.28 47.28 0 0 0 4.53 6 26.38 26.38 0 0 0 2.14 2.34.54.54 0 0 1 0 .77.52.52 0 0 1-.37.18Zm4.77-1.44a.56.56 0 0 1-.45-.24 31.39 31.39 0 0 0-4.94-5.85l-1-.92a20.15 20.15 0 0 1-3.21-3.31.55.55 0 0 1 .89-.63 19.08 19.08 0 0 0 3 3.13c.35.31.7.62 1 .94a32.13 32.13 0 0 1 5.12 6 .55.55 0 0 1-.16.75.53.53 0 0 1-.25.13Zm4.93-1.11a.54.54 0 0 1-.42-.19 111.12 111.12 0 0 0-10.5-11.19.54.54 0 0 1 .74-.8 113.21 113.21 0 0 1 10.6 11.3.53.53 0 0 1-.08.76.54.54 0 0 1-.34.12Zm3.99-2.7a.51.51 0 0 1-.42-.21 52.23 52.23 0 0 0-10.61-10.07.55.55 0 1 1 .63-.89 54.14 54.14 0 0 1 10.83 10.28.56.56 0 0 1-.09.77.54.54 0 0 1-.34.12Zm4.46-2.5a.6.6 0 0 1-.34-.11 26.77 26.77 0 0 1-3.92-4.05c-.37-.44-.74-.89-1.12-1.32a39.4 39.4 0 0 0-6.72-6.11.55.55 0 0 1-.12-.76.54.54 0 0 1 .76-.12 41.08 41.08 0 0 1 6.9 6.27c.38.44.76.89 1.13 1.34a25.66 25.66 0 0 0 3.76 3.89.54.54 0 0 1-.33 1Zm.55-7.58a.55.55 0 0 1-.38-.15l-8.44-8.25a.54.54 0 0 1 .76-.78l8.48 8.25a.54.54 0 0 1-.38.93Z"/><path class="cls-7" d="M318.65 306.14c-17.53 3-35.4 2.78-53.18 2.7q-17.09-.06-34.17-.8-8.67-.36-17.35-.91c-4.44-.28-10-1-14.12 1-8.82 4.3-6.28 21-5.37 28.69.8 6.83 5.34 9.48 11.4 11.08 31.15 8.22 64.2 5.92 95.49-1.7 4.72-1.15 11.42-1.62 14.1-6.3 4.25-7.41 6.64-17 9.18-25.2 1.42-4.58-.53-9.48-5.98-8.56Z"/><path class="cls-8" d="M463.62 245c-.85 8.76-2.72 17.15-10.46 22.39-8.64 5.85-20.15 6-30.21 5.9a158.19 158.19 0 0 1-18.95-1.42c-7.64-1-15.23-2.42-22.76-4-16.39-3.41-32.91-7.18-48.94-12.33v1.8q0 4.61-.06 9.19c-.08 5.29.17 11.47.19 17.89.06 14.47-1.06 30.19-9.79 39.9-7.07 7.85-16.43 7.34-26.5 10.51-2.08.66-4.19 1.27-6.3 1.83-6 1.1-12 2-18 2.76a211.51 211.51 0 0 1-42.54.95 138.44 138.44 0 0 1-33.3-7.27c-5-1.74-7.65-5-7.8-10.31-.18-6 .93-11.91 1.28-17.88a44.61 44.61 0 0 0-.2-8.32c-1.41-10.91-4.64-21.5-8.28-31.85l-3.49 2.26c-1.52 1-10.88 7.63-19.34 13.61l-7.79 5.49c-3.3 2.33-5.76 4.05-6.4 4.49l-.17.12c13.25 16.39 23.53 34.9 32.54 53.88 2.32 4.84 4.51 9.72 6.62 14.65.05.13.1.25.16.38 1.67 3.94 4.44 8.71 2.26 13a17.94 17.94 0 0 1-3.94 4.76c-5.59 5.14-12.54 12.07-20.38 13.3s-14.09-5-20.26-8.77a203.25 203.25 0 0 1-23.27-16.35c-17.69-14.4-32.62-31.83-43.28-52.45C70 304.83 66.6 295.52 67.2 286c.59-9.26 4.94-17.12 10.7-24.19 7-8.57 15.1-16.09 23.37-23.51 14-12.52 28.58-24.25 43.4-35.72 13.47-10.43 26.79-21.26 41.67-29.64a125.2 125.2 0 0 1 25.26-10.69l1.74-.51a140.94 140.94 0 0 1 32.23-5.24c18.24-.86 37.95-.21 56.51 2.94a4.94 4.94 0 0 1 .53.1c4.92.82 9.76 1.84 14.47 3.06a166.18 166.18 0 0 1 31.33 12q19 9.33 38.06 18.62l12.7 6.21.43.2c-.81-.39-1.46-5.88-1.69-6.87-2.69-11.59-4.82-23.29-5.06-35.21-.1-5.29-1.11-11 .64-16.14A6.42 6.42 0 0 1 395 139h.13a94.51 94.51 0 0 0 30-4c5.9 3 9 11.46 11.79 17q4 7.95 7.67 16.07c6.81 15 13.29 30.59 16.84 46.76a97.57 97.57 0 0 1 2.19 30.17Z"/><path class="cls-7" d="M217.33 174.79a.55.55 0 0 1-.53-.43.54.54 0 0 1 .42-.64 13.27 13.27 0 0 1 2.8-.33.55.55 0 0 1 .54.55.54.54 0 0 1-.54.54 12.48 12.48 0 0 0-2.58.3Zm-57.72 200.04a.53.53 0 0 1-.34-.11c-1.44-1.16-2.88-2.33-4.27-3.5a.53.53 0 0 1-.06-.76.54.54 0 0 1 .76-.07q2.1 1.77 4.25 3.48a.55.55 0 0 1 .09.76.57.57 0 0 1-.43.2Zm-8.42-7.08a.5.5 0 0 1-.36-.14c-1.38-1.22-2.75-2.47-4.08-3.71a.54.54 0 0 1 0-.77.55.55 0 0 1 .77 0c1.32 1.24 2.68 2.49 4.05 3.7a.56.56 0 0 1 0 .77.55.55 0 0 1-.38.15Zm-8-7.52a.57.57 0 0 1-.38-.16c-1.3-1.28-2.6-2.6-3.87-3.93a.55.55 0 0 1 0-.77.54.54 0 0 1 .77 0c1.27 1.32 2.56 2.63 3.85 3.91a.53.53 0 0 1 0 .76.56.56 0 0 1-.4.19Zm-7.61-8a.55.55 0 0 1-.41-.18c-1.22-1.34-2.45-2.73-3.65-4.13a.54.54 0 0 1 .82-.71c1.2 1.39 2.42 2.78 3.64 4.11a.55.55 0 0 1 0 .77.5.5 0 0 1-.43.19Zm-7.19-8.34a.53.53 0 0 1-.42-.2c-1.15-1.42-2.31-2.87-3.43-4.32a.54.54 0 0 1 .86-.66c1.12 1.44 2.26 2.89 3.41 4.3a.54.54 0 0 1-.07.76.57.57 0 0 1-.38.17Zm-6.72-8.7a.53.53 0 0 1-.44-.23c-1.09-1.48-2.15-3-3.2-4.5a.54.54 0 0 1 .9-.61q1.56 2.25 3.18 4.47a.55.55 0 0 1-.12.76.56.56 0 0 1-.35.16Zm-6.25-9.06a.54.54 0 0 1-.46-.25c-1-1.53-2-3.1-3-4.66a.55.55 0 0 1 .93-.57c1 1.55 1.94 3.11 2.93 4.64a.55.55 0 0 1-.16.75.52.52 0 0 1-.27.14Zm-5.76-9.38a.55.55 0 0 1-.47-.27c-.92-1.59-1.82-3.21-2.69-4.82a.54.54 0 0 1 1-.52c.87 1.6 1.77 3.21 2.68 4.79a.55.55 0 0 1-.2.75.52.52 0 0 1-.35.12Zm-5.23-9.68a.55.55 0 0 1-.49-.3 80.67 80.67 0 0 1-2.3-5 .54.54 0 1 1 1-.41c.63 1.53 1.37 3.16 2.27 5a.55.55 0 0 1-.48.79Zm-4.08-10.21a.52.52 0 0 1-.52-.4 31.35 31.35 0 0 1-1-5.49.55.55 0 0 1 .5-.59.52.52 0 0 1 .58.49 32.33 32.33 0 0 0 1 5.31.53.53 0 0 1-.38.66.34.34 0 0 1-.21.07ZM99.41 286h-.06a.55.55 0 0 1-.48-.61 32.64 32.64 0 0 1 1.13-5.47.55.55 0 0 1 .68-.37.55.55 0 0 1 .36.68 31.28 31.28 0 0 0-1.09 5.29.54.54 0 0 1-.54.48Zm3.08-10.52a.5.5 0 0 1-.23-.05.55.55 0 0 1-.26-.72 44.36 44.36 0 0 1 2.7-4.87.54.54 0 0 1 .75-.17.55.55 0 0 1 .16.75 42.06 42.06 0 0 0-2.62 4.75.55.55 0 0 1-.5.33Zm5.88-9.27a.54.54 0 0 1-.42-.88c1-1.21 2-2.4 3.12-3.55l.55-.57.41.35.37.4-.55.58c-1.07 1.12-2.1 2.28-3.06 3.47a.53.53 0 0 1-.42.22Zm7.49-8.06a.55.55 0 0 1-.39-.92q1.89-2 3.86-3.94a.54.54 0 0 1 .77 0 .55.55 0 0 1 0 .77l-3.85 3.94a.54.54 0 0 1-.39.17Zm7.73-7.86a.51.51 0 0 1-.38-.16.53.53 0 0 1 0-.76l3.9-3.9a.55.55 0 0 1 .77 0 .54.54 0 0 1 0 .77l-3.88 3.91a.51.51 0 0 1-.41.16Zm7.81-7.77a.55.55 0 0 1-.39-.93l3.94-3.85a.54.54 0 1 1 .76.77l-3.93 3.86a.57.57 0 0 1-.38.17Zm7.89-7.68a.52.52 0 0 1-.39-.17.54.54 0 0 1 0-.77c1.32-1.27 2.64-2.54 4-3.81a.54.54 0 0 1 .77 0 .56.56 0 0 1 0 .77l-4 3.8a.54.54 0 0 1-.38.2Zm8-7.61a.52.52 0 0 1-.4-.17.55.55 0 0 1 0-.76c1.34-1.27 2.69-2.52 4-3.77a.54.54 0 0 1 .74.8c-1.34 1.24-2.68 2.5-4 3.76a.54.54 0 0 1-.36.16Zm8.06-7.49a.55.55 0 0 1-.4-.18.53.53 0 0 1 0-.76c1.36-1.25 2.71-2.49 4.07-3.71a.55.55 0 0 1 .77 0 .54.54 0 0 1 0 .76c-1.36 1.23-2.71 2.46-4.07 3.71a.59.59 0 0 1-.39.2Zm8.18-7.38a.55.55 0 0 1-.41-.18.54.54 0 0 1 .05-.77c1.38-1.23 2.76-2.45 4.14-3.64a.53.53 0 0 1 .76.05.54.54 0 0 1-.05.76q-2.06 1.8-4.13 3.64a.54.54 0 0 1-.38.16Zm8.3-7.24a.55.55 0 0 1-.41-.19.54.54 0 0 1 .06-.77q2.11-1.81 4.2-3.56a.55.55 0 0 1 .77.07.54.54 0 0 1-.07.76 574.71 574.71 0 0 0-4.2 3.56.58.58 0 0 1-.37.15Zm8.45-7.07a.54.54 0 0 1-.34-1c1.45-1.18 2.88-2.34 4.3-3.45a.54.54 0 0 1 .67.85q-2.12 1.67-4.29 3.44a.54.54 0 0 1-.36.18Zm8.65-6.82a.53.53 0 0 1-.43-.21.55.55 0 0 1 .1-.77c1.51-1.14 3-2.24 4.43-3.29a.54.54 0 0 1 .64.88c-1.44 1-2.91 2.14-4.41 3.28a.57.57 0 0 1-.35.13Zm8.92-6.46a.51.51 0 0 1-.44-.24.54.54 0 0 1 .14-.75 98.73 98.73 0 0 1 4.62-3 .54.54 0 0 1 .75.17.55.55 0 0 1-.17.75c-1.46.91-3 1.92-4.59 3a.56.56 0 0 1-.33.09Zm9.36-5.82a.54.54 0 0 1-.48-.28.54.54 0 0 1 .21-.74c1.78-1 3.45-1.8 5-2.46a.54.54 0 1 1 .43 1c-1.5.64-3.14 1.46-4.88 2.41a.54.54 0 0 1-.3.12Zm-41.12 200.83a.57.57 0 0 1-.33-.11c-.73-.53-1.46-1.08-2.18-1.62a.54.54 0 0 1 .65-.87l2.18 1.62a.53.53 0 0 1 .11.75.52.52 0 0 1-.43.23ZM286.06 153c-.35-1-.75-2-1-3-1.13-4-.81-9.25-5.52-11.68-2.32-1.19-5-.73-7.56-.55-3 .21-6 .51-9 .7a120 120 0 0 1-18.95-.34q-4.81-.48-9.57-1.33c-2.85-.52-5.78-1.54-8.7-1.59-2.1 0-4.33.67-5.4 2.2a6.93 6.93 0 0 0-1 3.35c-.61 5.85-1.13 11.8.28 17.58a8.4 8.4 0 0 0 2.69 4.85c3.54 2.79 10.81 3.14 15.32 3.72 14.91 1.89 30.63 1 44-5.19a11.88 11.88 0 0 0 4.27-2.88c1.48-1.84.83-3.84.14-5.84Z"/><path class="cls-8" d="M226.91 163.84a.54.54 0 0 1-.51-.37 77.65 77.65 0 0 1-2.52-25.75.51.51 0 0 1 .56-.43.51.51 0 0 1 .51.5 76.91 76.91 0 0 0 2.5 25.49.46.46 0 0 1-.41.55Zm4.73 1.24a.5.5 0 0 1-.51-.5 68.08 68.08 0 0 0-.58-11.86l-1.37-13c0-.37-.12-.49-.18-.51a.44.44 0 0 1-.2-.64.58.58 0 0 1 .74-.16 1.43 1.43 0 0 1 .72 1.24l1.38 13a69.5 69.5 0 0 1 .57 12 .5.5 0 0 1-.57.43Zm5.74.69a.51.51 0 0 1-.52-.43c-.75-8.42-1.2-17-1.36-25.38a.51.51 0 0 1 .54-.47.54.54 0 0 1 .55.47c.15 8.41.61 16.93 1.35 25.32a.48.48 0 0 1-.5.49Zm4.68.57a.52.52 0 0 1-.52-.47 199.63 199.63 0 0 0-1.71-25.12.48.48 0 0 1 .48-.51.54.54 0 0 1 .6.42 199.21 199.21 0 0 1 1.71 25.22.51.51 0 0 1-.54.46Zm5.22 1a.5.5 0 0 1-.52-.49 75.43 75.43 0 0 0-.74-13.32L246 153a29.44 29.44 0 0 1-.37-5.64c0-.65.12-1.31.2-2a14.7 14.7 0 0 0 .17-3.61.48.48 0 0 1 .48-.5.54.54 0 0 1 .6.42 15.6 15.6 0 0 1-.17 3.81c-.08.63-.16 1.26-.2 1.9a29.76 29.76 0 0 0 .37 5.49l.07.51a75 75 0 0 1 .74 13.46.5.5 0 0 1-.61.5Zm4.39-.76a.51.51 0 0 1-.5-.51 104 104 0 0 0-.68-24 .49.49 0 0 1 .48-.52.53.53 0 0 1 .6.42 105.09 105.09 0 0 1 .68 24.23.51.51 0 0 1-.58.38Zm5.92-.68a.5.5 0 0 1-.49-.51 20.51 20.51 0 0 0-.5-5.56c-.16-.86-.32-1.75-.43-2.63a44.79 44.79 0 0 1-.21-5.89c0-3.22 0-6.55-1.14-9.61a.44.44 0 0 1 .35-.58.56.56 0 0 1 .68.3c1.24 3.21 1.22 6.62 1.19 9.91a46.47 46.47 0 0 0 .21 5.78c.11.86.27 1.74.42 2.59a20.73 20.73 0 0 1 .51 5.78.52.52 0 0 1-.59.42Zm4.63-.74a.52.52 0 0 1-.52-.48 187.07 187.07 0 0 0-1.28-23.52.47.47 0 0 1 .48-.5.53.53 0 0 1 .6.42 188.56 188.56 0 0 1 1.29 23.62.51.51 0 0 1-.55.46Zm5.18-1.61a.53.53 0 0 1-.53-.48c.17-7.13.33-14.5-1.67-21.57a.45.45 0 0 1 .4-.55.55.55 0 0 1 .65.35c2 7.18 1.87 14.61 1.71 21.8a.51.51 0 0 1-.55.45Zm4.6.45a.52.52 0 0 1-.52-.44l-1.77-22.39a.49.49 0 0 1 .5-.49.55.55 0 0 1 .58.44l1.77 22.39a.48.48 0 0 1-.5.49Zm5.34-1.93a.51.51 0 0 1-.52-.45 155.31 155.31 0 0 0-2.3-20.91.48.48 0 0 1 .46-.52.55.55 0 0 1 .62.4 158.44 158.44 0 0 1 2.31 21 .49.49 0 0 1-.53.47s-.03.01-.04.01Zm5.09-2.46h-.12a.48.48 0 0 1-.39-.57c.52-1.73.08-3.51-.4-5.4A23.69 23.69 0 0 1 281 151c-.1-.71-.13-1.43-.17-2.13s-.06-1.42-.16-2.11a23.6 23.6 0 0 0-2.41-6.61.43.43 0 0 1 .29-.6.58.58 0 0 1 .71.26 24.18 24.18 0 0 1 2.49 6.85c.1.73.14 1.47.17 2.19s.06 1.38.15 2.06a26.18 26.18 0 0 0 .55 2.57c.48 1.91 1 3.88.39 5.82a.51.51 0 0 1-.58.31Z"/><path class="cls-7" d="M404 271.87c-7.64-1-15.23-2.42-22.76-4-16.39-3.41-32.91-7.18-48.94-12.33v1.8c-.7-2.81-1.44-5.6-2-8.47q-1.4-7.53-3.13-15-3.27-14-7.63-27.74c-1.45-4.58-3-9.13-4.63-13.63-1.43-3.91-2.65-8.4-5.48-11.57a118.85 118.85 0 0 1 10.69 13.78c9 13.7 15.95 29 27.54 40.9 8.28 8.48 18.45 14.84 28.51 21.12 6.35 3.95 12.7 7.92 19.37 11.27 2.77 1.42 5.6 2.7 8.46 3.87Zm-223-7.13-3.49 2.26c-2 1.37-17.91 12.61-27.13 19.1a37.74 37.74 0 0 1 1.77-6.31c1.14-3.05 8.69-16.29 14.11-25 3.08-4.91 8.23-17.13 12.33-26.41-.11 4.35.18 9.43-.38 13.38-1.09 7.65 2.79 22.98 2.79 22.98Zm236-40.91a70.26 70.26 0 0 1-9-6.42c-8.37-6.84-16.14-14.87-21.55-24.13l12.7 6.21A200.76 200.76 0 0 0 417 223.83Z"/><path class="cls-7" d="M419.37 254.92a49.53 49.53 0 0 1-5.19-.29.55.55 0 0 1-.48-.6.54.54 0 0 1 .6-.48 47.24 47.24 0 0 0 5.07.28h.29a.51.51 0 0 1 .54.54.54.54 0 0 1-.53.55Zm5.7-.41a.56.56 0 0 1-.54-.47.54.54 0 0 1 .46-.61 30.6 30.6 0 0 0 5.18-1.24.54.54 0 0 1 .35 1 31.65 31.65 0 0 1-5.37 1.28Zm-16.2-.69h-.1c-1.69-.33-3.48-.74-5.33-1.22a.54.54 0 0 1-.38-.67.53.53 0 0 1 .66-.38c1.82.48 3.59.88 5.26 1.2a.56.56 0 0 1 .43.64.55.55 0 0 1-.54.43Zm-10.5-2.73h-.17c-1.63-.52-3.32-1.09-5.16-1.74a.53.53 0 0 1-.33-.69.54.54 0 0 1 .69-.33c1.83.65 3.51 1.21 5.13 1.72a.55.55 0 0 1 .35.68.53.53 0 0 1-.51.36Zm36.92-.05a.55.55 0 0 1-.27-1 27.33 27.33 0 0 0 4.34-3.07.54.54 0 0 1 .71.82 29.09 29.09 0 0 1-4.51 3.2.6.6 0 0 1-.27.01Zm-47.17-3.53a.57.57 0 0 1-.18 0c-1.71-.6-3.41-1.23-5.12-1.87a.54.54 0 0 1-.31-.7.55.55 0 0 1 .7-.32c1.69.65 3.39 1.26 5.09 1.86a.56.56 0 0 1 .33.7.55.55 0 0 1-.51.33Zm55.47-3.4a.55.55 0 0 1-.41-.9 13.4 13.4 0 0 0 2.59-4.49.54.54 0 0 1 .69-.34.55.55 0 0 1 .34.69 14.57 14.57 0 0 1-2.8 4.85.56.56 0 0 1-.41.19Zm-65.59-.44a.52.52 0 0 1-.21 0c-1.67-.68-3.35-1.37-5-2.1a.53.53 0 0 1-.28-.71.54.54 0 0 1 .71-.28c1.66.71 3.33 1.41 5 2.08a.55.55 0 0 1 .3.71.54.54 0 0 1-.52.3Zm-10-4.3a.59.59 0 0 1-.22-.05q-2.47-1.14-4.92-2.34a.54.54 0 1 1 .48-1c1.62.79 3.25 1.57 4.89 2.32a.54.54 0 0 1-.23 1Zm-9.75-4.79a.57.57 0 0 1-.25-.06c-1.59-.83-3.2-1.7-4.79-2.59a.54.54 0 0 1 .53-1c1.58.88 3.18 1.75 4.76 2.58a.55.55 0 0 1 .24.73.56.56 0 0 1-.51.34Zm88.87-.49a.54.54 0 0 1-.54-.54 25.55 25.55 0 0 0-.61-5.27.54.54 0 1 1 1.06-.23 27.2 27.2 0 0 1 .64 5.5.55.55 0 0 1-.55.54Zm-98.35-4.8a.6.6 0 0 1-.28-.08c-1.57-.94-3.13-1.9-4.63-2.85a.54.54 0 1 1 .58-.92c1.49.95 3 1.9 4.61 2.84a.54.54 0 0 1 .19.74.55.55 0 0 1-.49.27Zm96.24-5.8a.54.54 0 0 1-.51-.37c-.53-1.52-1.17-3.16-2-5a.54.54 0 0 1 1-.43c.8 1.88 1.45 3.55 2 5.1a.54.54 0 0 1-.34.69Zm-105.4 0a.56.56 0 0 1-.31-.09c-1.51-1-3-2.08-4.46-3.13a.54.54 0 0 1-.12-.76.55.55 0 0 1 .76-.12c1.44 1 2.93 2.09 4.43 3.11a.54.54 0 0 1-.3 1Zm-8.8-6.37a.57.57 0 0 1-.33-.11 198.15 198.15 0 0 1-4.26-3.4.55.55 0 0 1-.07-.77.54.54 0 0 1 .76-.07c1.39 1.14 2.81 2.28 4.23 3.38a.54.54 0 0 1-.33 1Zm109.91-3.57a.54.54 0 0 1-.49-.29c-.83-1.63-1.65-3.24-2.48-4.83a.55.55 0 0 1 .23-.73.55.55 0 0 1 .74.23l2.48 4.84a.54.54 0 0 1-.24.73.52.52 0 0 1-.26.02Zm-5-9.64a.55.55 0 0 1-.48-.29l-2.53-4.81a.55.55 0 0 1 .23-.73.54.54 0 0 1 .73.23l2.53 4.81a.54.54 0 0 1-.48.79Zm-5.05-9.61a.56.56 0 0 1-.48-.29l-2.5-4.82a.56.56 0 0 1 .24-.74.55.55 0 0 1 .73.24c.83 1.62 1.66 3.22 2.49 4.82a.54.54 0 0 1-.48.79Zm-4.93-9.67a.53.53 0 0 1-.5-.35q-1-2.53-2-5a.55.55 0 0 1 .3-.71.54.54 0 0 1 .7.3c.68 1.68 1.35 3.36 2 5.06a.54.54 0 0 1-.31.7.48.48 0 0 1-.21-.03Zm-4.06-10.07a.55.55 0 0 1-.51-.34l-2.08-5a.55.55 0 0 1 .3-.71.56.56 0 0 1 .71.29l2.08 5a.55.55 0 0 1-.3.71.45.45 0 0 1-.22.02Zm-4.13-10a.55.55 0 0 1-.51-.35c-.67-1.68-1.33-3.37-2-5.07a.54.54 0 1 1 1-.38c.63 1.69 1.29 3.37 2 5.05a.55.55 0 0 1-.3.71.79.79 0 0 1-.21-.03Zm-3.78-10.18a.56.56 0 0 1-.52-.37c-.61-1.81-1.14-3.51-1.63-5.21a.55.55 0 0 1 1-.3c.48 1.68 1 3.37 1.61 5.16a.54.54 0 0 1-.34.69Zm-3-10.44a.54.54 0 0 1-.53-.42l-.12-.51a.54.54 0 1 1 1.06-.24l.12.51a.55.55 0 0 1-.41.65Z"/><path class="cls-8" d="M198.18 342.58a.56.56 0 0 1-.53-.57l.25-6.19a.57.57 0 0 1 .57-.53.55.55 0 0 1 .52.57l-.25 6.2a.54.54 0 0 1-.56.52Zm3.82 2.9h-.07a.53.53 0 0 1-.47-.6c.31-2.5.59-5 .82-7.55a.54.54 0 1 1 1.08.09c-.23 2.53-.51 5.08-.82 7.59a.55.55 0 0 1-.54.47Zm4.35 1.52h-.08a.54.54 0 0 1-.46-.62 64.39 64.39 0 0 0 .62-8.21.55.55 0 0 1 .55-.54.53.53 0 0 1 .53.55 64.77 64.77 0 0 1-.63 8.35.53.53 0 0 1-.53.47Zm3.79 1.2h-.13a.54.54 0 0 1-.4-.65 66.82 66.82 0 0 0 1.46-8.52.53.53 0 0 1 .59-.49.55.55 0 0 1 .49.6 68.71 68.71 0 0 1-1.48 8.66.55.55 0 0 1-.53.4Zm4.8.8h-.08a.56.56 0 0 1-.46-.62l1.1-7.88a.55.55 0 1 1 1.08.15l-1.1 7.88a.54.54 0 0 1-.54.47Zm4.58.65h-.06a.53.53 0 0 1-.48-.59l.83-8.21a.54.54 0 0 1 1.08.11l-.83 8.21a.54.54 0 0 1-.54.48Zm4.29-.32h-.07a.53.53 0 0 1-.47-.6 65.08 65.08 0 0 1 1.17-6.79.53.53 0 0 1 .65-.41.54.54 0 0 1 .41.65 62.56 62.56 0 0 0-1.15 6.68.56.56 0 0 1-.54.47Zm4.37 1.77h-.06a.54.54 0 0 1-.48-.6l1.07-8.53a.53.53 0 0 1 .6-.47.54.54 0 0 1 .47.61l-1.06 8.52a.54.54 0 0 1-.54.47Zm3.93.41H232a.54.54 0 0 1-.46-.61c.37-2.61.71-5.26 1-7.87a.53.53 0 0 1 .6-.48.55.55 0 0 1 .48.6c-.31 2.63-.66 5.28-1 7.9a.55.55 0 0 1-.51.46Zm4.22-.33a.53.53 0 0 1-.54-.51 19.53 19.53 0 0 1 .63-5.42l.05-.18a8.43 8.43 0 0 0 .32-2.29.55.55 0 0 1 .52-.57.56.56 0 0 1 .57.52 9.26 9.26 0 0 1-.36 2.59v.17a18.81 18.81 0 0 0-.61 5.12.54.54 0 0 1-.51.57Zm3.84.56a.54.54 0 0 1-.5-.58c.18-2.72.5-5.47.93-8.17a.54.54 0 0 1 1.07.18c-.43 2.66-.74 5.38-.92 8.07a.54.54 0 0 1-.58.5Zm4.83-.33h-.08a.54.54 0 0 1-.45-.62c.29-1.84.59-3.74.78-5.61a5.49 5.49 0 0 0-.08-2.11.54.54 0 0 1 1-.32 6.42 6.42 0 0 1 .12 2.54c-.19 1.9-.5 3.81-.79 5.66a.54.54 0 0 1-.5.46Zm4.68.49h-.05a.55.55 0 0 1-.5-.59l.57-6.88a8.1 8.1 0 0 0 0-1.39.54.54 0 1 1 1.08-.09 9.08 9.08 0 0 1 0 1.57l-.56 6.88a.55.55 0 0 1-.54.5Zm4.16-.8a.54.54 0 0 1-.52-.56c.07-2.64.28-5.31.61-7.93a.55.55 0 0 1 .61-.47.54.54 0 0 1 .47.61c-.33 2.58-.53 5.22-.61 7.82a.54.54 0 0 1-.56.53Zm4.16.4h-.1a.56.56 0 0 1-.44-.63 44.16 44.16 0 0 0 .66-8.27.54.54 0 1 1 1.08 0 44.37 44.37 0 0 1-.67 8.46.54.54 0 0 1-.53.44Zm4-.08a.53.53 0 0 1-.53-.55l.11-7.72a.51.51 0 0 1 .55-.53.53.53 0 0 1 .53.55l-.11 7.72a.54.54 0 0 1-.55.53Zm4.1-1.04a.55.55 0 0 1-.55-.53l-.19-7.88a.55.55 0 0 1 .53-.56.56.56 0 0 1 .56.53l.19 7.88a.55.55 0 0 1-.53.56Zm3.76.72a.53.53 0 0 1-.51-.57l.42-8.85a.54.54 0 0 1 1.08.06l-.42 8.84a.54.54 0 0 1-.57.52Zm4.24-2.41a.55.55 0 0 1-.52-.57l.28-7.07a.58.58 0 0 1 .56-.53.55.55 0 0 1 .52.57l-.28 7.08a.54.54 0 0 1-.56.52Zm4.21-.08a.55.55 0 0 1-.51-.58l.5-8a.54.54 0 0 1 1.08.06l-.49 8.05a.55.55 0 0 1-.58.47Zm4.26-.61a.56.56 0 0 1-.51-.33 1.3 1.3 0 0 1-.07-.73l1-7a.55.55 0 0 1 1.08.15l-1 7a.89.89 0 0 0 0 .15.52.52 0 0 1-.27.7.54.54 0 0 1-.23.06Zm4.85-1.16a.54.54 0 0 1-.54-.54 55.1 55.1 0 0 1 .53-7.81.57.57 0 0 1 .59-.49.56.56 0 0 1 .46.62 54.19 54.19 0 0 0-.53 7.64.54.54 0 0 1-.54.55Zm4.48-.84a.55.55 0 0 1-.5-.58l.6-8a.53.53 0 0 1 .58-.5.54.54 0 0 1 .5.58l-.59 8a.55.55 0 0 1-.59.5Zm4.29-.45a.54.54 0 0 1-.51-.57l.47-8.45a.53.53 0 0 1 .57-.51.55.55 0 0 1 .52.57l-.48 8.45a.53.53 0 0 1-.57.51Zm4.21-1.27a.52.52 0 0 1-.24 0 .62.62 0 0 1-.33-.67l.69-5.24a10.38 10.38 0 0 0 .13-2.66.56.56 0 0 1 .48-.61.53.53 0 0 1 .6.48 11.89 11.89 0 0 1-.13 2.93l-.67 5a.61.61 0 0 1-.1.62.58.58 0 0 1-.43.15Zm.5-.57Zm4.1.07a.54.54 0 0 1-.53-.55 79.48 79.48 0 0 1 .7-9 .54.54 0 1 1 1.08.14 77.54 77.54 0 0 0-.69 8.87.54.54 0 0 1-.56.54Zm3.48-1.31h-.11a.55.55 0 0 1-.43-.61c.4-3 .89-6 1.46-9a.55.55 0 0 1 1.07.21c-.53 2.77-1 5.58-1.38 8.37a.57.57 0 0 1 0 .26l-.09.34a.54.54 0 0 1-.52.43Zm4.78-3.34a.47.47 0 0 1-.17 0 .54.54 0 0 1-.35-.68c.71-2.23 1.32-4.51 1.81-6.8a.54.54 0 0 1 1.06.23c-.5 2.32-1.12 4.64-1.84 6.9a.53.53 0 0 1-.51.35Z"/><path class="cls-6" d="M231.23 66.14a1.2 1.2 0 0 1-1.17-2 11.77 11.77 0 0 1 11.27-3.88 1.2 1.2 0 0 1-.51 2.35 9.33 9.33 0 0 0-8.91 3.07 1.16 1.16 0 0 1-.68.46Zm32.01-5.33a1.24 1.24 0 0 1-.94-.55 1.2 1.2 0 0 1 .35-1.66 10.94 10.94 0 0 1 11-.41 1.2 1.2 0 0 1-1.16 2.11 8.47 8.47 0 0 0-8.51.31 1.23 1.23 0 0 1-.74.2Z"/><path class="cls-10" d="M256 85.11a3.78 3.78 0 0 1 3.44-1 4.52 4.52 0 0 1 3.29 6.2 3.77 3.77 0 0 1-2.8 2.25 5.15 5.15 0 0 0 1.45-2.7 4.08 4.08 0 0 0-2.33-4.39 5.17 5.17 0 0 0-3.05-.36Z"/><path d="M281.48 93.08v.12a20.92 20.92 0 0 1-2.35 14.85A22.07 22.07 0 0 1 246 114a20.89 20.89 0 0 1-7.12-11.75v-.12Z" style="fill:#ea5353"/><path d="M279.15 108.05A22.07 22.07 0 0 1 246 114a48.9 48.9 0 0 1 5-2.8c6.52-3.2 13.8-5.25 21.05-4.59a36.49 36.49 0 0 1 7.1 1.44Z" style="fill:#ff948f"/><path class="cls-13" d="M277.51 93.92c-1.05 9.46-26.53 15.5-34.08 7.27Z"/><path class="cls-10" d="M267.82 75.47a.59.59 0 0 1-.32 0 .6.6 0 0 1-.42-.58 5.83 5.83 0 0 1 3.21-4.89 8.25 8.25 0 0 1 5.78-.54.61.61 0 0 1 .45.73.61.61 0 0 1-.73.44 7 7 0 0 0-4.94.44 4.92 4.92 0 0 0-2.05 2l.11-.07a9 9 0 0 1 6.91-.86.6.6 0 1 1-.26 1.17c-1.37-.3-4-.62-6 .7a4.35 4.35 0 0 0-1.39 1.24.64.64 0 0 1-.35.22Zm-23.32 3.42a.84.84 0 0 0 .31-.19.68.68 0 0 0 .09-.8 6.5 6.5 0 0 0-5.8-3.06 9.24 9.24 0 0 0-6 2.61.67.67 0 0 0 0 1 .68.68 0 0 0 1 0 7.9 7.9 0 0 1 5.08-2.25 5.55 5.55 0 0 1 3.09.85h-.14a10.11 10.11 0 0 0-7.25 2.9.68.68 0 0 0-.06.95.69.69 0 0 0 1 .06c1.17-1 3.54-2.76 6.25-2.57a4.9 4.9 0 0 1 2 .47.67.67 0 0 0 .43.03Z"/><path class="cls-13" transform="rotate(-57.27 306.233 191.04)" d="M304 190.45h4.46v1.17H304z"/><path class="cls-13" transform="rotate(-12.24 302.024 190.869)" d="M301.58 189.25h1.17v3.38h-1.17z"/><path class="cls-13" transform="rotate(-12.24 308.046 194.533)" d="M306.45 194.01h3.45v1.17h-3.45z"/><path class="cls-13" d="M304.39 197.13a1.34 1.34 0 0 1-.91.64 1.32 1.32 0 0 1-1.07-.21 1.44 1.44 0 0 1-.43-2 1.29 1.29 0 0 1 .89-.62 1.32 1.32 0 0 1 1.09.19 1.45 1.45 0 0 1 .43 2m.26-3.09a2.68 2.68 0 0 0-3.75.81 2.65 2.65 0 0 0-.37 2.08 2.59 2.59 0 0 0 1.19 1.72 2.56 2.56 0 0 0 2 .39 2.64 2.64 0 0 0 1.72-1.2 2.67 2.67 0 0 0 .36-2.06 2.71 2.71 0 0 0-1.19-1.74M285.5 196a3.12 3.12 0 0 0-2.11 1.47 3.41 3.41 0 0 0 1 4.71 3.19 3.19 0 0 0 2.52.46 3.29 3.29 0 0 0 1.86-1.11 3.45 3.45 0 0 0 .77-2l-1.34.29a2.32 2.32 0 0 1-.54 1 2.06 2.06 0 0 1-2.59.27 2.14 2.14 0 0 1-.63-2.9 2 2 0 0 1 1.31-.91 1.93 1.93 0 0 1 1.16.09 2.28 2.28 0 0 1 .91.69l1.34-.29a3.36 3.36 0 0 0-1.54-1.51 3.2 3.2 0 0 0-2.15-.25m9.58 2.3.22-.19.11.52a1.09 1.09 0 0 1-.15 1 1.41 1.41 0 0 1-.75.44.7.7 0 0 1-.48 0 .68.68 0 0 1-.3-.47.66.66 0 0 1 .19-.64 1.57 1.57 0 0 1 .56-.3Zm-1.16-2.77a2.14 2.14 0 0 0-1.66 1.06 2.11 2.11 0 0 0-.13 1.2l1.28-.28a.89.89 0 0 1 .08-.5.77.77 0 0 1 .63-.39 1.12 1.12 0 0 1 .65 0c.16 0 .25.18.31.39a.42.42 0 0 1-.21.45l-.94.37a3.08 3.08 0 0 0-1 .58 1.47 1.47 0 0 0-.39 1.54 1.4 1.4 0 0 0 .66 1 1.72 1.72 0 0 0 1.12.13 2.57 2.57 0 0 0 1.53-.89l.12.53 1.27-.27-.81-3.77a1.34 1.34 0 0 0-.91-1.12 3 3 0 0 0-1.56 0"/><path class="cls-13" transform="rotate(-12.24 290.565 198.32)" d="M290.02 194.95h1.31v6.82h-1.31z"/><path class="cls-13" d="M299 194.61a2.11 2.11 0 0 0-.75.92l-.14-.65-1.22.26 1.11 5.11 1.27-.27-.53-2.45a1.89 1.89 0 0 1 0-.93 1.19 1.19 0 0 1 .34-.59 1.28 1.28 0 0 1 .65-.38h.4l-.3-1.31-.32.1Z"/></g></g></svg>