<svg xmlns="http://www.w3.org/2000/svg" viewBox="0 0 278.57 754.05"><defs><style>.cls-3{fill:#02c6cb}.cls-4{fill:#08a8b1}.cls-5{fill:#fff}.cls-6{fill:#2c2c2c}.cls-7{fill:#162d47}.cls-9{fill:#ffaf82}.cls-10{fill:#f88968}</style></defs><g id="Capa_2" data-name="Capa 2"><g id="Información"><ellipse cx="139.05" cy="735.02" rx="125.47" ry="19.04" style="fill:#32324c;opacity:.1"/><path d="m193.52 527-13.9 167.9h-24.5c-5.67-65.43-14.81-122.77-4.5-167.9-10.39-50.89-18.11-166.39-18.11-166.39 18.69-8.56 48.67-16.36 48.67-16.36C191.12 400.73 193.52 527 193.52 527Z" style="fill:#050705"/><path class="cls-3" d="M236.5 734.49h-80.11a7.42 7.42 0 0 1-7.35-6.43 7.34 7.34 0 0 1 0-1.56l3.26-42.07a46.36 46.36 0 0 1 8-2.64 8.14 8.14 0 0 0 5.94-5.39c.06-.2.11-.41.16-.61 1.84-8.1 13.51-10.68 15.67-2.76.28 1 .52 2 .73 3l.15.71c.34 1.7.59 3.27.77 4.64a.19.19 0 0 1 0 .08 44.29 44.29 0 0 1 .4 5.72c1.06 1.35 2.09 2.67 3.08 4 .51.64 1 1.29 1.48 1.93 1.05 1.36 2.07 2.7 3.08 4l1.39 1.76c1.12 1.39 2.21 2.71 3.31 3.94.49.55 1 1.1 1.49 1.62 4.13 4.34 8.3 7.31 13.22 8 8.69 1.19 22.88 2.15 29.73 14.89a4.72 4.72 0 0 1 .35.81 4.94 4.94 0 0 1-4.75 6.36Z"/><path class="cls-4" d="M236.5 734.49h-80.11a7.42 7.42 0 0 1-7.35-6.43h92.17a4.94 4.94 0 0 1-4.71 6.43Z"/><path class="cls-5" d="M188.64 693.06c-.93 1.36-2.82 3-6.63 4.53-.65.26-1.36.52-2.12.77l-.7-2.09q1.14-.37 2.07-.75c4.37-1.77 5.57-3.5 5.9-4.39.51.64.99 1.29 1.48 1.93Z"/><path class="cls-5" d="M182 697.32a2.49 2.49 0 1 1-2.48-2.49 2.48 2.48 0 0 1 2.48 2.49Zm11.11 1.48a15.69 15.69 0 0 1-5.48 3.45c-.77.33-1.6.64-2.54 1l-.69-2.1c.87-.29 1.65-.57 2.34-.86a12.53 12.53 0 0 0 5-3.2Z"/><path class="cls-5" d="M187.63 702.15a2.48 2.48 0 1 1-2.48-2.48 2.49 2.49 0 0 1 2.48 2.48Zm10.28 2.21a15.89 15.89 0 0 1-5.31 3.31q-1.15.5-2.58 1l-.68-2.1c.87-.28 1.65-.58 2.35-.87a14 14 0 0 0 4.73-2.92c.49.51.98 1.06 1.49 1.58Z"/><path class="cls-5" d="M192.6 707.58a2.49 2.49 0 1 1-2.48-2.48 2.49 2.49 0 0 1 2.48 2.48Zm-8.93-26.23a54.87 54.87 0 0 0-7.14.4v-4a18.07 18.07 0 0 1 6.33-1c.38 1.66.63 3.25.81 4.6Z"/><path class="cls-6" d="M119.32 360.62s-.63 66.65-10.09 166.39c-6.16 54.34-13 122.51-20.65 167.9H64.06L60.6 527S55 423.68 67.18 352.48Z"/><path class="cls-3" d="M110.07 728.89c-.71 14.12-44.84 9.25-51.89 5-2.73-1.64-3.87-4.79-4.08-8.61-.35-6.09 1.66-13.88 3.39-20 2.83-9.94 2.44-9.76 4.4-16.55 0 0-.51-11.06 14-15.28s19.76 23.3 22.23 28.59c2.26 4.85 11.05 11.49 12 23.42a27.34 27.34 0 0 1-.05 3.43Z"/><path class="cls-5" d="m68 697.69-1.16-1.78c.54-.35 13.3-8.53 24.41-3.66l-.85 1.94c-10.08-4.41-22.29 3.42-22.4 3.5ZM69.25 710l-1.16-1.77c.54-.35 13.3-8.54 24.4-3.67l-.85 1.94c-10.06-4.44-22.27 3.39-22.39 3.5Zm-.63-6.17-1.16-1.77c.54-.36 13.3-8.54 24.41-3.67l-.87 1.94c-10-4.42-22.26 3.42-22.38 3.5Z"/><path class="cls-5" d="M69.67 697.13a2.39 2.39 0 1 1-2.39-2.38 2.38 2.38 0 0 1 2.39 2.38Zm.12 5.87a2.38 2.38 0 1 1-2.38-2.38 2.37 2.37 0 0 1 2.38 2.38Zm1.26 5.77a2.38 2.38 0 1 1-2.38-2.38 2.38 2.38 0 0 1 2.38 2.38Zm23.4-3.44a2.38 2.38 0 1 1-2.38-2.33 2.39 2.39 0 0 1 2.38 2.33Zm-.63-6.33a2.38 2.38 0 1 1-2.38-2.38 2.37 2.37 0 0 1 2.38 2.38Zm-.63-6.37a2.38 2.38 0 1 1-2.38-2.38 2.37 2.37 0 0 1 2.38 2.38Z"/><path class="cls-4" d="M110.07 728.89c-.71 14.12-44.84 9.25-51.89 5-2.73-1.64-3.87-4.79-4.08-8.61 4.63 2.65 12.81 5.94 25 6.16 15 .27 25.77-2.76 30.92-6a27.34 27.34 0 0 1 .05 3.45Z"/><path class="cls-5" d="M82.08 677.84a23.6 23.6 0 0 0-12.41 2.47l.64 4.47s8-2.35 13.3-2a10.51 10.51 0 0 0-1.53-4.94Z"/><path class="cls-6" d="M70.64 335s-8.3 29.38-8.22 55.56c0 0 40.66 17.8 92.39-1.86a41.67 41.67 0 0 0 24.31-52.94l-.27-.76s-66.15-2.7-108.21 0Z"/><path class="cls-7" d="M92.31 111s-55.87-3.6-81.13 28.1-3.75 166.43 25 178.34 71.11 6.05 81.69-17.44 4.48-145.79-25.56-189Z"/><path d="M90.3 127.76s-51 2.37-65.4 27.78-5.34 126.77 19.22 142.29 50.35 6.44 68.15-22.92c2.42-54.22-2.52-104.54-21.97-147.15Z" style="fill:#151a31"/><path class="cls-4" d="M198.1 241.32C195.52 171.9 165.86 130 165.86 130c-16.28 66.58 3 103.27 8.52 120.64s54.18 79.39 54.18 79.39c3.89-4.88 9.09-8.42 14.07-9.56 0 0-15.94-28.12-21.59-38.65s-22.94-40.5-22.94-40.5Z"/><path class="cls-9" d="M240.39 320a67 67 0 0 1 12.19 3.88c5.45 2.49 12 5.69 15.33 7.28 4 1.93.53 5.48-5.16 3.13s-7-2.87-7-2.87 19.1 14.31 22.34 19.85c2.95 5.06-8-2.31-17.35-7.9 0 0 16 17 15.06 20.88-1.3 5.06-20.68-15.62-20.68-15.62s12 17.37 9.74 18.52c-2.54 1.28-17-15-17-15s7.14 12.64 5.4 12.85c-3.53.43-24-22.86-24.7-37 0 0 8.38-8 11.83-8Z"/><path class="cls-10" d="M259 338.6s-6.44 9.18-16.74 10.73c-.01 0 10.05 3.19 16.74-10.73Zm-11.39.09s-12.13-4.93-7.48-15.52c0 0-9.07 10.23 7.48 15.52Z"/><path class="cls-3" d="M101.92 91.91s-30.21.26-43.92 12.76-.49 37.74 14.46 40.93 61.56-2.51 66.39-10.52 1.6-42.7-36.93-43.17Z"/><path class="cls-3" d="M55.49 354.52c45.42 28.14 89.81 25.31 134.56-2L165.86 130l-26.54-3.56-2.13-.28-6-.81-37.11-5-6.25 2.14-7.87 2.69-1.96.72-35 12 26.08 152.85Z"/><path class="cls-4" d="M104.63 145.85c-26.57 0-32.83-23.4-32.89-23.64a1 1 0 1 1 1.9-.48c.24.91 6 22.16 31 22.16a3 3 0 0 1 .42 0 1 1 0 0 1 1 1 1 1 0 0 1-1 1Zm24.95-3.76a1 1 0 0 1 0-2c.36 0 8.08-.35 10-10.81a1 1 0 1 1 1.92.37c-2.26 12.08-11.82 12.4-11.92 12.4ZM99.66 290.4s-.15 20.84-4.87 40c0 0 49.38 8 77.32-7.19a131.31 131.31 0 0 0-.57-38.87Z"/><path class="cls-5" d="M110.37 239.77h-.08a1 1 0 0 1-.87-1c2.11-24.44-7.27-86.07-7.36-86.69a1 1 0 0 1 .8-1.1 1 1 0 0 1 1.09.81c.09.62 9.5 62.48 7.38 87.15a1 1 0 0 1-.96.83Zm32.31-4.9h-.08a1 1 0 0 1-.88-1c2.11-24.44-7.58-86.56-7.67-87.18a1 1 0 1 1 1.89-.3c.1.63 9.82 63 7.69 87.64a1 1 0 0 1-.95.84Z"/><path class="cls-7" d="M56.29 132.33S94.9 228.46 67.58 282c-4.21 5.63-3.45 20.34-2.45 26.4 0 0 35.45-26.22 28.12-89.9s-21.54-90.44-21.54-90.44-7.14-7.06-15.42 4.27Zm92.83-4.53s24.16 58 32.43 146.47c0 0 16.55-77.5-15.88-141.35 0 0-5.54-11.27-16.55-5.12Z"/><path class="cls-9" d="M50.15 332.68s6.9 3.11 11.36 7.47 9 9.09 11.66 11.82c3.25 3.29-.84 4.89-4.63 3-5.75-2.83-7.38-5.76-7.38-5.76s13.66 20.79 14.89 27.3c1.11 6-7-5.06-14.21-13.82 0 0 9.73 22.29 7.41 25.72-3 4.49-14.75-22.55-14.75-22.55s5.66 21.22 3 21.55c-2.93.36-11.38-20.66-11.38-20.66s2.6 14.92.78 14.52c-3.6-.81-15.47-30.8-11.17-44.9.03 0 11.05-4.91 14.42-3.69Z"/><path class="cls-3" d="M36.3 239s11.57-12.46 23-47.74c0 0 3.2-49.17-16.31-53.36 0 0-27.24 41.51-36.15 92.62 0 0-2.08 61.68 28.16 106.31 0 0 9.14.52 15.19-4.15-.04 0-16.19-66.17-13.89-93.68Z"/><path class="cls-7" d="M161.74 22.47s9.11 6 5.85 22.32S158 62.84 158 62.84s-9.54-36.12 3.74-40.37Z"/><path class="cls-9" d="m126.24 100-1.78 20.59-.82 9.43c-12.14 8.42-31.08-4.26-31.08-4.26l-.7-32.35c5.6-3.53 19.24 1.71 27.67 4.33 3.98 1.26 6.71 2.26 6.71 2.26Z"/><path class="cls-10" d="m126.24 100-1.78 20.59C110.61 117 99.52 97.27 99.52 97.27l20 .48c3.99 1.25 6.72 2.25 6.72 2.25Z"/><path class="cls-9" d="M165.67 46.69v4.01c-.19 6.39-.83 13.44-1.69 20.5-.18 1.48-.37 3-.57 4.43-.18 1.27-.35 2.54-.53 3.8-.39 2.61-.78 5.2-1.19 7.7-.28 1.74-.55 3.44-.84 5.09a24.5 24.5 0 0 1-29 19.86c-7.17-1.44-15.09-3.22-22.47-5.28l-1.09-.3a121.61 121.61 0 0 1-16-5.53c-.58-.84-1.15-1.69-1.69-2.56a71.43 71.43 0 0 1-9.2-24.76c-.66-3.51-1.15-7.05-1.5-10.61a7.4 7.4 0 0 0-.15-.82c0-3.28 0-6.54.11-9.68A41.1 41.1 0 0 1 123 12.25c18.34.95 35.8 8.05 40.21 17.5 1.79 3.75 2.45 9.78 2.46 16.94Z"/><path class="cls-7" d="M90.58 98.41a71.48 71.48 0 0 1-9.2-24.77c2.61 0 6 .82 10.43 2.87 0 0 1 12.92-1.23 21.9Zm41.95-38.12c0 2.73-1.22 4.94-2.72 4.94s-2.72-2.21-2.72-4.94 1.22-4.95 2.72-4.95 2.72 2.21 2.72 4.95Zm28.1 0c0 2.73-1.22 4.94-2.72 4.94s-2.72-2.21-2.72-4.94 1.22-4.95 2.72-4.95 2.72 2.21 2.72 4.95ZM79.8 54.78s8.71-5.67 16 4.46h5.71s-.32-11.73 2.45-18.09 13.7-6.2 15.33-13.71c0 0 26.76 12.88 42.15 4.67 34.84-18.56-38.27-42.37-65.04-27.39-19.89 11.13-20.75 30.09-16.6 50.06Z"/><path class="cls-7" d="M118.81 52.07s2.62-5.37 7.64-6.72a12.86 12.86 0 0 1 9.64.86 1.67 1.67 0 0 1 .75 2 1.67 1.67 0 0 1-2.27.94c-2.82-1.26-9.02-2.95-15.76 2.92Zm46.86-5.38v2.18a13.39 13.39 0 0 0-11.67-.12 1.63 1.63 0 0 1-.71.16 1.68 1.68 0 0 1-.82-3.14 12.83 12.83 0 0 1 9.63-.86 9.87 9.87 0 0 1 3.57 1.78Z"/><path class="cls-9" d="M95.85 59.24s-8.74-10.59-16-4.46C71.74 61.54 77.91 84.47 94.29 84Z"/><path class="cls-10" d="M94.7 79a1.43 1.43 0 0 1-1.43-1.27c-1.34-11.6-8.22-13.38-8.51-13.45a1.45 1.45 0 0 1-1.07-1.73 1.43 1.43 0 0 1 1.71-1.08c.37.08 9.15 2.19 10.73 15.93a1.45 1.45 0 0 1-1.27 1.6Z"/><path class="cls-10" d="M85.49 71.63a1.43 1.43 0 0 1-.95-.36 1.44 1.44 0 0 1-.12-2 8.19 8.19 0 0 1 7.7-2.27 1.44 1.44 0 0 1-.62 2.82 5.27 5.27 0 0 0-4.93 1.32 1.4 1.4 0 0 1-1.08.49ZM139.5 102a13.9 13.9 0 0 1-9.25-3.34 1.44 1.44 0 0 1 2-2.08c.2.19 4.6 4.23 11.94 1.71a1.45 1.45 0 0 1 1.83.9 1.44 1.44 0 0 1-.9 1.83 17.15 17.15 0 0 1-5.62.98Z"/><path class="cls-7" d="M128.47 72a11.67 11.67 0 1 1 11.67-11.67A11.69 11.69 0 0 1 128.47 72Zm0-21.42a9.75 9.75 0 1 0 9.75 9.75 9.76 9.76 0 0 0-9.75-9.79ZM158.87 72a11.67 11.67 0 1 1 11.67-11.67A11.68 11.68 0 0 1 158.87 72Zm0-21.42a9.75 9.75 0 1 0 9.75 9.75 9.76 9.76 0 0 0-9.75-9.79Z"/><path class="cls-7" transform="matrix(.08 -1 1 .08 42.57 158.98)" d="M106.22 45.45h1.92v22.07h-1.92z"/><path class="cls-7" d="m139.61 59.42-1.11-1.57c1.85-1.32 6.41-3 10.38 0l-1.17 1.52c-3.82-2.9-7.93-.08-8.1.05Z"/><path class="cls-10" d="M146.43 76.19a1.43 1.43 0 0 1-1.15-.56 1.46 1.46 0 0 1 .27-2l3.84-2.93-3.33-.86a1.45 1.45 0 0 1-1.06-1.2l-1.47-9.18a1.44 1.44 0 0 1 2.85-.45l1.32 8.24 5.3 1.37a1.45 1.45 0 0 1 .51 2.55l-6.2 4.73a1.42 1.42 0 0 1-.88.29Zm-2.27 18.98a25.11 25.11 0 0 1-18.1-7.17 1.43 1.43 0 0 1 2-2c10.21 10 24.53 5 24.68 5a1.43 1.43 0 1 1 1 2.7 30.82 30.82 0 0 1-9.58 1.47Z"/></g></g></svg>