<svg xmlns="http://www.w3.org/2000/svg" viewBox="0 0 785.16 569.87"><defs><style>.cls-3{fill:#d47978}.cls-4{fill:#ff8e43}.cls-5{fill:#fff}.cls-6{fill:#774443}.cls-7{fill:#965655}.cls-8{fill:#f33d1d}.cls-9{fill:#e6e6e6}.cls-13{fill:#ccc}.cls-16{fill:#b5b5b5}.cls-17{fill:#d80391}.cls-18{fill:#2c2c2c}.cls-19{fill:#ffaf82}.cls-21{fill:#04040a}.cls-22{fill:#f88968}</style></defs><g style="isolation:isolate"><g id="Capa_2" data-name="Capa 2"><g id="Información"><path style="fill:#d6c7be;mix-blend-mode:multiply;opacity:.4" d="M358.84 569.87h104.38l258.79-150.08v-84.78L456.89 182.36l-123.46-4.87 25.41 392.38z"/><path class="cls-3" d="M358.84 480.67 631.2 323.54 285.22 123.75 12.85 280.88l345.99 199.79z"/><path class="cls-4" d="m125.52 332.86-11.68 6.34 234.2 135.23 10.8-6.87-233.32-134.7z"/><path class="cls-5" d="m158.32 351.8-11.67 6.32-32.81-18.94 11.68-6.32 32.8 18.94z"/><path class="cls-6" d="M631.2 412.74 358.84 569.87v-89.2L631.2 323.54v89.2z"/><path class="cls-7" d="M12.85 280.88v89.2l345.99 199.79v-89.2L12.85 280.88z"/><path class="cls-8" d="M113.84 339.18v42.51l233.32 134.7v-42.51l-233.32-134.7z"/><path class="cls-9" d="M146.65 358.12v42.5l-32.81-18.93v-42.51l32.81 18.94z"/><path class="cls-3" d="M29.3 201.15 301.66 44.02l-16.42-9.44L12.87 191.71l16.43 9.44z"/><path class="cls-6" d="M301.66 133.22 29.3 290.35v-89.2L301.66 44.02v89.2z"/><path class="cls-7" d="M12.87 191.71v89.2l16.43 9.44v-89.2l-16.43-9.44z"/><path class="cls-3" d="M31.4 164.14 294.47 12.55l-11.58-6.72-263.07 151.6 11.58 6.71z"/><path class="cls-6" d="M294.47 44.02 31.4 195.61v-31.47L294.47 12.55v31.47z"/><path class="cls-7" d="M19.82 157.43v31.47l11.58 6.71v-31.47l-11.58-6.71z"/><path class="cls-3" d="M18.92 177.49 307.73 10.87 288.81 0 0 166.62l18.92 10.87z"/><path class="cls-6" d="M307.73 25.09 18.92 191.71v-14.22L307.73 10.87v14.22z"/><path class="cls-7" d="M0 166.62v14.22l18.92 10.87v-14.22L0 166.62z"/><path style="fill:#c1bce1" d="m358.84 425.06 255.74-147.53L296.34 93.79 40.6 241.32l318.24 183.74z"/><path class="cls-4" d="M611.16 275.93s-27.13-9-37-8c-63.79 6.41-215.33 157.13-215.33 157.13l-233.31-134.7 255.74-147.53 163.93 91.91Z"/><path class="cls-5" d="m414.07 161.76-32.81-18.93-255.74 147.53 32.8 18.94 255.75-147.54z"/><path style="fill:#8c84c2" d="M614.58 320.03 358.84 467.56v-42.5l255.74-147.53v42.5z"/><path style="fill:#a69fd6" d="M40.6 241.32v42.51l318.24 183.73v-42.5L40.6 241.32z"/><path class="cls-8" d="M125.52 290.36v42.5l233.32 134.7v-42.5l-233.32-134.7z"/><path class="cls-9" d="M158.32 309.3v42.5l-32.8-18.94v-42.5l32.8 18.94zm-96.91-85.06c15.15 15.61 38.43 20.62 54.85 34.89.42.36.83.73 1.24 1.11a77.74 77.74 0 0 1 7.31 7.76c1.14 1.38 2.24 2.78 3.32 4.2l1.59 2.16a6.3 6.3 0 0 1 .88 2.66c0 .24.15.52.39.57a.54.54 0 0 0 .33 0 2.47 2.47 0 0 0 1.59-1.38 5 5 0 0 0 .24-2 86.53 86.53 0 0 0-5.1-24.1 41.38 41.38 0 0 0-5.78-11.16c-3.24-4.2-7.64-7.36-12.22-10a154.64 154.64 0 0 0-17.43-8.32c-5.37-2.27-10.87-4.51-16.68-5a15.83 15.83 0 0 0-7.84 1c-2.66 1.21-4.91 2.81-8 2-1-.28-2-.69-3-.9a1.13 1.13 0 0 0-.73 0 .2.2 0 0 0-.11.09.22.22 0 0 0 0 .16c.82 2.64 3.3 4.35 5.15 6.26Z"/><path class="cls-13" d="M220.84 220c-1.81 2.76-6.48 3.89-9.41 4.81-3.89 1.2-7.87 2.08-11.76 3.29-2.84.87-33 19.58-35.53 21.17-1.83 1.17-3.47 2.37-5.33 3.46a6.55 6.55 0 0 0-.66.41 31.24 31.24 0 0 0-4.85 3.6 65.15 65.15 0 0 0-6.56 6.93c-1 1.15-1.9 2.3-2.84 3.47-3 3.72-6.06 7.55-10.24 9.83-.56.32-1.57.87-2.15.39s-.07-1 .32-1.43a7.18 7.18 0 0 0 .85-1.12 10 10 0 0 0 .73-1.32c.09-.16.64-1.09.57-1.21-.27-.46 1.73-3.88 2-4.47.71-1.55 1.4-3.12 2.1-4.69 1.33-3 2.56-6.06 4.17-8.9a25.61 25.61 0 0 1 3.11-4.32 36.46 36.46 0 0 1 12.22-9c2.09-1 7.29-3.78 13.56-7.1 12.45-6.64 29.08-15.4 33.57-16.24 2.34-.45 20.39-4.15 16.13 2.44Z"/><path class="cls-5" d="M136.21 269.5c-.15.21-.29.43-.43.65-1.19 1.89-1.49 4-2.47 6.05a2.28 2.28 0 0 1-2.32 1.41c0-4.2.08-8.46-1-12.53a36.69 36.69 0 0 0-6.53-12.46 79.53 79.53 0 0 0-42.95-29c-5.25-1.39-10.68-1.83-16-2.73-1.81-.3-6.05-.42-7.32-1.88-2.07-2.38 1.79-2.95 3.32-3.42a20.5 20.5 0 0 0 5.54-3.2c11.76-8.3 25.18-14.41 37.89-21.17 3.1-1.64 6.21-3.29 9.45-4.64a34 34 0 0 0 6.77-3.24c2.2-1.56 3.71-4.5 5.54-6.51a58.61 58.61 0 0 1 6.69-6.3c2-1.63 4.17-3.14 6.07-4.91 3.12-2.9 6.89-7.42 7.29-11.82.13-1.4.13-3.07 1.28-3.88s2.94-.13 4.1.82c2.7 2.23 4.28 5.5 6.48 8.22 4.53 5.6 11 8 17.47 10.69 2.63 1.08 4.85 3 7.45 4.25 3.41 1.66 6.84 3.27 10.12 5.17a68.65 68.65 0 0 1 26 26.94 24.61 24.61 0 0 1 3 9.54c.35 5.24-2.58 4.9-6.75 3.68-4.33-1.26-9 .39-13 2.45a112.21 112.21 0 0 0-11.45 7.1c-3.34 2.25-6.81 4.55-10.77 5.26a13.67 13.67 0 0 0-2.54.54 11.08 11.08 0 0 0-2.72 1.8c-7.41 5.76-17.52 7.58-24.17 14.2-4.15 4.14-6.52 9.74-10.24 14.27-1.25 1.54-2.65 2.99-3.8 4.65Z"/><path class="cls-9" d="M177.76 147.74c15.15 15.62 38.43 20.62 54.85 34.9.42.36.83.73 1.24 1.1a77.85 77.85 0 0 1 7.31 7.77c1.14 1.37 2.24 2.77 3.32 4.2l1.59 2.15a6.3 6.3 0 0 1 .88 2.67c.05.24.15.52.39.57a.62.62 0 0 0 .33 0 2.48 2.48 0 0 0 1.59-1.39 4.86 4.86 0 0 0 .24-2 86.39 86.39 0 0 0-5.1-24.09 41.44 41.44 0 0 0-5.78-11.17c-3.24-4.19-7.64-7.35-12.22-10A153.75 153.75 0 0 0 209 144c-5.37-2.27-10.87-4.52-16.68-5a15.72 15.72 0 0 0-7.84 1.05c-2.66 1.21-4.91 2.8-8 2-1-.28-2-.69-3-.89a1.21 1.21 0 0 0-.73 0 .18.18 0 0 0-.11.1.2.2 0 0 0 0 .15c.79 2.71 3.27 4.42 5.12 6.33Z"/><path class="cls-13" d="M337.19 143.49c-1.81 2.75-6.48 3.88-9.41 4.8-3.89 1.21-7.87 2.09-11.76 3.3-2.84.87-33 19.57-35.52 21.17-1.84 1.16-3.48 2.37-5.34 3.45-.23.12-.44.27-.66.41a32.58 32.58 0 0 0-4.85 3.6 65.25 65.25 0 0 0-6.56 6.94c-1 1.15-1.9 2.3-2.83 3.47-3 3.71-6.07 7.54-10.25 9.83-.56.32-1.56.86-2.15.39s-.07-1 .32-1.44a7.18 7.18 0 0 0 .85-1.12 9.42 9.42 0 0 0 .73-1.32c.09-.15.64-1.08.57-1.2-.27-.46 1.73-3.89 2-4.48.71-1.55 1.4-3.12 2.11-4.69 1.32-3 2.55-6 4.16-8.9a25.54 25.54 0 0 1 3.11-4.31 36.35 36.35 0 0 1 12.22-9c2.09-1 7.29-3.78 13.57-7.1 12.44-6.63 29.08-15.4 33.56-16.24 2.34-.44 20.39-4.14 16.13 2.44Z"/><path class="cls-5" d="m252.56 193-.43.65c-1.19 1.9-1.49 4-2.47 6a2.27 2.27 0 0 1-2.32 1.41c0-4.2.08-8.46-1-12.52a36.6 36.6 0 0 0-6.53-12.46 79.45 79.45 0 0 0-42.94-29c-5.26-1.4-10.69-1.84-16-2.73-1.81-.3-6.05-.43-7.32-1.89-2.07-2.38 1.79-2.95 3.32-3.41a20.28 20.28 0 0 0 5.54-3.21c11.76-8.3 25.18-14.41 37.89-21.16 3.1-1.65 6.21-3.3 9.45-4.65a33.46 33.46 0 0 0 6.77-3.24c2.2-1.55 3.71-4.49 5.54-6.51a58.52 58.52 0 0 1 6.68-6.28c2-1.64 4.17-3.14 6.07-4.92 3.12-2.9 6.89-7.42 7.3-11.82.13-1.4.12-3.06 1.27-3.88s2.95-.13 4.1.83c2.7 2.23 4.28 5.5 6.48 8.21 4.53 5.61 11 8 17.47 10.7 2.63 1.08 4.85 3 7.45 4.24 3.41 1.66 6.84 3.28 10.12 5.18a68.56 68.56 0 0 1 26 26.93 24.66 24.66 0 0 1 3 9.54c.35 5.25-2.58 4.9-6.75 3.69-4.33-1.27-9 .39-13 2.44a114 114 0 0 0-11.45 7.1c-3.34 2.25-6.81 4.55-10.77 5.26a13.4 13.4 0 0 0-2.53.54 11.43 11.43 0 0 0-2.73 1.8c-7.41 5.76-17.51 7.59-24.17 14.21-4.15 4.13-6.51 9.73-10.24 14.26-1.25 1.58-2.65 3.03-3.8 4.69Z"/><ellipse cx="698.16" cy="492.43" rx="87" ry="10.5" style="fill:#3f3f3f;opacity:.11"/><path d="m636.5 362.31 35.79 99.41 19.81 2c-9.16-44.25-18.77-83.54-26.22-101.42C692 338.81 726 285.4 726 285.4c-11.78-5.51-30.85-30.47-30.85-30.47-29.22 30.26-58.65 107.38-58.65 107.38Z" style="fill:#050705"/><path class="cls-16" d="M639 496h50.52a4.73 4.73 0 0 0 4.66-5.14l-2-27.1a29 29 0 0 0-5-1.7c-1.75-.43-4.09-1.52-4.62-3.28 0-.12-.2-.3-.25-.42-2.59-5.64-10.41-7.18-11.77-2.09-.17.66.93 3.27 1 3.4 1 2 .61 5.84.61 5.84-.67.87-1.32 1.72-1.94 2.56l-.94 1.24c-.66.89-1.3 1.74-1.94 2.57-.29.39-.59.76-.88 1.13-.7.9-1.39 1.75-2.08 2.54-.31.36-.62.71-.94 1.05-2.61 2.79-5.24 4.7-8.34 5.14-5.48.77-14.43 1.39-18.75 9.6a3.85 3.85 0 0 0-.22.52A3.18 3.18 0 0 0 639 496Z"/><path class="cls-17" d="M639 496h50.52a4.72 4.72 0 0 0 4.64-4.14H636a3.18 3.18 0 0 0 3 4.14Z"/><path class="cls-5" d="M669.15 469.26a8.8 8.8 0 0 0 4.19 2.92c.4.18.85.34 1.33.5l.44-1.34c-.48-.17-.91-.33-1.3-.49-2.76-1.14-3.52-2.25-3.72-2.83Z"/><ellipse class="cls-5" cx="674.89" cy="472.01" rx="1.57" ry="1.6"/><path class="cls-5" d="M666.33 473a9.91 9.91 0 0 0 3.46 2.23c.48.21 1 .41 1.6.61l.44-1.35c-.55-.19-1-.37-1.48-.56a7.92 7.92 0 0 1-3.14-2.06c-.29.35-.59.72-.88 1.13Z"/><path class="cls-5" d="M669.79 475.12a1.57 1.57 0 1 0 1.56-1.6 1.58 1.58 0 0 0-1.56 1.6Zm-6.48 1.43a9.85 9.85 0 0 0 3.35 2.12 16.19 16.19 0 0 0 1.62.63l.43-1.36c-.55-.18-1-.37-1.48-.56a8.48 8.48 0 0 1-3-1.88c-.29.36-.6.71-.92 1.05Z"/><path class="cls-5" d="M666.65 478.62a1.57 1.57 0 1 0 1.57-1.6 1.59 1.59 0 0 0-1.57 1.6Zm5.64-16.9a35.44 35.44 0 0 1 4.5.26v-2.58a11.11 11.11 0 0 0-4-.66c-.23 1.09-.39 2.1-.5 2.98Z"/><path class="cls-18" d="M757.69 250.94s15.7 23.41 11.16 44.46c0 0-27.79 15.18-60.41 2.52-13.34-5.18-22-23.21-17.22-36.95l.17-.48s39.78-11.29 66.3-9.55Z"/><path class="cls-18" d="M770.16 288.93c-4.47 19-23.18 49.88-50.8 77.37 10.91 16.62 24.7 60.33 30.33 97.41l-19.81-2L689 361.1s15.86-57.62 40.14-78.17Z"/><path class="cls-16" d="M696.56 496h50.52a4.73 4.73 0 0 0 4.66-5.14l-2-27.1a29 29 0 0 0-5-1.7 5.18 5.18 0 0 1-3.75-3.47c0-.13-.07-.27-.1-.4-1.16-5.21-14.47-5.16-12.49-.28a12.5 12.5 0 0 1 .62 2 3.8 3.8 0 0 1 .79 2.47c0 1-.1 3.09-.1 3.09-.67.87-1.32 1.72-1.94 2.56l-.94 1.24c-.66.89-1.31 1.74-1.94 2.57-.29.39-.59.76-.88 1.13-.7.9-1.39 1.75-2.08 2.54-.31.36-.63.71-1 1.05-2.6 2.79-5.23 4.7-8.33 5.14-5.48.77-14.43 1.39-18.75 9.6a3.85 3.85 0 0 0-.22.52 3.18 3.18 0 0 0 2.93 4.18Z"/><path class="cls-17" d="M696.56 496h50.52a4.72 4.72 0 0 0 4.64-4.14h-58.13a3.18 3.18 0 0 0 2.97 4.14Z"/><path class="cls-5" d="M726.74 469.26a8.8 8.8 0 0 0 4.19 2.92c.4.18.85.34 1.33.5l.44-1.34c-.48-.17-.91-.33-1.3-.49-2.76-1.14-3.52-2.25-3.72-2.83Z"/><ellipse class="cls-5" cx="732.48" cy="472.01" rx="1.57" ry="1.6"/><path class="cls-5" d="M723.92 473a9.91 9.91 0 0 0 3.46 2.23c.48.21 1 .41 1.6.61l.44-1.35c-.55-.19-1-.37-1.48-.56a7.92 7.92 0 0 1-3.14-2.06c-.29.35-.59.72-.88 1.13Z"/><path class="cls-5" d="M727.38 475.12a1.57 1.57 0 1 0 1.56-1.6 1.58 1.58 0 0 0-1.56 1.6Zm-6.49 1.43a10 10 0 0 0 3.36 2.12 16.19 16.19 0 0 0 1.62.63l.43-1.36c-.55-.18-1-.37-1.48-.56a8.48 8.48 0 0 1-3-1.88c-.29.36-.61.71-.93 1.05Z"/><path class="cls-5" d="M724.24 478.62a1.57 1.57 0 1 0 1.57-1.6 1.59 1.59 0 0 0-1.57 1.6Zm5.64-16.9a35.44 35.44 0 0 1 4.5.26v-2.58a11.11 11.11 0 0 0-4-.66c-.23 1.09-.38 2.1-.5 2.98Z"/><path class="cls-19" d="M587.85 264.16s-7.11 3-9.83 8c-.71 1.32 2.47 3.37 4.61 2.09 0 0-2.1 2-1.4 3.4 1.54 3 3.9 1.49 3.9 1.49s-.92 3.26.84 4.68c1.95 1.59 4.79-.26 4.79-.26s-3.36 2.37-.12 4.9c2.48 1.94 18.09-10 21.37-22.13 0 0-5.73-8.53-8.72-9.18a39.38 39.38 0 0 0-11.58.24s-7.55.03-3.86 6.77Z"/><path class="cls-17" d="M684.34 133.39c11.4-3.19 19.73 4.92 17.53 16.28-2.29 11.82-19.44 31.8-28.46 51.46 0 0-12.47 31.15-62.18 67.34l-8.18-11.7A149 149 0 0 0 620.46 236c7.46-11.1 28.3-31.7 28.3-31.7s26.11-68.3 35.58-70.91Z"/><path d="M699.75 122.17a4.89 4.89 0 0 1 6.44-.08c5 4.28 14.25 12.55 17.7 17.77 4.83 7.28 11.27 22.79 14.59 49.18 2.09 16.69 20.06 64.21 20.06 64.21s-15.77 9.58-28.47 13.57c-16.78 5.26-38.44-2.15-38.44-2.15s-17.38-45.14-18.4-70.59c-1.12-28.13 10.3-57.36 10.3-57.36Z" style="fill:#ef0094"/><path class="cls-17" d="M756.38 247.44c.73 2.08 2.16 5.81 2.16 5.81s-13.54 10.28-29.85 14.41-36.79-1.93-36.79-1.93l-2.2-6.47s23.3 5.11 37 1.75 29.68-13.57 29.68-13.57Z"/><path class="cls-21" d="M710.76 62.76c9.92 2.12 11.29 22.77 11.29 22.77s-4-6.94-8.73-7.22c-2.94-.17-9.43 4.58-11.18-3.72s5.04-12.59 8.62-11.83Z"/><path class="cls-21" d="M712.55 64.3c8.6 5.4 2.8 25.26 2.8 25.26s-1.35-7.88-5.73-9.77c-2.7-1.18-10.42 1.06-9.22-7.33s9.06-10.11 12.15-8.16Z"/><path class="cls-21" d="M717.28 73.63c-.7 5-2 11.27-7.07 11.27a9.21 9.21 0 0 1-9.21-9.21c0-5.09-1.08-11.1 3.78-12.62 9.22-2.88 13.1 6.25 12.5 10.56Zm-81.39-3.11s-5.43 6-.14 17 10.13 11.2 10.13 11.2.29-27.57-9.99-28.2Z"/><path class="cls-19" d="m679.72 117.52 4.57 14.56 2.1 6.68c10.1 4.14 21.74-8 21.74-8l-4.06-22.28c-4.61-1.65-14.2 3.13-19.87 6.36-2.67 1.5-4.48 2.68-4.48 2.68Z"/><path class="cls-22" d="m679.72 117.52 4.57 14.56c9.41-4.84 14.27-20.81 14.27-20.81l-14.36 3.54c-2.67 1.53-4.48 2.71-4.48 2.71Z"/><path d="M638.71 76.14s-11.16.33-9.8-13.94 15.3-16.8 32.61-20.49c27.88-5.94 40.17 6.23 43.25 21.36s8.33 35.15 3.45 44.34-12.2-.2-18.07-8.67-34.77-31.62-51.44-22.6Z" style="fill:#0a0a11"/><path class="cls-19" d="M640.49 89.23c.09.3.17.6.25.91l.18.61c.18.65.38 1.31.58 2a254.05 254.05 0 0 0 10.41 26.91 18.09 18.09 0 0 0 24.36 9c11.07-5.31 24.55-12.53 30-18.51 1.66-1.81 2.58-3.51 2.47-5a100.11 100.11 0 0 0-2.2-13.15c-3.35-15.18-9.21-33.69-9.21-33.69-18.43-13.86-55.79 2.83-58.52 17.08-.6 3.19.19 8.15 1.68 13.84Z"/><path d="M661.9 112.77a4.32 4.32 0 0 0 1.18 2.07 4.42 4.42 0 0 0 4.24 1.16 4.32 4.32 0 0 0 3.36-4c0-5.2-2.61-3.16-4.92-2.34-4.39 1.54-4.47.72-3.86 3.11Z" style="fill:#920e08"/><path d="M663.08 114.84a4.42 4.42 0 0 0 4.24 1.16 4.48 4.48 0 0 0 3.36-4 8.12 8.12 0 0 0-4.61.78 8.53 8.53 0 0 0-2.99 2.06Z" style="fill:#f85c66"/><path d="M665.79 91.77c.5 2 1.77 3.32 2.85 3s1.54-2.08 1.05-4-1.77-3.32-2.85-3-1.54 2.04-1.05 4Zm-19.94 5.05c.5 2 1.77 3.32 2.85 3.05s1.55-2.08 1-4-1.77-3.32-2.85-3-1.49 1.99-1 3.95Z" style="fill:#32324c"/><path class="cls-21" d="M703.13 78.11s-7.27-2.48-10.69 6.11l-4.09 1s-1.9-8.46-5-12.51-10.94-2-13.47-7c0 0-16.62 12-31.13 10.43s19.63-33.76 41.52-27.86 22.21 14.78 22.86 29.83Z"/><path class="cls-21" d="M674.44 86s-1.54-4.14-5.14-5.49a9.45 9.45 0 0 0-7.15 0 1.24 1.24 0 0 0-.7 1.45 1.24 1.24 0 0 0 1.61.85c2.17-.81 6.84-1.65 11.38 3.19Zm-33.7 4.14.18.61c.18.65.38 1.31.58 2a9.85 9.85 0 0 1 6.09-5.75 1.36 1.36 0 0 0 .46-.28 1.24 1.24 0 0 0-1.15-2.1 9.51 9.51 0 0 0-5.62 4.42 8.26 8.26 0 0 0-.54 1.1Zm65.55 19.95c1.66-1.81 2.58-3.51 2.47-5-.26-3.49 0-10.24-1.08-15.25L698 101.63s1.76 7.37 8.29 8.46Z"/><path class="cls-19" d="M692.44 84.22s4.34-9.17 10.69-6.11c7 3.38 6.74 20.93-5.09 23.53Z"/><path class="cls-22" d="M696.85 98.15a1.07 1.07 0 0 0 .79-1.18c-1.15-8.55 3.46-11.07 3.65-11.18a1.06 1.06 0 0 0 .46-1.43 1.05 1.05 0 0 0-1.42-.46c-.26.12-6.16 3.23-4.8 13.36a1.06 1.06 0 0 0 1.2.91Z"/><path class="cls-22" d="M702.1 91.21a1 1 0 0 0 .63-.44 1.06 1.06 0 0 0-.29-1.47 6.06 6.06 0 0 0-5.92-.2 1.08 1.08 0 0 0-.47 1.43 1.06 1.06 0 0 0 1.43.48 3.85 3.85 0 0 1 3.77.06 1.08 1.08 0 0 0 .85.14Zm-33.68 29.11a10.5 10.5 0 0 0 7.14-5.64 1.07 1.07 0 0 0-.59-1.39 1.06 1.06 0 0 0-1.38.58c-.08.19-1.87 4.22-7.58 4.7a1.06 1.06 0 0 0 .18 2.12 13.13 13.13 0 0 0 2.23-.37Zm-9.13-14.78a1.08 1.08 0 0 0 .72-.62 1.06 1.06 0 0 0-.56-1.39l-3.29-1.41 2.23-1.22a1.06 1.06 0 0 0 .55-1l-.61-6.9a1.07 1.07 0 0 0-2.13.19l.55 6.15-3.53 1.94a1.05 1.05 0 0 0-.55 1 1.07 1.07 0 0 0 .64.93l5.3 2.27a1.14 1.14 0 0 0 .68.06Z"/><path class="cls-19" d="M592.61 269.82s-7.29 2.51-10.34 7.37c-.8 1.27 2.25 3.53 4.47 2.39 0 0-2.23 1.88-1.63 3.3 1.34 3.13 3.8 1.74 3.8 1.74s-1.13 3.19.53 4.73c1.85 1.72 4.8.06 4.8.06s-3.51 2.13-.44 4.87c2.34 2.1 18.71-8.79 22.78-20.68 0 0-5.16-8.89-8.1-9.73a39.49 39.49 0 0 0-11.58-.51s-7.53-.5-4.29 6.46Z"/><path class="cls-17" d="M697.47 145.66c11.59-2.43 19.37 6.22 16.43 17.41-3.06 11.64-21.48 30.45-31.77 49.47 0 0-14.49 30.27-66.47 63.12l-7.4-12.21A149.71 149.71 0 0 0 627 243.88c8.17-10.6 30.31-29.78 30.31-29.78s30.55-66.42 40.16-68.44Z"/></g></g></g></svg>