<svg xmlns="http://www.w3.org/2000/svg" viewBox="0 0 358.3 741.63"><defs><style>.cls-9{fill:#001627}.cls-2{fill:#ffcfca}.cls-3{fill:#156c75}.cls-4{fill:#561513}.cls-6{fill:#f4b9b8}.cls-14,.cls-7{fill:none;stroke:#001627;stroke-miterlimit:10}.cls-7{stroke-width:1.8px}.cls-9{opacity:.3}.cls-10{fill:#4dc2ce}.cls-11{fill:#12f4ff}.cls-12{fill:#70d0e0}.cls-14{stroke-width:1.72px}.cls-18{fill:#1f3c49}</style></defs><g id="Capa_2" data-name="Capa 2"><g id="Información"><path d="M358.3 712.5c0 16.09-98.6 29.13-191 29.13S0 728.59 0 712.5s74.9-29.13 167.3-29.13 191 13.04 191 29.13Z" style="opacity:.15;fill:#001627"/><path class="cls-2" d="m251.53 682.5-5.53-4.06-4.07-35.44s-31.34 5-31.34 5.45 3.18 33.17 3.18 33.17l-2.28 9.08 23.17 1.82 13.18-3.18Zm-158.6 8.86-1.41-34.34 35.99-.43-6.66 33.26-11.79 11.12-16.13-9.61z"/><path class="cls-3" d="M134 714.09c-.93-2.92-10.58-20-12.9-24.29a35.53 35.53 0 0 1-14.46 3.14c-4.71 0-10-.45-13.74-3.29-2.4 3.38-5.33 8-7.55 11.75-2 3.41-4.84 7-6.27 10.76s-.8 8.27 2.27 10.81c10.15 8.38 38.59 10.45 50.82 1.14 3.65-2.78 2.45-8.05 1.83-10.02Z"/><path class="cls-4" d="M212.6 159.45c-15.44-2-113.36 11-119.72 5.66 8.42-8.92 3.71-84.18 9.85-111.87 3.5-15.76 10.65-31.78 23.24-42.35s31.77-14.84 46.68-6.41c9.21 5.21 16 14.1 19.91 23.92a67.57 67.57 0 0 1 3.92 14.53c.21 1.32.39 2.65.53 4a102 102 0 0 1 .58 12.6A141.6 141.6 0 0 1 196 79c-2.39 15.47 22.49 62.22 16.6 80.45Z"/><path class="cls-2" d="M170.41 125.66c-2.38 1.33-5.19 1.53-7.91 1.71a68.39 68.39 0 0 1-9.81.16c-6.37-.52-12.07-3-18-5.29.25-3.68.49-7.35.75-11 .31-4.6.62-9.2.48-13.81 0-1.41-.13-2.82-.26-4.22-.28-3.5-.77-7-1.25-10.47-.4-2.86-.8-5.73-1.19-8.59a21.85 21.85 0 0 0 5.07 3.73c8.27 5 16.73 9.71 25.25 14.29a41.42 41.42 0 0 0 8 3.57l-.57 16.12Z"/><path d="M170.9 111.84A99.15 99.15 0 0 1 143.64 99c-2.66-1.8-5.4-3.73-8-5.79-.28-3.5-.77-7-1.25-10.47-.4-2.86-.8-5.73-1.19-8.59a21.85 21.85 0 0 0 5.07 3.73c8.27 5 16.73 9.71 25.25 14.29a41.42 41.42 0 0 0 8 3.57Z" style="fill:#f9bfbb"/><path class="cls-2" d="M190 88.7c-2.37 5.17-5.55 9.83-10.57 12.71a25.74 25.74 0 0 1-14.83 3.24 32.68 32.68 0 0 1-15.71-5.9 42.47 42.47 0 0 1-6.46-5.51 58.06 58.06 0 0 1-8.64-11.94 71.87 71.87 0 0 1-8.31-23c-1.54-9.15-.89-18.55 3.16-27.11a35 35 0 0 1 6.57-9.46 32.76 32.76 0 0 1 43.07-3.05 41.63 41.63 0 0 1 14 20.86 78.87 78.87 0 0 1 1.93 7.85C196.85 61.17 195.82 76 190 88.7Zm57.63 264.15c-.31-.51-.62-1-.94-1.6a3.47 3.47 0 0 0-.21-.37c-.56-1-1.11-2.09-1.64-3.21-3-6.29-5.25-14-4.41-20.52 0 0 12-3.68 15.33-3.09a65.42 65.42 0 0 1 11 5.8s6.47 3.7 7.28 6.67a5.69 5.69 0 0 1-1.32 5.16l.72.87c1 1.26 2.91 3.5 3.51 4.26 3.26 4.09.82 8.48-5.66 3.15.39.59 3.24 4.63.38 7.17-2 1.79-6.68-3.09-6.68-3.09s1.11 6.3-1.27 7c-2.61.78-6.17-4.65-6.31-4.86 0 .22-.11 3.88-3.42 3.68-1.27-.07-3.81-2.87-6.36-7.02Z"/><path class="cls-6" d="M259.37 340.42s-6.51 1.14-10.93-7.5c0 0 .08 9.21 11.31 9.19Z"/><path class="cls-7" d="M258.88 381s-9.95-100.21 35.85-5.64"/><path class="cls-7" d="M245.85 382s12.82-105.65 35.86-5.65"/><path style="fill:#4d6caa" d="m211.86 381.95 106.63-14.42 13.08 78.55-98.29 18.11-13.19-4.77-8.23-77.47z"/><path class="cls-9" d="m211.86 381.95 8.23 77.47 13.19 4.77-4.06-84.96-17.36 2.72z"/><path class="cls-2" d="M272.38 357.12c-1.64 1.44-5.74-.54-9.15-4.43s-4.9-7.1-3.2-9.64c1.22-1.82 5.74.54 9.15 4.42s4.82 8.21 3.2 9.65Z"/><ellipse class="cls-2" cx="259.35" cy="351.86" rx="3.96" ry="7.47" transform="rotate(-34.31 259.318 351.84)"/><ellipse class="cls-2" cx="253.49" cy="354.57" rx="3.96" ry="7.47" transform="rotate(-34.31 253.46 354.555)"/><path class="cls-6" d="M247.85 352.81c-.31-.52-.62-1.05-.94-1.61a4.86 4.86 0 0 1 1.9-3.6c2.77-1.93 4.87 1 4.87 1s-1-2.8 1.07-3.73a3.74 3.74 0 0 1 3.79.51s-.36-2.64 1.42-3.47 6 2.54 6 2.54-3.12-1.68-4.9-1.45-2.38 2.77-.25 5.43c-.23-.3-2.44-3-4.88-2.4s-.81 5.66-.72 5.93c-.17-.24-3.26-4.83-5.45-3.71-1.48.75-1.91 2.87-1.91 4.56Z"/><path class="cls-2" d="M272.16 335.28c1 2.72-.07 5.31-4 6.81s-6.95 1.25-9-2.2c-1.44-2.46 1.27-6.14 5.18-7.65s6.77.32 7.82 3.04Z"/><path class="cls-6" d="M269 341.76s-5 1.95-8.13-.37-2.62-7.09 5.35-9.56a8.38 8.38 0 0 0-6.23 2.72c-2.91 3-1.39 7 .63 7.89s4.09 1.05 8.38-.68Z"/><path class="cls-10" d="M257.58 319.45a37.21 37.21 0 0 0-7.88-10.68 11 11 0 0 0-3-2.38c-3.14-1.46-6.93 1.31-9.5 2.93a43.39 43.39 0 0 0-8.54 7 5.71 5.71 0 0 0-1.79 3.12c-.16 1.52.82 2.89 1.75 4.1q3.21 4.2 6.43 8.38a7.08 7.08 0 0 0 2.46 2.32 6.56 6.56 0 0 0 3.63.27 36.88 36.88 0 0 0 14.9-5.43 7 7 0 0 0 2.48-2.31c.85-1.54.53-3.46 0-5.13a22.37 22.37 0 0 0-.94-2.19Z"/><path class="cls-11" d="M239.52 333.5a.48.48 0 0 1-.23-.07 11.22 11.22 0 0 1-2.06-2l-.2-.24a45 45 0 0 0-4.23-4.28.41.41 0 0 1 0-.58.42.42 0 0 1 .58 0 44.35 44.35 0 0 1 4.31 4.36l.2.23a10.18 10.18 0 0 0 1.9 1.87.41.41 0 0 1-.23.75Zm3.15-.82a.39.39 0 0 1-.27-.11 20.64 20.64 0 0 1-1.66-1.86 36.47 36.47 0 0 1-3.44-4.71 1.16 1.16 0 0 1-.11-1.22.37.37 0 0 1 .5-.1.45.45 0 0 1 .18.55s0 .08.14.36a35.91 35.91 0 0 0 3.36 4.58A22.57 22.57 0 0 0 243 332a.41.41 0 0 1 0 .58.47.47 0 0 1-.33.1Zm3.62-1.04a.42.42 0 0 1-.34-.19 23.43 23.43 0 0 0-3.67-4.46l-.77-.7a16 16 0 0 1-2.39-2.53.41.41 0 1 1 .68-.46 14.44 14.44 0 0 0 2.26 2.38l.78.72a24 24 0 0 1 3.8 4.61.41.41 0 0 1-.12.57.46.46 0 0 1-.23.06Zm3.71-.79a.39.39 0 0 1-.31-.15 84.42 84.42 0 0 0-7.82-8.55.41.41 0 1 1 .56-.59 84.79 84.79 0 0 1 7.9 8.62.42.42 0 0 1-.33.67Zm3.06-2.01a.39.39 0 0 1-.32-.16 40.08 40.08 0 0 0-7.91-7.7.41.41 0 1 1 .48-.66 40.67 40.67 0 0 1 8.08 7.86.41.41 0 0 1-.08.58.38.38 0 0 1-.25.08Zm3.38-1.84a.43.43 0 0 1-.25-.09 20.3 20.3 0 0 1-2.92-3.09c-.27-.34-.55-.67-.83-1a30.8 30.8 0 0 0-5-4.67.41.41 0 1 1 .48-.66 30.86 30.86 0 0 1 5.15 4.8l.85 1a19.17 19.17 0 0 0 2.79 3 .41.41 0 0 1-.26.73Zm.49-5.71a.39.39 0 0 1-.28-.12l-6.33-6.31a.4.4 0 0 1 0-.57.41.41 0 0 1 .58 0l6.33 6.31a.41.41 0 0 1 0 .58.44.44 0 0 1-.3.11Z"/><path class="cls-4" d="M196.48 42.93c-3.41-7.25-6.8-14.77-11.83-20.86a33.46 33.46 0 0 0-17.45-11.35c-13.09-3.27-29.36-.63-39.46 8.79-5.09 4.76-8.08 11.25-9.41 18s-.86 12.86-.19 19.71c13 .76 25.47-5.64 33.68-14.85 6.12-6.86 10.14-15.12 12.91-23.78a75.2 75.2 0 0 0 11.39 16C181.8 40.43 189 45.14 197 46.92a65.9 65.9 0 0 0-.52-3.99Z"/><path class="cls-12" d="M235 273.93c-4.18-6-13.34-17.58-13.34-17.58s5.68-75.78-9.92-108.15c-9.89-10.2-19.54-19.47-33.74-22.11-10.38 17.41-13.55 33.12-15.26 53.32-2.27 26.79-2.92 55.06 9.17 79.07a147.26 147.26 0 0 0 11.93 18.87 326.25 326.25 0 0 0 38.49 45.22 12.29 12.29 0 0 0 14.33 2l13.74-7.32a9.18 9.18 0 0 0 3.74-12.48A315 315 0 0 0 235 273.93Z"/><path class="cls-11" d="M210.26 277.73c-.27-.44-.54-.88-.8-1.33a.46.46 0 0 0-.79.46c.27.46.54.91.82 1.35.37.59.74 1.18 1.12 1.75a.48.48 0 0 0 .38.21.44.44 0 0 0 .25-.08.45.45 0 0 0 .13-.63c-.37-.57-.75-1.14-1.11-1.73Zm-6.91-14.41a.46.46 0 0 0-.86.32c.43 1.16.88 2.3 1.33 3.4a.44.44 0 0 0 .42.28.47.47 0 0 0 .17 0 .45.45 0 0 0 .25-.6c-.45-1.11-.89-2.25-1.31-3.4Zm-2.29-6.87a.45.45 0 0 0-.56-.3.45.45 0 0 0-.31.56c.36 1.19.73 2.37 1.1 3.48a.45.45 0 0 0 .43.31.32.32 0 0 0 .14 0 .45.45 0 0 0 .29-.57c-.37-1.13-.73-2.29-1.09-3.48Zm-1.36-4.87a3.85 3.85 0 0 1-.78.6l.27 1a.46.46 0 0 0 .44.33h.12a.47.47 0 0 0 .32-.56c-.13-.43-.25-.9-.37-1.37Zm6.41 18.42a.46.46 0 0 0-.6-.23.47.47 0 0 0-.23.61c.52 1.12 1.07 2.22 1.62 3.28a.46.46 0 0 0 .4.24.54.54 0 0 0 .21-.05.45.45 0 0 0 .19-.61 75.16 75.16 0 0 1-1.59-3.24Zm29.65 41.06a.46.46 0 0 0-.64-.06.45.45 0 0 0-.06.64l2.34 2.79a.45.45 0 0 0 .64.05.46.46 0 0 0 .05-.64c-.78-.92-1.56-1.84-2.33-2.78Zm-4.62-5.61a.46.46 0 0 0-.64-.06.47.47 0 0 0-.07.64l2.31 2.81a.46.46 0 0 0 .35.17.48.48 0 0 0 .29-.11.45.45 0 0 0 .06-.63Zm-17.71-23.01a.46.46 0 1 0-.74.53c.7 1 1.42 2 2.14 2.94a.46.46 0 0 0 .74-.54c-.72-.97-1.44-1.95-2.14-2.93Zm27.51 34.74-.49-.57a.45.45 0 0 0-.64-.05.44.44 0 0 0-.05.64l.49.57a.43.43 0 0 0 .34.16.48.48 0 0 0 .3-.11.46.46 0 0 0 .05-.64Zm-14.34-17.39a.46.46 0 1 0-.72.56l2.27 2.85a.46.46 0 0 0 .35.17.53.53 0 0 0 .29-.1.46.46 0 0 0 .07-.64Zm-8.87-11.51a.45.45 0 0 0-.63-.09.46.46 0 0 0-.09.64c.72 1 1.45 1.93 2.19 2.9a.45.45 0 0 0 .63.09.46.46 0 0 0 .09-.64Zm4.4 5.78a.46.46 0 0 0-.64-.08.45.45 0 0 0-.08.64c.74 1 1.48 1.92 2.23 2.87a.44.44 0 0 0 .35.18.42.42 0 0 0 .28-.1.45.45 0 0 0 .08-.64Z"/><path class="cls-2" d="m199.07 222.18-12.26 48.76a54.38 54.38 0 0 1-7.08 16.77c-10.5 3.23-21.18 6.49-32.17 6.55a113.24 113.24 0 0 1-17.21-1.7c-9.17-1.38-18.43-3.49-26.34-8.32-.45-3.49-.6-7.58-.89-11.09l-3.3-39.87a14.9 14.9 0 0 0 7.55.95l13.38-1.49 48.76-5.46 18.49-2.07a29.75 29.75 0 0 0 11.07-3.03Z"/><path class="cls-12" d="M248.29 661.63a120.13 120.13 0 0 1-25 6.54c-13.57 1.94-14.55.27-14.55.27l-24.69-163.17-16.17-42.12q-1.09-2.85-2.23-5.81c-9.31-24.29-20.51-53.57-29.51-77.22-.1-.29-.21-.56-.32-.84-9.21-24.24-16-42.38-16-42.82.15-1.08 3.4-30.17 4.75-42.21.22-2-.91-9.55.57-10.13 9.54 2.27 22 1.49 31.35.45 16.35-1.82 26.8-3.63 26.8-3.63s22.66 50.24 31.8 80.4c9.08 30 23.62 146.74 23.62 146.74Z"/><path d="M167.88 463.15q-1.09-2.85-2.23-5.81c-9.31-24.29-20.51-53.57-29.51-77.22-.1-.29-.21-.56-.32-.84 3.17-19.76 6.73-39.49 5.67-59.39 15 25.66 20.27 55.86 22.69 85.5.88 10.87 1.42 21.77 2 32.66.49 8.37.98 16.74 1.7 25.1Z" style="fill:#f95850"/><path class="cls-12" d="M152 285c-11.81.46-16.3.09-27.71-2.72-6.8-1.68-15.9-5.45-21.35-10-8.63 15.45-21.23 38.53-24.08 66.78-5.92 58.63 18.5 171.54 18.5 171.54s-7.77 107-12.16 165.11c9.7 3.88 9.69 4.09 20.4 4.09 11.64 0 12.43.18 23.21-3.63l27.77-167C155.77 436.72 155 357.38 152 285Z"/><path class="cls-10" d="M193.7 239.64c-13.37 1.14-26.8-.14-40.17-1.3q-12.84-1.12-25.64-2.75c-4.34-.55-8.67-1.13-13-1.77-3.31-.49-7.44-1.41-10.68-.15-6.9 2.68-6 15.37-5.83 21.23.17 5.19 3.42 7.47 7.88 9 22.91 8.14 47.91 8.48 71.92 4.7 3.63-.56 8.69-.5 11-3.85 3.66-5.31 6.06-12.4 8.48-18.38 1.34-3.28.2-7.09-3.96-6.73Z"/><path class="cls-11" d="M100.81 259.49a.41.41 0 0 1-.36-.46l.58-4.64a.41.41 0 1 1 .81.1l-.58 4.64a.4.4 0 0 1-.45.36Zm2.66 2.42a.41.41 0 0 1-.32-.49c.39-1.85.76-3.75 1.09-5.62a.41.41 0 0 1 .47-.34.42.42 0 0 1 .33.48c-.33 1.88-.69 3.79-1.09 5.65a.41.41 0 0 1-.48.32Zm3.21 1.42h-.06a.41.41 0 0 1-.31-.49 47 47 0 0 0 1-6.14.42.42 0 0 1 .45-.37.41.41 0 0 1 .37.45 50.66 50.66 0 0 1-1 6.24.4.4 0 0 1-.45.31Zm2.78 1.13h-.1a.42.42 0 0 1-.26-.52 49.25 49.25 0 0 0 1.63-6.32.41.41 0 0 1 .48-.33.41.41 0 0 1 .32.48 48.75 48.75 0 0 1-1.65 6.42.4.4 0 0 1-.42.27Zm3.54.92a.41.41 0 0 1-.31-.49L114 259a.41.41 0 0 1 .8.18l-1.32 5.86a.41.41 0 0 1-.48.34Zm3.42.77a.4.4 0 0 1-.33-.47l1.14-6.12a.41.41 0 1 1 .8.15l-1.14 6.12a.4.4 0 0 1-.47.32Zm3.25.02a.4.4 0 0 1-.32-.48 48.2 48.2 0 0 1 1.3-5 .41.41 0 1 1 .78.24 49.94 49.94 0 0 0-1.28 4.95.4.4 0 0 1-.48.29Zm3.18 1.61a.4.4 0 0 1-.32-.48l1.33-6.35a.41.41 0 0 1 .49-.31.4.4 0 0 1 .31.48l-1.33 6.34a.4.4 0 0 1-.48.32Zm2.92.55h-.06a.4.4 0 0 1-.3-.49c.44-1.95.86-3.92 1.25-5.86a.41.41 0 0 1 .49-.32.41.41 0 0 1 .32.48c-.4 1.95-.82 3.93-1.27 5.88a.4.4 0 0 1-.43.31Zm3.23.02a.41.41 0 0 1-.38-.42 14.85 14.85 0 0 1 .82-4v-.14a6.32 6.32 0 0 0 .39-1.7.41.41 0 0 1 .43-.39.42.42 0 0 1 .39.42 7.31 7.31 0 0 1-.43 1.93v.13a14 14 0 0 0-.78 3.8.41.41 0 0 1-.42.4Zm2.82.65a.4.4 0 0 1-.34-.47c.31-2 .71-4.08 1.21-6.08a.41.41 0 0 1 .8.2c-.49 2-.9 4-1.2 6a.41.41 0 0 1-.47.35Zm3.64.07h-.06a.41.41 0 0 1-.3-.49c.33-1.37.68-2.78.93-4.18a3.89 3.89 0 0 0 .08-1.58.41.41 0 1 1 .8-.18 4.9 4.9 0 0 1-.07 1.91 45.24 45.24 0 0 1-1 4.21.42.42 0 0 1-.38.31Zm3.54.66a.41.41 0 0 1-.33-.47l.85-5.14a6.14 6.14 0 0 0 .12-1 .41.41 0 0 1 .41-.41.41.41 0 0 1 .41.41 6.46 6.46 0 0 1-.13 1.18l-.85 5.14a.42.42 0 0 1-.48.29Zm3.14-.34a.41.41 0 0 1-.36-.46 59.33 59.33 0 0 1 1-5.92.4.4 0 0 1 .48-.32.42.42 0 0 1 .32.49c-.41 1.92-.73 3.89-.95 5.84a.4.4 0 0 1-.49.37Zm3.08.61h-.07a.41.41 0 0 1-.29-.5 33.2 33.2 0 0 0 1-6.18.41.41 0 0 1 .43-.38.42.42 0 0 1 .39.44 34.59 34.59 0 0 1-1 6.32.42.42 0 0 1-.46.3Zm3.05.14a.41.41 0 0 1-.36-.45l.57-5.8a.39.39 0 0 1 .44-.36.4.4 0 0 1 .37.44l-.57 5.8a.4.4 0 0 1-.45.37Zm3.13-.53a.41.41 0 0 1-.37-.43l.35-5.94a.41.41 0 0 1 .43-.39.44.44 0 0 1 .39.44l-.35 5.94a.42.42 0 0 1-.44.38Zm2.79.78a.41.41 0 0 1-.35-.46l.87-6.63a.41.41 0 1 1 .81.11l-.87 6.63a.42.42 0 0 1-.46.35Zm3.34-1.55a.41.41 0 0 1-.35-.46l.65-5.3a.44.44 0 0 1 .46-.36.41.41 0 0 1 .35.46l-.65 5.3a.41.41 0 0 1-.46.36Zm3.17.16a.41.41 0 0 1-.35-.46l.88-6a.42.42 0 0 1 .47-.35.41.41 0 0 1 .34.47l-.87 6a.41.41 0 0 1-.47.34Zm3.24-.15a.41.41 0 0 1-.36-.28 1 1 0 0 1 0-.55l1.22-5.19a.4.4 0 0 1 .49-.3.4.4 0 0 1 .3.49l-1.21 5.19v.11a.39.39 0 0 1-.25.51.3.3 0 0 1-.19.02Zm3.72-.56a.41.41 0 0 1-.37-.45 41 41 0 0 1 .89-5.83.42.42 0 0 1 .49-.31.41.41 0 0 1 .31.49 39.51 39.51 0 0 0-.87 5.72.43.43 0 0 1-.45.38Zm3.43-.39a.41.41 0 0 1-.34-.47l.95-6a.4.4 0 0 1 .47-.34.41.41 0 0 1 .34.47l-.95 6a.41.41 0 0 1-.47.34Zm3.25-.03a.4.4 0 0 1-.35-.46l.88-6.32a.39.39 0 0 1 .46-.35.41.41 0 0 1 .35.46l-.88 6.33a.42.42 0 0 1-.46.34Zm3.24-.69a.49.49 0 0 1-.17-.06.46.46 0 0 1-.21-.52l.85-3.9a8.59 8.59 0 0 0 .27-2 .41.41 0 1 1 .81 0 8.76 8.76 0 0 1-.28 2.19l-.85 3.71a.51.51 0 0 1-.12.47.47.47 0 0 1-.3.11Zm.42-.41Zm3.05.32a.39.39 0 0 1-.36-.45 59 59 0 0 1 1.09-6.71.41.41 0 0 1 .49-.32.41.41 0 0 1 .31.49 57.23 57.23 0 0 0-1.08 6.63.42.42 0 0 1-.45.36Zm2.72-.77h-.07a.41.41 0 0 1-.29-.48c.48-2.22 1-4.46 1.66-6.65a.41.41 0 0 1 .5-.29.42.42 0 0 1 .29.51c-.58 2.05-1.1 4.13-1.57 6.21a.41.41 0 0 1 0 .19l-.09.25a.41.41 0 0 1-.43.26Zm3.81-2.22a.28.28 0 0 1-.13 0 .4.4 0 0 1-.22-.53c.67-1.63 1.27-3.31 1.79-5a.41.41 0 0 1 .78.24c-.52 1.71-1.13 3.42-1.81 5.07a.4.4 0 0 1-.41.22Z"/><path class="cls-14" d="M118.82 392.53s.69-160.37 56.33-5.08"/><path class="cls-14" d="M98.52 392.76s36.74-166.54 56.33-5.08"/><path style="fill:#ffac55" d="m45.99 388.94 163.44-14.3 11.32 129.22-134 21.05-40.44-11.94-.32-124.03z"/><path class="cls-9" d="m45.99 388.94.32 124.03 40.44 11.94-13.48-138.42-27.28 2.45z"/><path class="cls-14" d="M130 372.46s-9.78-121.68 42.4-7.47"/><path class="cls-14" d="M114.61 374s17.17-128.69 42.4-7.48"/><path style="fill:#ff7900" d="m74.52 374.42 123.05-21.34 16.89 97.28-100.3 24.57-31.44-6.45-8.2-94.06z"/><path class="cls-9" d="m74.52 374.42 8.2 94.06 31.44 6.45-19.11-104.12-20.53 3.61z"/><path class="cls-2" d="M145.27 325c-2.35-1-4.77-1.87-7.08-3a23.94 23.94 0 0 1-3.37-1.94c-1-.68-2.25-1.61-.5-1.89a17.56 17.56 0 0 1 3.55 0 18.48 18.48 0 0 0 5.55-.33 3.42 3.42 0 0 0 2.32-1.89 3.24 3.24 0 0 0-1.3-3.5l-.12-.08a9.08 9.08 0 0 0-3.93-1.24c-4.4-.65-9-.73-13.3-1.69-2.5-.55-4.73-1.54-7.31-1.85a33.35 33.35 0 0 0-6.32-.1l-2.93-3a2.55 2.55 0 0 1 .14-.25l-2.67-2.88q-5.05 8.56-10.15 17.12c2.3 1.67 3.74 2.67 3.77 2.62v-.09c1.8 7.77 7.58 15.68 14.1 19.43a9.84 9.84 0 0 1 1.9 1.27c.43.41.63 1 1.07 1.41a19.85 19.85 0 0 0 5.07 3.43c3.21 1.58 7-.44 4.22-2.36a15.26 15.26 0 0 1-2.68-2.06c-.63-.61-1.38-1.13-1-1.43.68-.57 3.8 2.11 4.55 2.92 1.43 1.53 3.36 4.71 6.16 1.91 2.57-2.57-.83-4.83-1.86-6.11-.43-.53-3-2.46-2.17-3.28s3.76 1.84 4.47 2.29c2 1.27 3.08 1.23 5-.73 1-1 .29-3.88-1.52-5.29-.93-.73-1.85-1.48-2.74-2.26-.37-.32-1.46-.95-1.06-1.55s1.66 0 2.12.11c1.24.43 2.37 1.3 3.59 1.69 2.09.67 4.11.67 5.28-1.34s-.85-4.06-.85-4.06Z"/><path class="cls-14" d="M97.83 356.17S164.09 253.64 136 376"/><path class="cls-14" d="M84.73 348s91.9-91.7 38.2 19.86"/><path style="fill:#6f57ff" d="m52.62 323.99 110.65 57.9-45.77 87.49-94.56-41.5-21.02-24.25 50.7-79.64z"/><path class="cls-9" d="m52.62 323.99-50.7 79.64 21.02 24.25 48.17-94.27-18.49-9.62z"/><path class="cls-10" d="M112.34 302.37a19 19 0 0 0-5.34-4.07 36.53 36.53 0 0 0-4.55-2.29c-.44-.19-4.67-2-4.84-1.68L85.55 313.8c-.28.5 10.45 7.21 11.35 7.77a7.81 7.81 0 0 0 4.36 1.44c2.64-.1 4.71-2.18 6.24-4.13 2.89-3.71 7.5-8.49 6.22-13.72a7.24 7.24 0 0 0-1.38-2.79Z"/><path class="cls-11" d="M101.37 320.68q-3.81-2.81-7.84-5.29c-.5-.31-.92.5-.43.8q3.93 2.43 7.66 5.15c.46.34 1.09-.34.61-.66Z"/><ellipse class="cls-11" cx="99.49" cy="316.23" rx=".45" ry="541.51" transform="rotate(-54.39 99.51 316.248)"/><ellipse class="cls-11" cx="106.28" cy="303.7" rx=".45" ry="541.51" transform="rotate(-54.39 106.308 303.713)"/><path class="cls-11" d="M106.7 315.59q-4.92-3-10-5.58c-.52-.26-1 .54-.43.8q5.13 2.61 10 5.58c.5.31.93-.49.43-.8Zm1.45-3.06-4.7-3.11a28.92 28.92 0 0 1-4.14-3.17c-.43-.4-1 .34-.54.73a29.83 29.83 0 0 0 4.15 3.18l4.69 3.1c.49.32 1.02-.41.54-.73Zm4.22-8.35-4.69-3.1a31.18 31.18 0 0 1-4.15-3.17c-.42-.41-1 .33-.53.73a29.67 29.67 0 0 0 4.14 3.17l4.7 3.11c.48.32 1.02-.41.53-.74Zm-2.08 5.54q-4.74-3.09-9.71-5.83c-.51-.29-.94.51-.43.8q5 2.74 9.71 5.83c.5.32.92-.52.43-.8Z"/><path class="cls-12" d="M193.66 135.33c-.76-2-6.9-6.4-6.9-6.4s-36.77-7.41-54.22-5.19a136.33 136.33 0 0 0-25.69 5.83c-9.16 3.05-17.16 6.67-24.72 12.77a167.58 167.58 0 0 0-21 20.95c-3.12 3.62-6.16 7.3-9.19 11-8.69 10.62-17.8 21.28-25.06 33-10.49 16.89-18.09 38.46-7.95 57.33 6.06 11.28 16 20 25.83 28A182.91 182.91 0 0 0 82.93 317a8.32 8.32 0 0 0 10.65-3.2 121.23 121.23 0 0 0 7.59-15.11 10.92 10.92 0 0 0-.59-9.72 235.18 235.18 0 0 0-35.07-46.37C76 232.6 86.4 222 94.83 210.42a231.86 231.86 0 0 1 .61 30.17c-.15 2.9-.32 6 1.06 8.52 1.76 3.23 5.53 4.72 9 5.83a151.36 151.36 0 0 0 79.29 3.06c5.26-1.21 10.77-2.92 14.06-7.5 3-4.15 3.72-9.5 4.55-14.42a192.94 192.94 0 0 0 2.6-25.38 195.08 195.08 0 0 0-12.34-75.37Z"/><path class="cls-3" d="M290 713.66c-5.83 1-12.07.56-18 .56-16.88 0-33.73-.82-50.59-1.62a22 22 0 0 1-7.9-1.38 11 11 0 0 1-4.73-4.08 8.69 8.69 0 0 1-1.34-3.61 6.67 6.67 0 0 1 0-1.34 17.72 17.72 0 0 1 1.43-5.22c1.2-3.09 1.77-5.35 3-8.44 13.39 0 26.72-2.49 39.63-6l3.88 2 22.38 11.28 9.08 4.57 2.18 1.1c2.14 1.08 5.18 1.76 6.75 3.71a4.72 4.72 0 0 1 .81 1.58c1.3 4.4-2.86 6.23-6.58 6.89Z"/><path class="cls-10" d="M178.78 122.43c-.2-.79-.44-1.57-.58-2.32-.6-3.08 0-7-3.42-9.12-1.67-1-3.73-.87-5.65-.89h-6.82a89.38 89.38 0 0 1-14.22-1.45c-2.4-.43-4.77-1-7.12-1.59-2.11-.57-4.25-1.52-6.44-1.74a4.9 4.9 0 0 0-4.2 1.31 5.23 5.23 0 0 0-.94 2.46c-.83 4.36-1.59 8.81-.89 13.24a6.35 6.35 0 0 0 1.72 3.82c2.49 2.32 7.93 3 11.29 3.75 11.09 2.36 23 2.68 33.38-1.15a8.87 8.87 0 0 0 3.39-1.9c1.26-1.33.9-2.85.5-4.42Z"/><path class="cls-11" d="M133.61 126.87a.42.42 0 0 1-.35-.31A58.5 58.5 0 0 1 133 107a.38.38 0 0 1 .45-.28.37.37 0 0 1 .35.4 58.1 58.1 0 0 0 .28 19.33.34.34 0 0 1-.34.39Zm3.48 1.23a.39.39 0 0 1-.35-.41 52.67 52.67 0 0 0 .32-9l-.23-9.84c0-.29 0-.38-.1-.4a.35.35 0 0 1-.11-.5.45.45 0 0 1 .57-.07 1.1 1.1 0 0 1 .46 1l.22 9.84a52 52 0 0 1-.32 9.07.39.39 0 0 1-.46.31Zm4.28.9a.4.4 0 0 1-.37-.36c0-6.38.16-12.83.57-19.18a.38.38 0 0 1 .43-.31.4.4 0 0 1 .39.38c-.41 6.33-.6 12.77-.57 19.13a.36.36 0 0 1-.41.34Zm3.48.69a.39.39 0 0 1-.36-.38 150.53 150.53 0 0 0 .29-19 .36.36 0 0 1 .39-.35.41.41 0 0 1 .43.35 153.53 153.53 0 0 1-.29 19.07.38.38 0 0 1-.44.31Zm3.86 1.08a.39.39 0 0 1-.36-.4 55.52 55.52 0 0 0 .28-10.06v-.39a21.68 21.68 0 0 1 .07-4.26c.07-.49.17-1 .27-1.46a10.61 10.61 0 0 0 .35-2.71.36.36 0 0 1 .4-.34.41.41 0 0 1 .42.35 11.71 11.71 0 0 1-.36 2.85c-.1.47-.2.94-.27 1.42a22.12 22.12 0 0 0-.07 4.15v.39a56.82 56.82 0 0 1-.28 10.17.39.39 0 0 1-.45.29Zm3.36-.29a.37.37 0 0 1-.34-.41 78.48 78.48 0 0 0 1-18.12.37.37 0 0 1 .39-.36.41.41 0 0 1 .43.35 79.11 79.11 0 0 1-1 18.26.38.38 0 0 1-.48.28Zm4.49-.15a.37.37 0 0 1-.34-.41 15.23 15.23 0 0 0 0-4.21c-.06-.66-.13-1.34-.15-2a34.48 34.48 0 0 1 .2-4.44A19.49 19.49 0 0 0 156 112a.35.35 0 0 1 .3-.42.42.42 0 0 1 .49.27 20.14 20.14 0 0 1 .28 7.53 35.43 35.43 0 0 0-.21 4.37c0 .65.09 1.32.16 2a16.06 16.06 0 0 1 0 4.38.39.39 0 0 1-.46.2Zm3.53-.26a.38.38 0 0 1-.36-.39 140.44 140.44 0 0 0 .5-17.77.37.37 0 0 1 .4-.35.39.39 0 0 1 .42.35 141.65 141.65 0 0 1-.5 17.85.39.39 0 0 1-.44.31Zm3.99-.89a.38.38 0 0 1-.36-.39c.57-5.35 1.16-10.89.09-16.32a.35.35 0 0 1 .33-.4.43.43 0 0 1 .48.31c1.08 5.52.49 11.1-.09 16.5a.37.37 0 0 1-.44.3Zm3.46.59a.39.39 0 0 1-.36-.36l.07-17a.36.36 0 0 1 .41-.33.4.4 0 0 1 .41.36l-.07 17a.37.37 0 0 1-.41.34Zm4.11-1.07a.39.39 0 0 1-.36-.38 116.94 116.94 0 0 0-.42-15.87.36.36 0 0 1 .38-.36.41.41 0 0 1 .44.34 119.7 119.7 0 0 1 .42 15.95.38.38 0 0 1-.42.32Zm3.98-1.54h-.08a.36.36 0 0 1-.26-.46 7.61 7.61 0 0 0 0-4.08 17.61 17.61 0 0 1-.26-2v-3.22a17.43 17.43 0 0 0-1.4-5.12.33.33 0 0 1 .26-.43.42.42 0 0 1 .51.24 17.92 17.92 0 0 1 1.45 5.3v3.22a19 19 0 0 0 .26 2 8.21 8.21 0 0 1-.07 4.4.4.4 0 0 1-.41.15Z"/><path class="cls-2" d="M137.89 79.31a15.79 15.79 0 0 1-15.57.68 15.54 15.54 0 0 1-7.84-10.79 15.79 15.79 0 0 1-.23-2.49 11.12 11.12 0 0 1 .75-4.31 9.67 9.67 0 0 1 8.56-5.7 11.19 11.19 0 0 1 9.24 4.88l2 6.82Z"/><path class="cls-10" d="M191.19 256.17c2-1.17 4.09-2.18 6-3.35a12.92 12.92 0 0 0 4.66-4.41 11.46 11.46 0 0 0 1.19-3 8.61 8.61 0 0 0 .27-3.15c-.1-1.09-.31-2.23-.46-3.37s-.3-2.3-.42-3.45c-.23-2.31-.36-4.61-.43-6.92s-.08-4.61 0-6.91c.09-4.61.34-9.2.6-13.78.51-9.17 1.22-18.32 1-27.5a209.76 209.76 0 0 0-2.26-27.41 209.61 209.61 0 0 1 2.72 27.4c.36 9.19-.2 18.39-.57 27.55-.18 4.59-.36 9.17-.37 13.75 0 2.29 0 4.57.15 6.85s.27 4.56.53 6.82c.14 1.13.28 2.26.47 3.38s.4 2.24.53 3.44a10.07 10.07 0 0 1-.25 3.67 13.33 13.33 0 0 1-1.3 3.41 12.54 12.54 0 0 1-2.28 2.89 19.83 19.83 0 0 1-2.86 2.18c-2 1.27-4 2.3-6 3.46ZM94.65 139.55a22 22 0 0 1 5.61 6.11 31.78 31.78 0 0 1 3.42 7.64 49 49 0 0 1 1.72 8.18 79.8 79.8 0 0 1 .57 8.32q0 4.17-.33 8.32c-.26 2.76-.62 5.51-1.15 8.23a55.52 55.52 0 0 1-5.3 15.65 78 78 0 0 0 3.9-15.91c.35-2.71.68-5.42.83-8.14s.29-5.44.23-8.16-.17-5.44-.46-8.14c-.13-1.35-.32-2.69-.53-4s-.51-2.66-.84-4a40.26 40.26 0 0 0-1.2-3.87c-.21-.64-.5-1.26-.75-1.88s-.55-1.24-.88-1.83a25.11 25.11 0 0 0-4.84-6.52Z"/><path class="cls-11" d="M128 129.69a.45.45 0 0 1-.43-.31.46.46 0 0 1 .27-.58l1.72-.6a.46.46 0 0 1 .3.86l-1.71.6a.4.4 0 0 1-.15.03ZM88.27 307.53a.45.45 0 0 1-.25-.07l-3.07-2a.45.45 0 0 1 .5-.76l3.06 2a.45.45 0 0 1 .14.63.46.46 0 0 1-.38.2Zm-6.13-4a.46.46 0 0 1-.25-.08c-1-.67-2-1.34-3-2a.46.46 0 1 1 .51-.76l3 2a.45.45 0 0 1 .13.63.47.47 0 0 1-.39.24Zm-6.08-4.07a.49.49 0 0 1-.25-.08l-3-2.08a.45.45 0 0 1-.11-.64.46.46 0 0 1 .63-.11l3 2.08a.45.45 0 0 1 .12.63.46.46 0 0 1-.39.23Zm-6-4.2a.43.43 0 0 1-.26-.09c-1-.71-2-1.44-2.95-2.17a.45.45 0 0 1-.09-.63.44.44 0 0 1 .63-.09l2.94 2.16a.45.45 0 0 1 .1.63.47.47 0 0 1-.35.22Zm-5.84-4.38a.42.42 0 0 1-.28-.1c-1-.75-1.94-1.52-2.87-2.28a.44.44 0 0 1-.07-.63.45.45 0 0 1 .64-.07c.93.75 1.89 1.51 2.85 2.26a.45.45 0 0 1 .08.64.44.44 0 0 1-.33.21Zm-5.68-4.61a.41.41 0 0 1-.29-.11c-1-.8-1.88-1.6-2.77-2.4a.46.46 0 1 1 .61-.68c.88.79 1.81 1.6 2.74 2.39a.45.45 0 0 1-.29.8Zm-5.47-4.84a.47.47 0 0 1-.31-.12l-2.7-2.47a.46.46 0 0 1 0-.64.45.45 0 0 1 .64 0c.9.84 1.8 1.66 2.69 2.47a.45.45 0 0 1 0 .64.44.44 0 0 1-.3.15Zm-5.36-5a.43.43 0 0 1-.31-.13c-.92-.88-1.8-1.75-2.61-2.57a.45.45 0 1 1 .64-.64c.81.82 1.69 1.68 2.6 2.56a.46.46 0 0 1 0 .64.47.47 0 0 1-.3.19Zm-5.13-5.21a.47.47 0 0 1-.33-.14c-.86-.93-1.69-1.85-2.45-2.74a.46.46 0 0 1 0-.64.45.45 0 0 1 .64.05c.76.88 1.57 1.79 2.42 2.71a.46.46 0 0 1 0 .64.47.47 0 0 1-.26.17Zm-4.75-5.55a.44.44 0 0 1-.36-.18c-.77-1-1.5-2-2.18-3a.45.45 0 0 1 .12-.63.46.46 0 0 1 .63.11c.66 1 1.39 1.95 2.15 2.93a.45.45 0 0 1-.08.63.42.42 0 0 1-.26.19Zm-4.14-6a.47.47 0 0 1-.39-.22c-.64-1.08-1.23-2.17-1.76-3.24a.46.46 0 1 1 .82-.4c.51 1 1.09 2.12 1.72 3.18a.45.45 0 0 1-.16.62.46.46 0 0 1-.21.09Zm-3.2-6.56a.45.45 0 0 1-.42-.29 36.83 36.83 0 0 1-1.07-3.49.46.46 0 0 1 .33-.56.46.46 0 0 1 .55.33 35 35 0 0 0 1.1 3.43.45.45 0 0 1-.27.58.41.41 0 0 1-.2.03Zm-1.83-7a.46.46 0 0 1-.45-.39l-.06-.48A28.54 28.54 0 0 1 28 242a.46.46 0 1 1 .91 0 26.8 26.8 0 0 0 .21 3.12l.06.46a.45.45 0 0 1-.39.51Zm-.1-7.29a.47.47 0 0 1-.41-.5 37 37 0 0 1 .58-3.66.46.46 0 0 1 .54-.35.46.46 0 0 1 .35.54 35.44 35.44 0 0 0-.56 3.56.46.46 0 0 1-.48.39Zm1.48-7.15a.27.27 0 0 1-.13 0 .45.45 0 0 1-.31-.56c.35-1.14.75-2.31 1.21-3.49a.46.46 0 1 1 .85.33c-.45 1.16-.85 2.31-1.19 3.42a.45.45 0 0 1-.41.28Zm2.62-6.81a.41.41 0 0 1-.19-.05.45.45 0 0 1-.23-.6c.49-1.07 1-2.18 1.62-3.3a.46.46 0 0 1 .61-.2.45.45 0 0 1 .19.61c-.57 1.12-1.11 2.21-1.59 3.27a.46.46 0 0 1-.39.25Zm3.34-6.5a.43.43 0 0 1-.22-.06.46.46 0 0 1-.18-.62c.57-1 1.18-2 1.85-3.17a.46.46 0 0 1 .63-.15.45.45 0 0 1 .15.62c-.67 1.12-1.27 2.14-1.83 3.15a.48.48 0 0 1-.4.21Zm3.76-6.27a.4.4 0 0 1-.24-.07.45.45 0 0 1-.15-.63c.65-1 1.3-2.06 2-3.09a.45.45 0 0 1 .63-.13.46.46 0 0 1 .14.63c-.66 1-1.31 2.05-2 3.08a.45.45 0 0 1-.36.19Zm3.95-6.15a.47.47 0 0 1-.25-.07.45.45 0 0 1-.13-.63l2-3a.45.45 0 0 1 .75.51l-2 3a.46.46 0 0 1-.35.17Zm4.11-6a.5.5 0 0 1-.26-.08.46.46 0 0 1-.12-.64l2.11-3a.46.46 0 1 1 .74.53c-.71 1-1.41 2-2.1 3a.45.45 0 0 1-.35.13Zm4.23-6a.43.43 0 0 1-.26-.09.45.45 0 0 1-.11-.63c.72-1 1.44-2 2.17-2.95a.45.45 0 1 1 .73.54q-1.1 1.47-2.16 2.94a.44.44 0 0 1-.35.17Zm4.37-5.94a.43.43 0 0 1-.28-.09.44.44 0 0 1-.08-.63c.73-1 1.47-1.95 2.21-2.92a.44.44 0 0 1 .63-.08.45.45 0 0 1 .1.72l-2.21 2.91a.44.44 0 0 1-.37.09Zm4.44-5.8a.42.42 0 0 1-.28-.1.44.44 0 0 1-.08-.63c.74-1 1.49-1.93 2.25-2.89a.45.45 0 1 1 .71.56l-2.25 2.88a.42.42 0 0 1-.35.22Zm4.51-5.75a.53.53 0 0 1-.29-.1.47.47 0 0 1-.07-.64l2.28-2.86a.46.46 0 1 1 .71.57l-2.28 2.86a.46.46 0 0 1-.35.21Zm4.56-5.71a.42.42 0 0 1-.28-.1.45.45 0 0 1-.07-.64l2.3-2.84a.47.47 0 0 1 .64-.07.45.45 0 0 1 .07.64l-2.3 2.84a.46.46 0 0 1-.36.21Zm4.61-5.67a.53.53 0 0 1-.29-.1.46.46 0 0 1-.06-.64l2.31-2.83a.46.46 0 1 1 .71.57c-.78.94-1.55 1.89-2.32 2.83a.46.46 0 0 1-.35.21Zm4.63-5.66a.46.46 0 0 1-.29-.1.46.46 0 0 1-.06-.64l2.32-2.83a.45.45 0 0 1 .7.58l-2.32 2.83a.44.44 0 0 1-.35.2Zm4.66-5.63a.41.41 0 0 1-.29-.11.45.45 0 0 1-.06-.64c.88-1 1.67-1.92 2.43-2.75a.45.45 0 0 1 .67.61c-.75.82-1.54 1.71-2.4 2.73a.44.44 0 0 1-.35.2Zm5-5.37a.46.46 0 0 1-.33-.13.47.47 0 0 1 0-.65c.92-.89 1.84-1.72 2.74-2.47a.45.45 0 1 1 .58.7c-.88.74-1.79 1.55-2.69 2.42a.43.43 0 0 1-.34.17Zm5.63-4.64a.45.45 0 0 1-.26-.83c1-.66 2-1.32 3.14-1.94a.45.45 0 0 1 .45.79 42.68 42.68 0 0 0-3.08 1.9.44.44 0 0 1-.29.12Zm6.35-3.61a.45.45 0 0 1-.41-.25.46.46 0 0 1 .21-.61c1-.5 2.14-1 3.35-1.51a.46.46 0 0 1 .6.24.47.47 0 0 1-.24.6c-1.21.51-2.29 1-3.31 1.49a.51.51 0 0 1-.24.08Zm6.71-2.88a.45.45 0 0 1-.42-.29.46.46 0 0 1 .26-.59l2.37-.92 1-.4a.45.45 0 0 1 .58.27.44.44 0 0 1-.26.58l-1 .4-2.36.92a.51.51 0 0 1-.21.07Zm6.83-2.62a.46.46 0 0 1-.43-.29.44.44 0 0 1 .27-.58l3.42-1.29a.46.46 0 1 1 .32.86l-3.42 1.28a.47.47 0 0 1-.2.06Zm6.85-2.54a.45.45 0 0 1-.43-.3.46.46 0 0 1 .27-.58l3.44-1.25a.46.46 0 0 1 .31.86l-3.44 1.24a.4.4 0 0 1-.19.07ZM92.89 310.5a.43.43 0 0 1-.24-.08l-1.54-1a.45.45 0 0 1 .49-.76l1.54 1a.46.46 0 0 1-.25.84Z"/><path class="cls-18" d="M163.09 62.43c0-2.58-1.43-4.66-3.12-4.64s-3 2.13-3 4.72 1.43 4.66 3.12 4.64 3.03-2.15 3-4.72Zm23.17 1.3c0-2.52-1.4-4.55-3-4.53s-3 2.08-2.93 4.6 1.4 4.56 3.05 4.54 2.91-2.09 2.88-4.61Z"/><path class="cls-4" d="M155.49 51.28a.89.89 0 0 1-.65-.45.91.91 0 0 1 .33-1.24 8.88 8.88 0 0 1 9 .23.9.9 0 0 1 .28 1.25.92.92 0 0 1-1.26.28 7 7 0 0 0-7.1-.18 1 1 0 0 1-.6.11Zm23.81 1.53a.91.91 0 0 1-.28-1.7 8.24 8.24 0 0 1 8.28.47.91.91 0 0 1-1 1.5 6.41 6.41 0 0 0-6.42-.37.86.86 0 0 1-.58.1Z"/><path class="cls-18" d="M171.08 69.87a2.84 2.84 0 0 1 2.68-.38 3.42 3.42 0 0 1 1.74 5 2.9 2.9 0 0 1-2.35 1.36 3.89 3.89 0 0 0 1.39-1.85 2.93 2.93 0 0 0 0-2 3 3 0 0 0-1.21-1.57 4 4 0 0 0-2.25-.56Z"/><path d="M183.18 80.76v.06a11.09 11.09 0 0 1-2.78 7.47 11.69 11.69 0 0 1-17.84-.35 11.09 11.09 0 0 1-2.47-6.85V81Z" style="fill:#ea5353"/><path d="M180.4 88.29a11.69 11.69 0 0 1-17.84-.35 24.92 24.92 0 0 1 2.89-.93 21.17 21.17 0 0 1 11.41-.19 19.58 19.58 0 0 1 3.54 1.47Z" style="fill:#ff948f"/><path d="M181 80.78c-.31.24-.62.47-.95.69-4.79 3.25-13.42 4.36-17.52-.47Z" style="fill:#fff"/></g></g></svg>