<svg xmlns="http://www.w3.org/2000/svg" viewBox="0 0 852.74 590.37"><defs><style>.cls-2{fill:#e6e7e8;mix-blend-mode:multiply}.cls-5{fill:#f6b9ae}.cls-8{fill:#414042}.cls-11{fill:#e27f89;opacity:.5}</style></defs><g style="isolation:isolate"><g id="Capa_2" data-name="Capa 2"><g id="Información"><path class="cls-2" d="M852.74 537.48s-190.9 52.89-426.37 52.89S0 537.48 0 537.48s190.89-52.88 426.37-52.88 426.37 52.88 426.37 52.88Z"/><path d="M419.29 74.93s20.84-28.77 46.16-4.73 17 66.93 59 69.65c0 0-20.84 40.73-64.42 14s-40.74-78.92-40.74-78.92Z" style="fill:#343435"/><path d="M437.77 96.31s9-9.68 2.68-18.33-33.84-13.73-28.16 9.49Z" style="fill:#f7941d"/><path class="cls-5" d="m534.9 182.18 115.42-52.25L755.15 28.67l15.22 14.49S697.59 145 684.87 156.43C667.56 170.21 547 232.3 547 232.3Z"/><path d="M779 23.37s15-1.64 16.71-1.34 9 5.37 11.31 4.81 3.2-4.2-2-8-6.72-4.89-8.43-5.19-17.49 1.16-17.49 1.16Z" style="fill:#e2928a"/><path d="M780.88 19.8s17.2-4.09 19.22-4 11.25 4.93 13.84 3.94 3.12-5.34-3.51-9-8.52-4.74-10.55-4.83-20.16 3.89-20.16 3.89Z" style="fill:#efaaa0"/><path class="cls-5" d="M755.72 28.52S769.34 13.2 774 9.39s29.49-6.76 36-9.07c7.09-1.72 8.9 3.82 0 7.71-9.46 4.36-26.1 9.52-27.41 10.14s-4.42 11.29-4.28 12.43 9 1.32 10.35.86 8-8.17 15-5.67-9.3 15.51-13.07 16.9-16.22 7.4-26.43 5l-9.27-14.91ZM121.78 496.59s-25.65 3.07-31 2.15-33-32-43-41.85-12.4-26.69-18.47-28.79-12.7 6.07-9.8 26 21.73 32.11 25.23 47.32S50.9 544.55 61.4 546s34.25-13.54 34.25-13.54l25.12-.82Z"/><path class="cls-8" d="m732.9 498.67-29.85 41.53L599.19 529 499 518.18l-175-.93-214 15-8.67-34.7s157.47-26.64 207.16-43.82c36-6.52 150.81-21 150.81-21l104 14.36 57.76-4.27s56.12 27.64 111.84 55.85Z"/><path style="fill:#d1d3d4;mix-blend-mode:multiply" d="m599.19 528.98-100.15-10.8-175.04-.93 157.67-13.5-7.12-25.78 36.15 28.53 88.49 22.48z"/><path class="cls-5" d="m538.44 551.13-58.39-5.74s-44-5-57.95-5.67-28.12 8.81-33.77 5.75-4.09-13.47 12.6-24.81 38.36-5.66 51.94-13.34 35.94-24.54 44.07-17.75 11.49 26.79 11.49 26.79l39.43 5.92Z"/><path d="m508.37 550.26 5.69-35.65s120.76-26 159.84-26.62c37.65-2.47 68.05 3.71 72.28 29.38 3.16 29.36-81.18 45.96-237.81 32.89Z" style="fill:#58595b"/><path class="cls-5" d="m404.78 254-81.84 108.88L207.51 453l16.66 15.76s112.07-65.85 123.74-70.32c22.34-13.5 92-109.06 92-109.06l-17.07-50.78Z"/><path class="cls-5" d="M208.25 453.87s-20.32 2.77-26.05 4.49-22 20.73-27.61 24.87c-5.38 4.93-1.79 9.52 6.38 4.33 8.89-5.42 22.44-16.36 23.69-17.1s11.83 2.62 12.7 3.37-3.9 8.18-5.05 9.07-11.21 2.06-13.05 9.27 18.07.92 21.32-1.43 23.07-14 26.73-23.86l-15.11-11.34ZM459 211.37c40.56-23.77 89.88-32.86 89.88-32.86l24 31.86 3.74 39.46 31 79.66 19.9 106c-9.13 26.39-88.05 17.13-88.05 17.13s-53.64-11-80.28-19.4l23.6-52.22-38.48-36.47-21.42-106Z"/><path class="cls-5" d="M442.37 229.22s10 20.76 30.14 10.61c24.54-12.36 26.12-38 26.12-38l-8-8.22-13.9-18.61-17-22.66-13 29.17-10.04 7.49Z"/><path class="cls-11" d="M441.33 218c9.57 0 23.6-7.41 36.72-41.12l-18.27-24.46-8.25 38.56-26.78 8.55 1.7 7.31Z"/><path class="cls-5" d="M392.36 99.06s26.53-22.94 61 5.53c0 0 21.46 18.84 23.17 46.73 0 0-6 41.08-26.54 62.21-14.76 14.18-44.65-10.14-64.39-39.47-16.99-27.66-11.85-62.41 6.76-75Z"/><path class="cls-8" d="M392 171.7a8.15 8.15 0 0 1 .42-3.49 6.08 6.08 0 0 1 4.08-3.91 8.73 8.73 0 0 1 5.54.42 11.58 11.58 0 0 1 4.56 3.14c-1.74-.32-3.34-.66-4.88-.82a10.62 10.62 0 0 0-4.22.22c-2.51.62-4 3.16-5 6.61l-5.67-1.63Zm30.73-17.4a9.43 9.43 0 0 1 3.27-4.85 7.9 7.9 0 0 1 2.84-1.26 7.46 7.46 0 0 1 3.09.13 8.12 8.12 0 0 1 3.17 1.68l3.84-4-2.33 5.65c-3.51-1.15-6.61-1.34-8.75.38a11.67 11.67 0 0 0-2.94 3.38c-.87 1.38-1.64 2.91-2.51 4.54a11.4 11.4 0 0 1 .32-5.65Z"/><path d="M438.94 178.77s-5.78 14.63-22.57 13.58" style="fill:none;stroke:#e27f89;stroke-linecap:round;stroke-linejoin:round"/><path class="cls-5" d="m468.23 140.12 7.13 14.16c14.16-1.72 18-18.48 15-29-1.56-5.33-4.87-9.06-9.54-8.57-9.84 1.09-12 12.3-12.47 18.81a37.83 37.83 0 0 0-.12 4.6Z"/><path d="M481.29 126.81c-8.44 4.11-9.45 14.06-9.49 14.48a.78.78 0 0 0 .71.85.71.71 0 0 0 .43-.08.76.76 0 0 0 .42-.63 20.6 20.6 0 0 1 2.54-7.43c3.84.44 4.81 6.07 4.82 6.13a.78.78 0 0 0 .9.65.88.88 0 0 0 .23-.07.77.77 0 0 0 .42-.82c0-.28-1.07-6.21-5.43-7.3a13.59 13.59 0 0 1 4.91-4.24l.22-.11a.77.77 0 0 0 .36-1 .77.77 0 0 0-1.04-.43Zm-58.45 55.58-.27.11c-1.1.44-4 .79-7.47-5.4-5.64-10.14-6.85-16.71-6.89-17a.77.77 0 0 1 .63-.91.78.78 0 0 1 .91.63c0 .07 1.22 6.61 6.72 16.49 2.32 4.18 4.38 5.17 5.52 4.72 1.7-.65 2.74-4.64 1.41-9.83a.78.78 0 0 1 .57-.95.78.78 0 0 1 .95.56c1.4 5.49.52 10.26-2.08 11.58Z" style="fill:#e27f89"/><path class="cls-8" d="M386.76 158.82c1.54-2 4-3.22 7.27-3.63a2.09 2.09 0 0 0-.52-4.14c-4.45.55-7.85 2.33-10.09 5.26-3.53 4.63-1.5 12.58-.35 12.42.23-.03 1.24-6.73 3.69-9.91Zm52.81-16.28c.91-.93-4.92-8.1-11.46-8-4.16.06-8 1.94-11.53 5.6a2.35 2.35 0 0 0 3.4 3.24c2.59-2.71 5.35-4.1 8.19-4.14 4.53-.07 11.22 3.48 11.4 3.3Z"/><path class="cls-11" d="M445.53 157.69c1.63 3.45-.92 8.07-5.68 10.31s-9.93 1.25-11.56-2.2.91-8.08 5.68-10.32 9.93-1.25 11.56 2.21Zm-36.17 18.69c2 3.26.24 8-3.9 10.47s-9.11 1.93-11.1-1.34-.24-7.95 3.91-10.47 9.11-1.92 11.09 1.34Z"/><path d="M430.69 232.68s-4.92 96.79 7.08 113.71 36.38 37.85 36.38 37.85l-24.47 49.64s74 34.4 189.5 17.84c0 0-22.16-108.15-26.46-125.67s-34-70.8-34-70.8-35.82-13.37-59.47-69.25l-13.68 4.42s19.85 83.23-12 92.9-51.86-58.92-51.86-58.92Z" style="fill:#56b6cc"/><path class="cls-8" d="M368.86 150.22s10.55 11 57.06-36.31c0 0 12.33 22.72 43.48 19.64l.45-7.15s-10.47-30.77-38-38.75-72.78 6.49-62.99 62.57Z"/><path class="cls-8" d="M463.42 128.84s-2.92 16.57 8.77 28.59 13.11 26.66 11.91 30.72c0 0 16.67-13.61 3.72-27.48S469 148 469.39 132.2Z"/><path class="cls-2" d="M474.15 384.24s62.77 16.41 106-5.26c0 0-15.95 15.25-28.09 19.49 0 0 27.35 2.34 53-7.31 0 0-36.81 23.93-87.72 16.39l20.54 8.16s-29.38 8.63-71.55-15.49Z"/></g></g></g></svg>