<svg xmlns="http://www.w3.org/2000/svg" viewBox="0 0 615.31 755.99"><defs><clipPath id="clip-path" transform="translate(29.35)"><path d="M4 349.44S-51.34 739.82 248.84 752s302.42-325.08 302.42-325.08l-30.34-17-112.51-20.81-105-55h-88l-110 7.33L26 334.12Z" style="fill:none"/></clipPath><style>.cls-4{fill:#fff}.cls-5{fill:#212121}.cls-15{mix-blend-mode:multiply}.cls-8{fill:#d19688}.cls-9{fill:#f67950}.cls-15{opacity:.5}.cls-16{fill:#6a2c70}</style></defs><g style="isolation:isolate"><g id="Capa_2" data-name="Capa 2"><g id="Información"><path d="M8.6 315c-.44 6.63-22.53 19.59 9.67-193.38C32.09 30.26 146.92.18 266.86 0 624.05-.53 544 145.86 534 234.09c-4.43 39 17.29 122.53 17.29 155.88L348.58 548 126 418.44Z" transform="translate(29.35)" style="fill:#606060"/><path class="cls-4" d="M154.43 58.69c120.36-41.85 253.45-46.25 376.31-12.44 4.43-3.57 11.57-7 17.22-7.68s12.2 3.18 12.21 8.87c0 3.27-2.13 6.24-4.83 8.09s-5.9 2.79-9.05 3.69c16 44.65 18.25 95.27 5.28 140.9a35.09 35.09 0 0 1 15.48 9.39c4.35 4.48 5.86 12.37 1.5 16.84-2.94 3-7.71 3.63-11.8 2.61s-7.68-3.43-11.18-5.79c-125.87 19.52-257.17 12.94-380.11-20.38-4.66 2.05-12 3.58-17.06 2.91s-9.93-5.27-8.93-10.26 7.39-7.41 12.49-6.38c-14.25-13.39-23.13-32-25.41-51.41a84.63 84.63 0 0 1 13.27-55.91c-10.33-7.35-14.42-25.31-8.4-36.47 8.67.78 17.5 6.73 23.01 13.42Z" transform="translate(29.35)"/><path class="cls-5" d="M477.16 165.57a55.51 55.51 0 0 0-29.75 33 56.52 56.52 0 0 1 28.9-34.79l.85 1.81Zm20.47-8.68a65 65 0 0 1 46.56 19.66 64 64 0 0 0-46.51-17.66l-.05-2Zm-31.19-25.69a108.41 108.41 0 0 0-39.62-46.35 109.38 109.38 0 0 1 41.43 45.5l-1.81.85Zm21.23-7.98a84 84 0 0 1 47.9-20.56 82.9 82.9 0 0 0-46.54 22l-1.36-1.48Zm-139.44 32.93a83.21 83.21 0 0 1 60.18-46.71A82.19 82.19 0 0 0 350.06 157l-1.83-.81Zm-59.11-21.26c6.84-25.45-5.32-54.14-28.39-67.07 23.69 12.51 36.66 41.41 30.33 67.54l-1.94-.47Zm-7.7 31.69a89.27 89.27 0 0 0-66-38.48 90.22 90.22 0 0 1 67.61 37.34l-1.64 1.14Zm54.08 26.12c25.43-25.53 63-38.23 98.66-33.3-35.46-4.25-72.56 9-97.23 34.7l-1.43-1.4Z" transform="translate(29.35)"/><path d="M534 234.09S513.43 170 466.29 108.82c-9.58 1-9 17.92-9 17.92L452 142.22l10.59 21.18L492 187l34.22 77.39-44.76-8.59-136.82-26.21-.87-6.52a58 58 0 0 0 9.64-14.48A126.69 126.69 0 0 0 365.36 169s9.17-14 5.51-28.37c0 0 .9-25.34-17.43-37.87s-40.94.61-40.94.61-19.83-13.14-31.44 13.44c-8.42 19.28-7.33 34-6.1 40.55a8.46 8.46 0 0 0-1.77 1.44c-3.54 3.89-3.42 10.37-.22 14.56s9 7.27 14.23 6.54l-8.3 25.82-29.89 3-64.58 6.44-6.12.61a69.08 69.08 0 0 0-55.21 38.41l-12 24.55-5.34 10.92a64.47 64.47 0 0 0 7.46 9.73L96 350.78l24.49 62.84 5.47 4.82L302 520.88l21.29-3.1 77.19-174.54h45.21a25.3 25.3 0 0 0 20.09-10.1c12.37.13 26.5.54 42.44 1.34a340.1 340.1 0 0 0 38.5 0C541.62 288.32 534 234.09 534 234.09Z" transform="translate(29.35)" style="mix-blend-mode:multiply;fill:#bdbdbd"/><path d="M438.44 336s19.75 1 25.66-22.2 10-65.21 10-65.21l-53 33.43-10.45 39.31Z" transform="translate(29.35)" style="fill:#994059"/><path class="cls-8" d="m337.35 222.31 181.53 34.83-34.21-77.4-29.33-23.62-10.59-21.18 5.25-15.48s-.91-24.54 16.2-16.29c0 0 4.88-3.36 12.22 2.14 0 0 2.44-8.56 20.77 4.27 0 0 14.66.92 18.33 9.47s-.92 55-.92 55l66.34 116a22.46 22.46 0 0 1-14.11 33c-14.11 3.41-35.58 5.77-67.91 4.14-72.72-3.67-108.08 1-108.08 1L316 510.5s-101.83 2.44-184.11-56.22L88.74 343.49l29.8-88.83a69.06 69.06 0 0 1 58.62-46.76l94.47-9.42 8.31-25.82 54 24.19Z" transform="translate(29.35)"/><path class="cls-5" d="M507.88 232.25c9.29 19.35 18 39.11 26.09 59-9.3-19.36-18-39.11-26.09-59ZM450 119.46c1.74 13.61 5.23 29.05 10.86 5.21l.4-1.62c.76 4.3 1.68 8.6 2.78 12.83.72 2.3 2.57 10.4 5.08 10.7 3.46-1.92 4.54-18.7 5.18-23.09.38 2.06 4.59 23.39 8.24 18 2.48-4.53 2.9-9.94 3.77-15h.71c.11 3.54.09 7.31 1.52 10.59 2.42 4.5 6.88-6.44 7.82-8.25l6.19-5.61-6 5.79c-.94 2.09-5.3 13.58-8.46 8.33-1.55-3.37-1.58-7.2-1.75-10.85l.71.05c-.62 4.47-1.18 9-2.72 13.29-3.2 8.2-6.83-.38-8-4.49a85.23 85.23 0 0 1-2.33-8.64h1c-.64 5.73-1.23 11.52-3 17.06-1.41 4.52-3.92 5.28-6 .63-2.69-6.2-3.89-12.91-5.11-19.52h.7c-6.1 24.26-10.38 9.24-11.55-5.38Z" transform="translate(29.35)"/><path class="cls-5" d="M481.57 142.75a24.84 24.84 0 0 1 3.15 17.54 24.58 24.58 0 0 0-3.56-17.29l.41-.29Zm15.11-13.86c2.39 3 6.44 4.36 10.21 4.41h1.66c-.56 0-1.11.08-1.66.1-3.89.09-8-1.12-10.61-4.18l.4-.29Zm1.75-1.83c4.44 1.63 9.73 2 13.94-.46-4.19 2.65-9.55 2.43-14.12.93l.18-.47Zm2.04-1.99c3.58.19 7.55-.68 10.06-3.42-2.44 2.9-6.4 3.94-10.09 3.92v-.5Z" transform="translate(29.35)"/><path class="cls-5" d="m490.22 124.72 2.31-18.5-1.56 18.57-.75-.07zm13.24 1.86 1.29-17.3-.54 17.34-.75-.04zm12.26-.15 7.26-13.49-6.59 13.83-.67-.34z"/><path class="cls-5" d="M463 132.06a15.12 15.12 0 0 1-7.22 13.06 14.87 14.87 0 0 0 6.72-13h.5Z" transform="translate(29.35)"/><path class="cls-4" d="M474.12 248.55s-33.24 55-35.68 87.41h-45.22L316 510.5 209.92 526l-58-136.86 3.87-71.56s-38.49-5-57.23-35.16l17.32-35.46a69.07 69.07 0 0 1 55.21-38.42l100.58-10 8.31-25.82 54 24.19 3.39 25.46Z" transform="translate(29.35)"/><path class="cls-9" d="M426.82 336h11.62c2.44-32.39 35.68-87.41 35.68-87.41l-11.39-2.19s-28.96 40.27-35.91 89.6Z" transform="translate(29.35)"/><path style="fill:#d19688;mix-blend-mode:multiply" d="M557.12 277.25 366.7 222.31l181.53 34.83 8.89 20.11z"/><path class="cls-9" d="m155.75 317.55.41-7.54c-36-8.2-52.31-38.54-52.31-38.54l-5.33 10.92c18.74 30.14 57.23 35.16 57.23 35.16Zm74.58-114.95s14 47.82 48.9 54.36 58.12-34.65 58.12-34.65L334 196.85l-54-24.19-8.31 25.82Z" transform="translate(29.35)"/><path class="cls-5" d="M159.21 253.47c-1.69 43.62-4.33 92.07-7.33 135.64 1.71-43.65 4.31-92.08 7.33-135.64Zm198.89-91.71s9.17-14 5.5-28.36c0 0 .9-25.35-17.42-37.87s-40.94.61-40.94.61S285.41 83 273.8 109.57s-5.16 44.4-5.16 44.4L285.1 174l30.08-26.27 27.35 5.2Z" transform="translate(29.35)"/><path class="cls-8" d="M241.75 201.46s35.11 85.62 88.1 19.63l4.15-24.24-54-24.19-8.31 25.82Z" transform="translate(29.35)"/><path d="M273.82 191.69s16.36 66.2 56 29.4l4.18-24.24-54-24.19Z" transform="translate(29.35)" style="opacity:.7;fill:#d19688;mix-blend-mode:multiply"/><path class="cls-8" d="M359.17 146.07a126.64 126.64 0 0 1-13 55.24C341.82 210 336 218.73 327 222.53c-12.44 5.28-27.58-.92-35.86-11.61s-10.88-24.74-11.19-38.26c-5.22.74-11-2.35-14.24-6.54s-3.32-10.66.23-14.55 10.6-4.1 13.92 0c3 3.68 3.15 9.83 4.82 14.26a37.76 37.76 0 0 1 15.71-18.36c-.71-5.2-.43-10.82-1.15-16 3.92-6.19 11.4-5.53 18.29-3S330 136 336.07 140.1s16.08 8.07 23.1 5.97Z" transform="translate(29.35)"/><path class="cls-5" d="M339.55 176.26a19.78 19.78 0 0 0 .86 8.45c.56 1.73 2.24 4.37.22 5.87-2.63 1.37-5.61 1.76-8.46 2.53 2.48-1.24 5.52-2 7.88-3.28 1.42-1.26-.21-3.28-.54-4.84a14.84 14.84 0 0 1 0-8.73Zm-23.93 15.43a22.7 22.7 0 0 0 20.13 8.63c-7.5 2.32-16.64-1.6-20.13-8.63Zm1.93-23.84a20.12 20.12 0 0 0 15.57 3.09 13.28 13.28 0 0 1-15.57-3.09Zm25.45 6.23a9.88 9.88 0 0 0 10.85 5.42c-4.15 2.49-10.34-.61-10.85-5.42Zm-28.11-18.4a14.16 14.16 0 0 1 17.66 2 19.56 19.56 0 0 0-17.66-2Zm30.05 6.5c4.83-2 11 2.17 10.9 7.4a10.57 10.57 0 0 0-10.9-7.4Z" transform="translate(29.35)"/><path class="cls-9" d="M4 349.44S-51.34 739.82 248.84 752s302.42-325.08 302.42-325.08l-30.34-17-112.51-20.81-105-55h-88l-110 7.33L26 334.12Z" transform="translate(29.35)"/><g style="clip-path:url(#clip-path)"><path d="m155.34 503.13-16.36 8.08-2.62 18.05-12.74-13.06-17.98 3.08 8.49-16.15-8.49-16.14 17.98 3.08 12.74-13.06 2.62 18.05 16.36 8.07zm49.69-80.27-15.28-6.93-14.38 8.65 1.87-16.67-12.68-11 16.44-3.37 6.55-15.46 8.29 14.59 16.72 1.45-11.32 12.39 3.79 16.35zm87.31 36.05 17.1-3.01 7.22-15.8 8.15 15.34 17.25 1.98L330 469.91l3.44 17.02-15.61-7.62-15.12 8.54 2.42-17.2-12.79-11.74zm-28.54 93.11 14.47 7.33 14.25-7.76-2.5 16.03 11.79 11.15-16.02 2.58-6.96 14.66-7.4-14.44-16.1-2.09 11.45-11.51-2.98-15.95zm-90.95 71.57-20.55 8.48-4.67 21.74-14.42-16.93-22.12 2.27 11.65-18.94-9-20.33 21.61 5.22 16.56-14.84 1.71 22.17 19.23 11.16zm142.82 50.13-20.56 8.48-4.67 21.74-14.41-16.93-22.12 2.28 11.65-18.94-9-20.34 21.61 5.23 16.56-14.85 1.71 22.17 19.23 11.16zM54.51 423.71l-20.08-5.85-16.2 13.23-.65-20.9L0 398.87l19.68-7.07 5.33-20.23 12.81 16.54 20.88-1.18-11.77 17.28 7.58 19.5zM435.9 564.56l-14.52-20.26-24.92.48 14.78-20.08-8.16-23.55 23.66 7.85 19.88-15.04-.16 24.93 20.45 14.26-23.76 7.56-7.25 23.85zm-67.75 34.35 13.01 3.1 9.92-8.96 1.07 13.32 11.59 6.67-12.34 5.14-2.76 13.09-8.7-10.15-13.3 1.41 6.96-11.41-5.45-12.21zm157.68 44.75-18.93-4.81-14.7 12.87-1.27-19.49-16.78-10 18.14-7.24 4.33-19.04 12.49 15.02 19.45-1.78-10.43 16.52 7.7 17.95zm24.44-117.69-12.9-10.54-16 4.65 6.04-15.53-9.36-13.79 16.63.95 10.22-13.16 4.24 16.12 15.67 5.64-14.01 9.01-.53 16.65zm-93.35-88.51-3.08-13.57-12.91-5.14 11.94-7.13.91-13.87 10.46 9.16 13.48-3.43-5.48 12.78 7.42 11.76-13.85-1.26-8.89 10.7zm-158.95-59.09-9.78-15.98-18.7-1 12.17-14.23-4.82-18.1 17.3 7.18 15.71-10.18-1.48 18.67 14.54 11.8-18.21 4.36-6.73 17.48z" style="fill:#f9ed69"/><circle class="cls-4" cx="105.37" cy="420.06" r="2.45"/><circle class="cls-4" cx="158.55" cy="445.66" r="4.47"/><path class="cls-4" d="M31.63 473.54a3.48 3.48 0 1 1-3.47-3.48 3.48 3.48 0 0 1 3.47 3.48ZM70 545.61a2.37 2.37 0 1 1-2.37-2.37 2.37 2.37 0 0 1 2.37 2.37Zm-52.4-7.78a3.16 3.16 0 1 1-3.16-3.15 3.15 3.15 0 0 1 3.16 3.15Zm37.67 77.22a2.9 2.9 0 1 1-2.89-2.89 2.89 2.89 0 0 1 2.89 2.89Zm73.93-49.56a.93.93 0 1 1-.93-.93.93.93 0 0 1 .93.93Zm158.05 138.45a.93.93 0 1 1-.93-.93.93.93 0 0 1 .93.93ZM166.44 512.27a2 2 0 1 1-2-2 2 2 0 0 1 2 2Zm42.11-46.49a4.28 4.28 0 1 1-4.28-4.28 4.28 4.28 0 0 1 4.28 4.28ZM186.1 577.31a3.52 3.52 0 1 1-3.52-3.51 3.52 3.52 0 0 1 3.52 3.51Zm5.58 119.91a3.51 3.51 0 1 1-3.51-3.51 3.51 3.51 0 0 1 3.51 3.51Zm-12.61-77.61a1.66 1.66 0 1 1-1.66-1.66 1.66 1.66 0 0 1 1.66 1.66Zm-32.24 63.95a1.67 1.67 0 1 1-1.66-1.66 1.66 1.66 0 0 1 1.66 1.66Zm97.8 13.66a1.66 1.66 0 1 1-1.66-1.66 1.66 1.66 0 0 1 1.66 1.66Zm-36.37-25.05a1.67 1.67 0 1 1-1.66-1.66 1.66 1.66 0 0 1 1.66 1.66Zm85.21-66.11a4.86 4.86 0 1 1-3.82-3.82 4.86 4.86 0 0 1 3.82 3.82Zm40.85 81.84a4.87 4.87 0 1 1-3.82-3.82 4.87 4.87 0 0 1 3.82 3.82ZM243 525.72a3.54 3.54 0 1 1-3.54-3.53 3.53 3.53 0 0 1 3.54 3.53Z" transform="translate(29.35)"/><circle class="cls-4" cx="281.83" cy="427.84" r="3.25"/><path class="cls-4" d="M212.14 399.54a1.8 1.8 0 1 1-1.8-1.79 1.8 1.8 0 0 1 1.8 1.79ZM50.92 365.89a3.78 3.78 0 1 1-3.78-3.78 3.78 3.78 0 0 1 3.78 3.78Zm80.31 8.94a3.25 3.25 0 1 1-3.25-3.26 3.26 3.26 0 0 1 3.25 3.26Z" transform="translate(29.35)"/><circle class="cls-4" cx="294.27" cy="381.17" r="1.93"/><path class="cls-4" d="M321.62 404.12a3 3 0 1 1-3-3 3 3 0 0 1 3 3Zm42.78-25.3a4.28 4.28 0 1 1-4.28-4.27 4.28 4.28 0 0 1 4.28 4.27ZM341.39 462a2 2 0 1 1-2-2 2 2 0 0 1 2 2Zm-11.84 56.22a4 4 0 1 1-4-4 4 4 0 0 1 4 4Zm6.2 49.99a1.79 1.79 0 1 1-1.79-1.79 1.79 1.79 0 0 1 1.79 1.79Z" transform="translate(29.35)"/><circle class="cls-4" cx="443.12" cy="599.05" r="3.1"/><path class="cls-4" d="M466.3 562.59a2 2 0 1 1-2-2 2 2 0 0 1 2 2Zm-23.9 82.06a2.42 2.42 0 1 1-2.42-2.42 2.42 2.42 0 0 1 2.42 2.42ZM324 724.92a2.42 2.42 0 1 1-2.42-2.42 2.42 2.42 0 0 1 2.42 2.42Zm45.53-62.67a2.42 2.42 0 1 1-2.42-2.42 2.42 2.42 0 0 1 2.42 2.42Z" transform="translate(29.35)"/><circle class="cls-4" cx="530.31" cy="579.06" r="1.76"/><path class="cls-4" d="M448 496.77a2.8 2.8 0 1 1-2.8-2.8 2.8 2.8 0 0 1 2.8 2.8ZM242 623.83a2.8 2.8 0 1 1-2.8-2.8 2.8 2.8 0 0 1 2.8 2.8Zm232.12-168.01a2.23 2.23 0 1 1-2.23-2.24 2.23 2.23 0 0 1 2.23 2.24Zm-75.04 13.84a3.88 3.88 0 1 1-3.88-3.88 3.88 3.88 0 0 1 3.88 3.88ZM534 458a2.17 2.17 0 1 1-2.16-2.16A2.16 2.16 0 0 1 534 458Z" transform="translate(29.35)"/><circle class="cls-4" cx="533.57" cy="427.84" r="3.25"/><path class="cls-4" d="M532.89 544.48a3.5 3.5 0 1 1-3.49-3.48 3.49 3.49 0 0 1 3.49 3.48Z" transform="translate(29.35)"/><circle class="cls-4" cx="470.53" cy="688.85" r="3.62"/><circle class="cls-4" cx="309.28" cy="752.37" r="3.62"/><path class="cls-4" d="M112.63 675.25a3.11 3.11 0 1 1-3.11-3.11 3.11 3.11 0 0 1 3.11 3.11Zm82.16 65.2a3.11 3.11 0 1 1-3.11-3.11 3.11 3.11 0 0 1 3.11 3.11Z" transform="translate(29.35)"/></g><path d="M4 349.44c49 23.81 106.86 16.41 160.65 7.57S275.48 338.75 326 359.2c24.61 10 46 26.44 69.24 39.2a253.75 253.75 0 0 0 156 28.52V390a253.75 253.75 0 0 1-156-28.52C372 348.69 350.62 332.21 326 322.25c-50.53-20.45-107.55-11-161.34-2.19s-107 18.78-156.07-5Z" transform="translate(29.35)" style="fill:#d394d9"/><g class="cls-15"><path class="cls-16" d="M378.37 379.23a510.91 510.91 0 0 0-22.52 123.9 336 336 0 0 1 22.52-123.9Z" transform="translate(29.35)"/></g><g class="cls-15"><path class="cls-16" d="M156.87 328q.56 47.29-3 94.51-.56-47.29 3-94.51Z" transform="translate(29.35)"/></g><text transform="rotate(-10.43 887.825 -919.718)" style="fill:#b83b5e;font-family:DINPro-Medium,DINPro;font-weight:500;font-size:58.46px">Z</text><text transform="rotate(-10.43 952.236 -1114.63)" style="font-size:44.59px;fill:#b83b5e;font-family:DINPro-Medium,DINPro;font-weight:500">Z</text><text transform="rotate(-10.43 1032.656 -1259.195)" style="font-size:31.37px;fill:#b83b5e;font-family:DINPro-Medium,DINPro;font-weight:500">Z</text><text transform="rotate(-10.43 1156.37 -1377.603)" style="font-size:21.92px;fill:#b83b5e;font-family:DINPro-Medium,DINPro;font-weight:500">Z</text><g class="cls-15"><path class="cls-16" d="M384 407.12a135.63 135.63 0 0 0 24.28 51.36l2.36 3-2.56-2.85A106.42 106.42 0 0 1 384 407.12Z" transform="translate(29.35)"/></g><g class="cls-15"><path class="cls-16" d="M143 349.88a138.38 138.38 0 0 1-33.67 48.6l-3 2.64 2.77-2.83a188.21 188.21 0 0 0 33.9-48.41Z" transform="translate(29.35)"/></g></g></g></g></svg>