<svg xmlns="http://www.w3.org/2000/svg" viewBox="0 0 298.35 744.35"><defs><style>.cls-12{fill:#32324c}.cls-2{fill:#ffaf82}.cls-3{fill:#d31818}.cls-4{fill:#265d92}.cls-5{fill:#1a4a75}.cls-6{fill:#fff}.cls-8{fill:#2c2c2c}.cls-10{fill:#f88968}</style></defs><g id="Capa_2" data-name="Capa 2"><g id="Información"><ellipse cx="125.47" cy="725.32" rx="125.47" ry="19.04" style="opacity:.1;fill:#32324c"/><path class="cls-2" d="M263.94 297.29s8.12 3.23 11.54 9.53c.89 1.65-2.49 4.61-5 3.14 0 0 2.49 2.43 1.82 4.28-1.47 4.08-4.21 2.29-4.21 2.29s1.27 4.15-.56 6.16c-2.05 2.25-5.34.1-5.34.1s3.91 2.76.51 6.35c-2.59 2.74-20.85-11.33-25.44-26.78 0 0 5.7-11.6 9-12.72 0 0 7-1.72 12.87-.74 0 0 8.38-.69 4.81 8.39Z"/><path class="cls-3" d="M184.24 158.49s-45.64-12.54-42.31 2c3.46 15.13 12.49 51.84 24 76.54 0 0 14.4 25.55 72.37 68l8.17-15.94a183.1 183.1 0 0 1-20.94-25.35c-9.14-13.74-32.2-50.14-32.2-50.14s-.47-45.11-9.09-55.11Z"/><path class="cls-2" d="M134.17 532.66c-9.74 38-2.61 103.25-3.58 154.13l24.25-7.74L169 532.66Z"/><path class="cls-4" d="M212.34 731.87h-77.49a7.17 7.17 0 0 1-7.11-6.21 7.61 7.61 0 0 1 0-1.51l3.15-40.7a45.06 45.06 0 0 1 7.74-2.56 7.85 7.85 0 0 0 5.74-5.21c.06-.19.11-.39.16-.59 1.78-7.83 13.07-10.32 15.16-2.67.27 1 .5 2 .7 2.88.05.22.1.46.14.68.34 1.64.58 3.16.75 4.49v.08a43.07 43.07 0 0 1 .38 5.53c1 1.31 2 2.59 3 3.85.49.62 1 1.25 1.43 1.86 1 1.33 2 2.62 3 3.85.45.59.9 1.15 1.35 1.71 1.07 1.34 2.13 2.62 3.19 3.81.48.54 1 1.06 1.45 1.57 4 4.2 8 7.07 12.79 7.73 8.4 1.15 22.12 2.08 28.75 14.41a4.18 4.18 0 0 1 .34.79 4.78 4.78 0 0 1-4.62 6.21Z"/><path class="cls-5" d="M212.34 731.87h-77.49a7.17 7.17 0 0 1-7.11-6.22h89.16a4.78 4.78 0 0 1-4.56 6.22Z"/><path class="cls-6" d="M166.05 691.79c-.9 1.32-2.73 2.91-6.42 4.39-.62.25-1.31.5-2 .75l-.67-2c.74-.24 1.4-.48 2-.72 4.23-1.71 5.39-3.39 5.71-4.25a147 147 0 0 0 1.38 1.83Z"/><path class="cls-6" d="M159.65 695.92a2.41 2.41 0 1 1-2.41-2.41 2.41 2.41 0 0 1 2.41 2.41Zm10.73 1.43a15.4 15.4 0 0 1-5.31 3.34c-.74.32-1.55.61-2.45.91l-.67-2c.84-.27 1.59-.55 2.26-.83a12 12 0 0 0 4.82-3.1l1.35 1.68Z"/><path class="cls-6" d="M165.08 700.59a2.41 2.41 0 1 1-2.41-2.4 2.4 2.4 0 0 1 2.41 2.4Zm9.92 2.14a15.62 15.62 0 0 1-5.14 3.2q-1.12.48-2.49.93l-.67-2c.85-.28 1.61-.56 2.28-.85a13.23 13.23 0 0 0 4.57-2.82c.5.51.98 1.03 1.45 1.54Z"/><path class="cls-6" d="M169.88 705.84a2.4 2.4 0 1 1-2.4-2.4 2.4 2.4 0 0 1 2.4 2.4Zm-8.64-25.37a54.71 54.71 0 0 0-6.91.39v-3.88a17.27 17.27 0 0 1 6.11-1c.39 1.64.63 3.16.8 4.49Z"/><path d="m126.18 389.58-2.67 144.13s27.23 8.78 54.69 2l5.87-166.54Z" style="fill:#050705"/><path class="cls-2" d="M54.9 504.74c0 9.91 0 18.85.24 26L56 680.86h21.39L91 540.58l5.33-35.84Z"/><path class="cls-8" d="M58.51 375.39s-2.89 52.07 18.3 59.61 105.51 24 107.26-65.87Z"/><path class="cls-8" d="M58.49 387.93 45.84 533.58s29.28 9.76 58.51-1.43l2.71-90.85Z"/><path class="cls-4" d="M97.1 723c-.67 13.23-42 8.68-48.67 4.7-2.55-1.53-3.62-4.49-3.82-8.07-.33-5.71 1.55-13 3.18-18.74 2.65-9.33 2.29-9.15 4.13-15.53 0 0-.48-10.36 13.08-14.32s18.53 21.85 20.84 26.81c2.12 4.55 10.36 10.77 11.22 22a25.89 25.89 0 0 1 .04 3.15Z"/><path class="cls-6" d="m57.64 693.7-1.09-1.7c.51-.33 12.47-8 22.88-3.44l-.79 1.82c-9.44-4.1-20.89 3.24-21 3.32Zm1.18 11.52-1.09-1.67c.51-.32 12.47-8 22.88-3.43l-.79 1.82c-9.44-4.14-20.89 3.2-21 3.28Zm-.59-5.76-1.09-1.67c.51-.32 12.47-8 22.88-3.43l-.79 1.82c-9.44-4.18-20.89 3.2-21 3.28Z"/><path class="cls-6" d="M59.21 693.18A2.24 2.24 0 1 1 57 691a2.23 2.23 0 0 1 2.21 2.18Zm.12 5.46a2.24 2.24 0 1 1-2.24-2.24 2.23 2.23 0 0 1 2.24 2.24Zm1.18 5.45a2.24 2.24 0 1 1-2.24-2.23 2.24 2.24 0 0 1 2.24 2.23Z"/><circle class="cls-6" cx="80.22" cy="700.87" r="2.23"/><path class="cls-6" d="M81.86 694.91a2.24 2.24 0 1 1-2.23-2.23 2.23 2.23 0 0 1 2.23 2.23Zm-.59-5.91a2.24 2.24 0 1 1-2.27-2.28 2.23 2.23 0 0 1 2.27 2.28Z"/><path class="cls-5" d="M97.1 723c-.67 13.23-42 8.68-48.67 4.7-2.55-1.53-3.62-4.49-3.82-8.07 4.35 2.48 12 5.57 23.45 5.78 14 .25 24.16-2.59 29-5.6a25.89 25.89 0 0 1 .04 3.19Z"/><path class="cls-6" d="M70.85 675.09a22.09 22.09 0 0 0-11.64 2.32l.6 4.19s7.51-2.21 12.47-1.88a9.85 9.85 0 0 0-1.43-4.63Z"/><path d="m100.1 138.9-53.52 26.32 18.3 102.23-11.07 119.13s90.07 19.3 134.55-1.18l-4.12-226.91L139.76 141Z" style="fill:#dd342c"/><path class="cls-2" d="m134.85 117.14-1.8 24.12-.82 11.06c-14.11 10-31-3.87-31-3.87l-6.72-38.55c6.51-4.22 22.55 1.73 32.46 4.68 4.67 1.42 7.88 2.56 7.88 2.56Z"/><path class="cls-10" d="m134.85 117.14-1.8 24.12c-16.26-4.07-29.52-27-29.52-27l23.44.28c4.67 1.46 7.88 2.6 7.88 2.6Z"/><path class="cls-2" d="M187.14 52.73v2.77c-.06 2.92-.18 5.94-.37 9 0 .29 0 .58-.05.87-.3 4.93-.76 10-1.29 15.15-.13 1.1-.25 2.2-.38 3.3-.4 3.55-.85 7.08-1.32 10.56-.09.69-.19 1.38-.29 2.08-.19 1.38-.39 2.74-.59 4.1-.43 3-.88 5.86-1.32 8.65a31.64 31.64 0 0 1-37.13 26.09c-17.26-3.27-34.87-7.76-48.32-13.54 0 0-.19-.39-.53-1.14a135.84 135.84 0 0 1-8-24.12 137.41 137.41 0 0 1-3-49.18C89.78 6.58 176 2.92 186 36.52c.07.39.14.78.2 1.18a100.06 100.06 0 0 1 .94 15.03Z"/><path d="M128.62 89.7c0 5.09-5.69 9.23-12.72 9.23s-12.72-4.14-12.72-9.23 5.7-9.24 12.72-9.24 12.72 4.14 12.72 9.24Zm56.79-9.15c-.13 1.1-.25 2.2-.38 3.3-.4 3.55-.85 7.08-1.32 10.56-.09.69-.19 1.38-.29 2.08l-.36 2.43c-6.77-.22-12.15-4.27-12.15-9.23s5.69-9.23 12.72-9.23a17.39 17.39 0 0 1 1.78.09Z" style="opacity:.5;fill:#f88968"/><path class="cls-12" d="M187.14 52.72v2.65c-5.49-5-4.09-17.66-4.09-17.66a10.75 10.75 0 0 1 3.2 0 100.23 100.23 0 0 1 .89 15.01Zm-91.61 67.93a136.74 136.74 0 0 1-8.06-24.12l8.64 3.19s2.61 13.4-.58 20.93Zm43.22-45.25c0 3.54-1.5 6.42-3.44 6.44s-3.55-2.82-3.59-6.35 1.5-6.41 3.44-6.44 3.55 2.82 3.59 6.35Zm36.51 0c0 3.54-1.5 6.42-3.44 6.44s-3.55-2.82-3.59-6.35 1.5-6.41 3.44-6.44 3.55 2.82 3.59 6.35Z"/><path class="cls-2" d="M97.32 69.91s-10-11.8-18.13-4.8c-9 7.72-1.73 33.43 16.7 32.63Z"/><path class="cls-10" d="M96.15 92.14a1.62 1.62 0 0 1-1.5-1.42c-1.68-13.17-9.66-15-9.74-15a1.62 1.62 0 0 1 .67-3.17c.42.09 10.33 2.35 12.29 17.78a1.63 1.63 0 0 1-1.41 1.82Z"/><path class="cls-10" d="M85.7 84a1.62 1.62 0 0 1-1-.41 1.6 1.6 0 0 1-.16-2.27 9.15 9.15 0 0 1 8.64-2.6 1.62 1.62 0 0 1-.67 3.17A6 6 0 0 0 87 83.45a1.66 1.66 0 0 1-1.3.55Zm72.3 28.59a32.67 32.67 0 0 1-23-10.83 1.86 1.86 0 1 1 2.78-2.48c12.39 13.91 31.39 8.66 31.58 8.61a1.86 1.86 0 0 1 1 3.58 40 40 0 0 1-12.36 1.12Zm-5.43 8.35a19.24 19.24 0 0 1-13.71-6.65 2 2 0 1 1 3.13-2.38c.23.29 5.32 6.65 15.75 4.79a2 2 0 1 1 .69 3.87 24.64 24.64 0 0 1-5.86.37Zm3.1-26.05a1.84 1.84 0 0 1-1.35-.71 1.86 1.86 0 0 1 .32-2.61l4.92-3.85-4.31-1.07a1.85 1.85 0 0 1-1.39-1.49l-2-11.83a1.86 1.86 0 0 1 3.67-.63l1.83 10.63 6.81 1.67a1.87 1.87 0 0 1 1.38 1.42 1.84 1.84 0 0 1-.68 1.85l-7.93 6.21a1.88 1.88 0 0 1-1.27.41Z"/><path class="cls-12" d="M83.48 63S70.2 39.43 73 29.41s12.81-10.49 12.81-10.49S106.23-2 137 .28c25.48 1.87 50.14-3.73 53.9 3.72 3.47 6.87-11.65 11.65-11.65 11.65s12.59-.93 15.38 2.33-.14 11-13.23 10.14c0 0 10.9.58 13.7 6.17s-9.79 7.69-21 5.36-56.1-2.08-65.92 4.67c0 0 2.1 12.34-4 17.24 0 0 4.66 16.32.23 20.28S97.05 63.26 83.48 63Z"/><path class="cls-12" d="M141.5 57v6.09s-11.13-2-18.68 2.67l-.88-5.07s6.36-6.32 19.56-3.69Zm21.81 0v6.09s11.13-2 18.69 2.67l.87-5.07s-6.36-6.32-19.56-3.69Z"/><path d="M159.21 289.5v128h139.14v-128Zm91.27 21h-43.4a5.38 5.38 0 1 1 0-10.75h43.4a5.38 5.38 0 1 1 0 10.75Z" style="fill:#ea6b12"/><path d="M167.97 401.55h48.97V406h-48.97zm0-11.5h48.97v4.45h-48.97zm67.88-71.23h52.97v34.69h-52.97zm0 40.99h52.97V365h-52.97zm0 41.37h52.97v5.19h-52.97z" style="fill:#333"/><path class="cls-2" d="M223.61 291.15s10 1.26 15.14 6.63c1.35 1.4-1.93 5.1-5.06 4.24 0 0 3.35 1.79 2.95 3.77-.86 4.34-4.37 3.23-4.37 3.23s2.29 3.77.59 6.17c-1.89 2.68-6.1 1.35-6.1 1.35s5 1.79 1.87 6.1c-2.43 3.3-26.19-6.2-34.55-20.26 0 0 4.2-12.7 7.72-14.57 0 0 7.7-3.33 14.61-3.74 0 0 9.47-2.65 7.2 7.08Z"/><path class="cls-3" d="M56.85 161c-13.56-1.84-21.53 4.4-24.49 11-5.25 11.73 3.4 29.47 12 40.06 9.18 11.29 30.31 27.19 49.91 48 0 0 24.92 23.64 101.53 44.65l6.2-17.49a193.92 193.92 0 0 1-29.09-19.92c-13.25-11.31-46.58-29.83-46.58-29.83S69.53 162.74 56.85 161Z"/></g></g></svg>