<svg xmlns="http://www.w3.org/2000/svg" viewBox="0 0 573.16 675.48"><defs><clipPath id="clip-path"><path d="M146 86.1c.72.43 1.39 1 2.14 1.35a12.36 12.36 0 0 1 2.68 1.45c.81.72 1.2 1.77 2 2.52a6.1 6.1 0 0 0 3.26 1.42c2.26.34 5.53.39 7-1.64 1.29-1.73 1.26-4.23 1.18-6.28-1-24.91 6.31-37.42 15.95-42.63 11.79-6.29 22.37-1.11 35.21-3.07 9.06-1.39 21.27-10 12.55-23.2a3.63 3.63 0 0 0-5.58-.45c-.83.88-2.32 1.18-4.41 1.2-8.95.08-23.93-8-32.47-11.08C142-10 128.39 12.41 124.83 21.19a3.51 3.51 0 0 1-4.12 2c-12.65-3-26.76 22.3-18.13 53.31 7.12 25.57 20.08 39.22 29.06 47.5a21.42 21.42 0 0 0 6.63 3.38c3 1 2.11-6.7 2.07-8.45a63.64 63.64 0 0 1 .31-7.69c.28-2.72.86-5.19-.76-7.65a37.5 37.5 0 0 0-2.77-3.16 11 11 0 0 1-2.31-8.33 6.25 6.25 0 0 1 1.68-3.87 11.9 11.9 0 0 1 3.92-2.37 6.47 6.47 0 0 1 4.59-.26 6.22 6.22 0 0 1 1 .5Z" style="fill:none"/></clipPath><style>.cls-3{fill:#333028}.cls-4{fill:#3c2418}.cls-5{fill:#dfb492}.cls-7{fill:#3e3e5c}.cls-18{fill:#000100}.cls-19{fill:#1a1a1a}.cls-20{fill:#423e36}.cls-21{fill:#2b2923}.cls-23{fill:#e7b386}.cls-24{fill:#562b17}.cls-28{fill:#00a651}</style></defs><g style="isolation:isolate"><g id="Capa_2" data-name="Capa 2"><g id="Información"><path class="cls-3" d="M282.28 295.31h113.83v10.49H282.28z"/><path class="cls-4" d="M208.81 29.6s12.45 14.52 6.51 32.59c-5.21 15.88-44.62-33.36-6.51-32.59Z"/><path class="cls-5" d="M193.71 143.7c-33 0-51-23.49-51.57-54.06-.52-25.91 3.85-51.58 38.07-53.75 40.19-2.54 35.9 24.31 37.34 50.46 3.63 30.27-12.38 57.35-23.84 57.35Z"/><path class="cls-5" d="M201.45 138c-2.56 13.46-37.77 5.25-46 6.67l6.76-10.82Z"/><path class="cls-5" d="M122.56 166.85s7.59-29 8.08-37.53c.65-11.3 2-35.63 2-35.63L155 99.25 165.15 110s-3.14 73.85 5.27 82.52Z"/><path class="cls-5" d="M134.6 27.85c7.52-13.2 56.13-2.61 68.49-4.47-7.7 6.16-20.85 3.5-31.5 14.94-20.27 21.76-22.32 112.74 26.86 103.47-10.17 10.21-58.61-1.22-61.45-40.25 0 0-16.34-49.22-2.4-73.69Z"/><path d="M297.58 642h-21S242.79 472.38 266 427h42.86Z" style="fill:#2c2b40"/><path class="cls-7" d="M303.4 642h-32.29s-18-169.59 6.46-215h42.87Z"/><path class="cls-7" d="M281.73 429.19h-170.2S98.42 417.75 98.42 376l87.81-21.12S285.67 380.35 301.4 389s19.9 24.59 18.91 38.83Z"/><path d="m196.9 355.43 4.45 1.05c-3.31 6.15-25.78 41.29-101.52 39.45A139.48 139.48 0 0 1 98.42 376l94.2-20.65Z" style="fill:#313147"/><path d="M97.81 380.55c.77 16 74.81 2.43 104.06-25.08a86.43 86.43 0 0 1-10.6-38.47c-.47-13.48-1.2-57.16-2.45-72.38-3.89-47.25-18.37-78.95-49.48-83.49-33.42-4.87-45 33.8-45 66.95l3.42 140" style="fill:#9b0b0b"/><path class="cls-5" d="M151.43 88a12.72 12.72 0 1 1-13.74-11.61A12.71 12.71 0 0 1 151.43 88Z"/><path class="cls-5" d="M139.42 96.82a7.54 7.54 0 0 0 3.84-1.56c-.21 0-.38.15-.6.17a6.69 6.69 0 1 1-1.13-13.33c.22 0 .41.07.63.07a7.68 7.68 0 0 0-4.06-.9 7.8 7.8 0 0 0-7.1 8.43m28.68 77.69c-31.31-6.46-51.8 128.6-15.85 142 18 6.71 19.23-12.14 22.61-53.44s12.56-84.58-6.76-88.56Z"/><path d="m171.31 258.41-49.82-5.85S121 164.93 154.31 166s17 92.41 17 92.41Z" style="fill:#a80909"/><path class="cls-5" d="M273.75 307.13c-11.53.9-24 .88-24 .88s-7.8-12.37-1.38-13.44 24-13.75 32.33-14.9c5.17-.72 19 7.05 20.25 11-1.84 2.3-3.69 3-7 2.3 0 0-4.73-3.87-10.49-3.41s-7.73 3.41-7.73 3.41c-2.19 3.2-2.44 8.34-1.98 14.16Z"/><path class="cls-5" d="M275.81 293c-4 10.31 16.58 3 17.16 9.06.27 2.83-9.12 4.32-19.22 5.11-5.27-4.86-2.75-9.56 2.06-14.17Z"/><path class="cls-5" d="M301 290.66c1.23 3.94-4 13.13-7 13.13s1.23-8.86 0-10.83Z"/><path d="M295.34 642c9.57-4.25 9.83-2.12 20.92 4.16 10.21 5.78 14.89 9.71 22.89 10.53s20 2.31 17 12.54c-.67 2.29-11.49 2.67-30.06 2.67-17.22 0-25.5-3.76-39.5-3.76l-18.07-.87c-3.71 0-5.14-2.88-5.43-6.6s5.25-17.13 6.33-18.25" style="fill:#772f0f"/><path d="M357.36 669.73c0-.85-1.25-.53-3 0s-19.93 2.55-34.36 1.52-21.95-3.45-31.48-4.75a160.39 160.39 0 0 0-22.52-1.08c-2 0-1.1.29-1.18 1.18 1.43-.5 0 0 0 0v1.4h2.74c4.37 0 12.12-1.14 20.54 0 3.38.46 6.83.51 10.13 1.15a167.8 167.8 0 0 0 21.77 3.08c2.85.21 5.86.29 8.87.29 12.08 0 24.13-1.36 25.78-1.83 1-.22 1.95-.47 2.72-.69a1.24 1.24 0 0 0-.01-.27Z" style="fill:#2b190f;stroke:#2b190f;stroke-miterlimit:10;stroke-width:1.14px"/><path class="cls-5" d="M196.75 292.15c-2.66-.64-12.73-4.26-20.62-3.17-6.13.84-12.22-6-11.74-12.16l.07-.86-29.05-4.79s.14 18.12-.28 26.83c-.27 5.72 4.53 11.59 9.61 12.89a95.81 95.81 0 0 0 14.89 2.11c19.42 1.12 50.75-.92 63-2.45"/><path class="cls-5" d="M252.25 293.74s-46.5-1.46-87.7-15.86l1.3 34.67s28.37 3.87 84.82-4.54Z"/><path style="fill:#d3b08b" d="M218.96 307.39h353.63v40.26H218.96z"/><path style="fill:#333" d="M218.96 347.65h353.61v10.59H218.96z"/><path style="fill:#edd7bf" d="M219.55 306.42h353.61v11.1H219.55z"/><path style="opacity:.64;fill:#333" d="M218.95 346.07h353.59v325.32H218.95z"/><path class="cls-3" d="M505.6 303h-19.49c-5.29-33.81-17.81-58.19-37.86-77.13h15.81c16.49 16.23 28.23 45.63 41.54 77.13Z"/><path class="cls-3" d="M511.5 306.63h-78.6v-4.42l78.6-4.02v8.44zm-21.81-173.97-12.35-31.13-34.35 170.88 23.76 1.33 22.94-141.08z"/><path class="cls-3" d="M472.53 71.51c-2.07.3-9.71 54.58-19.22 108.17S432.42 286.16 434.54 287c4.24 1.74 16.34 3.41 36.61-106.29 19.04-103.05 5.52-109.81 1.38-109.2Z"/><path class="cls-4" d="M200.88 9c11.1 0 8.42 6.2 8.42 6.2 4.27-1.44 3.77 3.65 3.77 3.65s6.84-.34 3.86 7.07c0 0 4.57 3.69-3.86 8.65 0 0 2.08 4.56-4.26 9.32s0 0-.44.25c-10.81 6.09-17.57-6.77-28.73-.64-9.58 5.25-17.5 16.94-17.91 42.8 0 2.71-3.2 3.58-6.08 3.54-3.07 0-4.64-1.55-7.16-2.52l-2.82-3.4s-.16.08-.4.17a10.66 10.66 0 0 1-4.68.77c-4.07 1.86-6.83 5.69-6.43 10.18a10.48 10.48 0 0 0 5.55 8.07c-.33 5.5-.85 14.36-1.26 21-6.17-9.75-26.31-17.71-34.8-48.66-7.06-25.77 5.53-59.29 12.61-61.94 5.36-2-4.25 2.65 0 0 7.08-4.44 21.57-8.75 40.64-11.57a41.76 41.76 0 0 1 11.38 0c7.25-.88 8.83 2.29 8.83 2.29 6.35-1.59 9.85 2 9.85 2 7.6-3.58 9.18 1.18 9.18 1.18 3.15 3.16 4.74 1.59 4.74 1.59Z"/><path class="cls-4" d="m128.2 31.79-4.63-2.55c-.26-.15-.51-.29-.75-.45l-3.2-2c-12.1-5-14.38-2.49-18.61 3.1L65.89 76.28A11.82 11.82 0 0 0 69.1 93.5l72.48 47.74a14.26 14.26 0 0 0 16.59-.76L170 131a12 12 0 0 0 4.57-10.21l30-57.46c-.89-11.94-20.22-21.44-38.22-21.59a80.52 80.52 0 0 1-38.15-9.95Z" style="clip-path:url(#clip-path)"/><path class="cls-18" d="M64.29 662.59a4.8 4.8 0 0 1-3.73-8.1c9.68-10 33.52-25.57 74.11-25.57 40.17 0 62.56 15.28 74.35 25.25 3.47 3 1.24 8.42-3.4 8.42h-13.4a5.1 5.1 0 0 1-3.9-1.75c-4.59-5.32-18.81-21-53.65-21-33.37 0-47.38 14.35-50.82 20.24a5.1 5.1 0 0 1-4.43 2.48Zm52.38-38.41h41.83l-7.77-48.81h-26.29l-7.77 48.81z"/><path class="cls-19" d="M145.29 481.73c10.1 0 30.16-6.89 32.72-7.78a1.19 1.19 0 0 0 .73-1.52 1.21 1.21 0 0 0-1.52-.73c-7.79 2.72-29.29 9.32-34.9 7.28-4.68-1.71-5.25-18-4.51-27.88a1.19 1.19 0 0 0-1.1-1.28h-.08a1.2 1.2 0 0 0-1.19 1.1c-.21 2.8-1.83 27.43 6.06 30.31a11.61 11.61 0 0 0 3.79.5Z"/><path class="cls-19" d="M184 461.7c-5.2 1.37-12.9 6.91-11.83 10.95s10.5 5.06 15.7 3.68 8.55-5.76 7.48-9.8-6.16-6.21-11.35-4.83Z"/><path class="cls-18" transform="rotate(90 136.315 490.695)" d="M74.38 480.35h123.86v20.69H74.38z"/><path class="cls-18" transform="rotate(90 137.385 534.345)" d="M25.97 526.51H248.8v15.67H25.97z"/><path class="cls-19" d="M143.92 486.68c9.54 3.29 30.75 3.32 33.47 3.31a1.19 1.19 0 0 0 1.18-1.2 1.21 1.21 0 0 0-1.2-1.19c-8.25 0-30.73-.73-35.37-4.49-3.87-3.13.91-18.73 4.82-27.82a1.19 1.19 0 0 0-.62-1.57h-.08a1.19 1.19 0 0 0-1.48.65c-1.11 2.57-10.67 25.33-4.14 30.62a11.21 11.21 0 0 0 3.42 1.69Z"/><path class="cls-19" d="M184.86 482.05c-5.37-.39-14.45 2.34-14.75 6.51s8.27 8.2 13.64 8.59 10-2.67 10.26-6.83-3.79-7.87-9.15-8.27ZM64.48 419.81h162.45a2.44 2.44 0 0 1 2.44 2.44v12.91a2.44 2.44 0 0 1-2.44 2.44H62v-15.34a2.44 2.44 0 0 1 2.44-2.44Z"/><path class="cls-18" d="M225.81 453.66H69.59A7.55 7.55 0 0 1 62 446.1V278.74c0-3.25-3-5.88-6.68-5.88s-6.68 2.63-6.68 5.88v179.12a7.56 7.56 0 0 0 7.56 7.55h164.6a10.56 10.56 0 0 0 10.64-9.41v-.86c.04-3.27-1.94-1.48-5.63-1.48Z"/><path class="cls-19" d="M73.74 402.85a13.64 13.64 0 0 1-13.61-13.61V160.56c0-11.8 8.87-13.56 16.33-13.56 7.49 0 10.89 7 10.89 14.51v227.73a13.65 13.65 0 0 1-13.61 13.61Z"/><path class="cls-18" d="M69.2 155.75v237.53a8.81 8.81 0 0 0 8.8 8.81 8.8 8.8 0 0 0 8.67-7.23c4-22.11 15.66-89.49 15.66-124.06 0-34.25-11.17-95.77-15.17-116.7a8.79 8.79 0 0 0-8.69-7.1H78a8.8 8.8 0 0 0-8.8 8.75ZM54.87 437.09h175.46a1.15 1.15 0 0 1 1.15 1.15v18.68H54.87v-19.83Z"/><path class="cls-20" d="M144.59 648.17h2.11v21.24h-2.11zm-18.31 0h2.11v21.24h-2.11z"/><path class="cls-21" d="M127.41 644.96h8.38v27.65h-8.38zm9.86 0h8.38v27.65h-8.38z"/><path class="cls-21" d="M133.04 648.17h8.38v21.24h-8.38z"/><path d="M128.47 646.52h6.26v11.89h-6.26zm9.5 0h6.97v11.89h-6.97z" style="fill:#36322b;mix-blend-mode:screen;opacity:.2"/><path class="cls-21" d="M83.88 661.41a13.81 13.81 0 1 1-13.81-13.81 13.81 13.81 0 0 1 13.81 13.81Z"/><path class="cls-20" d="M77.51 661.41a7.44 7.44 0 1 1-7.44-7.41 7.44 7.44 0 0 1 7.44 7.41Z"/><path class="cls-21" d="M219.35 661.67a13.81 13.81 0 1 1-13.81-13.81 13.81 13.81 0 0 1 13.81 13.81Z"/><path class="cls-20" d="M213 661.67a7.44 7.44 0 1 1-7.43-7.43 7.43 7.43 0 0 1 7.43 7.43Z"/><path class="cls-23" d="M109.32 77.46c.08 31.94-5.44 50.69 37.9 59.87 15.53 3.29 36.7 8.22 45.11 9.32 14.21 1.87 19.72-14.83 26.34-50.94 5.3-28.92-4.75-63.11-4.75-63.11-11.27-14.22-42.21-13.29-60.52-13.25-33.88.09-44.17 20.16-44.08 58.11Z"/><path class="cls-23" d="M218 63.23s4.2 34.63 5.46 37.56 2.45 7.95-6.68 7.83c-9.49-.11-11.74-3.9-11.74-3.9Z"/><path class="cls-24" d="M159.07 86.87s1.94 35.32 22.6 39.87c2 .45 3.07 4.89 4.58 6.45 11.67 12.05 21.2.59 21.2.59l1.57.15a22.65 22.65 0 0 1-2.86 6.36c-2.53 4.49-3.89 7-7.46 6.68-39.33-2.22-49.7-16.48-51.7-21.23-3.43-7.97 9.54-53.25 12.07-38.87Z"/><path class="cls-24" d="M192.4 111.57c7.7.41 22.29-.72 23.11 4.67.33 2.59-1.64 5.65-2.5 5.81-2.51.06-11.67-1.44-14.81-2-5.1-1-9.12 4-9.1 11.25s-2 5.28 2.66 7-1.82 3.57-1.82 3.57l-7.88-6.52s-1.62-24.43 10.34-23.78ZM161 122.19a36.42 36.42 0 0 1-3.26-5.71l-.46-1.48c2.32 4.9 3.72 7.19 3.72 7.19Z"/><path class="cls-24" d="M138.76 52.19a48.47 48.47 0 0 1 2.57-11.62C142.86 36 150 29.12 153.6 24.16c.4-.63.81-1.24 1.25-1.85a9.77 9.77 0 0 1 1.89-2.31c2.85-3 6.77-5.53 12.72-7.23l1.52-.45c.71-.37 1.41-.74 2.11-1.14a28.33 28.33 0 0 1 9.56-3c5.69-2.25 10.56-4.37 15.27-5.58a23 23 0 0 1 10.32 3 27.32 27.32 0 0 1 7.28 6.4c2.25 2.68 4.57 5.42 5.53 8.84A35.79 35.79 0 0 1 222.22 31c0 4-1.42 7.37-2.08 11.22-.55 3.19.47 6.35-1.23 9.32a20.42 20.42 0 0 1-1.66 2.46c-1.09.49-2.36 1-3.9 1.54-6 2.16-8 .45-12.12-2.06a27.86 27.86 0 0 1-4.81-1.92 61.22 61.22 0 0 0-7.79-3.27c-34.41-4.62-28 47.41-26.92 53.72s-1 13.84-2.9 5.65c-.11-.47-1.86 1.37-2.31-2.49 0-.08.06-.17 0 0-1.58 3.43-.33 7.84 1.26 11.33.64 2.1 1.76 5.7 1.76 5.7a164.35 164.35 0 0 1-10.07-18.25c-3.24-7.14-8.49-30-9.8-39.48-1.65-5.88-1.95-9.1-.89-12.28Z"/><path class="cls-24" d="M197.92 2.64a64.39 64.39 0 0 0-21.16-.9C166.11 3.28 165.94 0 158.87 0s-19 2.92-26.05 6.17C107.1 17.94 107.39 30.39 103.76 36S93.92 53.58 96 60.2s4.2 8.64 2.14 17.8.49 6.88 3.65 14 .82 6.87 3.17 13 .08 6.7 4.21 10.17 2.33 4.17 4.67 7.17 1.14 4 5.27 5.77 19.71 12.69 29.88 3.25c12.47-11.57 6.25-17.14 7.39-18.5s-3.6-25.28-3.6-25.28-4.45-16.27-3.94-18.06-.31-13 2.29-18.06 27-29.07 28.15-29.83 18.64-18.99 18.64-18.99Z"/><circle cx="201.22" cy="84.86" r="4.19" style="fill:#212121"/><path class="cls-24" d="M206.73 66.07s3.41 4.46 1.9 6.56c0 0-14.44 2.5-22.22 7.11 0 0-1.29-6.54 4.85-9.34s15.47-4.33 15.47-4.33Z"/><path d="M193.94 122.18a21.86 21.86 0 0 0 1.6 4.73 22.86 22.86 0 0 0 1.69 3 16.58 16.58 0 0 0 10.57 7.37s5.5-12.66 4.49-12.71a85.11 85.11 0 0 1-18.35-2.39Z" style="fill:#fff"/><path d="M195.54 126.91a22.86 22.86 0 0 0 1.69 3 40.68 40.68 0 0 0 9.48.41 39 39 0 0 1-11.17-3.41Z" style="fill:#e2e2e2"/><path class="cls-28" d="M243.92 92.36a1.16 1.16 0 0 1 1.16-1.16h2.33a1.16 1.16 0 0 1 0 2.32h-2.33a1.16 1.16 0 0 1-1.16-1.16Zm9.3 0a1.17 1.17 0 0 1 1.17-1.16h2.32a1.16 1.16 0 1 1 0 2.32h-2.32a1.17 1.17 0 0 1-1.17-1.16Zm9.31 0a1.16 1.16 0 0 1 1.16-1.16H266a1.16 1.16 0 1 1 0 2.32h-2.33a1.16 1.16 0 0 1-1.14-1.16Zm9.3 0A1.16 1.16 0 0 1 273 91.2h2.33a1.16 1.16 0 1 1 0 2.32H273a1.16 1.16 0 0 1-1.17-1.16Zm9.31 0a1.16 1.16 0 0 1 1.16-1.16h2.33a1.16 1.16 0 1 1 0 2.32h-2.33a1.16 1.16 0 0 1-1.16-1.16Zm9.3 0a1.16 1.16 0 0 1 1.17-1.16h2.32a1.16 1.16 0 0 1 0 2.32h-2.32a1.16 1.16 0 0 1-1.17-1.16Zm9.3 0a1.17 1.17 0 0 1 1.17-1.16h2.33a1.16 1.16 0 0 1 0 2.32h-2.33a1.17 1.17 0 0 1-1.17-1.16Zm9.31 0a1.16 1.16 0 0 1 1.16-1.16h2.33a1.16 1.16 0 0 1 0 2.32h-2.33a1.16 1.16 0 0 1-1.16-1.16Zm9.31 0a1.16 1.16 0 0 1 1.16-1.16h2.33a1.16 1.16 0 0 1 0 2.32h-2.33a1.16 1.16 0 0 1-1.16-1.16Zm9.3 0a1.16 1.16 0 0 1 1.16-1.16h2.33a1.16 1.16 0 1 1 0 2.32h-2.33a1.16 1.16 0 0 1-1.16-1.16Zm9.3 0a1.17 1.17 0 0 1 1.17-1.16h2.32a1.16 1.16 0 1 1 0 2.32h-2.32a1.17 1.17 0 0 1-1.13-1.16Zm9.31 0a1.16 1.16 0 0 1 1.16-1.16h2.33a1.16 1.16 0 1 1 0 2.32h-2.33a1.16 1.16 0 0 1-1.16-1.16Zm9.3 0a1.17 1.17 0 0 1 1.17-1.16h2.32a1.16 1.16 0 1 1 0 2.32h-2.32a1.17 1.17 0 0 1-1.17-1.16Zm9.31 0A1.16 1.16 0 0 1 366 91.2h2.33a1.16 1.16 0 0 1 0 2.32H366a1.16 1.16 0 0 1-1.12-1.16Zm9.3 0a1.16 1.16 0 0 1 1.17-1.16h2.32a1.16 1.16 0 1 1 0 2.32h-2.32a1.16 1.16 0 0 1-1.17-1.16Zm9.31 0a1.16 1.16 0 0 1 1.16-1.16H387a1.16 1.16 0 0 1 0 2.32h-2.33a1.16 1.16 0 0 1-1.18-1.16Zm9.3 0A1.17 1.17 0 0 1 394 91.2h2.32a1.16 1.16 0 1 1 0 2.32H394a1.17 1.17 0 0 1-1.21-1.16Zm9.3 0a1.17 1.17 0 0 1 1.17-1.16h2.33a1.16 1.16 0 1 1 0 2.32h-2.33a1.17 1.17 0 0 1-1.17-1.16Zm9.31 0a1.16 1.16 0 0 1 1.16-1.16h2.33a1.16 1.16 0 1 1 0 2.32h-2.33a1.16 1.16 0 0 1-1.16-1.16Zm9.31 0a1.16 1.16 0 0 1 1.16-1.16h2.33a1.16 1.16 0 1 1 0 2.32h-2.33a1.16 1.16 0 0 1-1.16-1.16Zm9.3 0a1.16 1.16 0 0 1 1.16-1.16h.92a1.16 1.16 0 1 1 0 2.32h-.92a1.16 1.16 0 0 1-1.17-1.16Z"/><path class="cls-28" d="m427.88 134.72-1.51-.34a1.16 1.16 0 1 1 .51-2.27l1.51.34a1.16 1.16 0 0 1-.26 2.3 1.07 1.07 0 0 1-.25-.03Zm-8.32-1.87-2.27-.51a1.16 1.16 0 1 1 .51-2.27l2.27.51a1.16 1.16 0 1 1-.51 2.27Zm-9.08-2-2.27-.52a1.16 1.16 0 0 1 .52-2.26l2.27.51a1.16 1.16 0 0 1-.26 2.29 1.18 1.18 0 0 1-.26-.06Zm-9.07-2.05-2.27-.51a1.16 1.16 0 0 1 .51-2.27l2.27.51a1.16 1.16 0 1 1-.51 2.27Zm-9.08-2-2.27-.51a1.17 1.17 0 0 1-.88-1.39 1.15 1.15 0 0 1 1.39-.88l2.27.51a1.16 1.16 0 1 1-.51 2.27Zm-9.08-2-2.27-.51a1.16 1.16 0 0 1 .52-2.27l2.27.51a1.17 1.17 0 0 1-.26 2.3Zm-9.07-2-2.27-.51a1.16 1.16 0 0 1-.88-1.39 1.15 1.15 0 0 1 1.39-.88l2.27.51a1.17 1.17 0 0 1 .88 1.39 1.18 1.18 0 0 1-1.14.91 1.07 1.07 0 0 1-.25-.2Zm-9.08-2-2.27-.51a1.16 1.16 0 0 1 .51-2.27l2.27.51a1.17 1.17 0 0 1 .88 1.4 1.16 1.16 0 0 1-1.14.9 1.07 1.07 0 0 1-.25-.25Zm-9.08-2-2.27-.51a1.16 1.16 0 1 1 .52-2.27l2.27.51a1.17 1.17 0 0 1-.26 2.3Zm-9.08-2-2.26-.52a1.16 1.16 0 1 1 .51-2.27l2.27.52a1.16 1.16 0 0 1-.26 2.29Zm-9.07-2-2.27-.51a1.16 1.16 0 0 1 .51-2.27l2.27.51a1.16 1.16 0 0 1-.26 2.3 1.07 1.07 0 0 1-.25-.38Zm-9.08-2-2.27-.51a1.17 1.17 0 0 1-.88-1.39 1.15 1.15 0 0 1 1.39-.88l2.27.51a1.16 1.16 0 1 1-.51 2.27Zm-9.08-2-2.27-.51a1.16 1.16 0 0 1 .51-2.27l2.27.51a1.16 1.16 0 1 1-.51 2.27Zm-9.07-2-2.27-.51a1.16 1.16 0 0 1-.88-1.39 1.15 1.15 0 0 1 1.39-.88l2.27.51a1.16 1.16 0 0 1-.26 2.3 1.07 1.07 0 0 1-.25-.51Zm-9.08-2-2.27-.51a1.16 1.16 0 1 1 .51-2.27l2.27.51a1.16 1.16 0 0 1-.26 2.3Zm-9.08-2-2.27-.51a1.17 1.17 0 0 1-.88-1.39 1.16 1.16 0 0 1 1.39-.88L293 102a1.16 1.16 0 1 1-.51 2.27Zm-9.08-2-2.27-.51a1.16 1.16 0 0 1 .52-2.27l2.27.52a1.16 1.16 0 0 1-.26 2.29Zm-9.08-2-2.26-.51a1.16 1.16 0 0 1 .51-2.27l2.27.51a1.17 1.17 0 0 1 .88 1.39 1.18 1.18 0 0 1-1.14.91Zm-9.07-2L263 97.58a1.16 1.16 0 1 1 .51-2.26l2.27.51a1.16 1.16 0 0 1-.25 2.29Zm-9.08-2-2.27-.51a1.16 1.16 0 1 1 .52-2.27l2.27.51a1.17 1.17 0 0 1-.26 2.3Zm-9.08-2-2.26-.51a1.17 1.17 0 0 1-.88-1.39 1.15 1.15 0 0 1 1.39-.88l2.27.51a1.17 1.17 0 0 1 .88 1.39 1.18 1.18 0 0 1-1.14.91ZM0 403.66v-5.85a2.93 2.93 0 1 1 5.85 0v5.85a2.93 2.93 0 1 1-5.85 0Zm0-23.41v-5.86a2.93 2.93 0 0 1 5.85 0v5.86a2.93 2.93 0 1 1-5.85 0Zm0-23.42V351a2.93 2.93 0 1 1 5.85 0v5.85a2.93 2.93 0 1 1-5.85 0Zm0-23.41v-5.86a2.93 2.93 0 0 1 5.85 0v5.86a2.93 2.93 0 0 1-5.85 0ZM0 310v-5.85a2.93 2.93 0 1 1 5.85 0V310A2.93 2.93 0 1 1 0 310Zm0-23.41v-5.86a2.93 2.93 0 1 1 5.85 0v5.86a2.93 2.93 0 0 1-5.85 0Zm0-23.42v-5.86a2.93 2.93 0 0 1 5.85 0v5.86a2.93 2.93 0 1 1-5.85 0Zm0-23.42v-5.85a2.93 2.93 0 1 1 5.85 0v5.85a2.93 2.93 0 1 1-5.85 0Zm0-23.41v-5.86a2.93 2.93 0 1 1 5.85 0v5.86a2.93 2.93 0 0 1-5.85 0Zm0-23.42v-5.85a2.93 2.93 0 1 1 5.85 0v5.85a2.93 2.93 0 1 1-5.85 0Zm0-23.42v-5.85a2.93 2.93 0 1 1 5.85 0v5.85a2.93 2.93 0 1 1-5.85 0Zm0-23.41v-5.85a2.93 2.93 0 1 1 5.85 0v5.85a2.93 2.93 0 1 1-5.85 0Z"/></g></g></g></svg>