<svg xmlns="http://www.w3.org/2000/svg" xmlns:xlink="http://www.w3.org/1999/xlink" viewBox="0 0 894 968.9" xml:space="preserve"><g opacity=".11"><defs><path id="a" d="M10.4 159.5h798.4v803.7H10.4z"/></defs><clipPath id="b"><use xlink:href="#a" overflow="visible"/></clipPath><path clip-path="url(#b)" fill="#DB4B55" d="M409.6 963.1c-220.1 0-399.2-180.3-399.2-401.8 0-221.6 179.1-401.8 399.2-401.8s399.2 180.3 399.2 401.8c0 221.6-179.1 401.8-399.2 401.8m0-798.4c-217.2 0-394 177.9-394 396.6 0 218.7 176.7 396.6 394 396.6 217.2 0 394-177.9 394-396.6 0-218.7-176.8-396.6-394-396.6"/></g><g opacity=".11"><defs><path id="c" d="M10.7 218h739v743.8h-739z"/></defs><clipPath id="d"><use xlink:href="#c" overflow="visible"/></clipPath><path clip-path="url(#d)" fill="#DB4B55" d="M749.7 589.9c0 205.4-165.4 371.9-369.5 371.9S10.7 795.3 10.7 589.9C10.7 384.5 176.1 218 380.2 218s369.5 166.5 369.5 371.9"/></g><g opacity=".11"><defs><path id="e" d="M820.7 4h65.8v66.3h-65.8z"/></defs><clipPath id="f"><use xlink:href="#e" overflow="visible"/></clipPath><path clip-path="url(#f)" fill="#DB4B55" d="M853.6 70.3c-18.2 0-32.9-14.9-32.9-33.1 0-18.3 14.8-33.1 32.9-33.1 18.2 0 32.9 14.9 32.9 33.1.1 18.3-14.7 33.1-32.9 33.1m0-65.8c-17.9 0-32.5 14.7-32.5 32.7s14.6 32.7 32.5 32.7 32.5-14.7 32.5-32.7-14.5-32.7-32.5-32.7"/></g><g opacity=".11"><defs><path id="g" d="M706.4 49.2h65.8v66.3h-65.8z"/></defs><clipPath id="h"><use xlink:href="#g" overflow="visible"/></clipPath><path clip-path="url(#h)" fill="#DB4B55" d="M739.3 115.4c-18.2 0-32.9-14.9-32.9-33.1 0-18.3 14.8-33.1 32.9-33.1 18.2 0 32.9 14.9 32.9 33.1 0 18.3-14.8 33.1-32.9 33.1m0-65.8c-17.9 0-32.5 14.7-32.5 32.7s14.6 32.7 32.5 32.7 32.5-14.7 32.5-32.7-14.6-32.7-32.5-32.7"/></g><g opacity=".11"><defs><path id="i" d="M774.5 146.5h46.2V193h-46.2z"/></defs><clipPath id="j"><use xlink:href="#i" overflow="visible"/></clipPath><path clip-path="url(#j)" fill="#DB4B55" d="M797.6 193c-12.7 0-23.1-10.4-23.1-23.2s10.4-23.2 23.1-23.2c12.7 0 23.1 10.4 23.1 23.2S810.4 193 797.6 193m0-46.2c-12.6 0-22.8 10.3-22.8 22.9 0 12.6 10.2 22.9 22.8 22.9 12.6 0 22.8-10.3 22.8-22.9 0-12.6-10.2-22.9-22.8-22.9"/></g><g opacity=".11"><defs><path id="k" d="M824.5 15.9h51.6v51.9h-51.6z"/></defs><clipPath id="l"><use xlink:href="#k" overflow="visible"/></clipPath><path clip-path="url(#l)" fill="#DB4B55" d="M876.1 41.8c0 14.3-11.6 26-25.8 26s-25.8-11.6-25.8-26c0-14.3 11.6-26 25.8-26s25.8 11.7 25.8 26"/></g><g opacity=".11"><defs><path id="m" d="M710 58.6h61.8v62.2H710z"/></defs><clipPath id="n"><use xlink:href="#m" overflow="visible"/></clipPath><path clip-path="url(#n)" fill="#DB4B55" d="M771.8 89.7c0 17.2-13.8 31.1-30.9 31.1-17.1 0-30.9-13.9-30.9-31.1 0-17.2 13.8-31.1 30.9-31.1 17.1 0 30.9 14 30.9 31.1"/></g><g opacity=".11"><defs><path id="o" d="M782.9 154.8h29.6v29.8h-29.6z"/></defs><clipPath id="p"><use xlink:href="#o" overflow="visible"/></clipPath><path clip-path="url(#p)" fill="#DB4B55" d="M812.4 169.7c0 8.2-6.6 14.9-14.8 14.9-8.2 0-14.8-6.7-14.8-14.9s6.6-14.9 14.8-14.9c8.2 0 14.8 6.7 14.8 14.9"/></g><path fill="none" d="M728.3 1640V159.8H111V1640"/><path fill="none" d="M111 159.8v793.1l51.6 5.3c9.7-3.4 69.2-49.5 77.7-43.8 97.6 66.7 233.9 46.2 306.5 11.7 22.2-10.6 56.4-31.3 56.4-31.3 25.1 60 125.2 58.1 125.2 58.1V159.8H111z"/></svg>