<svg xmlns="http://www.w3.org/2000/svg" xmlns:xlink="http://www.w3.org/1999/xlink" viewBox="0 0 273.1 678.8" xml:space="preserve"><defs><path id="a" d="M0-29.2h266v708H0z"/></defs><clipPath id="b"><use xlink:href="#a" overflow="visible"/></clipPath><g opacity=".16" clip-path="url(#b)"><defs><path id="c" d="M-128.6 0h398.7v684h-398.7z"/></defs><clipPath id="d"><use xlink:href="#c" overflow="visible"/></clipPath><path clip-path="url(#d)" fill="#739FD4" d="M-127 528.9c-10.7-76.4 62.2-384.5 93.3-510.8C-28.9-1.1.1-4.9 11 12.2c72.3 114.3 246.9 396.6 257.6 473.3 13.5 96.8-64.1 185-173.3 197-109.2 12-208.8-56.8-222.3-153.6"/><path clip-path="url(#d)" fill="#FFF" d="M87.3 684c-.7-.1-1.3-.6-1.4-1.2L-9.3 1.6C-9.4.8-8.8.1-7.9 0c.9-.1 1.7.5 1.8 1.2L89 682.4c.1.8-.5 1.5-1.4 1.6h-.3"/><path clip-path="url(#d)" fill="#FFF" d="M64.4 520.6c-.3 0-.5-.1-.8-.3-.7-.5-.9-1.3-.3-2L207.4 345c.5-.6 1.5-.8 2.2-.3.7.5.9 1.3.3 2L65.9 520c-.3.4-.9.6-1.5.6M59 481.9c-.2 0-.5-.1-.7-.2-.7-.4-.9-1.3-.5-2l128.5-173.3c.5-.7 1.5-.8 2.2-.4.7.4.9 1.3.5 2L60.5 481.3c-.3.4-.9.7-1.5.6m-7-50.2c-.3 0-.6-.2-.9-.4L-99.7 306.1c-.6-.5-.7-1.4-.1-2 .6-.6 1.6-.6 2.2-.1L53.3 429.3c.6.5.7 1.4.1 2-.4.3-.9.5-1.4.4M25.6 242.5c-.3 0-.5-.1-.8-.3-.7-.5-.8-1.4-.3-2l74.3-84.8c.5-.6 1.5-.7 2.2-.2.7.5.8 1.4.3 2L27 242c-.3.4-.9.5-1.4.5M12.7 150c-.3 0-.5-.1-.8-.3l-67.4-44.1c-.7-.5-.9-1.3-.3-2 .5-.6 1.5-.8 2.2-.3l67.4 44.1c.7.5.9 1.3.3 2-.3.5-.9.6-1.4.6m2.3 17c-.2 0-.4-.1-.6-.2l-75.5-36.3c-.8-.4-1.1-1.2-.6-1.9.4-.7 1.4-.9 2.2-.6L16 164.4c.8.4 1.1 1.2.6 1.9-.3.5-.9.8-1.6.7m63.9 456.9c-.3 0-.5-.1-.8-.3l-206-137.3c-.7-.5-.8-1.4-.3-2 .5-.6 1.5-.7 2.2-.3L80 621.4c.7.5.8 1.4.3 2-.3.4-.9.6-1.4.5"/></g></svg>