<svg xmlns="http://www.w3.org/2000/svg" xmlns:xlink="http://www.w3.org/1999/xlink" viewBox="0 0 283.4 694.6" xml:space="preserve"><switch><g><g opacity=".59"><defs><path id="a" d="M-6.6-8H405v721H-6.6z"/></defs><clipPath id="b"><use xlink:href="#a" overflow="visible"/></clipPath><g clip-path="url(#b)"><defs><path id="c" d="M-6.6-8h288v721h-288z"/></defs><clipPath id="d"><use xlink:href="#c" overflow="visible"/></clipPath><g opacity=".16" clip-path="url(#d)"><defs><path id="e" d="M6.3-.2H405v684H6.3z"/></defs><clipPath id="f"><use xlink:href="#e" overflow="visible"/></clipPath><path clip-path="url(#f)" fill="#5961AC" d="M403.4 154.9c10.7 76.4-62.2 384.5-93.3 510.8-4.7 19.2-33.8 23.1-44.6 5.9-72.4-114.4-247-396.7-257.7-473.3-13.5-96.8 64.1-185 173.3-197 109.3-12 208.8 56.7 222.3 153.6"/><path clip-path="url(#f)" fill="#FFF" d="M189.2-.2c.7.1 1.3.6 1.4 1.2l95.2 681.2c.1.8-.5 1.5-1.4 1.6-.9.2-1.7-.5-1.8-1.2L187.4 1.4c-.1-.8.5-1.5 1.4-1.6h.4"/><path clip-path="url(#f)" fill="#FFF" d="M212 163.2c.3 0 .5.1.8.3.7.5.9 1.3.3 2L69 338.8c-.5.6-1.5.8-2.2.3-.7-.5-.9-1.3-.3-2l144.1-173.3c.3-.4.8-.6 1.4-.6m5.4 38.7c.2 0 .5.1.7.2.7.4.9 1.3.5 2L90 377.3c-.5.7-1.5.8-2.2.4-.7-.4-.9-1.3-.5-2l128.5-173.3c.4-.4 1-.6 1.6-.5m7 50.1c.3 0 .6.2.9.4l150.8 125.2c.6.5.7 1.4.1 2-.6.6-1.6.6-2.2.1L223.1 254.5c-.6-.5-.7-1.4-.1-2 .4-.4.9-.5 1.4-.5m26.4 189.3c.3 0 .5.1.8.3.7.5.8 1.4.3 2l-74.3 84.8c-.5.6-1.5.7-2.2.2-.7-.5-.8-1.4-.3-2l74.3-84.8c.3-.4.9-.6 1.4-.5M197.5 59.9c.3 0 .5.1.8.3l206 137.3c.7.5.8 1.4.3 2-.5.6-1.5.7-2.2.3l-206-137.3c-.7-.5-.8-1.4-.3-2 .3-.5.9-.7 1.4-.6"/></g></g></g><path fill="none" d="M-1674.6 7h1930v1090"/><path fill="none" d="M-1674.6 7h1930v1090"/><path fill="none" d="M-1674.6 7h1930v1090"/><path fill="none" d="M-1674.6 7h1930v1090"/><path fill="none" d="M255.4 1097V7h-1930"/></g></switch></svg>