<svg xmlns="http://www.w3.org/2000/svg" xmlns:xlink="http://www.w3.org/1999/xlink" viewBox="0 0 275.1 683.9" xml:space="preserve"><path fill="none" d="M276.1-402.1v1090h-1930"/><defs><path id="a" d="M4.1-25.1h271v713H4.1z"/></defs><clipPath id="b"><use xlink:href="#a" overflow="visible"/></clipPath><g opacity=".16" clip-path="url(#b)"><defs><path id="c" d="M0 4.1h398.7v684H0z"/></defs><clipPath id="d"><use xlink:href="#c" overflow="visible"/></clipPath><path clip-path="url(#d)" fill="#5864AE" d="M397.1 533c10.7-76.4-62.2-384.5-93.3-510.8-4.7-19.2-33.8-23-44.6-5.8C186.8 130.7 12.2 413 1.5 489.6c-13.5 96.8 64.1 185 173.3 197 109.3 12 208.8-56.7 222.3-153.6"/><path clip-path="url(#d)" fill="#FFF" d="M182.9 688.1c.7-.1 1.3-.6 1.4-1.2L279.4 5.7c.1-.8-.5-1.5-1.4-1.6-.9-.2-1.7.5-1.8 1.2L181 686.5c-.1.8.5 1.5 1.4 1.6h.5"/><path clip-path="url(#d)" fill="#FFF" d="M205.7 524.7c.3 0 .5-.1.8-.3.7-.5.9-1.3.3-2L62.7 349.1c-.5-.6-1.5-.8-2.2-.3-.7.5-.9 1.3-.3 2l144.1 173.3c.3.4.8.6 1.4.6m5.4-38.7c.2 0 .5-.1.7-.2.7-.4.9-1.3.5-2L83.7 310.6c-.5-.7-1.5-.8-2.2-.4-.7.4-.9 1.3-.5 2l128.5 173.3c.4.4 1 .6 1.6.5m7-50.1c.3 0 .6-.2.9-.4l150.8-125.2c.6-.5.7-1.4.1-2-.6-.6-1.6-.6-2.2-.1L216.8 433.4c-.6.5-.7 1.4-.1 2 .4.4.9.5 1.4.5m26.4-189.3c.3 0 .5-.1.8-.3.7-.5.8-1.4.3-2l-74.3-84.8c-.5-.6-1.5-.7-2.2-.2-.7.5-.8 1.4-.3 2l74.3 84.8c.3.4.9.6 1.4.5m12.9-92.5c.3 0 .5-.1.8-.3l67.4-44.1c.7-.5.9-1.3.3-2-.5-.6-1.5-.8-2.2-.3l-67.4 44.1c-.7.5-.9 1.3-.3 2 .3.5.9.7 1.4.6m-2.3 17c.2 0 .4-.1.6-.2l75.5-36.3c.8-.4 1.1-1.2.6-1.9-.4-.7-1.4-.9-2.2-.6l-75.5 36.3c-.8.4-1.1 1.2-.6 1.9.3.6.9.9 1.6.8M191.2 628c.3 0 .5-.1.8-.3l206-137.3c.7-.5.8-1.4.3-2-.5-.6-1.5-.7-2.2-.3l-206 137.3c-.7.5-.8 1.4-.3 2 .3.5.9.7 1.4.6"/></g><path fill="none" d="M-1653.9 687.9h1930v-1090"/></svg>