<svg xmlns="http://www.w3.org/2000/svg" xmlns:xlink="http://www.w3.org/1999/xlink" width="757.1" height="628.5" xml:space="preserve"><g opacity=".1"><defs><path id="a" d="M0 584.6h289.7v44H0z"/></defs><clipPath id="b"><use xlink:href="#a" overflow="visible"/></clipPath><path clip-path="url(#b)" fill="#32324C" d="M289.7 606.6c0 12.1-64.9 22-144.9 22S0 618.7 0 606.6s64.9-22 144.9-22 144.8 9.8 144.8 22"/></g><path fill="#FFAF82" d="M187.6 447.4c1 5.2 2 10 2.9 14.3-14.7 21.8-20.9 50-30.7 110.4l20.1-2.9L219.8 468s1.1-8 2.3-20.7h-34.5z"/><path fill="#265D92" d="M227.8 612.3h-68.1c-3.2 0-5.8-2.4-6.3-5.4-.1-.4-.1-.9 0-1.3l2.8-35.6s2.8-1.3 6.8-2.2c2.4-.6 4.3-2.3 5.1-4.6.1-.2.1-.3.1-.5 1.6-6.8 11.5-9 13.3-2.3.2.9.4 1.7.6 2.5 0 .2.1.4.1.6.3 1.4.5 2.8.7 3.9v.1c.4 3 .3 4.8.3 4.8.9 1.1 1.8 2.3 2.6 3.4.4.5.8 1.1 1.3 1.6.9 1.2 1.8 2.3 2.6 3.4l1.2 1.5c.9 1.2 1.9 2.3 2.8 3.3.4.5.8.9 1.3 1.4 3.5 3.7 7.1 6.2 11.2 6.8 7.4 1 19.5 1.8 25.3 12.6.1.2.2.5.3.7.9 2.5-1.1 5.3-4 5.3"/><path fill="#1A4A75" d="M227.8 612.3h-68.1c-3.2 0-5.8-2.4-6.3-5.4h78.4c.9 2.6-1.1 5.4-4 5.4"/><path fill="#FFF" d="M187.1 577.3c-.8 1.2-2.4 2.5-5.6 3.8-.6.2-1.2.4-1.8.7l-.6-1.8 1.8-.6c3.7-1.5 4.7-3 5-3.7.4.5.8 1 1.2 1.6"/><path fill="#FFF" d="M181.5 580.9c0 1.2-.9 2.1-2.1 2.1s-2.1-.9-2.1-2.1c0-1.2.9-2.1 2.1-2.1s2.1.9 2.1 2.1m9.4 1.2c-.9.9-2.3 2-4.7 2.9-.7.3-1.4.5-2.2.8l-.6-1.8c.7-.2 1.4-.5 2-.7 2.4-1 3.6-2 4.2-2.7.5.5.9 1 1.3 1.5"/><path fill="#FFF" d="M186.2 585c0 1.2-.9 2.1-2.1 2.1s-2.1-.9-2.1-2.1c0-1.2.9-2.1 2.1-2.1s2.1.9 2.1 2.1m8.8 1.8c-.9.9-2.3 1.9-4.5 2.8-.7.3-1.4.6-2.2.8l-.6-1.8c.7-.2 1.4-.5 2-.7 2.1-.9 3.3-1.8 4-2.5.4.5.8 1 1.3 1.4"/><path fill="#FFF" d="M190.5 589.5c0 1.2-.9 2.1-2.1 2.1s-2.1-.9-2.1-2.1c0-1.2.9-2.1 2.1-2.1s2.1 1 2.1 2.1m-7.6-22.1c-3.1 0-6.1.3-6.1.3v-3.4c1.9-.7 3.8-.9 5.4-.9.3 1.5.5 2.8.7 4"/><path fill="#050705" d="m144.9 337.6 31.8 116.9s28.1 4.1 51.5-7.1L189 305.9l-44.1 31.7z"/><path fill="#2C2C2C" d="M94.9 289.5s-18.6 18.2-12.4 45.9c0 0 40 16.2 84-.4 18-6.8 27.8-16.2 19.9-44.8-.1-.2-2.5-.4-2.6-.6 0-.1-53.1-2.4-88.9-.1"/><path fill="#FFAF82" d="M105.3 447.4c1 5.2 2 10 2.9 14.3-14.7 21.8-20.9 50-30.7 110.4l20.1-2.9L137.5 468s1.1-8 2.3-20.7h-34.5z"/><path fill="#265D92" d="M145.5 612.3H77.4c-3.2 0-5.8-2.4-6.3-5.4-.1-.4-.1-.9 0-1.3l2.8-35.6s2.8-1.3 6.8-2.2c2.4-.6 4.3-2.3 5.1-4.6.1-.2.1-.3.1-.5 1.6-6.8 11.5-9 13.3-2.3.2.9.4 1.7.6 2.5 0 .2.1.4.1.6.3 1.4.5 2.8.7 3.9v.1c.4 3 .3 4.8.3 4.8.9 1.1 1.8 2.3 2.6 3.4.4.5.8 1.1 1.3 1.6.9 1.2 1.8 2.3 2.6 3.4l1.2 1.5c.9 1.2 1.9 2.3 2.8 3.3.4.5.8.9 1.3 1.4 3.5 3.7 7.1 6.2 11.2 6.8 7.4 1 19.5 1.8 25.3 12.6.1.2.2.5.3.7.9 2.5-1.1 5.3-4 5.3"/><path fill="#1A4A75" d="M145.5 612.3H77.4c-3.2 0-5.8-2.4-6.3-5.4h78.4c.9 2.6-1.1 5.4-4 5.4"/><path fill="#FFF" d="M104.8 577.3c-.8 1.2-2.4 2.5-5.6 3.8-.6.2-1.2.4-1.8.7l-.6-1.8 1.8-.6c3.7-1.5 4.7-3 5-3.7.4.5.8 1 1.2 1.6"/><path fill="#FFF" d="M99.2 580.9c0 1.2-.9 2.1-2.1 2.1s-2.1-1-2.1-2.1c0-1.2.9-2.1 2.1-2.1s2.1.9 2.1 2.1m9.4 1.2c-.9.9-2.3 2-4.7 2.9-.7.3-1.4.5-2.2.8l-.6-1.8c.7-.2 1.4-.5 2-.7 2.4-1 3.6-2 4.2-2.7.5.5.9 1 1.3 1.5"/><path fill="#FFF" d="M104 585c0 1.2-.9 2.1-2.1 2.1s-2.1-.9-2.1-2.1c0-1.2.9-2.1 2.1-2.1s2.1.9 2.1 2.1m8.7 1.8c-.9.9-2.3 1.9-4.5 2.8-.7.3-1.4.6-2.2.8l-.6-1.8c.7-.2 1.4-.5 2-.7 2.1-.9 3.3-1.8 4-2.5.5.5.9 1 1.3 1.4"/><path fill="#FFF" d="M108.2 589.5c0 1.2-.9 2.1-2.1 2.1s-2.1-.9-2.1-2.1c0-1.2.9-2.1 2.1-2.1s2.1 1 2.1 2.1m-7.6-22.1c-3.1 0-6.1.3-6.1.3v-3.4c1.9-.7 3.8-.9 5.4-.9.3 1.5.5 2.8.7 4"/><path fill="#2C2C2C" d="m82.5 335.3 19.4 119.2s28.1 4.1 51.5-7.1l-16.5-108.1-54.4-4z"/><path fill="#012235" d="M276.3 198.9c1-.2 1.9-.4 2.9-.6 12.4-2.7 22.4-3.2 22.9-1.2l1.8 7.9-49.7 11.6-1.8-7.9c-.5-2 8.7-5.9 21.1-9 .9-.3 1.8-.6 2.8-.8"/><defs><path id="c" d="M278.2 206.8c-13.7 3.2-24.4 7.6-23.9 9.7.5 2.2 12 1.3 25.8-1.9 13.7-3.2 24.4-7.6 23.9-9.7-.2-.8-1.9-1.2-4.8-1.2-4.8 0-12.5 1.1-21 3.1"/></defs><clipPath id="d"><use xlink:href="#c" overflow="visible"/></clipPath><linearGradient id="e" gradientUnits="userSpaceOnUse" x1="-1066.825" y1="826.687" x2="-1065.825" y2="826.687" gradientTransform="scale(-8.121 8.121) rotate(-76.181 -1061.125 -231.972)"><stop offset="0" style="stop-color:#022f42"/><stop offset="1" style="stop-color:#0f4954"/></linearGradient><path clip-path="url(#d)" fill="url(#e)" d="m256.6 230.5-6.4-25.9 51.3-12.6 6.4 25.9z"/><path fill="#126277" d="M256.2 217.6c-.4-.1-.8-.1-1.1-.3-.2-.1-.4-.1-.5-.3-.2-.1-.3-.3-.4-.5-.1-.2 0-.4.1-.6.1-.2.2-.3.3-.5.3-.3.6-.5.9-.8.6-.5 1.3-.8 2-1.2.7-.4 1.4-.7 2.1-1 1.4-.6 2.9-1.2 4.3-1.7 1.5-.5 2.9-1 4.4-1.5 2.9-.9 5.9-1.7 8.9-2.4s6-1.3 9.1-1.8l-4.5.9c-1.5.3-3 .7-4.5 1-3 .7-6 1.5-8.9 2.5-2.9.9-5.9 1.9-8.7 3.1-1.4.6-2.8 1.3-4.1 2.1-.3.2-.6.5-.9.7-.1.1-.2.3-.3.5-.1.2-.1.4-.1.5 0 .2.2.3.3.4.2.1.3.2.5.3.4.4.7.5 1.1.6"/><path fill="#012235" d="m257.6 217.2 1.6 6.9 43.7-10.2-1.6-6.9c-.4-1.9-10.6-1.2-22.6 1.6-12.2 2.9-21.6 6.7-21.1 8.6"/><defs><path id="f" d="M280.2 215.6c-12.1 2.8-21.5 6.6-21 8.6.4 1.9 10.6 1.2 22.6-1.6 12.1-2.8 21.5-6.6 21-8.6-.2-.7-1.7-1.1-4.2-1.1-4.1 0-10.9.9-18.4 2.7"/></defs><clipPath id="g"><use xlink:href="#f" overflow="visible"/></clipPath><linearGradient id="h" gradientUnits="userSpaceOnUse" x1="-1066.825" y1="826.687" x2="-1065.825" y2="826.687" gradientTransform="scale(-7.1314 7.1314) rotate(-76.181 -1060.61 -226.378)"><stop offset="0" style="stop-color:#022f42"/><stop offset="1" style="stop-color:#0f4954"/></linearGradient><path clip-path="url(#g)" fill="url(#h)" d="m261.3 236.4-5.6-22.8 45-11.1 5.6 22.8z"/><path fill="#126277" d="M262.6 225.2c-.5 0-1 0-1.5-.1s-1-.1-1.4-.3c-.2-.1-.5-.3-.6-.5-.1-.3 0-.5.1-.8.3-.4.7-.7 1.1-1 .4-.3.8-.5 1.3-.8.4-.2.9-.5 1.3-.7l2.7-1.2c1.8-.7 3.7-1.3 5.5-1.9.9-.3 1.9-.5 2.8-.8.9-.2 1.9-.5 2.8-.7-1.9.5-3.7 1.1-5.6 1.7-1.9.6-3.7 1.2-5.5 1.9-.9.4-1.8.7-2.7 1.1-.9.4-1.7.9-2.5 1.4-.4.3-.8.6-1 1-.1.2-.2.4-.1.6.1.2.3.3.5.5.4.2.9.3 1.4.4.5.1.9.2 1.4.2"/><path fill="#012235" d="m266.1 223.6 1.1 4.8 30.3-7.1-1.1-4.8c-.3-1.3-7.3-.8-15.7 1.1-8.4 2-14.9 4.7-14.6 6"/><defs><path id="i" d="M293.7 220.6c-2.1.1-5 .5-8.3 1.1-1.2.2-2.3.5-3.6.8-1.3.3-2.6.6-3.8 1-1 .3-1.9.5-2.7.8-5 1.6-8.3 3.2-8.1 4.2 0 .1 0 .1.1.1.5.7 3.2.8 7.1.3 2.5-.3 5.4-.8 8.5-1.6 8.4-2 14.9-4.6 14.6-5.9-.1-.5-1.2-.7-2.9-.7-.3-.1-.6-.1-.9-.1"/></defs><clipPath id="j"><use xlink:href="#i" overflow="visible"/></clipPath><linearGradient id="k" gradientUnits="userSpaceOnUse" x1="-1066.825" y1="826.669" x2="-1065.825" y2="826.669" gradientTransform="scale(-4.9498 4.9498) rotate(-76.181 -1060.039 -207.76)"><stop offset="0" style="stop-color:#022f42"/><stop offset="1" style="stop-color:#0f4954"/></linearGradient><path clip-path="url(#j)" fill="url(#k)" d="m268.8 236.5-3.8-15.4 31.1-7.6 3.8 15.3z"/><path fill="#012235" d="M262.7 140.5c8.4-1.9 15.4-2.5 15.7-1.1l.6 2.6.5 2.2-30.3 7.1-.5-2.2-.6-2.6c-.3-1.4 6.2-4.1 14.6-6"/><path fill="#012235" d="M263.8 145.3c8.4-2 15.4-2.5 15.7-1.1.3 1.3-6.2 4-14.6 5.9-8.4 2-15.4 2.5-15.7 1.1-.3-1.3 6.2-4 14.6-5.9"/><path fill="#012235" d="M263.8 145.3c5.9-1.4 11.3-2.2 15.4-2.6 4.3-.3 7 0 7.3.9l1 4.1.6 2.8-43.7 10.2-.7-2.8-.6-2.7-.3-1.5c-.1-.3.1-.6.5-1 .9-.9 2.9-1.9 5.6-3 3.8-1.4 9-3 14.9-4.4"/><path fill="#011A28" d="M263.6 144.5c5.9-1.4 11.3-2.3 15.4-2.6l.2.8c-4.1.3-9.5 1.2-15.4 2.6-5.9 1.4-11.1 3-14.9 4.5l-.2-.8c3.8-1.5 9-3.1 14.9-4.5"/><path fill="#FFF" d="M265.4 152.2c12.1-2.8 22.2-3.5 22.6-1.6.4 1.9-9 5.7-21 8.6-12.1 2.8-22.2 3.5-22.6 1.6-.4-1.9 9-5.8 21-8.6"/><path d="M288.2 150.6c.2 2.3-10.5 6.1-21.1 8.6-5.8 1.4-11.4 2.3-15.7 2.6-3.1.2-6.8.2-7.1-1.1-.3-1.3 3-2.9 5.9-4.1 4-1.6 9.4-3.3 15.2-4.6 5.8-1.4 11.4-2.3 15.7-2.6 3.1-.1 6.8-.1 7.1 1.2m-43.7 10.1c.2.9 2.8 1.2 6.8.9 4.3-.3 9.8-1.2 15.7-2.6 12.8-3 21.1-6.7 20.9-8.3v-.1c-.2-.8-2.7-1.2-6.8-.9-4.3.3-9.8 1.2-15.7 2.6-5.8 1.4-11.2 3-15.2 4.6-3.6 1.6-5.8 3-5.7 3.8"/><path fill="#012235" d="M265.3 151.5c9.4-2.2 17.8-3.3 22.3-3 2.1.1 3.3.5 3.5 1.2l1.8 7.9-49.7 11.6-1.8-7.9c-.2-.7.8-1.6 2.6-2.6 3.8-2.2 11.8-5 21.3-7.2"/><path fill="#011A28" d="M265.1 150.8c9.4-2.2 17.8-3.3 22.3-3l.2.7c-4.5-.2-12.9.8-22.3 3s-17.4 4.9-21.3 7.2l-.2-.7c3.9-2.2 11.9-5 21.3-7.2"/><defs><path id="l" d="M267.1 159.4c-13.7 3.2-24.4 7.6-23.9 9.7.5 2.2 12 1.3 25.8-1.9 13.7-3.2 24.4-7.6 23.9-9.7-.2-.8-1.9-1.2-4.8-1.2-4.7.1-12.4 1.1-21 3.1"/></defs><clipPath id="m"><use xlink:href="#l" overflow="visible"/></clipPath><linearGradient id="n" gradientUnits="userSpaceOnUse" x1="-1066.825" y1="826.687" x2="-1065.825" y2="826.687" gradientTransform="scale(-8.1205 8.1205) rotate(-76.18 -1064.16 -235.75)"><stop offset="0" style="stop-color:#022f42"/><stop offset="1" style="stop-color:#0f4954"/></linearGradient><path clip-path="url(#m)" fill="url(#n)" d="m245.6 183.1-6.4-25.9 51.3-12.6 6.4 25.9z"/><path fill="#126277" d="M256.6 169.7c-1.9.3-3.8.5-5.7.7-.9.1-1.9.1-2.9.1s-1.9 0-2.9-.2c-.5-.1-.9-.2-1.4-.4-.2-.1-.4-.2-.6-.4-.1-.1-.1-.2-.2-.4v-.4c.2-.5.6-.8.9-1.1.4-.3.8-.6 1.2-.8 1.6-1 3.4-1.7 5.2-2.4 3.5-1.4 7.2-2.5 10.9-3.5 1.8-.5 3.7-.9 5.5-1.4l5.6-1.1-5.6 1.3c-1.8.4-3.7.9-5.5 1.4-3.7 1-7.3 2.2-10.8 3.5-1.8.7-3.5 1.4-5.1 2.4-.4.2-.8.5-1.2.8-.4.3-.7.6-.9 1-.1.2 0 .4.1.6.1.2.3.3.5.4.4.2.9.3 1.3.4.9.1 1.9.2 2.8.2.9 0 1.9 0 2.8-.1 2.2-.2 4.1-.4 6-.6"/><defs><path id="o" d="M267.4 160.8c-1.6.4-2.8 1.1-2.7 1.5l1.1 4.9 1.5 6.3.6 2.6.2 1 5.2 22.5c.9-.2 1.9-.5 2.9-.7.6-.2 1.3-.3 1.9-.4.3-.1.6-.1 1-.2l-5.3-22.5-.1-.5-.8-3.3-2.5-10.8v-.1c-.1-.3-.5-.4-1.2-.4-.4-.1-1.1 0-1.8.1"/></defs><clipPath id="p"><use xlink:href="#o" overflow="visible"/></clipPath><linearGradient id="q" gradientUnits="userSpaceOnUse" x1="-1066.825" y1="826.673" x2="-1065.825" y2="826.673" gradientTransform="scale(-39.148 39.148) rotate(-76.181 -1061.037 -260.14)"><stop offset="0" style="stop-color:#7d7081"/><stop offset="1" style="stop-color:#d4ceaa"/></linearGradient><path clip-path="url(#p)" fill="url(#q)" d="m265.5 203-9.9-40.2 22.8-5.6 9.8 40.2z"/><path fill="#FFAF82" d="M276.6 194.1c-.5.3-1 .5-1.5.8-.1.1-.2.1-.4.2-1 .5-2 .9-3 1.4-6 2.5-13.2 4.3-19.2 3.3 0 0-2.9-11.3-2.2-14.4 0 0 2.6-5.7 5.8-10 0 0 3.7-5.9 6.5-6.5 2.8-.6 4.7 1.4 4.7 1.4s.3-.3.8-.6c1.2-.9 3.4-2.6 4.1-3.1 3.9-2.9 7.9-.4 2.7 5.4.6-.3 4.4-2.8 6.7-.1 1.6 1.9-3.1 6.1-3.1 6.1s5.9-.8 6.5 1.5c.6 2.5-4.6 5.5-4.8 5.7.2 0 3.6.3 3.3 3.3-.3 1.2-3 3.4-6.9 5.6"/><path fill="#F88968" d="M276.6 194.1c-.5.3-1 .5-1.5.8-1.2-.2-2.5-.7-3.2-1.9-1.6-2.6 1.2-4.5 1.2-4.5s-2.6.9-3.4-1.1c-.8-2 .7-3.5.7-3.5s-2.5.2-3.1-1.4c-.7-1.7 2.6-5.5 2.6-5.5s-1.7 2.8-1.6 4.5c.1 1.6 2.4 2.3 5 .4-.3.2-2.9 2.1-2.4 4.4.4 2.3 5.2.9 5.4.9-.2.2-4.6 2.8-3.7 4.9.5 1.5 2.4 2 4 2"/><path fill="#F88968" d="M267.3 173.9s1.4 4.7-.9 7.6c-2.3 2.8-7.1-.7-8.3-5.2 0 0-.7 3 2 5.8s6.5 1.6 7.4-.3c.8-2 1.2-3.9-.2-7.9"/><path fill="#F88968" d="M265.5 182.5s.8 6.1-7.4 9.8c0 0 8.6.3 9-10.1l-1.6.3z"/><path fill="#BC2327" d="M181.7 128.3s-20.5 25.1-10.9 88.8c0 0 12.5 13.9 84.6-17.1l-5.7-13s-13.3 3.4-26.6 4-31.9 6.7-31.9 6.7 22.4-69.5-9.5-69.4"/><path fill="#DD342C" d="M122.1 114.7 81 134.9l-2.4 34c-2.6 36.3-1.3 72.7 4 108.7l4 27.1s69.1 14.8 103.3-.9c-14.8-57.2-15.5-115.3-3.2-174.1l-34.1-13.4-30.5-1.6z"/><path fill="#BC2327" d="M81 134.2s-16.5 27.9 2.6 89.5c0 0 14.5 11.9 81.1-29.6l-7.5-12s-12.7 5.4-25.7 7.9-30.5 11.4-30.5 11.4 11.5-72.1-20-67.2"/><path fill="#FFAF82" d="M157 182.5s1.6-6.2 4.6-10.5c3-4.3 6.3-8.8 8.2-11.4 2.3-3.2 4.2 0 3.2 3.4-1.5 5.2-3.7 7-3.7 7s15.3-14.4 20.6-16.3c4.8-1.8-3.2 6.6-9.5 13.8 0 0 17.2-11.3 20.4-9.9 4.2 1.9-16.7 15.5-16.7 15.5s16.9-7.8 17.5-5.6c.7 2.4-15.6 12.5-15.6 12.5s12.1-4.3 12-2.7c-.2 3.1-23.4 17.3-35.8 15.8 0-.1-5.7-8.6-5.2-11.6m-5.2-88.7-1.4 19.3-.7 8.9c-11.3 8-24.8-3.1-24.8-3.1L119.5 88c5.2-3.4 18.1 1.4 26 3.7 3.7 1.2 6.3 2.1 6.3 2.1"/><path fill="#F88968" d="m151.8 93.8-1.4 19.3c-13-3.3-23.6-21.6-23.6-21.6l18.8.2c3.6 1.2 6.2 2.1 6.2 2.1"/><path fill="#FFAF82" d="M193.7 42.2v2.2c0 2.3-.1 4.8-.3 7.2v.7c-.2 4-.6 8-1 12.1-.1.9-.2 1.8-.3 2.6-.3 2.8-.7 5.7-1.1 8.5-.1.6-.2 1.1-.2 1.7-.2 1.1-.3 2.2-.5 3.3-.3 2.4-.7 4.7-1.1 6.9-2.3 14.1-15.7 23.6-29.7 20.9-13.8-2.6-27.9-6.2-38.7-10.9 0 0-.2-.3-.4-.9-1.1-2.4-4.1-9.4-6.4-19.3-2.5-10.5-4.3-24.4-2.4-39.4 4.2-32.7 73.3-35.6 81.3-8.7.1.3.1.6.2.9.4 3.7.6 7.8.6 12.2"/><path fill="#920E08" d="M171.7 88.2c0 1.3-.3 2.5-1 3.5-1.2 2-3.4 3.3-5.8 3.3-3 0-5.6-2-6.4-4.7-.2-.7-.3-1.4-.3-2.1 0-3.8 3.1-6.8 6.8-6.8 3.7.1 6.7 3.1 6.7 6.8"/><path fill="#F85C66" d="M170.8 91.7c-1.2 2-3.4 3.3-5.8 3.3-3 0-5.6-2-6.4-4.7 1.3-.5 3.6-1.2 7.1-.6 1.9.5 3.8 1.1 5.1 2"/><g opacity=".5"><defs><path id="r" d="M126.5 64.4h20.4v14.8h-20.4z"/></defs><clipPath id="s"><use xlink:href="#r" overflow="visible"/></clipPath><path clip-path="url(#s)" fill="#F88968" d="M146.8 71.8c0 4.1-4.6 7.4-10.2 7.4s-10.2-3.3-10.2-7.4c0-4.1 4.6-7.4 10.2-7.4 5.7 0 10.2 3.4 10.2 7.4"/></g><g opacity=".5"><defs><path id="t" d="M180.7 64.4h11.6v14.8h-11.6z"/></defs><clipPath id="u"><use xlink:href="#t" overflow="visible"/></clipPath><path clip-path="url(#u)" fill="#F88968" d="M192.3 64.5c-.1.9-.2 1.8-.3 2.6-.3 2.8-.7 5.7-1.1 8.5-.1.6-.2 1.1-.2 1.7-.1.6-.2 1.3-.3 1.9-5.4-.2-9.7-3.4-9.7-7.4 0-4.1 4.6-7.4 10.2-7.4.5 0 .9.1 1.4.1"/></g><path fill="#32324C" d="M193.7 42.2v2.1c-4.4-4-3.3-14.1-3.3-14.1.9-.1 1.8-.1 2.6 0 .5 3.5.7 7.6.7 12m-73.4 54.4c-1.1-2.4-4.1-9.4-6.5-19.3l6.9 2.6c.1 0 2.2 10.7-.4 16.7m34.6-36.2c0 2.8-1.2 5.1-2.8 5.2-1.6 0-2.8-2.3-2.9-5.1 0-2.8 1.2-5.1 2.8-5.2 1.6 0 2.9 2.3 2.9 5.1m29.3 0c0 2.8-1.2 5.1-2.8 5.2s-2.8-2.3-2.9-5.1c0-2.8 1.2-5.1 2.8-5.2 1.6 0 2.8 2.3 2.9 5.1"/><path fill="#FFAF82" d="M121.8 56s-8-9.5-14.5-3.8c-7.2 6.2-1.4 26.8 13.4 26.1l1.1-22.3z"/><path fill="#F88968" d="M120.8 73.8c-.6 0-1.1-.5-1.2-1.1-1.3-10.6-7.7-12-7.8-12-.7-.1-1.2-.8-1-1.5.1-.7.8-1.2 1.5-1 .3.1 8.3 1.9 9.8 14.2.1.7-.4 1.4-1.1 1.5 0-.1-.1-.1-.2-.1"/><path fill="#F88968" d="M112.4 67.3c-.3 0-.6-.1-.8-.3-.5-.5-.6-1.3-.1-1.8.1-.1 2.6-3 6.9-2.1.7.1 1.2.8 1 1.5-.1.7-.8 1.2-1.5 1-2.7-.6-4.4 1.2-4.4 1.3-.3.2-.7.4-1.1.4m51.8 33.5c-7.2-.5-10.8-5.1-11-5.3-.5-.7-.4-1.7.3-2.2.7-.5 1.7-.4 2.2.3.2.2 4.3 5.3 12.6 3.8.9-.2 1.7.4 1.8 1.3.2.9-.4 1.7-1.3 1.8-1.6.3-3.2.4-4.6.3m4.3-24.8c-.4 0-.8-.2-1.1-.6-.5-.6-.4-1.6.3-2.1l3.9-3.1-3.5-.9c-.6-.1-1-.6-1.1-1.2l-1.6-9.5c-.1-.8.4-1.6 1.2-1.7.8-.1 1.6.4 1.7 1.2l1.5 8.5 5.5 1.4c.6.1 1 .6 1.1 1.1.1.6-.1 1.1-.5 1.5l-6.4 5c-.3.3-.7.4-1 .4"/><path fill="#32324C" d="M110.7 50.5s-10.6-18.9-8.4-26.9c2.2-8 10.3-8.4 10.3-8.4S129-1.5 153.6.3c20.4 1.5 40.2-3 43.2 3 2.8 5.5-9.3 9.3-9.3 9.3s10.1-.7 12.3 1.9c2.2 2.6-.1 8.8-10.6 8.1 0 0 8.7.5 11 4.9 2.2 4.5-7.8 6.2-16.8 4.3-9-1.9-45-1.7-52.8 3.7 0 0 1.7 9.9-3.2 13.8 0 0 3.7 13.1.2 16.2s-6.1-14.8-16.9-15"/><path fill="#32324C" d="M157.1 45.7v4.9s-8.9-1.6-15 2.1l-.7-4.1c.1 0 5.2-5.1 15.7-2.9m17.5 0v4.9s8.9-1.6 15 2.1l.7-4.1s-5.1-5.1-15.7-2.9"/><path fill="#E0E0E0" d="M508.7 348.8s31.1 14.2 61.5 14.2c28.1 0 59.5-14.1 59.5-14.1l-121-.1z"/><path fill="#E0E0E0" d="M561.3 350.2h12v125.9h-12z"/><path fill="#E0E0E0" d="M621.2 478.2H514.5v-1.4c0-3.3 2.7-5.9 5.9-5.9h94.8c3.3 0 5.9 2.7 5.9 5.9v1.4z"/><path fill="#263238" d="M527 481.4c0 4.5-3.6 8.1-8.1 8.1s-8.1-3.6-8.1-8.1 3.6-8.1 8.1-8.1 8.1 3.6 8.1 8.1m47.4 0c0 4.5-3.6 8.1-8.1 8.1s-8.1-3.6-8.1-8.1 3.6-8.1 8.1-8.1c4.4 0 8.1 3.6 8.1 8.1m54.9 0c0 4.5-3.6 8.1-8.1 8.1s-8.1-3.6-8.1-8.1 3.6-8.1 8.1-8.1 8.1 3.6 8.1 8.1"/><path fill="#E0E0E0" d="M553.8 395.5h16.3v6.8h-16.3z"/><path fill="#E0E0E0" d="M550.8 390.8h6V407h-6z"/><path fill="#455A64" d="M632.3 348.8H498.8c-5 0-9-4-9-9s4-9 9-9H644v6.4c0 6.4-5.3 11.6-11.7 11.6"/><path fill="#455A64" d="m540 154.9 94.2 1.2c4.7.1 8.4 3.8 8.4 8.5l1.3 166.2-126.9 1.7 14.3-169.8c.5-4.5 4.2-7.9 8.7-7.8"/><path fill="#263238" d="M628.9 157.9c.2 0 .3 38.4.3 85.7 0 47.4-.1 85.7-.3 85.7-.2 0-.3-38.4-.3-85.7-.1-47.3.1-85.7.3-85.7M624 331.4c0 .2-28 .1-62.5-.1s-62.5-.5-62.5-.7c0-.2 28-.1 62.5.1s62.5.5 62.5.7m6.6 17.4c0 .2-29.5.3-65.8.3s-65.8-.2-65.8-.4 29.5-.3 65.8-.3c36.3.1 65.8.2 65.8.4m-69.3 93.1c-.2 0-.3-17.2-.3-38.4s.1-38.4.3-38.4c.2 0 .3 17.2.3 38.4 0 21.3-.2 38.4-.3 38.4m-4.6-36.1c-.2 0-.3-3.3-.3-7.3s.1-7.3.3-7.3c.2 0 .3 3.3.3 7.3.1 4-.1 7.3-.3 7.3"/><path fill="#263238" d="M556.8 395c0 .2-1.3.3-3 .3s-3-.1-3-.3c0-.2 1.3-.3 3-.3 1.6 0 3 .1 3 .3m0 4.1c0 .2-1.3.3-3 .3s-3-.1-3-.3c0-.2 1.3-.3 3-.3 1.6 0 3 .1 3 .3m0 4.1c0 .2-1.3.3-3 .3s-3-.1-3-.3c0-.2 1.3-.3 3-.3 1.6 0 3 .1 3 .3m33.4-42.2s-.6.2-1.8.5c-1.1.3-2.8.6-4.9.9-4.2.6-10 1-16.5.8-6.5-.2-12.3-.9-16.4-1.6-2.1-.4-3.8-.7-4.9-1-1.2-.3-1.8-.5-1.8-.5s.7 0 1.8.3c1.2.2 2.8.5 4.9.8 4.2.6 10 1.2 16.4 1.4 6.4.2 12.2-.1 16.4-.6 2.1-.2 3.8-.5 4.9-.7 1.3-.2 1.9-.3 1.9-.3m49.4-15.3c-.1 0-.1-1.3-.6-3.3-.6-2-1.9-4.6-4.4-6.7-2.4-2.1-5.2-3.1-7.2-3.6s-3.4-.5-3.3-.6c0 0 .3-.1.9-.1.3 0 .7 0 1.1.1.4 0 .9.1 1.4.2 2.1.4 5 1.4 7.5 3.6 2.6 2.1 3.9 5 4.4 7 .2 1.1.3 1.9.3 2.5-.1.5-.1.9-.1.9"/><path fill="#403433" d="M411.8 281.8h10.9v2.1l-23.9 204.6h-12.7z"/><path fill="#403433" d="m366.2 284.2 388.7.4.1-10.2H366.2z"/><path fill="#403433" d="M700.2 281.8h-10.9v2.2L712 488.4h11.2z"/><path fill="#263238" d="M560.5 274.7c-107.3-.1-194.2-.4-194.2-.5 0-.2 87-.2 194.3-.1 107.3.1 194.2.4 194.2.5"/><path fill="#9C4741" d="M717.5 274.4h-23.1l-5.4-45.1h33.4z"/><path fill="#E0E0E0" d="m720.2 226.6-1-3.2-26.4-3.2-2.2 6.4h-3.2v5.9h36.2v-5.9z"/><path fill="#CC675D" d="M719.9 259.4h-28.6l-1.4-13.7h31.7z"/><path fill="#9C4741" d="M703.8 249c-1.3.8-1.8 2.5-1.2 3.9l.9 2c.7 1.4 2.3 2.1 3.7 1.6l-3.4-7.5zm.6-.3 3.5 7.4c1.3-.8 1.8-2.5 1.2-3.9l-.9-2c-.7-1.3-2.3-2-3.8-1.5"/><path fill="#263238" d="M720.5 226.7c0 .2-6.8.3-15.3.3-8.4 0-15.3-.1-15.3-.3 0-.2 6.8-.3 15.3-.3 8.4-.1 15.3.1 15.3.3"/><path fill="#E0E0E0" d="m368 206.8 13.7 67.2h118.8c1.3 0 2.4-1.1 2.4-2.4s-1.1-2.4-2.4-2.4h-23.9l-12.7-62.5c-.2-1.2-1.3-2.1-2.5-2.1l-90.9-1c-1.6.1-2.8 1.6-2.5 3.2"/><path fill="#263238" d="M368 206.8v-.8c0-.5.3-1.4 1.3-2 .2-.1.5-.2.8-.3.3-.1.6-.1.9-.1h7.4c8.1.1 19.8.2 34.4.3 7.3.1 15.3.2 23.9.2 4.3 0 8.8.1 13.4.1 2.3 0 4.7 0 7 .1h4.5c.3 0 .6.1.9.3.6.3 1 .8 1.3 1.4.1.3.2.6.2.9l.2.9c.1.6.2 1.2.4 1.8.2 1.2.5 2.4.7 3.7l1.5 7.5c1 5 2.1 10.2 3.1 15.5 2.1 10.5 4.4 21.5 6.7 32.8l-.2-.1H500c.3 0 .6 0 .9.1.6.1 1.2.5 1.6 1 .4.5.5 1.2.4 1.8-.1.8-.6 1.5-1.3 1.8-.3.2-.7.3-1.1.3h-119v-.1c-4.2-20.7-7.6-37.5-9.9-49.1-1.2-5.8-2.1-10.4-2.7-13.4-.3-1.5-.5-2.7-.7-3.5-.1-.7-.2-1.1-.2-1.1l.3 1.2c.2.8.4 2 .7 3.5.6 3.1 1.6 7.6 2.8 13.4 2.4 11.6 5.8 28.4 10.1 49.1l-.1-.1h118.9c.3 0 .7-.1 1-.3.6-.3 1-.9 1.1-1.6.1-.6 0-1.1-.4-1.6-.3-.5-.8-.8-1.4-.9-.3-.1-.6 0-.9 0h-23.7v-.1c-2.3-11.3-4.5-22.3-6.7-32.8-1.1-5.3-2.1-10.4-3.1-15.5l-1.5-7.5c-.2-1.2-.5-2.5-.7-3.7-.1-.6-.2-1.2-.4-1.8l-.2-.9c-.1-.3-.1-.6-.2-.9-.2-.5-.7-1-1.2-1.2-.3-.1-.5-.2-.8-.2h-4.5c-2.4 0-4.7-.1-7-.1-4.6-.1-9.1-.1-13.4-.2-8.6-.1-16.7-.2-23.9-.3-14.6-.2-26.3-.3-34.4-.4-2 0-3.8-.1-5.3-.1H371c-.3 0-.6 0-.9.1-.3.1-.5.2-.8.3-.9.5-1.2 1.4-1.3 1.9-.1.4 0 .7 0 .7"/><path fill="#FFF" d="M422.8 237.6c0 2.2-1.8 3.9-3.9 3.9-2.2 0-3.9-1.8-3.9-3.9 0-2.2 1.8-3.9 3.9-3.9 2.1 0 3.9 1.7 3.9 3.9"/><path fill="#263238" d="M368.1 207.4h6.2c4 0 9.8 0 17 .1 14.4.1 34.2.2 56.1.4 2.7 0 5.4 0 8.1.1h2c.3 0 .7 0 1 .1.3.1.7.2 1 .4.6.4 1 1 1.2 1.6.1.7.3 1.3.4 1.9 1 5.1 2 9.9 2.9 14.6 1.8 9.3 3.5 17.7 4.9 24.7 1.4 7 2.5 12.7 3.3 16.7l.9 4.5c.1.5.2.9.2 1.2 0 .3.1.4.1.4s0-.1-.1-.4c-.1-.3-.1-.7-.3-1.2-.2-1-.5-2.6-.9-4.5-.8-3.9-1.9-9.6-3.4-16.7-1.4-7-3.1-15.4-5-24.7-.9-4.7-1.9-9.5-2.9-14.6-.1-.6-.2-1.3-.4-1.9-.2-.6-.5-1.1-1.1-1.4-.3-.2-.6-.3-.9-.3-.3-.1-.6 0-1-.1h-2c-2.7 0-5.4 0-8.1-.1-21.9-.2-41.7-.4-56.1-.5-7.2-.1-13-.1-17-.2-2 0-3.6-.1-4.6-.1h-1.5m389 281.4c0 .3-94.2.5-210.4.5s-210.4-.2-210.4-.5 94.2-.5 210.4-.5 210.4.2 210.4.5"/></svg>