<svg xmlns="http://www.w3.org/2000/svg" viewBox="0 0 277.6 745.21"><defs><style>.cls-11{fill:#32324c}.cls-2{fill:#2c2c2c}.cls-3{fill:#ffaf82}.cls-4{fill:#265d92}.cls-5{fill:#fff}.cls-6{fill:#1a4a75}.cls-8{fill:#bc2327}.cls-9{fill:#f88968}.cls-10{fill:#ffa378}</style></defs><g id="Capa_2" data-name="Capa 2"><g id="Información"><ellipse cx="138.8" cy="724.15" rx="138.8" ry="21.06" style="opacity:.1;fill:#32324c"/><path class="cls-2" d="M76.84 408.18c-.09-28.07 6.86-46.9 6.86-46.9 45.08-2.9 116 0 116 0 .09.28.19.55.29.82 0 0 7.28 25.62 3 46.08-43.87 27.16-86.13 25.37-126.15 0Z"/><path class="cls-3" d="M70.71 532.14c-.2 7.7-.25 14.13-.09 18.67l-6.69 134.13 24.63 2.65c4.29-32.64 15-83 15.85-128.93l6.12-26.52Z"/><path class="cls-4" d="M90 684.27c-.72-10.12-9.75-15.63-19-13.1-9 2.47-10.1 17.51-10.1 17.51a47.23 47.23 0 0 0-13.42 27.12c-.06.38-.13.77-.17 1.17a6.08 6.08 0 0 0 5.06 6.67c16 2.65 31.51 2.85 46.5.12a6 6 0 0 0 4.94-6.71v-.36c-1-7.66-3.08-21.72-12.46-26.93Z"/><path class="cls-5" d="m86.39 695.92.81-1.85c-.56-.25-13.83-5.93-23.5.38l1.1 1.69c8.77-5.73 21.47-.28 21.59-.22Z"/><path class="cls-5" d="M84.73 695.66a2.27 2.27 0 1 0 1.87-2.61 2.26 2.26 0 0 0-1.87 2.61Zm-22.81-.55a2.27 2.27 0 1 0 1.87-2.61 2.28 2.28 0 0 0-1.87 2.61Zm24.24-4.89.81-1.85c-.56-.24-13.83-5.93-23.5.38l1.1 1.69c8.77-5.72 21.43-.28 21.59-.22Z"/><path class="cls-5" d="M84.5 690a2.27 2.27 0 1 0 1.87-2.61A2.28 2.28 0 0 0 84.5 690Zm-22.81-.58a2.27 2.27 0 1 0 1.87-2.61 2.27 2.27 0 0 0-1.87 2.61Zm24.7 12.18.81-1.85c-.56-.25-13.83-5.94-23.5.38l1.1 1.69c8.77-5.73 21.47-.28 21.59-.22Z"/><path class="cls-5" d="M84.73 701.34a2.27 2.27 0 1 0 1.87-2.61 2.27 2.27 0 0 0-1.87 2.61Zm-22.81-.55a2.27 2.27 0 1 0 1.87-2.61 2.28 2.28 0 0 0-1.87 2.61Zm7.76-23.1s6.82-2.36 12.63.5a6.56 6.56 0 0 1 0 4.65s-7.84-1.26-12.8-.29c.01 0-.93-2.8.17-4.86Z"/><path class="cls-6" d="M52.37 723.64c16 2.65 31.51 2.85 46.5.12a6 6 0 0 0 4.94-6.71v-.36a101.36 101.36 0 0 1-56.28-.89c-.06.38-.13.77-.17 1.17a6.08 6.08 0 0 0 5.01 6.67Z"/><path class="cls-2" d="M80.19 374.44c-4.71 28.49-10.84 102.36-16.62 165 0 0 16.78 17.66 52.14 8.18L128 419.48s4-35.01-47.81-45.04Z"/><path class="cls-3" d="M213.07 532.14c.2 7.7.25 14.13.09 18.67l6.69 134.13-24.63 2.65c-4.29-32.64-15-83-15.85-128.93l-6.12-26.52Z"/><path class="cls-4" d="M193.82 684.27c.72-10.12 9.75-15.63 19-13.1 9 2.47 10.1 17.51 10.1 17.51a47.23 47.23 0 0 1 13.38 27.12c.06.38.12.77.16 1.17a6.07 6.07 0 0 1-5.05 6.67c-16 2.65-31.51 2.85-46.5.12a6 6 0 0 1-4.94-6.71v-.36c1-7.66 3.09-21.72 12.47-26.93Z"/><path class="cls-5" d="m197.38 695.92-.8-1.85c.56-.25 13.83-5.93 23.5.38l-1.1 1.69c-8.77-5.73-21.47-.28-21.6-.22Z"/><path class="cls-5" d="M199.05 695.66a2.27 2.27 0 1 1-1.87-2.61 2.26 2.26 0 0 1 1.87 2.61Zm22.81-.55a2.27 2.27 0 1 1-1.86-2.61 2.28 2.28 0 0 1 1.86 2.61Zm-24.24-4.89-.81-1.85c.56-.24 13.83-5.93 23.5.38l-1.1 1.69c-8.77-5.72-21.47-.28-21.59-.22Z"/><path class="cls-5" d="M199.28 690a2.27 2.27 0 1 1-1.87-2.61 2.28 2.28 0 0 1 1.87 2.61Zm22.81-.58a2.27 2.27 0 1 1-1.87-2.61 2.27 2.27 0 0 1 1.87 2.61Zm-24.71 12.18-.8-1.85c.56-.25 13.83-5.94 23.5.38l-1.1 1.69c-8.77-5.73-21.47-.28-21.6-.22Z"/><path class="cls-5" d="M199.05 701.34a2.27 2.27 0 1 1-1.87-2.61 2.27 2.27 0 0 1 1.87 2.61Zm22.81-.55a2.27 2.27 0 1 1-1.87-2.61 2.28 2.28 0 0 1 1.87 2.61Zm-7.76-23.1s-6.82-2.36-12.63.5a6.56 6.56 0 0 0 0 4.65s7.84-1.26 12.8-.29c-.01 0 .93-2.8-.17-4.86Z"/><path class="cls-6" d="M231.41 723.64c-16 2.65-31.51 2.85-46.5.12a6 6 0 0 1-4.94-6.71v-.36a101.4 101.4 0 0 0 56.29-.89c.06.38.12.77.16 1.17a6.07 6.07 0 0 1-5.01 6.67Z"/><path class="cls-2" d="M202.63 374.63c4.7 28.49 11.8 102.17 17.57 164.8 0 0-16.77 17.66-52.13 8.18l-12.34-128.13s-4.88-34.81 46.9-44.85Z"/><path d="M79.72 372.84c38.91 24 81.06 29.58 124.33 0l-2.37-72s-3.51-88.07-3.38-117.44c0-3.85 4-15.44 4-15.44l-43.89-11.79a65.92 65.92 0 0 0-34.15 0L80.34 167.9l.59 132.88Z" style="fill:#dd342c"/><path class="cls-3" d="M42.85 387.1a123.62 123.62 0 0 0 4.89 13.28c2.56 5.59.8 9.91 2.34 15s-4.49 4.67-5.66-.62-.67-7.8-1.77-8-4.26 12.74-4.71 16.44.3 13-1.09 14.43-4.72-3.77-3.67-13.43.29-9.45.29-9.45-.92 3.75-1.87 7.78a43.48 43.48 0 0 0-.79 11.7c.18 2.75-2.63 4.12-3.46 2.64s-2.14-11.08-1-14.84 2.47-10.2 2.47-10.2-3.69 8.64-4.33 10.87.41 10.72-1.49 12.3c-.8.64-3.38-.21-2.94-12.33a66.6 66.6 0 0 1 2.16-9.59 21.26 21.26 0 0 0-3 6.42 58 58 0 0 0-1.61 9.91c-.28 3.28-3.12 2.84-3.13-2.94s1-12.16 2.6-15.23 4-21.08 8.8-27.68Z"/><path class="cls-8" d="M93.82 203.77s-10.39 54.6-22 76.77c0 0-6.37 31.18-28.54 107.74 0 0-11.58 4.6-18.33-4.19 0 0 10.71-84.16 17.17-111.07 0 0 28.5-93.13 38.21-105.12.01 0 11.96 15.72 13.49 35.87Z"/><path class="cls-3" d="m158.7 137-.61 11.39-.76 14.27s-2.83 5.37-15.62 5.37-15.41-3.67-15.41-3.67l-.52-6.33-1.72-21Z"/><path class="cls-9" d="m158.7 137-.61 11.39c-5.33 4-18 11.84-32.31 9.64l-1.72-21Z"/><path class="cls-10" d="M102.22 85.24s-9.8-9.59-17.63-3.33c-9.24 7.39.43 34 16.83 31.17Z"/><path class="cls-9" d="M96.5 106.46a1.63 1.63 0 0 1-1.56-1.46c-1-13.09-8.72-15.36-9-15.45a1.62 1.62 0 0 1 .82-3.14c.42.11 10.2 2.82 11.45 18.33a1.61 1.61 0 0 1-1.48 1.74Z"/><path class="cls-9" d="M87.34 99.79a1.59 1.59 0 0 1-1.06-.45 1.62 1.62 0 0 1-.06-2.29A9.18 9.18 0 0 1 95 94.84a1.63 1.63 0 0 1 1.17 2 1.62 1.62 0 0 1-2 1.16 5.93 5.93 0 0 0-5.59 1.3 1.65 1.65 0 0 1-1.24.49Z"/><path class="cls-10" d="M177.09 85.24s9.79-9.59 17.62-3.33c9.24 7.39-.43 34-16.82 31.17Z"/><path class="cls-9" d="M182.8 106.46a1.61 1.61 0 0 0 1.56-1.49c1.06-13.09 8.72-15.36 9-15.45a1.62 1.62 0 0 0-.83-3.14c-.42.11-10.2 2.82-11.45 18.33a1.62 1.62 0 0 0 1.49 1.74Z"/><path class="cls-9" d="M192 99.79a1.63 1.63 0 0 0 1.12-2.74 9.21 9.21 0 0 0-8.75-2.21 1.62 1.62 0 0 0 .81 3.14 5.93 5.93 0 0 1 5.59 1.3 1.63 1.63 0 0 0 1.23.51Z"/><path class="cls-3" d="M140.14 148.21c-33.85 0-44.3-40.21-47.42-69.65a46.46 46.46 0 0 1 45.5-51.37h2.45a46.49 46.49 0 0 1 45.62 50.49c-2.58 29.82-12.29 70.53-46.15 70.53Z"/><path class="cls-11" d="M129 66.31v5.86s-10.72-2-18 2.57l-.84-4.88s6.1-6.12 18.84-3.55Zm22.1 0v5.86s10.72-2 18 2.57l.84-4.88s-6.13-6.12-18.84-3.55Z"/><path class="cls-11" d="M178.24 42.56s13.9 15.56 7.1 43.94a5.35 5.35 0 0 1-5.18-5.5c.19-6.86-.48-12.75-1.29-15.2-2.38-7.21-12.77-11.54-12.12-19.32 0 0-38.75 12.11-59.72.21 0 0-.2 10.52-6 16.73-2.19 2.32.31 10.63-.53 18.35a8.2 8.2 0 0 1-6.39 7A73.8 73.8 0 0 1 92.36 63c1.41-11.56 3.92-17 3.92-17s8.56-22.83 42.33-22.83c31.39.01 39.63 19.39 39.63 19.39Z"/><path class="cls-11" d="M92.86 59.4S88.2 41.64 91 33.05s9.25-9.87 9.25-9.87 19.41-17.29 50.56-22S175.83 7 171.67 13.09c0 0 11.59-9.42 14.8-1.94s-5.34 14.42-5.34 14.42 8.44-7.83 11.41-2.39-8.37 19.29-15.45 21.82c0 0-61.95-21.82-84.23 14.4Zm32.74 23.93c0 3.39-1.5 6.13-3.36 6.13s-3.37-2.74-3.37-6.12 1.51-6.13 3.37-6.13 3.36 2.79 3.36 6.12Zm30.29 0c0 3.39 1.51 6.13 3.36 6.13s3.37-2.74 3.37-6.12-1.5-6.13-3.36-6.13-3.37 2.79-3.37 6.12Z"/><path class="cls-9" d="M140.22 106a1.78 1.78 0 0 1-.76-3.29l5.09-3.15-4-1.47a1.79 1.79 0 0 1-1.16-1.57L138.7 85a1.78 1.78 0 0 1 3.56-.22l.62 10.32 6.35 2.34a1.75 1.75 0 0 1 1.15 1.49 1.78 1.78 0 0 1-.83 1.7l-8.22 5.07a1.71 1.71 0 0 1-1.11.3Zm7.54 14.85a31.11 31.11 0 0 1-23.76-4.31 1.78 1.78 0 0 1-.51-2.46 1.79 1.79 0 0 1 2.46-.51c14.83 9.73 31 .22 31.17.12a1.77 1.77 0 1 1 1.82 3 37.84 37.84 0 0 1-11.18 4.16Zm-6.04 9.4a18.14 18.14 0 0 1-9.83-2.59 1.24 1.24 0 1 1 1.27-2.14c8.3 4.94 16.37.23 16.71 0a1.25 1.25 0 0 1 1.71.43 1.24 1.24 0 0 1-.43 1.7 20.59 20.59 0 0 1-9.43 2.6Z"/><path d="M124.06 102.56c0 4.78-5.33 8.65-11.92 8.65s-11.92-3.87-11.92-8.65 5.34-8.66 11.92-8.66 11.92 3.88 11.92 8.66Zm57.07 0c0 4.78-5.34 8.65-11.93 8.65s-11.92-3.87-11.92-8.65 5.34-8.66 11.92-8.66 11.93 3.88 11.93 8.66Z" style="opacity:.5;fill:#f88968"/><path class="cls-3" d="M239.45 387.1a123.62 123.62 0 0 1-4.89 13.28c-2.56 5.59-.8 9.91-2.34 15s4.49 4.67 5.66-.62.66-7.8 1.77-8 4.25 12.74 4.71 16.44-.31 13 1.08 14.43 4.73-3.77 3.68-13.43-.29-9.45-.29-9.45.92 3.75 1.87 7.78a43.48 43.48 0 0 1 .79 11.7c-.18 2.75 2.63 4.12 3.45 2.64s2.15-11.08 1-14.84-2.47-10.2-2.47-10.2 3.69 8.64 4.32 10.87-.42 10.74 1.53 12.29c.8.64 3.38-.21 2.94-12.33a66.6 66.6 0 0 0-2.16-9.59 21.55 21.55 0 0 1 2.95 6.42 59 59 0 0 1 1.61 9.91c.28 3.28 3.12 2.84 3.13-2.94s-1-12.16-2.6-15.23-4-21.08-8.8-27.68Z"/><path class="cls-8" d="M188.48 203.77s10.39 54.6 22 76.77c0 0 6.37 31.18 28.54 107.74 0 0 11.58 4.6 18.33-4.19 0 0-10.71-84.16-17.17-111.07 0 0-28.5-93.13-38.21-105.12.03 0-11.97 15.72-13.49 35.87Z"/></g></g></svg>