<svg xmlns="http://www.w3.org/2000/svg" viewBox="0 0 652.3 867.93"><defs><style>.cls-2{fill:#2c2c2c}.cls-3{fill:#ffaf82}.cls-4{fill:#f88968}.cls-6{fill:#009762}.cls-9{fill:#32324c}</style></defs><g id="Capa_2" data-name="Capa 2"><g id="Información"><path d="M258.1 865.53c9.42-87.36 15.42-177.21 15.42-177.21C240 673 186.36 659 186.36 659c-9.12 51.82-14.7 136.46-18 206.68Z" style="fill:#050705"/><path class="cls-2" d="M404.55 867.93c-.49-60.45-3.68-133.78-14-194.2l-93.38 14.59s.65 68.27 8.29 178.8Z"/><path class="cls-2" d="M384.32 642.45s14.88 52.61 14.73 99.55c0 0-72.82 31.86-165.46-3.34-37.88-14.4-57.12-56.62-43.54-94.81l.48-1.36s118.47-4.9 193.79-.04Z"/><path class="cls-3" d="M74.42 628.78s-13.11 2.71-23.75 7.56-23.4 11.09-29.9 14.2c-7.82 3.75-1 10.69 10.08 6.09S44.51 651 44.51 651 7.27 678.94 1 689.74c-5.76 9.86 15.54-4.5 33.82-15.4 0 0-31.28 33.19-29.36 40.71 2.53 9.86 40.32-30.46 40.32-30.46s-23.44 33.87-19 36.11c5 2.49 33.18-29.25 33.18-29.25s-14 24.69-10.57 25.13c6.87.85 46.8-44.56 48.14-72.17-.04 0-16.37-15.64-23.11-15.63Z"/><path class="cls-4" d="M38.18 665.08S50.73 683 70.81 686c0 0-19.62 6.22-32.63-20.92Zm22.17.18S84 655.64 74.94 635c0 0 17.68 19.94-14.59 30.26Z"/><path d="M156.88 475.42c18-155 53.09-217.11 53.09-217.11 31.73 129.81 7 200.4-3.71 234.26S97.49 648.45 97.49 648.45c-7.58-9.51-17.72-16.45-27.43-18.65 0 0 31.09-54.81 42.1-75.33s44.72-79.05 44.72-79.05Z" style="fill:#00784e"/><path class="cls-6" d="M164.26 672.81a380.79 380.79 0 0 0 47.39 18.49q6.57 2.06 13.24 3.85a292.75 292.75 0 0 0 72 10.49c40.29.56 81.14-8.44 119.17-31.91L390.34 521l42.53-248.38-63.62-21.79-3.42-1.17-6.26-2.15-2.66-.91-5.36-1.83-11.34-3.88-67.29 9-4.06.54-6.89.92-3.86.52-48.11 6.44Z"/><path d="M224.89 695.15a292.75 292.75 0 0 0 72 10.49c-1.09-6.85-2-13.95-2.67-21.26-.36-3.64-.66-7.34-.91-11.08q-.77-11-1-22.59-.13-5.46-.15-11 0-11.05.28-22.47c.11-3.66.24-7.32.4-11q.48-11.07 1.27-22.41c.25-3.65.52-7.3.83-11q.89-11.12 2.05-22.37c.37-3.64.76-7.31 1.17-11q1.23-11.15 2.69-22.33.7-5.47 1.46-11 1.53-11.18 3.24-22.3.84-5.5 1.72-11 1.78-11.23 3.72-22.33c.63-3.67 1.28-7.34 1.93-11q2-11.29 4.16-22.34 1.05-5.5 2.13-11c1.5-7.58 3-15.06 4.56-22.38q1.15-5.58 2.33-11 2.46-11.48 4.92-22.41c.83-3.74 1.68-7.42 2.52-11q2.67-11.66 5.28-22.49a1077 1077 0 0 1 2.7-11.08c1.95-8 3.85-15.51 5.66-22.56q1.49-5.77 2.88-11.12c2.58-9.79 4.91-18.38 6.9-25.55l-5.36-1.83-11.34-3.88-67.29 9-4.06.54q-1.82 9.51-3.55 19.08-1 5.42-1.94 10.85-1.9 10.88-3.72 21.78-.91 5.43-1.78 10.87-1.75 10.91-3.4 21.77-.83 5.46-1.62 10.88-1.6 10.92-3.12 21.78c-.51 3.64-1 7.29-1.49 10.92q-1.47 11-2.84 21.79c-.46 3.67-.91 7.31-1.36 10.95q-1.33 11-2.59 21.81-.63 5.5-1.23 11-1.23 11-2.34 21.86c-.38 3.68-.76 7.35-1.11 11-.75 7.39-1.44 14.7-2.1 21.88-.34 3.72-.67 7.39-1 11q-1 11.15-1.86 21.91c-.31 3.74-.6 7.42-.88 11.07q-.85 11.25-1.59 22c-.27 3.75-.51 7.45-.75 11.09q-.74 11.38-1.32 22c-.22 3.78-.41 7.49-.6 11.13q-.58 11.58-1 22.11c-.16 3.84-.29 7.57-.41 11.17-.26 8-.44 15.42-.55 22.22-.06 4-.1 7.72-.1 11.24-.07 7.66.03 14.22.23 19.59Z" style="fill:#fff"/><path d="M263.37 280.37a460.67 460.67 0 0 0 58.57 3.4q12.17 0 25.19-.49 1.49-5.77 2.88-11.12c-32.25 1.33-60.29.46-84.7-2.64q-.99 5.42-1.94 10.85Zm-5.5 32.63a462.8 462.8 0 0 0 64.78 4.1q7.89 0 16.12-.2a1077 1077 0 0 1 2.7-11.08c-31.12.87-58.2-.35-81.82-3.69q-.91 5.45-1.78 10.87Zm-5.02 32.67c20.81 3.23 44.25 4.82 70.64 4.82h7.48c.83-3.74 1.68-7.42 2.52-11-30 .45-56.17-1.08-79-4.62q-.84 5.38-1.64 10.8Zm-4.61 32.7c22.05 3.65 47.05 5.49 75.48 5.52q1.15-5.58 2.33-11c-28.91.08-54.19-1.71-76.32-5.41-.51 3.61-1 7.26-1.49 10.89ZM244 411.11c21.36 3.76 45.56 5.8 73 6.14q1.05-5.5 2.13-11c-27.89-.27-52.34-2.29-73.76-6.11-.43 3.69-.88 7.33-1.37 10.97Zm-3.78 32.78c20.76 3.85 44.2 6.06 70.72 6.68.63-3.67 1.28-7.34 1.93-11-27-.55-50.62-2.75-71.42-6.67q-.63 5.52-1.23 10.99Zm-3.45 32.85c20.21 3.9 43 6.27 68.73 7.13q.84-5.5 1.72-11c-26.11-.81-49.1-3.19-69.34-7.15-.38 3.71-.76 7.38-1.11 11.02Zm-3.1 32.92c19.77 3.94 42 6.42 67.13 7.48q.7-5.47 1.46-11c-25.42-1-47.82-3.53-67.59-7.55-.34 3.75-.67 7.41-1 11.07Zm-2.74 32.98c19.47 4 41.37 6.58 66 7.79.37-3.64.76-7.31 1.17-11-24.89-1.2-46.88-3.82-66.3-7.9-.3 3.78-.59 7.47-.87 11.11Zm-2.34 33.06c19.33 4 41.06 6.73 65.47 8.07.25-3.65.52-7.3.83-11-24.58-1.35-46.33-4.07-65.55-8.19-.27 3.78-.51 7.48-.75 11.12Zm-1.92 33.17c19.4 4.11 41.2 6.87 65.72 8.33.11-3.66.24-7.32.4-11-24.58-1.46-46.31-4.26-65.52-8.44-.22 3.76-.41 7.47-.6 11.11Zm-1.4 33.28c19.74 4.21 42 7.05 67 8.56q-.13-5.46-.15-11c-24.94-1.53-47-4.41-66.43-8.69-.17 3.8-.3 7.53-.42 11.13Zm-.65 33.46c20.44 4.33 43.51 7.24 69.58 8.77-.36-3.64-.66-7.34-.91-11.08-25.81-1.57-48.54-4.54-68.57-8.93-.06 3.96-.1 7.72-.1 11.24Z" style="fill:#e2e2e2"/><path class="cls-9" d="M201.12 59.89s-17.05 11.24-10.94 41.78 17.92 33.79 17.92 33.79 17.9-67.62-6.98-75.57Z"/><path class="cls-3" d="m279.53 202.59 2.17 38.62 1 17.7c22.24 16.45 58.41-6.2 58.41-6.2l3.89-57.24c-10.3-6.94-36.82-1.16-52.76 3.26-7.54 2.08-12.71 3.86-12.71 3.86Z"/><path class="cls-4" d="m279.53 202.59 2.17 38.62c26.12-6 48-42.24 48-42.24l-37.49-.24c-7.51 2.08-12.68 3.86-12.68 3.86Z"/><path class="cls-9" d="M204.56 75.44s-41.66-19.38-29.45-53.59S237.17 3.38 282 5.08c72.17 2.75 94.77 40.29 92.94 79.38s-1.42 91.5-19.13 111-29.82-8.08-39-32.53-65.7-99.26-112.25-87.49Z"/><path class="cls-3" d="M200.79 108.7c0 1.32.05 2.66.09 4 .74 24.27 4.92 53.76 9 77.75a45.85 45.85 0 0 0 54.24 37.19c30.49-6.16 68.09-15.5 85.24-26.78 5.22-3.42 8.53-7 9.19-10.77 1.54-8.75 2.38-20.68 2.77-33.67C362.57 117.08 359.7 68 359.7 68c-36.65-45.52-138.79-27.76-154.34 5.55-3.55 7.59-4.79 20.22-4.57 35.15Z"/><path class="cls-9" d="M261.34 130.68c0 5.12 2.28 9.26 5.09 9.26s5.09-4.14 5.09-9.26-2.28-9.26-5.09-9.26-5.09 4.14-5.09 9.26Zm-52.11 0c0 5.12 2.28 9.26 5.09 9.26s5.09-4.14 5.09-9.26-2.27-9.26-5.09-9.26-5.09 4.14-5.09 9.26Zm152.31-10.31s-16.32-10.62-30.06 8.34h-10.69s.61-22-4.58-33.86-25.65-11.61-28.71-25.66c0 0-48.3 19.22-82.94 6.25s69.2-70.69 119.29-42.59 45.46 50.15 37.69 87.52Z"/><path class="cls-9" d="M288.5 117.85s-4.9-10.07-14.31-12.59c-8.7-2.33-14.92-.08-18 1.62a3.12 3.12 0 0 0-1.41 3.83 3.14 3.14 0 0 0 4.27 1.75c5.23-2.46 16.83-5.61 29.45 5.39Zm-87.71-9.15c0 1.32.05 2.66.09 4a25 25 0 0 1 21.84-.26 3.14 3.14 0 0 0 2.86-5.58c-3.12-1.7-9.33-3.95-18-1.61a19 19 0 0 0-6.79 3.45Zm148.61 92.18c5.22-3.42 8.53-7 9.19-10.77 1.54-8.75 2.38-20.68 2.77-33.67L334.4 175s-.35 19.16 15 25.88Z"/><path class="cls-3" d="M331.48 128.71s16.37-19.82 30.06-8.34C376.63 133 365.07 176 334.4 175Z"/><path class="cls-4" d="M333.65 165.67a2.71 2.71 0 0 0 2.68-2.39c2.49-21.71 15.37-25.06 15.92-25.19a2.7 2.7 0 0 0-1.2-5.26c-.7.16-17.13 4.11-20.09 29.83a2.71 2.71 0 0 0 2.38 3Z"/><path class="cls-4" d="M350.87 151.9a2.72 2.72 0 0 0 1.81-.69 2.68 2.68 0 0 0 .21-3.78 15.25 15.25 0 0 0-14.41-4.17 2.7 2.7 0 1 0 1.15 5.27 9.87 9.87 0 0 1 9.24 2.5 2.72 2.72 0 0 0 2 .87Zm-114.81 33.26c10.76 0 25.84-2.87 37.5-16.26a2.7 2.7 0 0 0-4.08-3.55c-17.66 20.3-45.33 13.09-45.61 13a2.7 2.7 0 0 0-1.42 5.2 55 55 0 0 0 13.61 1.61Zm11.52 13.05c13.87 0 20.7-9 21-9.42a2.7 2.7 0 0 0-4.33-3.23c-.32.42-7.22 9.21-21.52 6.84a2.7 2.7 0 1 0-.89 5.32 34.45 34.45 0 0 0 5.74.49Zm-10.78-37.75a2.7 2.7 0 0 0 1.64-4.85l-7.19-5.49 6.23-1.62a2.68 2.68 0 0 0 2-2.18l2.75-17.18a2.7 2.7 0 1 0-5.33-.85l-2.47 15.43-9.9 2.57a2.7 2.7 0 0 0-1 4.76l11.61 8.85a2.64 2.64 0 0 0 1.66.56Z"/><path class="cls-6" d="M391.4 342.64s121 57.35 190.88 73.87c0 0 15.25-46.52-35.48-78.33 0 0-86.6-56-123-68.66-.02 0-27.55 45.99-32.4 73.12Z"/><path class="cls-3" d="M652.28 167.49c0 1.24-.06 2.51-.13 3.82v.88c-.14 2.38-.37 4.85-.68 7.38-1.76 14.18-1.93 23.84-10.58 34.26 0 0-26.19 4.36-31.29-.32 0 0-11.16-16.19-15.86-27.26 0 0-7.13-13.55-5.27-19.59s8-7.5 8-7.5l-.3-2.3c-.42-3.33-1.18-9.28-1.4-11.25-1.14-10.7 7.92-15.62 13.29.76 0-1.44-.51-11.59 7.24-12.86 5.45-.9 8.19 12.73 8.19 12.73s5-12.15 9.94-10.77c5.38 1.52 5.58 14.86 5.59 15.39.25-.37 4.47-6.61 10-2.62 2.1 1.6 3.45 9.22 3.26 19.25Z"/><path class="cls-4" d="M652.28 167.49c0 1.24-.06 2.51-.13 3.82a9.73 9.73 0 0 1-7.14 4.12c-6.8.25-7.25-7.16-7.25-7.16s-1.26 6-5.84 5.26a7.74 7.74 0 0 1-5.94-5.09s-2.23 5-6.18 4.41-7.58-11.06-7.58-11.06 3.54 6.35 6.85 7.94 7.06-2.15 6.27-9.08c.08.75 1 7.84 5.77 9.53s7.5-8.87 7.63-9.44c0 .62.38 12 5.33 12.45 3.41.33 6.38-2.77 8.21-5.7Z"/><path class="cls-4" d="M603.23 162.85s10.63 2.49 13.54 10-9.16 12.81-19.24 10.2c0 0 4.88 4.61 13.24 2.63s10.13-10.63 7.6-14.38-5.87-6.77-15.14-8.45Z"/><path class="cls-4" d="M617.81 176s12.55 5.2 10.68 25.06c0 0 10-16.07-9.48-28.42Z"/><path class="cls-6" d="M409.3 317.27s40.24 70.51 197.92 105.28c0 0 44.63-17 36.94-213.35-16.5 4.88-28 4.2-36.24 1.83 0 0-4 34.2-14.64 65.71s-13 80.48-13 80.48-243.64-170.41-170.98-39.95Z"/></g></g></svg>