<svg xmlns="http://www.w3.org/2000/svg" viewBox="0 0 392.11 846.43"><defs><style>.cls-1{fill:#ffaf82}.cls-2{fill:#f88968}.cls-3{fill:#d35500}.cls-5{fill:#2c2c2c}.cls-6{fill:#f26403}.cls-9{fill:#32324c}</style></defs><g id="Capa_2" data-name="Capa 2"><g id="Información"><path class="cls-1" d="M239.58 213.54c.91.87 1.83 1.79 2.77 2.75l.62.64c1.68 1.75 3.37 3.64 5 5.62 9.39 11.14 16.51 18 18.32 31.66 0 0-14.87 22.63-21.92 23.2 0 0-19.84-2.86-31.39-7 0 0-15.08-4.05-18.32-9.62s-.09-11.18-.09-11.18l-1.92-1.38c-2.79-2-7.77-5.54-9.4-6.74-8.8-6.55-6.2-16.74 9.78-9.42-1.1-1-9-7.65-4.62-14.33 3.11-4.71 15.21 2.69 15.21 2.69s-5.63-12.18-1.18-14.91c4.87-3 15 6.11 15.39 6.47-.1-.44-1.85-7.92 5-9.3 2.73-.51 9.37 3.76 16.75 10.85Z"/><path class="cls-2" d="M239.58 213.54c.91.87 1.83 1.79 2.77 2.75a9.94 9.94 0 0 1-1.86 8.19c-4.53 5.27-10.38.47-10.38.47s3.59 5.07-.12 8a7.9 7.9 0 0 1-7.92.92s2.18 5.11-1 7.68-13.54-2-13.54-2 7.21 1.74 10.69.36 3.29-6.78-2.46-11c.62.47 6.54 4.71 11.14 2.28s-1.45-11.76-1.79-12.25c.48.41 9.22 8 13 4.63 2.66-2.26 2.39-6.63 1.47-10.03Z"/><path class="cls-2" d="M202.13 247.05s9.23-6.23 16.87-3.21 3.24 15.74-5.69 21.47c0 0 6.83-.45 11.13-8.09s-.93-15-5.5-15.64-9.13-.31-16.81 5.47Z"/><path class="cls-2" d="M222 245.22s12.59-5.79 26.17 9.35c0 0-5.1-18.63-27.85-12.57Z"/><path class="cls-3" d="M390.21 398.31s27.31-19.58-125-149.8c-7.78 15.74-16.26 23.88-23.74 28.41 0 0 22.11 29.95 40.29 58.59 11.94 18.86 70.62 89.49 108.45 62.8Z"/><path class="cls-3" d="M213.31 265.31c-24.16-13.84-91.74 24.37-60.95 47.71 47.18 35.76 175.51 92.51 219.84 93.53 27.65.63 33.41-20.69-30.4-62.72-32.15-21.18-53.74-35.69-128.49-78.52Z"/><path d="M166 835.73c-7-49.24-11.86-142.66-11.86-142.66 33.71-15.43 87.76-29.5 87.76-29.5 8.1 46.1 17.1 111.92 16.86 182.86 0 .23-92.71-10.43-92.76-10.7Z" style="fill:#050705"/><path class="cls-5" d="M130.37 693.07s4.61 82.42-6.58 153.36c0 .19-100.95-9.92-100.92-10.28C27 777.49 28 727.08 36.34 678.39Z"/><path class="cls-5" d="M42.58 646.89s-15 53-14.83 100.2c0 0 73.33 32.08 166.61-3.37 38.14-14.5 57.51-57 43.84-95.46-.16-.45-.32-.91-.49-1.37 0 0-119.28-4.89-195.13 0Z"/><path class="cls-6" d="M264.17 677.46a383 383 0 0 1-47.72 18.62q-6.62 2.07-13.33 3.88a294.33 294.33 0 0 1-72.47 10.55c-40.58.57-81.71-8.5-120-32.12l25.88-153.78S-10.09 308.14 2 282.27c7.44-15.92 55.76-29.7 55.76-29.7l3.44-1.18 6.31-2.16 2.67-.91 5.41-1.85L87 242.56l67.76 9.06 4.08.55 6.95.93 3.88.52 48.47 6.47Z"/><path d="M203.12 700a294.33 294.33 0 0 1-72.47 10.55c1.08-6.89 2-14 2.68-21.4q.54-5.5.91-11.16.78-11.1 1-22.74.14-5.51.15-11.12 0-11.13-.28-22.63c-.11-3.68-.24-7.37-.4-11.09-.32-7.43-.75-15-1.28-22.57a669.6 669.6 0 0 0-.84-11q-.88-11.19-2.06-22.52c-.37-3.67-.76-7.36-1.17-11q-1.25-11.22-2.72-22.48-.71-5.52-1.47-11.05-1.54-11.25-3.25-22.46c-.57-3.69-1.14-7.37-1.74-11q-1.8-11.31-3.75-22.48c-.63-3.69-1.29-7.38-1.94-11.05q-2-11.37-4.19-22.49-1.05-5.55-2.14-11.06c-1.52-7.63-3-15.16-4.59-22.54q-1.17-5.61-2.35-11.1-2.48-11.56-5-22.57-1.24-5.64-2.53-11.12c-1.79-7.82-3.58-15.38-5.32-22.64-.91-3.8-1.82-7.53-2.71-11.16-2-8-3.88-15.61-5.71-22.71q-1.5-5.82-2.9-11.2c-2.59-9.86-4.94-18.5-6.95-25.72l5.41-1.85L87 242.56l67.76 9.06 4.08.55q1.83 9.59 3.58 19.21l2 10.93q1.92 10.95 3.74 21.92c.62 3.65 1.21 7.3 1.8 10.95q1.77 11 3.43 21.93.82 5.47 1.63 10.95 1.62 11 3.13 21.93c.52 3.67 1 7.34 1.51 11q1.47 11 2.86 21.94l1.37 11q1.35 11.07 2.6 22 .63 5.55 1.24 11 1.24 11.12 2.36 22c.38 3.71.77 7.4 1.12 11.07.75 7.43 1.45 14.79 2.12 22q.51 5.61 1 11.11 1 11.24 1.87 22.07c.31 3.76.6 7.46.88 11.14q.87 11.33 1.61 22.12c.27 3.78.51 7.5.75 11.17q.75 11.46 1.33 22.2c.23 3.8.42 7.54.61 11.2.39 7.77.73 15.21 1 22.26.16 3.86.29 7.62.41 11.25.26 8.06.44 15.53.55 22.37.07 4 .11 7.77.11 11.32-.03 7.73-.12 14.34-.33 19.79Z" style="fill:#fff"/><path d="M164.37 282.31a462.93 462.93 0 0 1-59 3.43q-12.24 0-25.36-.5-1.5-5.82-2.9-11.2c32.48 1.34 60.71.47 85.29-2.66q1.01 5.46 1.97 10.93Zm5.54 32.87a465.88 465.88 0 0 1-65.23 4.13q-7.94 0-16.23-.2c-.91-3.8-1.82-7.53-2.71-11.16 31.33.88 58.59-.35 82.37-3.72.62 3.65 1.21 7.3 1.8 10.95Zm5.09 32.88c-21 3.25-44.56 4.85-71.13 4.85h-7.54q-1.24-5.64-2.53-11.12c30.2.46 56.55-1.09 79.57-4.64q.79 5.44 1.63 10.91Zm4.61 32.94c-22.2 3.67-47.38 5.52-76 5.55q-1.17-5.61-2.35-11.1c29.11.08 54.57-1.72 76.84-5.45.52 3.66 1.01 7.33 1.51 11Zm4.23 33c-21.51 3.79-45.88 5.84-73.5 6.19q-1.05-5.55-2.14-11.06c28.08-.27 52.7-2.31 74.27-6.15q.69 5.49 1.37 11.02Zm3.84 33c-20.9 3.87-44.5 6.1-71.21 6.72-.63-3.69-1.29-7.38-1.94-11.05 27.14-.56 51-2.78 71.91-6.72q.63 5.51 1.24 11.05Zm3.48 33c-20.35 3.93-43.3 6.31-69.2 7.17-.57-3.69-1.14-7.37-1.74-11 26.29-.8 49.44-3.2 69.82-7.19.38 3.7.77 7.39 1.12 11.02Zm3.12 33.18c-19.91 4-42.33 6.47-67.6 7.54q-.71-5.52-1.47-11.05c25.6-1 48.16-3.56 68.07-7.6q.51 5.61 1 11.11Zm2.72 33.21c-19.6 4-41.65 6.63-66.46 7.85-.37-3.67-.76-7.36-1.17-11 25.06-1.21 47.19-3.85 66.75-8 .34 3.76.63 7.47.88 11.15Zm2.39 33.29c-19.46 4.07-41.34 6.77-65.92 8.12a669.6 669.6 0 0 0-.84-11c24.76-1.36 46.65-4.1 66-8.25.28 3.74.52 7.45.76 11.13Zm1.94 33.4c-19.54 4.14-41.49 6.92-66.18 8.38-.11-3.68-.24-7.37-.4-11.09 24.75-1.47 46.63-4.29 66-8.49.25 3.8.39 7.54.58 11.2Zm1.41 33.51c-19.88 4.24-42.26 7.1-67.46 8.62q.14-5.51.15-11.12c25.11-1.54 47.3-4.44 66.9-8.75.16 3.86.29 7.66.41 11.25Zm.66 33.69c-20.59 4.36-43.82 7.29-70.07 8.83q.54-5.5.91-11.16c26-1.58 48.88-4.56 69-9 .12 4.05.16 7.78.16 11.33Z" style="fill:#e2e2e2"/><path class="cls-9" d="M227.05 60.3s17.17 11.32 11 42.07-18 34-18 34-18.05-68.06 7-76.07Z"/><path class="cls-1" d="m148.1 204-2.18 38.88-1 17.82c-22.39 16.57-58.81-6.23-58.81-6.23l-3.9-57.64c10.37-7 37.07-1.17 53.12 3.28 7.57 2.09 12.77 3.89 12.77 3.89Z"/><path class="cls-2" d="m148.1 204-2.18 38.88c-26.3-6.07-48.33-42.52-48.33-42.52l37.74-.25c7.57 2.09 12.77 3.89 12.77 3.89Z"/><path class="cls-9" d="M223.59 76s42-19.51 29.65-53.95S190.76 3.4 145.63 5.12C73 7.88 50.19 45.68 52 85s1.43 92.13 19.26 111.81 30-8.14 39.25-32.75S176.72 64.11 223.59 76Z"/><path class="cls-1" d="M227.38 109.45c0 1.33 0 2.68-.08 4-.75 24.44-5 54.13-9.11 78.29a46.16 46.16 0 0 1-54.61 37.44c-30.7-6.2-68.56-15.61-85.83-27-5.26-3.44-8.59-7.07-9.25-10.85-1.55-8.81-2.4-20.82-2.8-33.9-1.21-39.63 1.68-89.08 1.68-89.08 36.9-45.83 139.74-27.95 155.4 5.58 3.58 7.77 4.82 20.49 4.6 35.52Z"/><path class="cls-9" d="M166.42 131.58c0 5.15-2.3 9.33-5.13 9.33s-5.12-4.18-5.12-9.33 2.29-9.33 5.12-9.33 5.13 4.18 5.13 9.33Zm52.46 0c0 5.15-2.29 9.33-5.12 9.33s-5.13-4.18-5.13-9.33 2.3-9.33 5.13-9.33 5.12 4.18 5.12 9.33ZM65.52 121.21s16.48-10.7 30.27 8.39h10.76s-.61-22.11 4.62-34.1 25.83-11.68 28.9-25.83c0 0 48.64 19.35 83.52 6.29S153.91 4.78 103.48 33.08 57.7 83.56 65.52 121.21Z"/><path class="cls-9" d="M139.07 118.66s4.93-10.13 14.4-12.66c8.77-2.35 15-.08 18.17 1.63a3.15 3.15 0 0 1 1.42 3.86 3.15 3.15 0 0 1-4.29 1.76c-5.31-2.48-16.99-5.66-29.7 5.41Zm88.31-9.21c0 1.33 0 2.68-.08 4a25.18 25.18 0 0 0-22-.26 3.16 3.16 0 0 1-2.88-5.62c3.14-1.71 9.4-4 18.17-1.63a19.21 19.21 0 0 1 6.79 3.51ZM77.75 202.27c-5.26-3.44-8.59-7.07-9.25-10.85-1.55-8.81-2.4-20.82-2.8-33.9l27.15 18.66s.36 19.32-15.1 26.09Z"/><path class="cls-1" d="M95.79 129.6s-16.48-20-30.27-8.39c-15.19 12.74-3.55 56 27.33 55Z"/><path class="cls-2" d="M93.61 166.81a2.72 2.72 0 0 1-2.7-2.41c-2.51-21.86-15.48-25.22-16-25.35a2.72 2.72 0 0 1 1.21-5.3c.7.15 17.24 4.13 20.22 30a2.71 2.71 0 0 1-2.39 3 1.62 1.62 0 0 1-.34.06Z"/><path class="cls-2" d="M76.27 153a2.71 2.71 0 0 1-2-4.5 15.39 15.39 0 0 1 14.52-4.2 2.71 2.71 0 1 1-1.17 5.3 10 10 0 0 0-9.3 2.52 2.74 2.74 0 0 1-2.05.88Zm115.6 33.44c-10.83 0-26-2.89-37.75-16.38a2.71 2.71 0 1 1 4.1-3.56c17.78 20.43 45.64 13.18 45.92 13.1a2.72 2.72 0 1 1 1.43 5.24 55.35 55.35 0 0 1-13.7 1.6Zm-11.59 13.14c-14 0-20.85-9.06-21.17-9.49a2.72 2.72 0 0 1 4.36-3.24c.31.41 7.26 9.27 21.67 6.88a2.72 2.72 0 0 1 .89 5.36 34.88 34.88 0 0 1-5.75.49Zm10.84-38.01a2.72 2.72 0 0 1-1.65-4.88l7.25-5.53-6.28-1.63a2.7 2.7 0 0 1-2-2.2L185.67 130a2.72 2.72 0 0 1 5.37-.86l2.48 15.55 10 2.58a2.72 2.72 0 0 1 1 4.79L192.77 161a2.74 2.74 0 0 1-1.65.57Z"/><path class="cls-1" d="M56 271.08s-18.52-9.64-24.73-23.87c-1.62-3.71 7.44-8.55 12.92-4.6 0 0-5.23-5.92-3-9.49C46 225.28 52.06 230 52.06 230s-1.74-9 3.3-12.46c5.63-3.85 12.88 1.78 12.88 1.78s-8.53-7.12.77-13.24c7.11-4.68 46.57 31 52.71 64.48 0 0-17.37 21.73-25.58 22.82 0 0-17.43.92-31.19-3.26.05-.02-20.37-1.71-8.95-19.04Z"/><path class="cls-6" d="M267.62 457.09s16.5-55-147.54-192.42L95.4 294.4s24.68 28.24 42.33 59.87 55.42 69.39 55.42 69.39 54.27 58.78 74.47 33.43Z"/><path class="cls-6" d="M2.38 289.67S-27.92 321 171 442.4c73.53 44.88 108.24 20.62 94.57 4.43C172.36 336.41 37 234.13 2.38 289.67Z"/></g></g></svg>