<svg xmlns="http://www.w3.org/2000/svg" viewBox="0 0 413.19 846.31"><defs><style>.cls-1{fill:#d37157}.cls-2{fill:#b55441}.cls-3{fill:#ff9a1d}.cls-5{fill:#2c2c2c}</style></defs><g id="Capa_2" data-name="Capa 2"><g id="Información"><path class="cls-1" d="M358.12 562.53A119.64 119.64 0 0 1 378 573.67c8.64 6.3 18.93 14.23 24.19 18.22 6.32 4.79-1.05 9.76-10.15 3.6S380.83 588 380.83 588s28.25 31.84 31.92 42.67c3.35 9.89-13.1-6.89-27.48-20 0 0 21.94 35.49 18.83 41.86-4.08 8.38-30.53-34.69-30.53-34.69s14.79 34.66 10.4 35.85c-4.9 1.32-24.37-32.31-24.37-32.31s8 24.71 4.86 24.46c-6.31-.5-33.75-48.52-29.88-73.51 0-.03 17.51-11.04 23.54-9.8Z"/><path class="cls-2" d="M383.93 601.72s-14.53 13.72-33.08 12.74c0 0 16.43 9.19 33.08-12.74ZM364 597.81s-19.42-13-7.51-29.79c.02-.02-19.49 14.61 7.51 29.79Z"/><path class="cls-3" d="M235.09 293.37s14.9 81 33.79 128.28 65.46 159.22 65.46 159.22c5.44-9.43 15.25-15.86 31.09-14.82 0 0-31.23-105.26-44.52-150.58C315 395.26 294.36 283.74 281.52 265c0 0-44.52 21.41-46.43 28.37Z"/><path d="m258.24 835.5 23-240.54-84.08 21.69s-5.57 181.48 4.72 225.52Z" style="fill:#050705"/><path class="cls-5" d="M84.59 604.72s-4.53 81.55 28.67 93.41S278.5 735.67 281.25 595Z"/><path class="cls-5" d="m140.16 844.81 22.34-162.76-78.12-65.4s-9.1 162.73-6.95 229.66Z"/><path d="m149.73 234.3-83.82 41.23 28.65 160.12-17.33 186.59s141.08 30.23 210.77-1.85L281.52 265l-69.67-27.36Z" style="fill:#ffb413"/><path class="cls-5" d="M237.86 148.81c25.19-12.52 29.37-17.24 35.54-19.33 11.55-3.9 22.31-3.74 21.93-19.36-.23-9.41-3.78-15.18-6.58-18.27 4.78-3.73 11.37-7.77 12.39-18.1 2.24-22.76-10.39-26.29-10.39-26.29s6.85-13.64-.76-24c-9.44-12.89-22.92-11.35-29.57-4.92 0 0-2.67-12.54-20.36-17S215.6 13 215.6 13s-11-18.18-33.33-11.58a25.54 25.54 0 0 0-18.72 22.29s-14-15.06-34.15-2.93C112.86 30.77 117.76 53 117.76 53s-19.91-6.2-27.31 12.21S99.67 98 99.67 98s-13.62 6.16-11 23.67 12 20.48 12 20.48-7 20.31 9.17 29.2c0 0 7.92 33.64 32.73 17.29Z"/><path class="cls-1" d="m203.88 202.06-2.73 36.64-1.26 16.8c-21.42 15.23-47-5.88-47-5.88l-10.26-58.56c9.9-6.41 34.26 2.62 49.32 7.11 7.05 2.11 11.93 3.89 11.93 3.89Z"/><path class="cls-2" d="m203.88 202.06-2.73 36.64c-24.71-6.19-44.85-41-44.85-41l35.61.43c7.09 2.15 11.97 3.93 11.97 3.93Z"/><path class="cls-1" d="M283.32 104.21v4.19c-.05 2-.1 3.93-.18 5.94q-.14 3.83-.38 7.78c0 .43-.06.88-.09 1.32-.45 7.49-1.15 15.24-2 23-.19 1.68-.37 3.35-.56 5q-.93 8.1-2 16.05c-.13 1.05-.29 2.09-.44 3.15-.29 2.1-.59 4.17-.89 6.23-.65 4.5-1.33 8.9-2 13.15a48 48 0 0 1-56.4 39.63c-26.21-5-53-11.79-73.4-20.58 0 0-.3-.59-.81-1.72a207.78 207.78 0 0 1-12.23-36.65 216.65 216.65 0 0 1-6.07-50.89A189 189 0 0 1 127.4 96c8-61.93 138.93-67.49 154.24-16.45.1.59.21 1.18.3 1.79a155.36 155.36 0 0 1 1.38 22.87Z"/><path d="M194.42 160.36c0 7.75-8.65 14-19.33 14s-19.32-6.28-19.32-14 8.65-14 19.32-14 19.33 6.26 19.33 14Zm86.26-13.9-.57 5c-.61 5.39-1.29 10.76-2 16-.14 1.06-.29 2.1-.44 3.16-.17 1.23-.36 2.46-.54 3.69-10.28-.32-18.47-6.48-18.47-14 0-7.75 8.65-14 19.33-14 .9.02 1.81.07 2.69.15Z" style="opacity:.5;fill:#b55441"/><path class="cls-5" d="M209.8 138.65c.06 5.37-2.27 9.74-5.22 9.78s-5.39-4.29-5.45-9.65 2.27-9.74 5.22-9.78 5.39 4.29 5.45 9.65Zm55.47 0c.06 5.37-2.28 9.74-5.23 9.78s-5.38-4.29-5.45-9.65 2.28-9.74 5.22-9.78 5.39 4.29 5.46 9.65Z"/><path class="cls-1" d="M146.86 130.31s-15.16-17.93-27.54-7.31c-13.64 11.72-2.62 50.78 25.37 49.57Z"/><path class="cls-2" d="M145.09 164.07a2.45 2.45 0 0 1-2.28-2.15c-2.54-20-14.67-22.79-14.79-22.82a2.46 2.46 0 1 1 1-4.82c.63.14 15.68 3.57 18.66 27a2.45 2.45 0 0 1-2.61 2.77Z"/><path class="cls-2" d="M129.22 151.69a2.46 2.46 0 0 1-1.71-4.06 13.9 13.9 0 0 1 13.12-4 2.46 2.46 0 1 1-1 4.82 9.11 9.11 0 0 0-8.41 2.38 2.49 2.49 0 0 1-2 .86ZM239 195.15c-10.73-.68-24.1-4.38-34.87-16.46a2.83 2.83 0 1 1 4.22-3.77c18.83 21.13 47.69 13.16 48 13.08a2.83 2.83 0 0 1 1.56 5.44 60.39 60.39 0 0 1-18.91 1.71Zm-8.2 12.67c-13.64-.86-20.49-9.65-20.82-10.09a3 3 0 0 1 4.75-3.63c.35.45 8.08 10.12 23.92 7.29a3 3 0 1 1 1 5.88 37.07 37.07 0 0 1-8.85.55Zm4.71-39.56a2.83 2.83 0 0 1-1.51-5.06l7.47-5.84-6.56-1.62a2.83 2.83 0 0 1-2.11-2.27l-3.09-18a2.83 2.83 0 1 1 5.58-1l2.71 16.22 10.4 2.57a2.83 2.83 0 0 1 1.07 5l-12.06 9.43a2.8 2.8 0 0 1-1.9.57Z"/><path class="cls-5" d="M283.32 104.21v4.19c-.05 2-.1 3.93-.18 5.94-12.32-9.74-13.44-41.47-13.44-41.47s-3.9 6.44-19.1 7.84-20.95-9.51-20.95-9.51-7.25 8.67-22.08 8.11-18.76-7.28-18.76-7.28c-2 14.28-17.36 14.84-17.36 14.84-.84 17.08-12.6 23.48-12.6 23.48 7.56 9.47-3 21.82-3 21.82h-8.06c-6.63-15.74-21.88-12.34-21.88-12.34A189 189 0 0 1 127.4 96c8-61.93 138.93-67.49 154.24-16.45.1.59.21 1.18.3 1.79a155.36 155.36 0 0 1 1.38 22.87Z"/><path class="cls-5" d="M212.53 109.16v10.71s-19.59-3.58-32.89 4.7l-1.54-8.92s11.19-11.19 34.43-6.49Zm33.73 0v10.71s19.58-3.58 32.88 4.7l1.54-8.92s-11.19-11.19-34.42-6.49Z"/><path class="cls-1" d="M43.22 598.52s9.17 10.16 13.42 20.62 8.27 21.57 10.77 28.07c3 7.82-4.94 7.51-9.88 1.66C50.05 640 49.46 634 49.46 634s7.65 44.27 4.92 56c-2.49 10.74-7.92-13.46-13.54-33.23 0 0 0 44-6.36 48-8.32 5.24-8.12-48.1-8.12-48.1s-6 39.31-10.59 37.94c-5.13-1.53-3.91-42.53-3.91-42.53s-6.51 26.65-9.23 24.65c-5.39-3.95-3.32-62.3 14-82.57.04.04 21.87-.11 26.59 4.36Z"/><path class="cls-3" d="M69.29 272.32s-43.64 82.19-53.39 135-5.23 196.48-5.23 196.48c13.79 3.53 25.44 3.19 36.17-.88 0 0 4-134.43 12.94-162.58s52.54-100.45 52.54-100.45 9.55-43.33-43.03-67.57Z"/></g></g></svg>