<svg xmlns="http://www.w3.org/2000/svg" viewBox="0 0 684.84 846.31"><defs><style>.cls-1{fill:#d37157}.cls-2{fill:#b55441}.cls-3{fill:#ff9a1d}.cls-5{fill:#2c2c2c}</style></defs><g id="Capa_2" data-name="Capa 2"><g id="Información"><path class="cls-1" d="M629.77 562.53a119.53 119.53 0 0 1 19.9 11.14c8.64 6.3 18.93 14.23 24.18 18.22 6.32 4.79-1 9.76-10.15 3.6S652.48 588 652.48 588s28.25 31.84 31.92 42.67c3.36 9.89-13.09-6.89-27.48-20 0 0 21.94 35.49 18.84 41.86-4.08 8.38-30.53-34.69-30.53-34.69s14.78 34.66 10.39 35.85c-4.89 1.32-24.36-32.31-24.36-32.31s8 24.71 4.86 24.46c-6.31-.5-33.75-48.52-29.89-73.51 0-.03 17.51-11.04 23.54-9.8Z"/><path class="cls-2" d="M655.58 601.72s-14.53 13.72-33.07 12.74c0 0 16.43 9.19 33.07-12.74Zm-19.9-3.91s-19.42-13-7.51-29.79c0-.02-19.5 14.61 7.51 29.79Z"/><path class="cls-3" d="M506.74 293.37s14.9 81 33.79 128.28S606 580.87 606 580.87c5.44-9.43 15.26-15.86 31.09-14.82 0 0-31.23-105.26-44.52-150.58-5.94-20.21-26.57-131.73-39.4-150.47 0 0-44.56 21.41-46.43 28.37Z"/><path d="m529.9 835.5 23-240.54-84.08 21.69s-5.57 181.48 4.72 225.52Z" style="fill:#050705"/><path class="cls-5" d="M356.24 604.72s-4.53 81.55 28.67 93.41 165.25 37.54 168-103.17Z"/><path class="cls-5" d="m411.81 844.81 22.35-162.76-78.16-65.4s-9.11 162.73-7 229.66Z"/><path d="m421.39 234.3-83.83 41.23 28.66 160.12-17.34 186.59s141.12 30.23 210.74-1.85L553.17 265l-69.66-27.36Z" style="fill:#ffb413"/><path class="cls-5" d="M509.51 148.81c25.19-12.52 29.37-17.24 35.55-19.33 11.55-3.9 22.3-3.74 21.92-19.36-.23-9.41-3.78-15.18-6.58-18.27 4.78-3.73 11.37-7.77 12.39-18.1C575 51 562.41 47.46 562.41 47.46s6.84-13.64-.77-24c-9.44-12.89-22.92-11.35-29.56-4.92 0 0-2.67-12.54-20.37-17S487.26 13 487.26 13 476.2-5.16 453.93 1.44a25.54 25.54 0 0 0-18.73 22.29s-14-15.06-34.15-2.93C384.52 30.77 389.41 53 389.41 53s-19.91-6.18-27.3 12.23S371.33 98 371.33 98s-13.63 6.16-10.95 23.67 11.95 20.48 11.95 20.48-7 20.31 9.17 29.2c0 0 7.93 33.64 32.73 17.29Z"/><path class="cls-1" d="m475.54 202.06-2.74 36.64-1.25 16.8c-21.43 15.23-47-5.88-47-5.88l-10.26-58.56c9.9-6.41 34.25 2.62 49.31 7.11 7.06 2.11 11.94 3.89 11.94 3.89Z"/><path class="cls-2" d="m475.54 202.06-2.74 36.64c-24.71-6.19-44.85-41-44.85-41l35.61.43c7.1 2.15 11.98 3.93 11.98 3.93Z"/><path class="cls-1" d="M555 104.21v4.19q-.06 2.92-.18 5.94c-.09 2.55-.21 5.14-.38 7.78 0 .43-.06.88-.09 1.32-.45 7.49-1.14 15.24-2 23-.19 1.68-.37 3.35-.56 5q-.93 8.1-2 16.05c-.13 1.05-.29 2.09-.43 3.15-.29 2.1-.6 4.17-.9 6.23-.65 4.5-1.33 8.9-2 13.15A48.05 48.05 0 0 1 490 229.69c-26.22-5-53-11.79-73.41-20.58 0 0-.29-.59-.81-1.72a208.66 208.66 0 0 1-12.23-36.65 217.71 217.71 0 0 1-6.07-50.89A192.8 192.8 0 0 1 399.05 96c8-61.93 138.93-67.49 154.24-16.45.1.59.22 1.18.31 1.79a155.46 155.46 0 0 1 1.4 22.87Z"/><path d="M466.07 160.36c0 7.75-8.65 14-19.32 14s-19.32-6.28-19.32-14 8.65-14 19.32-14 19.32 6.26 19.32 14Zm86.26-13.9c-.19 1.68-.37 3.35-.56 5-.62 5.39-1.3 10.76-2 16-.14 1.06-.29 2.1-.44 3.16-.18 1.23-.37 2.46-.54 3.69-10.29-.32-18.47-6.48-18.47-14 0-7.75 8.65-14 19.32-14 .91.02 1.81.07 2.69.15Z" style="opacity:.5;fill:#b55441"/><path class="cls-5" d="M481.45 138.65c.07 5.37-2.27 9.74-5.22 9.78s-5.39-4.29-5.45-9.65S473.06 129 476 129s5.39 4.29 5.45 9.65Zm55.47 0c.06 5.37-2.28 9.74-5.22 9.78s-5.39-4.29-5.45-9.65 2.27-9.74 5.22-9.78 5.39 4.29 5.45 9.65Z"/><path class="cls-1" d="M418.51 130.31S403.36 112.38 391 123c-13.65 11.72-2.63 50.78 25.36 49.57Z"/><path class="cls-2" d="M416.75 164.07a2.45 2.45 0 0 1-2.29-2.15c-2.54-20-14.67-22.79-14.79-22.82a2.46 2.46 0 1 1 1-4.82c.64.14 15.68 3.57 18.66 27a2.44 2.44 0 0 1-2.6 2.77Z"/><path class="cls-2" d="M400.87 151.69a2.46 2.46 0 0 1-1.71-4.06 13.9 13.9 0 0 1 13.12-4 2.46 2.46 0 0 1-1 4.82 9.12 9.12 0 0 0-8.41 2.38 2.47 2.47 0 0 1-2 .86Zm109.77 43.46c-10.72-.68-24.1-4.38-34.87-16.46a2.83 2.83 0 0 1 4.23-3.77c18.83 21.13 47.68 13.16 48 13.08a2.83 2.83 0 0 1 1.56 5.44 60.39 60.39 0 0 1-18.92 1.71Zm-8.19 12.67c-13.64-.86-20.48-9.65-20.82-10.09a3 3 0 0 1 4.75-3.63c.36.45 8.08 10.12 23.93 7.29a3 3 0 0 1 1.05 5.88 37.18 37.18 0 0 1-8.91.55Zm4.72-39.56a2.83 2.83 0 0 1-1.57-5.06l7.48-5.84-6.56-1.62a2.83 2.83 0 0 1-2.11-2.27l-3.1-18a2.83 2.83 0 0 1 5.58-1l2.78 16.15 10.41 2.57a2.82 2.82 0 0 1 1.06 5l-12.06 9.43a2.78 2.78 0 0 1-1.91.64Z"/><path class="cls-5" d="M555 104.21v4.19q-.06 2.92-.18 5.94c-12.32-9.74-13.44-41.47-13.44-41.47s-3.9 6.44-19.09 7.84-21-9.51-21-9.51-7.24 8.67-22.08 8.11-18.76-7.28-18.76-7.28c-2 14.28-17.36 14.84-17.36 14.84-.84 17.08-12.59 23.48-12.59 23.48 7.55 9.47-3.05 21.82-3.05 21.82h-8.05c-6.63-15.74-21.89-12.34-21.89-12.34A192.8 192.8 0 0 1 399.05 96c8-61.93 138.93-67.49 154.24-16.45.1.59.22 1.18.31 1.79a155.46 155.46 0 0 1 1.4 22.87Z"/><path class="cls-5" d="M484.18 109.16v10.71s-19.58-3.58-32.88 4.7l-1.54-8.92s11.24-11.19 34.42-6.49Zm33.73 0v10.71s19.59-3.58 32.89 4.7l1.53-8.92s-11.19-11.19-34.42-6.49Z"/><path class="cls-1" d="M91 420.62s-3.52 12.49-9.76 21.17-13.13 17.52-17.08 22.8c-4.75 6.36-8.51-.17-6.32-7.08 3.33-10.47 7.88-14 7.88-14S34.06 472 23.25 475.74c-9.86 3.43 6.8-13.14 19.82-27.62 0 0-35.33 22.2-41.73 19.14-8.4-4 34.47-30.79 34.47-30.79S1.26 451.51 0 447.13c-1.36-4.89 32.13-24.6 32.13-24.6s-24.65 8.23-24.42 5C8.2 421.25 56 393.47 81 397.15c0 0 11.18 17.43 10 23.47Z"/><path class="cls-3" d="M360 262.94s-82.23 20.45-129.5 39.29-160.18 95-160.18 95c4.13 12.84 10.29 22 19 28.56 0 0 109.82-64.64 136.89-71.68s129.2-17.79 129.2-17.79 29.02-74.13 4.59-73.38Z"/></g></g></svg>