<svg xmlns="http://www.w3.org/2000/svg" viewBox="0 0 333.67 781.73"><defs><style>.cls-2{fill:#32324c}.cls-3{fill:#fd614c}.cls-4{fill:#ff8175}.cls-5{fill:#fff}.cls-6{fill:#434361}.cls-8{fill:#f88968}.cls-11{fill:#f9bb9c}.cls-12{fill:#f99c80}.cls-13{fill:#dc795f}</style></defs><g id="Capa_2" data-name="Capa 2"><g id="Información"><path style="fill:#345668" d="M0 488.37h220.4v290.52H0z"/><path class="cls-2" d="M240.47 715.62s-42.16-144.43-25.7-191.74c0 0-139 21.14-145.13-43.81l38.92-25.62s103-24.78 162.19 57.94c11.73 16.39-8.27 193.82-8.27 193.82Z"/><path class="cls-3" d="M328.54 768.25 243.85 770c-4 .08-7.32-3.19-7.9-7.44a9.39 9.39 0 0 1-.08-1.84l2.61-49.85a46.3 46.3 0 0 1 8.4-3.3 9.08 9.08 0 0 0 6.18-6.51c.06-.23.11-.48.16-.72 1.78-9.62 14.07-12.93 16.51-3.62.32 1.21.59 2.38.83 3.51a88.729 88.729 0 0 1 1.08 6.3.34.34 0 0 1 0 .1 60.49 60.49 0 0 1 .54 6.76q1.71 2.36 3.33 4.63c.55.76 1.08 1.51 1.6 2.25q1.71 2.4 3.34 4.64c.5.71 1 1.38 1.51 2.05 1.2 1.62 2.38 3.16 3.57 4.59.53.65 1.06 1.28 1.61 1.89 4.45 5 8.92 8.46 14.13 9.16 9.21 1.22 24.23 2 31.73 17a5.88 5.88 0 0 1 .38.95c1.14 3.61-1.24 7.62-4.84 7.7Z"/><path class="cls-4" d="M328.54 768.24 243.85 770c-4 .08-7.32-3.19-7.9-7.44l97.44-2c1.13 3.6-1.25 7.61-4.85 7.68Z"/><path class="cls-5" d="M277.12 720.29c-.95 1.63-2.92 3.62-6.92 5.51-.68.33-1.42.65-2.23 1l-.77-2.46c.8-.31 1.52-.62 2.17-.93 4.59-2.19 5.82-4.27 6.15-5.33.55.72 1.08 1.47 1.6 2.21Z"/><path class="cls-5" d="M270.21 725.48a2.81 2.81 0 0 1-2.58 3 2.78 2.78 0 0 1-2.67-2.88 2.81 2.81 0 0 1 2.58-3 2.77 2.77 0 0 1 2.67 2.88ZM282 727a16.63 16.63 0 0 1-5.73 4.21c-.81.41-1.69.79-2.67 1.18l-.77-2.47c.91-.36 1.73-.71 2.46-1.07a13.41 13.41 0 0 0 5.2-3.9c.51.69.97 1.36 1.51 2.05Z"/><path class="cls-5" d="M276.24 731.07a2.81 2.81 0 0 1-2.58 3 3 3 0 1 1 2.58-3Zm10.91 2.39a16.89 16.89 0 0 1-5.55 4c-.81.41-1.71.81-2.71 1.2l-.76-2.47c.92-.36 1.74-.73 2.47-1.09a14.55 14.55 0 0 0 4.94-3.56c.53.68 1.06 1.31 1.61 1.92Z"/><path class="cls-5" d="M281.6 737.39a2.81 2.81 0 0 1-2.58 3 3 3 0 1 1 2.58-3Zm-9.96-30.84a53.77 53.77 0 0 0-7.54.63v-4.74a17.24 17.24 0 0 1 6.67-1.36c.36 2 .65 3.85.87 5.47Z"/><path class="cls-6" d="M148 504.46c-25.06 28.06-54.23 33.46-73.36 23.54-18.14-9.42-29.08-33-25.92-57.25 2.44-18.69 11.47-24.44 11.47-24.44 43.16-3.48 111.51-1.66 111.51-1.66s6.1 26.51-23.7 59.81Z"/><path class="cls-6" d="M219 727.33s-42.16-144.43-25.7-191.74c0 0-139 21.13-145.13-43.81l38.91-25.62s103-24.78 162.2 57.93C261 540.48 241 717.92 241 717.92Z"/><path class="cls-3" d="m307.08 780-84.69 1.78c-4 .08-7.33-3.19-7.9-7.44a9.45 9.45 0 0 1-.08-1.85L217 722.6a45.45 45.45 0 0 1 8.4-3.3 9.08 9.08 0 0 0 6.18-6.51c.05-.24.1-.48.16-.73 1.78-9.62 14.07-12.92 16.51-3.61.31 1.2.59 2.38.83 3.5a89.773 89.773 0 0 1 1.08 6.3.41.41 0 0 0 0 .11 60.41 60.41 0 0 1 .54 6.75c1.14 1.58 2.25 3.12 3.33 4.64.55.75 1.07 1.51 1.6 2.25 1.14 1.59 2.25 3.15 3.34 4.64.5.7 1 1.38 1.5 2.05 1.21 1.62 2.39 3.16 3.58 4.59.53.65 1.06 1.28 1.61 1.89 4.45 5 8.91 8.46 14.13 9.16 9.21 1.22 24.23 2 31.73 17a5.88 5.88 0 0 1 .38 1c1.16 3.54-1.22 7.55-4.82 7.67Z"/><path class="cls-4" d="m307.08 780-84.69 1.78c-4 .08-7.33-3.2-7.9-7.44l97.44-2c1.13 3.52-1.25 7.54-4.85 7.66Z"/><path class="cls-5" d="M255.66 732c-.95 1.63-2.92 3.62-6.92 5.51-.68.33-1.42.65-2.23 1l-.77-2.46q1.2-.46 2.16-.93c4.6-2.19 5.83-4.27 6.16-5.33.55.71 1.07 1.47 1.6 2.21Z"/><path class="cls-5" d="M248.75 737.19a2.81 2.81 0 0 1-2.58 3 2.77 2.77 0 0 1-2.67-2.88 2.64 2.64 0 1 1 5.25-.11Zm11.75 1.5a16.58 16.58 0 0 1-5.72 4.21c-.81.4-1.69.79-2.67 1.18l-.77-2.47c.91-.36 1.73-.72 2.45-1.07a13.38 13.38 0 0 0 5.21-3.9c.5.7 1 1.36 1.5 2.05Z"/><path class="cls-5" d="M254.78 742.78a2.82 2.82 0 0 1-2.58 3 3 3 0 1 1 2.58-3Zm10.91 2.39a17 17 0 0 1-5.55 4 28 28 0 0 1-2.71 1.2l-.76-2.46c.92-.36 1.74-.73 2.47-1.09a14.55 14.55 0 0 0 4.94-3.56c.53.67 1.06 1.3 1.61 1.91Z"/><path class="cls-5" d="M260.14 749.09a2.81 2.81 0 0 1-2.58 3 3 3 0 1 1 2.58-3Zm-9.96-30.84a52.9 52.9 0 0 0-7.54.64v-4.75a17.4 17.4 0 0 1 6.67-1.35c.36 2 .69 3.85.87 5.46Z"/><path d="M160 16.93c.07.71.14 1.43.19 2.19v.5c.08 1.36.12 2.79.12 4.24 0 8.2.56 13.71-3.64 20.25 0 0-14.61 4.31-17.85 2 0 0-7.48-8.44-10.93-14.42 0 0-5-7.22-4.37-10.79a6.73 6.73 0 0 1 4-4.83s-.14-.52-.33-1.29c-.47-1.86-1.32-5.2-1.58-6.31-1.4-6 3.42-9.44 7.62-.49-.12-.82-1.1-6.57 3.23-7.83 3-.89 5.55 6.68 5.55 6.68S144.06-.42 147 0c3.17.49 4.21 8.07 4.25 8.37.12-.23 2.09-4.07 5.51-2.19 1.33.82 2.62 5.03 3.24 10.75Z" style="fill:#ffaf82"/><path class="cls-8" d="M160 16.93c.07.71.14 1.43.19 2.19a5.59 5.59 0 0 1-3.8 2.88c-3.86.62-4.62-3.57-4.62-3.57s-.31 3.48-3 3.4a4.42 4.42 0 0 1-3.73-2.49s-.93 3-3.21 2.95-5.1-5.77-5.1-5.77 2.46 3.37 4.46 4 3.87-1.71 2.94-5.61c.1.43 1.09 4.4 4 5s3.65-5.58 3.69-5.91c0 .35 1 6.79 3.9 6.72 1.94-.02 3.42-2 4.28-3.79Z"/><path class="cls-8" d="M131.72 17.71s6.23.68 8.41 4.75-4.33 7.94-10.25 7.15a8.44 8.44 0 0 0 7.72.57c4.63-1.71 5-6.75 3.33-8.71s-3.81-3.47-9.21-3.76Z"/><path class="cls-8" d="M140.93 24.16s7.52 2.09 7.84 13.52c0 0 4.59-9.85-7.39-15.52Z"/><path d="M136.62 96.08c-1.84-30.36 1.84-51.76 1.84-51.76 5.26-5.84 13.15-6.45 21-7 15 49.74 7.69 90.82 6.3 122.63C160.39 195.27 120 277 120 277c-43.13 2.4-25.6-34-25.6-34a711.93 711.93 0 0 0 40.43-92.74c-.36-5.02 3.36-28.26 1.79-54.18Z" style="fill:#006acd"/><path d="M85.32 456c18.5-2.13 68.15-5.07 86.72-5.07 6.74 0 4.13-16.94 1.55-38.31-6-49.49-8.28-104.49-8.31-162.92a40.69 40.69 0 0 0-29.05-39l-1.38-.42a106.32 106.32 0 0 0-55.36-1.44 40.65 40.65 0 0 0-30.76 44.65l11.62 91.35a40.39 40.39 0 0 1 .1 9.39l-3.37 45.3c-1.46 13.95-4.64 53.32-4.64 53.32 5.14 3.71 15.06 5.24 32.88 3.15Z" style="fill:#0188e5"/><path class="cls-2" d="m85.18 163.83-8.57-.33c-.79 1.6-4.78 10.78 6.17 13.55 0 0 2.09 10.23 12.55 6.62-2.56-6.74-6.85-13.43-10.15-19.84Z"/><path class="cls-11" d="M96.4 178.51v30.57s13.15 8.7 28.31 3.63l.54-3.75.53-3.68 2-13.95Z"/><path class="cls-12" d="M96.4 178.51v16.05c6.17 6.12 15.82 13 28.89 14.4l.53-3.68 2-13.95Zm58.17-39.86s4.86-11.6 15.69-6 5.4 38.36-13.72 34.93a48.77 48.77 0 0 1-1.97-28.93Z"/><path class="cls-13" d="M162.18 157h-.07a1.54 1.54 0 0 1-1.41-1.65c.73-9 7.4-14.87 7.68-15.11a1.53 1.53 0 1 1 2 2.31c-.09.08-6 5.39-6.64 13.05a1.53 1.53 0 0 1-1.56 1.4Z"/><path class="cls-13" d="M168.19 153.58a1.54 1.54 0 0 1-1.46-1.36 4.83 4.83 0 0 0-2.48-3.59 1.54 1.54 0 0 1 1.23-2.82c3.77 1.65 4.28 5.88 4.3 6.06a1.55 1.55 0 0 1-1.36 1.7Z"/><path class="cls-11" d="M84.7 165.17c.43 1.42.9 2.82 1.43 4.21s1 2.5 1.57 3.73c13.16 28.64 63.57 30.44 71.35 1.41 7.67-28.6 7-64.1 7-64.1l-80.75-4.18s-8.91 31.65-.6 58.93Z"/><path class="cls-12" d="M84.7 165.17c.43 1.42.9 2.82 1.43 4.21 2.62-2.3 2.58-7.9 2.58-7.9a7.17 7.17 0 0 1-4.01 3.69Z"/><circle class="cls-2" cx="114.61" cy="138.17" r="3.77"/><path class="cls-2" d="M148.92 139.47a3.77 3.77 0 1 1-3.63-3.92 3.77 3.77 0 0 1 3.63 3.92Zm-7.42-17.22s-3.55 3.62-2.43 5.68c0 0 12.68 3.82 19.15 8.81 0 0 1.87-5.72-3.32-8.91s-13.4-5.58-13.4-5.58Zm-21.29-.81s2.92 4.13 1.49 6c0 0-13.09 1.76-20.25 5.65 0 0-.93-5.93 4.68-8.25s14.08-3.4 14.08-3.4Z"/><path class="cls-12" d="M128.18 160.53a15.47 15.47 0 0 1-4.72-1 1.53 1.53 0 1 1 1.08-2.87c.06 0 6.29 2.23 7.69-1 1.31-3.06-.5-12.33-1.94-17.44a1.53 1.53 0 1 1 3-.84c.41 1.46 4 14.43 1.81 19.49-1.31 2.96-4.1 3.77-6.92 3.66Z"/><path class="cls-11" d="M92.36 135.73s-6.93-11.3-18.15-6.58S65.92 167 85.25 165c0 0 9.82-13.34 7.11-29.27Z"/><path class="cls-12" d="M81.18 154a1.53 1.53 0 0 1-1.47-1.53c0-7.71-5.58-13.46-5.63-13.52a1.53 1.53 0 1 1 2.18-2.15c.27.27 6.47 6.67 6.52 15.65a1.55 1.55 0 0 1-1.53 1.55Z"/><path class="cls-12" d="M75.45 150.06a.91.91 0 0 1-.23 0 1.54 1.54 0 0 1-1.22-1.82c0-.18.86-4.36 4.75-5.72a1.54 1.54 0 1 1 1 2.9 4.86 4.86 0 0 0-2.75 3.39 1.54 1.54 0 0 1-1.55 1.25Zm50.41 37.71a14.78 14.78 0 0 1-7.93-2.63 1 1 0 0 1-.27-1.42 1 1 0 0 1 1.42-.27c6.56 4.48 13.42 1 13.71.88a1 1 0 1 1 .94 1.81 16.92 16.92 0 0 1-7.87 1.63Z"/><path class="cls-2" d="M91.78 108.81s3.29 3.07 2 9.77-2.8 8.57-2.8 8.57a21.28 21.28 0 0 1 .4 11.3l-.1-.26a17.74 17.74 0 0 0-9.36-10.08l-.39-.16s-12.46-1-12.66-15.16 9-15.45 9-15.45-.34-17 10.81-19.68 17.79 4.13 17.79 4.13a12.93 12.93 0 0 1 12.4-9.79c10.25-.51 12.27 7.06 12.27 7.06s1.46-7.73 16.06-8c8.65-.18 12.69 7.8 12.69 7.8s2.35-5.43 15.28-3.24c11.64 2 14.1 22.8 1.08 26.36 0 0 8.34 3.44 3.95 12.29S166.46 120 166.46 120s-10 .17-13.63-7c0 0-4.84 6.44-15.61 4s-13.91-6.79-13.91-6.79-7.42 6.35-15.41 3.65-7.49-7.86-16.12-5.05Z"/><path class="cls-2" d="M169.41 115.93s-.51 18.9-4.77 27.73l-1.55-10.06.91-6.6s-4.23-6.82-2.28-10.3 7.69-.77 7.69-.77ZM127.19 163h.2-.2Zm.21-1.07-.71-.1-.41-.05-.54-.08c-.36 0-.72-.09-1.08-.15l-1.07-.2a43.32 43.32 0 0 1-4.25-1.07 71.23 71.23 0 0 1-8.43-3.34c-1.42-.65-2.88-1.33-4.39-2l-.31-.13c-.16-.07-.32-.14-.5-.2a8.85 8.85 0 0 0-1.07-.31 8.47 8.47 0 0 0-2.33-.22 8.25 8.25 0 0 0-4.72 1.7 8.44 8.44 0 0 0-2.85 4 9.59 9.59 0 0 0-.31 1.1l-.13.71c-.09.46-.18.92-.24 1.37a38.44 38.44 0 0 0-.42 5.44 43.89 43.89 0 0 0 .36 5.4 41.16 41.16 0 0 0 1 5.3 42.88 42.88 0 0 0 1.6 5.17c.16.42.32.85.51 1.26l.26.63.13.31.07.15v.19a15 15 0 0 0 1.94 3.09 21.31 21.31 0 0 0 4.82 4.3 31.49 31.49 0 0 0 5.13 2.74 41.28 41.28 0 0 0 10.48 2.86 50 50 0 0 0 10.66.3 40.73 40.73 0 0 0 5.4-.75 31.62 31.62 0 0 0 5.53-1.62 24.48 24.48 0 0 0 2.82-1.39 17 17 0 0 0 2.77-2 20.6 20.6 0 0 0 3.84-4.93 30.52 30.52 0 0 0 2.27-5.15 39.78 39.78 0 0 0 1.37-5.26 46.69 46.69 0 0 0 .69-5.24 35.66 35.66 0 0 0 0-5.37 20.93 20.93 0 0 0-.4-2.83 11.66 11.66 0 0 0-1.1-3.19 6.39 6.39 0 0 0-1.54-1.93 4.75 4.75 0 0 0-1.49-.84 4.7 4.7 0 0 0-.9-.21l-.46-.05h-.32c-.63 0-1 0-1.48.06l-1.27.1c-3.3.31-6.47.72-9.67 1.14l-4.77.65-2.39.33-1.19.17-.6.08h-.23Zm-24.3 2.18c0-.34.06-.67.11-1v-.25c.18 0 2.9 1.15 4.42 1.75a75.31 75.31 0 0 0 9.58 3.23 46 46 0 0 0 5.1 1l1.3.17 1.31.13.65.05h.79c.52 0 1.05 0 1.57.05 7.12.27 19.8-3.46 20.19-3.58l.06 1a17.7 17.7 0 0 1 0 2 28.13 28.13 0 0 1-.51 4.2 35.7 35.7 0 0 1-1.1 4.18 26.07 26.07 0 0 1-3.62 7.32 10.75 10.75 0 0 1-2.34 2.37 7.58 7.58 0 0 1-1.19.66 13.79 13.79 0 0 1-1.55.56 23.82 23.82 0 0 1-3.76.75 42.4 42.4 0 0 1-4.12.25 54.93 54.93 0 0 1-8.48-.64 49.75 49.75 0 0 1-8.07-1.84 21.18 21.18 0 0 1-3.47-1.48 10 10 0 0 1-2.51-1.83 5.31 5.31 0 0 1-.68-.9v-.05l-.06-.12-.11-.23-.23-.47c-.16-.3-.3-.62-.44-.94a34.71 34.71 0 0 1-3-12.17 29.88 29.88 0 0 1 .16-4.17Z"/><path class="cls-5" d="M110.25 168.52a19.64 19.64 0 0 0 1.28 4.31 20.32 20.32 0 0 0 1.41 2.79 15 15 0 0 0 12.79 7.47c7.54.29 11.79-3.09 14.15-6.52a17.68 17.68 0 0 0 1.53-2.72 16.78 16.78 0 0 0 1.3-4.1s-14.01 4.37-32.46-1.23Z"/><path d="M131 176.67a35.39 35.39 0 0 0 8.88-.1 17.68 17.68 0 0 0 1.53-2.72 35.45 35.45 0 0 1-10.41 2.82Zm-19.47-3.84a20.32 20.32 0 0 0 1.41 2.79 36.29 36.29 0 0 0 8.52.68 34.82 34.82 0 0 1-9.93-3.47Z" style="fill:#e2e2e2"/><path class="cls-11" d="M127.58 23s-4.31-9.6-2.13-16.92c.57-1.91 5.84-.79 6.76 2.46 0 0-.17-3.9 1.9-4.52 4.55-1.37 5.44 2.34 5.44 2.34s2.26-3.96 5.45-3.62c3.55.39 4.63 4.84 4.63 4.84s-1.11-5.43 4.68-4.7c4.43.55 8.61 26.67 0 41.15 0 0-14.21 2.5-17.9.24 0 0-7.36-5.29-11.55-11.31.04.04-7.65-7.22 2.72-9.96Z"/><path d="M131.83 96.05c.32-30.41 3-52.61 3-52.61 5.66-5.45 13.58-5.5 21.5-5.49 19.28 69.13 1.19 91.84-2.46 123.48-7.91 34.85-54 112.82-54 112.82-43.19-.67-23.12-35.7-23.12-35.7a732.15 732.15 0 0 0 46.89-88.91c.03-5.11 7.91-27.64 8.19-53.59Z" style="fill:#0986cc"/></g></g></svg>