<svg xmlns="http://www.w3.org/2000/svg" viewBox="0 0 97.39 75.9"><g data-name="Capa 2"><path d="M12.22 75.9C3.34 75.9 0 72.54 0 63.62V10.89C0 3.79 3.72 0 10.77 0h75.44c7.4 0 11.15 3.81 11.16 11.34v52.73c0 8-3.79 11.82-11.8 11.82Zm66.54-29.21c-.31-1-1.09-1.31-1.74-1.77-5-3.46-9.93-7-15-10.33-2.1-1.37-2.7-2.34-1.11-4.66 3.45-5 6.47-10.3 9.81-15.38 1.08-1.65 1-2.49-.88-3.3a76.86 76.86 0 0 1-7.38-3.68c-2-1.16-3.38-1.07-4.8 1-3 4.38-6.27 8.5-9.23 12.87-1.32 1.94-2.3 2.26-4.29.81-5.47-4-11.14-7.69-16.66-11.61-1.54-1.09-2.46-1.28-3.4.68a74.3 74.3 0 0 1-4.32 7.82c-1.1 1.74-.84 2.69.78 3.93 5.12 3.89 10.05 8 15.14 11.93 1.43 1.1 1.53 1.85.45 3.28-3.7 4.9-7.13 9.9-10.85 14.72-1.28 1.68-1.44 2.79.29 4.27 3.3 2.84 6.48 5.84 9.6 8.88 1.44 1.4 2.23 1.39 3.32-.42 3.39-5.59 7-11 10.39-16.64 1.1-1.82 1.95-2.11 3.66-.67 3.86 3.26 7.89 6.3 11.82 9.47 1 .83 1.81 1.6 3.13.23 3.34-3.48 6.84-6.8 10.26-10.2.39-.38.7-.85 1.01-1.23Z" style="fill:#e84360"/><path d="M78.76 46.69c-.31.38-.62.85-1 1.25-3.42 3.4-6.92 6.72-10.26 10.2-1.32 1.37-2.1.6-3.13-.23-3.93-3.17-8-6.21-11.82-9.47-1.71-1.44-2.56-1.15-3.66.67-3.39 5.59-7 11-10.39 16.64-1.09 1.81-1.88 1.82-3.32.42-3.12-3-6.3-6-9.6-8.88-1.74-1.48-1.58-2.59-.3-4.29 3.69-4.84 7.15-9.84 10.83-14.69 1.08-1.43 1-2.18-.45-3.28-5.09-3.91-10-8-15.14-11.93-1.62-1.24-1.88-2.19-.78-3.93a74.3 74.3 0 0 0 4.32-7.82c.94-2 1.86-1.77 3.4-.68C33 14.61 38.65 18.32 44.12 22.3c2 1.45 3 1.13 4.29-.81 3-4.37 6.28-8.49 9.23-12.87 1.42-2.12 2.76-2.21 4.8-1a76.86 76.86 0 0 0 7.38 3.68c1.87.81 2 1.65.88 3.3-3.34 5.08-6.36 10.37-9.81 15.38-1.59 2.32-1 3.29 1.11 4.66 5.09 3.31 10 6.87 15 10.33.67.41 1.45.72 1.76 1.72Z" style="fill:#fcfcfd"/></g></svg>