<svg xmlns="http://www.w3.org/2000/svg" xmlns:xlink="http://www.w3.org/1999/xlink" width="139.8" height="139.8" xml:space="preserve"><defs><path id="a" d="M.9.9H139V139H.9z"/></defs><clipPath id="b"><use xlink:href="#a" overflow="visible"/></clipPath><g clip-path="url(#b)"><defs><path id="c" d="M.9.9H139V139H.9z"/></defs><clipPath id="d"><use xlink:href="#c" overflow="visible"/></clipPath><path clip-path="url(#d)" fill="#808285" d="M69.9 139c-38.1 0-69-31-69-69 0-38.1 31-69 69-69 38.1 0 69 31 69 69 .1 38-30.9 69-69 69"/></g><defs><path id="e" d="M0 69.9c0 38.6 31.4 69.9 69.9 69.9s69.9-31.4 69.9-69.9C139.8 31.4 108.5 0 69.9 0S0 31.4 0 69.9"/></defs><clipPath id="f"><use xlink:href="#e" overflow="visible"/></clipPath><linearGradient id="g" gradientUnits="userSpaceOnUse" x1="-389.079" y1="600.268" x2="-388.079" y2="600.268" gradientTransform="matrix(139.845 0 0 -139.845 54410.738 84014.375)"><stop offset="0" style="stop-color:#fff"/><stop offset="1" style="stop-color:#d1d3d4"/></linearGradient><path clip-path="url(#f)" fill="url(#g)" d="M0 0h139.8v139.8H0z"/><defs><path id="h" d="M3.5 69.9c0 36.6 29.8 66.4 66.4 66.4s66.4-29.8 66.4-66.4c0-36.6-29.8-66.4-66.4-66.4S3.5 33.3 3.5 69.9"/></defs><clipPath id="i"><use xlink:href="#h" overflow="visible"/></clipPath><linearGradient id="j" gradientUnits="userSpaceOnUse" x1="-389.079" y1="600.268" x2="-388.079" y2="600.268" gradientTransform="matrix(132.8527 0 0 -132.8527 51693.695 79817.148)"><stop offset="0" style="stop-color:#d1d3d4"/><stop offset="1" style="stop-color:#fff"/></linearGradient><path clip-path="url(#i)" fill="url(#j)" d="M3.5 3.5h132.9v132.9H3.5z"/><defs><path id="k" d="M18.4 18.4h103.1v103.1H18.4z"/></defs><clipPath id="l"><use xlink:href="#k" overflow="visible"/></clipPath><g clip-path="url(#l)"><defs><path id="m" d="M18.4 18.4h103.1v103.1H18.4z"/></defs><clipPath id="n"><use xlink:href="#m" overflow="visible"/></clipPath><path clip-path="url(#n)" fill="#808285" d="M121.5 69.9c0 28.5-23.1 51.6-51.6 51.6S18.3 98.4 18.3 69.9s23.1-51.6 51.6-51.6c28.5.1 51.6 23.1 51.6 51.6"/></g><defs><path id="o" d="M17.5 69.9c0 29 23.5 52.4 52.4 52.4 29 0 52.4-23.5 52.4-52.4S98.9 17.5 69.9 17.5C41 17.5 17.5 41 17.5 69.9"/></defs><clipPath id="p"><use xlink:href="#o" overflow="visible"/></clipPath><linearGradient id="q" gradientUnits="userSpaceOnUse" x1="-389.079" y1="600.268" x2="-388.079" y2="600.268" gradientTransform="matrix(104.8837 0 0 -104.8837 40825.535 63028.266)"><stop offset="0" style="stop-color:#f67950"/><stop offset="1" style="stop-color:#f15a29"/></linearGradient><path clip-path="url(#p)" fill="url(#q)" d="M17.5 17.5h104.9v104.9H17.5z"/><defs><path id="r" d="M26.2 69.9c0 24.1 19.6 43.7 43.7 43.7s43.7-19.6 43.7-43.7S94 26.2 69.9 26.2 26.2 45.8 26.2 69.9"/></defs><clipPath id="s"><use xlink:href="#r" overflow="visible"/></clipPath><linearGradient id="t" gradientUnits="userSpaceOnUse" x1="-389.079" y1="600.268" x2="-388.079" y2="600.268" gradientTransform="matrix(87.4031 0 0 -87.4031 34032.934 52535.207)"><stop offset="0" style="stop-color:#f15a29"/><stop offset="1" style="stop-color:#f67950"/></linearGradient><path clip-path="url(#s)" fill="url(#t)" d="M26.2 26.2h87.4v87.4H26.2z"/><g opacity=".8"><defs><path id="u" d="M61.1 52.2h32V93h-32z"/></defs><clipPath id="v"><use xlink:href="#u" overflow="visible"/></clipPath><path clip-path="url(#v)" fill="#A7A9AC" d="M90.7 93c1.4 0 2.4-1.1 2.4-2.5V54.7c0-1.4-1.1-2.5-2.4-2.5-.4 0-.9.1-1.3.4l-27 17.9c-.8.5-1.3 1.3-1.3 2.2 0 .9.5 1.7 1.3 2.2l27 17.9c.4.1.8.2 1.3.2z"/></g><g opacity=".8"><defs><path id="w" d="M52 53h9.9v39.1H52z"/></defs><clipPath id="x"><use xlink:href="#w" overflow="visible"/></clipPath><path clip-path="url(#x)" fill="#A7A9AC" d="M57 92.1c2.7 0 5-2.2 5-5V58c0-2.7-2.2-5-5-5-2.7 0-5 2.2-5 5v29.1c0 2.8 2.3 5 5 5"/></g><path fill="#FFF" d="M88 90.3c1.4 0 2.4-1.1 2.4-2.5V52c0-1.4-1.1-2.5-2.4-2.5-.4 0-.9.1-1.3.4l-27 17.9c-.8.5-1.3 1.3-1.3 2.2 0 .9.5 1.7 1.3 2.2l27 17.9c.4.1.9.2 1.3.2z"/><path fill="#FFF" d="M54.4 89.5c2.7 0 5-2.2 5-5V55.4c0-2.7-2.2-5-5-5-2.7 0-5 2.2-5 5v29.1c0 2.7 2.2 5 5 5"/></svg>