<svg xmlns="http://www.w3.org/2000/svg" viewBox="0 0 26.44 26.27"><defs><style>.cls-1{fill:#fff}</style></defs><g id="Capa_2" data-name="Capa 2"><g id="Pop_up" data-name="Pop up"><g id="Logo_y_botones" data-name="Logo y botones"><path class="cls-1" d="M1.56 26.27A1.58 1.58 0 0 1 0 24.65v-23A1.58 1.58 0 0 1 1.56 0a1.69 1.69 0 0 1 .84.23l17.39 11.52a1.57 1.57 0 0 1 0 2.77L2.4 26a1.69 1.69 0 0 1-.84.23Z"/><path class="cls-1" d="M23.24 25.71a3.2 3.2 0 0 1-3.2-3.2V3.76a3.2 3.2 0 0 1 6.4 0v18.75a3.2 3.2 0 0 1-3.2 3.2Z"/></g></g></g></svg>