<svg xmlns="http://www.w3.org/2000/svg" viewBox="0 0 375.84 832.35"><defs><style>.cls-1{fill:#2c2c2c}.cls-3{fill:#d37157}.cls-4{fill:#ff9a1d}.cls-5{fill:#b55441}.cls-6{fill:#c4614d}</style></defs><g id="Capa_2" data-name="Capa 2"><g id="Información"><path class="cls-1" d="M91.85 606.09c-.13-41.76 10.21-69.78 10.21-69.78 67.08-4.33 172.57 0 172.57 0 .15.41.29.81.43 1.21 0 0 10.85 38.13 4.5 68.57-65.26 40.43-128.16 37.76-187.71 0Z"/><path class="cls-1" d="M132.88 830 177 576.24c-31.38-9-57.77-12.1-82.23-8.66-6.08 29.18-12.36 253-12.13 259.77Zm111.55 0L201 573.4l78.83-12.07c4.46 26.06 15.13 264.26 14.89 271Z"/><path d="M96.33 547c57.44 35.39 119.67 43.66 183.57-.06l-3.51-106.34.87-196.2-64.8-17.4a97.09 97.09 0 0 0-50.46 0l-64.8 17.4.87 196.2Z" style="fill:#ffb413"/><path class="cls-3" d="M334 568a183.41 183.41 0 0 1-7.21 19.61c-3.8 8.25-1.19 14.62-3.47 22.08s6.64 6.9 8.36-.92 1-11.52 2.61-11.77 6.29 18.8 7 24.27-.45 19.17 1.6 21.3 7-5.57 5.42-19.82-.41-14-.41-14 1.34 5.54 2.76 11.49a64.67 64.67 0 0 1 1.16 17.27c-.27 4.06 3.87 6.08 5.1 3.9s3.17-16.36 1.52-21.91-3.66-15.06-3.66-15.06 5.46 12.76 6.39 16.05-.62 15.85 2.25 18.15c1.19.94 5-.32 4.35-18.22a99.57 99.57 0 0 0-3.19-14.14 31.61 31.61 0 0 1 4.35 9.46 87.59 87.59 0 0 1 2.38 14.64c.42 4.84 4.61 4.19 4.61-4.34s-1.43-18-3.82-22.49-5.91-31.12-13-40.87Z"/><path class="cls-4" d="M258.71 297.35S274 378 291.16 410.7c0 0 9.42 46 42.15 159.07 0 0 17.09 6.8 27.06-6.18 0 0-15.81-124.26-25.35-164 0 0-43.51-137.27-57.85-155 0 .03-16.17 23.01-18.46 52.76Z"/><path class="cls-3" d="M41.88 568a184.53 184.53 0 0 0 7.22 19.61c3.79 8.25 1.19 14.62 3.46 22.08s-6.64 6.9-8.36-.92-1-11.52-2.61-11.77-6.28 18.8-7 24.27.45 19.17-1.61 21.3-7-5.57-5.42-19.82.42-14 .42-14-1.35 5.54-2.76 11.49a63.85 63.85 0 0 0-1.16 17.27c.26 4.06-3.88 6.08-5.1 3.9s-3.17-16.36-1.52-21.91 3.65-15.06 3.65-15.06-5.45 12.76-6.39 16.05.63 15.85-2.25 18.15c-1.18.94-5-.32-4.34-18.22a98.08 98.08 0 0 1 3.19-14.14 31.49 31.49 0 0 0-4.3 9.54 87.56 87.56 0 0 0-2.37 14.64C4.2 635.3 0 634.65 0 626.12s1.43-18 3.83-22.49 5.9-31.12 13-40.87Z"/><path class="cls-4" d="M117.14 297.35S101.8 378 84.68 410.7c0 0-9.42 46-42.14 159.07 0 0-17.1 6.8-27.07-6.18 0 0 15.81-124.26 25.35-164 0 0 42.09-137.51 56.42-155.21 0 .01 17.64 23.22 19.9 52.97Z"/><path class="cls-1" d="M146.23 189.7c-28.09 7.07-36.39-22.7-36.39-22.7-23.66-6.89-18.37-31.62-18.37-31.62s-8.64-2.77-11.13-19.07 10.19-22 10.19-22S75.11 80.76 82 63.73s25.42-11.38 25.42-11.38-6.59-22.46 8.8-31.75c18.67-11.29 31.3 2.4 31.3 2.4s.1-16.84 16.81-21.79c20.74-6.15 34.13 14 34.13 14s9.92-11.81 22.76-10.72c20 1.7 17.92 19.48 17.92 19.48 6.19-6 24.31-1.35 27.46 13.83 2.43 11.74-2 17.19-2 17.19s18.6 1.01 16.51 22.19c-.95 9.62-8.57 12.42-13 15.88 0 0 12.73.52 12.41 17.69s-10.63 19.66-10.63 19.66 6.13 8.16.11 24.7-17.18 15.36-17.18 15.36-5.32 18.93-24 22.35c-36.51 6.65-82.59-3.12-82.59-3.12Z"/><path class="cls-3" d="m212.42 199.53-.88 16.55-1.1 20.74s-4.12 7.8-22.7 7.8-22.4-5.33-22.4-5.33l-.75-9.2-2.5-30.56Z"/><path class="cls-5" d="m212.42 199.53-.88 16.55c-7.75 5.8-26.1 17.22-46.95 14l-2.5-30.56Z"/><path class="cls-6" d="M130.34 124.27s-14.23-13.92-25.6-4.83c-13.43 10.73.62 49.38 24.44 45.29Z"/><path class="cls-5" d="M122 155.11a2.36 2.36 0 0 1-2.27-2.16c-1.53-19-12.66-22.32-13.14-22.45a2.36 2.36 0 0 1-1.65-2.89 2.33 2.33 0 0 1 2.85-1.67c.61.16 14.83 4.1 16.64 26.63a2.36 2.36 0 0 1-2.16 2.54Z"/><path class="cls-5" d="M108.72 145.42a2.36 2.36 0 0 1-1.63-4 13.41 13.41 0 0 1 12.71-3.21 2.36 2.36 0 0 1-1.17 4.57 8.58 8.58 0 0 0-8.12 1.88 2.36 2.36 0 0 1-1.79.76Z"/><path class="cls-6" d="M239.14 124.27s14.24-13.92 25.61-4.83c13.43 10.73-.62 49.38-24.44 45.29Z"/><path class="cls-5" d="M247.45 155.11a2.36 2.36 0 0 0 2.27-2.16c1.53-19 12.66-22.32 13.14-22.45a2.36 2.36 0 0 0 1.65-2.89 2.33 2.33 0 0 0-2.85-1.67c-.61.16-14.83 4.1-16.64 26.63a2.36 2.36 0 0 0 2.16 2.54Z"/><path class="cls-5" d="M260.77 145.42a2.39 2.39 0 0 0 1.54-.65 2.35 2.35 0 0 0 .08-3.33 13.37 13.37 0 0 0-12.7-3.21 2.36 2.36 0 0 0 1.17 4.57 8.58 8.58 0 0 1 8.12 1.88 2.36 2.36 0 0 0 1.79.74Z"/><path class="cls-3" d="M252.54 113.3c-.24 2.68-.5 5.43-.83 8.2-4.83 42.22-20.12 94.29-66.27 94.29-44.26 0-61-47.31-67.19-87.93q-1-6.81-1.68-13.27c-4.21-39.47 26.43-74.2 66.1-74.67h3.54a67.58 67.58 0 0 1 66.33 73.38Z"/><path class="cls-1" d="M169.22 96.77v8.51s-15.57-2.84-26.14 3.74l-1.22-7.09s8.89-8.93 27.36-5.16Zm32.17 0v8.51s15.61-2.84 26.13 3.72l1.23-7.09s-8.9-8.91-27.36-5.14Zm-37.06 24.74c0 4.91-2.19 8.9-4.89 8.9s-4.89-4-4.89-8.9 2.18-8.9 4.89-8.9 4.89 3.98 4.89 8.9Zm44.01 0c0 4.91 2.19 8.9 4.89 8.9s4.89-4 4.89-8.9-2.18-8.9-4.89-8.9-4.89 3.98-4.89 8.9Z"/><path class="cls-5" d="M185.57 154.37a2.6 2.6 0 0 1-1.11-4.79l7.4-4.57-5.81-2.13a2.6 2.6 0 0 1-1.69-2.28l-1-16.69a2.59 2.59 0 0 1 5.18-.31l.9 15 9.22 3.39a2.59 2.59 0 0 1 .46 4.64L187.19 154a2.56 2.56 0 0 1-1.62.37ZM196.53 176c-9.58 1.92-22.18 1.8-34.47-6.26a2.58 2.58 0 1 1 2.83-4.31c21.55 14.14 45.06.31 45.29.17a2.58 2.58 0 1 1 2.66 4.42 55.22 55.22 0 0 1-16.31 5.98Zm-8.79 13.69a26.38 26.38 0 0 1-14.28-3.77 1.81 1.81 0 0 1 1.85-3.11c12.06 7.18 23.79.34 24.29 0a1.81 1.81 0 0 1 1.86 3.11 30.21 30.21 0 0 1-13.72 3.77Z"/><path d="M162.09 149.44c0 6.95-7.75 12.58-17.32 12.58s-17.33-5.63-17.33-12.58 7.76-12.57 17.33-12.57 17.32 5.63 17.32 12.57Zm82.91 0c0 6.95-7.76 12.58-17.33 12.58s-17.32-5.63-17.32-12.58 7.75-12.57 17.32-12.57S245 142.5 245 149.44Z" style="opacity:.5;fill:#b55441"/><path class="cls-1" d="M252.54 113.3c-.24 2.68-.5 5.43-.83 8.2-10.32-6.31-8.17-24.31-8.17-24.31-6.62-4.47-6.62-15.12-6.62-15.12-13.23 0-15.15-14.07-15.15-14.07-16.61 2.22-23.42-10.75-23.42-10.75-15.54 20.6-32.2 4.28-36.26 0 3 16.26-24.17 23-26.9 21.8 4.2 13.83-10.72 23.39-10.72 23.39 5.59 13.89-6.22 25.41-6.22 25.41q-1-6.81-1.68-13.27c-4.21-39.47 26.43-74.2 66.1-74.67h3.54a67.58 67.58 0 0 1 66.33 73.39Z"/><path class="cls-4" d="m130.12 485.32-3 61.44s28.69 9.09 57.86 9.09 57.87-8.74 57.87-8.74l-3.08-59.23s-62.83 13-109.65-2.56Z"/></g></g></svg>