<svg xmlns="http://www.w3.org/2000/svg" viewBox="0 0 444.88 843.4"><defs><style>.cls-2{fill:#2c2c2c}.cls-3{fill:#02c6cb}.cls-4{fill:#08a8b1}.cls-6{fill:#162d47}.cls-7{fill:#ffaf82}.cls-8{fill:#f88968}.cls-11{fill:#04bcbc}</style></defs><g id="Capa_2" data-name="Capa 2"><g id="Información"><path d="M77.63 843.4c17.88-87.61 31.18-222.48 31.18-222.48C76.62 606.18 25 592.75 25 592.75 7.89 690 3.76 843.4 3.76 843.4Z" style="fill:#050705"/><path class="cls-2" d="M232.63 843.4s9.66-113.91-11.34-236.5l-89.78 14s1.09 50.77 17.37 222.48Z"/><path class="cls-2" d="M215.33 576.83s14.3 50.58 14.16 95.67c0 0-70 30.63-159.07-3.22C34 655.44 15.5 614.85 28.55 578.13c.15-.43.31-.87.47-1.3-.02 0 113.89-4.68 186.31 0Z"/><path class="cls-3" d="M161.49 158.25s52 .45 75.63 22 .85 65-24.9 70.48-106-4.33-114.3-18.13-2.79-73.54 63.57-74.35Z"/><path class="cls-3" d="M241.42 610.41C163.22 658.86 86.79 654 9.73 606.9l41.65-383 45.71-6.12 3.66-.49 10.4-1.39 63.85-8.56 10.81 3.66 13.55 4.64 3.25 1.11 60.39 20.7-45 263.18Z"/><path class="cls-4" d="M156.81 251.12c45.76 0 56.52-40.29 56.63-40.69a1.69 1.69 0 1 0-3.27-.84c-.4 1.57-10.29 38.16-53.35 38.16a3.46 3.46 0 0 0-.72 0 1.69 1.69 0 0 0 0 3.38Zm-42.97-6.47a1.69 1.69 0 0 0 0-3.38c-.61 0-13.9-.6-17.28-18.6a1.68 1.68 0 1 0-3.31.63c3.9 20.8 20.36 21.34 20.52 21.35ZM165.36 500s.26 35.88 8.39 68.84c0 0-85 13.79-133.13-12.37a226 226 0 0 1 1-66.93Z"/><path d="M146.92 412.84h.14a1.63 1.63 0 0 0 1.5-1.78c-3.63-42.08 12.52-148.21 12.68-149.27a1.64 1.64 0 1 0-3.25-.5c-.17 1.07-16.37 107.59-12.71 150.05a1.66 1.66 0 0 0 1.64 1.5ZM91.3 404.4h.14a1.63 1.63 0 0 0 1.5-1.78c-3.63-42.07 13-149 13.22-150.11a1.64 1.64 0 1 0-3.25-.51c-.17 1.08-16.92 108.43-13.25 150.9a1.64 1.64 0 0 0 1.64 1.5Z" style="fill:#fff"/><path class="cls-6" d="M58.47 38.69S42.79 49 48.41 77.12s16.48 31.08 16.48 31.08S81.34 46 58.47 38.69Z"/><path class="cls-7" d="m119.6 172.2 3.07 35.44 1.41 16.25c20.91 14.5 53.52-7.33 53.52-7.33l1.21-55.7c-9.66-6.09-33.13 2.93-47.66 7.44-6.85 2.13-11.55 3.9-11.55 3.9Z"/><path class="cls-8" d="m119.6 172.2 3.07 35.44c23.85-6.28 43-40.16 43-40.16l-34.47.82c-6.9 2.13-11.6 3.9-11.6 3.9Z"/><path class="cls-7" d="M51.71 80.39v3.75c0 1 0 2.08.08 3.15.33 11 1.44 23.14 2.91 35.3.31 2.56.64 5.11 1 7.63.31 2.19.6 4.38.91 6.54.67 4.5 1.35 9 2 13.25.48 3 1 5.93 1.46 8.77a42.87 42.87 0 0 0 1.42 5.81A42.19 42.19 0 0 0 110 193c12.34-2.5 26-5.56 38.7-9.1l1.87-.51a212.4 212.4 0 0 0 27.51-9.53q1.51-2.17 2.91-4.4c8.12-13 13-27.56 15.85-42.65 1.14-6 2-12.13 2.58-18.25a10.94 10.94 0 0 1 .25-1.43c0-5.63-.08-11.25-.18-16.66a70.74 70.74 0 0 0-74.32-69.37C93.59 22.72 63.53 35 55.93 51.23c-3.02 6.45-4.21 16.83-4.22 29.16Z"/><path class="cls-6" d="M181 169.44c8.12-13 13-27.56 15.84-42.64-4.48 0-10.34 1.41-18 4.94.05 0-1.67 22.26 2.16 37.7Zm-72.23-65.64c0 4.71 2.1 8.52 4.68 8.52s4.68-3.81 4.68-8.52-2.09-8.52-4.68-8.52-4.68 3.82-4.68 8.52Zm-48.38 0c0 4.71 2.1 8.52 4.68 8.52s4.68-3.81 4.68-8.52-2.09-8.52-4.68-8.52-4.68 3.82-4.68 8.52Zm139.18-9.48s-15-9.77-27.65 7.67h-9.83s.56-20.19-4.21-31.15-23.6-10.67-26.4-23.59c0 0-46.07 22.18-72.57 8C-1 23.33 124.9-17.66 171 8.13c34.23 19.16 35.71 51.81 28.57 86.19Z"/><path class="cls-6" d="M132.39 89.66s-4.51-9.26-13.15-11.57c-8-2.15-13.73-.08-16.6 1.48a2.87 2.87 0 0 0-1.29 3.53 2.88 2.88 0 0 0 3.92 1.61c4.85-2.26 15.51-5.16 27.12 4.95Zm-80.68-9.27v3.75a23.06 23.06 0 0 1 20-.2 2.88 2.88 0 0 0 2.63-5.13c-2.86-1.56-8.58-3.63-16.59-1.49a17.38 17.38 0 0 0-6.04 3.07Z"/><path class="cls-7" d="M171.92 102s15.08-18.24 27.65-7.68c13.88 11.64 3.25 51.12-25 50.22Z"/><path class="cls-8" d="M173.92 136a2.48 2.48 0 0 0 2.46-2.2c2.29-20 14.14-23 14.64-23.16a2.48 2.48 0 0 0-1.1-4.84c-.64.14-15.75 3.78-18.47 27.43a2.47 2.47 0 0 0 2.18 2.75 1.42 1.42 0 0 0 .29.02Z"/><path class="cls-8" d="M189.76 123.33a2.48 2.48 0 0 0 1.86-4.13 14.12 14.12 0 0 0-13.27-3.83 2.48 2.48 0 1 0 1.07 4.85 9 9 0 0 1 8.48 2.28 2.48 2.48 0 0 0 1.86.83Zm-92.99 52.21a23.91 23.91 0 0 0 15.93-5.75 2.49 2.49 0 0 0-3.45-3.58c-.35.33-7.92 7.27-20.56 2.95a2.48 2.48 0 1 0-1.6 4.69 29.65 29.65 0 0 0 9.68 1.69Z"/><path class="cls-6" d="M95.66 103.8a20.1 20.1 0 1 1 20.1 20.1 20.12 20.12 0 0 1-20.1-20.1Zm3.31 0A16.79 16.79 0 1 0 115.76 87 16.81 16.81 0 0 0 99 103.8Zm-55.64 0a20.1 20.1 0 1 1 20.09 20.1 20.11 20.11 0 0 1-20.09-20.1Zm3.31 0A16.79 16.79 0 1 0 63.42 87a16.8 16.8 0 0 0-16.78 16.8Z"/><path class="cls-6" transform="matrix(1 -.08 .08 1 -7.06 12.07)" d="M133.42 95.61h38.01v3.31h-38.01z"/><path class="cls-6" d="m96.58 102.3 1.92-2.7c-3.2-2.27-11-5.2-17.88 0l2 2.62c6.59-4.99 13.67-.13 13.96.08Z"/><path class="cls-8" d="M84.85 131.19a2.48 2.48 0 0 0 1.5-4.46l-6.61-5 5.73-1.48a2.49 2.49 0 0 0 1.83-2l2.53-15.8a2.48 2.48 0 1 0-4.9-.79l-2.28 14.2-9.1 2.36a2.48 2.48 0 0 0-.88 4.38l10.67 8.14a2.5 2.5 0 0 0 1.51.45Zm3.89 32.68c9.36 0 21.16-2.49 31.17-12.36a2.47 2.47 0 1 0-3.46-3.52c-17.57 17.32-42.22 8.77-42.47 8.68a2.46 2.46 0 0 0-1.66 4.64 52.46 52.46 0 0 0 16.42 2.56Z"/><path class="cls-4" d="M244.17 283.89a31.13 31.13 0 0 0 9.1 4.57 28.39 28.39 0 0 0 21.62-1.73 25.39 25.39 0 0 0 13-16.3c2.91-11.12-1.77-23.42-11.64-30.6a31.13 31.13 0 0 0-9.1-4.57c-15.26-4.72-30.8 3.36-34.63 18-2.89 11.15 1.79 23.45 11.65 30.63Z"/><path class="cls-4" d="m257.57 445 10.51-59.14c.91-3.53 22.33-86.81 20.66-123.1l-.14-3.08-56.81-2.57-.1 3c-1.38 41.18-9.95 102.83-11.54 111.13L203.57 420Z"/><path class="cls-3" d="M219.68 451.28a25.67 25.67 0 0 0 25 3.21c12.15-5.21 17.06-19.42 10.93-31.69a26.84 26.84 0 0 0-8.15-9.6 25.62 25.62 0 0 0-25-3.21 22 22 0 0 0-12.34 13.19 23.78 23.78 0 0 0 1.41 18.49 26.59 26.59 0 0 0 8.15 9.61Z"/><path d="M83.41 469.4a12.63 12.63 0 1 0 15.38 9.09 12.63 12.63 0 0 0-15.38-9.09Z" style="fill:#fbc0a4"/><path class="cls-7" d="M35.25 497.44c1.61 2.94 2 6.68 5.84 8.16 4.17 1.63 9.95-.62 14-1.53a306.34 306.34 0 0 0 36.56-10.9s-8.26-23.76-8.27-23.77c-.2-.59-11.59-3.49-12.79-4-5.43-2.31-9.74-7.26-14.68-10.55-5.21-3.47-10.06-7.77-15.88-10.23-7.24-3.06-8-.07-10.09 6.09-3.51 10.15-14.31 9.56-23.53 11.09C4 462.23 1 463 .2 465.37c-.7 2 .54 4.21 2.23 5.47s3.78 1.83 5.72 2.67a21.93 21.93 0 0 1 11.49 11.74c1.16 2.83 2 6.22 4.67 7.64s6.57.21 9 2.16a7.48 7.48 0 0 1 1.94 2.39Z"/><path class="cls-4" d="M208.18 458.76a30.36 30.36 0 1 0-6.77-34.11 30.47 30.47 0 0 0 6.77 34.11Z"/><path class="cls-4" d="M107.68 496.65c23.36-1.52 125.49-29.55 130.24-30.73l6.06-2.56L224 406.63l-3.81 1.23c-.72.22-17.87 5.76-46 19.4-7.14 3.45-90.79 42.14-90.79 42.14L80.51 497Z"/><path class="cls-7" d="M353.79 390.11c.41-1 12.73-7 14.29-7.89 4.89-2.84 10.39-6.49 15.55-8.56 3.9-1.55 8.51-1.71 11.91.66 2.15 1.5 3.61 3.84 5.36 5.84 4.66 5.3 10 6.61 16.48 7.32 7.2.8 14.09 3.88 20.87 6.51 3.16 1.23 6.84 3.4 6.62 6.95-.17 2.86-3 4.89-5.67 5.43-3.38.69-6.82-.2-10.24-.25s-7.34 1.09-8.9 4.33c-1.8 3.74.17 9-2.7 11.91s-7.76.62-11.74 1.46c-4.62 1-7.31 6.06-11.28 8.78-3.75 2.57-8.55 2.87-12.85 1.86-2.29-.53-39.56-14.36-39.44-14.66 0-.02 11.7-29.6 11.74-29.69Z"/><path class="cls-7" d="M353.79 390.11c8 2.5 12.43 11.4 9.83 19.86s-11.21 13.3-19.24 10.8-12.43-11.39-9.83-19.86 11.21-13.3 19.24-10.8Z"/><path d="M210.17 364.08A32 32 0 0 1 200 369a30.08 30.08 0 0 1-24-3.38 31.73 31.73 0 0 1-14.24-20.2 34.84 34.84 0 0 1 13.34-35.73 31.74 31.74 0 0 1 10.17-4.88 30 30 0 0 1 24 3.37 31.78 31.78 0 0 1 14.25 20.2 34.86 34.86 0 0 1-13.35 35.7Z" style="fill:#f8e8d8"/><path class="cls-11" d="M334.81 425.79c-23.74-5.56-151.9-56.9-156.57-59l-5.75-3.79 31.11-58 3.7 2c.7.36 17.31 9.23 43.73 28.71 6.69 4.93 102.43 42.5 102.43 42.5l-15 48.54ZM67.82 288.85a38.56 38.56 0 0 0 9.6-9.14 40.18 40.18 0 0 0 7.73-28.45 37.39 37.39 0 0 0-13.64-25.32 35.41 35.41 0 0 0-42-1.58 38.73 38.73 0 0 0-9.6 9.14c-12.58 16.91-9.93 41 5.92 53.77a35.39 35.39 0 0 0 41.99 1.58Z"/><path class="cls-11" d="m216.46 314.3-4.08-3.95c-3.82-3.05-105.38-72.26-149.69-89.59l-3.75-1.47-39.84 60.83 16.63 20.4c48.75 23.82 128.16 56.55 137.38 63l3.2 2.25Z"/><path class="cls-11" d="M209.18 364.78a34.67 34.67 0 0 0 15.18-30.13c-.73-18.27-15.54-32.14-33-30.91a31.55 31.55 0 0 0-15.24 5.26 34.65 34.65 0 0 0-15.19 30.13 32.74 32.74 0 0 0 10.23 22.78A30 30 0 0 0 194 370a31.44 31.44 0 0 0 15.18-5.22Z"/></g></g></svg>