<svg xmlns="http://www.w3.org/2000/svg" viewBox="0 0 532.22 839.73"><defs><style>.cls-2{fill:#403433}.cls-3{fill:#fcb197}.cls-4{fill:#f99b82}.cls-5{fill:#f4ddc9}.cls-6{fill:#f8e8d8}.cls-7{fill:#fbc0a4}.cls-8{fill:#f9b092}.cls-11{fill:#d94528}</style></defs><g id="Capa_2" data-name="Capa 2"><g id="Información"><path d="M306.75 552.51c41.55 114.84-13.38 277.88-13.38 277.88s-92.66 16.35-184.54 5.78L83 719.73s-23.61-113 45.3-163.18 178.45-4.04 178.45-4.04Z" style="fill:#e6954e"/><path class="cls-2" d="M51.55 49.54C73.66 21.93 115.34-5 171.71.8c35.48 3.66 95.29 28.42 89.43 81.92s-21.83 46 2.95 75.52 84.47 124.11 1.82 181.54S82.23 367.56 25 303.83 22.8 85.43 51.55 49.54Z"/><path class="cls-3" d="M501 423.23a2.2 2.2 0 0 1 1.1-1.35c.9-.33 1.77.57 2.26 1.41 3.7 6.24 2.81 14.2 5.13 21.06a28.78 28.78 0 0 1-2.51 12.3c-.18.43-.39.86-.6 1.28-.64 1.25-1.55 2.57-2.92 2.76a3.21 3.21 0 0 1-2.51-.92c-1.76-1.57-2.19-4.12-2.47-6.46a88 88 0 0 1-.63-16.06 43 43 0 0 1 3.15-14.02Z"/><path class="cls-4" d="M501 423.23a2.2 2.2 0 0 1 1.1-1.35c.9-.33 1.77.57 2.26 1.41 3.7 6.24 2.81 14.2 5.13 21.06a28.78 28.78 0 0 1-2.51 12.3 53.27 53.27 0 0 0-2.16-5.93 134 134 0 0 0-7-13.47 43 43 0 0 1 3.18-14.02Z"/><path class="cls-3" d="M514.25 443.44c.39-1.93 1.28-5.11 3.81-4.93s2.71 3.13 2.75 5.09a69.63 69.63 0 0 0 3 18.8c.91 3 2 5.9 3 8.85a132.25 132.25 0 0 1 5.29 21.29 4.43 4.43 0 0 1 0 2.11 3 3 0 0 1-3.63 1.57l-.4-.13a7.72 7.72 0 0 1-3-2.49 26.73 26.73 0 0 1-1.65-2.3c-2.65-4.08-4.27-8.8-5.68-13.48-3.37-11.15-5.86-22.99-3.49-34.38Z"/><path class="cls-4" d="M517 451.91c1.71 14.95 6.73 29.28 10.92 43.72l.12.46a7.72 7.72 0 0 1-3-2.49 26.73 26.73 0 0 1-1.65-2.3l-1.25-3.24c-.69-1.81-1.39-3.61-1.94-5.47a70 70 0 0 1-1.57-7c-1.51-8.03-2.92-15.59-1.63-23.68Z"/><path class="cls-3" d="M511.53 444.12a4.17 4.17 0 0 1 .81-2c1.27-1.41 4.14-.5 5.81.41a59.2 59.2 0 0 0-.7 12.4c.63 12.82 4.54 25.53 8.13 37.85.44 1.48.66 3.52-.76 4.14a2.5 2.5 0 0 1-1.46.08 7.42 7.42 0 0 1-4.44-2.91 22.89 22.89 0 0 1-3-5.35 41.8 41.8 0 0 1-2-5.61c-1.14-4.4-.8-9-1-13.56v-.69c-.6-8.31-2.87-16.61-1.39-24.76Z"/><path class="cls-4" d="M514.61 460.05c.08 4.4.15 8.78.23 13.17 0 2.24.08 4.49.33 6.71a45.77 45.77 0 0 0 2 8.87c.47 1.48 1 2.94 1.56 4.4a2.71 2.71 0 0 1 .17.85 22.89 22.89 0 0 1-3-5.35 41.8 41.8 0 0 1-2-5.61c-1.14-4.4-.8-9-1-13.56v-.69a39.53 39.53 0 0 0 1.71-8.79Z"/><path class="cls-3" d="M506.18 479.63a10.68 10.68 0 0 1-.21-3c.23-6.4 1.06-12.9.77-19.34 0-.57-.06-1.18-.11-1.77a38.81 38.81 0 0 0-1.12-6.82c-1.71-6.56-4.36-12.8-6.48-19.23a74.2 74.2 0 0 1-2.25-8.24 45.86 45.86 0 0 1-.94-10.23 40.87 40.87 0 0 1 2-12 27.39 27.39 0 0 1 1.54-3.68 43.19 43.19 0 0 1 4.15-6.31 31.53 31.53 0 0 1 2.14-2.45c6.23-8.64 23.45-23.79 18.75 23.65a255.5 255.5 0 0 1-3.34 36.44c0 .17 0 .35-.09.51s0 0 0 .06c-.23 1.23-.67 2.5-1.77 3a3.74 3.74 0 0 0-1.16.54 1.9 1.9 0 0 0-.45 1.21c-.07.47-.12.92-.19 1.4 0 .28-.06.55-.11.83-.25 1.91-.51 3.83-.76 5.74-.39 3-.79 6-1.17 9.06-.18 1.24-.32 2.47-.5 3.7-.23 1.71-.47 3.42-.69 5.13a8 8 0 0 1-.66 2.7l-.06.1a1.74 1.74 0 0 1-.15.26c-1.79 2.72-6.32 1.82-7.14-1.26Z"/><path class="cls-3" d="M509 400.13a42.53 42.53 0 0 1-7.46 1.13c-1.17.1-2.21.06-3.25.05-10.59 1.15-29.41-3.12-40.68-6-26.48-6.65-14.56-43.85-1-40.25 6.75 1.8 11.61 4.15 18.44 5.66 2.09.45 25.73 6.9 28.66 7.72 41.07 11.56 6.53 31.35 5.29 31.69Z"/><path class="cls-4" d="M509.11 399.58a26.2 26.2 0 0 1-3.76 1.31c-2.45.65-8.73.41-11.25.61-.31-1.88 0-2.88 1.38-5.64a22.25 22.25 0 0 0 2.63-7.16 16.12 16.12 0 0 0 3.48 7.55 10 10 0 0 0 2.34 2.12 9 9 0 0 0 5.18 1.21Z"/><path class="cls-5" d="M403.83 363.64a29.24 29.24 0 1 1-3.48-33.3 29.19 29.19 0 0 1 3.48 33.3Z"/><path class="cls-5" d="M487.63 402.8c-22.47-1.72-124.18-27-128.75-28.16L326 367.17l-22.87-73.48s90.52 27.2 117.47 40.64c6.83 3.4 88.47 31.51 88.47 31.51l-16.33 38.81Zm-196.69-96.87A33.8 33.8 0 1 1 263 279.09a33.7 33.7 0 0 1 27.94 26.84Z"/><path class="cls-5" d="m397 380-5.17-.35c-4.42-.7-108.75-17.52-148.33-36.5l-3.35-1.61 27.54-61.37 3.38 1.31c46.66 18.08 133.61 50.09 133.61 50.09Z"/><path class="cls-5" d="M397.34 340.6a29.26 29.26 0 1 1-6.34-13.18 29.3 29.3 0 0 1 6.34 13.18Z"/><path class="cls-6" d="M272.83 401.38c30.65-58.25 1.11-72.35 1.47-82.36a37.18 37.18 0 0 0-1.82-13c-3.88-11.89 9.22-20.81-2.46-24.25a.51.51 0 0 0 0-.09s-2.55-1.52-50-13.28c-28.15-7.49-58.58-24.09-111.07 9.19-11.9 10.86-37.24 18.53-57.54 37.89a37.41 37.41 0 0 0 25.67 68.58c10.7 28.94 35.37 105.76 35.37 105.76l-15.23 77.39c110.91 57.89 219.59-9.48 219.59-9.48Z"/><path class="cls-7" d="M452.82 441.57A17.39 17.39 0 1 1 432.23 455a17.39 17.39 0 0 1 20.59-13.43Z"/><path class="cls-7" d="M452.82 441.57c13.07-.76 25.06-23 33.9-28.48s20.15 2.42 20.15 2.42 11.48-.15 17.68 1.58 6.89 8.6 1.08 15.43 4.15 9.77 2.48 18.62-9.48 11.19-5.28 21.58-73.16 3.28-73.16 3.28Z"/><path class="cls-6" d="M287.22 442.5a38.58 38.58 0 1 1 4.58-44 38.5 38.5 0 0 1-4.58 44Z"/><path class="cls-6" d="M439.22 485.32c-29.73.81-182.64-29.35-188.8-30.28l-8-2.54 18.6-74.11 5 1.11c.94.2 23.29 5.2 60.51 19.17 9.43 3.54 119.83 27.9 119.83 27.9l-2.52 58.78ZM127.16 342.75a44.69 44.69 0 0 1-22.47 42.44 44.31 44.31 0 0 1-33.88 4.18 44.6 44.6 0 1 1 56.35-46.62Z"/><path class="cls-6" d="m255.24 455.65-6.72-1.22c-5.7-1.59-140-39.21-189.11-70l-4.16-2.61 45.28-76.37 4.23 2.22c58.5 30.66 151.69 68 164.61 72.5l4.48 1.54Z"/><path class="cls-6" d="M297.25 414.07a38.59 38.59 0 1 1-6.36-18.23 38.62 38.62 0 0 1 6.36 18.23Z"/><path class="cls-7" d="M188.21 282.11c-8.51 4.91-15.2 7.48-24.76 7.71-14.19.38-19.37-7.92-24.11-9.18l-46-106.31 83.29 37.54.19 3.53Z"/><path class="cls-8" d="M165.32 249a83.59 83.59 0 0 1-25.58-7.45 175.62 175.62 0 0 1-22.74-12.4l-23.7-54.82 83.29 37.54.19 3.53 6 35.25c-5.78-.58-11.64-.94-17.46-1.65Z"/><path class="cls-7" d="M65.14 117.73s-30.59-6.56-26.6 27.78 28.85 35 36.19 36.51c0 0 13.68 61.16 89.13 55.3s63.08-64.27 62.53-103 3.76-106-45.62-111C131 18.35 60.76 21.62 65.14 117.73Z"/><path class="cls-2" d="M146.63 134.25a10.14 10.14 0 1 1-10.63-9.66 10.13 10.13 0 0 1 10.63 9.66Zm51.7 0a10.14 10.14 0 1 1-10.58-9.66 10.13 10.13 0 0 1 10.58 9.66Zm-47.6-23.7c.39-.54-1.09-2.54-4.53-4.5a26.33 26.33 0 0 0-29.13 2.79 15.41 15.41 0 0 0-3.11 3.45c-.57.94-.71 1.57-.48 1.83s.9.08 1.84-.37l3.76-1.88a34.57 34.57 0 0 1 25.73-2.46c3.35.9 5.49 1.75 5.92 1.14Zm29.15-1.27c.53.52 2.47-.73 5.6-2.24a34.49 34.49 0 0 1 25.72-2.47l4.05 1.13c1 .26 1.69.31 1.88 0s-.08-.9-.82-1.71a15.65 15.65 0 0 0-3.71-2.79 26.37 26.37 0 0 0-29.13 2.8c-3 2.57-4.08 4.82-3.59 5.28Z"/><path class="cls-8" d="M44.47 133.05c-2.62 9.09 1.1 18.67 4.77 27.4 1.09 2.59 2.29 5.32 4.61 6.91s6.11 1.34 7.33-1.19-.56-5.21-1.92-7.56-2.13-5.89.15-7.36c1.07-.69 2.46-.63 3.58-1.22 2.43-1.29 2.42-4.76 1.79-7.44A41.91 41.91 0 0 0 60.69 132c-1.81-3.27-4.66-6.62-8.4-6.55-3.91.01-6.73 3.85-7.82 7.6Z"/><path d="M127.67 253.69s37.12 32.07 45.7 30.67 9.45-33.71 9.45-33.71 21.3 5.81 25 10.08 9.27 44.5 9.27 44.5c-6.55 6.87-36.14-17.56-40.78-13.93s-23.59 33-27.93 32.53c0 0-35.87-46.28-34.7-53.89.55-3.29 13.99-16.25 13.99-16.25Z" style="fill:#fff"/><path class="cls-2" d="M65.14 117.73c40.6-9.11 51.13-27.06 54.94-58.45 0 0 26.55 75 126.46 55.84-.65-.54-5.58-99.87-68.93-98.05-65.49 1.87-101.46 12-112.47 52.58-8.41 30.97 0 48.08 0 48.08Z"/><path class="cls-2" d="M65.14 117.73c.21 10.52 12 48.19 12 48.19s-2.27-51 4.54-61.82-16.54 13.63-16.54 13.63Z"/><path class="cls-8" d="M136.48 174.37a20.24 20.24 0 1 1-21.13-19.3 20.23 20.23 0 0 1 21.13 19.3Zm90.34-4.12a19.64 19.64 0 1 1-20.51-18.72 19.63 19.63 0 0 1 20.51 18.72Z"/><path d="M175.76 162.35c1.3 1.33-.72 5.15-5.38 6.05s-8-1.9-7.24-3.62 3.28-2.51 6-3.09 5.34-.76 6.62.66Zm5.58 19.04c.44.75-1.29 2.89-5.22 4.66a28.12 28.12 0 0 1-30.89-6.79c-2.83-3.26-3.49-5.93-2.78-6.43 1.58-1.11 8 5.76 18.65 7.91 10.58 2.52 19.27-1.03 20.24.65Z" style="fill:#f69d7d"/><path class="cls-11" d="M194.26 162.23a26.95 26.95 0 1 1 27-26.94 27 27 0 0 1-27 26.94Zm0-49a22 22 0 1 0 22 22 22 22 0 0 0-22-21.96Zm-63.43 49a26.95 26.95 0 1 1 26.94-26.94 27 27 0 0 1-26.94 26.94Zm0-49a22 22 0 1 0 22 22 22 22 0 0 0-22-21.96Z"/><path class="cls-11" d="m155.86 133.67-3.64-3.32c3.38-3.71 7-5.52 10.82-5.3 5.81.31 9.54 5.29 9.7 5.5l-4 2.92 2-1.46-2 1.47s-2.56-3.34-6-3.51c-2.24-.04-4.55 1.14-6.88 3.7Zm-51.93 0s-21.74-16.11-38.79-15.94l-2.1-.31 1.29-1.71c.42-.54 4.4-5.68 40.49 12.55Zm117.28-.95 5.21-2.58v3.64s-3.81 2.79-5.95 2.46Z"/></g></g></svg>