<svg xmlns="http://www.w3.org/2000/svg" viewBox="0 0 85 85"><defs><linearGradient id="linear-gradient" y1="42.5" x2="85" y2="42.5" gradientUnits="userSpaceOnUse"><stop offset="0" stop-color="#fff"/><stop offset="1" stop-color="#d1d3d4"/></linearGradient><linearGradient id="linear-gradient-2" x1="2.13" y1="42.5" x2="82.88" y2="42.5" gradientUnits="userSpaceOnUse"><stop offset="0" stop-color="#d1d3d4"/><stop offset="1" stop-color="#fff"/></linearGradient><linearGradient id="Degradado_sin_nombre_82" x1="10.63" y1="42.5" x2="74.38" y2="42.5" gradientUnits="userSpaceOnUse"><stop offset="0" stop-color="#f0500f"/><stop offset="1" stop-color="#df1d17"/></linearGradient><linearGradient id="Degradado_sin_nombre_14" x1="15.94" y1="42.5" x2="69.07" y2="42.5" gradientUnits="userSpaceOnUse"><stop offset="0" stop-color="#df1d17"/><stop offset="1" stop-color="#f0500f"/></linearGradient><style>.Graphic-Style-728,.cls-2{mix-blend-mode:multiply}.Graphic-Style-730{fill:#808285}.cls-23{fill:#fff}.Graphic-Style-728{fill:#a7a9ac;opacity:.8}</style></defs><g style="isolation:isolate"><g id="Capa_2" data-name="Capa 2"><g id="Capa_2-2" data-name="Capa 2"><g class="cls-2"><circle class="Graphic-Style-730" cx="42.5" cy="42.5" r="41.97"/></g><circle cx="42.5" cy="42.5" r="42.5" style="fill:url(#linear-gradient)"/><circle cx="42.5" cy="42.5" r="40.38" style="fill:url(#linear-gradient-2)"/><g class="cls-2"><circle cx="50.68" cy="50.68" r="31.84" style="fill:#f7f7f7;opacity:.06"/><circle cx="50.13" cy="50.13" r="31.81" style="fill:#efeff0;opacity:.13"/><circle cx="49.59" cy="49.59" r="31.78" style="fill:#e7e8e8;opacity:.19"/><circle cx="49.04" cy="49.04" r="31.74" style="fill:#dfe0e1;opacity:.25"/><circle cx="48.5" cy="48.5" r="31.71" style="fill:#d7d8d9;opacity:.31"/><circle cx="47.95" cy="47.95" r="31.68" style="fill:#cfd0d1;opacity:.38"/><circle cx="47.41" cy="47.41" r="31.64" style="fill:#c7c8ca;opacity:.44"/><circle cx="46.86" cy="46.86" r="31.61" style="fill:#c0c1c2;opacity:.5"/><circle cx="46.32" cy="46.32" r="31.58" style="fill:#b8b9ba;opacity:.56"/><circle cx="45.77" cy="45.77" r="31.54" style="fill:#b0b1b3;opacity:.63"/><circle cx="45.23" cy="45.23" r="31.51" style="fill:#a8a9ab;opacity:.69"/><circle cx="44.68" cy="44.68" r="31.48" style="fill:#a0a1a4;opacity:.75"/><circle cx="44.14" cy="44.14" r="31.44" style="fill:#98999c;opacity:.81"/><circle cx="43.59" cy="43.59" r="31.41" style="fill:#909294;opacity:.88"/><circle cx="43.05" cy="43.05" r="31.38" style="fill:#888a8d;opacity:.94"/><circle class="Graphic-Style-730" cx="42.5" cy="42.5" r="31.34"/></g><circle cx="42.5" cy="42.5" r="31.88" style="fill:url(#Degradado_sin_nombre_82)"/><circle cx="42.5" cy="42.5" r="26.56" style="fill:url(#Degradado_sin_nombre_14)"/><path class="Graphic-Style-728" d="M31.67 50.5s1.26.65 2.81 1.52l8 4.47c1.55.87 2.81.13 2.81-1.65V30.18c0-1.78-1.26-2.52-2.81-1.65l-8 4.47c-1.55.87-2.81 1.54-2.81 1.51s-1.44 0-3.22 0h-1.68c-1.78 0-3.22 1.06-3.22 2.38v11.29c0 1.31 1.44 2.38 3.22 2.38h1.68c1.78 0 3.22-.03 3.22-.06Z"/><path class="cls-23" d="M30.06 50.5s1.26.65 2.81 1.52l8 4.47c1.55.87 2.81.13 2.81-1.65V30.18c0-1.78-1.26-2.52-2.81-1.65l-8 4.47c-1.55.87-2.81 1.54-2.81 1.51s-1.44 0-3.22 0h-1.68c-1.78 0-3.22 1.06-3.22 2.38v11.29c0 1.31 1.44 2.38 3.22 2.38h1.68c1.78 0 3.22-.03 3.22-.06Z"/><path class="Graphic-Style-728" d="M63.59 42.61a22.08 22.08 0 0 1-4.72 13.76c-.52.69-1.08 1.4-2 .75s-.61-1.5 0-2.26a19.91 19.91 0 0 0-.12-24.76c-.57-.72-.91-1.48 0-2.16s1.54 0 2.07.64a22.18 22.18 0 0 1 4.77 14.03Z"/><path class="Graphic-Style-728" d="M58.54 43.33a16.86 16.86 0 0 1-3.62 10c-.55.73-1.17 1.3-2.08.62s-.49-1.43 0-2.18c4.26-6.18 4.22-12.43-.11-18.39-.54-.75-.92-1.49-.07-2.19s1.54-.12 2.08.59a17.81 17.81 0 0 1 3.8 11.55Z"/><path class="Graphic-Style-728" d="M53.61 42.61a12.2 12.2 0 0 1-2.74 7.75c-.57.71-1.2 1.3-2.08.55s-.52-1.34 0-2.07c3.06-4.24 3.08-8.46 0-12.62-.56-.77-.86-1.51 0-2.16s1.51-.05 2.06.64a12.32 12.32 0 0 1 2.76 7.91Z"/><path class="cls-23" d="M62.18 42.61a22.08 22.08 0 0 1-4.72 13.76c-.52.69-1.08 1.4-2 .75s-.61-1.5 0-2.26a19.91 19.91 0 0 0-.12-24.76c-.57-.72-.91-1.48 0-2.16s1.54 0 2.07.64a22.18 22.18 0 0 1 4.77 14.03Z"/><path class="cls-23" d="M57.13 43.33a16.86 16.86 0 0 1-3.62 10c-.55.73-1.17 1.3-2.08.62s-.49-1.43 0-2.18c4.26-6.18 4.22-12.43-.11-18.39-.54-.75-.92-1.49-.07-2.19s1.53-.12 2.08.59a17.81 17.81 0 0 1 3.8 11.55Z"/><path class="cls-23" d="M52.2 42.61a12.2 12.2 0 0 1-2.74 7.75c-.57.71-1.2 1.3-2.08.55s-.52-1.34 0-2.07c3.06-4.24 3.08-8.46 0-12.62-.56-.77-.86-1.51 0-2.16S49 34 49.5 34.7a12.32 12.32 0 0 1 2.7 7.91Z"/></g></g></g></svg>