<svg xmlns="http://www.w3.org/2000/svg" xmlns:xlink="http://www.w3.org/1999/xlink" width="165" height="231.6" xml:space="preserve"><g opacity=".26"><defs><path id="a" d="M0 0h165v231.6H0z"/></defs><clipPath id="b"><use xlink:href="#a" overflow="visible"/></clipPath><path clip-path="url(#b)" fill="#535FF2" d="M138.9 229.9 13.4 161.6c-9.1-4.9-9.8-17.7-1.3-23.6l131-91.3c9.4-6.6 22.3.4 21.9 11.9l-5.6 159.6c-.3 10.3-11.5 16.6-20.5 11.7"/><path clip-path="url(#b)" fill="#FFF" d="M1.4 114.7c-.8-1.8-1.3-3.8-1.4-5.9-.3-5.8 2.3-11.3 7.1-14.6L138.1 3c5.2-3.6 11.9-4 17.5-1s8.9 8.9 8.7 15.2l-5.6 159.6c-.2 5.8-3.3 11-8.4 13.9-5 2.9-11.1 2.9-16.2.2L8.7 122.5c-3.3-1.7-5.8-4.5-7.3-7.8M157.9 12.1c-1-2.2-2.6-4-4.9-5.2-3.8-2.1-8.2-1.8-11.8.6l-131 91.3c-3.2 2.2-5 5.9-4.8 9.8.2 3.9 2.4 7.4 5.8 9.2l125.4 68.3c3.4 1.9 7.5 1.8 10.9-.1 3.4-1.9 5.5-5.4 5.6-9.3l5.6-159.6c.2-1.8-.1-3.5-.8-5m-22.5 176.4z"/></g></svg>