<svg xmlns="http://www.w3.org/2000/svg" xmlns:xlink="http://www.w3.org/1999/xlink" viewBox="0 0 186 196.1" xml:space="preserve"><g opacity=".26"><defs><path id="a" d="M-36.9-13.7h213.4v201H-36.9z"/></defs><clipPath id="b"><use xlink:href="#a" overflow="visible"/></clipPath><path clip-path="url(#b)" fill="#739FD4" d="M171 97.6 57.7 184.5c-8.2 6.3-20.2 1.7-22.1-8.4L5.3 19.3C3.2 8 14.8-.9 25.1 4.1L168.7 74c9.3 4.6 10.5 17.3 2.3 23.6"/><path clip-path="url(#b)" fill="#FFF" d="M10 176.4c-2 0-4-.4-5.9-1.1-5.4-2.1-9.3-6.7-10.4-12.4L-36.6 6.2c-1.2-6.2 1.2-12.5 6.2-16.4 5-3.9 11.7-4.5 17.4-1.8l143.6 69.9c5.2 2.5 8.7 7.5 9.3 13.3.6 5.8-1.8 11.3-6.4 14.9L20.1 173c-3 2.3-6.5 3.4-10.1 3.4M-20.3-8.2c-2.4 0-4.7.8-6.8 2.4-3.4 2.6-5 6.7-4.2 11L-1 161.9c.7 3.8 3.4 7 7 8.3 3.7 1.4 7.7.8 10.8-1.6l113.3-86.9c3.1-2.4 4.7-6.1 4.3-10-.4-3.9-2.7-7.2-6.2-8.9L-15.3-7.1c-1.6-.7-3.3-1.1-5-1.1M131.8 84z"/></g></svg>