<svg xmlns="http://www.w3.org/2000/svg" viewBox="0 0 682.24 553.4"><defs><style>.cls-1{fill:#ffcfca}.cls-2{fill:#f9bfbb}</style></defs><g id="Capa_2" data-name="Capa 2"><g id="Información"><path class="cls-1" d="M313.48 322.89c-1.6 1.9-3.53 3.88-6 4-4 .18-6.33-4.44-7.24-8.38-6.91-29.34 6.47-59.76 5.78-89.82A119.48 119.48 0 0 1 331.16 183c1.27-1.49 2.63-2.93 4-4.33 4-4.16 9.28-8.27 15-7.33 3.77.65 6.85 3.47 8.81 6.75 5 8.41 3.56 19 1.77 28.66-4.11 21.77-9.38 43.78-17.42 64.46-7.32 18.79-16.81 36.37-29.84 51.68Z"/><path class="cls-2" d="M313.48 322.89c-1.6 1.9-3.53 3.88-6 4-4 .18-6.33-4.44-7.24-8.38-6.91-29.34 6.47-59.76 5.78-89.82A119.48 119.48 0 0 1 331.16 183a231.14 231.14 0 0 0 1.22 26.16c2.07 20.92 6.51 41.53 10.92 62.05-7.3 18.79-16.79 36.37-29.82 51.68Z"/><path class="cls-1" d="M280.68 224.8c-5.25 6.26-14.77 16.14-23.65 10.48-9.38-6-3.74-16.77 0-24.05a287.8 287.8 0 0 0 26.22-74.55c2.58-12.68 4.31-25.5 6.46-38.28a546.94 546.94 0 0 1 22.73-88.24c.95-2.77 2-5.67 4.19-7.69 4.41-4.1 12-2.74 16.35 1.46.41.42.82.83 1.19 1.26 3.49 4.12 5 9.65 6 15a112 112 0 0 1 1.51 11.66c1.61 20.12-1.79 40.6-5.87 60.49-9.72 47.33-23.99 95.49-55.13 132.46Z"/><path class="cls-2" d="M287.3 188.37c23.27-58 33.22-120.23 46.43-181.27.14-.64.28-1.28.43-1.91 3.49 4.12 5 9.65 6 15a112 112 0 0 1 1.51 11.66c-.61 4.76-1.24 9.55-1.85 14.31-1 8-2 15.94-3.7 23.83A298.7 298.7 0 0 1 328 98.75c-10.21 32.25-20.08 62.84-40.7 89.62Z"/><path class="cls-1" d="M297.78 227.09c-1.45 2.72-3.11 5.5-5.75 7.07-6.77 4-17-3.12-22.51-8.8a245 245 0 0 0 18.13-48.29C301 125.5 301.28 70.25 302.3 17c.11-6.41 1.77-14.77 8.14-15.49A10.5 10.5 0 0 1 316.36 3c6.85 3.61 11.18 9.81 14 17 3 7.73 4.28 16.63 5.09 24.88s1.56 16.51 1.16 24.77c-.93 18.85-8 36.76-12.69 55.05-.23.91-.47 1.84-.67 2.76-8.25 33.46-9.5 69.16-25.47 99.63Z"/><path class="cls-2" d="M305.29 160.14q7.72-26.26 15.41-52.49c2.62-8.92 5.26-17.87 7-27a190.27 190.27 0 0 0 3-37.67c-.05-6.45-.42-12.92-.73-19.37a11 11 0 0 1 .37-3.58c3 7.73 4.28 16.63 5.09 24.88s1.56 16.51 1.16 24.77c-.93 18.85-8 36.76-12.69 55.05-.23.91-.47 1.84-.67 2.76-6.96 10.39-13.47 21.02-17.94 32.65Z"/><path class="cls-1" d="M363 93c-.15 4.24-1.56 8.29-2.92 12.3-8.83 25.09-20.21 49.84-27 75.7s-.05 0 0 .08c-.62 2.31-1.21 4.74-1.76 7.14a.05.05 0 0 0 0 .08 162 162 0 0 0-4 28.42c-1.35 28.11 1.44 56.15 1.86 84.24a312 312 0 0 1-1.27 35.48 190.37 190.37 0 0 1-8.94 41.69c-5.31 15.63-12.86 31.65-22.85 45.32a112.92 112.92 0 0 1-10.66 12.68c-7.35 7.49-15.73 13.75-24.26 19.83a133.83 133.83 0 0 1-11.51 7.09c-35.4 26.54-78.92 56.82-119.33 83.19C64.84 589.35-40.2 423.12 16 407.22c27.89-7.86 56.46-18.22 84-27.29 8.4-2.8 94.6-30.62 104.46-33.8h.06c15.76-48.5 36-94.64 58.41-140.29.31-.65.62-1.29 1-1.89 0-.09.1-.16.11-.25 2.42-4.59 5.72-9.06 10.69-9.6 1.75-.23 3.7.07 5.29-.72s2.5-2.56 3.27-4.22 1.61-3.53 2.49-5.35c.48-1.09.94-2.1 1.46-3.15 3.33-7.3 6.75-14.58 10.11-21.83h.05c5.29-11.5 10.63-23 15.88-34.42.05 0 0-.08.05-.12 2.27-4.69 4.36-9.4 6.57-14 0 0 0-.08.06-.12s.05-.12.1-.16c3-6.47 6.09-13 9.06-19.47 1.61-3.52 3.27-7.09 6-9.89l.36-.3a9.26 9.26 0 0 1 .92-.85c10.31-8.91 26.96.2 26.6 13.5Z"/><path class="cls-2" d="M295.94 423.54a109.4 109.4 0 0 1-10.66 12.64C277.92 443.67 269.54 450 261 456a143.17 143.17 0 0 1-13.53-19.54A236.59 236.59 0 0 1 233.58 408 67.11 67.11 0 0 0 262 427.58a41.15 41.15 0 0 0 12.85 2.62c7.51.17 14.78-2.53 21.09-6.66Z"/><path class="cls-1" d="M368.76 322.89c1.6 1.9 3.53 3.88 6 4 4 .18 6.34-4.44 7.25-8.38 6.91-29.34-6.47-59.76-5.78-89.82A119.48 119.48 0 0 0 351.08 183c-1.27-1.49-2.63-2.93-4-4.33-4.05-4.16-9.29-8.27-15-7.33-3.76.65-6.85 3.47-8.81 6.75-5 8.41-3.55 19-1.76 28.66 4.11 21.77 9.37 43.78 17.41 64.46 7.28 18.79 16.8 36.37 29.84 51.68Z"/><path class="cls-2" d="M368.76 322.89c1.6 1.9 3.53 3.88 6 4 4 .18 6.34-4.44 7.25-8.38 6.91-29.34-6.47-59.76-5.78-89.82A119.48 119.48 0 0 0 351.08 183a228.84 228.84 0 0 1-1.23 26.16c-2.07 20.92-6.5 41.53-10.92 62.05 7.27 18.79 16.79 36.37 29.83 51.68Z"/><path class="cls-1" d="M400.52 225.05c5.54 6 15.51 15.42 24.11 9.35 9.09-6.47 3-16.93-1.12-24a288.19 288.19 0 0 1-29.7-73.24c-3.17-12.54-5.5-25.27-8.25-37.93a548.44 548.44 0 0 0-26.85-87.07c-1.09-2.73-2.28-5.57-4.56-7.49-4.59-3.88-12.1-2.17-16.25 2.23-.39.43-.78.87-1.13 1.31-3.29 4.29-4.6 9.88-5.31 15.26a109.37 109.37 0 0 0-1 11.71c-.66 20.18 3.7 40.47 8.71 60.15 11.98 46.81 28.51 94.25 61.35 129.72Z"/><path class="cls-2" d="M392.19 189c-26-56.81-38.84-118.54-54.91-178.89l-.51-1.89c-3.29 4.29-4.6 9.88-5.31 15.26a109.37 109.37 0 0 0-1 11.71c.83 4.73 1.69 9.48 2.52 14.21 1.41 7.9 2.8 15.83 4.81 23.63a297.52 297.52 0 0 0 9.48 28.36c11.73 31.68 23.07 61.8 44.92 87.61Z"/><path class="cls-1" d="M384.46 227.09c1.44 2.72 3.11 5.5 5.75 7.07 6.77 4 17-3.12 22.51-8.8a245 245 0 0 1-18.13-48.29C381.21 125.5 381 70.25 379.93 17c-.1-6.41-1.77-14.77-8.13-15.49A10.48 10.48 0 0 0 365.88 3c-6.85 3.61-11.18 9.81-14 17-3 7.73-4.28 16.63-5.1 24.88s-1.56 16.51-1.16 24.77c.94 18.85 8 36.76 12.7 55.05.23.91.47 1.84.66 2.76 8.25 33.46 9.5 69.16 25.48 99.63Z"/><path class="cls-2" d="M377 160.14q-7.72-26.26-15.41-52.49c-2.63-8.92-5.26-17.87-7-27a189.53 189.53 0 0 1-3-37.67c.06-6.45.42-12.92.74-19.37a11.25 11.25 0 0 0-.43-3.61c-3 7.73-4.28 16.63-5.1 24.88s-1.56 16.51-1.16 24.77c.94 18.85 8 36.76 12.7 55.05.23.91.47 1.84.66 2.76 7 10.42 13.47 21.05 18 32.68Z"/><path class="cls-1" d="M319.27 93c.16 4.24 1.57 8.29 2.93 12.3 8.83 25.09 20.21 49.84 27 75.7s.05 0 0 .08c.62 2.31 1.21 4.74 1.76 7.14a.05.05 0 0 1 0 .08 163.93 163.93 0 0 1 4 28.42c1.35 28.11-1.44 56.15-1.86 84.24a312 312 0 0 0 1.27 35.48 190.94 190.94 0 0 0 8.93 41.69c5.32 15.63 12.86 31.65 22.85 45.32A113 113 0 0 0 397 436.19c7.35 7.49 15.73 13.75 24.26 19.83a132.31 132.31 0 0 0 11.51 7.09c35.39 26.54 78.91 56.82 119.33 83.19 65.33 43.05 170.38-123.18 114.22-139.08-27.93-7.86-56.5-18.21-84.08-27.29-8.4-2.8-94.6-30.62-104.46-33.8h-.07c-15.76-48.5-36-94.64-58.4-140.29-.31-.65-.62-1.29-1-1.89 0-.09-.1-.16-.1-.25-2.42-4.59-5.72-9.06-10.69-9.6-1.75-.23-3.71.07-5.29-.72s-2.5-2.56-3.27-4.22-1.62-3.53-2.49-5.35c-.47-1.09-.94-2.1-1.45-3.15-3.33-7.3-6.74-14.58-10.11-21.83-5.3-11.5-10.63-23-15.88-34.42-.05 0 0-.08-.06-.12-2.26-4.69-4.35-9.4-6.57-14 0 0 0-.08-.05-.12-.05 0-.05-.12-.1-.16-3-6.47-6.1-13-9.06-19.47-1.62-3.52-3.27-7.09-6-9.89l-.36-.3a9.26 9.26 0 0 0-.92-.85c-10.39-8.91-27.03.2-26.64 13.5Z"/><path class="cls-2" d="M386.3 423.54a110.33 110.33 0 0 0 10.7 12.64c7.37 7.49 15.75 13.78 24.3 19.84a143.1 143.1 0 0 0 13.52-19.54A236.65 236.65 0 0 0 448.66 408a67.18 67.18 0 0 1-28.46 19.6 41.15 41.15 0 0 1-12.85 2.62c-7.47.15-14.75-2.55-21.05-6.68Z"/></g></g></svg>