<svg xmlns="http://www.w3.org/2000/svg" viewBox="0 0 199.8 681.5"><g data-name="Capa 2"><path d="M75.07 316.33s-22.75-30.77-36.13-61.39-28.66-68.21-36.56-87.24c-9.51-22.89 11.56-30.19 26.44.75s25 43.46 25 43.46S26.19 67.09 35 46.51c16-37.62 24.45 39.21 42.58 97.27 0 0-3.3-130.31 15.13-142.62 24.18-16.16 27.72 141.7 27.72 141.7s14.7-116.8 28.41-113.09c15.3 4.13 14.86 125.53 14.86 125.53s17.2-79.3 25.41-73.65c16.25 11.28 19.45 204.53-30.34 265.86 0 0-69.38-18.32-83.7-31.18Z" style="fill:#f9bb9c"/><path d="M67.15 170s60.82-14.15 109.31 17.7c0-.04-29.86-50.7-109.31-17.7Zm47.54 41.86s32 65.56-26.65 92.19c-.04 0 75.63-8.71 26.65-92.19Z" style="fill:#f99c80"/><path d="M76.15 318.73s-14 153.07-33 260.94 152.72 166.78 147.93-14.36c-3.63-137.16-11.56-251.72-11.56-251.72-34.06 17.41-68.52 18.3-103.37 5.14Z" style="fill:#0188e5"/></g></svg>