<svg xmlns="http://www.w3.org/2000/svg" viewBox="0 0 234.64 517.53"><defs><style>.cls-1{fill:#ffaf82}.cls-2{fill:#f88968}</style></defs><g id="Capa_2" data-name="Capa 2"><g id="Información"><path class="cls-1" d="M200.89 260.48c3.26 10.4 4.86 21 6.21 31.68a132.71 132.71 0 0 1 .79 13.77c6.83 44.92 13 98.88 17.2 148 7.09 79.72-200 80.77-186.55 23.65 6.76-28.39 11.51-58.67 17-87.41 1.63-8.76 19.66-115.9 21.67-126.14-.04-.03 123.68-3.55 123.68-3.55Z"/><path class="cls-1" d="M234 114.22q.39 6.78.54 14c0 1.06 0 2.12.06 3.22v.05c.12 8.71 0 17.8-.49 27.09-2.59 52.22-14.86 111.31-43.61 151.7 0 0-92.72-18.24-112.62-33.95 0 0-32.48-38.52-52.66-77.64 0 0-29.71-47.52-24.59-70.06s27.09-29.58 27.09-29.58S27 95.71 26 90.73c-2.44-12-6.84-33.54-8.16-40.67-7.1-38.74 24.64-59.14 48.71-.83C66.05 44 61.53 7.06 89.48.33c19.64-4.77 33.34 44.22 33.34 44.22s15-45.71 33.36-42c20 4.09 24.4 52.71 24.58 54.64.81-1.44 14.51-25.34 35.76-12.29C225 50.11 232 77.55 234 114.22Z"/><path class="cls-2" d="M234 114.22q.39 6.78.54 14c-5.34 7.92-13.42 15.66-24.91 17-24.76 2.72-28.39-24.22-28.39-24.22s-3 22.11-19.9 20.78-23.05-17-23.05-17-6.79 18.79-21.29 17.83-30.71-38.28-30.71-38.28 14.67 22.21 27.16 27.09 25.21-9.75 20.43-34.86c.5 2.74 5.66 28.36 23.65 33.22 18.53 5 25-34.41 25.28-36.54.26 2.26 4.64 43.57 22.85 44 12.47.28 22.47-11.86 28.34-23.02Z"/><path class="cls-2" d="M53.75 110.63s39.47 6.19 52.13 32.81-30 49.25-67.44 42.46c0 0 19 15.51 49 6s34.1-41.53 23.81-54.54-23.25-23.14-57.5-26.73Z"/><path class="cls-2" d="M110.5 154.5s47.22 15.57 45.82 88.54c0 0 32.2-61.37-42.35-101.12Z"/></g></g></svg>