<svg xmlns="http://www.w3.org/2000/svg" viewBox="0 0 528.22 271.37"><defs><style>.cls-1{fill:#ffaf82}.cls-2{fill:#f88968}</style></defs><g id="Capa_2" data-name="Capa 2"><g id="Información"><path class="cls-1" d="M404.55 268.35c-5.19.6-10.53 1.11-16.06 1.55-1.22.08-2.44.17-3.71.28h-.06c-10 .71-20.51 1.12-31.24 1.21-60.34.45-129.22-9.79-177.65-40.25 0 0 14.9-108 31.69-132 0 0 42.24-40 86-65.79 0 0 52.8-37.35 79.11-32.94s35.86 29.31 35.86 29.31l9.46-2.51c13.69-3.61 38.2-10.09 46.32-12.09C508.4 4.34 534 39.57 468.39 71.13c6-.93 48.26-8.56 57.86 23.19 6.79 22.32-48.76 41.33-48.76 41.33s53.66 14.29 50.61 35.66c-3.4 23.38-59.13 31.59-61.34 31.92 1.71.85 30.15 15.06 16.52 40.4-5.46 10.08-36.62 19.93-78.73 24.72Z"/><path class="cls-2" d="M404.55 268.35c-5.19.6-10.53 1.11-16.06 1.55-9.47-5.64-18.93-14.43-21.19-27.58-4.84-28.37 26-34.33 26-34.33S367.6 206 368 186.43s18-27.68 18-27.68-22-6.58-21.9-23.41 42.09-37.9 42.09-37.9-24.63 18.36-29.43 33.08 12.89 28.4 41.51 21.24c-3.12.75-32.31 8.38-36.72 29.43-4.5 21.68 41.29 26.5 43.76 26.72-2.58.45-49.89 8.22-49.17 29.22.52 14.45 15.16 25.17 28.41 31.22Z"/><path class="cls-2" d="M396.82 60.42s-4.54 45.89-34.38 62.22-58.71-31.27-53.36-74.9c0 0-16.61 23-3.65 56.87s50.09 36.55 64.39 23.84 25.11-28.29 27-68.03Z"/><path class="cls-2" d="M350 128.69s-14.82 55.43-99 58.63c0 0 72.82 33.05 113.71-55.46Z"/><path class="cls-1" d="M4.51 101.5s127.67-1.84 211.67-9.84c87.26-8.31 16.79 152 16.79 152L0 243.75Z"/></g></g></svg>