<svg xmlns="http://www.w3.org/2000/svg" viewBox="0 0 624.49 836.96"><defs><style>.cls-2{fill:#32324c}.cls-3{fill:#c11c57}.cls-4{fill:#f88968}.cls-5{fill:#f99c80}.cls-6{fill:#ffaf82}.cls-8{fill:#fff}.cls-11{fill:#d82a64}</style></defs><g id="Capa_2" data-name="Capa 2"><g id="Información"><path d="M158.23 824.15C99.75 687.67 138 633.58 138 633.58c32.32-14.79 82.82-31.58 82.82-31.58 17.18 97.59 1.59 235 1.59 235Z" style="fill:#211931"/><path class="cls-2" d="M44.88 835.15s-20.88-90.81.17-213.79l105.44 12.22s-10 63.76-30.28 197Z"/><path class="cls-2" d="M48.87 589.19c-4.18 22.09-7.82 59 3.33 96.12 0 0 77.81 19.33 132.54-24.13 35.8-28.44 37.49-61.72 37.06-72Z"/><path class="cls-3" d="M333.4 301.3c-131.6-73.1-159.12-65.45-159.12-65.45 32.79 38.27-29.46 40.24-3.19 58.6 40.92 28.59 128.15 48.68 148 55.19 32.52 10.69 183.31 2.48 183.31 2.48-3.19-11.29-2.9-23.12.82-32 0 0-60.43-6.48-82.7-9.4s-87.12-9.42-87.12-9.42Z"/><path class="cls-4" d="M510.61 321.51s18-14.82 32.69-16.74 2.5 11.29-6.31 19.15c-7.13 6.35-26.38-2.41-26.38-2.41Z"/><path class="cls-5" d="M553.93 332.55s43.92-16.31 59.87-18.29c19.32-2.4 10.49 9.95-10.77 17.66s-49.1.63-49.1.63Z"/><path class="cls-5" d="M557.81 333.34s29.23-18.95 44.89-22.6c18.95-4.42 11.47 8.79-8.86 18.7s-36.03 3.9-36.03 3.9Z"/><path class="cls-6" d="M502.83 319.55c-4.92 16-1.44 32.51-1.44 32.51 18.69 5.28 62.79-1.22 89.62-12.86s36.59-15.81 27.16-18.47c-13.24-3.73-44.73 1.55-59.91 4.35 0 0-27.66-10.24-55.43-5.53"/><path d="M208.16 405.22c-5.18 14.07-9.44 37.08-9.44 37.08 4 34.54 17.1 108.15 28.08 146.89-49.54 26.08-143.15 31.47-190.36 8.59 9-30.75 27.78-133.46 26-152.66C42.34 235.51 74.9 249.86 74.9 249.86l30.78-9.21a154.79 154.79 0 0 1 64.19-5.21l19.07 2.47 10.89 1.42 17.84 4.9s-1.1 50.68 11.78 97.47c10.89 39.5-6.72 44.7-15.54 53.37a17 17 0 0 0-3.18 4.14 52.08 52.08 0 0 0-2.57 6.01Z" style="fill:#e63067"/><path class="cls-3" d="M210.47 400c-1 2-3 8-4 10-.84 1.7-3 11-3.68 13.81a154.63 154.63 0 0 1-31.79-9.35c-24.89-10.53-47-33.67-47.62-34.35 34.43 26.99 68.96 17.62 87.09 19.89Z"/><path class="cls-6" d="M188.94 237.92c-3.53 19.43-5.8 52.3-30.53 51-29.73-1.55-47.09-35.21-52.73-48.27a154.45 154.45 0 0 1 64.19-5.21Z"/><path class="cls-2" d="M248.17 135c2.11 8 4.29 16.17 6.31 24.86 6.43 27.7-19.92 29.33-19.92 29.33s7.12 19.05-7.08 32.94-30.34 4.87-30.34 4.87-6.59 7.64-22.55 7.55c-23.15-.11-30.91-9.94-30.91-9.94l-23.79-6c-3.3 1.56-6.57 13.17-32.24 14.4-23.34 1.13-34.31-13.58-34.31-13.58-7 11.58-35.63 7.5-37.6-11.73-1.85-18.06 7-24.79 8-25.55-15.66 9.58-38.66-20.78-10.36-46.15 11.52-10.32 17.81-15 22.21-20.31-12.17 2-23.74-12.78-17.56-24.59C26 75.85 38.23 83 52.12 61.28c18.46-28.83 31.72-38.19 32.49-38.72C107.19 3.89 139.12-3.17 173.24 1.3c29 3.79 45.18 16.87 54.17 29.78 7.76 11.14 11.13 24.68 10.5 38.24q-.19 4.26-.1 8.43c3.4 10.18 10.55 28.31 20.05 34.32 12.92 8.18 4.14 26.93-9.69 22.93Z"/><path class="cls-4" d="M208.32 112.83s16.28-16.21 27.58-.39c9.93 13.92.8 48.33-25.54 45.56Z"/><path class="cls-8" d="M229 157.09a6.35 6.35 0 1 1-5.91-6.77 6.37 6.37 0 0 1 5.91 6.77Z"/><path class="cls-6" d="M172.12 242.71c-2.41 15.71-35.72 22.77-52.46-5.32l.42-34.79.3-25.56 58.87 15.65-5.69 39.94Z"/><path class="cls-4" d="M172.87 237.45c-20.39-1.11-42.17-16.71-52.89-27.18l.4-33.23 58.87 15.65Z"/><path class="cls-6" d="M151.57 209.5c-62-18.71-67.78-102-67.78-102A91.88 91.88 0 0 1 85.56 94a106.05 106.05 0 0 1 4.1-14.85c5.6-15.55 16.53-33 37.77-39.44.66-.21 1.34-.41 2-.59 35.17-9.83 85-.7 97.15 45.8a75.79 75.79 0 0 1 1.73 9c.24 1.82.44 3.7.58 5.63 3.65 47.32-21.6 126.77-77.32 109.95Z"/><path d="M183.5 175.39a10.89 10.89 0 0 1-21.43 1.94 11.09 11.09 0 0 1-.33-3.43 10.91 10.91 0 0 1 21.76 1.49Z" style="fill:#920e08"/><path d="M181.57 180.87a10.89 10.89 0 0 1-19.5-3.54 19.85 19.85 0 0 1 11.41-.12c3.27.87 6.17 2.02 8.09 3.66Z" style="fill:#f85c66"/><path class="cls-2" d="M144.8 124.32a8.09 8.09 0 0 1-8.67-7.48 8 8 0 0 1 .93-4.39c-6.57-1.23-6.16-5.23-6.16-5.23.92 1.78 8.72 1.31 11.95 1l1-.09h.43a8.09 8.09 0 0 1 .54 16.16Z"/><path class="cls-6" d="M94.51 109.89S72.76 96 64.12 116c-7.6 17.66 10.63 53.29 38.91 44Z"/><path class="cls-4" d="M93.57 144.33c-1.55-6.08-6.3-18.71-19.74-25.12 0 0 13.81 14.93 14.2 25.78a2.68 2.68 0 0 0 2.56 2.64h.32a2.65 2.65 0 0 0 2.66-3.3Zm72.35 53.1a30.09 30.09 0 0 1-10.24-4.91 1.84 1.84 0 0 1 2.29-2.89c.47.37 11.28 8.68 23.68 3.14a1.84 1.84 0 1 1 1.51 3.36 25.41 25.41 0 0 1-17.24 1.3Zm11.21-43.63-9.56-.65a2 2 0 1 1 .27-3.93l9.56.66a.41.41 0 0 0 .36-.16.4.4 0 0 0 .1-.38l-6.08-27.71a2 2 0 1 1 3.84-.85l6.08 27.72a4.38 4.38 0 0 1-4.57 5.3Z"/><path class="cls-2" d="M149.78 88.05a3.76 3.76 0 0 1-2.61 4.95c-7.17 1.83-21.92 6.61-27.48 16 0 0-.6-13.9 25.25-23.17a3.78 3.78 0 0 1 4.84 2.22Zm39.74 4.22a3.77 3.77 0 0 0 2.79 4.81c7.24 1.55 22.16 5.76 28.07 14.91 0 0 .07-13.91-26.11-22.19a3.78 3.78 0 0 0-4.75 2.47Zm8.71 34.67a8.1 8.1 0 0 0 9.61-6.24 8 8 0 0 0-.33-4.47c6.67-.32 6.81-4.35 6.81-4.35-1.15 1.65-8.81.12-12-.59l-1-.22h-.39a8.09 8.09 0 0 0-2.73 15.94Z"/><path class="cls-2" d="M132.67 43.72s-6.94 55.05-34.23 75.6c0 0-1.22-14.81-21.43-14 0 0-1.66-3.56-3.47-20.39S87 .22 162.81 9.84c0 0 24.53-3.25 56.43 28s9.66 61.59 9.66 61.59-55.97-11.63-96.23-55.71Z"/><path class="cls-8" d="M92.78 161.94a6.35 6.35 0 1 1-5.9-6.77 6.35 6.35 0 0 1 5.9 6.77Z"/><path class="cls-11" d="M62.47 268.5s-27.2 30.33 140.9 113.09c62.14 30.59 92.93 5.87 81.63-6.59-77.07-84.91-190.86-158.18-222.53-106.5Z"/><path class="cls-11" d="M255.73 350.21c-67.25-4.93-37.68 38.68-18.52 46.9C268.67 410.6 419.6 415.6 419.6 415.6c-2.19-11.52-.86-23.28 3.61-31.78 0 0-59.62-11.74-81.56-16.6s-85.92-17.01-85.92-17.01Z"/><path class="cls-6" d="M430.49 385.82s20.36-15.09 35.2-15.72.34 13.37-9.13 20.43c-7.65 5.71-26.07-4.71-26.07-4.71Z"/><path class="cls-5" d="M472.68 400.61s45.18-12.41 61.25-13c19.45-.7 9.58 10.83-12.28 16.66s-48.97-3.66-48.97-3.66Z"/><path class="cls-5" d="M476.48 401.74s30.77-16.33 46.69-18.59c19.27-2.75 10.67 9.75-10.46 17.85s-36.23.74-36.23.74Z"/><path class="cls-6" d="M422.92 383.19c-6.3 15.48-4.28 32.27-4.28 32.27 18.16 6.88 62.65 4.26 90.4-5s37.84-12.54 28.67-16c-12.86-4.88-44.69-2.38-60.06-.91 0 0-26.66-12.62-54.73-10.36"/></g></g></svg>