<svg xmlns="http://www.w3.org/2000/svg" viewBox="0 0 484.1 674.08"><defs><style>.cls-1{fill:#efeadc}.cls-2{fill:#c45555}.cls-3{fill:#fbbf94}.cls-4{fill:#f28657}.cls-6{fill:#fff}.cls-7{fill:#f7a17c}</style></defs><g id="Capa_2" data-name="Capa 2"><g id="Información"><path class="cls-1" d="M484 450.18c.68 28.49-3.26 57.78-6.4 85.25a914.65 914.65 0 0 1-26.31 136.93H325.9q19-81.93 38-163.87l54.84-45.11c13.95-11.48 35.3-33 55.24-22.81a24.89 24.89 0 0 1 10.02 9.61Z"/><path class="cls-1" d="M363.86 508.49q-19 81.93-38 163.87h-7.76Q311.39 541.18 304.63 410c-.27-5.39-.56-10.78-.83-16.17a77.92 77.92 0 0 0 11.51-.34c20-1.95 35.94-2.46 54.43-12.24 15.1-8 29.65-17.77 46.32-21.49 29.05-6.46 53.46 16.08 61.15 42.38 4.51 15.42 6.43 31.59 6.82 48a24.89 24.89 0 0 0-10.09-9.61c-19.94-10.15-41.29 11.37-55.24 22.85Z"/><path class="cls-2" d="M390 351.73c-10 5.6-21.62 8-33.1 8.51-12.72.53-25.41-1.22-38-3l-36.72-5.08-1.15-.14 2.55-22.21a167.56 167.56 0 0 0 16.41-8.43c2.06-1.2 4.1-2.45 6.09-3.75a149.86 149.86 0 0 0 46.27-47.79c3.71-6.15 8.31-6.71 14.57-8.1a128.94 128.94 0 0 1-1.47 19.44c-1.85 13.5-4.43 27.24-1.85 40.62 2.84 15.02 12.92 26.04 26.4 29.93Zm-70.41-216.27a5.36 5.36 0 0 1-2.94 5.64c-3.72 1.5-7.5-2.1-10.79-3.3a77.84 77.84 0 0 0-12.1-3.29c-4.85-.92-11.75-.77-16-3.36-2.09-1.26-3.52-4-2.53-6.2a6.17 6.17 0 0 1 4.86-4c5.12-1.29 12.46.55 17.51 1.78a79.6 79.6 0 0 1 10.09 3.48c2.87 1.12 5.78 1.77 8.32 3.69a8.69 8.69 0 0 1 3.58 5.56Z"/><path class="cls-3" d="M303.8 393.83c.27 5.39.56 10.78.83 16.17a137.84 137.84 0 0 1-38.48 26.33c-14.21 6.42-35.58 5.32-49.54-.92A130.39 130.39 0 0 1 179.47 410c.27-5.21.54-10.4.8-15.6 5.16.15 10.41-.22 13.71-2.1 8.27-4.71 11.21-18.68 11.36-27.25a57 57 0 0 0-.33-7.27c20.41 14.13 47.6 16.05 69.44 4q3-1.67 5.83-3.58-.48 4.21-1 8.45c-.55 4.9-1.09 10.06.83 14.6 3.89 9.2 13.98 12.09 23.69 12.58Z"/><path class="cls-4" d="M203.58 349.09c-1.19-5.52-2.86-11-4.55-16.35a116.68 116.68 0 0 0 37.06 7.69c16 .51 32.43-3.92 47.44-10.59L281 352.05c-.23 2-.47 4.08-.7 6.12q-2.83 1.92-5.83 3.58c-21.84 12.08-49 10.16-69.44-4a80.7 80.7 0 0 0-1.45-8.66ZM270.47 247a1.73 1.73 0 0 1 .68-.84 3.16 3.16 0 0 1 1.8-.42l2.38-.07a7 7 0 0 1 2.54.25 2.31 2.31 0 0 1 1.59 1.86 2.11 2.11 0 0 1-.81 1.7 3.81 3.81 0 0 1-1.78.74c-1.27.2-6.87-1.39-6.4-3.22Zm-54.88-.86c.66.49.82 1 .65 1.42-.61 1.59-5.23 2.84-6.36 2.64a3.84 3.84 0 0 1-1.79-.74 2.14 2.14 0 0 1-.81-1.7 2.32 2.32 0 0 1 1.58-1.86 7.07 7.07 0 0 1 2.56-.25l2.37.07a3.14 3.14 0 0 1 1.8.42Z"/><path class="cls-2" d="M200.67 125c1 2.23-.45 4.94-2.54 6.2-4.28 2.59-11.18 2.44-16 3.36A78.26 78.26 0 0 0 170 137.8c-3.28 1.2-7.06 4.8-10.78 3.3a5.36 5.36 0 0 1-2.94-5.64 8.69 8.69 0 0 1 3.62-5.59c2.54-1.92 5.45-2.57 8.32-3.69a80 80 0 0 1 10.08-3.48c5.06-1.23 12.4-3.07 17.51-1.78a6.17 6.17 0 0 1 4.86 4.08Z"/><path d="M199 332.74c1.69 5.39 3.36 10.83 4.55 16.35a64.7 64.7 0 0 0-41.64 2.22c-3.16 1.25-6 3.15-9.07 4.39a42 42 0 0 1-5.09 1.67c4.53-2.74 7.62-7.74 8.83-13 1.42-6.17.58-12.64-.83-18.81a102.84 102.84 0 0 0-10.62-27.39 148.39 148.39 0 0 0 24 19.46c2 1.3 4 2.55 6.09 3.75A155.11 155.11 0 0 0 199 332.74Z" style="fill:#9b3c3d"/><path class="cls-1" d="m120.25 508.49-54.84-45.11c-14-11.48-35.3-33-55.24-22.81a24.77 24.77 0 0 0-10.09 9.61c.38-16.45 2.31-32.62 6.81-48C14.59 375.84 39 353.3 68 359.76c16.67 3.72 31.22 13.5 46.33 21.49 18.48 9.78 34.44 10.29 54.42 12.24 3 .29 7.19.78 11.48.91-.26 5.2-.53 10.39-.8 15.6Q172.72 541.17 166 672.36h-7.75q-19.03-81.93-38-163.87Z"/><path class="cls-1" d="M120.25 508.49q19 81.93 38 163.87H32.79A914.65 914.65 0 0 1 6.48 535.43C3.34 508-.61 478.67.08 450.18a24.77 24.77 0 0 1 10.09-9.61c19.94-10.19 41.28 11.33 55.24 22.81Z"/><path class="cls-3" d="M270.47 247c-.51 1.85 5.13 3.44 6.4 3.22a3.81 3.81 0 0 0 1.78-.74 2.11 2.11 0 0 0 .81-1.7 2.31 2.31 0 0 0-1.59-1.86 7 7 0 0 0-2.54-.25l-2.38.07a3.16 3.16 0 0 0-1.8.42 1.73 1.73 0 0 0-.68.84Zm-54.23.58c.17-.45 0-.93-.65-1.42a3.14 3.14 0 0 0-1.8-.42l-2.37-.07a7.07 7.07 0 0 0-2.56.25 2.32 2.32 0 0 0-1.58 1.86 2.14 2.14 0 0 0 .81 1.7 3.84 3.84 0 0 0 1.79.74c1.12.18 5.75-1.07 6.36-2.66Zm-71.08 50.62q-4.86-4.86-9.27-10.15a149.64 149.64 0 0 1-13-18.18c-4-6.57-8.94-6.75-15.89-8.4a61.58 61.58 0 0 1-16.31-6.18c-8.74-5-16.08-13-18.61-22.71-.21-.83-.39-1.67-.52-2.53-1.43-9.11 1.76-19.09 9.17-24.52 8.11-5.95 21-4.81 26.9 3.37h.06a3.69 3.69 0 0 0 4.79 1.61 6 6 0 0 0 3.16-4.42c.71-3.61.59-7.11 1.45-10.81a76.81 76.81 0 0 1 3.62-11.38c3.09-7.61 8.36-13.87 12.25-21.12s7.61-15.67 8.35-24.1c.82-9.3 3.28-15 9.85-21.64 7.56-7.62 15.25-15 21.55-23.75A79 79 0 0 0 181.88 77c1-2.5 2.87-13.55 7-12.07 1.31.47 2.76 3.77 3.63 4.84a49.62 49.62 0 0 0 4.94 5.31 54 54 0 0 0 12.25 8.61c14.04 7.31 30.3 8.95 46.07 9.24 8.7.17 18.36-1.39 26.86 1.86 9 3.45 13.74 14.35 20.21 21.18 5.8 6.13 13.9 8.92 20.59 13.82 8 5.85 11.75 14.22 14.05 23.61 2.42 9.85 3.33 20 5.06 30a189.73 189.73 0 0 0 17.14 52.32c1.37 2.74 2.85 5.44 4.36 8.12a56.33 56.33 0 0 1 2.83 17.92c-6.26 1.39-10.86 2-14.57 8.1a149.86 149.86 0 0 1-46.3 47.8c-2 1.3-4 2.55-6.09 3.75a167.56 167.56 0 0 1-16.41 8.43c-15 6.67-31.4 11.1-47.44 10.59a116.68 116.68 0 0 1-37.06-7.69 155.11 155.11 0 0 1-23.75-11.33c-2.06-1.2-4.1-2.45-6.09-3.75a148.39 148.39 0 0 1-24-19.46Zm171.49-157.1a5.36 5.36 0 0 0 2.94-5.64 8.69 8.69 0 0 0-3.62-5.59c-2.54-1.92-5.45-2.57-8.32-3.69a79.6 79.6 0 0 0-10.09-3.48c-5.05-1.23-12.39-3.07-17.51-1.78a6.17 6.17 0 0 0-4.86 4c-1 2.23.44 4.94 2.53 6.2 4.29 2.59 11.19 2.44 16 3.36a77.84 77.84 0 0 1 12.1 3.29c3.33 1.23 7.11 4.83 10.83 3.33Zm-118.52-9.95c2.09-1.26 3.53-4 2.54-6.2a6.17 6.17 0 0 0-4.87-4c-5.11-1.29-12.45.55-17.51 1.78a80 80 0 0 0-10.08 3.48c-2.87 1.12-5.78 1.77-8.32 3.69a8.69 8.69 0 0 0-3.62 5.59 5.36 5.36 0 0 0 2.94 5.64c3.72 1.5 7.5-2.1 10.78-3.3a78.26 78.26 0 0 1 12.11-3.29c4.9-.95 11.75-.8 16.03-3.39Z"/><path class="cls-2" d="M72.82 245.37c-.83-5-1.8-10-2.63-15.08l1.4-.24c.13.86.31 1.7.52 2.53 2.53 9.73 9.87 17.74 18.61 22.71a61.58 61.58 0 0 0 16.28 6.18c7 1.65 11.91 1.83 15.89 8.4a149.64 149.64 0 0 0 13 18.18q4.41 5.28 9.27 10.15a102.84 102.84 0 0 1 10.62 27.39c1.41 6.17 2.25 12.64.83 18.81-1.21 5.23-4.3 10.23-8.83 13-13.64 3.56-28.77.48-40.92-6.89-15.94-9.67-27.92-25.23-31.51-43.31a92.38 92.38 0 0 1-1.49-23.06c.7-13.24 1.14-25.56-1.04-38.77Z"/><path class="cls-2" d="M80.76 205.53c-7.41 5.43-10.6 15.41-9.17 24.52l-1.4.24c-1.37-8.22-2.39-16.49-1.9-24.84.93-15.69 7.14-30.49 12-45.41a283.6 283.6 0 0 0 9.53-37.38c2-10.91 2.16-22.23 6-32.54 7.55-20 14.73-38 33-50.8a75.22 75.22 0 0 1 28.63-12.15c8.16-1.6 16.68-1.9 24.44-5.13 7.2-3 13.26-8.39 20.35-11.78A108.06 108.06 0 0 1 249.2 0a111.88 111.88 0 0 1 11.58.65c25.94 2.81 50.32 13.88 71.51 28.78 20.34 14.31 32.5 36.86 41.67 59.71 8 19.78 12.63 42.11 26.27 59.06 6.49 8.07 15.39 12.89 21.66 21.06A74.85 74.85 0 0 1 436.57 224c-1.21 9.23-4.18 18.27-4.25 27.59-.09 11.4 6.58 17.19 11 26.65a57.59 57.59 0 0 1 4.5 32.38c-3.43 22-20.36 40.49-43.1 42.46a40.28 40.28 0 0 1-14.72-1.35c-13.45-3.89-23.53-14.91-26.42-29.9-2.58-13.38 0-27.12 1.85-40.62a128.94 128.94 0 0 0 1.47-19.44 56.33 56.33 0 0 0-2.9-17.92c-1.51-2.68-3-5.38-4.36-8.12a189.73 189.73 0 0 1-17.14-52.32c-1.73-10-2.64-20.16-5.06-30-2.3-9.39-6.07-17.76-14.05-23.61-6.69-4.9-14.79-7.69-20.59-13.82-6.47-6.83-11.17-17.73-20.21-21.18-8.5-3.25-18.16-1.69-26.86-1.86-15.8-.29-32-2-46.08-9.21a54 54 0 0 1-12.25-8.61 49.62 49.62 0 0 1-4.94-5.31c-.87-1.07-2.32-4.37-3.63-4.84-4.12-1.48-6 9.57-7 12.07a79 79 0 0 1-9.14 16.23c-6.3 8.75-14 16.13-21.55 23.75-6.57 6.63-9 12.34-9.85 21.64-.74 8.43-4.38 16.74-8.35 24.1s-9.16 13.51-12.25 21.12a76.81 76.81 0 0 0-3.62 11.38c-.86 3.7-.74 7.2-1.45 10.81a6 6 0 0 1-3.16 4.42 3.69 3.69 0 0 1-4.79-1.61h-.06c-5.8-8.16-18.74-9.3-26.85-3.35Z"/><path class="cls-6" d="M198.31 639.47A263.08 263.08 0 0 0 317.66 663q-6.51-126.51-13-253a137.84 137.84 0 0 1-38.48 26.33c-14.21 6.42-35.58 5.32-49.54-.92A130.39 130.39 0 0 1 179.47 410q-5.39 104.53-10.76 209.07c7.58 8.93 18.72 15.42 29.6 20.4Z"/><path class="cls-7" d="M305.39 209.27a16 16 0 0 0-1.1 17.62 18.56 18.56 0 0 0 15.62 8.84 22.23 22.23 0 0 0 16.56-7.56c4.07-4.57 6.34-11 4.73-16.95-3.92-14.32-28.27-11.22-35.81-1.95Zm-133.09 2.35a16 16 0 0 1 1.11 17.62 18.59 18.59 0 0 1-15.63 8.84 22.26 22.26 0 0 1-16.55-7.56c-4.07-4.57-6.34-11.05-4.73-17 3.92-14.27 28.27-11.21 35.8-1.9Z"/><path d="M249 215.09a12.35 12.35 0 0 0 10.89-10.19 4.92 4.92 0 0 0-.89-4.12c-1.1-1.16-2.89-1.28-4.49-1.17a25.85 25.85 0 0 0-8.34 2 13.54 13.54 0 0 0-5.93 4.35 7 7 0 0 0-.86 7 6.9 6.9 0 0 0 5.7 3.51 12.32 12.32 0 0 0 6.7-1.7" style="fill:none"/><path class="cls-7" d="M239.88 203.37c-1.37 1.64-2.47 3.72-1.88 5.71a6.5 6.5 0 0 0 3.62 3.64 14.67 14.67 0 0 0 13.84-.73c3.81-2.42 7-8.07 5.67-12.39-1.59-5-9.53-3.5-13.35-1.93a20.32 20.32 0 0 0-7.9 5.7Z"/><path d="M180.54 193.66a26.87 26.87 0 0 1-17.06-6.13 1.82 1.82 0 1 1 2.33-2.8 23 23 0 0 0 32.26-2.88 1.82 1.82 0 1 1 2.79 2.35 26.86 26.86 0 0 1-18 9.36c-.78.06-1.55.1-2.32.1Zm114.78 0c-.77 0-1.55 0-2.32-.1a26.86 26.86 0 0 1-18-9.36 1.82 1.82 0 0 1 2.79-2.35 23 23 0 0 0 32.26 2.88 1.82 1.82 0 1 1 2.32 2.8 26.84 26.84 0 0 1-17.05 6.13Z" style="fill:#6a3650"/><path class="cls-4" d="M248.15 216.72a1.82 1.82 0 0 1-.17-3.63 12.69 12.69 0 0 0 7.75-21.6 27.19 27.19 0 0 0-3.21-2.61 37.38 37.38 0 0 1-3-2.35 20.1 20.1 0 0 1-5.36-21.08 1.82 1.82 0 0 1 3.44 1.21 16.36 16.36 0 0 0 4.4 17.16c.83.75 1.74 1.41 2.7 2.12a31.05 31.05 0 0 1 3.63 3 16.34 16.34 0 0 1-10 27.81Zm28.27 33.13h-.2a51 51 0 0 1-14.3-3.77 39.37 39.37 0 0 1-4.44-2.34 23.32 23.32 0 0 0-6.17-2.84c-6.89-1.72-14.93-.48-22.65 3.49l-.47.24c-5 2.56-10.11 5.2-15.89 5.2a1.82 1.82 0 1 1 0-3.64c4.9 0 9.64-2.44 14.22-4.8l.47-.24c8.51-4.37 17.45-5.72 25.2-3.79a26.5 26.5 0 0 1 7.13 3.23 35.37 35.37 0 0 0 4 2.13 47 47 0 0 0 13.27 3.51 1.82 1.82 0 0 1-.2 3.63ZM109 246.46h-.08a1.82 1.82 0 0 1-1.74-1.91c.08-1.65-2.47-3-3.57-3.53h-.06c-2.49-1.17-5.59-2.62-6.41-5.84-.56-2.19.24-4.15 1-5.89a14.12 14.12 0 0 0 .8-2.34c.55-2.68-1.23-5.76-4-7a10.8 10.8 0 0 0-9.23.69 1.82 1.82 0 1 1-1.69-3.23 14.44 14.44 0 0 1 12.41-.79c4.39 2 7 6.73 6.13 11.08a16.66 16.66 0 0 1-1 3c-.56 1.39-1 2.59-.79 3.61.4 1.55 2.53 2.55 4.42 3.43h.06c4.85 2.27 5.76 5.07 5.67 7a1.82 1.82 0 0 1-1.92 1.72Z"/><path d="M158.18 674.08a1.81 1.81 0 0 1-1.77-1.41l-47.1-203.33a1.82 1.82 0 0 1 3.55-.83L160 671.85a1.82 1.82 0 0 1-1.4 2.15 2 2 0 0 1-.42.08Zm167.88-.59a1.84 1.84 0 0 1-.41 0 1.82 1.82 0 0 1-1.37-2.19l47-202.75a1.82 1.82 0 1 1 3.55.83l-47 202.74a1.81 1.81 0 0 1-1.77 1.37Z" style="fill:#cbc9b7"/><path class="cls-6" d="M305.42 295.49a17.8 17.8 0 0 1-7.76-9.9c-1.41-4.37-.56-7.55-3.82-11.24S288.05 267 289 262a12.86 12.86 0 0 1 9.25-9.62c2-.54 4-.08 5.47-1.71 1.2-1.29 1.52-3.19 2.75-4.47A10.09 10.09 0 0 1 314 243c4.19.17 6.42 2.87 8.64 6 2 2.78 5.08 3 7.75 4.85a17.87 17.87 0 0 1 6.16 7.19 14.65 14.65 0 0 1 1.23 7.86c-.23 3 .65 5.93.73 9a15.74 15.74 0 0 1-2.15 8.83c-3.07 4.82-9 6.58-13.78 9a18.15 18.15 0 0 1-17.16-.24ZM334 245.65a3.84 3.84 0 1 1-2.66-4.73 3.84 3.84 0 0 1 2.66 4.73Zm-148.23 52.63a17.76 17.76 0 0 0 7.28-10.28c1.21-4.43.21-7.57 3.29-11.41 3-3.68 5.44-7.66 4.27-12.61a12.85 12.85 0 0 0-9.69-9.16c-2-.45-4 .1-5.56-1.45-1.25-1.24-1.66-3.12-3-4.34a10.12 10.12 0 0 0-7.65-2.82c-4.18.37-6.27 3.17-8.34 6.39-1.85 2.86-4.94 3.26-7.52 5.2a17.51 17.51 0 0 0-6.78 17.5c.54 2.91 2.25 5.17 2.82 8a23.83 23.83 0 0 0 1.21 5.1 13.07 13.07 0 0 0 3 3.91c7.16 6.9 17.33 12.02 26.67 5.97Zm-30.86-48.43a3.83 3.83 0 1 0 2.44-4.85 3.84 3.84 0 0 0-2.44 4.85Z"/><path class="cls-6" d="M161 285.76a84.33 84.33 0 0 1-20 26.49c4.57-.12 8.44-3.26 11.91-6.24 5.07-4.34 10.25-8.83 13.42-14.7Zm166.25.81a84.29 84.29 0 0 0 20 26.48c-4.57-.12-8.44-3.25-11.91-6.23-5.07-4.35-10.25-8.83-13.43-14.71Z"/></g></g></svg>