<svg xmlns="http://www.w3.org/2000/svg" viewBox="0 0 800.24 841.5"><defs><style>.cls-1{fill:#f9dad2;}.cls-2{fill:#e8aba3;}.cls-3{fill:#d67878;}.cls-4{fill:#ea8888;}.cls-5{fill:none;stroke:#aed4de;stroke-miterlimit:10;stroke-width:6px;}.cls-6{fill:#edad9b;}.cls-7{fill:#aed4de;}.cls-8{fill:#007054;}.cls-9{fill:#32324c;}.cls-10{fill:#f4c6bd;}.cls-11{fill:#fff;}.cls-12{fill:#920e08;}.cls-13{fill:#f85c66;}.cls-14{opacity:0.07;}.cls-15{opacity:0.15;}</style></defs><g id="Capa_2" data-name="Capa 2"><g id="Información"><path class="cls-1" d="M569.23,311.73c-100.54-69-160-64-160-64-47,74,123.81,110.88,154.41,117.52s163.58-18.76,163.58-18.76c-4.2-11-5.33-24-3-33.41,0,0-49-6.35-82-6.35C621.79,306.73,569.23,311.73,569.23,311.73Z"/><path class="cls-2" d="M679,318s6.72-1.83,17.43-1.16c0,0,38.56-10.06,52.25-5.52,0,0,26.08,2.84,37.23,2.59,0,0,8.24-.34,9.35,3.12s4.17,32.19,4.17,32.19,4.9,7-13.81,8.11c0,0-.36,5.21-4,8s-9.56.94-21.26-8.19c0,0-15.78-4.53-20.33-16.34,0,0,.93-3.85-12.26-2.3L680,339Z"/><path class="cls-1" d="M678.94,316.24a48.75,48.75,0,0,1,19.11-2.67s41.61-6.27,55.3-1.73c0,0,20.42,4,31.57,3.74,0,0,8.24-.34,9.35,3.12s5.39,35.16,5.39,35.16,4.9,7-13.81,8.11c0,0-.36,5.21-4,8s-9.56.94-21.26-8.19c0,0-15.78-4.53-20.33-16.34,0,0-7.37-.17-24.87,3.29l-37.71,6.73Z"/><path class="cls-2" d="M785.85,362c-4.86-.14-17-8.63-18.26-14.06-.69-2.93,0-3.74,2.46-3.72A17.72,17.72,0,0,0,786,335.45c.35-.54.4-1.42,1.56-1.52a12.3,12.3,0,0,1-3.95,6.67c-1.17,1.06-2.4,2.52-1.19,3.35,2.62,1.79,3.91,1.33,5.55,4.26.3.53,3,3.72,2.3,3.47-2.44-.83-3-.52-4.18.88-.3.35-1.62,1.27-1.53.81a11.17,11.17,0,0,0-.33-5.24c-.59-1.89-.64-4.2-2.45-3.79-2.32.54-7.91.21-8.86,2.35-.77,1.74.48,6.25,1.54,7.49,3.23,3.75,10.2,7.9,11.43,7.79"/><path class="cls-3" d="M407.34,837.2c-7.78-73.09-1.25-125.29-1.25-125.29C440.82,696,495.14,678,495.14,678c7,39.9,12.22,99,16,157Z"/><path class="cls-4" d="M296.5,837.2c-.1-47,2.3-96,9.58-138.43l113.41,13.14s-3.57,55.25-10.77,129.48Z"/><path class="cls-4" d="M310.19,664.17c-4.5,23.76-8.42,63.47,3.58,103.39,0,0,83.69,20.79,142.56-26,38.51-30.58,40.33-66.38,39.86-77.43Z"/><path class="cls-5" d="M323.23,681.73s-11,79-8.07,159.66"/><path class="cls-5" d="M337.83,686.12s-6.61,73-8.16,155.28"/><path class="cls-6" d="M329.06,427l.75,2.41C328.37,429,328.32,428.11,329.06,427Z"/><path class="cls-7" d="M503.91,668.54c-101.46,51.68-202.85,8.65-202.85,8.65,13.93-88.28,55.38-140.32,35.48-182.25-27.44-57.8-46-188.85-49.7-216.36a6.23,6.23,0,0,1,4.23-6.73c13.18-4.27,21.12-6.6,37.87-11,5.28-1.39,10.14-2.57,14.29-3.52,8.5-1.94,14-2.93,14-2.93,25.6-3.49,52.22-1.62,71.61.89l.39,0c17,2.22,28.36,4.95,28.36,4.95s7.79,58.85,24.61,88.62,3.95,47.78,0,60.76a45.27,45.27,0,0,0-1.48,9.73c-1.12,16.26-4.18,69.64-2.5,92.78C481.07,551.68,503.91,668.54,503.91,668.54Z"/><path class="cls-1" d="M409.17,311.4c-27.85.86-52.79-30.4-65.94-54.09,8.5-1.94,14-2.93,14-2.93,25.6-3.49,52.22-1.62,71.61.89l.39,0C432.62,279.14,438.49,310.48,409.17,311.4Z"/><path class="cls-8" d="M482.18,409.65a45.23,45.23,0,0,0-1.47,9.73c-49.19,25.29-100.15,10.86-100.15,10.86C446.76,429.12,482.18,409.65,482.18,409.65Z"/><path d="M760.23,361.73c1,0,1.59.12,5,3,4.81,4.07,5,2,3,4-3,1.37-92.53,74.4-101.27,77.15-.26.08-.36.41-.75.28-1.42-.49-1.4,2.18-5-3-3.17-4.54-1.66-4.81-.67-5.13C666.81,436,758.3,361.73,760.23,361.73Z"/><circle class="cls-9" cx="287.22" cy="202.77" r="31.24"/><circle class="cls-9" cx="269.58" cy="157.94" r="21.84"/><circle class="cls-9" cx="272.87" cy="179.34" r="21.84"/><circle class="cls-9" cx="277.17" cy="126.06" r="21.19"/><circle class="cls-9" cx="303.03" cy="226.86" r="21.19"/><circle class="cls-9" cx="322.04" cy="245.11" r="21.19"/><circle class="cls-9" cx="343.23" cy="245.11" r="21.19"/><circle class="cls-9" cx="287.22" cy="102.07" r="27.13"/><circle class="cls-9" cx="291.41" cy="74.94" r="32.43"/><path class="cls-9" d="M391.51,5.77c0,14.09-59,59.1-73,59.1s-41.3,8.4-41.3-5.69,21.19-33.89,41.3-45.3C330.71,6.93,391.51-8.31,391.51,5.77Z"/><circle class="cls-9" cx="475.85" cy="202.77" r="31.24"/><circle class="cls-9" cx="493.49" cy="157.94" r="21.84"/><circle class="cls-9" cx="490.21" cy="179.34" r="21.84"/><circle class="cls-9" cx="485.9" cy="126.06" r="21.19"/><circle class="cls-9" cx="460.04" cy="226.86" r="21.19"/><circle class="cls-9" cx="441.03" cy="245.11" r="21.19"/><circle class="cls-9" cx="475.85" cy="102.07" r="27.13"/><circle class="cls-9" cx="471.66" cy="74.94" r="32.43"/><path class="cls-9" d="M371.56,5.77c0,14.09,59,59.1,73,59.1s41.3,8.4,41.3-5.69-21.19-33.89-41.3-45.3C432.36,6.93,371.56-8.31,371.56,5.77Z"/><path class="cls-9" d="M438.43,245.83a41.15,41.15,0,0,0,36.18-45.05c-4.78-49.38,2.05-89.37-3.73-119.6-4.26-22.26-13.37-57.52-50.64-73.09C366.15-14.49,319.39,13.14,299.83,60.6c-7.07,17.17-10.34,28-14.75,61.45-3.19,24.16-.14,43.36-.58,59.55a61.64,61.64,0,0,0,53.37,62.8C370.43,248.77,408.26,249.19,438.43,245.83Z"/><path class="cls-10" d="M443.45,120.08s15.89-18.14,28.86-2.38c11.4,13.87,4.3,50.56-23.49,49.54Z"/><path class="cls-11" d="M471.24,165a7,7,0,1,1-7-7A7,7,0,0,1,471.24,165Z"/><path class="cls-1" d="M420.38,259.79c-1.26,16.65-38.17,25.95-59.65-2.65L358,220.52l-2-26.89,67.83,13.16-2.71,42.32Z"/><path class="cls-10" d="M420.74,254.21c-23.1,0-49.11-15.2-62.16-25.61l-2.64-35,67.83,13.16Z"/><path class="cls-1" d="M390.93,225.4c-66.27-15.16-78.31-102-78.31-102a97.62,97.62,0,0,1,.89-14.29,110,110,0,0,1,3.24-15.84c4.75-16.69,14.95-35.72,36.73-44,.68-.26,1.38-.52,2.07-.76,36.13-12.81,89-6.82,105,41A82.3,82.3,0,0,1,463,98.75c.38,1.89.72,3.85,1,5.86C471.25,154,450.49,239,390.93,225.4Z"/><path class="cls-9" d="M377.74,136.67a8.51,8.51,0,0,1-9.62-7.22,8.33,8.33,0,0,1,.66-4.66c-7-.82-6.82-5.05-6.82-5.05,1.08,1.81,9.22.76,12.59.24h0l1-.16h0a2.71,2.71,0,0,1,.4,0,8.5,8.5,0,0,1,1.73,16.9Z"/><path class="cls-1" d="M324,125.15s-23.78-13-31.4,8.61c-6.7,19,14.94,55.05,43.9,43.26Z"/><path class="cls-11" d="M326.66,178.55a7,7,0,1,1-7-7A7,7,0,0,1,326.66,178.55Z"/><path class="cls-12" d="M430.77,188.51a22.65,22.65,0,0,1-4.19,6.37c-3.7,3.92-9.35,6.78-18,6.76-7.23,0-12.9-4-17.11-8.83a48.78,48.78,0,0,1-6.55-9.87,50.82,50.82,0,0,1-2.75-6.29s34.69-1.08,51.29-3.53h0a35.37,35.37,0,0,1-.34,6.81A31.82,31.82,0,0,1,430.77,188.51Z"/><path class="cls-11" d="M433.17,179.94c-15.82,3.08-41.43,2.84-48.21,3a50.82,50.82,0,0,1-2.75-6.29s34.69-1.08,51.29-3.53h0A35.37,35.37,0,0,1,433.17,179.94Z"/><path class="cls-10" d="M325.51,161.29c-2.06-6.26-7.93-19.15-22.48-24.9,0,0,15.54,14.65,16.72,26a2.83,2.83,0,0,0,2.87,2.58H323A2.78,2.78,0,0,0,325.51,161.29Z"/><path class="cls-13" d="M426.58,194.88c-3.7,3.92-9.35,6.78-18,6.76-7.23,0-12.9-4-17.11-8.83,2.31-1.31,8.7-4.05,17.79-1,0,0,3.23-1.95,8.89-1.29C421.49,190.87,424.45,192,426.58,194.88Z"/><path class="cls-10" d="M405.09,211.73A31.63,31.63,0,0,1,394,207.32a1.93,1.93,0,0,1,2.19-3.19c.52.36,12.44,8.29,25,1.59a1.93,1.93,0,0,1,1.81,3.42A26.69,26.69,0,0,1,405.09,211.73Z"/><path class="cls-10" d="M413.71,165.23H403.65a2.07,2.07,0,1,1,0-4.13h10.06a.43.43,0,0,0,.37-.19.44.44,0,0,0,.07-.41l-8.35-28.59a2.07,2.07,0,0,1,4-1.16l8.35,28.59a4.59,4.59,0,0,1-4.41,5.89Z"/><path class="cls-9" d="M388.33,101.76h0a4,4,0,0,1-3.48,4.69c-7.73.76-23.8,3.37-31.05,12.21,0,0,1.58-14.52,29.87-20A4,4,0,0,1,388.33,101.76Z"/><path class="cls-9" d="M420.24,101.52h0a3.94,3.94,0,0,0,4.24,4c7.75-.6,24-.83,32.71,6.61,0,0-4.09-14-32.91-14.52A4,4,0,0,0,420.24,101.52Z"/><path class="cls-9" d="M433.89,135.59a8.51,8.51,0,0,0,9.62-7.23,8.35,8.35,0,0,0-.66-4.66c7-.81,6.82-5,6.82-5-1.09,1.81-9.22.76-12.59.24h0l-1-.17h0a2.83,2.83,0,0,0-.41,0,8.5,8.5,0,0,0-1.72,16.9Z"/><path class="cls-9" d="M359.26,53.11s-3.32,58.15-30.44,81.63c0,0-2.33-15.42-23.44-13.11,0,0-2-3.61-5.1-21.1s8-89.71,88.12-85.06c0,0,25.47-5.17,61.12,25.32s14.53,63.82,14.53,63.82S404.58,96.39,359.26,53.11Z"/><path class="cls-7" d="M305.38,121.63S296.93,21,371.56,21c0,0,94.7-10.46,93.15,89.11,0,0,12.31-116.37-105.55-97.11C330.3,17.67,299.83,37.81,305.38,121.63Z"/><path class="cls-14" d="M11.68,370.16S2.77,368.35,0,372.35"/><path class="cls-15" d="M6,365.89s-4.58-4.13-4.59,5.16"/><path d="M751.23,311.73s17.48,26.48,23,32c2,2,10-6,10-6s-8-17-23-25Z"/><path d="M773.2,336.42s18.42-20.69,21-20.69c2,0,3,9,3,9s-15,17-18,17C777.22,341.73,773.2,336.42,773.2,336.42Z"/><path class="cls-1" d="M470.63,375.17c-74.3-45.91-118-90-160.32-104.51-15.65-5.37-24.27,1.5-28.18,14S286,305.81,294.92,323c29.31,56.72,135.29,94.53,155.31,103.72,28.37,13,168,11,168,11-2.33-12.35-1.55-25.13,2.13-34.55,0,0-53.29-9.73-72.9-13.89S470.63,375.17,470.63,375.17Z"/><path class="cls-2" d="M576.32,398.35s6.74-.59,16.92,2.24c0,0,38.58-2.89,51,4.58,0,0,24.6,8.15,35.35,10.1,0,0,8,1.28,8.5,5.13s-1,34.55-1,34.55,3.62,8.33-14.52,5.76c0,0-1.15,5.39-5.07,7.57s-9.32-.91-19.15-12.8c0,0-14.45-7.88-17-21.15,0,0,1.49-3.85-11.42-4.84l-46-9Z"/><path class="cls-1" d="M576.52,396.47a43.37,43.37,0,0,1,18.76,1s40.93,1.68,53.38,9.16c0,0,19,8.23,29.74,10.18,0,0,8,1.28,8.49,5.13s-.27,37.91-.27,37.91,3.62,8.32-14.51,5.75c0,0-1.15,5.39-5.07,7.57s-9.33-.91-19.15-12.8c0,0-14.46-7.88-17-21.15,0,0-7-1.64-24.39-1.49l-37.26-.43Z"/><path class="cls-2" d="M672.11,465.6c-4.65-1.11-15-12.4-15.36-18.35-.22-3.21.57-3.92,2.94-3.41,6.33,1.34,12-.4,16.63-6,.41-.5.6-1.41,1.73-1.28a12.44,12.44,0,0,1-4.82,6.2c-1.3.88-2.7,2.17-1.67,3.27,2.25,2.4,3.56,2.17,4.67,5.57.21.61,2.34,4.5,1.68,4.09-2.22-1.35-2.82-1.14-4.16.09-.34.31-1.74,1-1.59.54a12.71,12.71,0,0,0,.49-5.55c-.27-2.1,0-4.53-1.76-4.45-2.31.1-7.63-1.35-8.88.7-1,1.67-.51,6.64.33,8.15,2.51,4.57,8.57,10.3,9.77,10.43"/><path d="M639.23,402.73c2.95-1.67,23.67,21.65,26,42,.32,2.78,10-5,10-5s-2-20-15-31Z"/><path class="cls-1" d="M348.23,366.73s-30-17-52-28c-11.14-5.57-34.29-66.81,4.35-69.9S348.23,366.73,348.23,366.73Z"/></g></g></svg>