<svg xmlns="http://www.w3.org/2000/svg" viewBox="0 0 608.97 807.59"><defs><style>.cls-1{fill:#ffaf82;}.cls-2{fill:#f8e8d8;}.cls-3{fill:#08a8b1;}.cls-4{fill:#050705;}.cls-5{fill:#2c2c2c;}.cls-6{fill:#02c6cb;}.cls-7{fill:#fff;}.cls-8{fill:#162d47;}.cls-9{fill:#f88968;}.cls-10{fill:#5c7aea;}.cls-11{fill:#667ef7;}.cls-12{fill:#fbc0a4;}.cls-13{fill:none;stroke:#08a8b1;stroke-miterlimit:10;}</style></defs><g id="Capa_2" data-name="Capa 2"><g id="Información"><path class="cls-1" d="M582.23,334.27c-1.17.2-2.37.37-3.61.53l-.84.1h0c-2.26.26-4.62.45-7,.57h0c-13.62.65-29.31-1.26-40.61-8.34,0,0,2.06-26.77,5.56-32.83,0,0,9.06-10.23,18.63-17,0,0,11.47-9.68,17.47-8.83s8.45,6.91,8.45,6.91l2.11-.71c3-1,8.51-2.82,10.32-3.39,9.84-3,16.05,5.42,1.62,13.79,1.35-.29,10.79-2.54,13.34,5.2,1.81,5.45-10.51,10.63-10.51,10.63s12.29,3,11.86,8.34c-.48,5.79-13,8.31-13.47,8.41.4.2,7,3.45,4.22,9.82C598.6,330,591.68,332.72,582.23,334.27Z"/><path class="cls-2" d="M404.83,319.72a31.36,31.36,0,0,1-7.72,7.86,27.6,27.6,0,0,1-22.7,4.45,30.23,30.23,0,0,1-19-14.58,36.2,36.2,0,0,1,1.31-38.06,31.23,31.23,0,0,1,7.73-7.86,27.59,27.59,0,0,1,22.7-4.45,30.22,30.22,0,0,1,18.95,14.57A36.19,36.19,0,0,1,404.83,319.72Z"/><path class="cls-3" d="M536.05,338.43c-23.14,2.29-154.42-5.47-159.27-5.94l-6.33-1.76L381.15,266l3.93.68c.74.13,18.43,3.23,48.16,13.25,7.53,2.53,105.38,7.59,105.38,7.59l1,50.72Z"/><path class="cls-3" d="M253.54,293.87a39.67,39.67,0,0,0,5.92-11.72,41.79,41.79,0,0,0-1.57-29.38c-4.06-9.26-10.85-13.63-19.64-17-13.77-5.32-29.5-3.14-38.71,9.27a39.88,39.88,0,0,0-5.93,11.71c-6.29,20,3.36,42,21.51,49C228.89,311.05,244.33,306.28,253.54,293.87Z"/><path class="cls-3" d="M395.54,270.61l-4.87-2.44c-4.36-1.68-107.37-31.81-152.59-34.11l-18.73-2.24-12.48,69.29,21.16,14c51.23,7,132.85,12.7,143.14,15.9l3.56,1.11Z"/><path class="cls-3" d="M404.14,320.7a36,36,0,0,0,4.67-33.35c-6.15-17.06-23.71-25.46-39.15-18.73a30.36,30.36,0,0,0-12.18,9.79,36,36,0,0,0-4.67,33.35,31.92,31.92,0,0,0,16.09,18.3,27.35,27.35,0,0,0,23.06.43A30.43,30.43,0,0,0,404.14,320.7Z"/><path class="cls-4" d="M195,807.1c-15-77-9.88-158-9.88-158,33.65-15.4,87.6-29.45,87.6-29.45C301,717.1,284.9,807.59,284.9,807.59Z"/><path class="cls-5" d="M70.65,807.59s-25.1-45-3.15-173.15l93.86,14.66S187,621.59,170,801.1Z"/><path class="cls-5" d="M73.73,603s-15,52.88-14.8,100c0,0,73.19,32,166.29-3.37,38.08-14.47,57.41-56.9,43.77-95.28-.16-.45-.33-.91-.49-1.37C268.5,603,149.44,598.12,73.73,603Z"/><path class="cls-6" d="M130,165.43s-54.36.47-79.07,23-.88,67.94,26,73.67,110.82-4.52,119.49-18.94S199.38,166.28,130,165.43Z"/><path class="cls-6" d="M46.46,638.12c81.74,50.64,161.65,45.56,242.2-3.68L245.12,234.06l-47.78-6.4-3.83-.51-10.87-1.45-66.79-8.95-11.25,3.84-14.18,4.86L87,226.61,23.88,248.22l47,275.13Z"/><path class="cls-3" d="M134.91,262.52c-47.84,0-59.09-42.12-59.2-42.54a1.76,1.76,0,1,1,3.42-.87c.42,1.63,10.75,39.88,55.76,39.88a3.86,3.86,0,0,1,.76,0,1.76,1.76,0,1,1,0,3.52Z"/><path class="cls-3" d="M179.82,255.75a1.77,1.77,0,0,1,0-3.53c.63,0,14.53-.63,18.06-19.44a1.77,1.77,0,0,1,3.47.65c-4.08,21.75-21.29,22.32-21.46,22.32Z"/><path class="cls-3" d="M126,522.71s-.28,37.5-8.78,71.95c0,0,88.89,14.42,139.18-12.93a236.28,236.28,0,0,0-1-70Z"/><path class="cls-7" d="M145.24,431.58h-.14a1.72,1.72,0,0,1-1.57-1.86c3.79-44-13.09-154.94-13.26-156a1.72,1.72,0,1,1,3.41-.52c.17,1.12,17.11,112.47,13.28,156.86A1.73,1.73,0,0,1,145.24,431.58Z"/><path class="cls-7" d="M203.39,422.75h-.15a1.72,1.72,0,0,1-1.56-1.87c3.79-44-13.65-155.8-13.82-156.92a1.72,1.72,0,1,1,3.4-.54c.18,1.13,17.68,113.36,13.85,157.76A1.72,1.72,0,0,1,203.39,422.75Z"/><path class="cls-8" d="M237.71,40.45s16.39,10.8,10.52,40.17S231,113.11,231,113.11,213.8,48.1,237.71,40.45Z"/><path class="cls-1" d="M173.8,180l-3.2,37-1.47,17c-21.86,15.16-56-7.67-56-7.67l-1.26-58.22c10.1-6.37,34.63,3.06,49.82,7.78C168.89,178.16,173.8,180,173.8,180Z"/><path class="cls-9" d="M173.8,180l-3.2,37c-24.93-6.57-44.9-42-44.9-42l36,.86C168.89,178.16,173.8,180,173.8,180Z"/><path class="cls-1" d="M244.78,84c0,1.1,0,2.22,0,3.35,0,.19,0,.39,0,.58,0,1.09,0,2.18-.07,3.29-.35,11.5-1.51,24.2-3.05,36.91-.33,2.67-.67,5.33-1,8-.32,2.29-.62,4.58-1,6.84-.69,4.7-1.4,9.35-2.13,13.85-.5,3.13-1,6.2-1.52,9.17a47.2,47.2,0,0,1-1.49,6.07,44.11,44.11,0,0,1-50.67,29.68c-12.9-2.6-27.15-5.8-40.45-9.51-.67-.17-1.3-.34-2-.53a219.77,219.77,0,0,1-28.75-10c-1.06-1.51-2.08-3.05-3-4.6-8.49-13.58-13.56-28.81-16.56-44.58-1.2-6.3-2.08-12.68-2.71-19.08A11.87,11.87,0,0,0,90.1,112c0-5.89.07-11.77.18-17.43A74,74,0,0,1,168,22.05c33,1.71,64.43,14.5,72.37,31.5C243.52,60.3,244.76,71.15,244.78,84Z"/><path class="cls-8" d="M109.62,177.13c-8.49-13.57-13.55-28.81-16.56-44.58,4.69.06,10.81,1.48,18.77,5.17C111.83,137.72,113.63,161,109.62,177.13Z"/><path class="cls-8" d="M185.13,108.51c0,4.92-2.19,8.91-4.9,8.91s-4.89-4-4.89-8.91,2.19-8.9,4.89-8.9S185.13,103.59,185.13,108.51Z"/><path class="cls-8" d="M235.7,108.51c0,4.92-2.19,8.91-4.89,8.91s-4.89-4-4.89-8.91,2.19-8.9,4.89-8.9S235.7,103.59,235.7,108.51Z"/><path class="cls-8" d="M90.21,98.6s15.69-10.21,28.9,8h10.28s-.59-21.11,4.4-32.56,24.67-11.16,27.6-24.66c0,0,48.16,23.18,75.86,8.4,62.63-33.41-69-76.26-117.16-49.3C84.29,28.53,82.74,62.66,90.21,98.6Z"/><path class="cls-8" d="M160.44,93.73s4.71-9.68,13.75-12.1c8.37-2.24,14.35-.08,17.35,1.55a3,3,0,0,1,1.35,3.69h0a3,3,0,0,1-4.1,1.68C183.72,86.19,172.57,83.16,160.44,93.73Z"/><path class="cls-8" d="M244.78,84c0,1.1,0,2.22,0,3.35,0,.19,0,.39,0,.58a24.12,24.12,0,0,0-20.92-.21,3,3,0,0,1-2.74-5.36c3-1.63,9-3.8,17.34-1.56A18.35,18.35,0,0,1,244.78,84Z"/><path class="cls-1" d="M119.11,106.62s-15.73-19.06-28.9-8C75.7,110.77,86.81,152,116.3,151.1Z"/><path class="cls-9" d="M117,142.15a2.59,2.59,0,0,1-2.58-2.3c-2.4-20.87-14.78-24.08-15.31-24.21a2.59,2.59,0,0,1,1.15-5.06c.68.15,16.47,4,19.32,28.68a2.59,2.59,0,0,1-2.28,2.87A1.51,1.51,0,0,1,117,142.15Z"/><path class="cls-9" d="M100.46,128.93a2.64,2.64,0,0,1-1.72-.65,2.61,2.61,0,0,1-.22-3.67,14.73,14.73,0,0,1,13.87-4,2.59,2.59,0,1,1-1.12,5.06,9.45,9.45,0,0,0-8.87,2.39A2.56,2.56,0,0,1,100.46,128.93Z"/><path class="cls-9" d="M197.67,183.51a25,25,0,0,1-16.65-6,2.6,2.6,0,0,1,3.6-3.74c.37.35,8.29,7.6,21.5,3.08a2.59,2.59,0,0,1,1.67,4.91A31.16,31.16,0,0,1,197.67,183.51Z"/><path class="cls-9" d="M210.14,137.14a2.59,2.59,0,0,1-1.58-4.65l6.92-5.28-6-1.56a2.61,2.61,0,0,1-1.91-2.1L204.93,107a2.59,2.59,0,0,1,5.12-.82l2.38,14.84,9.52,2.47a2.6,2.6,0,0,1,.92,4.58l-11.16,8.51A2.56,2.56,0,0,1,210.14,137.14Z"/><path class="cls-9" d="M206.06,171.3c-9.77,0-22.11-2.6-32.58-12.92a2.58,2.58,0,1,1,3.62-3.67c18.36,18.1,44.14,9.16,44.4,9.07a2.58,2.58,0,0,1,1.74,4.86A55.53,55.53,0,0,1,206.06,171.3Z"/><path class="cls-6" d="M43.6,299.34a28.49,28.49,0,1,1,13.28-29.81A28.33,28.33,0,0,1,43.6,299.34Z"/><path class="cls-6" d="M25.61,468,14.09,400.46C13.38,396.75-3.17,309.2.54,272.39l.32-3.13,56.54,4.26-.07,3.06c-1,42.17,4.06,106.1,5.17,114.76l10.71,66.38Z"/><path class="cls-6" d="M58.44,473.06a24.64,24.64,0,1,1,11.08-27.51,24.69,24.69,0,0,1-11.08,27.51Z"/><path class="cls-3" d="M57.49,307.88c2.45,20.15,3.9,42.08,6.17,62.23.29,2,.59,4.83,1,6.86.22,1.53.63,3,1,4.52l-.84-2.17a104,104,0,0,1-3.42-15.92,390.58,390.58,0,0,1-3.87-55.52Z"/><path class="cls-9" d="M571.53,299.56S571.23,313.47,553,319c0,0,17.69,3.63,21.94-19.58Z"/><path class="cls-10" d="M600.51,277.51S579.37,265.37,570,293.79a93.43,93.43,0,0,0-2.72,43,15.57,15.57,0,0,0,12.11-2.52l-2.94.82S575.21,282.15,600.51,277.51Z"/><path class="cls-11" d="M577.52,310l-413.14-2.16L146.9,261.4,576,294s12.14-1.63,12.14,8.45C588.14,310,577.52,310,577.52,310Z"/><path class="cls-1" d="M602,273.56c2.13,4-3.23,11.63-12,17.07s-15.48,7.2-19.71,2.64c-3-3.25,3.23-11.63,12-17.07S599.87,269.58,602,273.56Z"/><ellipse class="cls-1" cx="587.89" cy="298.31" rx="14.79" ry="8.23" transform="translate(-71.27 287.94) rotate(-26)"/><path class="cls-9" d="M586.24,322.45c-1.11.43-2.25.85-3.44,1.26a9.63,9.63,0,0,1-6.18-5.4c-2.63-6.5,3.81-9.64,3.81-9.64s-5.75,1-6.74-3.73a8.18,8.18,0,0,1,2.43-7.61S570.91,297,570,293s7.16-11.39,7.16-11.39-4.4,5.76-4.64,9.53,4.4,6.06,10.3,2.76c-.65.35-6.64,3.8-6.45,9.07.21,5.42,10.54,4,11.1,3.93-.55.26-10.52,4.75-9.2,9.72C579.18,320,583,321.74,586.24,322.45Z"/><path class="cls-1" d="M568.41,269.05c5.61-1.05,10.15,2.31,11.55,11s-.27,14.87-7.64,17.62c-5.27,2-11.3-5.14-12.7-13.83S562.79,270.09,568.41,269.05Z"/><path class="cls-9" d="M579.62,278.33s1.83,11.08-3.83,16.63-14.58,2.5-16.28-15a18.8,18.8,0,0,0,2.85,14c4.63,7.25,12.9,5.75,15.35,1.94S581.31,287.81,579.62,278.33Z"/><path class="cls-12" d="M142.15,320.4a13.2,13.2,0,1,1,2.18,18.54A13.21,13.21,0,0,1,142.15,320.4Z"/><path class="cls-1" d="M189.32,286.21c2.13,2.78,5.52,4.79,5.33,9-.2,4.68-4.8,9.25-7.4,12.77a319.65,319.65,0,0,1-25.88,30.35l-19.22-18c-.48-.45,1.57-12.57,1.59-13.93.09-6.16-2.82-12.38-3.87-18.49-1.12-6.45-3.18-12.9-3.07-19.5.14-8.22,3.31-7.65,10.1-7.08,11.18.94,9.13-.94,14.5-9.1,1.44-2.2,4.42-5.06,7-4.85,2.2.18,4.87,1.82,5.35,4s-.65,4.94-.67,7.15c0,5.87,3.75.9,7.83,5.12,2.22,2.3,4.55,4.8,4.76,8a76.39,76.39,0,0,0,2.13,11.7A7.93,7.93,0,0,0,189.32,286.21Z"/><path class="cls-6" d="M79.2,435.17a31.73,31.73,0,1,1-29.75-20.9A31.66,31.66,0,0,1,79.2,435.17Z"/><path class="cls-6" d="M157.93,355.12C146.6,376.81,76.61,462.59,73.47,466.64l-5,4.7-45.8-43,2.78-3.13c.52-.59,11.17-22.52,36.12-43.67,6.31-5.36,80.59-61.09,80.59-61.09l27.61,8.89Z"/><path class="cls-13" d="M142.15,320.4S28.81,401.5,19.86,434.31"/></g></g></svg>