<svg xmlns="http://www.w3.org/2000/svg" viewBox="0 0 448.3 831.76"><defs><style>.cls-1{fill:#f8e8d8;}.cls-2{fill:#d1140b;}.cls-3{fill:#ffaf82;}.cls-4{fill:#2c2c2c;}.cls-5{fill:#d37157;}.cls-6{fill:#b55441;}.cls-7{fill:#e34333;}.cls-8{fill:#f88968;}.cls-9{fill:#5c7aea;}.cls-10{fill:#667ef7;}.cls-11{fill:#fbc0a4;}</style></defs><g id="Capa_2" data-name="Capa 2"><g id="Información"><path class="cls-1" d="M66.51,250.05a36.64,36.64,0,0,0-6.33,11.18,35.5,35.5,0,0,0,1.73,27.85A36.4,36.4,0,0,0,83.29,307.4a38.19,38.19,0,0,0,41.1-11.78,36.64,36.64,0,0,0,6.33-11.18A35.5,35.5,0,0,0,129,256.59a36.41,36.41,0,0,0-21.38-18.33A38.19,38.19,0,0,0,66.51,250.05Z"/><path class="cls-2" d="M8.1,101c4.21,27.78,50.71,179.81,52.63,185.38l3.74,7,67.48-30L130.07,259c-.36-.84-8.86-20.76-28.39-53C96.74,197.83,62.87,84.32,62.87,84.32L7.3,96.73Z"/><path class="cls-2" d="M138.52,420.71a43.17,43.17,0,0,1,11-10.11,43.84,43.84,0,0,1,32.48-6.06c11.26,2.28,18,9.07,24.24,18.48,9.78,14.73,12,33.78,1.11,47.93a43.17,43.17,0,0,1-11.05,10.11c-20,12.77-46.73,7.36-59.63-12.07A41.57,41.57,0,0,1,138.52,420.71Z"/><path class="cls-2" d="M122.72,247.74l4.07,5.06c3.09,4.68,65.77,117.5,81.39,170L216,444.15l-71.89,33.29-21.4-21.08C100.25,398.12,70.42,303.82,64,292.61l-2.25-3.89Z"/><path class="cls-2" d="M65.65,251.12a38,38,0,0,1,35-14.44c20.37,2.62,34.61,21,31.75,40.92a36.43,36.43,0,0,1-7.14,16.93,38.08,38.08,0,0,1-35,14.45,36.91,36.91,0,0,1-24.61-14,35.42,35.42,0,0,1-7.14-27A36.28,36.28,0,0,1,65.65,251.12Z"/><path class="cls-3" d="M2.59,34.11c-.15,1.41-.29,2.86-.4,4.37,0,.33,0,.66-.07,1v0c-.18,2.73-.28,5.58-.29,8.5h0C1.78,64.45,4.65,83.19,13,96.35c0,0,29.39-4.18,35.9-8.78,0,0,10.83-11.55,17.82-23.48,0,0,10.11-14.42,8.88-21.58s-8-9.73-8-9.73l.67-2.58c1-3.73,2.71-10.41,3.24-12.62,2.87-12-6.75-19-15.27-1.08C56.47,14.86,58.5,3.36,49.84.78,43.76-1,38.65,14.1,38.65,14.1S34.7-.5,28.88.36c-6.36,1-8.54,16.13-8.62,16.73-.24-.46-4.14-8.19-11-4.45C6.5,14.14,3.85,22.64,2.59,34.11Z"/><path class="cls-2" d="M322.8,360c3-24,68.21,10.43,81.84,30.4,19.16,28.08,28.74,56.75,34.67,136.66,11.37,153.37,4.66,126.45-68.37,83.44C370.94,610.54,312.19,446.05,322.8,360Z"/><path class="cls-4" d="M383.07,817.11c.17-52.23-12.89-93.46-12.89-93.46-84.77-5.41-218.08,0-218.08,0-.18.51-.37,1-.55,1.52,0,0-13.7,56.29-5.68,94.36,38.87,23.83,78,5.42,115.45,5.79C303.28,825.73,343.29,842.08,383.07,817.11Z"/><path class="cls-4" d="M314.8,294.79c35.41,8.91,45.88-28.63,45.88-28.63,29.82-8.68,23.16-39.86,23.16-39.86s10.88-3.49,14-24S385,174.49,385,174.49s19.45-17,10.83-38.49-32-14.36-32-14.36,8.31-28.31-11.09-40c-23.6-14.23-39.52,3-39.52,3S313.06,63.37,292,57.13c-26.14-7.74-43,17.62-43,17.62s-12.51-14.88-28.7-13.51c-25.19,2.14-22.59,24.56-22.59,24.56-7.8-7.54-30.64-1.71-34.61,17.44C160,118,165.6,124.9,165.6,124.9s-23.45,1.35-20.82,28c1.19,12.12,10.81,15.65,16.42,20,0,0-16,.66-15.64,22.3S159,220.05,159,220.05s-7.73,10.29-.14,31.14,21.66,19.36,21.66,19.36,6.71,23.86,30.31,28.17C256.72,307.11,314.8,294.79,314.8,294.79Z"/><path class="cls-5" d="M231.37,307.18,232.48,328l1.39,26.14s5.19,9.84,28.61,9.84,28.23-6.72,28.23-6.72l1-11.6,3.15-38.52Z"/><path class="cls-6" d="M231.37,307.18,232.48,328c9.77,7.32,32.9,21.7,59.18,17.66l3.15-38.52Z"/><path class="cls-4" d="M180.8,198.48c.29,3.38.62,6.84,1,10.34,6.09,53.22,25.36,118.86,83.53,118.86,55.8,0,76.9-59.64,84.7-110.85.83-5.71,1.54-11.3,2.13-16.72,5.29-49.76-33.32-93.54-83.33-94.13h-4.46A85.18,85.18,0,0,0,180.8,198.48Z"/><path class="cls-7" d="M377.71,745.17c-72.41,44.61-150.86,55-231.4-.07l4.41-134.05,1.17-122.91c0-3.35,26.24-51.53,13.84-126.6l65.58-19.75a124.61,124.61,0,0,1,31.78-4.2c10.68.05,52.12,9.26,62.54,12.06,0,0,38.6,4.07,57,21.6,1.32,1.25-25.93,90.89-2.15,126.7l-5,113.1Z"/><path class="cls-8" d="M47.57,46.88S33.13,50.81,32.38,72.77c0,0-8.7-19,14.35-29.72Z"/><path class="cls-9" d="M62.62,8.6S80.82,29.33,54.56,47c0,0-26.49,12.85-52.15,14.35,0,0-5-7.76-.57-14.3l1.79,3.36S64.92,38.22,62.62,8.6Z"/><path class="cls-10" d="M35,42.86,202.43,495l33.42-50.14L52.17,40.42S50.51,26.35,40,29C32,30.91,35,42.86,35,42.86Z"/><path class="cls-3" d="M58.18.15C53.43-1.22,46.94,6.78,43.68,18S40.47,37.29,46.4,40.87C50.64,43.43,57.65,34.24,60.9,23S62.93,1.53,58.18.15Z"/><ellipse class="cls-3" cx="36.52" cy="23.45" rx="16.91" ry="8.96" transform="translate(7.54 55.77) rotate(-80.82)"/><path class="cls-8" d="M12,32.57c-.15,1.36-.27,2.75-.37,4.2,1.52,2.48,3.87,5,7.35,5.56,7.52,1.28,9-6.77,9-6.77s.59,6.71,5.77,6.62a8.5,8.5,0,0,0,7.27-4.7s1.8,5.77,6.25,5.74,9.91-11,9.91-11-4.79,6.43-8.67,7.68S41,36.52,42.83,29c-.19.82-2.12,8.45-7.68,9.59C29.43,39.79,28,27.81,28,27.16c-.11.68-2,13.05-7.59,12.85C16.55,39.87,13.68,36,12,32.57Z"/><path class="cls-3" d="M78.72,45.14C78.25,38.56,73.48,34.32,64,35S48.57,39.12,47.75,48.12c-.59,6.43,8.51,11.38,18,10.71S79.18,51.73,78.72,45.14Z"/><path class="cls-8" d="M65.91,34.93s-12.07.79-16.3,8.58S51.05,60.56,69.75,58c0,0-6.52,3.74-15.37.4s-9.59-13-6.29-16.77S55.55,35.46,65.91,34.93Z"/><path class="cls-11" d="M263.88,506.51A15.88,15.88,0,1,0,267,528.76,15.88,15.88,0,0,0,263.88,506.51Z"/><path class="cls-3" d="M198.58,481.14c-1.64,3.88-5,7.25-3.46,12.13,1.67,5.38,8.41,9.29,12.51,12.6A384.7,384.7,0,0,0,247,533.27l16.89-26.76c.42-.66-5.66-14.13-6.1-15.71-2-7.14-.5-15.26-1.14-22.69-.67-7.85-.23-16-2.38-23.63-2.66-9.52-6.18-7.88-13.9-5.15-12.72,4.51-10.91,1.7-19.65-6.16-2.35-2.12-6.69-4.54-9.68-3.49-2.51.87-5.11,3.6-5,6.25s2.27,5.55,3,8.11c1.85,6.81-4.08,2.19-7.54,8.35-1.88,3.35-3.83,7-3.11,10.74a93,93,0,0,1,1.1,14.25A9.6,9.6,0,0,1,198.58,481.14Z"/><path class="cls-2" d="M372.11,620.84a38.18,38.18,0,1,0,28.24-33.39A38,38,0,0,0,372.11,620.84Z"/><path class="cls-2" d="M256.11,551.72c19.79,21.78,127.38,100.22,132.27,104l7.26,3.94,40.15-64-4.19-2.79c-.79-.53-19.86-22.79-55.34-39.79-9-4.31-112.38-46.49-112.38-46.49l-29.41,18.78Z"/></g></g></svg>