<svg xmlns="http://www.w3.org/2000/svg" viewBox="0 0 395.97 705.84"><defs><style>.cls-1,.cls-9{fill:#32324c;}.cls-1{opacity:0.1;}.cls-2{fill:#2c2c2c;}.cls-3{fill:#ffaf82;}.cls-4{fill:#dd342c;}.cls-5{fill:#fff;}.cls-6{fill:#2d070a;}.cls-10,.cls-7{fill:#f88968;}.cls-8{fill:#ffa378;}.cls-10{opacity:0.5;}.cls-11{fill:red;}.cls-12{fill:#fbc0a4;}.cls-13{fill:#bc2327;}</style></defs><g id="Capa_2" data-name="Capa 2"><g id="Información"><ellipse class="cls-1" cx="131.47" cy="685.9" rx="131.47" ry="19.95"/><path class="cls-2" d="M72.78,386.61c-.08-26.58,6.5-44.41,6.5-44.41,42.69-2.76,109.84,0,109.84,0l.27.77s6.9,24.27,2.87,43.64C150.72,412.34,110.69,410.64,72.78,386.61Z"/><path class="cls-3" d="M67,504c-.19,7.29-.24,13.38-.09,17.68l-6.34,127,23.33,2.5c4.07-30.91,14.24-78.6,15-122.11l5.8-25.12Z"/><path class="cls-4" d="M85.21,648.12c-.69-9.58-9.24-14.8-18-12.41-8.54,2.34-9.57,16.59-9.57,16.59A44.78,44.78,0,0,0,45,678c-.06.36-.12.72-.16,1.11a5.76,5.76,0,0,0,4.79,6.31,128.06,128.06,0,0,0,44.05.12,5.73,5.73,0,0,0,4.67-6.36c0-.11,0-.23,0-.34-1-7.26-2.92-20.57-11.81-25.51Z"/><path class="cls-5" d="M81.83,659.15l.77-1.75c-.53-.23-13.1-5.62-22.27.36l1.05,1.6C69.68,653.94,81.71,659.1,81.83,659.15Z"/><path class="cls-5" d="M80.26,658.91A2.14,2.14,0,1,0,82,656.44,2.15,2.15,0,0,0,80.26,658.91Z"/><path class="cls-5" d="M58.65,658.39a2.15,2.15,0,1,0,1.77-2.47A2.16,2.16,0,0,0,58.65,658.39Z"/><path class="cls-5" d="M81.61,653.76l.77-1.75c-.53-.23-13.1-5.62-22.26.36l1,1.6C69.47,648.55,81.49,653.71,81.61,653.76Z"/><path class="cls-5" d="M80,653.51A2.15,2.15,0,1,0,81.8,651,2.15,2.15,0,0,0,80,653.51Z"/><path class="cls-5" d="M58.43,653a2.15,2.15,0,1,0,1.77-2.48A2.17,2.17,0,0,0,58.43,653Z"/><path class="cls-5" d="M81.83,664.53l.77-1.75c-.53-.23-13.1-5.62-22.27.36l1.05,1.6C69.68,659.32,81.71,664.48,81.83,664.53Z"/><path class="cls-5" d="M80.26,664.29A2.14,2.14,0,1,0,82,661.81,2.14,2.14,0,0,0,80.26,664.29Z"/><path class="cls-5" d="M58.65,663.77a2.15,2.15,0,1,0,1.77-2.47A2.16,2.16,0,0,0,58.65,663.77Z"/><path class="cls-5" d="M66,641.89s6.46-2.24,12,.48a6.2,6.2,0,0,1,0,4.4s-7.43-1.2-12.13-.28C65.84,646.49,65,643.84,66,641.89Z"/><path class="cls-6" d="M49.6,685.41a128.06,128.06,0,0,0,44.05.12,5.73,5.73,0,0,0,4.67-6.36c0-.11,0-.23,0-.34A96,96,0,0,1,45,678c-.06.36-.12.72-.16,1.11A5.76,5.76,0,0,0,49.6,685.41Z"/><path class="cls-2" d="M76,354.66c-4.45,27-10.26,97-15.73,156.27,0,0,15.88,16.73,49.38,7.75l11.68-121.36S125,364.16,76,354.66Z"/><path class="cls-4" d="M75.51,353.15c36.85,22.7,76.77,28,117.76,0L191,284.89,191.58,159,150,147.87a62.16,62.16,0,0,0-32.34,0L76.1,159l.56,125.86Z"/><path class="cls-3" d="M150.31,129.79l-.57,10.78L149,154.09s-2.68,5.09-14.8,5.09-14.59-3.48-14.59-3.48l-.49-6-1.63-19.92Z"/><path class="cls-7" d="M150.31,129.79l-.57,10.78c-5.05,3.79-17,11.23-30.6,9.14l-1.63-19.92Z"/><path class="cls-8" d="M96.82,80.73s-9.28-9.07-16.69-3.15c-8.76,7,.4,32.19,15.93,29.52Z"/><path class="cls-7" d="M91.4,100.83a1.52,1.52,0,0,1-1.47-1.41c-1-12.39-8.26-14.54-8.57-14.63a1.54,1.54,0,0,1,.78-3c.4.1,9.66,2.67,10.85,17.36a1.55,1.55,0,0,1-1.41,1.65A.54.54,0,0,1,91.4,100.83Z"/><path class="cls-7" d="M82.72,94.52a1.56,1.56,0,0,1-1-.43,1.53,1.53,0,0,1-.06-2.17,8.72,8.72,0,0,1,8.28-2.09,1.54,1.54,0,0,1-.76,3A5.59,5.59,0,0,0,83.89,94,1.56,1.56,0,0,1,82.72,94.52Z"/><path class="cls-8" d="M167.73,80.73s9.28-9.07,16.69-3.15c8.76,7-.4,32.19-15.93,29.52Z"/><path class="cls-7" d="M173.15,100.83a1.52,1.52,0,0,0,1.47-1.41c1-12.39,8.26-14.54,8.57-14.63a1.54,1.54,0,0,0-.78-3c-.4.1-9.67,2.67-10.85,17.36a1.53,1.53,0,0,0,1.41,1.65A.54.54,0,0,0,173.15,100.83Z"/><path class="cls-7" d="M181.83,94.52a1.56,1.56,0,0,0,1-.43,1.53,1.53,0,0,0,.06-2.17,8.72,8.72,0,0,0-8.28-2.09,1.54,1.54,0,0,0,.76,3A5.59,5.59,0,0,1,180.66,94,1.55,1.55,0,0,0,181.83,94.52Z"/><path class="cls-3" d="M132.74,140.38c-32.06,0-42-38.09-44.91-66a44,44,0,0,1,43.09-48.66h2.32a44,44,0,0,1,43.21,47.82C174,101.82,164.79,140.38,132.74,140.38Z"/><path class="cls-9" d="M122.15,62.81v5.55s-10.14-1.86-17,2.43l-.8-4.62S110.12,60.37,122.15,62.81Z"/><path class="cls-9" d="M143.12,62.81v5.55s10.15-1.86,17,2.43l.8-4.62S155.16,60.37,143.12,62.81Z"/><path class="cls-9" d="M168.82,40.31S182,55.05,175.55,81.93h0a5.07,5.07,0,0,1-4.91-5.2c.18-6.49-.45-12.07-1.22-14.4-2.26-6.82-12.09-10.92-11.48-18.3,0,0-36.7,11.48-56.56.21,0,0-.2,10-5.73,15.84-2.07,2.2.3,10.07-.5,17.38A7.75,7.75,0,0,1,89.1,84.1h0a69.8,69.8,0,0,1-1.62-24.45c1.34-10.95,3.71-16.07,3.71-16.07S99.3,22,131.29,22C161,22,168.82,40.31,168.82,40.31Z"/><path class="cls-9" d="M88,56.26s-4.41-16.82-1.78-25S94.92,22,94.92,22,113.31,5.58,142.81,1.12,166.54,6.63,162.6,12.4c0,0,11-8.92,14-1.83s-5.06,13.65-5.06,13.65,8-7.42,10.81-2.27-7.93,18.28-14.64,20.64C167.73,42.59,109.05,22,88,56.26Z"/><path class="cls-9" d="M119,78.93c0,3.21-1.43,5.8-3.19,5.8s-3.19-2.59-3.19-5.8,1.43-5.8,3.19-5.8S119,75.73,119,78.93Z"/><path class="cls-9" d="M147.66,78.93c0,3.21,1.42,5.8,3.18,5.8s3.19-2.59,3.19-5.8-1.42-5.8-3.19-5.8S147.66,75.73,147.66,78.93Z"/><path class="cls-7" d="M132.81,100.35a1.71,1.71,0,0,1-1.27-.79,1.69,1.69,0,0,1,.55-2.33l4.82-3-3.78-1.39A1.69,1.69,0,0,1,132,91.38l-.65-10.88a1.69,1.69,0,1,1,3.38-.2l.58,9.77,6,2.21a1.69,1.69,0,0,1,1.1,1.42,1.7,1.7,0,0,1-.79,1.61l-7.78,4.8A1.68,1.68,0,0,1,132.81,100.35Z"/><path class="cls-7" d="M140,114.46a29.4,29.4,0,0,1-22.47-4.08,1.68,1.68,0,0,1,1.84-2.81c14,9.22,29.37.21,29.52.11a1.68,1.68,0,0,1,1.74,2.88A35.76,35.76,0,0,1,140,114.46Z"/><path class="cls-7" d="M134.23,123.37a17.09,17.09,0,0,1-9.31-2.46,1.17,1.17,0,0,1,1.2-2c7.87,4.68,15.51.22,15.83,0a1.19,1.19,0,0,1,1.62.4,1.18,1.18,0,0,1-.4,1.62A19.71,19.71,0,0,1,134.23,123.37Z"/><path class="cls-10" d="M117.51,97.14c0,4.53-5.06,8.2-11.29,8.2s-11.3-3.67-11.3-8.2,5.06-8.2,11.3-8.2S117.51,92.61,117.51,97.14Z"/><path class="cls-10" d="M171.56,97.14c0,4.53-5.06,8.2-11.3,8.2S149,101.67,149,97.14s5.06-8.2,11.29-8.2S171.56,92.61,171.56,97.14Z"/><path class="cls-11" d="M29.81,354.66S142.78,631.4,181.75,684l37.44,1.41,169.6-446.66-2-9.21-186,455.65-3.92-3L31,348.82Z"/><path class="cls-12" d="M359.91,220.11a6.72,6.72,0,1,0-5.67-7.62A6.72,6.72,0,0,0,359.91,220.11Z"/><path class="cls-3" d="M389.29,216.29c-.18-1.77.37-3.7-1.17-5.2-1.71-1.66-5-1.75-7.2-2.14a164.52,164.52,0,0,0-20.17-2.2l-.84,13.36c0,.33,5,4.1,5.45,4.6,2.18,2.24,3.28,5.56,5,8.19,1.84,2.78,3.33,5.88,5.67,8.29,2.92,3,3.9,1.67,6.21-.91,3.81-4.25,3.71-2.84,8.54-1.69,1.3.31,3.41.32,4.3-.67a3.13,3.13,0,0,0,.6-3.34c-.57-1-2-1.6-2.75-2.41-2.06-2.15,1.08-1.64,1.11-4.63,0-1.62,0-3.36-1-4.61a39.33,39.33,0,0,1-3.3-5.07A4.22,4.22,0,0,1,389.29,216.29Z"/><path class="cls-13" d="M201.25,187.33s42.35,1.76,66,3.59c0,0,21.73,11.88,94.32,32.56,0,0,9.52-7,5.86-16.82,0,0-66.24-34.31-91.09-42.65,0,0-77.48-6.84-92-5.07A43.07,43.07,0,0,0,201.25,187.33Z"/><path class="cls-12" d="M31.26,343a6.72,6.72,0,1,1-5.72-7.59A6.72,6.72,0,0,1,31.26,343Z"/><path class="cls-3" d="M19.32,370.16c-1.65-.68-3.66-.69-4.66-2.6-1.12-2.11-.27-5.29,0-7.51a163.17,163.17,0,0,1,3.58-20l13.05,3c.33.07,2.54,5.92,2.88,6.52,1.54,2.73,4.41,4.72,6.44,7.13s4.71,4.85,6.35,7.78c2,3.65.51,4.21-2.61,5.7-5.16,2.45-3.78,2.75-4,7.72-.07,1.34-.64,3.36-1.85,3.94a3.15,3.15,0,0,1-3.37-.37c-.77-.82-1-2.34-1.54-3.31-1.49-2.6-1.88.56-4.75-.25-1.57-.44-3.23-.94-4.14-2.28A39.11,39.11,0,0,0,20.69,371,4,4,0,0,0,19.32,370.16Z"/><path class="cls-13" d="M88.14,192.41s-21,36.83-32,57.83c0,0-1.46,24.72-22.45,97.23,0,0-11,4.36-17.37-4,0,0,6.07-74.35,12.19-99.84,0,0,38.56-73.71,47.76-85.07C76.3,158.59,86.7,173.33,88.14,192.41Z"/><path class="cls-3" d="M201.81,504c.19,7.29.24,13.38.09,17.68l6.34,127-23.33,2.5c-4.07-30.91-14.24-78.6-15-122.11L164.1,504Z"/><path class="cls-4" d="M183.58,648.12c.68-9.58,9.24-14.8,18-12.41,8.54,2.34,9.57,16.59,9.57,16.59A44.78,44.78,0,0,1,223.82,678c.06.36.12.72.15,1.11a5.75,5.75,0,0,1-4.78,6.31,128.06,128.06,0,0,1-44.05.12,5.72,5.72,0,0,1-4.67-6.36c0-.11,0-.23,0-.34,1-7.26,2.93-20.57,11.81-25.51Z"/><path class="cls-5" d="M187,659.15l-.77-1.75c.53-.23,13.1-5.62,22.26.36l-1,1.6C199.1,653.94,187.08,659.1,187,659.15Z"/><path class="cls-5" d="M188.53,658.91a2.15,2.15,0,1,1-1.76-2.47A2.15,2.15,0,0,1,188.53,658.91Z"/><path class="cls-5" d="M210.14,658.39a2.15,2.15,0,1,1-4.24-.7,2.15,2.15,0,1,1,4.24.7Z"/><path class="cls-5" d="M187.18,653.76l-.77-1.75c.53-.23,13.1-5.62,22.26.36l-1,1.6C199.32,648.55,187.3,653.71,187.18,653.76Z"/><path class="cls-5" d="M188.75,653.51A2.15,2.15,0,1,1,187,651,2.15,2.15,0,0,1,188.75,653.51Z"/><path class="cls-5" d="M210.36,653a2.15,2.15,0,1,1-1.77-2.48A2.15,2.15,0,0,1,210.36,653Z"/><path class="cls-5" d="M187,664.53l-.77-1.75c.53-.23,13.1-5.62,22.26.36l-1,1.6C199.1,659.32,187.08,664.48,187,664.53Z"/><path class="cls-5" d="M188.53,664.29a2.15,2.15,0,0,1-4.24-.71,2.15,2.15,0,1,1,4.24.71Z"/><path class="cls-5" d="M210.14,663.77a2.15,2.15,0,1,1-4.24-.71,2.15,2.15,0,0,1,4.24.71Z"/><path class="cls-5" d="M202.79,641.89s-6.46-2.24-12,.48a6.26,6.26,0,0,0,0,4.4s7.43-1.2,12.12-.28C202.94,646.49,203.83,643.84,202.79,641.89Z"/><path class="cls-6" d="M219.19,685.41a128.06,128.06,0,0,1-44.05.12,5.72,5.72,0,0,1-4.67-6.36c0-.11,0-.23,0-.34a96.05,96.05,0,0,0,53.32-.84c.06.36.12.72.15,1.11A5.75,5.75,0,0,1,219.19,685.41Z"/><path class="cls-2" d="M191.92,354.84c4.46,27,11.18,96.78,16.65,156.09,0,0-15.88,16.73-49.38,7.75L147.51,397.32S149.48,373.13,191.92,354.84Z"/><path class="cls-13" d="M187.82,199.48s6.91-10.39,17.71-12-21.2-28.58-21.2-28.58S180.31,188,187.82,199.48Z"/></g></g></svg>