<svg xmlns="http://www.w3.org/2000/svg" viewBox="0 0 407.62 825.23"><defs><style>.cls-1{fill:#02b74b;}.cls-2{fill:#ffaf82;}.cls-3{fill:#006acd;}.cls-4{fill:#0188e5;}.cls-5{fill:#32324c;}.cls-6{fill:#f9bb9c;}.cls-7{fill:#f99c80;}.cls-8{fill:#dc795f;}.cls-9{fill:#920e08;}.cls-10{fill:#ff8175;}.cls-11{fill:#f88968;}.cls-12{fill:#663c36;}.cls-13{fill:none;stroke:#006acd;stroke-miterlimit:10;}</style></defs><g id="Capa_2" data-name="Capa 2"><g id="Información"><path class="cls-1" d="M355.31,522.53s-33,155.81-44.71,242.4v22.31s13.4-12.42,60.58-265.58Z"/><path class="cls-2" d="M287.89,700.63a243.23,243.23,0,0,1-12.55,24.63c-6.27,10.25-3.84,19-8,28.46s7.65,10.11,11.13.11,3.09-15,5.27-15.06,5.32,25.68,5.35,33-3.59,25.12-1.23,28.24,10-6.23,10.22-25.2,1.63-18.4,1.63-18.4.91,7.48,1.84,15.52-.2,17.58-1.18,22.87,4.15,8.6,6.09,5.92,6.72-21,5.42-28.54-2.44-20.35-2.44-20.35,5.17,17.61,5.88,22.08-3.3,20.72.12,24.18c1.41,1.43,6.61.37,8.56-23.24,0,0-.36-11.68-2-19.08a41.75,41.75,0,0,1,4.25,13.11,116.06,116.06,0,0,1,.83,19.6c-.21,6.42,5.4,6.23,6.74-5s.93-23.8-1.51-30.15-2.89-41.8-10.7-55.71Z"/><path class="cls-3" d="M277.58,282.23s-23.25,195.49-16,243.82c0,0,1.85,117.86,25.15,178.15,0,0,17.21,6.72,35.29-5.19,0,0,2.76-125.92-4.63-179.94,0,0,14.37-176.1,5.14-204.78C318.76,302.57,309.38,285.92,277.58,282.23Z"/><path class="cls-4" d="M83.77,718.31c75.63,37.73,159,34.15,233-4.64-24.33-124.56-35.2-272.1-39.16-431.44L201.46,261.8a115.6,115.6,0,0,0-62.61.77L55.37,287.19,95.32,538.44Z"/><path class="cls-5" d="M121.34,181.82H104.93c-1.39,3.11-8.34,21,12.78,25.43,0,0,4.74,19.41,24.46,11.76C136.79,206.31,128.1,193.84,121.34,181.82Z"/><path class="cls-6" d="M143.83,209.07l.93,23,.31,7.71,1.12,27.75s25.76,15.67,54.36,4.89l.75-7.22.74-7.07,2.82-26.79Z"/><path class="cls-7" d="M143.83,209.07l.93,23,.31,7.71c12.21,11.26,31.15,23.69,56.23,25.42l.74-7.07,2.82-26.79Z"/><path class="cls-7" d="M252.1,128.68s8.44-22.5,29.54-12.66,13.1,72.91-23.69,67.75C258,183.77,245.78,158.92,252.1,128.68Z"/><path class="cls-8" d="M268,163.25h-.13a2.93,2.93,0,0,1-2.8-3.06c.74-17.17,13.05-28.94,13.58-29.44a2.94,2.94,0,0,1,4,4.28c-.18.17-11.1,10.73-11.74,25.41A2.94,2.94,0,0,1,268,163.25Z"/><path class="cls-8" d="M279.21,156.22a2.93,2.93,0,0,1-2.9-2.49c0-.1-.89-5.07-5-6.68a2.94,2.94,0,1,1,2.14-5.47c7.33,2.87,8.6,10.93,8.65,11.27a2.93,2.93,0,0,1-2.47,3.34A3.11,3.11,0,0,1,279.21,156.22Z"/><path class="cls-6" d="M120.51,184.42c.93,2.68,1.94,5.33,3,7.94,1,2.37,2.09,4.71,3.25,7C154,253.14,250.5,252.93,263.26,196.9c12.58-55.2,8.77-123,8.77-123L117.39,71.77S102.65,132.9,120.51,184.42Z"/><path class="cls-7" d="M120.51,184.42c.93,2.68,1.94,5.33,3,7.94,4.84-4.58,4.34-15.28,4.34-15.28A13.66,13.66,0,0,1,120.51,184.42Z"/><circle class="cls-5" cx="175.72" cy="130.66" r="7.21"/><path class="cls-5" d="M241.36,130.66a7.22,7.22,0,1,1-7.21-7.22A7.21,7.21,0,0,1,241.36,130.66Z"/><path class="cls-5" d="M225.93,98.3s-6.52,7.18-4.22,11c0,0,24.51,6.39,37.23,15.45,0,0,3.16-11.07-7-16.78S225.93,98.3,225.93,98.3Z"/><path class="cls-5" d="M185.2,98.3s5.88,7.68,3.27,11.3c0,0-24.88,4.3-38.28,12.25,0,0-2.21-11.27,8.36-16.09S185.2,98.3,185.2,98.3Z"/><path class="cls-7" d="M203.27,172.41a29.79,29.79,0,0,1-9.1-1.52,2.93,2.93,0,1,1,1.85-5.56c.12,0,12.19,3.82,14.62-2.49,2.29-6-1.84-23.53-5-33.2a2.93,2.93,0,1,1,5.58-1.81c.9,2.76,8.65,27.29,4.87,37.11C213.92,170.66,208.57,172.41,203.27,172.41Z"/><path class="cls-6" d="M133,127.62S119,106.52,97.87,116.37s-13.1,72.91,23.68,67.74C121.55,184.11,139.36,157.86,133,127.62Z"/><path class="cls-7" d="M113,163.25a2.94,2.94,0,0,1-2.93-2.81c-.64-14.73-11.63-25.31-11.74-25.41a2.94,2.94,0,0,1,4-4.28c.52.5,12.83,12.27,13.58,29.44a2.94,2.94,0,0,1-2.81,3.06Z"/><path class="cls-7" d="M101.74,156.22a3.25,3.25,0,0,1-.44,0,2.94,2.94,0,0,1-2.47-3.34c0-.34,1.33-8.4,8.66-11.27a2.94,2.94,0,0,1,2.14,5.47c-4.13,1.62-5,6.62-5,6.67A2.94,2.94,0,0,1,101.74,156.22Z"/><path class="cls-5" d="M130,76.23s6.52,5.62,4.43,18.51-4.73,16.59-4.73,16.59,4.16,10.6,1.58,21.56l-.2-.49a33.94,33.94,0,0,0-18.62-18.58l-.75-.29s-23.88-1.09-25.29-28,16.16-30.17,16.16-30.17-1.88-32.53,19.21-38.39,34.3,6.61,34.3,6.61,3-17.8,23-19.56c19.55-1.72,24,12.6,24,12.6S205.24,1.69,233.11.05c16.53-1,24.83,14,24.83,14S262,3.47,286.88,6.72c22.39,2.93,28.6,42.55,4,50.28,0,0,16.17,6,8.44,23.21s-25.84,12-25.84,12-19.17,1-26.55-12.31c0,0-8.79,12.66-29.53,8.79s-27.08-12-27.08-12-13.71,12.66-29.18,8.09S146.25,70.13,130,76.23Z"/><path class="cls-5" d="M278.8,84.2s.4,36.16-7.1,53.32L268,118.42l1.17-12.6s-8.56-12.72-5.1-19.52S278.8,84.2,278.8,84.2Z"/><path class="cls-5" d="M201.54,177.11c.12,0,.25,0,.38-.06h-.07l-.12,0Z"/><path class="cls-5" d="M201.87,175.14c-.51-.06-.87-.1-1.37-.14l-.79-.06-1-.11c-.69-.07-1.38-.13-2.07-.22l-2.06-.3a75.62,75.62,0,0,1-8.19-1.75A132.56,132.56,0,0,1,170,166.8c-2.77-1.14-5.6-2.34-8.55-3.53l-.59-.23c-.32-.11-.64-.24-1-.33a13.93,13.93,0,0,0-2.07-.52,16.47,16.47,0,0,0-4.47-.26,15.77,15.77,0,0,0-8.89,3.6,16.17,16.17,0,0,0-5.16,7.9,16.94,16.94,0,0,0-.5,2.14l-.21,1.36c-.15.88-.27,1.76-.36,2.63a74.42,74.42,0,0,0-.41,10.42,83.63,83.63,0,0,0,1,10.26A80.26,80.26,0,0,0,141,210.3a81.9,81.9,0,0,0,3.43,9.76c.33.79.67,1.59,1.05,2.37l.55,1.18.27.58.15.3.07.15.11.2a28.74,28.74,0,0,0,3.94,5.77,40.79,40.79,0,0,0,9.52,7.86,60.76,60.76,0,0,0,10,4.86A79.42,79.42,0,0,0,190.36,248a95.79,95.79,0,0,0,20.38-.21A79.73,79.73,0,0,0,221,246a59.55,59.55,0,0,0,10.43-3.51,42.36,42.36,0,0,0,5.3-2.86,30.71,30.71,0,0,0,5.14-4.08,38.93,38.93,0,0,0,7-9.68,56.55,56.55,0,0,0,4-10,73.52,73.52,0,0,0,2.23-10,84.94,84.94,0,0,0,.95-10.06,69.57,69.57,0,0,0-.41-10.25,42.1,42.1,0,0,0-1-5.38,22.62,22.62,0,0,0-2.33-6,12.27,12.27,0,0,0-3.1-3.58,9.11,9.11,0,0,0-2.9-1.49,8.62,8.62,0,0,0-1.75-.35,8.27,8.27,0,0,0-.86,0h-.61c-1.21,0-2,.13-2.84.21l-2.42.29c-6.27.84-12.3,1.85-18.38,2.88l-9.08,1.58-4.54.82-2.26.4-1.13.21-.45.08Zm-46.28,5.93c0-.65.08-1.29.15-1.93v-.48c.36,0,5.64,2,8.58,3a146.86,146.86,0,0,0,18.53,5.47,89.44,89.44,0,0,0,9.83,1.58l2.49.23c.84.07,1.67.1,2.51.14l1.25.07,1.5,0c1,0,2,0,3,0h0c13.62,0,37.58-8.05,38.33-8.31h0l.17,1.87a33.06,33.06,0,0,1,.22,3.71,54.78,54.78,0,0,1-.67,8.07,67,67,0,0,1-1.79,8.06,49.67,49.67,0,0,1-6.39,14.25,20,20,0,0,1-4.31,4.69,12.27,12.27,0,0,1-2.22,1.35,23,23,0,0,1-2.92,1.19,45.58,45.58,0,0,1-7.12,1.7,76.52,76.52,0,0,1-7.87.79,103.73,103.73,0,0,1-16.23-.62A93,93,0,0,1,177.13,223a40.84,40.84,0,0,1-6.75-2.56,19.5,19.5,0,0,1-4.92-3.33,9.61,9.61,0,0,1-1.37-1.67l0,0-.06-.1-.11-.22-.24-.44-.47-.87c-.34-.58-.62-1.17-.91-1.77A65,65,0,0,1,157,196.9a64.67,64.67,0,0,1-1.23-7.93A56.48,56.48,0,0,1,155.59,181.07Z"/><path class="cls-7" d="M190.74,216.39a1.87,1.87,0,0,1,1,.28c10.79,6.78,21.59.83,22,.57a1.85,1.85,0,0,1,1.83,3.21c-.53.3-13.14,7.32-25.83-.66a1.84,1.84,0,0,1-.59-2.54A1.87,1.87,0,0,1,190.74,216.39Z"/><path class="cls-9" d="M215.05,204.39a11.8,11.8,0,0,1-1.57,6.25,12.08,12.08,0,0,1-21.9-1.91,12.31,12.31,0,0,1-.72-3.77,12.1,12.1,0,1,1,24.19-.57Z"/><path class="cls-10" d="M213.48,210.64a12.08,12.08,0,0,1-21.9-1.91c2.22-1,6.4-2.26,12.59-1.31C207.87,208.05,211.2,209,213.48,210.64Z"/><path class="cls-11" d="M274.43,500.54s6.9-2.74,18.34-3.66c0,0,39.66-15.25,54.74-12.93,0,0,28-1.12,39.8-3,0,0,8.69-1.53,10.29,1.61S406,512.64,406,512.64s6.05,6-13.65,9.76c0,0,.25,5-3.26,8.19s-10,2.3-23.55-4.69c0,0-17.29-2-23.56-12.59,0,0,.52-3.81-13.28-.4L278,520.4Z"/><path class="cls-2" d="M273.17,485.35s64.26-3.91,79.33-1.59c0,0,22.14.8,33.94-1.07,0,0,8.69-1.53,10.3,1.61s10,32.72,10,32.72,6.05,6-13.66,9.76c0,0,.26,5-3.25,8.19s-10,2.3-23.55-4.69c0,0-17.29-2-23.56-12.59,0,0-7.56,1.66-25.56,2.66l-44,4Z"/><path class="cls-11" d="M393.09,526.78c-5.17.58-19-5.74-21.08-10.73-1.09-2.69-.46-3.56,2.16-3.91,7-.93,12.43-4.29,15.8-10.66.3-.57.25-1.41,1.47-1.67a11.89,11.89,0,0,1-3.37,6.93c-1.12,1.19-2.24,2.76-.86,3.37,3,1.33,10.07,6.35,9.28,6.22-2.7-.43-3.27-.06-4.34,1.45-.27.38-1.55,1.45-1.52,1a9.65,9.65,0,0,0-1-4.94c-.86-1.72-2-4-5.24-4.36-2.53-.25-6.18,2.47-6.93,4.65-.6,1.77,1.27,5.88,2.55,6.91,3.88,3.1,11.78,6,13.07,5.75"/><path class="cls-11" d="M372,516.05c-1.09-2.69-.46-3.56,2.16-3.91,7-.93,12.43-4.29,15.8-10.66.3-.57.25-1.41,1.47-1.67a11.89,11.89,0,0,1-3.37,6.93c-1.12,1.19-12.19,4.7-10.6,7.38Z"/><path class="cls-1" d="M361.11,483.38s11.44-.74,15.48-1.14c0,0,12.75,10.3,9.92,24.21a18.57,18.57,0,0,1-10.9,5.46S376.08,504.9,361.11,483.38Z"/><rect class="cls-12" y="495.78" width="313.36" height="329.46"/><path class="cls-4" d="M326.5,519.48s-200.36,27.75-247.68,1.15C39.4,498.47,44.49,453.3,12.92,341.2c0,0-19.63-35.94,45-54.7l49.34,174.83c34.89,3.95,216.82,22.78,216.82,22.78S331,502.13,326.5,519.48Z"/><path class="cls-13" d="M84.22,352.44s16.45,48.62,20.19,86.77"/></g></g></svg>