<svg xmlns="http://www.w3.org/2000/svg" viewBox="0 0 589.97 807.59"><defs><style>.cls-1{fill:#ffaf82;}.cls-2{fill:#08a8b1;}.cls-3{fill:#050705;}.cls-4{fill:#2c2c2c;}.cls-5{fill:#02c6cb;}.cls-6{fill:#fff;}.cls-7{fill:#162d47;}.cls-8{fill:#f88968;}.cls-9{fill:#5c7aea;}.cls-10{fill:#667ef7;}.cls-11{fill:#fbc0a4;}.cls-12{fill:none;stroke:#08a8b1;stroke-miterlimit:10;}</style></defs><g id="Capa_2" data-name="Capa 2"><g id="Información"><path class="cls-1" d="M569.42,305.91c-1,.43-2.1.86-3.22,1.28l-.74.28h0c-2,.75-4.15,1.44-6.35,2.08h0c-12.36,3.56-27,5.08-38.47.67,0,0-2.32-26.32-.07-32.93,0,0,6.69-11.84,14.38-20.43,0,0,9-11.82,14.6-12.28s8.82,4.85,8.82,4.85l1.82-1.13c2.63-1.63,7.34-4.56,8.91-5.5,8.53-5.05,15.54,1.79,3.64,13,1.2-.56,9.48-4.78,13,2.16,2.5,4.87-8,12.53-8,12.53s11.73.3,12.17,5.52c.46,5.7-10.57,10.82-11,11,.4.1,6.94,1.82,5.41,8.58C583.74,298.26,577.83,302.37,569.42,305.91Z"/><path class="cls-2" d="M401.73,305.68a30.55,30.55,0,0,1-6.55,8.44,24.62,24.62,0,0,1-20.85,6.24c-7.52-1.29-14.24-5.91-18.94-13-7.37-11.13-8.17-26.41-2-38a30.45,30.45,0,0,1,6.55-8.45,24.61,24.61,0,0,1,20.85-6.23c7.51,1.28,14.24,5.9,18.94,13C407.11,278.77,407.91,294.06,401.73,305.68Z"/><path class="cls-2" d="M526,313.9c-21.43,4.13-144.81,6.81-149.39,6.72l-6.06-1.24L375.05,254l3.73.36c.71.07,17.5,1.76,46.14,9.38,7.26,1.93,99.15-.8,99.15-.8l5.27,50.46Z"/><path class="cls-2" d="M250.83,289.82a42,42,0,0,0,4.93-12.46,45.58,45.58,0,0,0-3.45-30c-4.52-9.21-11.33-13.2-20-16-13.58-4.45-28.56-1.06-36.59,12.35a42.36,42.36,0,0,0-4.93,12.46c-4.72,21,6,42.84,23.91,48.71C228.28,309.26,242.8,303.23,250.83,289.82Z"/><path class="cls-2" d="M385.8,255.53,381,253.39C376.65,252,275.65,228.63,232,229.58l-18.15-.92-7.43,72L224,325.1c43-5,120-6,142.39-5.78l3.5.88Z"/><path class="cls-2" d="M397.37,306.31a39.29,39.29,0,0,0,2.29-34.57c-7-17.06-24.48-24.39-38.87-16.35a30.21,30.21,0,0,0-11.06,10.95,39.27,39.27,0,0,0-2.29,34.56c3.41,8.27,9.33,14.52,16.67,17.61a24.89,24.89,0,0,0,22.2-1.26A30.18,30.18,0,0,0,397.37,306.31Z"/><path class="cls-3" d="M195,807.1c-15-77-9.88-158-9.88-158,33.65-15.4,87.6-29.45,87.6-29.45C301,717.1,284.9,807.59,284.9,807.59Z"/><path class="cls-4" d="M70.65,807.59s-25.1-45-3.15-173.15l93.86,14.66S187,621.59,170,801.1Z"/><path class="cls-4" d="M73.73,603s-15,52.88-14.8,100c0,0,73.19,32,166.29-3.37,38.08-14.47,57.41-56.9,43.77-95.28-.16-.45-.33-.91-.49-1.37C268.5,603,149.44,598.12,73.73,603Z"/><path class="cls-5" d="M130,165.43s-54.36.47-79.07,23-.88,67.94,26,73.67,110.82-4.52,119.49-18.94S199.38,166.28,130,165.43Z"/><path class="cls-5" d="M46.46,638.12c81.74,50.64,161.65,45.56,242.2-3.68L245,231.1l-47.63-3.44-3.83-.51-10.87-1.45-66.79-8.95-11.25,3.84-14.18,4.86L87,226.61,23.88,248.22l47,275.13Z"/><path class="cls-2" d="M134.91,262.52c-47.84,0-59.09-42.12-59.2-42.54a1.76,1.76,0,1,1,3.42-.87c.42,1.63,10.75,39.88,55.76,39.88a3.86,3.86,0,0,1,.76,0,1.76,1.76,0,1,1,0,3.52Z"/><path class="cls-2" d="M179.82,255.75a1.77,1.77,0,0,1,0-3.53c.63,0,14.53-.63,18.06-19.44a1.77,1.77,0,0,1,3.47.65c-4.08,21.75-21.29,22.32-21.46,22.32Z"/><path class="cls-2" d="M126,522.71s-.28,37.5-8.78,71.95c0,0,88.89,14.42,139.18-12.93a236.28,236.28,0,0,0-1-70Z"/><path class="cls-6" d="M145.24,431.58h-.14a1.72,1.72,0,0,1-1.57-1.86c3.79-44-13.09-154.94-13.26-156a1.72,1.72,0,1,1,3.41-.52c.17,1.12,17.11,112.47,13.28,156.86A1.73,1.73,0,0,1,145.24,431.58Z"/><path class="cls-6" d="M203.39,422.75h-.15a1.72,1.72,0,0,1-1.56-1.87c3.79-44-13.65-155.8-13.82-156.92a1.72,1.72,0,1,1,3.4-.54c.18,1.13,17.68,113.36,13.85,157.76A1.72,1.72,0,0,1,203.39,422.75Z"/><path class="cls-7" d="M237.71,40.45s16.39,10.8,10.52,40.17S231,113.11,231,113.11,213.8,48.1,237.71,40.45Z"/><path class="cls-1" d="M173.8,180l-3.2,37-1.47,17c-21.86,15.16-56-7.67-56-7.67l-1.26-58.22c10.1-6.37,34.63,3.06,49.82,7.78C168.89,178.16,173.8,180,173.8,180Z"/><path class="cls-8" d="M173.8,180l-3.2,37c-24.93-6.57-44.9-42-44.9-42l36,.86C168.89,178.16,173.8,180,173.8,180Z"/><path class="cls-1" d="M244.78,84c0,1.1,0,2.22,0,3.35,0,.19,0,.39,0,.58,0,1.09,0,2.18-.07,3.29-.35,11.5-1.51,24.2-3.05,36.91-.33,2.67-.67,5.33-1,8-.32,2.29-.62,4.58-1,6.84-.69,4.7-1.4,9.35-2.13,13.85-.5,3.13-1,6.2-1.52,9.17a47.2,47.2,0,0,1-1.49,6.07,44.11,44.11,0,0,1-50.67,29.68c-12.9-2.6-27.15-5.8-40.45-9.51-.67-.17-1.3-.34-2-.53a219.77,219.77,0,0,1-28.75-10c-1.06-1.51-2.08-3.05-3-4.6-8.49-13.58-13.56-28.81-16.56-44.58-1.2-6.3-2.08-12.68-2.71-19.08A11.87,11.87,0,0,0,90.1,112c0-5.89.07-11.77.18-17.43A74,74,0,0,1,168,22.05c33,1.71,64.43,14.5,72.37,31.5C243.52,60.3,244.76,71.15,244.78,84Z"/><path class="cls-7" d="M109.62,177.13c-8.49-13.57-13.55-28.81-16.56-44.58,4.69.06,10.81,1.48,18.77,5.17C111.83,137.72,113.63,161,109.62,177.13Z"/><path class="cls-7" d="M185.13,108.51c0,4.92-2.19,8.91-4.9,8.91s-4.89-4-4.89-8.91,2.19-8.9,4.89-8.9S185.13,103.59,185.13,108.51Z"/><path class="cls-7" d="M235.7,108.51c0,4.92-2.19,8.91-4.89,8.91s-4.89-4-4.89-8.91,2.19-8.9,4.89-8.9S235.7,103.59,235.7,108.51Z"/><path class="cls-7" d="M90.21,98.6s15.69-10.21,28.9,8h10.28s-.59-21.11,4.4-32.56,24.67-11.16,27.6-24.66c0,0,48.16,23.18,75.86,8.4,62.63-33.41-69-76.26-117.16-49.3C84.29,28.53,82.74,62.66,90.21,98.6Z"/><path class="cls-7" d="M160.44,93.73s4.71-9.68,13.75-12.1c8.37-2.24,14.35-.08,17.35,1.55a3,3,0,0,1,1.35,3.69h0a3,3,0,0,1-4.1,1.68C183.72,86.19,172.57,83.16,160.44,93.73Z"/><path class="cls-7" d="M244.78,84c0,1.1,0,2.22,0,3.35,0,.19,0,.39,0,.58a24.12,24.12,0,0,0-20.92-.21,3,3,0,0,1-2.74-5.36c3-1.63,9-3.8,17.34-1.56A18.35,18.35,0,0,1,244.78,84Z"/><path class="cls-1" d="M119.11,106.62s-15.73-19.06-28.9-8C75.7,110.77,86.81,152,116.3,151.1Z"/><path class="cls-8" d="M117,142.15a2.59,2.59,0,0,1-2.58-2.3c-2.4-20.87-14.78-24.08-15.31-24.21a2.59,2.59,0,0,1,1.15-5.06c.68.15,16.47,4,19.32,28.68a2.59,2.59,0,0,1-2.28,2.87A1.51,1.51,0,0,1,117,142.15Z"/><path class="cls-8" d="M100.46,128.93a2.64,2.64,0,0,1-1.72-.65,2.61,2.61,0,0,1-.22-3.67,14.73,14.73,0,0,1,13.87-4,2.59,2.59,0,1,1-1.12,5.06,9.45,9.45,0,0,0-8.87,2.39A2.56,2.56,0,0,1,100.46,128.93Z"/><path class="cls-8" d="M197.67,183.51a25,25,0,0,1-16.65-6,2.6,2.6,0,0,1,3.6-3.74c.37.35,8.29,7.6,21.5,3.08a2.59,2.59,0,0,1,1.67,4.91A31.16,31.16,0,0,1,197.67,183.51Z"/><path class="cls-8" d="M210.14,137.14a2.59,2.59,0,0,1-1.58-4.65l6.92-5.28-6-1.56a2.61,2.61,0,0,1-1.91-2.1L204.93,107a2.59,2.59,0,0,1,5.12-.82l2.38,14.84,9.52,2.47a2.6,2.6,0,0,1,.92,4.58l-11.16,8.51A2.56,2.56,0,0,1,210.14,137.14Z"/><path class="cls-8" d="M206.06,171.3c-9.77,0-22.11-2.6-32.58-12.92a2.58,2.58,0,1,1,3.62-3.67c18.36,18.1,44.14,9.16,44.4,9.07a2.58,2.58,0,0,1,1.74,4.86A55.53,55.53,0,0,1,206.06,171.3Z"/><path class="cls-5" d="M43.6,299.34a28.49,28.49,0,1,1,13.28-29.81A28.33,28.33,0,0,1,43.6,299.34Z"/><path class="cls-5" d="M25.61,468,14.09,400.46C13.38,396.75-3.17,309.2.54,272.39l.32-3.13,56.54,4.26-.07,3.06c-1,42.17,4.06,106.1,5.17,114.76l10.71,66.38Z"/><path class="cls-5" d="M58.44,473.06a24.64,24.64,0,1,1,11.08-27.51,24.69,24.69,0,0,1-11.08,27.51Z"/><path class="cls-2" d="M57.49,307.88c2.45,20.15,3.9,42.08,6.17,62.23.29,2,.59,4.83,1,6.86.22,1.53.63,3,1,4.52l-.84-2.17a104,104,0,0,1-3.42-15.92,390.58,390.58,0,0,1-3.87-55.52Z"/><path class="cls-8" d="M551.27,276.56S551,290.47,533.87,296c0,0,16.6,3.63,20.58-19.58Z"/><path class="cls-9" d="M578.46,254.44s-19.84-11.82-28.65,15.84a94,94,0,0,0-2.56,41.83,14.17,14.17,0,0,0,11.37-2.45l-2.77.8S554.72,259,578.46,254.44Z"/><path class="cls-10" d="M556.89,287,164.3,308.88,147.9,262.4,555.46,271s11.39-1.63,11.39,8.45C566.85,287,556.89,287,556.89,287Z"/><path class="cls-1" d="M586,256.56c2,4-3,11.63-11.24,17.07s-14.52,7.2-18.49,2.64c-2.83-3.25,3-11.63,11.24-17.07S584,252.58,586,256.56Z"/><ellipse class="cls-1" cx="571.84" cy="281.31" rx="14.06" ry="8.12" transform="translate(-64.73 311.57) rotate(-28.92)"/><path class="cls-8" d="M569.42,305.45c-1,.43-2.11.85-3.23,1.26a9.24,9.24,0,0,1-5.79-5.4c-2.47-6.5,3.57-9.64,3.57-9.64s-5.39,1-6.32-3.73a8.46,8.46,0,0,1,2.28-7.61S555,280,554.2,276s6.72-11.39,6.72-11.39-4.13,5.76-4.36,9.53,4.13,6.06,9.66,2.76c-.6.35-6.23,3.8-6.05,9.07.2,5.42,9.89,4,10.41,3.93-.51.26-9.86,4.75-8.62,9.72C562.8,303,566.38,304.74,569.42,305.45Z"/><path class="cls-1" d="M546.6,248.05c5.26-1.05,9.52,2.31,10.83,11s-.24,14.87-7.16,17.62c-4.95,2-10.6-5.14-11.91-13.83S541.33,249.09,546.6,248.05Z"/><path class="cls-8" d="M557.11,257.33s1.73,11.08-3.58,16.63-13.68,2.5-15.28-15a19.87,19.87,0,0,0,2.67,14c4.35,7.25,12.11,5.75,14.41,1.94S558.7,266.81,557.11,257.33Z"/><path class="cls-11" d="M142.15,320.4a13.2,13.2,0,1,1,2.18,18.54A13.21,13.21,0,0,1,142.15,320.4Z"/><path class="cls-1" d="M189.32,286.21c2.13,2.78,5.52,4.79,5.33,9-.2,4.68-4.8,9.25-7.4,12.77a319.65,319.65,0,0,1-25.88,30.35l-19.22-18c-.48-.45,1.57-12.57,1.59-13.93.09-6.16-2.82-12.38-3.87-18.49-1.12-6.45-3.18-12.9-3.07-19.5.14-8.22,3.31-7.65,10.1-7.08,11.18.94,9.13-.94,14.5-9.1,1.44-2.2,4.42-5.06,7-4.85,2.2.18,4.87,1.82,5.35,4s-.65,4.94-.67,7.15c0,5.87,3.75.9,7.83,5.12,2.22,2.3,4.55,4.8,4.76,8a76.39,76.39,0,0,0,2.13,11.7A7.93,7.93,0,0,0,189.32,286.21Z"/><path class="cls-5" d="M79.2,435.17a31.73,31.73,0,1,1-29.75-20.9A31.66,31.66,0,0,1,79.2,435.17Z"/><path class="cls-5" d="M157.93,355.12C146.6,376.81,76.61,462.59,73.47,466.64l-5,4.7-45.8-43,2.78-3.13c.52-.59,11.17-22.52,36.12-43.67,6.31-5.36,80.59-61.09,80.59-61.09l27.61,8.89Z"/><path class="cls-12" d="M142.15,320.4S28.81,401.5,19.86,434.31"/></g></g></svg>