<svg xmlns="http://www.w3.org/2000/svg" viewBox="0 0 589.97 807.59"><defs><style>.cls-1{fill:#ffaf82;}.cls-2{fill:#08a8b1;}.cls-3{fill:#050705;}.cls-4{fill:#2c2c2c;}.cls-5{fill:#02c6cb;}.cls-6{fill:#fff;}.cls-7{fill:#162d47;}.cls-8{fill:#f88968;}.cls-9{fill:#5c7aea;}.cls-10{fill:#667ef7;}.cls-11{fill:#fbc0a4;}.cls-12{fill:none;stroke:#08a8b1;stroke-miterlimit:10;}</style></defs><g id="Capa_2" data-name="Capa 2"><g id="Información"><path class="cls-1" d="M20.55,305.91c1,.43,2.1.86,3.22,1.28l.74.28h0c2,.75,4.15,1.44,6.35,2.08h0c12.36,3.56,27,5.08,38.47.67,0,0,2.32-26.32.07-32.93,0,0-6.68-11.84-14.38-20.43,0,0-9-11.82-14.6-12.28s-8.82,4.85-8.82,4.85l-1.82-1.13c-2.63-1.63-7.34-4.56-8.9-5.5-8.54-5.05-15.55,1.79-3.65,13-1.19-.56-9.48-4.78-13,2.16-2.51,4.87,8,12.53,8,12.53S.45,270.75,0,276c-.46,5.7,10.57,10.82,11,11-.39.1-6.94,1.82-5.4,8.58C6.23,298.26,12.14,302.37,20.55,305.91Z"/><path class="cls-2" d="M188.24,305.68a30.58,30.58,0,0,0,6.56,8.44,24.6,24.6,0,0,0,20.84,6.24c7.52-1.29,14.24-5.91,19-13,7.36-11.13,8.16-26.41,2-38a30.67,30.67,0,0,0-6.56-8.45,24.6,24.6,0,0,0-20.84-6.23c-7.52,1.28-14.25,5.9-19,13C182.87,278.77,182.07,294.06,188.24,305.68Z"/><path class="cls-2" d="M64,313.9c21.44,4.13,144.82,6.81,149.39,6.72l6.07-1.24L214.92,254l-3.73.36c-.7.07-17.5,1.76-46.14,9.38-7.25,1.93-99.15-.8-99.15-.8L60.63,313.4Z"/><path class="cls-2" d="M339.14,289.82a42.25,42.25,0,0,1-4.93-12.46,45.64,45.64,0,0,1,3.45-30c4.52-9.21,11.33-13.2,20-16,13.58-4.45,28.56-1.06,36.59,12.35a42.36,42.36,0,0,1,4.93,12.46c4.73,21-6,42.84-23.91,48.71C361.69,309.26,347.17,303.23,339.14,289.82Z"/><path class="cls-2" d="M204.17,255.53l4.84-2.14c4.31-1.4,105.31-24.76,148.94-23.81l18.15-.92,7.42,72L366,325.1c-43-5-120-6-142.39-5.78l-3.5.88Z"/><path class="cls-2" d="M192.6,306.31a39.29,39.29,0,0,1-2.28-34.57c7-17.06,24.47-24.39,38.86-16.35a30.24,30.24,0,0,1,11.07,10.95,39.3,39.3,0,0,1,2.28,34.56c-3.41,8.27-9.33,14.52-16.67,17.61a24.89,24.89,0,0,1-22.2-1.26A30.26,30.26,0,0,1,192.6,306.31Z"/><path class="cls-3" d="M395,807.1c15-77,9.88-158,9.88-158-33.65-15.4-87.6-29.45-87.6-29.45C289,717.1,305.07,807.59,305.07,807.59Z"/><path class="cls-4" d="M519.32,807.59s25.11-45,3.15-173.15L428.62,649.1S403,621.59,420,801.1Z"/><path class="cls-4" d="M516.24,603s15,52.88,14.8,100c0,0-73.18,32-166.29-3.37-38.07-14.47-57.41-56.9-43.77-95.28.17-.45.33-.91.49-1.37C321.47,603,440.53,598.12,516.24,603Z"/><path class="cls-5" d="M460,165.43s54.37.47,79.07,23,.88,67.94-26,73.67-110.81-4.52-119.49-18.94S390.59,166.28,460,165.43Z"/><path class="cls-5" d="M543.51,638.12c-81.74,50.64-161.65,45.56-242.2-3.68L345,231.1l47.63-3.44,3.83-.51,10.87-1.45,66.8-8.95,11.25,3.84,14.17,4.86,3.39,1.16,63.15,21.61-47,275.13Z"/><path class="cls-2" d="M455.07,262.52c47.83,0,59.08-42.12,59.19-42.54a1.76,1.76,0,1,0-3.42-.87c-.42,1.63-10.75,39.88-55.76,39.88a3.86,3.86,0,0,0-.76,0,1.76,1.76,0,0,0,0,3.52Z"/><path class="cls-2" d="M410.15,255.75a1.77,1.77,0,0,0,0-3.53c-.63,0-14.53-.63-18.05-19.44a1.77,1.77,0,0,0-3.47.65c4.07,21.75,21.28,22.32,21.45,22.32Z"/><path class="cls-2" d="M464,522.71s.27,37.5,8.77,71.95c0,0-88.89,14.42-139.18-12.93a236.28,236.28,0,0,1,1-70Z"/><path class="cls-6" d="M444.73,431.58h.15a1.73,1.73,0,0,0,1.57-1.86c-3.8-44,13.08-154.94,13.25-156a1.72,1.72,0,1,0-3.4-.52C456.12,274.26,439.18,385.61,443,430A1.73,1.73,0,0,0,444.73,431.58Z"/><path class="cls-6" d="M386.58,422.75h.15a1.73,1.73,0,0,0,1.57-1.87c-3.8-44,13.64-155.8,13.82-156.92a1.73,1.73,0,0,0-3.41-.54c-.17,1.13-17.68,113.36-13.84,157.76A1.7,1.7,0,0,0,386.58,422.75Z"/><path class="cls-7" d="M352.27,40.45s-16.39,10.8-10.52,40.17S359,113.11,359,113.11,376.17,48.1,352.27,40.45Z"/><path class="cls-1" d="M416.17,180l3.21,37,1.47,17c21.85,15.16,55.95-7.67,55.95-7.67l1.26-58.22c-10.09-6.37-34.63,3.06-49.82,7.78C421.08,178.16,416.17,180,416.17,180Z"/><path class="cls-8" d="M416.17,180l3.21,37c24.92-6.57,44.89-42,44.89-42l-36,.86C421.08,178.16,416.17,180,416.17,180Z"/><path class="cls-1" d="M345.19,84c0,1.1,0,2.22,0,3.35,0,.19,0,.39,0,.58,0,1.09,0,2.18.08,3.29.34,11.5,1.5,24.2,3,36.91q.5,4,1,8c.32,2.29.62,4.58.95,6.84.69,4.7,1.4,9.35,2.13,13.85.5,3.13,1,6.2,1.52,9.17a47.2,47.2,0,0,0,1.49,6.07,44.11,44.11,0,0,0,50.67,29.68c12.91-2.6,27.16-5.8,40.45-9.51.67-.17,1.3-.34,2-.53a219.94,219.94,0,0,0,28.76-10c1.05-1.51,2.07-3.05,3-4.6,8.5-13.58,13.56-28.81,16.57-44.58,1.19-6.3,2.07-12.68,2.7-19.08a11.88,11.88,0,0,1,.26-1.49c0-5.89-.08-11.77-.19-17.43A74,74,0,0,0,422,22.05c-33,1.71-64.44,14.5-72.38,31.5C346.45,60.3,345.21,71.15,345.19,84Z"/><path class="cls-7" d="M480.35,177.13c8.49-13.57,13.56-28.81,16.56-44.58-4.69.06-10.8,1.48-18.77,5.17C478.14,137.72,476.35,161,480.35,177.13Z"/><path class="cls-7" d="M404.85,108.51c0,4.92,2.19,8.91,4.89,8.91s4.89-4,4.89-8.91-2.19-8.9-4.89-8.9S404.85,103.59,404.85,108.51Z"/><path class="cls-7" d="M354.27,108.51c0,4.92,2.19,8.91,4.89,8.91s4.9-4,4.9-8.91-2.19-8.9-4.9-8.9S354.27,103.59,354.27,108.51Z"/><path class="cls-7" d="M499.76,98.6s-15.68-10.21-28.9,8H460.59s.58-21.11-4.41-32.56S431.52,62.9,428.58,49.4c0,0-48.16,23.18-75.86,8.4-62.62-33.41,69-76.26,117.17-49.3C505.68,28.53,507.23,62.66,499.76,98.6Z"/><path class="cls-7" d="M429.54,93.73s-4.71-9.68-13.76-12.1c-8.37-2.24-14.35-.08-17.34,1.55a3,3,0,0,0-1.36,3.69h0a3,3,0,0,0,4.1,1.68C406.25,86.19,417.4,83.16,429.54,93.73Z"/><path class="cls-7" d="M345.19,84c0,1.1,0,2.22,0,3.35,0,.19,0,.39,0,.58a24.12,24.12,0,0,1,20.92-.21,3,3,0,0,0,1.28.29,3,3,0,0,0,1.47-5.65c-3-1.63-9-3.8-17.35-1.56A18.35,18.35,0,0,0,345.19,84Z"/><path class="cls-1" d="M470.86,106.62s15.74-19.06,28.9-8c14.51,12.17,3.4,53.44-26.09,52.5Z"/><path class="cls-8" d="M473,142.15a2.58,2.58,0,0,0,2.57-2.3c2.4-20.87,14.78-24.08,15.31-24.21a2.59,2.59,0,0,0-1.15-5.06c-.67.15-16.47,4-19.31,28.68a2.58,2.58,0,0,0,2.28,2.87A1.51,1.51,0,0,0,473,142.15Z"/><path class="cls-8" d="M489.51,128.93a2.59,2.59,0,0,0,1.94-4.32,14.71,14.71,0,0,0-13.86-4,2.59,2.59,0,1,0,1.11,5.06,9.44,9.44,0,0,1,8.87,2.39A2.56,2.56,0,0,0,489.51,128.93Z"/><path class="cls-8" d="M392.3,183.51a25,25,0,0,0,16.65-6,2.6,2.6,0,0,0-3.6-3.74c-.37.35-8.29,7.6-21.49,3.08a2.59,2.59,0,1,0-1.68,4.91A31.16,31.16,0,0,0,392.3,183.51Z"/><path class="cls-8" d="M379.83,137.14a2.59,2.59,0,0,0,1.58-4.65l-6.92-5.28,6-1.56a2.58,2.58,0,0,0,1.91-2.1L385,107a2.59,2.59,0,0,0-5.12-.82l-2.38,14.84L368,123.52a2.6,2.6,0,0,0-.93,4.58l11.16,8.51A2.59,2.59,0,0,0,379.83,137.14Z"/><path class="cls-8" d="M383.91,171.3c9.78,0,22.11-2.6,32.58-12.92a2.58,2.58,0,1,0-3.62-3.67c-18.36,18.1-44.14,9.16-44.39,9.07a2.58,2.58,0,1,0-1.74,4.86A55.43,55.43,0,0,0,383.91,171.3Z"/><path class="cls-5" d="M546.38,299.34a28.48,28.48,0,0,0,42.65-19,28.48,28.48,0,1,0-42.65,19Z"/><path class="cls-5" d="M564.36,468l11.53-67.57c.7-3.71,17.25-91.26,13.54-128.07l-.31-3.13-56.55,4.26.07,3.06c1,42.17-4,106.1-5.17,114.76l-10.71,66.38Z"/><path class="cls-5" d="M531.53,473.06A24.65,24.65,0,1,0,532,430.6a24.65,24.65,0,0,0-.43,42.46Z"/><path class="cls-2" d="M532.48,307.88a389.12,389.12,0,0,1-3.87,55.52,102.79,102.79,0,0,1-3.42,15.92l-.84,2.17c.36-1.52.77-3,1-4.52.38-2,.69-4.82,1-6.86C528.58,350,530,328,532.48,307.88Z"/><path class="cls-8" d="M38.7,276.56S39,290.47,56.1,296c0,0-16.59,3.63-20.58-19.58Z"/><path class="cls-9" d="M11.51,254.44s19.84-11.82,28.66,15.84a94.11,94.11,0,0,1,2.55,41.83,14.14,14.14,0,0,1-11.36-2.45l2.76.8S35.25,259,11.51,254.44Z"/><path class="cls-10" d="M33.09,287l392.59,21.84,16.4-46.48L34.51,271s-11.39-1.63-11.39,8.45C23.12,287,33.09,287,33.09,287Z"/><path class="cls-1" d="M4,256.56c-2,4,3,11.63,11.23,17.07s14.53,7.2,18.49,2.64c2.84-3.25-3-11.63-11.23-17.07S6,252.58,4,256.56Z"/><ellipse class="cls-1" cx="18.13" cy="281.31" rx="8.12" ry="14.06" transform="translate(-236.87 161.16) rotate(-61.08)"/><path class="cls-8" d="M20.55,305.45c1,.43,2.11.85,3.23,1.26a9.28,9.28,0,0,0,5.8-5.4c2.46-6.5-3.58-9.64-3.58-9.64s5.4,1,6.33-3.73A8.48,8.48,0,0,0,30,280.33s4.89-.34,5.73-4.37-6.72-11.39-6.72-11.39,4.13,5.76,4.36,9.53-4.13,6.06-9.66,2.76c.6.35,6.23,3.8,6.05,9.07-.2,5.42-9.89,4-10.41,3.93.51.26,9.86,4.75,8.63,9.72C27.17,303,23.59,304.74,20.55,305.45Z"/><path class="cls-1" d="M43.38,248.05c-5.27-1.05-9.53,2.31-10.84,11s.25,14.87,7.17,17.62c4.94,2,10.6-5.14,11.9-13.83S48.64,249.09,43.38,248.05Z"/><path class="cls-8" d="M32.86,257.33S31.14,268.41,36.45,274s13.68,2.5,15.27-15a19.87,19.87,0,0,1-2.67,14c-4.35,7.25-12.1,5.75-14.41,1.94S31.27,266.81,32.86,257.33Z"/><path class="cls-11" d="M447.83,320.4a13.2,13.2,0,1,0-2.19,18.54A13.21,13.21,0,0,0,447.83,320.4Z"/><path class="cls-1" d="M400.65,286.21c-2.13,2.78-5.52,4.79-5.33,9,.2,4.68,4.8,9.25,7.4,12.77a319.65,319.65,0,0,0,25.88,30.35l19.23-18c.47-.45-1.58-12.57-1.6-13.93-.09-6.16,2.82-12.38,3.88-18.49,1.11-6.45,3.17-12.9,3.06-19.5-.13-8.22-3.31-7.65-10.09-7.08-11.19.94-9.14-.94-14.5-9.1-1.45-2.2-4.43-5.06-7.06-4.85-2.2.18-4.87,1.82-5.35,4s.65,4.94.67,7.15c.05,5.87-3.75.9-7.83,5.12-2.22,2.3-4.55,4.8-4.76,8a76.39,76.39,0,0,1-2.13,11.7A7.77,7.77,0,0,1,400.65,286.21Z"/><path class="cls-5" d="M510.77,435.17a31.9,31.9,0,0,0-1.91,10.92,31.75,31.75,0,1,0,1.91-10.92Z"/><path class="cls-5" d="M432,355.12c11.33,21.69,81.32,107.47,84.46,111.52l5,4.7,45.8-43-2.78-3.13c-.52-.59-11.17-22.52-36.12-43.67-6.31-5.36-80.58-61.09-80.58-61.09l-27.62,8.89Z"/><path class="cls-12" d="M447.83,320.4s113.33,81.1,122.28,113.91"/></g></g></svg>