<svg xmlns="http://www.w3.org/2000/svg" viewBox="0 0 405.73 825.23"><defs><style>.cls-1{fill:#ffaf82;}.cls-2{fill:#006acd;}.cls-3{fill:#0188e5;}.cls-4{fill:#02b74b;}.cls-5{fill:#32324c;}.cls-6{fill:#f9bb9c;}.cls-7{fill:#f99c80;}.cls-8{fill:#dc795f;}.cls-9{fill:#920e08;}.cls-10{fill:#ff8175;}.cls-11{fill:#f88968;}.cls-12{fill:#663c36;}.cls-13{fill:none;stroke:#006acd;stroke-miterlimit:10;}</style></defs><g id="Capa_2" data-name="Capa 2"><g id="Información"><path class="cls-1" d="M138.51,701a242.48,242.48,0,0,0,13.72,24c6.76,9.94,4.76,18.82,9.37,28s-7.15,10.46-11.11.64-3.81-14.8-6-14.78-4.07,25.91-3.74,33.19,4.79,24.91,2.58,28.14-10.33-5.73-11.42-24.67-2.52-18.3-2.52-18.3-.55,7.52-1.08,15.6,1,17.54,2.28,22.78-3.73,8.79-5.8,6.21-7.73-20.65-6.8-28.25,1.46-20.44,1.46-20.44-4.31,17.84-4.8,22.33,4.29,20.55,1,24.17c-1.34,1.49-6.58.68-9.68-22.81,0,0-.21-11.68,1.06-19.15a41.82,41.82,0,0,0-3.6,13.31,115.64,115.64,0,0,0,.11,19.61c.52,6.4-5.09,6.49-7-4.65s-2.08-23.73.05-30.18.87-41.89,8-56.17Z"/><path class="cls-2" d="M128.55,282.58s32.69,194.13,27.78,242.75c0,0,3.86,117.82-16.5,179.16,0,0-16.86,7.55-35.49-3.47,0,0-8.86-125.64-4.09-180,0,0-22.87-175.19-15-204.29C88.41,304.89,97,287.8,128.55,282.58Z"/><path class="cls-3" d="M322,718.31C246.33,756,163,752.46,89,713.67,103.77,638,113.59,553.75,119.9,463.56c1.83-26.08-6.64-52.67-5.36-79.7,1.57-33.25,12.75-67.16,13.61-101.63l76.12-20.43a115.6,115.6,0,0,1,62.61.77l83.48,24.62L310.41,538.44Z"/><path class="cls-4" d="M50.41,522.53s33,155.81,44.71,242.4v22.31S81.73,774.82,34.54,521.66Z"/><path class="cls-5" d="M284.39,181.82H300.8c1.38,3.11,8.34,21-12.78,25.43,0,0-4.74,19.41-24.46,11.76C268.93,206.31,277.63,193.84,284.39,181.82Z"/><path class="cls-6" d="M261.89,209.07l-.92,23-.31,7.71-1.12,27.75s-25.76,15.67-54.36,4.89l-.76-7.22-.74-7.07-2.82-26.79Z"/><path class="cls-7" d="M261.89,209.07l-.92,23-.31,7.71c-12.22,11.26-31.16,23.69-56.24,25.42l-.74-7.07-2.82-26.79Z"/><path class="cls-7" d="M153.62,128.68s-8.44-22.5-29.53-12.66-13.1,72.91,23.69,67.75C147.78,183.77,160,158.92,153.62,128.68Z"/><path class="cls-8" d="M137.76,163.25h.13a2.94,2.94,0,0,0,2.81-3.06c-.75-17.17-13.06-28.94-13.58-29.44a2.94,2.94,0,0,0-4,4.28c.18.17,11.1,10.73,11.74,25.41A2.94,2.94,0,0,0,137.76,163.25Z"/><path class="cls-8" d="M126.52,156.22a2.93,2.93,0,0,0,2.89-2.49c0-.1.89-5.07,5-6.68a2.94,2.94,0,0,0-2.14-5.47c-7.33,2.87-8.61,10.93-8.66,11.27a2.94,2.94,0,0,0,2.47,3.34A3.25,3.25,0,0,0,126.52,156.22Z"/><path class="cls-6" d="M285.22,184.42c-.93,2.68-1.94,5.33-3.05,7.94-1,2.37-2.09,4.71-3.26,7-27.23,53.77-123.69,53.56-136.45-2.47-12.57-55.2-8.77-123-8.77-123l154.65-2.15S303.07,132.9,285.22,184.42Z"/><path class="cls-7" d="M285.22,184.42c-.93,2.68-1.94,5.33-3.05,7.94-4.84-4.58-4.35-15.28-4.35-15.28A13.69,13.69,0,0,0,285.22,184.42Z"/><circle class="cls-5" cx="230.01" cy="130.66" r="7.21"/><path class="cls-5" d="M164.37,130.66a7.21,7.21,0,1,0,7.21-7.22A7.21,7.21,0,0,0,164.37,130.66Z"/><path class="cls-5" d="M179.8,98.3s6.51,7.18,4.22,11c0,0-24.51,6.39-37.23,15.45,0,0-3.16-11.07,7-16.78S179.8,98.3,179.8,98.3Z"/><path class="cls-5" d="M220.52,98.3s-5.87,7.68-3.27,11.3c0,0,24.88,4.3,38.28,12.25,0,0,2.22-11.27-8.35-16.09S220.52,98.3,220.52,98.3Z"/><path class="cls-7" d="M202.46,172.41a29.84,29.84,0,0,0,9.1-1.52,2.93,2.93,0,0,0-1.86-5.56c-.11,0-12.19,3.82-14.61-2.49-2.29-6,1.83-23.53,5-33.2a2.93,2.93,0,1,0-5.58-1.81c-.9,2.76-8.65,27.29-4.87,37.11C191.8,170.66,197.16,172.41,202.46,172.41Z"/><path class="cls-6" d="M272.7,127.62s14.06-21.1,35.16-11.25,13.1,72.91-23.69,67.74C284.17,184.11,266.37,157.86,272.7,127.62Z"/><path class="cls-7" d="M292.74,163.25a2.93,2.93,0,0,0,2.93-2.81c.64-14.73,11.63-25.31,11.74-25.41a2.94,2.94,0,0,0-4-4.28c-.53.5-12.84,12.27-13.58,29.44a2.93,2.93,0,0,0,2.8,3.06Z"/><path class="cls-7" d="M304,156.22a3.11,3.11,0,0,0,.43,0,2.93,2.93,0,0,0,2.47-3.34c-.05-.34-1.32-8.4-8.65-11.27a2.94,2.94,0,1,0-2.14,5.47c4.13,1.62,5,6.62,5,6.67A2.93,2.93,0,0,0,304,156.22Z"/><path class="cls-5" d="M275.77,76.23s-6.52,5.62-4.43,18.51,4.72,16.59,4.72,16.59-4.16,10.6-1.58,21.56l.21-.49a33.91,33.91,0,0,1,18.62-18.58l.74-.29s23.89-1.09,25.3-28-16.17-30.17-16.17-30.17S305.07,22.78,284,16.92s-34.29,6.61-34.29,6.61-3-17.8-23-19.56c-19.55-1.72-23.95,12.6-23.95,12.6S200.48,1.69,172.61.05c-16.52-1-24.82,14-24.82,14s-4.08-10.55-28.95-7.3c-22.38,2.93-28.6,42.55-4,50.28,0,0-16.18,6-8.44,23.21s25.83,12,25.83,12,19.17,1,26.55-12.31c0,0,8.79,12.66,29.54,8.79s27.07-12,27.07-12,13.71,12.66,29.18,8.09S259.48,70.13,275.77,76.23Z"/><path class="cls-5" d="M126.93,84.2s-.41,36.16,7.09,53.32l3.69-19.1-1.17-12.6s8.56-12.72,5.1-19.52S126.93,84.2,126.93,84.2Z"/><path class="cls-5" d="M204,177.07l-.12,0h-.07l.39.06Z"/><path class="cls-5" d="M203.73,175.15l-.45-.08-1.13-.21-2.27-.4-4.53-.82-9.08-1.58c-6.08-1-12.11-2-18.38-2.88l-2.43-.29c-.87-.08-1.62-.17-2.83-.21H162a9.39,9.39,0,0,0-2.61.4,9.17,9.17,0,0,0-2.91,1.49,12.36,12.36,0,0,0-3.09,3.58,23,23,0,0,0-2.34,6,43.92,43.92,0,0,0-1,5.38,69.55,69.55,0,0,0-.4,10.25,84.92,84.92,0,0,0,.94,10.06,76.64,76.64,0,0,0,2.23,10,57.33,57.33,0,0,0,4,10,39.19,39.19,0,0,0,7,9.68,30.71,30.71,0,0,0,5.14,4.08,43.07,43.07,0,0,0,5.3,2.86A59.37,59.37,0,0,0,184.71,246,79.29,79.29,0,0,0,195,247.83a95.88,95.88,0,0,0,20.39.21,79.52,79.52,0,0,0,20.24-4.71,60.67,60.67,0,0,0,10-4.86,40.38,40.38,0,0,0,9.52-7.86,28.78,28.78,0,0,0,3.95-5.77l.1-.2.08-.15.14-.3.28-.58.54-1.18c.38-.78.72-1.58,1.05-2.37a84.92,84.92,0,0,0,5.66-19.82,83.64,83.64,0,0,0,1-10.26,73,73,0,0,0-.42-10.42c-.08-.87-.21-1.75-.35-2.63l-.21-1.36a18.87,18.87,0,0,0-.5-2.14,16.31,16.31,0,0,0-5.16-7.9,15.77,15.77,0,0,0-8.89-3.6,16.55,16.55,0,0,0-4.48.26,14.12,14.12,0,0,0-2.06.52c-.34.09-.65.22-1,.33l-.58.23c-3,1.19-5.78,2.39-8.55,3.53a133.73,133.73,0,0,1-16.35,5.76,76.13,76.13,0,0,1-8.19,1.75l-2.06.3c-.69.09-1.38.15-2.07.22l-1,.11-.8.06c-.49,0-.86.08-1.36.14ZM250,189a64.67,64.67,0,0,1-1.23,7.93,66.3,66.3,0,0,1-5.28,15.1c-.29.6-.58,1.19-.91,1.77l-.47.87-.24.44-.12.22-.06.1,0,0a9.71,9.71,0,0,1-1.38,1.67,19.43,19.43,0,0,1-4.91,3.33A40.84,40.84,0,0,1,228.6,223,93.16,93.16,0,0,1,213,225.94a103.86,103.86,0,0,1-16.24.62,76.32,76.32,0,0,1-7.86-.79,45.58,45.58,0,0,1-7.12-1.7,21.84,21.84,0,0,1-2.92-1.19,12,12,0,0,1-2.23-1.35,20.22,20.22,0,0,1-4.3-4.69A49.67,49.67,0,0,1,166,202.59a65.13,65.13,0,0,1-1.79-8.06,53.48,53.48,0,0,1-.68-8.07,33.06,33.06,0,0,1,.22-3.71l.18-1.87h0c.74.26,24.7,8.31,38.32,8.31h0c1,0,2,0,3,0l1.51,0,1.25-.07c.83,0,1.67-.07,2.5-.14l2.49-.23a89.06,89.06,0,0,0,9.83-1.58,147,147,0,0,0,18.54-5.47c2.94-1,8.22-3,8.58-3v.48c.07.64.12,1.28.14,1.93A56.47,56.47,0,0,1,250,189Z"/><path class="cls-7" d="M215,216.39a1.82,1.82,0,0,0-1,.28c-10.79,6.78-21.59.83-22,.57a1.85,1.85,0,0,0-1.82,3.21c.53.3,13.14,7.32,25.83-.66a1.84,1.84,0,0,0-1-3.4Z"/><path class="cls-9" d="M190.67,204.39a12.1,12.1,0,0,0,11.81,12.38,12.12,12.12,0,0,0,11.67-8,12.3,12.3,0,0,0,.71-3.77,12.1,12.1,0,1,0-24.19-.57Z"/><path class="cls-10" d="M192.24,210.64a12.09,12.09,0,0,0,21.91-1.91c-2.22-1-6.4-2.26-12.6-1.31C197.85,208.05,194.53,209,192.24,210.64Z"/><path class="cls-11" d="M127.84,489.12s-7.28-1.47-18.7-.36c0,0-41.74-8-56.16-3,0,0-27.76,3.85-39.7,4.1,0,0-8.83,0-9.85,3.4S.53,524.31.53,524.31s-4.9,6.94,15.16,7.18c0,0,.64,5,4.66,7.49s10.27.49,22.35-8.79c0,0,16.66-5,20.95-16.56,0,0-1.18-3.65,13-2.74l51.18-1.6Z"/><path class="cls-1" d="M127.84,487.41a57.81,57.81,0,0,0-20.57-1.73s-44.82-4.21-59.24.74c0,0-21.65,4.71-33.59,4.95,0,0-8.83,0-9.85,3.41s-4.06,34-4.06,34-4.9,7,15.16,7.19c0,0,.64,5,4.66,7.48s10.27.49,22.35-8.78c0,0,16.66-5,20.95-16.57,0,0,7.87-.48,26.76,2.08L131.08,525Z"/><path class="cls-11" d="M15.69,536c5.2-.35,17.74-9,18.85-14.29.61-2.84-.18-3.59-2.81-3.47-7,.32-13-2-17.44-7.7-.4-.5-.5-1.34-1.74-1.38a11.92,11.92,0,0,0,4.54,6.23c1.31,1,2.69,2.31,1.44,3.16-2.72,1.84-8.79,8-8,7.76,2.58-.9,3.21-.63,4.52.66.34.33,1.79,1.15,1.68.71a9.68,9.68,0,0,1,.1-5c.54-1.84,1.28-4.33,4.38-5.22,2.45-.69,6.53,1.34,7.65,3.35.9,1.63-.21,6-1.29,7.25-3.27,3.74-10.53,8-11.85,8"/><path class="cls-11" d="M34.54,521.66c.61-2.84-.18-3.59-2.81-3.47-7,.32-13-2-17.44-7.7-.4-.5-.5-1.34-1.74-1.38a11.92,11.92,0,0,0,4.54,6.23c1.31,1,12.83,2.46,11.74,5.38Z"/><path class="cls-4" d="M39.49,487.57s-11.4,1.3-15.44,1.62c0,0-10.72,12.4-5.47,25.58a18.6,18.6,0,0,0,11.69,3.45S28.56,511.41,39.49,487.57Z"/><rect class="cls-12" x="92.37" y="495.78" width="313.36" height="329.46" transform="translate(498.09 1321.01) rotate(-180)"/><path class="cls-3" d="M79.22,519.48s200.36,27.75,247.69,1.15c39.41-22.16,34.32-67.33,65.89-179.43,0,0,19.63-35.94-45-54.7L298.46,461.33c-34.89,3.95-216.83,22.78-216.83,22.78S74.71,502.13,79.22,519.48Z"/><path class="cls-13" d="M321.51,352.44s-16.46,48.62-20.2,86.77"/></g></g></svg>