<svg xmlns="http://www.w3.org/2000/svg" viewBox="0 0 820.37 841.5"><defs><style>.cls-1{fill:#d67878;}.cls-2{fill:#ea8888;}.cls-3{fill:none;stroke:#aed4de;stroke-miterlimit:10;stroke-width:6px;}.cls-4{fill:#f9dad2;}.cls-5{fill:#edad9b;}.cls-6{fill:#aed4de;}.cls-7{fill:#007054;}.cls-8{fill:#32324c;}.cls-9{fill:#f4c6bd;}.cls-10{fill:#fff;}.cls-11{fill:#920e08;}.cls-12{fill:#f85c66;}.cls-13{opacity:0.07;}.cls-14{opacity:0.15;}</style></defs><g id="Capa_2" data-name="Capa 2"><g id="Información"><path class="cls-1" d="M428.12,837.2c-7.78-73.09-1.25-125.29-1.25-125.29,34.73-15.9,89-33.92,89-33.92,7,39.9,12.22,99,16,157Z"/><path class="cls-2" d="M317.27,837.2c-.09-47,2.31-96,9.59-138.43l113.41,13.14s-3.57,55.25-10.77,129.48Z"/><path class="cls-2" d="M331,664.17c-4.5,23.76-8.42,63.47,3.57,103.39,0,0,83.7,20.79,142.56-26C515.62,711,517.43,675.22,517,664.17Z"/><path class="cls-3" d="M344,681.73s-11,79-8.07,159.66"/><path class="cls-3" d="M358.61,686.12s-6.61,73-8.16,155.28"/><path class="cls-4" d="M818,340c-4.58-9.62-10.89-17.55-16.18-26.37a4.39,4.39,0,0,0-6.43-1.58c-7.76,5.71-17.56,8.62-23.84,16.38-26.42-3.33-84.76-6.78-86.6-7.37-44.16-14.13-176.12-46.51-183.37-53-11.8-10.6-25.63-10.44-39.64-8,0,0-4,9.78-2.83,10,7.87,4.78,35.18,58.07,36.47,70.26,3.11-2.13,11.51-2.62,15-2.62,29.79,0,61.51,17.64,91.3,17.59,3.22,0,6.37.24,9.16,1.87,6.67,3.89,13.9,3.94,21.36,4.1,48.28,1.07,96.64-6.72,144.86,1.22,3.72-.61,7.43-1.24,11.17-.08,6.89.32,12.86-2.9,19.06-5.13C815.45,354.42,824.84,354.38,818,340Z"/><path class="cls-5" d="M349.84,427l.75,2.41C349.15,429,349.1,428.11,349.84,427Z"/><path class="cls-6" d="M524.69,668.54c-101.46,51.68-202.85,8.65-202.85,8.65,13.93-88.28,55.38-140.32,35.48-182.25C326.57,430.18,307,273.46,307,273.46c16.32-5.37,24-7.69,42.77-12.63,5.28-1.39,10.14-2.57,14.29-3.52,8.5-1.94,14-2.93,14-2.93,25.6-3.49,52.22-1.62,71.61.89l.39,0c17,2.22,28.36,4.95,28.36,4.95s7.79,58.85,24.6,88.62,4,47.78,0,60.76a45.34,45.34,0,0,0-1.47,9.73c-1.12,16.26-4.18,69.64-2.5,92.78C501.85,551.68,524.69,668.54,524.69,668.54Z"/><path class="cls-4" d="M430,311.4c-27.85.86-52.79-30.4-65.94-54.09,8.5-1.94,14-2.93,14-2.93,25.6-3.49,52.22-1.62,71.61.89l.39,0C453.39,279.14,459.27,310.48,430,311.4Z"/><path class="cls-7" d="M503,409.65a44.62,44.62,0,0,0-1.47,9.73c-49.19,25.29-100.15,10.86-100.15,10.86C467.54,429.12,503,409.65,503,409.65Z"/><path class="cls-4" d="M319,350.81c-3-9.12-23.19-4.31-29,1.06-15.11,13.87-95.9,19.21-116.63,23.91-19.32,4.38-39.72,1.78-59.55.71-18.6-1-40.6-19.91-59-14.56,0,0,9.1,26.38-40.77,24.5-3.68.27-7.37,1.6-11-.19l-.5-6.91L1.17,368.87c-3-10.23-.41-18.47,8.74-24.4A11.66,11.66,0,0,0,13,341.63c12-16.5,27.14-19.2,45.31-10.9,5,2.29,10.51,1.19,16.29-.18,27.15-6.43,53.82-15.32,81.91-17.34,15-1.08,30-1,45-1.6,24.78-1,46-10.85,66.4-23.14,21.81-13.1,36.22-18.36,61.51-22.06.05,4.34,8,22.66,8.62,26.72C344.39,337.07,324.22,366.61,319,350.81Z"/><path d="M792.57,335.89c3.54-.24,9.22-2.76,10,3.7.73,6.26-5.93,5.93-10.28,6.26-13.42,1-716.18,22.43-752.3,24a13.18,13.18,0,0,1-3.17.19c-3.69-.77-9.88,2.19-10-4.2-.15-5.56,5.6-5.62,9.74-5.81C62.69,358.86,784.79,336.4,792.57,335.89Z"/><circle class="cls-8" cx="308" cy="202.77" r="31.24"/><circle class="cls-8" cx="290.36" cy="157.94" r="21.84"/><circle class="cls-8" cx="293.64" cy="179.34" r="21.84"/><circle class="cls-8" cx="297.95" cy="126.06" r="21.19"/><circle class="cls-8" cx="323.81" cy="226.86" r="21.19"/><circle class="cls-8" cx="342.82" cy="245.11" r="21.19"/><circle class="cls-8" cx="364.01" cy="245.11" r="21.19"/><circle class="cls-8" cx="308" cy="102.07" r="27.13"/><circle class="cls-8" cx="312.19" cy="74.94" r="32.43"/><path class="cls-8" d="M412.29,5.77c0,14.09-59,59.1-73,59.1S298,73.27,298,59.18s21.19-33.89,41.3-45.3C351.49,6.93,412.29-8.31,412.29,5.77Z"/><circle class="cls-8" cx="496.62" cy="202.77" r="31.24"/><circle class="cls-8" cx="514.27" cy="157.94" r="21.84"/><circle class="cls-8" cx="510.98" cy="179.34" r="21.84"/><circle class="cls-8" cx="506.68" cy="126.06" r="21.19"/><circle class="cls-8" cx="480.82" cy="226.86" r="21.19"/><circle class="cls-8" cx="461.8" cy="245.11" r="21.19"/><circle class="cls-8" cx="496.63" cy="102.07" r="27.13"/><circle class="cls-8" cx="492.43" cy="74.94" r="32.43"/><path class="cls-8" d="M392.34,5.77c0,14.09,59,59.1,73,59.1s41.3,8.4,41.3-5.69-21.19-33.89-41.3-45.3C453.14,6.93,392.34-8.31,392.34,5.77Z"/><path class="cls-8" d="M459.2,245.83a41.15,41.15,0,0,0,36.19-45.05c-4.78-49.38,2.05-89.37-3.74-119.6C487.4,58.92,478.28,23.66,441,8.09c-54.08-22.58-100.84,5.05-120.4,52.51-7.07,17.17-10.34,28-14.75,61.45-3.19,24.16-.15,43.36-.58,59.55a61.64,61.64,0,0,0,53.36,62.8C391.21,248.77,429,249.19,459.2,245.83Z"/><path class="cls-9" d="M464.22,120.08s15.9-18.14,28.86-2.38c11.41,13.87,4.31,50.56-23.48,49.54Z"/><path class="cls-10" d="M492,165a7,7,0,1,1-7-7A7,7,0,0,1,492,165Z"/><path class="cls-4" d="M441.16,259.79c-1.26,16.65-38.17,25.95-59.65-2.65l-2.77-36.62-2-26.89,67.84,13.16-2.71,42.32Z"/><path class="cls-9" d="M441.52,254.21c-23.1,0-49.11-15.2-62.17-25.61l-2.64-35,67.84,13.16Z"/><path class="cls-4" d="M411.71,225.4c-66.27-15.16-78.31-102-78.31-102a97.62,97.62,0,0,1,.89-14.29,110,110,0,0,1,3.24-15.84c4.75-16.69,15-35.72,36.73-44,.68-.26,1.37-.52,2.07-.76,36.13-12.81,89-6.82,105,41a78.24,78.24,0,0,1,2.45,9.26c.39,1.89.73,3.85,1,5.86C492,154,471.27,239,411.71,225.4Z"/><path class="cls-8" d="M398.52,136.67a8.51,8.51,0,0,1-9.62-7.22,8.33,8.33,0,0,1,.66-4.66c-7-.82-6.82-5.05-6.82-5.05,1.08,1.81,9.22.76,12.58.24h0l1-.16h0a2.71,2.71,0,0,1,.4,0,8.5,8.5,0,0,1,1.73,16.9Z"/><path class="cls-4" d="M344.81,125.15s-23.78-13-31.39,8.61c-6.7,19,14.94,55.05,43.9,43.26Z"/><path class="cls-10" d="M347.44,178.55a7,7,0,1,1-7-7A7,7,0,0,1,347.44,178.55Z"/><path class="cls-11" d="M451.55,188.51a22.87,22.87,0,0,1-4.19,6.37c-3.71,3.92-9.36,6.78-18,6.76-7.24,0-12.91-4-17.11-8.83a48.78,48.78,0,0,1-6.55-9.87,50.82,50.82,0,0,1-2.75-6.29s34.69-1.08,51.29-3.53h0a34.93,34.93,0,0,1-.35,6.81A31.41,31.41,0,0,1,451.55,188.51Z"/><path class="cls-10" d="M453.94,179.94c-15.82,3.08-41.42,2.84-48.2,3a50.82,50.82,0,0,1-2.75-6.29s34.69-1.08,51.29-3.53h0A34.93,34.93,0,0,1,453.94,179.94Z"/><path class="cls-9" d="M346.29,161.29c-2.06-6.26-7.93-19.15-22.48-24.9,0,0,15.54,14.65,16.72,26A2.82,2.82,0,0,0,343.4,165h.34A2.78,2.78,0,0,0,346.29,161.29Z"/><path class="cls-12" d="M447.36,194.88c-3.71,3.92-9.36,6.78-18,6.76-7.24,0-12.91-4-17.11-8.83,2.3-1.31,8.7-4.05,17.79-1,0,0,3.23-1.95,8.89-1.29C442.26,190.87,445.23,192,447.36,194.88Z"/><path class="cls-9" d="M425.87,211.73a31.52,31.52,0,0,1-11.08-4.41,1.93,1.93,0,1,1,2.19-3.19c.52.36,12.44,8.29,25,1.59a1.93,1.93,0,0,1,1.81,3.42A26.69,26.69,0,0,1,425.87,211.73Z"/><path class="cls-9" d="M434.49,165.23H424.43a2.07,2.07,0,1,1,0-4.13h10.06a.43.43,0,0,0,.37-.19.44.44,0,0,0,.07-.41l-8.35-28.59a2.07,2.07,0,0,1,4-1.16l8.35,28.59a4.59,4.59,0,0,1-4.41,5.89Z"/><path class="cls-8" d="M409.11,101.76h0a4,4,0,0,1-3.48,4.69c-7.74.76-23.81,3.37-31.06,12.21,0,0,1.58-14.52,29.88-20A4,4,0,0,1,409.11,101.76Z"/><path class="cls-8" d="M441,101.52h0a4,4,0,0,0,4.25,4c7.75-.6,24-.83,32.71,6.61,0,0-4.09-14-32.91-14.52A4,4,0,0,0,441,101.52Z"/><path class="cls-8" d="M454.67,135.59a8.52,8.52,0,0,0,9.62-7.23,8.36,8.36,0,0,0-.67-4.66c7-.81,6.82-5,6.82-5-1.08,1.81-9.21.76-12.58.24h0l-1-.17h0a2.6,2.6,0,0,0-.4,0,8.5,8.5,0,0,0-1.72,16.9Z"/><path class="cls-8" d="M380,53.11s-3.33,58.15-30.44,81.63c0,0-2.34-15.42-23.44-13.11,0,0-2-3.61-5.1-21.1s8-89.71,88.12-85.06c0,0,25.47-5.17,61.12,25.32s14.53,63.82,14.53,63.82S425.36,96.39,380,53.11Z"/><path class="cls-6" d="M326.16,121.63S317.71,21,392.34,21c0,0,94.7-10.46,93.15,89.11,0,0,12.31-116.37-105.55-97.11C351.08,17.67,320.61,37.81,326.16,121.63Z"/><path d="M5.05,348.47s18.8.53,21.7,16.14h6.78S32.64,345.49,12,342.79Z"/><path class="cls-13" d="M32.45,370.16s-8.91-1.81-11.67,2.19"/><path class="cls-14" d="M26.76,365.89s-4.58-4.13-4.59,5.16"/><path d="M773.49,326.3s19.75,6.84,21.75,14.18l6.13-1.93s3.55-6.14-21.66-17.13Z"/><path d="M794,336.42s13.14-14.53,14.58-12.35,3,4.5,3,4.5l-9.9,14.59Z"/></g></g></svg>