<svg xmlns="http://www.w3.org/2000/svg" viewBox="0 0 402.06 842.46"><defs><style>.cls-1{fill:#f8e8d8;}.cls-2{fill:#d1140b;}.cls-3{fill:#ffaf82;}.cls-4{fill:#2c2c2c;}.cls-5{fill:#d37157;}.cls-6{fill:#b55441;}.cls-7{fill:#e34333;}.cls-8{fill:#f88968;}.cls-9{fill:#5c7aea;}.cls-10{fill:#667ef7;}.cls-11{fill:#fbc0a4;}</style></defs><g id="Capa_2" data-name="Capa 2"><g id="Información"><path class="cls-1" d="M356.77,252.28a36.5,36.5,0,0,1,7.48,10.44,35.47,35.47,0,0,1,1.23,27.88,36.37,36.37,0,0,1-19.31,20.49,38.18,38.18,0,0,1-42.11-7.35,36.72,36.72,0,0,1-7.49-10.45,35.49,35.49,0,0,1-1.23-27.87,36.34,36.34,0,0,1,19.3-20.5A38.2,38.2,0,0,1,356.77,252.28Z"/><path class="cls-2" d="M399,97.9C397.79,126,367.7,282.08,366.38,287.82l-3,7.32-70.28-22.65,1.4-4.61c.26-.86,6.6-21.58,22.6-55.68,4-8.64,25.66-125.1,25.66-125.1l56.58,6.44Z"/><path class="cls-2" d="M303.29,429.62a43.11,43.11,0,0,0-12.06-8.88,43.89,43.89,0,0,0-32.94-2.58c-11,3.47-16.93,10.94-22.14,21-8.16,15.68-8.31,34.86,4,47.78a43.46,43.46,0,0,0,12.06,8.88c21.22,10.57,47.25,2.35,58-18.34A41.56,41.56,0,0,0,303.29,429.62Z"/><path class="cls-2" d="M300.63,256l-3.51,5.47c-2.58,5-52.92,123.81-62.87,177.65l-5.55,22.1,75,25.46,19-23.23C339,403.09,358.6,306.16,363.83,294.32l1.82-4.1Z"/><path class="cls-2" d="M357.74,253.25a38.09,38.09,0,0,0-36.33-10.65c-20,4.78-32.19,24.55-27.22,44.07a36.2,36.2,0,0,0,8.9,16.07,38,38,0,0,0,36.32,10.65,36.87,36.87,0,0,0,23-16.49,35.45,35.45,0,0,0,4.24-27.57A36.43,36.43,0,0,0,357.74,253.25Z"/><path class="cls-3" d="M397.38,30.77c.31,1.39.6,2.82.87,4.3.06.33.11.66.18,1v0c.48,2.69.88,5.52,1.2,8.42h0c1.8,16.33.95,35.27-6,49.24,0,0-29.67-1-36.63-4.91,0,0-12-10.33-20.21-21.46,0,0-11.59-13.26-11.12-20.51s6.94-10.53,6.94-10.53l-.95-2.49c-1.36-3.61-3.79-10.07-4.56-12.21C323,10,331.81,2.07,342.19,19c-.42-1.61-3.66-12.83,4.67-16.31,5.86-2.46,12.55,12,12.55,12S361.79-.23,367.66,0c6.43.27,10.2,15.14,10.35,15.73.19-.49,3.24-8.59,10.49-5.6C391.38,11.33,394.91,19.49,397.38,30.77Z"/><path class="cls-2" d="M125.5,370.75c-3-24-68.22,10.42-81.84,30.39C24.5,429.23,14.91,457.9,9,537.81-2.38,691.17,4.32,664.26,77.35,621.24,77.35,621.24,136.11,456.75,125.5,370.75Z"/><path class="cls-4" d="M65.22,827.82c-.16-52.23,12.9-93.46,12.9-93.46,84.77-5.42,218.08,0,218.08,0l.54,1.51s13.7,56.29,5.69,94.37c-38.87,23.82-78,5.42-115.45,5.78C145,836.43,105,852.78,65.22,827.82Z"/><path class="cls-4" d="M133.49,305.49c-35.41,8.91-45.87-28.62-45.87-28.62C57.8,268.18,64.46,237,64.46,237s-10.88-3.49-14-24,12.84-27.78,12.84-27.78-19.44-17-10.82-38.49,32.05-14.35,32.05-14.35S76.2,104,95.6,92.33c23.6-14.23,39.52,3,39.52,3s.12-21.23,21.19-27.48c26.14-7.74,43,17.63,43,17.63S211.84,70.57,228,72c25.2,2.14,22.6,24.55,22.6,24.55,7.79-7.54,30.64-1.7,34.61,17.44,3.06,14.79-2.53,21.66-2.53,21.66s23.45,1.35,20.82,28.06c-1.2,12.12-10.81,15.65-16.42,20,0,0,16,.66,15.64,22.3s-13.41,24.78-13.41,24.78,7.73,10.29.14,31.14-21.65,19.36-21.65,19.36-6.71,23.86-30.31,28.17C191.58,317.81,133.49,305.49,133.49,305.49Z"/><path class="cls-5" d="M216.93,317.88l-1.11,20.87-1.39,26.14s-5.19,9.84-28.62,9.84S157.58,368,157.58,368l-.94-11.6-3.15-38.52Z"/><path class="cls-6" d="M216.93,317.88l-1.11,20.87c-9.77,7.31-32.9,21.7-59.18,17.65l-3.15-38.52Z"/><path class="cls-4" d="M267.5,209.18c-.29,3.38-.63,6.84-1,10.35-6.09,53.21-25.36,118.85-83.53,118.85-55.8,0-76.9-59.63-84.7-110.85-.84-5.71-1.55-11.3-2.13-16.72-5.3-49.75,33.32-93.54,83.32-94.12h4.46A85.19,85.19,0,0,1,267.5,209.18Z"/><path class="cls-7" d="M70.59,755.87c72.41,44.62,150.85,55,231.4-.06l-4.42-134-1.16-122.91c0-3.35-26.25-51.54-13.85-126.6L217,352.5a124,124,0,0,0-31.78-4.2c-10.68,0-52.11,9.26-62.53,12.06,0,0-38.6,4.06-57,21.59-1.31,1.26,25.94,90.89,2.16,126.71l5,113.1Z"/><path class="cls-8" d="M354,48.25s14.78,2.37,17.85,24.12c0,0,6.64-19.77-17.42-28Z"/><path class="cls-9" d="M335,11.78s-15.9,22.55,12.09,37.35c0,0,27.71,10,53.38,8.73,0,0,4.17-8.25-.95-14.28l-1.42,3.53S335.84,41.48,335,11.78Z"/><path class="cls-10" d="M366.12,42.91,247.64,510.28,209.07,464,348.76,42.31s.16-14.17,10.9-12.7C367.78,30.72,366.12,42.91,366.12,42.91Z"/><path class="cls-3" d="M338.5,2.91C343.08,1,350.39,8.3,354.82,19.14s5.24,18.81-.28,23c-3.94,3-11.88-5.39-16.31-16.22S333.92,4.78,338.5,2.91Z"/><ellipse class="cls-3" cx="362.51" cy="23.78" rx="8.96" ry="16.91" transform="translate(6.55 96.38) rotate(-15.28)"/><path class="cls-8" d="M387.83,30.24c.29,1.34.55,2.71.81,4.14-1.25,2.63-3.32,5.34-6.72,6.31-7.34,2.07-9.68-5.78-9.68-5.78s.13,6.74-5,7.2a8.5,8.5,0,0,1-7.73-3.91s-1.18,5.94-5.61,6.38-11-9.87-11-9.87,5.44,5.88,9.43,6.71,7.14-4.17,4.54-11.42c.28.8,3,8.18,8.66,8.72,5.81.55,5.93-11.51,5.93-12.16.18.66,3.41,12.76,8.91,12C384.12,38,386.57,33.86,387.83,30.24Z"/><path class="cls-3" d="M322.86,49.83c-.23-6.6,4.06-11.32,13.53-11.66S352.2,40.63,354,49.5c1.27,6.33-7.25,12.22-16.72,12.56S323.1,56.42,322.86,49.83Z"/><path class="cls-8" d="M334.51,38.31s12.09-.5,17.12,6.81.38,17.1-18.49,16.51c0,0,6.88,3,15.33-1.24s8.15-14,4.47-17.34S344.87,37.74,334.51,38.31Z"/><path class="cls-11" d="M184.42,517.22a15.88,15.88,0,1,1-3.12,22.24A15.88,15.88,0,0,1,184.42,517.22Z"/><path class="cls-3" d="M249.72,491.84c1.64,3.88,5,7.25,3.45,12.13-1.66,5.38-8.4,9.3-12.5,12.6A387.49,387.49,0,0,1,201.31,544l-16.89-26.76c-.42-.67,5.66-14.13,6.1-15.71,2-7.14.5-15.26,1.13-22.7.67-7.84.24-16,2.38-23.62,2.67-9.52,6.19-7.89,13.91-5.15,12.72,4.5,10.91,1.69,19.64-6.17,2.36-2.12,6.7-4.54,9.69-3.49,2.5.88,5.11,3.6,5,6.25s-2.26,5.55-3,8.11c-1.84,6.82,4.09,2.19,7.55,8.35,1.88,3.35,3.83,7,3.1,10.74a93,93,0,0,0-1.09,14.25A9.56,9.56,0,0,0,249.72,491.84Z"/><path class="cls-2" d="M76.19,631.54A38.18,38.18,0,1,1,48,598.16,38.17,38.17,0,0,1,76.19,631.54Z"/><path class="cls-2" d="M192.19,562.42c-19.8,21.78-127.38,100.22-132.27,104l-7.26,3.94L12.51,606.29l4.19-2.79c.79-.53,19.86-22.8,55.33-39.79,9-4.31,112.39-46.49,112.39-46.49L213.83,536Z"/></g></g></svg>