<svg xmlns="http://www.w3.org/2000/svg" viewBox="0 0 397.47 825.23"><defs><style>.cls-1{fill:#02b74b;}.cls-2{fill:#ffaf82;}.cls-3{fill:#006acd;}.cls-4{fill:#0188e5;}.cls-5{fill:#32324c;}.cls-6{fill:#f9bb9c;}.cls-7{fill:#f99c80;}.cls-8{fill:#dc795f;}.cls-9{fill:#920e08;}.cls-10{fill:#ff8175;}.cls-11{fill:#f88968;}.cls-12{fill:#663c36;}.cls-13{fill:none;stroke:#006acd;stroke-miterlimit:10;}</style></defs><g id="Capa_2" data-name="Capa 2"><g id="Información"><path class="cls-1" d="M38.47,536.18S67.21,685.35,87.21,731.35v45s-14.84-.89-65.92-241Z"/><path class="cls-2" d="M130.25,701A242.48,242.48,0,0,0,144,725c6.76,9.94,4.76,18.82,9.37,28s-7.15,10.46-11.11.64-3.81-14.8-6-14.78-4.07,25.91-3.75,33.19,4.8,24.91,2.59,28.14-10.33-5.73-11.42-24.67-2.52-18.3-2.52-18.3-.55,7.52-1.08,15.6,1,17.54,2.28,22.78-3.73,8.79-5.8,6.21-7.73-20.65-6.8-28.25,1.46-20.44,1.46-20.44-4.31,17.84-4.8,22.33,4.29,20.55,1,24.17c-1.34,1.49-6.59.68-9.68-22.81,0,0-.21-11.68,1.06-19.15A41.82,41.82,0,0,0,95.23,771a115.64,115.64,0,0,0,.11,19.61c.52,6.4-5.09,6.49-7-4.65s-2.08-23.73,0-30.18.87-41.89,8-56.17Z"/><path class="cls-3" d="M120.29,282.58S153,476.71,148.07,525.33c0,0,3.86,117.82-16.5,179.16,0,0-16.86,7.55-35.49-3.47,0,0-8.86-125.64-4.09-180,0,0-22.87-175.19-15-204.29C80.15,304.89,88.71,287.8,120.29,282.58Z"/><path class="cls-4" d="M313.7,718.31c-75.63,37.73-159,34.15-233-4.64C95.51,638,105.33,553.75,111.64,463.56c1.83-26.08-6.64-52.67-5.36-79.7,1.57-33.25,12.75-67.16,13.61-101.63L196,261.8a115.63,115.63,0,0,1,62.62.77l83.48,24.62-40,251.25Z"/><path class="cls-5" d="M276.13,181.82h16.41c1.38,3.11,8.34,21-12.78,25.43,0,0-4.74,19.41-24.46,11.76C260.67,206.31,269.37,193.84,276.13,181.82Z"/><path class="cls-6" d="M253.63,209.07l-.93,23-.3,7.71-1.12,27.75s-25.76,15.67-54.36,4.89l-.76-7.22-.74-7.07-2.82-26.79Z"/><path class="cls-7" d="M253.63,209.07l-.93,23-.3,7.71c-12.22,11.26-31.16,23.69-56.24,25.42l-.74-7.07-2.82-26.79Z"/><path class="cls-7" d="M145.36,128.68s-8.44-22.5-29.53-12.66-13.1,72.91,23.69,67.75C139.52,183.77,151.69,158.92,145.36,128.68Z"/><path class="cls-8" d="M129.5,163.25h.13a2.94,2.94,0,0,0,2.81-3.06c-.75-17.17-13.06-28.94-13.58-29.44a2.94,2.94,0,0,0-4,4.28c.18.17,11.1,10.73,11.74,25.41A2.94,2.94,0,0,0,129.5,163.25Z"/><path class="cls-8" d="M118.26,156.22a2.93,2.93,0,0,0,2.89-2.49c0-.1.89-5.07,5-6.68a2.94,2.94,0,0,0-2.14-5.47c-7.33,2.87-8.61,10.93-8.66,11.27a2.94,2.94,0,0,0,2.47,3.34A3.25,3.25,0,0,0,118.26,156.22Z"/><path class="cls-6" d="M277,184.42c-.93,2.68-1.94,5.33-3,7.94-1,2.37-2.09,4.71-3.26,7C243.42,253.14,147,252.93,134.2,196.9c-12.57-55.2-8.77-123-8.77-123l154.65-2.15S294.81,132.9,277,184.42Z"/><path class="cls-7" d="M277,184.42c-.93,2.68-1.94,5.33-3,7.94-4.84-4.58-4.35-15.28-4.35-15.28A13.69,13.69,0,0,0,277,184.42Z"/><circle class="cls-5" cx="221.75" cy="130.66" r="7.21"/><path class="cls-5" d="M156.11,130.66a7.21,7.21,0,1,0,7.21-7.22A7.21,7.21,0,0,0,156.11,130.66Z"/><path class="cls-5" d="M171.54,98.3s6.51,7.18,4.22,11c0,0-24.51,6.39-37.23,15.45,0,0-3.16-11.07,7-16.78S171.54,98.3,171.54,98.3Z"/><path class="cls-5" d="M212.26,98.3S206.39,106,209,109.6c0,0,24.88,4.3,38.28,12.25,0,0,2.22-11.27-8.35-16.09S212.26,98.3,212.26,98.3Z"/><path class="cls-7" d="M194.2,172.41a29.84,29.84,0,0,0,9.1-1.52,2.93,2.93,0,0,0-1.86-5.56c-.12,0-12.19,3.82-14.61-2.49-2.3-6,1.83-23.53,5-33.2a2.93,2.93,0,1,0-5.58-1.81c-.9,2.76-8.65,27.29-4.87,37.11C183.54,170.66,188.9,172.41,194.2,172.41Z"/><path class="cls-6" d="M264.44,127.62s14.06-21.1,35.16-11.25,13.1,72.91-23.69,67.74C275.91,184.11,258.11,157.86,264.44,127.62Z"/><path class="cls-7" d="M284.48,163.25a2.94,2.94,0,0,0,2.93-2.81c.64-14.73,11.63-25.31,11.74-25.41a2.94,2.94,0,0,0-4-4.28c-.53.5-12.84,12.27-13.58,29.44a2.93,2.93,0,0,0,2.8,3.06Z"/><path class="cls-7" d="M295.73,156.22a3.11,3.11,0,0,0,.43,0,2.94,2.94,0,0,0,2.47-3.34c-.05-.34-1.32-8.4-8.65-11.27a2.94,2.94,0,1,0-2.14,5.47c4.13,1.62,5,6.62,5,6.67A2.93,2.93,0,0,0,295.73,156.22Z"/><path class="cls-5" d="M267.51,76.23s-6.52,5.62-4.43,18.51,4.72,16.59,4.72,16.59-4.16,10.6-1.58,21.56l.21-.49A33.93,33.93,0,0,1,285,113.82l.75-.29s23.89-1.09,25.3-28-16.17-30.17-16.17-30.17,1.89-32.53-19.21-38.39-34.29,6.61-34.29,6.61-3-17.8-23-19.56c-19.55-1.72-24,12.6-24,12.6S192.22,1.69,164.35.05c-16.52-1-24.82,14-24.82,14s-4.09-10.55-28.95-7.3C88.2,9.65,82,49.27,106.59,57c0,0-16.17,6-8.43,23.21s25.83,12,25.83,12,19.17,1,26.55-12.31c0,0,8.79,12.66,29.54,8.79s27.07-12,27.07-12,13.71,12.66,29.18,8.09S251.22,70.13,267.51,76.23Z"/><path class="cls-5" d="M118.67,84.2s-.41,36.16,7.09,53.32l3.69-19.1-1.17-12.6s8.56-12.72,5.1-19.52S118.67,84.2,118.67,84.2Z"/><path class="cls-5" d="M195.73,177.07l-.12,0h-.07l.39.06Z"/><path class="cls-5" d="M195.47,175.15l-.45-.08-1.13-.21-2.27-.4-4.53-.82L178,172.06c-6.08-1-12.11-2-18.38-2.88l-2.43-.29c-.87-.08-1.62-.17-2.83-.21h-.61a8.46,8.46,0,0,0-.87,0,8.66,8.66,0,0,0-1.74.35,9.17,9.17,0,0,0-2.91,1.49,12.21,12.21,0,0,0-3.09,3.58,23,23,0,0,0-2.34,6,43.92,43.92,0,0,0-1,5.38,68.2,68.2,0,0,0-.4,10.25,84.92,84.92,0,0,0,.94,10.06,76.64,76.64,0,0,0,2.23,10,57.33,57.33,0,0,0,4,10,38.93,38.93,0,0,0,7,9.68,30.71,30.71,0,0,0,5.14,4.08,42.36,42.36,0,0,0,5.3,2.86A59.37,59.37,0,0,0,176.45,246a79.29,79.29,0,0,0,10.27,1.81,95.88,95.88,0,0,0,20.39.21,79.52,79.52,0,0,0,20.24-4.71,60.67,60.67,0,0,0,10-4.86,40.38,40.38,0,0,0,9.52-7.86,28.78,28.78,0,0,0,4-5.77l.1-.2.08-.15.14-.3.27-.58.55-1.18c.38-.78.72-1.58,1.05-2.37a84.92,84.92,0,0,0,5.66-19.82,83.64,83.64,0,0,0,1-10.26,74.44,74.44,0,0,0-.42-10.42c-.08-.87-.21-1.75-.35-2.63l-.21-1.36a18.87,18.87,0,0,0-.5-2.14,16.31,16.31,0,0,0-5.16-7.9,15.77,15.77,0,0,0-8.89-3.6,16.55,16.55,0,0,0-4.48.26,14.12,14.12,0,0,0-2.06.52c-.34.09-.65.22-1,.33l-.58.23c-2.95,1.19-5.78,2.39-8.55,3.53a133.73,133.73,0,0,1-16.35,5.76,76.13,76.13,0,0,1-8.19,1.75l-2.06.3c-.69.09-1.38.15-2.07.22l-1,.11L197,175c-.49,0-.86.08-1.37.14ZM241.72,189a64.67,64.67,0,0,1-1.23,7.93,66.3,66.3,0,0,1-5.28,15.1c-.29.6-.58,1.19-.91,1.77l-.47.87-.24.44-.12.22-.06.1,0,0a10.2,10.2,0,0,1-1.38,1.67,19.32,19.32,0,0,1-4.92,3.33,40.16,40.16,0,0,1-6.75,2.56,92.85,92.85,0,0,1-15.55,2.93,103.86,103.86,0,0,1-16.24.62,76.8,76.8,0,0,1-7.87-.79,45.72,45.72,0,0,1-7.11-1.7,21.84,21.84,0,0,1-2.92-1.19,12,12,0,0,1-2.23-1.35,20,20,0,0,1-4.3-4.69,50,50,0,0,1-6.4-14.25,67,67,0,0,1-1.78-8.06,53.48,53.48,0,0,1-.68-8.07,33.06,33.06,0,0,1,.22-3.71l.18-1.87h0c.74.26,24.7,8.31,38.32,8.31h0c1,0,2,0,3,0l1.51,0,1.25-.07c.83,0,1.67-.07,2.5-.14l2.49-.23a89.44,89.44,0,0,0,9.83-1.58,147,147,0,0,0,18.54-5.47c2.94-1,8.22-3,8.58-3v.48c.07.64.12,1.28.14,1.93A56.47,56.47,0,0,1,241.72,189Z"/><path class="cls-7" d="M206.73,216.39a1.82,1.82,0,0,0-1,.28c-10.79,6.78-21.59.83-22.05.57a1.85,1.85,0,0,0-1.82,3.21c.53.3,13.14,7.32,25.83-.66a1.84,1.84,0,0,0-1-3.4Z"/><path class="cls-9" d="M182.41,204.39a12.1,12.1,0,0,0,11.81,12.38,12.12,12.12,0,0,0,11.67-8,12.3,12.3,0,0,0,.71-3.77,12.1,12.1,0,1,0-24.19-.57Z"/><path class="cls-10" d="M184,210.64a12.09,12.09,0,0,0,21.91-1.91c-2.22-1-6.4-2.26-12.6-1.31C189.59,208.05,186.27,209,184,210.64Z"/><path class="cls-11" d="M39.17,486.86s-21.7,14.27-32,19.56c0,0-7.68,3.79-7.13,7.18s10.78,28.55,10.78,28.55-1.29,8.19,16.3-.12c0,0,2.69,4.11,7.27,4.6s9.16-3.93,15.72-17.22c0,0,12.37-11.5,11.18-23.46C61.28,506,56.56,487,39.17,486.86Z"/><path class="cls-2" d="M36,488.66S19.15,502,8.83,507.29c0,0-7.68,3.79-7.13,7.18s11,31.6,11,31.6-1.3,8.19,16.3-.13c0,0,2.69,4.11,7.27,4.6s9.16-3.93,15.72-17.21c0,0,12.37-11.51,11.17-23.47C63.18,509.86,46.45,478.18,36,488.66Z"/><path class="cls-11" d="M29,545.94c4.38-2.51,11.6-15.46,10.32-20.57-.7-2.75-1.7-3.07-3.94-1.85-6,3.28-12.2,3.74-18.5.64-.57-.27-1-1-2.12-.47a11.63,11.63,0,0,0,6.63,3.54c1.56.29,3.34.89,2.61,2.17-1.58,2.77-3,3-3.14,6.24,0,.58-1.08,4.55-.53,4,1.86-1.89,2.52-1.92,4.22-1.34.43.15,2.06.26,1.77-.09a9.38,9.38,0,0,1-2.07-4.47c-.32-1.85-1.33-3.77.52-4.32,2.36-.71,7.32-3.73,9.16-2.43,1.49,1,2.4,5.37,2,6.92-1.24,4.67-5.74,11.52-6.91,12"/><path class="cls-11" d="M55.39,513.63s-1.18-3.65,13-2.74l51.18-1.6V489.12s-7.27-1.47-18.69-.36c0,0-41.74-8-56.16-3"/><path class="cls-2" d="M55.39,518.08s7.87-.48,26.76,2.08L122.82,525l-3.25-37.57A57.73,57.73,0,0,0,99,485.68s-44.82-4.21-59.24.74Z"/><path class="cls-1" d="M27.94,494s-9.26,5.11-12.65,7.33c0,0-3.71,17.16,7,25.75a19,19,0,0,0,11.84-2.74S29.49,519.44,27.94,494Z"/><rect class="cls-12" x="84.11" y="495.78" width="313.36" height="329.46" transform="translate(481.57 1321.01) rotate(-180)"/><path class="cls-4" d="M71,519.48s200.36,27.75,247.69,1.15C358.06,498.47,353,453.3,384.54,341.2c0,0,19.63-35.94-45-54.7L290.2,461.33c-34.89,3.95-216.83,22.78-216.83,22.78S66.45,502.13,71,519.48Z"/><path class="cls-13" d="M313.25,352.44s-16.46,48.62-20.2,86.77"/></g></g></svg>