<svg xmlns="http://www.w3.org/2000/svg" xmlns:xlink="http://www.w3.org/1999/xlink" width="1940.8" height="1103.7" xml:space="preserve"><g opacity=".11"><defs><path id="a" d="M1799.1 976.1h141.6v127.7h-141.6z"/></defs><clipPath id="b"><use xlink:href="#a" overflow="visible"/></clipPath><path clip-path="url(#b)" fill="#DA4A54" d="M1880 1103.7c-44.6 0-80.8-1.5-80.8-46.3 0-44.9 36.3-81.3 80.8-81.3 59.8 0 60.8 36.5 60.8 81.3s-16.3 46.3-60.8 46.3m0-126.6c-44 0-79.8 36-79.8 80.3s35.8 45.3 79.8 45.3 59.8-1 59.8-45.3c-.1-44.3-3.6-80.3-59.8-80.3"/></g><g opacity=".11"><defs><path id="c" d="M1800.2 994.1h128v103.1h-128z"/></defs><clipPath id="d"><use xlink:href="#c" overflow="visible"/></clipPath><path clip-path="url(#d)" fill="#DA4A54" d="M1928.2 1058.5c0 63.8-28.7 29.4-64 29.4-35.4 0-64 19.3-64-29.4 0-35.6 28.7-64.4 64-64.4 35.4 0 64 28.8 64 64.4"/></g><path fill="none" d="M1930 0v1090H0"/><path fill="none" d="M1930 0v1090H0"/><path fill="none" d="M1930 0v1090H0"/><path fill="none" d="M1930 0v1090H0"/><path fill="none" d="M1930 0v1090H0"/><path fill="none" d="M1930 0v1090H0"/><path fill="none" d="M1930 0v1090H0"/><path fill="none" d="M1930 0v1090H0"/><clipPath id="e"><use xlink:href="#e" overflow="visible"/></clipPath><path fill="none" d="M1930 0v1090H0"/><path fill="none" d="M1930 0v1090H0"/><path fill="none" d="M1930 0v1090H0"/><path fill="none" d="M1930 0v1090H0"/><path fill="none" d="M1930 0v1090H0"/><path fill="none" d="M0 1090h1930V0"/></svg>