<svg xmlns="http://www.w3.org/2000/svg" viewBox="0 0 115.3 68.5"><defs><style>.cls-1{fill:#b3cc3c;}.cls-2{fill:#fcfcfd;}</style></defs><g id="Capa_2" data-name="Capa 2"><g id="Información"><path class="cls-1" d="M104.65,0c7.38,0,10.64,3.24,10.64,10.56q0,24,0,47.9c0,6.43-3.54,10-10,10-94.14,0-1.29,0-95.43,0C3.44,68.49,0,64.91,0,58.35q0-24.1,0-48.21C0,3.43,3.43,0,10.15,0ZM91.36,12.87c-.22-1.12-1.09-.92-1.73-1.06-4.75-1-9.54-1.91-14.26-3.07-2.08-.51-3.09.08-4.12,1.9-5.76,10.2-11.68,20.3-17.48,30.47-1.05,1.84-1.69,2.37-2.94.11-2.16-3.9-4.6-7.64-6.83-11.49-.75-1.29-1.35-1.84-2.84-.83-3.08,2.09-6.27,4-9.48,5.94-1.4.83-1.34,1.45-.29,2.56q9.74,10.27,19.33,20.66c1.26,1.37,1.92,1.33,3.09-.08Q72.08,36,90.44,14.05C90.77,13.66,91.07,13.24,91.36,12.87Z"/><path class="cls-2" d="M91.36,12.87c-.29.37-.59.79-.92,1.18Q72.11,36,53.81,58c-1.17,1.41-1.83,1.45-3.09.08Q41.15,47.65,31.39,37.4c-1.05-1.11-1.11-1.73.29-2.56,3.21-1.9,6.4-3.85,9.48-5.94,1.49-1,2.09-.46,2.84.83,2.23,3.85,4.67,7.59,6.83,11.49,1.25,2.26,1.89,1.73,2.94-.11,5.8-10.17,11.72-20.27,17.48-30.47,1-1.82,2-2.41,4.12-1.9,4.72,1.16,9.51,2,14.26,3.07C90.27,12,91.14,11.75,91.36,12.87Z"/></g></g></svg>