<?xml version="1.0" encoding="utf-8"?>
<!-- Generator: Adobe Illustrator 18.1.1, SVG Export Plug-In . SVG Version: 6.00 Build 0)  -->
<svg version="1.1" id="Layer_1" xmlns="http://www.w3.org/2000/svg" xmlns:xlink="http://www.w3.org/1999/xlink" x="0px" y="0px"
	 viewBox="0 0 689.8 690.5" enable-background="new 0 0 689.8 690.5" xml:space="preserve">
<path fill="none" d="M1933.4,768"/>
<path fill="none" d="M1933.4,768"/>
<path fill="none" d="M1933.4,768"/>
<path fill="none" d="M1933.4,768"/>
<path fill="none" d="M1933.4,768"/>
<path fill="none" d="M1933.4,768"/>
<path fill="none" d="M1933.4,768"/>
<path fill="none" d="M1933.4,768"/>
<path fill="none" d="M1933.4,768"/>
<path fill="none" d="M1933.4,768"/>
<path fill="none" d="M1933.4,768"/>
<path fill="none" d="M1933.4,768"/>
<path fill="none" d="M1933.4,768"/>
<path fill="none" d="M1933.4,768"/>
<path fill="none" d="M1933.4,768"/>
<path fill="none" d="M1933.4,768"/>
<g opacity="0.11">
	<g>
		<defs>
			<rect id="SVGID_1_" x="6.3" width="683.5" height="683.5"/>
		</defs>
		<clipPath id="SVGID_2_">
			<use xlink:href="#SVGID_1_"  overflow="visible"/>
		</clipPath>
		<path clip-path="url(#SVGID_2_)" fill="#739FD4" d="M348.1,683.5C159.6,683.5,6.3,530.2,6.3,341.7C6.3,153.3,159.6,0,348.1,0
			c188.4,0,341.7,153.3,341.7,341.7C689.8,530.2,536.5,683.5,348.1,683.5 M348.1,4.5c-186,0-337.3,151.3-337.3,337.3
			c0,186,151.3,337.3,337.3,337.3c186,0,337.3-151.3,337.3-337.3C685.4,155.8,534.1,4.5,348.1,4.5"/>
	</g>
</g>
<g opacity="0.11">
	<g>
		<defs>
			<rect id="SVGID_3_" x="31.8" y="57.9" width="632.6" height="632.6"/>
		</defs>
		<clipPath id="SVGID_4_">
			<use xlink:href="#SVGID_3_"  overflow="visible"/>
		</clipPath>
		<path clip-path="url(#SVGID_4_)" fill="#739FD4" d="M664.4,374.2c0,174.7-141.6,316.3-316.3,316.3
			c-174.7,0-316.3-141.6-316.3-316.3S173.4,57.9,348.1,57.9C522.8,57.9,664.4,199.5,664.4,374.2"/>
	</g>
</g>
</svg>
