<svg xmlns="http://www.w3.org/2000/svg" xmlns:xlink="http://www.w3.org/1999/xlink" width="729.6" height="735.7" xml:space="preserve"><g opacity=".12"><path fill="#808285" d="M723.5 367.9c0 199.8-162 361.7-361.7 361.7S0 567.7 0 367.9 162 6.1 361.7 6.1s361.8 162 361.8 361.8"/><defs><path id="a" d="M186.4 44.4v647c52.1 28.3 111.9 44.4 175.3 44.4 203.2 0 367.9-164.7 367.9-367.9S564.9 0 361.7 0c-63.4 0-123.2 16.1-175.3 44.4"/></defs><clipPath id="b"><use xlink:href="#a" overflow="visible"/></clipPath><linearGradient id="c" gradientUnits="userSpaceOnUse" x1="-911.594" y1="983.029" x2="-910.594" y2="983.029" gradientTransform="matrix(735.746 0 0 -735.746 670695.688 723627.75)"><stop offset="0" style="stop-color:#417ffc"/><stop offset="1" style="stop-color:#156ab5"/></linearGradient><path clip-path="url(#b)" fill="url(#c)" d="M186.4 0h543.2v735.7H186.4z"/><defs><path id="d" d="M186.4 116.5v502.7c49.7 34.8 110.2 55.2 175.3 55.2 169 0 306.6-137.5 306.6-306.6 0-169-137.5-306.6-306.6-306.6-65.1.1-125.6 20.5-175.3 55.3"/></defs><clipPath id="e"><use xlink:href="#d" overflow="visible"/></clipPath><linearGradient id="f" gradientUnits="userSpaceOnUse" x1="-911.331" y1="983.051" x2="-910.331" y2="983.051" gradientTransform="matrix(613.1216 0 0 -613.1216 558812.188 603097.938)"><stop offset="0" style="stop-color:#4f80ff"/><stop offset="1" style="stop-color:#157bb5"/></linearGradient><path clip-path="url(#e)" fill="url(#f)" d="M186.4 61.3h481.9v613.1H186.4z"/><g opacity=".8"><defs><path id="g" d="M303.9 203.4h152.8v366.1H303.9z"/></defs><clipPath id="h"><use xlink:href="#g" overflow="visible"/></clipPath><path clip-path="url(#h)" fill="#A7A9AC" d="m433.6 311.8-55.3 191.7c-2.9 10.9-4.4 18.2-4.4 21.8 0 1.8.8 3.6 2.3 5.4 1.6 1.8 3.2 2.7 5 2.7 3.1 0 6.1-1.3 9-4 8.3-6.7 18-18.8 29.2-36.2l9.4 5.4c-27.3 47.4-56.2 71-86.8 71-11.6 0-20.9-3.3-27.8-9.9-6.9-6.6-10.4-14.9-10.4-25 0-6.7 1.6-15.2 4.7-25.5l37.5-129c3.6-12.3 5.4-21.6 5.4-27.8 0-4-1.7-7.6-5.2-10.7-3.5-3.1-8.1-4.7-13.9-4.7-2.9 0-6.1.1-9.7.3l3.4-10.7 91.5-14.7h16.1zm-16.8-108.4c11.2 0 20.6 3.9 28.3 11.7 7.7 7.8 11.6 17.2 11.6 28.1 0 10.9-3.9 20.3-11.7 28-7.8 7.7-17.2 11.6-28.1 11.6-10.7 0-19.9-3.9-27.6-11.6-7.7-7.7-11.6-17-11.6-28 0-10.9 3.8-20.3 11.4-28.1 7.5-7.8 16.8-11.7 27.7-11.7"/></g><path fill="#FFF" d="m415 293.2-55.3 191.7c-2.9 10.9-4.4 18.2-4.4 21.8 0 1.8.8 3.6 2.3 5.4 1.6 1.8 3.2 2.7 5 2.7 3.1 0 6.1-1.3 9-4 8.3-6.7 18-18.8 29.2-36.2l9.4 5.4c-27.3 47.4-56.2 71-86.8 71-11.6 0-20.9-3.3-27.8-9.9-6.9-6.6-10.4-14.9-10.4-25 0-6.7 1.6-15.2 4.7-25.5l37.5-129c3.6-12.3 5.4-21.6 5.4-27.8 0-4-1.7-7.6-5.2-10.7-3.5-3.1-8.1-4.7-13.9-4.7-2.9 0-6.1.1-9.7.3l3.4-10.7 91.5-14.7H415zm-16.7-108.4c11.2 0 20.6 3.9 28.3 11.7 7.7 7.8 11.6 17.2 11.6 28.1 0 10.9-3.9 20.3-11.7 28-7.8 7.7-17.2 11.6-28.1 11.6-10.7 0-19.9-3.9-27.6-11.6-7.7-7.7-11.6-17-11.6-28 0-10.9 3.8-20.3 11.4-28.1 7.4-7.8 16.7-11.7 27.7-11.7"/></g></svg>