<svg xmlns="http://www.w3.org/2000/svg" viewBox="0 0 681.75 643.88"><defs><style>.cls-1{isolation:isolate;}.cls-2{fill:#001627;opacity:0.15;}.cls-3{opacity:0.28;}.cls-4{fill:#279593;}.cls-11,.cls-16,.cls-18,.cls-19,.cls-21,.cls-22,.cls-23,.cls-5{mix-blend-mode:multiply;}.cls-31,.cls-6{fill:#fff;}.cls-15,.cls-6{opacity:0.29;}.cls-7{opacity:0.87;}.cls-19,.cls-21,.cls-8{fill:#edbe00;}.cls-9{opacity:0.11;}.cls-10,.cls-11,.cls-23{fill:#292929;}.cls-11{opacity:0.63;}.cls-12{opacity:0.2;}.cls-13{fill:#1f6d69;}.cls-14,.cls-16{fill:#ea9977;}.cls-15,.cls-20{fill:#d46f40;}.cls-16{opacity:0.47;}.cls-17,.cls-18{fill:#99152a;}.cls-18,.cls-22{opacity:0.43;}.cls-19,.cls-23{opacity:0.44;}.cls-20{opacity:0.22;}.cls-21{opacity:0.64;}.cls-24{fill:#1f2232;}.cls-25{fill:#32324c;}.cls-26{fill:#fdfdff;}.cls-27{fill:#007068;}.cls-28{fill:#008982;}.cls-29{fill:#72bdb9;}.cls-30{font-size:58.73px;font-family:Montserrat-Regular, Montserrat;}.cls-32{fill:#920e08;}.cls-33{fill:#f85c66;}.cls-34{fill:#f88968;}.cls-35{fill:#e28869;}</style></defs><g class="cls-1"><g id="Capa_2" data-name="Capa 2"><g id="Información"><path class="cls-2" d="M681.75,623.07c0,11.49-187.61,20.81-363.42,20.81S0,634.56,0,623.07s142.52-20.8,318.33-20.8S681.75,611.59,681.75,623.07Z"/><g class="cls-3"><path class="cls-4" d="M230.23,477.86l-.27,0c-19-3.14-19-30.64,0-33.77l.27-.05c96.69-14.74,86.08-132.42,86.08-132.42l-114.88,1.9-114.88-1.9S75.94,429.26,172.63,444l1,.17c18.14,3.6,18.14,29.92,0,33.52l-1,.17C75.94,492.6,86.55,610.28,86.55,610.28l114.88-1.9,114.88,1.9S326.92,492.6,230.23,477.86Z"/></g><g class="cls-5"><g class="cls-3"><path class="cls-4" d="M177.28,313.48l12.08-.2-102.81-1.7,0,.4Z"/></g><g class="cls-3"><path class="cls-4" d="M177.28,608.38l-90.76,1.5,0,.4,102.81-1.7Z"/></g></g><path class="cls-6" d="M164.76,487.92s-33.19,7-53,46.6h14.68S136,506.76,164.76,487.92Z"/><g class="cls-7"><path class="cls-8" d="M201.75,470.39a7.32,7.32,0,0,1-4.15-1.54c-3.66-2.59-5.93-7-6.23-12.19-.42-7.37-8.66-15.12-18-16.93l-.92-.16c-28.21-4.22-49.67-17.88-63.78-40.6l-.07-.11.12,0a147.59,147.59,0,0,1,30.9-3.34,124.39,124.39,0,0,1,40.65,6.56,58.22,58.22,0,0,0,19.31,3.11h0c13.43,0,26.75-3.91,39.64-7.69,12.32-3.61,23.95-7,35.17-7a41.79,41.79,0,0,1,19.12,4.26l.08,0-.05.08c-14,25.22-36.29,40.27-66.22,44.74l-.25,0c-5.14.83-10.24,4.18-14,9.2-2.36,3.16-2.95,6.31-3.58,9.63a31.19,31.19,0,0,1-1.89,7c-.73,1.69-2.39,4.57-5.27,5A4.26,4.26,0,0,1,201.75,470.39Z"/><path class="cls-8" d="M274.41,390.53a41.88,41.88,0,0,1,19.08,4.26c-11.75,21.13-31.87,39.57-66.16,44.69l-.26,0c-5.65.91-10.68,4.74-14,9.24-4,5.37-3,10.81-5.48,16.6-1,2.29-2.73,4.58-5.2,4.9a4,4,0,0,1-.6,0,7.31,7.31,0,0,1-4.1-1.53c-3.94-2.78-5.92-7.4-6.19-12.12-.42-7.41-8.85-15.22-18.06-17l-.92-.16c-32-4.78-51.7-21.19-63.73-40.56a146.13,146.13,0,0,1,30.88-3.35,124.61,124.61,0,0,1,40.62,6.56,58.69,58.69,0,0,0,19.35,3.12c26.09,0,51.7-14.72,74.81-14.72m0-.17c-11.23,0-22.87,3.41-35.19,7-12.88,3.78-26.2,7.69-39.62,7.69A58.31,58.31,0,0,1,180.31,402a124.57,124.57,0,0,0-40.68-6.57,147,147,0,0,0-30.92,3.35l-.24.05.13.21c14.13,22.75,35.61,36.43,63.85,40.65.31,0,.61.09.92.15,9.13,1.78,17.5,9.65,17.92,16.85a15.83,15.83,0,0,0,6.26,12.26,7.42,7.42,0,0,0,4.2,1.56c.21,0,.42,0,.62,0,2.92-.39,4.6-3.3,5.34-5a31.31,31.31,0,0,0,1.9-7c.63-3.32,1.22-6.45,3.56-9.59,3.74-5,8.81-8.35,13.93-9.17l.26,0c29.95-4.48,52.25-19.54,66.28-44.79l.09-.16-.17-.08a41.89,41.89,0,0,0-19.15-4.27Z"/></g><g class="cls-7"><path class="cls-8" d="M201.43,604.59l-115,1.89v-.08a165.51,165.51,0,0,1,.26-25.21c10.28-9.35,24-20.44,31.31-20.44a4.36,4.36,0,0,1,3.69,1.67,2.2,2.2,0,0,0,1.85,1h0c3.86,0,10.9-7.76,19.81-17.57,14.17-15.62,31.8-35,47.18-35a16.62,16.62,0,0,1,5.24.83c13.81,4.6,19.74,14,25,22.22,5.4,8.53,10.06,15.89,21.65,17.34a76,76,0,0,0,9.37.5c4.15,0,8.41-.21,12.92-.44s9.4-.47,14.15-.47c10.06,0,23,1,34.1,8.34a181.33,181.33,0,0,1,3.43,47.32v.08Z"/><path class="cls-8" d="M190.57,510.84a16.46,16.46,0,0,1,5.21.83c27.49,9.16,23.32,36.65,46.64,39.56a74.58,74.58,0,0,0,9.38.51c8.49,0,17.78-.91,27.07-.91,11.9,0,23.82,1.5,34.05,8.33a180,180,0,0,1,3.39,47.23L201.43,604.5,86.55,606.39a165.18,165.18,0,0,1,.27-25.19c9.85-8.93,23.88-20.36,31.22-20.36a4.24,4.24,0,0,1,3.62,1.63,2.3,2.3,0,0,0,1.92,1c10.06,0,41.94-52.61,67-52.61m0-.17c-15.41,0-33.06,19.44-47.24,35.06-8.55,9.42-15.92,17.55-19.75,17.55a2.09,2.09,0,0,1-1.77-.91,4.44,4.44,0,0,0-3.77-1.7c-7.31,0-21.07,11.09-31.34,20.4l0,0v.07a165.11,165.11,0,0,0-.27,25.23v.16h.17l114.87-1.9,114.88,1.9h.16v-.16a181.5,181.5,0,0,0-3.39-47.29v-.07l-.06,0c-11.1-7.41-24.08-8.36-34.15-8.36-4.75,0-9.53.24-14.15.47s-8.77.44-12.92.44a75.83,75.83,0,0,1-9.36-.5c-11.55-1.44-16.2-8.79-21.59-17.3-5.24-8.27-11.18-17.64-25-22.25a16.52,16.52,0,0,0-5.27-.84Z"/></g><path class="cls-8" d="M207,492.13c0,4.88-1.9,7.28-4.93,7.28s-6-2.4-6-7.28,6-10.37,6-10.37S207,487.26,207,492.13Z"/><g class="cls-3"><path class="cls-4" d="M230.23,477.86l-.27,0c-19-3.14-19-30.64,0-33.77l.27-.05c96.69-14.74,86.08-132.42,86.08-132.42l-24.12.4c.56,7.43,7.32,117.78-86.11,132l-.27.05c-19,3.13-19,30.63,0,33.77l.27,0c93.43,14.25,86.67,124.59,86.11,132l24.12.4S326.92,492.6,230.23,477.86Z"/></g><g class="cls-9"><path class="cls-4" d="M176.37,477.86l.28,0c19-3.14,19-30.64,0-33.77l-.28-.05C79.69,429.26,90.3,311.58,90.3,311.58l24.12.4c-.57,7.43-7.32,117.78,86.11,132l.27.05c19,3.13,19,30.63,0,33.77l-.27,0c-93.43,14.25-86.68,124.59-86.11,132l-24.12.4S79.69,492.6,176.37,477.86Z"/></g><path class="cls-6" d="M121.55,334.83H148.2s-5.83,56.71,15,85C163.2,419.79,131.55,405.61,121.55,334.83Z"/><path class="cls-10" d="M326.72,303.74c0,4.33-56.14,7.84-125.4,7.84s-125.41-3.51-125.41-7.84,56.15-7.84,125.41-7.84S326.72,299.41,326.72,303.74Z"/><path class="cls-10" d="M326.72,315.39c0,4.33-56.14,7.83-125.4,7.83s-125.41-3.5-125.41-7.83V303.74s93.12,3.81,125.41,3.81c39.76,0,125.4-3.81,125.4-3.81Z"/><path class="cls-11" d="M326.72,315.39c0,4.33-56.14,7.83-125.4,7.83s-125.41-3.5-125.41-7.83V303.74s93.12,3.81,125.41,3.81c39.76,0,125.4-3.81,125.4-3.81Z"/><path class="cls-10" d="M326.72,618.12c0-4.33-56.14-7.84-125.4-7.84s-125.41,3.51-125.41,7.84S132.06,626,201.32,626,326.72,622.45,326.72,618.12Z"/><path class="cls-10" d="M326.72,606.47s-56.14-.62-125.4-.62-125.41.62-125.41.62v11.65s93.12-3.81,125.41-3.81c39.76,0,125.4,3.81,125.4,3.81Z"/><g class="cls-12"><path class="cls-13" d="M86.24,597c-.14,8.18.31,13.26.31,13.26l114.88-1.9,114.88,1.9s6-66.52-32.12-105.8C259.57,564.26,173.41,600.8,86.24,597Z"/></g><path class="cls-14" d="M116.44,222.91s21.48,34.28,29.15,41.69,42.19,0,42.19,0l9.2-47.06-33.75-17.65-26.54-6.13Z"/><path class="cls-14" d="M131,213.7c4.61,22.25-26.25,50.69-29.91,76.71-1.83,13-31.07,23.39-41.88,21.86S81.15,285,81.15,285,91.89,177.65,98,165.38s26.08-11.51,33.75-5.37,56,53.69,56,53.69"/><path class="cls-15" d="M131.78,160c-7.67-6.14-27.61-6.91-33.75,5.37S81.15,285,81.15,285s-32.75,25.7-21.93,27.23,40.05-8.85,41.88-21.86c2.39-17,16.36-35,24.5-51.65l7.82,10.31,21.22,13.34,33.14-48.71S139.45,166.14,131.78,160Z"/><path class="cls-14" d="M225.41,57.79c-2.49,19.89-17.93,34.33-34.49,32.26-12.12-1.52-21.47-11.46-24.65-24.47-.26-1.07-2.39.27-2.57-.84-.6-3.83,1.23-10.32,1.74-14.46C167.93,30.4,183.38,16,199.94,18S227.9,37.91,225.41,57.79Z"/><path class="cls-14" d="M236.55,234.17s-22.67-13.44-71.35,4.19l-60.44,26S83.45,274.3,89.65,298.8c0,0,102.41,2.52,125.07,0s47.87-4,47.6-38.42C262.19,244.94,236.55,234.17,236.55,234.17Z"/><path class="cls-16" d="M132.21,219.29h0a29.39,29.39,0,0,0-3.69-13.77s4.37,19.59-2.47,32.31L127.5,240h0l12.72,19.46,37.84-19.94S140.49,228.72,132.21,219.29Z"/><path class="cls-14" d="M121.55,281.17s14.27,23.51,15.11,42S124,386.29,121.55,395.88s-3.72,26.08,0,31.07,2.56,12.65-4,18.79S93.82,460.31,89.4,465.3s-10.21,4.6-7.89-3.83S94.58,445,97.65,431.93,100,397.8,96.88,379s-12.94-92.73-4.46-102.86S121.55,281.17,121.55,281.17Z"/><path class="cls-14" d="M193.69,113.34l-3.31-7.61s-53.26,29.32-61.26,27.6c-6-1.28-30.33-32.49-41.53-48.24-3.8-5.35-4.73-8.92-4.73-8.92l-9.71,16s26.27,79.41,49.12,83.41,65.51-25.14,65.51-25.14Z"/><path class="cls-14" d="M212.51,57.6l12.9.19s-6,44.29,2.07,47.17-34.52,4.9-34.52,4.9,5.1-16.46-.81-30.1C188.68,71.75,212.51,57.6,212.51,57.6Z"/><path class="cls-17" d="M192.68,104.2s-19.54,8.47-40.09,20.12c4.48,8.79,11.6,26,11,40.25a235.11,235.11,0,0,0,24.23-14.1l5.91-37.13Z"/><path class="cls-15" d="M227.48,105c-8.06-2.88-2.07-47.17-2.07-47.17,1-8-9.95-15.73-12.9-22.18-2.1,17.17.17,45.79-25.77,53.56a25.71,25.71,0,0,0,8,1.07A55.45,55.45,0,0,1,193,109.86S235.54,107.84,227.48,105Z"/><path class="cls-18" d="M192.68,104.2s-19.54,8.47-40.09,20.12c4.48,8.79,11.6,26,11,40.25a235.11,235.11,0,0,0,24.23-14.1l5.91-37.13Z"/><path class="cls-8" d="M185.65,211.62c-4.52-6.1-22.07-21.65-35.44-34.48-2.11,16.62-8,40.72-22.71,62.87,6.47,9.75,14.12,20.76,18.09,24.59,7.67,7.4,42.19,0,42.19,0l9.2-47.06Z"/><path class="cls-16" d="M168.82,297.22c-14.09,1.85-30.22.23-35.69-.43-1.81-3-5-7.23-9-9.18,0,0,6.17,7.33,6.54,12l4.2.34s0-.11-.15-.3l34.12.3Z"/><path class="cls-19" d="M178.06,239.53s-32.81-7-41.08-16.39L127.5,240l12.72,19.46Z"/><path class="cls-8" d="M236.55,234.17s-22.67-13.44-71.35,4.19l-36.68,15.79a165.51,165.51,0,0,1,18.07,45.63c27.63.28,57.19.24,68.13-1,22.67-2.52,47.87-4,47.6-38.42C262.19,244.94,236.55,234.17,236.55,234.17Z"/><path class="cls-20" d="M178.06,143.13S161,153.58,131.78,160c-24,5.26-48-49.42-55.93-69.32l-1.54.86,1,6.85c6.73,18.77,28,73.9,47,77.21,16.64,2.91,43.79-11.75,57.31-19.93Z"/><path class="cls-21" d="M236,281.08c-27.36,13.48-71.44,15.37-89.9,16.82,0,.18.47,1.7.51,1.88,27.63.28,57.19.24,68.13-1,22.67-2.52,47.87-4,47.6-38.42,0-2.5-2.58-17.57-3.72-19.8C256.73,245.44,253.89,272.26,236,281.08Z"/><path class="cls-17" d="M188.35,109.86s-17.85,29.6-27.3,42.56c-8.88,12.16-4,29.41,8.79,35.43,3.9,1.85,3,2.76,4,7,2.45,10.51,6,29.17,3.1,38.51,0,0,19.73-5,33,4.19s31.69,47,47.64,36.94-10.92-134.31-10.92-134.31-5.92-38.58-23-42C210,95.44,192.55,101.45,188.35,109.86Z"/><path class="cls-18" d="M217.31,151.57l-8.79-.94,40.18,140s13.62-9.16,14.71-19.77c.64-6.14-18.87-77.09-18.87-77.09Z"/><path class="cls-14" d="M209.9,114c.33-3.8-.07-4,2.56-6.72,4-4.21,8-12.22,19.67-3.92,20.4,14.54,25.67,95.67,30.46,113.38s10.51,55.42,16.8,63.42,10.28,1.14,22.28,5.14,22.28,11.51,17.14,14.61-38.28,3.1-49.14-4.9S247,250.1,241.5,236.57c-4.09-10-23.25-60.34-33-85.94-3.75-9.88-.82-16.35.1-26.87Z"/><path class="cls-15" d="M269.85,262c3.37,9.36,6,15.42,9.72,18.36l-.18-.22c-6.29-8-12-45.71-16.8-63.42s-10.06-98.84-30.46-113.38c-5.33-3.79-9.06-4.18-11.92-3.08,7.86,6.81,17.13,20.16,24.33,46.29C260,202.82,264.48,247.07,269.85,262Z"/><path class="cls-17" d="M252.69,156.09c-4.44-23.34-10.75-45.73-20.56-52.72-11.66-8.3-18.82-5.17-22.81-1a17,17,0,0,0-4.49,10.21l-.61,7a70.11,70.11,0,0,0,4.3,31L216,170.3C225.34,160.45,244.31,157.11,252.69,156.09Z"/><g class="cls-22"><path class="cls-17" d="M227.48,105c9.69,6.9,16,28.81,20.4,51.83,1.82-.31,3.46-.54,4.81-.7-4.44-23.34-10.75-45.73-20.56-52.72-9-6.44-15.37-6-19.62-3.52C216.36,99.36,221.29,100.55,227.48,105Z"/><path class="cls-17" d="M215.31,168.47q.34.9.69,1.83c3.78-4,9.13-6.9,14.71-9A53.14,53.14,0,0,0,215.31,168.47Z"/></g><path class="cls-18" d="M169.84,187.85c3.3.46,18.75-4.12,23.85-14.95L178,226.69S179.58,202.82,169.84,187.85Z"/><path class="cls-10" d="M210.8,10.83a27.16,27.16,0,0,0-4.86.9,10.12,10.12,0,0,1-4.49.66c-2-.38-3.21-2.07-4.47-3.5-5.75-6.52-19.49-13.42-29.88-5s-8.47,33,14.16,31.06,24.73,4.22,25.4,9.21-2.8,19.92,5.85,23.76,5.69,33.12,10.5,41.92c7.7,14.09,28.46,27.24,46.08,14.86s12.27-41,1.53-47.94a130.58,130.58,0,0,1-12.36-8.93c-3.55-2.94-7.51-6.16-9.73-10.28s-1.4-9.59-1.79-14.24a32,32,0,0,0-4.09-14A40.65,40.65,0,0,0,228.92,15,29.85,29.85,0,0,0,210.8,10.83Z"/><path class="cls-23" d="M280.42,97.74c-3.32,5.15-10.3,6.55-14.49,2-6.3-6.83-17.11,2.63-26.11-4.28S238.32,79,226.91,70.36c-4.18-3.15-9-3.16-13.52-1.91,7.56,5.4,5,32.93,9.62,41.41,7.7,14.09,28.46,27.24,46.08,14.86C278.19,118.32,281.16,107.58,280.42,97.74Z"/><path class="cls-14" d="M87.59,85.16S83.09,69.79,80.43,70l5.94,15.11Z"/><path class="cls-24" d="M60.82,53.69l21.42,45.1a4.45,4.45,0,0,0,4.17,2.66l19.79-2.93a1.8,1.8,0,0,0,1.34-.87l.08-.16,1.65-3.24-4.18-4.15L64.7,49.84l-2.19-2.18-1.75,3.42-.12.23a.14.14,0,0,0,0,.09A2.9,2.9,0,0,0,60.82,53.69Z"/><path class="cls-24" d="M64.7,49.84,105.09,90.1,86,50c-.81-1.69-2.67-2.88-4.16-2.66Z"/><path class="cls-25" d="M88.08,98.17l19.8-2.93c1.49-.23,2.05-1.77,1.25-3.46L87.71,46.68C86.91,45,85.05,43.8,83.56,44L63.75,47c-1.49.22-2,1.77-1.25,3.46l21.42,45.1A4.45,4.45,0,0,0,88.08,98.17Z"/><path class="cls-26" d="M87.23,91.37l15.35-2.27c1.49-.22,2-1.77,1.25-3.46L87.17,50.56A4.45,4.45,0,0,0,83,47.9L67.67,50.18c-1.49.22-2,1.77-1.25,3.46L83.08,88.71C83.88,90.4,85.74,91.59,87.23,91.37Z"/><path class="cls-24" d="M60.6,51.39h0a.14.14,0,0,1,0-.09Z"/><path class="cls-14" d="M66.27,73.73a8,8,0,0,1,1-7.57c1.42-1.89,3.58-3,6.51.18,5.87,6.36,7.56,24,.23,28.84Z"/><path class="cls-27" d="M538.21,535.46l19.49.45,34,16.18a15.47,15.47,0,0,1,8.81,14.19l-.59,39.14a15.44,15.44,0,0,1-15,15.22l-215.28,3-21.3-2.2L401,573.71Z"/><rect class="cls-28" x="334.06" y="536.9" width="238.15" height="83.97" rx="5.96" transform="translate(-12.54 10.04) rotate(-1.25)"/><rect class="cls-29" x="355.24" y="547.96" width="196.61" height="62.4" rx="4.67" transform="translate(-12.55 10.05) rotate(-1.25)"/><text class="cls-30" transform="translate(371.64 603.77) rotate(-2.2)">06:00</text><path class="cls-14" d="M206,44.47s8-5.38,11.41,2.06c3,6.54-3.55,20-14.2,16.74Z"/><path class="cls-15" d="M206.62,57.34a14.13,14.13,0,0,1,7.19-9.55s-5.05,5.69-5.11,9.75a1,1,0,0,1-.93,1h-.13A1,1,0,0,1,206.62,57.34Z"/><path class="cls-31" d="M207.06,63.92c0,.51,1,.41,1.29.77.49.56.49,1.34,1.29,1.38,1,.06.21-1.79.51-2,.74-.46,1.65.52,1.64-.6,0-.77-1-.72-1.59-1.1-.42-.27-.46-1.1-1-1s-.31,1-.7,1.46S207,63.26,207.06,63.92Z"/><path class="cls-32" d="M174.74,81.44c.5,0,3.95-2,6-5A29.51,29.51,0,0,0,184.79,67s-9,.66-17.8,1.14C167,68.15,170.85,81.44,174.74,81.44Z"/><path class="cls-31" d="M168.25,72c6.61-.9,13-1.14,15.43-1.36A27.2,27.2,0,0,0,184.79,67s-9.1.62-17.8,1.14C167,68.15,168.16,72,168.25,72Z"/><path class="cls-33" d="M174.57,81.43c2.81,0,4.62-2.74,6.13-4.94-1.35-.58-5-1-9.85,1.25C170.85,77.74,172.67,81.45,174.57,81.43Z"/><path class="cls-34" d="M178.54,83.44a14.39,14.39,0,0,0,4.35-3.29.87.87,0,0,0-.1-1.24.89.89,0,0,0-1.25.1,12.53,12.53,0,0,1-5.76,3.6L177.26,84A13.68,13.68,0,0,0,178.54,83.44Z"/><path class="cls-35" d="M163.87,66.72h4.6a.95.95,0,0,0,0-1.89h-4.6a.2.2,0,0,1-.17-.09.18.18,0,0,1,0-.18l3.82-13.08a.95.95,0,0,0-1.82-.53L161.85,64a2.11,2.11,0,0,0,.34,1.85A2.09,2.09,0,0,0,163.87,66.72Z"/><path class="cls-25" d="M178.34,38.32a1.81,1.81,0,0,0,1.16,2.41c3.41,1,10.4,3.55,12.9,8.14,0,0,.53-6.65-11.7-11.56A1.82,1.82,0,0,0,178.34,38.32Z"/><path class="cls-25" d="M172.47,55.35s.47-6.14,5.15-7.27c5.23-1.26,9.46,2,10.32,5.36,0,0-5.12-4.95-10.11-3.23A9.83,9.83,0,0,0,172.47,55.35Z"/></g></g></g></svg>