<svg xmlns="http://www.w3.org/2000/svg" viewBox="0 0 716.24 674.45"><defs><style>.cls-1{fill:#92e3a9;}.cls-2{fill:#828282;}.cls-3{fill:#fff;opacity:0.3;}.cls-4{fill:none;stroke:#263238;stroke-linecap:round;stroke-linejoin:round;}</style></defs><g id="Capa_2" data-name="Capa 2"><g id="Información"><polygon class="cls-1" points="1.36 673.71 1.36 662.29 10.86 656.46 20.82 662.58 30.78 656.46 40.73 662.58 50.69 656.46 60.64 662.58 70.6 656.46 80.56 662.58 90.52 656.46 100.48 662.58 110.43 656.46 120.39 662.58 130.34 656.46 140.3 662.58 150.26 656.46 160.22 662.58 170.18 656.46 180.14 662.58 190.09 656.46 200.06 662.58 210.02 656.46 219.97 662.58 229.93 656.46 239.89 662.58 249.85 656.46 259.81 662.58 269.77 656.46 279.73 662.58 289.69 656.46 299.65 662.58 309.61 656.46 319.57 662.58 329.53 656.46 339.49 662.58 349.45 656.46 359.42 662.58 369.38 656.46 379.34 662.58 389.3 656.46 399.26 662.58 409.21 656.46 419.17 662.58 429.13 656.46 439.09 662.58 449.04 656.46 459 662.58 468.96 656.46 478.92 662.58 488.88 656.46 498.84 662.58 508.8 656.46 518.77 662.58 528.73 656.46 538.69 662.58 548.65 656.46 558.62 662.58 568.58 656.46 578.54 662.58 588.51 656.46 598.48 662.58 608.44 656.46 618.41 662.58 628.37 656.46 638.33 662.58 648.3 656.46 658.26 662.58 668.23 656.46 678.2 662.58 688.16 656.46 696.49 661.57 696.49 673.71 1.36 673.71"/><path class="cls-2" d="M166.88,604.78c-2.16.94-7.42.82-7.42.82s1.13-3.44,1.23-3.65c1.15-2.42,4.8-6.4,7.77-6a3.54,3.54,0,0,1,2.85,4.44C170.82,602.45,168.71,604,166.88,604.78Z"/><path class="cls-2" d="M165.06,620c-2.23.33-6.93-1-7.3-1.14a63.29,63.29,0,0,1-2.85,7.88q-1,2.24-2.06,4.46c.43-.63.81-1.18.88-1.26,1.75-2,6.32-4.9,9.08-3.73a3.54,3.54,0,0,1,1.57,5c-1,1.85-3.46,2.77-5.43,3.06s-6-.79-7.1-1.09l-.84,1.7c-1.36,2.71-2.73,5.4-4,8.09-.44.94-.85,1.89-1.26,2.84.39-.56.71-1,.77-1.09,1.75-2,6.32-4.91,9.08-3.73a3.55,3.55,0,0,1,1.58,5c-1,1.85-3.46,2.77-5.44,3.06s-5.64-.69-6.91-1c-.39,1-.78,2-1.11,2.94-.21.66-.46,1.29-.63,2s-.38,1.34-.56,2c-.31,1.28-.63,2.6-.9,3.86-.19.87-.36,1.7-.53,2.55.43-.95,1.31-2.79,1.41-2.93,1.42-2.27,5.5-5.81,8.41-5.07a3.55,3.55,0,0,1,2.32,4.74c-.73,2-3,3.27-4.91,3.85-2.11.64-6.77.06-7.35,0-.28,1.39-.54,2.75-.76,4-.5,2.84-.88,5.38-1.17,7.53h-2c.34-2.22.79-4.88,1.38-7.85.28-1.42.6-2.92,1-4.47a37.67,37.67,0,0,1-4.1-1.93c-1.53,1.67-5.46,3.61-6,3.86.53,1.31,1.07,2.59,1.59,3.78,1.08,2.5,2.12,4.72,3,6.61h-2.13c-.78-1.74-1.64-3.72-2.54-5.92-.55-1.33-1.11-2.77-1.67-4.25-.56.12-5.18,1.06-7.33.57-2-.44-4.31-1.54-5.18-3.47a3.54,3.54,0,0,1,2-4.9c2.84-1,7.17,2.27,8.76,4.42.1.13,1,1.62,1.49,2.57-.23-.6-.45-1.19-.68-1.81-.45-1.24-.87-2.49-1.32-3.83-.2-.65-.39-1.31-.59-2s-.36-1.38-.54-2.08c-.38-1.62-.7-3.28-1-5-1.09.4-5,1.74-7,1.6s-4.49-.87-5.65-2.64a3.55,3.55,0,0,1,1.19-5.15c2.67-1.37,7.44,1.16,9.34,3,.12.12,1.33,1.63,2,2.47-.16-1-.33-2-.45-3-.37-3-.65-6-1-9-.09-.92-.19-1.84-.28-2.76-.39.15-4.95,1.84-7.19,1.69-2-.14-4.5-.88-5.66-2.65a3.55,3.55,0,0,1,1.2-5.14c2.66-1.38,7.44,1.16,9.33,3,.15.15,1.88,2.32,2.3,2.89-.22-2-.45-4-.76-6a63.29,63.29,0,0,0-1.72-7.91c-.18.06-4.94,1.86-7.24,1.7-2-.14-4.49-.88-5.65-2.65a3.55,3.55,0,0,1,1.19-5.14c2.67-1.38,7.45,1.16,9.34,3,.15.15,2,2.49,2.33,2.94-.05-.15-.08-.31-.12-.46a45.25,45.25,0,0,0-3.14-7.49c-.68-1.34-1.41-2.57-2.14-3.76-.85.42-4.76,2.32-6.85,2.41s-4.56-.38-5.91-2a3.57,3.57,0,0,1,.62-5.25c2.5-1.66,7.53.34,9.62,2,.12.09,1.17,1.14,1.93,1.91-.34-.53-.68-1.08-1-1.58-1.25-1.89-2.52-3.54-3.65-5-.65-.82-1.25-1.55-1.83-2.23-1,0-5.29-.14-7.14-1s-3.88-2.43-4.32-4.5a3.55,3.55,0,0,1,3-4.37c3-.32,6.52,3.76,7.61,6.21.09.21,1.18,3.69,1.13,3.69h-.07c.57.64,1.17,1.33,1.8,2.1,1.17,1.43,2.47,3.06,3.77,4.93A61.49,61.49,0,0,1,116.1,610a46,46,0,0,1,3.34,7.51l0,.1c0-.88,0-3.34,0-3.52.34-2.66,2.57-7.59,5.51-8.13a3.55,3.55,0,0,1,4.1,3.34c.17,2.1-1.36,4.22-2.85,5.55-1.68,1.5-6.35,3-6.72,3.07a63.63,63.63,0,0,1,2,8.14c.28,1.61.52,3.23.74,4.86,0-.76,0-1.44,0-1.53.34-2.66,2.57-7.58,5.52-8.13a3.55,3.55,0,0,1,4.09,3.34c.17,2.11-1.36,4.22-2.85,5.55s-5.47,2.67-6.52,3l.24,1.88c.36,3,.7,6,1.13,8.95.15,1,.34,2,.52,3.06,0-.68,0-1.24,0-1.33.34-2.66,2.57-7.58,5.52-8.13a3.55,3.55,0,0,1,4.09,3.34c.17,2.11-1.36,4.22-2.85,5.55s-5.08,2.54-6.33,3c.22,1,.44,2.07.69,3.06.2.67.33,1.33.57,2l.63,2c.45,1.24.91,2.52,1.38,3.71.32.84.64,1.63,1,2.42-.16-1-.44-3-.44-3.22a13.77,13.77,0,0,1,1.85-6.7,4.08,4.08,0,0,1,0-.78,3.55,3.55,0,0,1,4.34-3c2.9.77,4.74,5.85,4.87,8.53,0,.16-.09,1.88-.17,3,.14-.63.28-1.24.43-1.89.31-1.28.65-2.55,1-3.92q.3-1,.6-2c.19-.67.47-1.35.7-2,.57-1.56,1.23-3.12,1.93-4.68-1.12-.27-5.09-1.28-6.69-2.5s-3.26-3.21-3.25-5.33a3.55,3.55,0,0,1,3.83-3.63c3,.32,5.57,5.07,6.11,7.69,0,.17.21,2.09.29,3.15.42-.93.84-1.86,1.3-2.79,1.34-2.69,2.77-5.36,4.19-8l1.28-2.46c-.4-.1-5.14-1.2-6.93-2.57-1.58-1.21-3.27-3.2-3.25-5.32a3.54,3.54,0,0,1,3.83-3.63c3,.32,5.57,5.07,6.11,7.69,0,.2.29,3,.32,3.68.94-1.81,1.85-3.62,2.69-5.44a62.83,62.83,0,0,0,2.92-7.56c-.18,0-5.14-1.17-7-2.57-1.58-1.22-3.26-3.21-3.25-5.32a3.54,3.54,0,0,1,3.83-3.63c3,.32,5.57,5.07,6.11,7.69,0,.2.31,3.18.32,3.73,0-.15.11-.3.15-.45a45.46,45.46,0,0,0,1.52-8c.17-1.49.24-2.92.29-4.32-1-.11-5.26-.69-7-1.77s-3.6-2.83-3.82-4.93a3.55,3.55,0,0,1,3.41-4c3,0,6.09,4.43,6.92,7,0,.14.34,1.6.54,2.66,0-.63,0-1.28,0-1.88,0-2.27-.14-4.34-.29-6.18-.08-1-.19-2-.29-2.87-.87-.59-4.33-3-5.4-4.79S151.22,585,152,583a3.55,3.55,0,0,1,4.89-2c2.66,1.38,3.36,6.74,2.92,9.38,0,.23-1,3.73-1.09,3.7l-.05,0c.12.85.23,1.76.34,2.75.18,1.84.37,3.92.42,6.19a64,64,0,0,1-.17,7.36,46.41,46.41,0,0,1-1.36,8.11.32.32,0,0,0,0,.09c.47-.74,1.86-2.77,2-2.91,1.75-2,6.33-4.91,9.08-3.74a3.55,3.55,0,0,1,1.58,5C169.48,618.82,167,619.74,165.06,620Z"/><path class="cls-2" d="M113.65,605.94c-.05,0-1-3.5-1-3.73-.37-2.65.48-8,3.18-9.29a3.54,3.54,0,0,1,4.82,2.14c.73,2-.19,4.42-1.28,6.1C118.11,603.13,113.65,605.94,113.65,605.94Z"/><path class="cls-2" d="M101.22,629.91a16.32,16.32,0,0,1-4.71.52s.72-2.19.78-2.32c.74-1.53,3-4.06,4.94-3.81a2.25,2.25,0,0,1,1.81,2.82A4.74,4.74,0,0,1,101.22,629.91Z"/><path class="cls-2" d="M100.07,639.58a15.57,15.57,0,0,1-4.64-.73,39.62,39.62,0,0,1-1.8,5c-.41.95-.86,1.89-1.31,2.83.27-.4.52-.75.56-.8,1.11-1.28,4-3.11,5.76-2.37a2.26,2.26,0,0,1,1,3.2,4.7,4.7,0,0,1-3.45,1.94,14.85,14.85,0,0,1-4.51-.69c-.17.36-.35.72-.53,1.08-.86,1.72-1.73,3.43-2.53,5.13-.28.6-.54,1.2-.8,1.81.24-.36.45-.65.49-.7,1.11-1.28,4-3.11,5.76-2.37a2.25,2.25,0,0,1,1,3.2,4.72,4.72,0,0,1-3.45,2,14.62,14.62,0,0,1-4.38-.66c-.25.62-.5,1.25-.71,1.86-.13.42-.29.82-.4,1.26s-.24.84-.35,1.26c-.2.81-.41,1.65-.58,2.45-.12.55-.22,1.08-.33,1.62.27-.6.83-1.77.89-1.86.9-1.44,3.5-3.69,5.34-3.22a2.25,2.25,0,0,1,1.47,3,4.68,4.68,0,0,1-3.12,2.45,15.32,15.32,0,0,1-4.66,0c-.18.89-.34,1.75-.48,2.56-.32,1.8-.56,3.42-.74,4.78H82.32c.22-1.41.5-3.09.88-5,.18-.9.38-1.86.6-2.84a26.14,26.14,0,0,1-2.6-1.22A16.31,16.31,0,0,1,77.41,667c.34.84.68,1.65,1,2.41.69,1.58,1.34,3,1.92,4.19H79c-.49-1.1-1-2.36-1.61-3.75-.35-.85-.7-1.76-1.06-2.7a15.6,15.6,0,0,1-4.65.36,4.7,4.7,0,0,1-3.29-2.2,2.25,2.25,0,0,1,1.24-3.12c1.8-.6,4.56,1.45,5.57,2.81,0,.08.6,1,.94,1.63-.15-.38-.29-.75-.43-1.15-.29-.78-.55-1.58-.84-2.43-.13-.41-.25-.83-.38-1.26s-.22-.87-.34-1.31c-.24-1-.44-2.09-.62-3.16a14.7,14.7,0,0,1-4.41,1,4.74,4.74,0,0,1-3.59-1.68,2.26,2.26,0,0,1,.76-3.27c1.69-.87,4.72.74,5.93,1.94.07.07.84,1,1.25,1.56-.1-.64-.2-1.28-.29-1.93-.23-1.89-.41-3.81-.59-5.72-.06-.58-.12-1.17-.19-1.75a15.68,15.68,0,0,1-4.56,1.07,4.71,4.71,0,0,1-3.59-1.68,2.25,2.25,0,0,1,.76-3.26c1.69-.88,4.72.73,5.93,1.93.09.09,1.19,1.47,1.45,1.83-.13-1.28-.28-2.56-.48-3.82a39.48,39.48,0,0,0-1.09-5,16.13,16.13,0,0,1-4.59,1.08,4.73,4.73,0,0,1-3.59-1.68,2.26,2.26,0,0,1,.76-3.27c1.69-.87,4.72.74,5.92,1.94.1.09,1.28,1.58,1.48,1.86,0-.1-.05-.2-.08-.29a28.79,28.79,0,0,0-2-4.76c-.43-.84-.89-1.63-1.36-2.38A15.06,15.06,0,0,1,63,632.52a4.66,4.66,0,0,1-3.75-1.27,2.25,2.25,0,0,1,.39-3.33c1.59-1,4.78.21,6.1,1.27.08.06.75.73,1.23,1.22-.22-.34-.43-.69-.65-1-.79-1.2-1.6-2.24-2.31-3.17l-1.16-1.41a15.12,15.12,0,0,1-4.54-.65,4.7,4.7,0,0,1-2.74-2.86,2.25,2.25,0,0,1,1.88-2.77c1.89-.2,4.14,2.39,4.83,3.94.06.13.76,2.34.72,2.34h0c.36.41.74.85,1.14,1.33.74.91,1.57,2,2.39,3.13a41.06,41.06,0,0,1,2.49,4A29.28,29.28,0,0,1,71.12,638s0,0,0,.06c0-.56,0-2.12,0-2.24.22-1.68,1.63-4.81,3.5-5.16a2.26,2.26,0,0,1,2.6,2.12,4.71,4.71,0,0,1-1.81,3.53,15.56,15.56,0,0,1-4.26,1.94,40.63,40.63,0,0,1,1.25,5.17c.18,1,.33,2.05.47,3.09,0-.48,0-.92,0-1,.21-1.68,1.63-4.81,3.5-5.15A2.24,2.24,0,0,1,79,642.5a4.74,4.74,0,0,1-1.8,3.53,15,15,0,0,1-4.14,1.91l.15,1.19c.23,1.91.45,3.82.72,5.68.1.66.21,1.3.33,1.94,0-.43,0-.79,0-.84.22-1.69,1.63-4.81,3.5-5.16a2.26,2.26,0,0,1,2.6,2.12,4.68,4.68,0,0,1-1.81,3.52,14,14,0,0,1-4,1.87c.13.66.27,1.32.44,1.94.12.43.21.85.35,1.27s.27.84.41,1.25c.28.79.57,1.6.87,2.36.2.53.41,1,.61,1.54-.1-.65-.28-1.94-.28-2a8.8,8.8,0,0,1,1.17-4.26,4.32,4.32,0,0,1,0-.5A2.26,2.26,0,0,1,81,657.91c1.84.49,3,3.72,3.09,5.42,0,.1-.06,1.19-.11,1.88.09-.4.17-.79.27-1.2.2-.81.41-1.62.64-2.49.13-.41.26-.83.38-1.26s.3-.85.45-1.28c.36-1,.78-2,1.22-3a14.91,14.91,0,0,1-4.24-1.58A4.72,4.72,0,0,1,80.58,651,2.25,2.25,0,0,1,83,648.73c1.89.21,3.53,3.22,3.87,4.88,0,.11.14,1.33.18,2,.28-.59.54-1.18.84-1.77.84-1.7,1.75-3.4,2.65-5.1l.81-1.56A15.72,15.72,0,0,1,87,645.55a4.68,4.68,0,0,1-2.07-3.38,2.25,2.25,0,0,1,2.43-2.3c1.89.2,3.54,3.22,3.88,4.88,0,.13.18,1.89.2,2.33.6-1.14,1.18-2.29,1.71-3.45A40.4,40.4,0,0,0,95,638.84a16,16,0,0,1-4.43-1.63,4.74,4.74,0,0,1-2.06-3.38,2.25,2.25,0,0,1,2.43-2.31c1.89.21,3.53,3.22,3.88,4.88,0,.13.19,2,.2,2.37l.1-.28a28.91,28.91,0,0,0,1-5.07c.11-.94.16-1.85.18-2.74a15.15,15.15,0,0,1-4.46-1.12,4.72,4.72,0,0,1-2.43-3.13,2.26,2.26,0,0,1,2.17-2.56c1.9,0,3.86,2.81,4.39,4.43,0,.08.21,1,.34,1.69,0-.4,0-.82,0-1.2,0-1.44-.09-2.76-.18-3.92-.06-.67-.12-1.26-.19-1.82a15.17,15.17,0,0,1-3.43-3,4.69,4.69,0,0,1-.7-3.9,2.26,2.26,0,0,1,3.1-1.28c1.69.88,2.13,4.28,1.85,6,0,.14-.66,2.36-.69,2.34l0,0c.07.54.14,1.11.21,1.75.12,1.16.24,2.48.27,3.93a39.14,39.14,0,0,1-.11,4.66,30.42,30.42,0,0,1-.86,5.15.14.14,0,0,0,0,.06c.3-.47,1.18-1.76,1.26-1.85,1.11-1.28,4-3.11,5.76-2.37a2.26,2.26,0,0,1,1,3.2A4.7,4.7,0,0,1,100.07,639.58Z"/><path class="cls-2" d="M67.44,630.64s-.61-2.22-.63-2.36c-.23-1.69.3-5.07,2-5.9a2.25,2.25,0,0,1,3.06,1.35,4.7,4.7,0,0,1-.81,3.88A16.13,16.13,0,0,1,67.44,630.64Z"/><path class="cls-2" d="M633,627.56a16.38,16.38,0,0,1-4.71.52s.72-2.19.78-2.32c.73-1.53,3.05-4.06,4.93-3.81a2.25,2.25,0,0,1,1.81,2.82A4.7,4.7,0,0,1,633,627.56Z"/><path class="cls-2" d="M631.82,637.23a15.55,15.55,0,0,1-4.63-.73,39.7,39.7,0,0,1-1.81,5c-.41.94-.85,1.89-1.31,2.83.27-.4.52-.75.56-.8,1.11-1.29,4-3.11,5.77-2.37a2.25,2.25,0,0,1,1,3.2,4.66,4.66,0,0,1-3.45,1.94,14.78,14.78,0,0,1-4.5-.69l-.53,1.08c-.87,1.72-1.74,3.43-2.54,5.13-.28.6-.54,1.2-.79,1.8l.48-.69c1.11-1.28,4-3.11,5.77-2.37a2.26,2.26,0,0,1,1,3.2,4.7,4.7,0,0,1-3.46,1.94,14.37,14.37,0,0,1-4.38-.65c-.25.62-.49,1.25-.7,1.86-.14.42-.3.82-.41,1.26s-.23.84-.35,1.26c-.2.81-.4,1.65-.57,2.45-.12.55-.23,1.08-.34,1.62.27-.6.84-1.77.89-1.86.91-1.44,3.5-3.69,5.34-3.22a2.26,2.26,0,0,1,1.48,3,4.75,4.75,0,0,1-3.12,2.45,15.71,15.71,0,0,1-4.67,0c-.17.89-.34,1.75-.48,2.56-.32,1.8-.56,3.42-.74,4.78h-1.24c.21-1.41.5-3.09.87-5,.18-.9.39-1.86.61-2.84a24.89,24.89,0,0,1-2.61-1.22,16.11,16.11,0,0,1-3.79,2.44c.34.84.68,1.65,1,2.41.69,1.58,1.35,3,1.93,4.19h-1.35c-.5-1.1-1-2.36-1.62-3.76-.34-.84-.7-1.75-1.06-2.69a15.54,15.54,0,0,1-4.65.36,4.7,4.7,0,0,1-3.29-2.21,2.25,2.25,0,0,1,1.24-3.11c1.81-.6,4.56,1.45,5.57,2.81.06.08.61,1,.94,1.63l-.43-1.15c-.29-.79-.55-1.58-.84-2.43-.12-.41-.25-.83-.37-1.26s-.23-.87-.34-1.31c-.25-1-.45-2.09-.62-3.16a14.77,14.77,0,0,1-4.42,1,4.72,4.72,0,0,1-3.58-1.68A2.26,2.26,0,0,1,598,651c1.69-.87,4.73.74,5.93,1.94.08.07.84,1,1.25,1.56-.1-.64-.2-1.28-.28-1.93-.24-1.89-.41-3.81-.6-5.72l-.18-1.75a15.76,15.76,0,0,1-4.57,1.07,4.72,4.72,0,0,1-3.58-1.68,2.26,2.26,0,0,1,.75-3.27c1.69-.87,4.73.74,5.93,1.94.09.09,1.19,1.47,1.46,1.83-.14-1.28-.29-2.56-.48-3.82a39.48,39.48,0,0,0-1.1-5,16,16,0,0,1-4.59,1.08,4.74,4.74,0,0,1-3.59-1.68,2.26,2.26,0,0,1,.76-3.27c1.69-.87,4.72.74,5.93,1.94.09.09,1.28,1.57,1.47,1.86,0-.1,0-.2-.07-.29a30.62,30.62,0,0,0-2-4.76c-.44-.84-.9-1.63-1.36-2.38a15.13,15.13,0,0,1-4.35,1.52A4.7,4.7,0,0,1,591,628.9a2.25,2.25,0,0,1,.4-3.33c1.58-1.05,4.77.21,6.1,1.27.07.06.74.73,1.22,1.22-.21-.34-.43-.69-.64-1-.8-1.2-1.6-2.25-2.32-3.17-.41-.52-.8-1-1.16-1.41a15.12,15.12,0,0,1-4.54-.65,4.7,4.7,0,0,1-2.74-2.86,2.25,2.25,0,0,1,1.89-2.77c1.89-.2,4.14,2.39,4.83,3.94.06.13.75,2.34.71,2.34h0c.36.4.74.85,1.15,1.33.74.91,1.56,2,2.39,3.13a41.05,41.05,0,0,1,2.48,4,29.28,29.28,0,0,1,2.12,4.77s0,0,0,.06c0-.56,0-2.12,0-2.24.22-1.68,1.63-4.81,3.5-5.16a2.26,2.26,0,0,1,2.6,2.12,4.71,4.71,0,0,1-1.81,3.52,15.39,15.39,0,0,1-4.27,1.95,39,39,0,0,1,1.25,5.17c.19,1,.34,2,.48,3.09,0-.48,0-.92,0-1,.22-1.68,1.63-4.81,3.5-5.15a2.25,2.25,0,0,1,2.6,2.11,4.71,4.71,0,0,1-1.81,3.53,15,15,0,0,1-4.14,1.91c0,.39.11.79.15,1.19.23,1.91.45,3.81.72,5.68.1.65.22,1.3.33,1.94,0-.43,0-.79,0-.84.22-1.69,1.63-4.81,3.5-5.16a2.26,2.26,0,0,1,2.6,2.12,4.71,4.71,0,0,1-1.81,3.52,14.5,14.5,0,0,1-4,1.87c.14.66.28,1.31.44,1.94.12.43.21.85.36,1.27s.27.84.4,1.25c.29.79.58,1.6.87,2.36l.61,1.54c-.1-.66-.27-1.94-.28-2a8.81,8.81,0,0,1,1.18-4.25,2.1,2.1,0,0,1,0-.5,2.25,2.25,0,0,1,2.75-1.91c1.84.49,3,3.72,3.09,5.42,0,.1-.06,1.19-.11,1.88.09-.4.18-.79.28-1.2.19-.82.41-1.62.64-2.49.12-.41.25-.83.38-1.26s.29-.85.44-1.28c.37-1,.78-2,1.22-3a14.91,14.91,0,0,1-4.24-1.58,4.74,4.74,0,0,1-2.06-3.38,2.25,2.25,0,0,1,2.43-2.31c1.89.21,3.53,3.22,3.88,4.88,0,.11.13,1.33.18,2,.27-.59.54-1.18.83-1.77.84-1.71,1.75-3.4,2.65-5.1.28-.52.55-1,.82-1.56a15.64,15.64,0,0,1-4.4-1.63,4.67,4.67,0,0,1-2.06-3.38,2.24,2.24,0,0,1,2.43-2.3c1.89.2,3.53,3.22,3.87,4.88,0,.13.19,1.89.21,2.33.59-1.14,1.18-2.29,1.7-3.45a37.23,37.23,0,0,0,1.86-4.79,16,16,0,0,1-4.42-1.63,4.72,4.72,0,0,1-2.07-3.38,2.25,2.25,0,0,1,2.44-2.31c1.89.21,3.53,3.22,3.87,4.88,0,.13.2,2,.2,2.37l.1-.28a29,29,0,0,0,1-5.07c.1-.94.15-1.85.18-2.74a15.2,15.2,0,0,1-4.47-1.12,4.68,4.68,0,0,1-2.42-3.13,2.25,2.25,0,0,1,2.16-2.56c1.9,0,3.87,2.81,4.39,4.43,0,.08.22,1,.35,1.68,0-.4,0-.81,0-1.19,0-1.44-.1-2.76-.19-3.92-.05-.67-.12-1.26-.18-1.82a15,15,0,0,1-3.43-3.05,4.7,4.7,0,0,1-.71-3.89,2.26,2.26,0,0,1,3.1-1.28c1.69.88,2.13,4.28,1.86,6,0,.14-.67,2.36-.7,2.34l0,0c.07.54.15,1.11.22,1.74.11,1.17.23,2.49.27,3.93a41.6,41.6,0,0,1-.12,4.67,28.54,28.54,0,0,1-.86,5.15l0,.06c.3-.47,1.18-1.76,1.26-1.85,1.11-1.28,4-3.11,5.77-2.37a2.25,2.25,0,0,1,1,3.2A4.66,4.66,0,0,1,631.82,637.23Z"/><path class="cls-2" d="M599.19,628.29s-.6-2.22-.62-2.36c-.24-1.69.3-5.08,2-5.9a2.25,2.25,0,0,1,3.07,1.35,4.75,4.75,0,0,1-.82,3.88A15.91,15.91,0,0,1,599.19,628.29Z"/><path class="cls-1" d="M693.35,465.06s-52.48,5.19-79.08,37.73c0,0-28.1-37.69-78.57-36.92a102,102,0,1,1,157.66-.72Z"/><path class="cls-1" d="M693.35,465.06s-52.48,5.19-79.08,37.73c0,0-28.1-37.69-78.57-36.92a102,102,0,1,1,157.66-.72Z"/><path class="cls-3" d="M693.35,465.06s-52.48,5.19-79.08,37.73c0,0-28.1-37.69-78.57-36.92a102,102,0,1,1,157.66-.72Z"/><polygon class="cls-2" points="611.1 674.42 616.01 305.97 617.23 674.42 611.1 674.42"/><path class="cls-2" d="M613.35,492.87s-17.72-31.89-49.6-41.63c0,0,33.66,8,50.49,35.43Z"/><path class="cls-2" d="M615.28,403.38s-19.65-32.75-51.53-42.49c0,0,34.7,10,51.53,37.44Z"/><path class="cls-2" d="M614.59,450s-19-34.16-50.84-43.91c0,0,34.47,9.56,51.3,37Z"/><path class="cls-2" d="M616,425.55s17.09-31.89,47.86-41.63c0,0-32.48,8-48.72,35.43Z"/><path class="cls-2" d="M616,469.84s17.09-31.89,47.86-41.63c0,0-32.48,8-48.72,35.43Z"/><path class="cls-1" d="M181.83,465.06s-52.48,5.19-79.08,37.73c0,0-28.1-37.69-78.57-36.92a102,102,0,1,1,157.67-.72Z"/><path class="cls-3" d="M181.83,465.06s-52.48,5.19-79.08,37.73c0,0-28.1-37.69-78.57-36.92a102,102,0,1,1,157.67-.72Z"/><polygon class="cls-2" points="99.59 674.42 104.49 305.97 105.72 674.42 99.59 674.42"/><path class="cls-2" d="M101.83,492.87S84.12,461,52.23,451.24c0,0,33.66,8,50.49,35.43Z"/><path class="cls-2" d="M103.76,403.38s-19.64-32.75-51.53-42.49c0,0,34.7,10,51.53,37.44Z"/><path class="cls-2" d="M103.08,450s-19-34.16-50.85-43.91c0,0,34.47,9.56,51.31,37Z"/><path class="cls-2" d="M104.46,425.55s17.09-31.89,47.86-41.63c0,0-32.48,8-48.72,35.43Z"/><path class="cls-2" d="M104.46,469.84s17.09-31.89,47.86-41.63c0,0-32.48,8-48.72,35.43Z"/><path class="cls-1" d="M363.9,282.45s-89.14,8.82-134.33,64.08c0,0-47.73-64-133.46-62.7a173.27,173.27,0,1,1,267.81-1.23Z"/><path class="cls-3" d="M363.9,282.45s-89.14,8.82-134.33,64.08c0,0-47.73-64-133.46-62.7a173.27,173.27,0,1,1,267.81-1.23Z"/><polygon class="cls-2" points="223.71 674.42 232.53 12.22 234.73 674.42 223.71 674.42"/><path class="cls-2" d="M228,329.69S197.92,275.52,143.75,259c0,0,57.18,13.54,85.76,60.19Z"/><path class="cls-2" d="M231.29,177.69s-33.37-55.64-87.54-72.19c0,0,58.95,17,87.54,63.61Z"/><path class="cls-2" d="M230.12,256.81s-32.2-58-86.37-74.57c0,0,58.56,16.24,87.15,62.88Z"/><path class="cls-2" d="M232.47,215.34s29-54.17,81.3-70.72c0,0-55.16,13.54-82.75,60.19Z"/><path class="cls-2" d="M232.47,290.57s29-54.17,81.3-70.72c0,0-55.16,13.55-82.75,60.19Z"/><line class="cls-4" x1="17.41" y1="673.95" x2="0.5" y2="673.95"/><line class="cls-4" x1="695.82" y1="673.95" x2="32.9" y2="673.95"/></g></g></svg>