<?xml version="1.0" encoding="utf-8"?>
<!-- Generator: Adobe Illustrator 18.1.1, SVG Export Plug-In . SVG Version: 6.00 Build 0)  -->
<svg version="1.1" id="Layer_1" xmlns="http://www.w3.org/2000/svg" xmlns:xlink="http://www.w3.org/1999/xlink" x="0px" y="0px"
	 viewBox="0 0 594 794" enable-background="new 0 0 594 794" xml:space="preserve">
<g>
	<defs>
		<rect id="SVGID_1_" x="-334" y="-286" width="1920" height="1080"/>
	</defs>
	<clipPath id="SVGID_2_">
		<use xlink:href="#SVGID_1_"  overflow="visible"/>
	</clipPath>
	<g clip-path="url(#SVGID_2_)">
		<defs>
			<rect id="SVGID_3_" x="-334" y="-286" width="1920" height="1080"/>
		</defs>
		<clipPath id="SVGID_4_">
			<use xlink:href="#SVGID_3_"  overflow="visible"/>
		</clipPath>
		<path clip-path="url(#SVGID_4_)" fill="#B3CC3C" d="M579.6,56.8c7.4,0,10.6,3.2,10.6,10.6c0,16,0,31.9,0,47.9c0,6.4-3.5,10-10,10
			c-94.1,0-1.3,0-95.4,0c-6.4,0-9.9-3.6-9.9-10.1c0-16.1,0-32.1,0-48.2c0-6.7,3.4-10.1,10.1-10.1C532.1,56.8,532.7,56.8,579.6,56.8
			 M566.3,69.7c-0.2-1.1-1.1-0.9-1.7-1.1c-4.8-1-9.5-1.9-14.3-3.1c-2.1-0.5-3.1,0.1-4.1,1.9c-5.8,10.2-11.7,20.3-17.5,30.5
			c-1.1,1.8-1.7,2.4-2.9,0.1c-2.2-3.9-4.6-7.6-6.8-11.5c-0.8-1.3-1.3-1.8-2.8-0.8c-3.1,2.1-6.3,4-9.5,5.9c-1.4,0.8-1.3,1.4-0.3,2.6
			c6.5,6.8,12.9,13.7,19.3,20.7c1.3,1.4,1.9,1.3,3.1-0.1c12.2-14.7,24.4-29.3,36.6-43.9C565.7,70.5,566,70,566.3,69.7"/>
		<path clip-path="url(#SVGID_4_)" fill="#FCFCFD" d="M566.3,69.7c-0.3,0.4-0.6,0.8-0.9,1.2c-12.2,14.6-24.5,29.3-36.6,43.9
			c-1.2,1.4-1.8,1.4-3.1,0.1c-6.4-6.9-12.8-13.8-19.3-20.7c-1.1-1.1-1.1-1.7,0.3-2.6c3.2-1.9,6.4-3.9,9.5-5.9c1.5-1,2.1-0.5,2.8,0.8
			c2.2,3.9,4.7,7.6,6.8,11.5c1.3,2.3,1.9,1.7,2.9-0.1c5.8-10.2,11.7-20.3,17.5-30.5c1-1.8,2-2.4,4.1-1.9c4.7,1.2,9.5,2.1,14.3,3.1
			C565.2,68.7,566.1,68.5,566.3,69.7"/>
		<g opacity="0.28" clip-path="url(#SVGID_4_)">
			<g>
				<defs>
					<rect id="SVGID_5_" x="63.9" y="638" width="467.2" height="605.6"/>
				</defs>
				<clipPath id="SVGID_6_">
					<use xlink:href="#SVGID_5_"  overflow="visible"/>
				</clipPath>
				<path clip-path="url(#SVGID_6_)" fill="#279593" d="M355.8,975.1c-0.2,0-0.4-0.1-0.6-0.1c-38.5-6.4-38.5-62.1,0-68.5
					c0.2,0,0.4-0.1,0.6-0.1C551.8,876.6,530.3,638,530.3,638l-232.9,3.8L64.6,638c0,0-21.5,238.6,174.5,268.5c0.7,0.1,1.3,0.2,2,0.3
					c36.8,7.3,36.8,60.7,0,67.9c-0.6,0.1-1.3,0.2-2,0.3C43,1005,64.6,1243.6,64.6,1243.6l232.9-3.8l232.9,3.8
					C530.3,1243.6,551.8,1005,355.8,975.1"/>
			</g>
		</g>
		<g clip-path="url(#SVGID_4_)">
			<g>
				<defs>
					<rect id="SVGID_7_" x="64.5" y="638" width="208.5" height="605.6"/>
				</defs>
				<clipPath id="SVGID_8_">
					<use xlink:href="#SVGID_7_"  overflow="visible"/>
				</clipPath>
				<g opacity="0.28" clip-path="url(#SVGID_8_)">
					<g>
						<defs>
							<rect id="SVGID_9_" x="64.5" y="638" width="208.5" height="3.8"/>
						</defs>
						<clipPath id="SVGID_10_">
							<use xlink:href="#SVGID_9_"  overflow="visible"/>
						</clipPath>
						<path clip-path="url(#SVGID_10_)" fill="#279593" d="M248.5,641.8l24.5-0.4L64.6,638c0,0,0,0.3-0.1,0.8L248.5,641.8z"/>
					</g>
				</g>
			</g>
		</g>
		<g opacity="0.28" clip-path="url(#SVGID_4_)">
			<g>
				<defs>
					<rect id="SVGID_11_" x="277.5" y="638" width="253.6" height="605.6"/>
				</defs>
				<clipPath id="SVGID_12_">
					<use xlink:href="#SVGID_11_"  overflow="visible"/>
				</clipPath>
				<path clip-path="url(#SVGID_12_)" fill="#279593" d="M355.8,975.1c-0.2,0-0.4-0.1-0.6-0.1c-38.5-6.4-38.5-62.1,0-68.5
					c0.2,0,0.4-0.1,0.6-0.1C551.8,876.6,530.3,638,530.3,638l-48.9,0.8c1.1,15.1,14.8,238.8-174.6,267.7c-0.2,0-0.4,0.1-0.6,0.1
					c-38.5,6.4-38.5,62.1,0,68.5c0.2,0,0.4,0.1,0.6,0.1c189.4,28.9,175.7,252.6,174.6,267.7l48.9,0.8
					C530.3,1243.6,551.8,1005,355.8,975.1"/>
			</g>
		</g>
		<g opacity="0.11" clip-path="url(#SVGID_4_)">
			<g>
				<defs>
					<rect id="SVGID_13_" x="71.4" y="638" width="253.6" height="605.6"/>
				</defs>
				<clipPath id="SVGID_14_">
					<use xlink:href="#SVGID_13_"  overflow="visible"/>
				</clipPath>
				<path clip-path="url(#SVGID_14_)" fill="#279593" d="M246.6,975.1c0.2,0,0.4-0.1,0.6-0.1c38.5-6.4,38.5-62.1,0-68.5
					c-0.2,0-0.4-0.1-0.6-0.1C50.6,876.6,72.1,638,72.1,638l48.9,0.8c-1.1,15.1-14.8,238.8,174.6,267.7c0.2,0,0.4,0.1,0.6,0.1
					c38.5,6.4,38.5,62.1,0,68.5c-0.2,0-0.4,0.1-0.6,0.1C106.2,1004,119.9,1227.7,121,1242.7l-48.9,0.8
					C72.1,1243.6,50.6,1005,246.6,975.1"/>
			</g>
		</g>
		<g opacity="0.29" clip-path="url(#SVGID_4_)">
			<g>
				<defs>
					<rect id="SVGID_15_" x="135.5" y="685.1" width="84.4" height="172.2"/>
				</defs>
				<clipPath id="SVGID_16_">
					<use xlink:href="#SVGID_15_"  overflow="visible"/>
				</clipPath>
				<path clip-path="url(#SVGID_16_)" fill="#FFFFFF" d="M135.5,685.1h54c0,0-11.8,115,30.4,172.2
					C219.9,857.4,155.8,828.6,135.5,685.1"/>
			</g>
		</g>
		<path clip-path="url(#SVGID_4_)" fill="#292929" d="M551.4,622.1c0,8.8-113.8,15.9-254.2,15.9S43,630.9,43,622.1
			c0-8.8,113.8-15.9,254.2-15.9S551.4,613.3,551.4,622.1"/>
		<path clip-path="url(#SVGID_4_)" fill="#292929" d="M551.4,645.7c0,8.8-113.8,15.9-254.2,15.9S43,654.5,43,645.7v-23.6
			c0,0,188.8,7.7,254.2,7.7c80.6,0,254.2-7.7,254.2-7.7V645.7z"/>
		<g opacity="0.63" clip-path="url(#SVGID_4_)">
			<g>
				<defs>
					<rect id="SVGID_17_" x="43" y="622.1" width="508.5" height="39.5"/>
				</defs>
				<clipPath id="SVGID_18_">
					<use xlink:href="#SVGID_17_"  overflow="visible"/>
				</clipPath>
				<path clip-path="url(#SVGID_18_)" fill="#292929" d="M551.4,645.7c0,8.8-113.8,15.9-254.2,15.9S43,654.5,43,645.7v-23.6
					c0,0,188.8,7.7,254.2,7.7c80.6,0,254.2-7.7,254.2-7.7V645.7z"/>
			</g>
		</g>
		<path clip-path="url(#SVGID_4_)" fill="#EA9977" d="M125.1,458.2c0,0,43.5,69.5,59.1,84.5c15.6,15,85.5,0,85.5,0l18.7-95.4
			L220,411.6l-53.8-12.4L125.1,458.2z"/>
		<path clip-path="url(#SVGID_4_)" fill="#EA9977" d="M154.7,439.6c9.3,45.1-53.2,102.8-60.6,155.5c-3.7,26.4-63,47.4-84.9,44.3
			c-21.9-3.1,44.5-55.2,44.5-55.2s21.8-217.7,34.2-242.6c12.4-24.9,52.9-23.3,68.4-10.9c15.6,12.4,113.5,108.9,113.5,108.9"/>
		<g opacity="0.29" clip-path="url(#SVGID_4_)">
			<g>
				<defs>
					<rect id="SVGID_19_" x="4.7" y="321.9" width="265.1" height="317.8"/>
				</defs>
				<clipPath id="SVGID_20_">
					<use xlink:href="#SVGID_19_"  overflow="visible"/>
				</clipPath>
				<path clip-path="url(#SVGID_20_)" fill="#D46F40" d="M156.2,330.7c-15.6-12.4-56-14-68.4,10.9c-12.4,24.9-34.2,242.6-34.2,242.6
					s-66.4,52.1-44.5,55.2c21.9,3.1,81.2-17.9,84.9-44.3c4.8-34.4,33.2-70.9,49.7-104.7l15.9,20.9l43,27l67.2-98.7
					C269.8,439.6,171.8,343.2,156.2,330.7"/>
			</g>
		</g>
		<path clip-path="url(#SVGID_4_)" fill="#EA9977" d="M346,123.5c-5,40.3-36.4,69.6-69.9,65.4c-24.6-3.1-43.5-23.2-50-49.6
			c-0.5-2.2-4.9,0.6-5.2-1.7c-1.2-7.8,2.5-20.9,3.5-29.3c5-40.3,36.4-69.6,69.9-65.4C328,47.1,351.1,83.2,346,123.5"/>
		<path clip-path="url(#SVGID_4_)" fill="#EA9977" d="M368.6,481.1c0,0-45.9-27.2-144.7,8.5l-122.5,52.8c0,0-43.2,20.1-30.6,69.8
			c0,0,207.6,5.1,253.6,0c45.9-5.1,97-8.2,96.5-77.9C420.6,502.9,368.6,481.1,368.6,481.1"/>
		<g opacity="0.47" clip-path="url(#SVGID_4_)">
			<g>
				<defs>
					<rect id="SVGID_21_" x="144.6" y="423" width="105.4" height="109.4"/>
				</defs>
				<clipPath id="SVGID_22_">
					<use xlink:href="#SVGID_21_"  overflow="visible"/>
				</clipPath>
				<path clip-path="url(#SVGID_22_)" fill="#EA9977" d="M157.1,450.9L157.1,450.9c-0.5-9.9-2.6-19.8-7.5-27.9c0,0,8.9,39.7-5,65.5
					l2.9,4.4l0,0l25.8,39.4l76.7-40.4C250.1,491.9,173.9,470,157.1,450.9"/>
			</g>
		</g>
		<path clip-path="url(#SVGID_4_)" fill="#EA9977" d="M135.5,576.4c0,0,28.9,47.6,30.6,85.1c1.7,37.4-25.7,128-30.6,147.5
			c-4.9,19.4-7.5,52.9,0,63c7.5,10.1,5.2,25.7-8,38.1c-13.2,12.4-48.2,29.5-57.1,39.7c-8.9,10.1-20.7,9.3-16-7.8
			C59,924.8,80.8,908.4,87,882c6.2-26.4,4.7-69.2-1.6-107.3c-6.2-38.1-26.2-188-9-208.5C93.6,545.6,135.5,576.4,135.5,576.4"/>
		<path clip-path="url(#SVGID_4_)" fill="#EA9977" d="M281.7,236.1l-6.7-15.4c0,0-108,59.4-124.2,56c-12.1-2.6-61.5-65.9-84.2-97.8
			c-7.7-10.8-9.6-18.1-9.6-18.1l-19.7,32.5c0,0,53.2,161,99.6,169.1c46.3,8.1,132.8-51,132.8-51L281.7,236.1z"/>
		<path clip-path="url(#SVGID_4_)" fill="#EA9977" d="M319.9,123.1l26.2,0.4c0,0-12.1,89.8,4.2,95.6c16.3,5.8-70,9.9-70,9.9
			s10.3-33.4-1.6-61C271.6,151.8,319.9,123.1,319.9,123.1"/>
		<path clip-path="url(#SVGID_4_)" fill="#99152A" d="M279.7,217.6c0,0-39.6,17.2-81.3,40.8c9.1,17.8,23.5,52.6,22.2,81.6
			c27.5-13.8,49.1-28.6,49.1-28.6l12-75.3L279.7,217.6z"/>
		<g opacity="0.29" clip-path="url(#SVGID_4_)">
			<g>
				<defs>
					<rect id="SVGID_23_" x="267.7" y="78.5" width="84.6" height="150.5"/>
				</defs>
				<clipPath id="SVGID_24_">
					<use xlink:href="#SVGID_23_"  overflow="visible"/>
				</clipPath>
				<path clip-path="url(#SVGID_24_)" fill="#D46F40" d="M350.2,219.1c-16.3-5.8-4.2-95.6-4.2-95.6c2-16.3-20.2-31.9-26.2-45
					c-4.3,34.8,0.3,92.8-52.2,108.6c2.7,0.8,5.6,1.4,8.5,1.8c2.6,0.3,5.2,0.5,7.8,0.4c2.1,21-3.7,39.8-3.7,39.8
					S366.6,225,350.2,219.1"/>
			</g>
		</g>
		<g opacity="0.43" clip-path="url(#SVGID_4_)">
			<g>
				<defs>
					<rect id="SVGID_25_" x="198.4" y="217.6" width="83.3" height="122.4"/>
				</defs>
				<clipPath id="SVGID_26_">
					<use xlink:href="#SVGID_25_"  overflow="visible"/>
				</clipPath>
				<path clip-path="url(#SVGID_26_)" fill="#99152A" d="M279.7,217.6c0,0-39.6,17.2-81.3,40.8c9.1,17.8,23.5,52.6,22.2,81.6
					c27.5-13.8,49.1-28.6,49.1-28.6l12-75.3L279.7,217.6z"/>
			</g>
		</g>
		<path clip-path="url(#SVGID_4_)" fill="#EDBE00" d="M265.5,435.3c-9.2-12.4-44.8-43.9-71.8-69.9c-4.3,33.7-16.2,82.6-46.1,127.5
			c13.1,19.8,28.6,42.1,36.7,49.8c15.6,15,85.5,0,85.5,0l18.7-95.4L265.5,435.3z"/>
		<g opacity="0.47" clip-path="url(#SVGID_4_)">
			<g>
				<defs>
					<rect id="SVGID_27_" x="140.7" y="589.4" width="90.6" height="25"/>
				</defs>
				<clipPath id="SVGID_28_">
					<use xlink:href="#SVGID_27_"  overflow="visible"/>
				</clipPath>
				<path clip-path="url(#SVGID_28_)" fill="#EA9977" d="M231.3,608.9c-28.6,3.7-61.3,0.5-72.4-0.9c-3.7-6-10.1-14.7-18.3-18.6
					c0,0,12.5,14.9,13.3,24.3l8.5,0.7c0,0-0.1-0.2-0.3-0.6l69.2,0.6V608.9z"/>
			</g>
		</g>
		<g opacity="0.44" clip-path="url(#SVGID_4_)">
			<g>
				<defs>
					<rect id="SVGID_29_" x="147.6" y="458.7" width="102.5" height="73.7"/>
				</defs>
				<clipPath id="SVGID_30_">
					<use xlink:href="#SVGID_29_"  overflow="visible"/>
				</clipPath>
				<path clip-path="url(#SVGID_30_)" fill="#EDBE00" d="M250.1,491.9c0,0-66.5-14.1-83.3-33.2l-19.2,34.2l25.8,39.4L250.1,491.9z"
					/>
			</g>
		</g>
		<path clip-path="url(#SVGID_4_)" fill="#EDBE00" d="M368.6,481.1c0,0-45.9-27.2-144.7,8.5l-74.3,32c8.8,14.8,26.1,47.8,36.6,92.5
			c56,0.6,115.9,0.5,138.1-2c45.9-5.1,97-8.2,96.5-77.9C420.6,502.9,368.6,481.1,368.6,481.1"/>
		<g opacity="0.22" clip-path="url(#SVGID_4_)">
			<g>
				<defs>
					<rect id="SVGID_31_" x="39.7" y="190.2" width="213.4" height="172.9"/>
				</defs>
				<clipPath id="SVGID_32_">
					<use xlink:href="#SVGID_31_"  overflow="visible"/>
				</clipPath>
				<path clip-path="url(#SVGID_32_)" fill="#D46F40" d="M250.1,296.5c0,0-34.6,21.2-93.8,34.2c-48.6,10.7-97.4-100.2-113.4-140.5
					l-3.1,1.7l2,13.9c13.6,38.1,56.8,149.8,95.2,156.5c33.7,5.9,88.8-23.8,116.2-40.4L250.1,296.5z"/>
			</g>
		</g>
		<g opacity="0.64" clip-path="url(#SVGID_4_)">
			<g>
				<defs>
					<rect id="SVGID_33_" x="185.2" y="494.1" width="235.6" height="120.3"/>
				</defs>
				<clipPath id="SVGID_34_">
					<use xlink:href="#SVGID_33_"  overflow="visible"/>
				</clipPath>
				<path clip-path="url(#SVGID_34_)" fill="#EDBE00" d="M367.5,576.2c-55.5,27.3-144.8,31.1-182.2,34.1c0.1,0.4,1,3.4,1,3.8
					c56,0.6,115.9,0.5,138.1-2c45.9-5.1,97-8.2,96.5-77.9c0-5.1-5.2-35.6-7.5-40.1C409.5,503.9,403.8,558.3,367.5,576.2"/>
			</g>
		</g>
		<path clip-path="url(#SVGID_4_)" fill="#99152A" d="M270.9,229.1c0,0-36.2,60-55.4,86.3c-18,24.7-8.1,59.6,17.8,71.8
			c7.9,3.7,6.1,5.6,8.1,14.1c5,21.3,12.2,59.1,6.3,78.1c0,0,40-10.2,66.8,8.5c26.8,18.7,64.2,95.3,96.6,74.9
			c32.3-20.4-22.1-272.3-22.1-272.3s-12-78.2-46.5-85.1C314.7,199.8,279.4,212,270.9,229.1"/>
		<g opacity="0.43" clip-path="url(#SVGID_4_)">
			<g>
				<defs>
					<rect id="SVGID_35_" x="311.8" y="311.7" width="111.3" height="283.8"/>
				</defs>
				<clipPath id="SVGID_36_">
					<use xlink:href="#SVGID_35_"  overflow="visible"/>
				</clipPath>
				<path clip-path="url(#SVGID_36_)" fill="#99152A" d="M329.6,313.6l-17.8-1.9l81.5,283.8c0,0,27.6-18.6,29.8-40.1
					c1.3-12.5-38.3-156.3-38.3-156.3L329.6,313.6z"/>
			</g>
		</g>
		<path clip-path="url(#SVGID_4_)" fill="#EA9977" d="M314.6,237.5c0.7-7.7-0.1-8,5.2-13.6c8.1-8.5,16.2-24.8,39.9-7.9
			c41.4,29.5,52,193.9,61.8,229.8s21.3,112.4,34,128.6c12.7,16.2,20.8,2.3,45.2,10.4c24.3,8.1,45.2,23.3,34.7,29.6
			c-10.4,6.3-77.6,6.3-99.6-9.9c-22-16.2-45.9-91.1-57.1-118.5c-8.3-20.3-47.1-122.3-66.9-174.2c-7.6-20-1.7-33.1,0.2-54.5
			L314.6,237.5z"/>
		<g opacity="0.29" clip-path="url(#SVGID_4_)">
			<g>
				<defs>
					<rect id="SVGID_37_" x="335.5" y="208.6" width="120.3" height="366.2"/>
				</defs>
				<clipPath id="SVGID_38_">
					<use xlink:href="#SVGID_37_"  overflow="visible"/>
				</clipPath>
				<path clip-path="url(#SVGID_38_)" fill="#D46F40" d="M436.1,537.5c6.8,19,12.1,31.3,19.7,37.2c-0.1-0.2-0.2-0.3-0.4-0.5
					c-12.7-16.2-24.3-92.7-34-128.6c-9.7-35.9-20.4-200.4-61.8-229.8c-10.8-7.7-18.4-8.5-24.2-6.3c15.9,13.8,34.7,40.9,49.3,93.9
					C416.2,417.5,425.3,507.2,436.1,537.5"/>
			</g>
		</g>
		<path clip-path="url(#SVGID_4_)" fill="#99152A" d="M401.4,322.8c-9-47.3-21.8-92.7-41.7-106.9c-23.6-16.8-38.1-10.5-46.2-1.9
			c-5.3,5.6-8.4,13-9.1,20.7l-1.2,14.2c-1.9,21.3,1.1,42.8,8.7,62.8c4.3,11.4,9.5,25.1,15.2,39.9
			C345.9,331.6,384.4,324.8,401.4,322.8"/>
		<g opacity="0.43" clip-path="url(#SVGID_4_)">
			<g>
				<defs>
					<rect id="SVGID_39_" x="319.9" y="205.3" width="81.5" height="146.2"/>
				</defs>
				<clipPath id="SVGID_40_">
					<use xlink:href="#SVGID_39_"  overflow="visible"/>
				</clipPath>
				<path clip-path="url(#SVGID_40_)" fill="#99152A" d="M350.2,219.1c19.6,14,32.4,58.4,41.3,105.1c3.7-0.6,7-1.1,9.8-1.4
					c-9-47.3-21.8-92.7-41.7-106.9c-18.3-13.1-31.2-12.2-39.8-7.1C327.7,207.8,337.7,210.2,350.2,219.1"/>
				<path clip-path="url(#SVGID_40_)" fill="#99152A" d="M325.6,347.9c0.5,1.2,0.9,2.5,1.4,3.7c7.7-8.1,18.5-14,29.8-18.3
					C345.8,336.6,334.6,341.3,325.6,347.9"/>
			</g>
		</g>
		<g opacity="0.43" clip-path="url(#SVGID_4_)">
			<g>
				<defs>
					<rect id="SVGID_41_" x="233.4" y="356.9" width="48.3" height="109"/>
				</defs>
				<clipPath id="SVGID_42_">
					<use xlink:href="#SVGID_41_"  overflow="visible"/>
				</clipPath>
				<path clip-path="url(#SVGID_42_)" fill="#99152A" d="M233.4,387.2c6.7,0.9,38-8.4,48.3-30.3l-31.8,109
					C249.9,465.9,253.1,417.5,233.4,387.2"/>
			</g>
		</g>
		<path clip-path="url(#SVGID_4_)" fill="#292929" d="M316.4,28.3c-3.3,0.3-6.6,0.9-9.8,1.8c-3,0.8-6.1,1.9-9.1,1.3
			c-4-0.8-6.5-4.2-9.1-7.1c-11.7-13.2-39.5-27.2-60.6-10.1c-21.1,17.1-17.2,66.9,28.7,63c45.9-3.9,50.1,8.6,51.5,18.7
			c1.4,10.1-5.7,40.4,11.9,48.2c17.5,7.8,11.5,67.1,21.3,85c15.6,28.6,57.7,55.2,93.4,30.1c35.7-25.1,24.9-83.1,3.1-97.2
			c-8.7-5.6-17.1-11.5-25.1-18.1c-7.2-6-15.2-12.5-19.7-20.8c-4.6-8.6-2.8-19.4-3.6-28.9c-0.8-9.9-3.1-19.9-8.3-28.5
			c-7.1-11.7-16-21.8-27.8-28.9C342.1,30.2,329.3,27.1,316.4,28.3"/>
		<g opacity="0.44" clip-path="url(#SVGID_4_)">
			<g>
				<defs>
					<rect id="SVGID_43_" x="321.7" y="143.5" width="136.1" height="125.6"/>
				</defs>
				<clipPath id="SVGID_44_">
					<use xlink:href="#SVGID_43_"  overflow="visible"/>
				</clipPath>
				<path clip-path="url(#SVGID_44_)" fill="#292929" d="M457.6,204.5c-6.7,10.4-20.9,13.3-29.4,4.1c-12.8-13.8-34.7,5.3-52.9-8.7
					c-18.3-14-3-33.5-26.2-50.9c-8.5-6.4-18.3-6.4-27.4-3.9c15.3,10.9,10.1,66.7,19.5,83.9c15.6,28.6,57.7,55.2,93.4,30.1
					C453.1,246.2,459.1,224.4,457.6,204.5"/>
			</g>
		</g>
		<path clip-path="url(#SVGID_4_)" fill="#EA9977" d="M66.7,179c0,0-9.1-31.2-14.5-30.8l12,30.6L66.7,179z"/>
		<path clip-path="url(#SVGID_4_)" fill="#1F2232" d="M20.5,106.7L46,204.6c0.9,3.7,4.2,6.8,7.3,6.9l40.5,1.7c1.3,0,2.3-0.4,3-1.2
			l0.2-0.3l4.5-5.8l-6.7-9.9l-65.1-95.6l-3.5-5.2l-4.8,6.1l-0.3,0.4c-0.1,0-0.1,0.1-0.1,0.2C20.2,103.2,20,104.8,20.5,106.7"/>
		<path clip-path="url(#SVGID_4_)" fill="#1F2232" d="M29.7,100.5L94.8,196l-22.7-87.2c-1-3.7-4.2-6.8-7.3-6.9L29.7,100.5z"/>
		<path clip-path="url(#SVGID_4_)" fill="#32324C" d="M57.8,205.6l40.6,1.7c3.1,0.1,4.8-2.7,3.8-6.4l-25.5-98
			c-1-3.7-4.2-6.8-7.3-6.9l-40.6-1.7c-3.1-0.1-4.8,2.7-3.8,6.4l25.5,98C51.5,202.4,54.8,205.5,57.8,205.6"/>
		<path clip-path="url(#SVGID_4_)" fill="#FFDF57" d="M58.7,191.8l31.4,1.3c3.1,0.1,4.8-2.7,3.8-6.4l-19.8-76.2
			c-1-3.7-4.2-6.8-7.3-6.9l-31.4-1.3c-3.1-0.1-4.8,2.7-3.8,6.4l19.8,76.2C52.4,188.6,55.7,191.6,58.7,191.8"/>
		<path clip-path="url(#SVGID_4_)" fill="#1F2232" d="M20.9,102L20.9,102c0,0,0.1-0.1,0.1-0.1L20.9,102z"/>
		<path clip-path="url(#SVGID_4_)" fill="#EA9977" d="M23.4,155.8c-1.9-5.2-1.2-11,2.1-15.4c2.9-3.8,7.3-6.1,13.2,0.4
			c11.9,12.9,15.3,48.6,0.5,58.5L23.4,155.8z"/>
		<path clip-path="url(#SVGID_4_)" fill="#EA9977" d="M306.7,96.5c0,0,16.3-10.9,23.1,4.2c6,13.3-7.2,40.6-28.8,34L306.7,96.5z"/>
		<g opacity="0.29" clip-path="url(#SVGID_4_)">
			<g>
				<defs>
					<rect id="SVGID_45_" x="307.9" y="103.2" width="14.6" height="21.8"/>
				</defs>
				<clipPath id="SVGID_46_">
					<use xlink:href="#SVGID_45_"  overflow="visible"/>
				</clipPath>
				<path clip-path="url(#SVGID_46_)" fill="#D46F40" d="M308,122.6c1.1-4.6,4.5-14.3,14.6-19.4c0,0-10.2,11.5-10.3,19.8
					c0,1.1-0.8,2-1.9,2l-0.2,0C308.7,125.1,307.7,123.9,308,122.6"/>
			</g>
		</g>
		<path clip-path="url(#SVGID_4_)" fill="#FFFFFF" d="M308.8,135.9c0.1,1,2,0.8,2.6,1.6c1,1.1,1,2.7,2.6,2.8c2.1,0.1,0.4-3.6,1-4
			c1.5-0.9,3.3,1.1,3.3-1.2c0-1.6-2-1.5-3.2-2.2c-0.9-0.5-0.9-2.2-2-2.1c-1.3,0.1-0.6,2-1.4,3C311,134.6,308.7,134.6,308.8,135.9"/>
		<path clip-path="url(#SVGID_4_)" fill="#920E08" d="M243.3,171.4c1,0,8-4.1,12.1-10c2.8-4,4.7-8.3,6-11.8c1.6-4.3,2.3-7.4,2.3-7.4
			s-18.3,1.3-36.1,2.3C227.6,144.5,235.4,171.4,243.3,171.4"/>
		<path clip-path="url(#SVGID_4_)" fill="#FFFFFF" d="M230.2,152.3c13.4-1.8,26.4-2.3,31.3-2.8c1.6-4.3,2.3-7.4,2.3-7.4
			s-18.5,1.3-36.1,2.3C227.6,144.5,230,152.3,230.2,152.3"/>
		<path clip-path="url(#SVGID_4_)" fill="#F85C66" d="M243,171.4c5.7-0.1,9.4-5.6,12.4-10c-2.7-1.2-10.2-2-20,2.5
			C235.4,163.9,239.1,171.5,243,171.4"/>
		<path clip-path="url(#SVGID_4_)" fill="#F88968" d="M251,175.5c5.4-2.7,8.6-6.4,8.8-6.7c0.6-0.8,0.5-1.9-0.2-2.5
			c-0.8-0.6-1.9-0.5-2.5,0.2c-0.3,0.3-4.6,5.3-11.7,7.3l3,2.8C249.4,176.3,250.2,175.9,251,175.5"/>
		<path clip-path="url(#SVGID_4_)" fill="#E28869" d="M221.3,141.6h9.3c1.1,0,1.9-0.9,1.9-1.9s-0.9-1.9-1.9-1.9h-9.3
			c-0.2,0-0.3-0.1-0.3-0.2c-0.1-0.1-0.1-0.2-0.1-0.4l7.7-26.5c0.3-1-0.3-2.1-1.3-2.4c-1-0.3-2.1,0.3-2.4,1.3l-7.7,26.5
			c-0.4,1.3-0.1,2.7,0.7,3.8C218.7,141,219.9,141.6,221.3,141.6"/>
		<path clip-path="url(#SVGID_4_)" fill="#32324C" d="M250.6,84c-0.8,2,0.3,4.3,2.4,4.9c6.9,2,21.1,7.2,26.1,16.5
			c0,0,1.1-13.5-23.7-23.4C253.5,81.2,251.4,82.1,250.6,84"/>
		<path clip-path="url(#SVGID_4_)" fill="#32324C" d="M238.7,118.5c0,0,1-12.4,10.4-14.7c10.6-2.6,19.2,4.1,20.9,10.9
			c0,0-10.4-10-20.5-6.5C241.9,110.8,238.7,118.5,238.7,118.5"/>
	</g>
	<g clip-path="url(#SVGID_2_)">
		<defs>
			<path id="SVGID_47_" d="M39.7,137.8c0,0,14,19.3,9.3,37.7l157.4,6.9c0,0,5.3-94.7-27.5-117L39.7,137.8z"/>
		</defs>
		<clipPath id="SVGID_48_">
			<use xlink:href="#SVGID_47_"  overflow="visible"/>
		</clipPath>
		<defs>
			<filter id="Adobe_OpacityMaskFilter" filterUnits="userSpaceOnUse" x="6.8" y="16.9" width="237.9" height="214">
				<feColorMatrix  type="matrix" values="1 0 0 0 0  0 1 0 0 0  0 0 1 0 0  0 0 0 1 0"/>
			</filter>
		</defs>
		<mask maskUnits="userSpaceOnUse" x="6.8" y="16.9" width="237.9" height="214" id="SVGID_49_">
			<g filter="url(#Adobe_OpacityMaskFilter)">
				
					<linearGradient id="SVGID_50_" gradientUnits="userSpaceOnUse" x1="-334" y1="794.1259" x2="-333" y2="794.1259" gradientTransform="matrix(149.8626 -46.2467 -46.2467 -149.8626 86810.8047 103716.4688)">
					<stop  offset="0" style="stop-color:#FFFFFF"/>
					<stop  offset="0.216" style="stop-color:#C2C2C2"/>
					<stop  offset="0.6041" style="stop-color:#5B5B5B"/>
					<stop  offset="0.8737" style="stop-color:#191919"/>
					<stop  offset="1" style="stop-color:#000000"/>
				</linearGradient>
				<polygon clip-path="url(#SVGID_48_)" fill="url(#SVGID_50_)" points="6.8,75.5 196.8,16.9 244.7,172.2 54.7,230.9 				"/>
			</g>
		</mask>
		
			<linearGradient id="SVGID_51_" gradientUnits="userSpaceOnUse" x1="-334" y1="794.1259" x2="-333" y2="794.1259" gradientTransform="matrix(149.8626 -46.2467 -46.2467 -149.8626 86810.8047 103716.4688)">
			<stop  offset="0" style="stop-color:#FFDF57"/>
			<stop  offset="1" style="stop-color:#FFDF57"/>
		</linearGradient>
		<polygon clip-path="url(#SVGID_48_)" mask="url(#SVGID_49_)" fill="url(#SVGID_51_)" points="6.8,75.5 196.8,16.9 244.7,172.2 
			54.7,230.9 		"/>
	</g>
</g>
</svg>
