<svg xmlns="http://www.w3.org/2000/svg" xmlns:xlink="http://www.w3.org/1999/xlink" viewBox="0 0 268.97 660.48"><defs><style>.cls-1{fill:#ce5300;}.cls-2{fill:#ffaf82;}.cls-3{fill:#151a31;}.cls-4{fill:#162d47;}.cls-5{opacity:0.81;}.cls-6{fill:#fcef06;}.cls-7{opacity:0.13;fill:url(#Degradado_sin_nombre_2);}.cls-8{fill:#32324c;opacity:0.1;}.cls-9{fill:#050705;}.cls-10{fill:#02c6cb;}.cls-11{fill:#08a8b1;}.cls-12{fill:#fff;}.cls-13{fill:#2c2c2c;}.cls-14{fill:#ed6306;}.cls-15{fill:#fcc4a7;}.cls-16{fill:#600a0a;}.cls-17{fill:#f99a85;}</style><linearGradient id="Degradado_sin_nombre_2" x1="273.39" y1="156.94" x2="252.21" y2="43.68" gradientTransform="translate(-45.18 171.81) rotate(-41.03)" gradientUnits="userSpaceOnUse"><stop offset="0" stop-color="#fcf7d9"/><stop offset="0" stop-color="#f9edaf"/><stop offset="0" stop-color="#f5e078"/><stop offset="1" stop-color="#edc304" stop-opacity="0"/></linearGradient></defs><g id="Capa_2" data-name="Capa 2"><g id="Información"><path class="cls-1" d="M251.62,126.85s-48.85,54.32-71.68,60.55-39.42-5.19-68.42-47.19c0,0,11.5-13.52,23-27,0,0,29.63,44.21,30.07,44.58,9.93,8.42,76.61-42,76.61-42S248.35,119.75,251.62,126.85Z"/><path class="cls-2" d="M240,115.08s-1.05-12,2.89-17.49,14.19-23.21,19-21.85,11.3,16.09,3.64,35c-4.88,12-13.83,16.12-13.83,16.12Z"/><path class="cls-3" d="M267.38,84.41l-12,32.37a3.68,3.68,0,0,1-3.16,2.24l-17.17.25a1.76,1.76,0,0,1-1.26-.43l-.09-.1-1.83-2,3-3.23,28.72-31.27,1.55-1.68,1.95,2.07.14.15a.1.1,0,0,1,0,0A1.62,1.62,0,0,1,267.38,84.41Z"/><path class="cls-4" d="M263.57,82.27l-28.72,31.27,10.66-28.81a3.66,3.66,0,0,1,3.15-2.23Z"/><path class="cls-4" d="M250.37,117l-17.18.25a1.49,1.49,0,0,1-1.53-2.16l12-32.38a3.68,3.68,0,0,1,3.16-2.23L264,80.25a1.5,1.5,0,0,1,1.53,2.17l-12,32.37A3.68,3.68,0,0,1,250.37,117Z"/><g class="cls-5"><path class="cls-6" d="M250.15,112.41l-13.31.19a1.5,1.5,0,0,1-1.53-2.16l9.32-25.18A3.68,3.68,0,0,1,247.79,83l13.31-.19A1.5,1.5,0,0,1,262.63,85l-9.32,25.19A3.7,3.7,0,0,1,250.15,112.41Z"/></g><path class="cls-4" d="M267.25,82.85h0a.1.1,0,0,0,0,0Z"/><path class="cls-2" d="M239.93,92.75s3.47-1.11,5.18,1.48-1.83,3-4.05,3.36a5.25,5.25,0,0,0-3.76,2.27C237,101.28,233.87,94.76,239.93,92.75Z"/><path class="cls-2" d="M261.81,100.54s.89-10.81,2.48-17.27c1.07-4.31,4.57-.59,4.34,3.34S268,98.49,261.81,100.54Z"/><path class="cls-7" d="M262.63,85,213.39,0s-69.07,16.17-65.6,89.24l87.32,22.09c.37,1.38,1.19,1.39,2.49,1.26l13.21-.27c1.92-.28,2.25-1.76,2.6-2.68Z"/><ellipse class="cls-8" cx="107.85" cy="644.35" rx="106.32" ry="16.13"/><path class="cls-9" d="M153.16,304.55,129,419.87l-15,71.48L68.84,611.77l-22.21-4.11s10-45.83,12.07-70.26c2.89-35,13.91-67.68,25.48-80.85l3.35-38.7,9.8-113.18Z"/><path class="cls-10" d="M110.84,646.61l-72.28-.25a4,4,0,0,1-3.77-5.12l0-.12,11.61-37.65a3.25,3.25,0,0,1,4.4-2c4.09,1.76,7,1.14,11.88-.19,8.43-2.3,9.06-3.31,11.51-2,2.2,1.17,3.1,2.61,3.33,4.16.27,1.78-.36,3.72-.93,5.59a13.86,13.86,0,0,0-.8,4,1.15,1.15,0,0,0,0,.19,5.62,5.62,0,0,0,.57,2,16.64,16.64,0,0,0,2.36,3.49c.43.51.89,1,1.34,1.47a44,44,0,0,0,3.41,3.17c.3.26.48.39.48.39.64,0,1.28.12,1.91.21,12.11,1.71,21.79,10.85,26.79,17.2l.54.7A3,3,0,0,1,110.84,646.61Z"/><path class="cls-11" d="M110.84,646.61l-72.28-.25a4,4,0,0,1-3.77-5.12l0-.12H112.7l.54.7A3,3,0,0,1,110.84,646.61Z"/><path class="cls-12" d="M76.41,615.19a17.13,17.13,0,0,1-4.29,2.08c-.58.2-1.22.4-1.91.59L69.69,616c.68-.19,1.3-.37,1.86-.57a13.31,13.31,0,0,0,4.29-2.23A5.62,5.62,0,0,0,76.41,615.19Z"/><path class="cls-12" d="M72.15,617a2.2,2.2,0,1,1-2.09-2.3A2.2,2.2,0,0,1,72.15,617Z"/><path class="cls-12" d="M80.11,620.15a17.78,17.78,0,0,1-3.21,1.48c-.7.26-1.45.5-2.29.73l-.52-1.88c.77-.22,1.48-.44,2.11-.66a18.57,18.57,0,0,0,2.57-1.14C79.2,619.19,79.66,619.68,80.11,620.15Z"/><path class="cls-12" d="M76.9,621.55a2.2,2.2,0,1,1-2.09-2.31A2.2,2.2,0,0,1,76.9,621.55Z"/><path class="cls-12" d="M85.91,623.92a15.54,15.54,0,0,1-4.85,2.72c-.7.26-1.47.51-2.33.74l-.51-1.88c.79-.22,1.49-.45,2.12-.68a15.68,15.68,0,0,0,3.18-1.5c.3.26.48.39.48.39C84.64,623.76,85.28,623.83,85.91,623.92Z"/><path class="cls-12" d="M81.07,626.57A2.2,2.2,0,1,1,79,624.26,2.21,2.21,0,0,1,81.07,626.57Z"/><path class="cls-12" d="M76.63,609c-4.31,0-7.67.24-7.67.24l.2-4.85a39.16,39.16,0,0,1,8.4-1C77.83,605.2,77.2,607.14,76.63,609Z"/><path class="cls-13" d="M155.46,594.39l-20.66,11.2s-23.69-58.18-36.71-91-12.6-65.27-12.6-65.27c-2.66-7.24-5.36-14.52-8-21.77-11.88-32.22-23.31-64-29-90.46-2.66-12.23-4.09-23.32-3.78-32.78l60.53.3,10.7,113,3.62,19.95Z"/><path class="cls-13" d="M54.31,360s76.1,0,101-58.84L44.64,304.36S48.5,331.52,54.31,360Z"/><path class="cls-10" d="M220.13,616.86l-65.64,27a6.57,6.57,0,0,1-8.19-2.79,6.28,6.28,0,0,1-.56-1.27l-11.52-35.57a42.14,42.14,0,0,1,5.67-4.86,7.2,7.2,0,0,0,3.05-6.42c0-.18-.05-.37-.07-.55-1.23-7.26,7.47-13.3,11.91-7.55.57.75,1.11,1.48,1.6,2.19l.36.53c.85,1.28,1.59,2.48,2.19,3.54a.25.25,0,0,1,0,.07,39.13,39.13,0,0,1,2.26,4.55l3.86,2.22L167,599c1.32.77,2.61,1.52,3.87,2.23.58.34,1.16.66,1.73,1,1.38.77,2.73,1.48,4,2.11.59.3,1.18.58,1.77.83,4.85,2.17,9.26,3.2,13.53,2.1,7.52-1.95,19.47-5.95,29.38,2.19a4.1,4.1,0,0,1,.56.54A4.38,4.38,0,0,1,220.13,616.86Z"/><path class="cls-11" d="M220.13,616.86l-65.64,27a6.56,6.56,0,0,1-8.19-2.78L221.83,610A4.38,4.38,0,0,1,220.13,616.86Z"/><path class="cls-12" d="M167,599c-.3,1.43-1.29,3.42-3.91,6-.44.43-.93.88-1.47,1.34l-1.27-1.48c.53-.46,1-.89,1.43-1.31,3-2.92,3.39-4.75,3.36-5.59Z"/><path class="cls-12" d="M163,604.76a2.2,2.2,0,1,1-2.88-1.2A2.2,2.2,0,0,1,163,604.76Z"/><path class="cls-12" d="M172.55,602.23a13.86,13.86,0,0,1-3.33,4.68c-.51.53-1.1,1.06-1.76,1.63l-1.27-1.48c.61-.53,1.16-1,1.63-1.5a11.16,11.16,0,0,0,3-4.3C171.4,601.6,172,601.92,172.55,602.23Z"/><path class="cls-12" d="M169.19,606.83a2.2,2.2,0,1,1-2.87-1.2A2.19,2.19,0,0,1,169.19,606.83Z"/><path class="cls-12" d="M178.36,605.17a14,14,0,0,1-3.24,4.5,22.86,22.86,0,0,1-1.79,1.66l-1.26-1.49c.62-.53,1.16-1,1.63-1.51a12,12,0,0,0,2.89-4C177.18,604.64,177.77,604.92,178.36,605.17Z"/><path class="cls-12" d="M175.09,609.6a2.2,2.2,0,0,1-4.07,1.68,2.2,2.2,0,1,1,4.07-1.68Z"/><path class="cls-12" d="M158.93,591.11a50.8,50.8,0,0,0-5.71,2.74l-1.32-3.3a16.21,16.21,0,0,1,4.84-3C157.59,588.85,158.33,590.05,158.93,591.11Z"/><path class="cls-14" d="M80.63,80.34S55,80.57,43.4,91.16s-.41,32,12.26,34.68,52.17-2.13,56.25-8.92S113.28,80.74,80.63,80.34Z"/><path class="cls-14" d="M41.29,302.87c38.48,23.85,76.1,21.46,114-1.73l-20.5-188.49-22.5-3-1.8-.24-5.12-.68L74,104.5l-5.3,1.81L62,108.6l-1.6.54L30.66,119.32,52.8,248.84Z"/><path class="cls-1" d="M82.93,126.05c-22.52,0-27.82-19.83-27.87-20a.83.83,0,1,1,1.61-.41c.2.77,5.06,18.78,26.25,18.78a1.45,1.45,0,0,1,.36,0,.82.82,0,0,1,.83.82.83.83,0,0,1-.82.84Z"/><path class="cls-1" d="M104.08,122.86a.82.82,0,0,1-.83-.81.83.83,0,0,1,.81-.85c.3,0,6.84-.29,8.5-9.15a.83.83,0,1,1,1.63.31c-1.92,10.23-10,10.5-10.1,10.5Z"/><path class="cls-1" d="M78.72,248.54s-.13,17.66-4.13,33.88c0,0,41.85,6.79,65.52-6.09a111,111,0,0,0-.49-32.94Z"/><path class="cls-12" d="M87.8,205.64h-.07a.82.82,0,0,1-.74-.88c1.78-20.71-6.16-72.94-6.24-73.47a.81.81,0,0,1,1.6-.24c.08.52,8.06,52.95,6.25,73.85A.81.81,0,0,1,87.8,205.64Z"/><path class="cls-12" d="M115.17,201.49h-.07a.81.81,0,0,1-.74-.88c1.79-20.7-6.42-73.34-6.5-73.87a.81.81,0,1,1,1.6-.25c.08.53,8.32,53.36,6.52,74.26A.82.82,0,0,1,115.17,201.49Z"/><path class="cls-15" d="M36.77,284.37a39.21,39.21,0,0,1,9.62,6.33c3.79,3.68,7.59,7.7,9.88,10,2.76,2.78-.71,4.14-3.92,2.56-4.87-2.4-6.26-4.87-6.26-4.87S57.67,316,58.71,321.51c.94,5.07-5.92-4.29-12-11.71,0,0,8.24,18.89,6.28,21.79-2.58,3.81-12.5-19.11-12.5-19.11s4.8,18,2.57,18.26c-2.49.31-9.65-17.5-9.65-17.5s2.2,12.65.66,12.3c-3.05-.68-13.1-26.09-9.46-38C24.57,287.5,33.9,283.34,36.77,284.37Z"/><path class="cls-14" d="M25,205s9.8-10.55,19.45-40.45c0,0,2.72-41.67-13.82-45.21,0,0-23.08,35.17-30.63,78.48,0,0-1.76,52.27,23.86,90.08,0,0,7.75.45,12.88-3.51C36.77,284.37,23.11,228.3,25,205Z"/><path class="cls-16" d="M131.33,21.5s7.71,5.09,4.95,18.91-8.11,15.3-8.11,15.3S120.07,25.1,131.33,21.5Z"/><path class="cls-15" d="M101.24,87.21l-1.51,17.44-.69,8C88.75,119.78,72.7,109,72.7,109l-.6-27.41c4.76-3,16.31,1.44,23.46,3.66C98.93,86.34,101.24,87.21,101.24,87.21Z"/><path class="cls-17" d="M101.24,87.21l-1.51,17.44C88,101.56,78.6,84.88,78.6,84.88l17,.41C98.93,86.34,101.24,87.21,101.24,87.21Z"/><path class="cls-15" d="M134.66,42c0,.52,0,1,0,1.58,0,.09,0,.18,0,.27,0,.51,0,1,0,1.55-.17,5.41-.71,11.39-1.44,17.38-.15,1.25-.31,2.51-.49,3.75-.14,1.08-.29,2.15-.44,3.22-.33,2.21-.66,4.4-1,6.52-.23,1.47-.47,2.92-.71,4.32a21.57,21.57,0,0,1-.7,2.85,20.78,20.78,0,0,1-23.86,14c-6.07-1.23-12.78-2.73-19-4.48L86,92.71A104.28,104.28,0,0,1,72.46,88c-.5-.71-1-1.43-1.43-2.17a60.45,60.45,0,0,1-7.8-21q-.84-4.46-1.27-9c0-.24-.08-.47-.13-.7,0-2.77,0-5.54.09-8.2A34.82,34.82,0,0,1,98.5,12.84c15.54.8,30.34,6.83,34.08,14.83C134.06,30.85,134.65,36,134.66,42Z"/><path class="cls-16" d="M71,85.85a60.43,60.43,0,0,1-7.8-21,22.31,22.31,0,0,1,8.84,2.44S72.91,78.24,71,85.85Z"/><path class="cls-4" d="M106.57,53.55c0,2.31-1,4.19-2.3,4.19S102,55.86,102,53.55s1-4.2,2.31-4.2S106.57,51.23,106.57,53.55Z"/><path class="cls-4" d="M130.38,53.55c0,2.31-1,4.19-2.3,4.19s-2.3-1.88-2.3-4.19,1-4.2,2.3-4.2S130.38,51.23,130.38,53.55Z"/><path class="cls-16" d="M61.89,48.88s7.38-4.81,13.6,3.78h4.84s-.28-9.94,2.07-15.33S94,32.07,95.4,25.72c0,0,22.67,10.91,35.71,4C160.59,13.94,98.64-6.23,76,6.46,59.1,15.89,58.37,32,61.89,48.88Z"/><path class="cls-16" d="M95,46.59s2.22-4.56,6.47-5.7a10.86,10.86,0,0,1,8.17.73,1.42,1.42,0,0,1,.64,1.74h0a1.42,1.42,0,0,1-1.93.79C105.91,43,100.66,41.61,95,46.59Z"/><path class="cls-16" d="M134.66,42c0,.52,0,1,0,1.58,0,.09,0,.18,0,.27a11.37,11.37,0,0,0-9.85-.1,1.42,1.42,0,0,1-1.29-2.52,10.86,10.86,0,0,1,8.17-.73A8.5,8.5,0,0,1,134.66,42Z"/><path class="cls-15" d="M75.49,52.66s-7.4-9-13.6-3.78C55.06,54.61,60.29,74,74.17,73.6Z"/><path class="cls-17" d="M74.51,69.38A1.22,1.22,0,0,1,73.3,68.3c-1.13-9.83-7-11.34-7.21-11.4a1.22,1.22,0,0,1,.54-2.38c.32.07,7.76,1.86,9.1,13.5a1.24,1.24,0,0,1-1.08,1.36Z"/><path class="cls-17" d="M66.71,63.16a1.22,1.22,0,0,1-.91-2,6.92,6.92,0,0,1,6.53-1.89,1.23,1.23,0,0,1,.93,1.46,1.24,1.24,0,0,1-1.46.93,4.42,4.42,0,0,0-4.17,1.12A1.23,1.23,0,0,1,66.71,63.16Z"/><path class="cls-17" d="M112.48,88.85A11.74,11.74,0,0,1,104.64,86a1.22,1.22,0,0,1,1.7-1.76c.17.16,3.9,3.58,10.11,1.45a1.22,1.22,0,0,1,.79,2.31A14.56,14.56,0,0,1,112.48,88.85Z"/><path class="cls-4" d="M103.13,63.44A9.89,9.89,0,1,1,113,53.55,9.91,9.91,0,0,1,103.13,63.44Zm0-18.15a8.26,8.26,0,1,0,8.26,8.26A8.27,8.27,0,0,0,103.13,45.29Z"/><path class="cls-4" d="M128.89,63.44a9.89,9.89,0,1,1,9.89-9.89A9.91,9.91,0,0,1,128.89,63.44Zm0-18.15a8.26,8.26,0,1,0,8.26,8.26A8.26,8.26,0,0,0,128.89,45.29Z"/><rect class="cls-4" x="84.27" y="40.98" width="1.63" height="18.7" transform="translate(28.33 131.27) rotate(-85.57)"/><path class="cls-4" d="M112.57,52.81l-.94-1.33a7.54,7.54,0,0,1,8.8,0l-1,1.29C116.2,50.31,112.72,52.71,112.57,52.81Z"/><path class="cls-17" d="M118.35,67a1.19,1.19,0,0,1-1-.49,1.22,1.22,0,0,1,.22-1.71l3.26-2.48L118,61.62a1.25,1.25,0,0,1-.9-1l-1.25-7.78a1.23,1.23,0,0,1,2.42-.39l1.12,7,4.48,1.16a1.22,1.22,0,0,1,.43,2.16l-5.25,4A1.21,1.21,0,0,1,118.35,67Z"/><path class="cls-17" d="M116.43,83.11A21.31,21.31,0,0,1,101.09,77a1.21,1.21,0,0,1,1.7-1.72c8.65,8.52,20.78,4.31,20.9,4.27a1.21,1.21,0,1,1,.82,2.28A25.77,25.77,0,0,1,116.43,83.11Z"/></g></g></svg>