<svg xmlns="http://www.w3.org/2000/svg" xmlns:xlink="http://www.w3.org/1999/xlink" viewBox="0 0 765.6 780" enable-background="new 0 0 765.6 780" xml:space="preserve"><g opacity=".4"><defs><path id="a" d="M18 28.3h733.1v712.5H18z"/></defs><clipPath id="b"><use xlink:href="#a" overflow="visible"/></clipPath><path clip-path="url(#b)" fill="#CFDDF2" d="M749.2 443.5c-2.5-43-7.4-86.5-13.8-127.8-9.9-64.1-30.1-128-68.7-177.7C577 22.7 432.9 3.4 314.3 56.2c-118.6 52.9-85.7 187.4-131.2 263-45.5 75.6-95.7 53.9-151.5 167.3s68.8 237.6 195.8 249c127 11.4 148-42.3 247.6-10.1 99.6 32.2 170.4 19.9 235.8-97.3 23-41.2 40.9-88.4 40.1-135.9-.1-16-.8-32.3-1.7-48.7"/><g opacity=".7" clip-path="url(#b)"><defs><path id="c" d="M18 28.3h733.1v712.5H18z"/></defs><clipPath id="d"><use xlink:href="#c" overflow="visible"/></clipPath><path clip-path="url(#d)" fill="#CFDDF2" d="M749.2 443.5c-2.5-43-7.4-86.5-13.8-127.8-9.9-64.1-30.1-128-68.7-177.7C577 22.7 432.9 3.4 314.3 56.2c-118.6 52.9-85.7 187.4-131.2 263-45.5 75.6-95.7 53.9-151.5 167.3s68.8 237.6 195.8 249c127 11.4 148-42.3 247.6-10.1 99.6 32.2 170.4 19.9 235.8-97.3 23-41.2 40.9-88.4 40.1-135.9-.1-16-.8-32.3-1.7-48.7"/></g></g><g opacity=".5"><defs><path id="e" d="M17.1 8.7h743v716h-743z"/></defs><clipPath id="f"><use xlink:href="#e" overflow="visible"/></clipPath><path clip-path="url(#f)" fill="none" stroke="#CFDDF2" stroke-width="2" stroke-miterlimit="10" d="M757 426.7c-2.7-43.1-7.8-86.6-14.5-128.1-10.3-64.2-30.9-128.3-70.2-178.2C581.2 4.7 435.5-15.3 315.8 37.2 196 89.6 229.9 224.4 184.2 300c-45.7 75.5-96.6 53.6-152.5 166.9s70.5 238.2 199 250.2c128.4 12 149.5-41.8 250.3-9.1 100.8 32.7 172.4 20.6 238.1-96.5 23.1-41.1 41-88.4 40-136-.4-16.1-1.1-32.4-2.1-48.8z"/><g opacity=".7" clip-path="url(#f)"><defs><path id="g" d="M17.1 8.7h743v716h-743z"/></defs><clipPath id="h"><use xlink:href="#g" overflow="visible"/></clipPath><path clip-path="url(#h)" fill="none" stroke="#CFDDF2" stroke-width="2" stroke-miterlimit="10" d="M757 426.7c-2.7-43.1-7.8-86.6-14.5-128.1-10.3-64.2-30.9-128.3-70.2-178.2C581.2 4.7 435.5-15.3 315.8 37.2 196 89.6 229.9 224.4 184.2 300c-45.7 75.5-96.6 53.6-152.5 166.9s70.5 238.2 199 250.2c128.4 12 149.5-41.8 250.3-9.1 100.8 32.7 172.4 20.6 238.1-96.5 23.1-41.1 41-88.4 40-136-.4-16.1-1.1-32.4-2.1-48.8z"/></g></g><path fill="#9BD2A6" d="M9.7 735v-11.4l9.5-5.9 10 6.2 10-6.2 9.9 6.2 10-6.2 9.9 6.2 10-6.2 9.9 6.2 10-6.2 10 6.2 9.9-6.2 10 6.2 9.9-6.2 10 6.2 9.9-6.2 10 6.2 10-6.2 9.9 6.2 10-6.2 9.9 6.2 10-6.2 10 6.2 9.9-6.2 10 6.2 9.9-6.2 10 6.2 9.9-6.2 10 6.2 10-6.2 9.9 6.2 10-6.2 10 6.2 9.9-6.2 10 6.2 9.9-6.2 10 6.2 10-6.2 9.9 6.2 10-6.2 9.9 6.2 10-6.2 9.9 6.2 10-6.2 10 6.2 9.9-6.2 10 6.2 9.9-6.2 10 6.2 10-6.2 9.9 6.2 10-6.2 9.9 6.2 10-6.2 10 6.2 9.9-6.2 10 6.2 10-6.2 9.9 6.2 10-6.2 10 6.2 9.9-6.2 10 6.2 9.9-6.2 10 6.2 10-6.2 9.9 6.2 10-6.2 10 6.2 9.9-6.2 8.4 5.1V735z"/><path fill="#838383" d="M175.3 666.1c-2.2.9-7.4.8-7.4.8-.1 0 1.1-3.4 1.2-3.7 1.2-2.4 4.8-6.4 7.8-6 2.1.3 3.3 2.4 2.8 4.4-.5 2.1-2.6 3.7-4.4 4.5"/><path fill="#838383" d="M173.4 681.3c-2.2.3-6.9-1-7.3-1.1-.7 2.6-1.7 5.3-2.8 7.9-.6 1.5-1.3 3-2.1 4.5.4-.6.8-1.2.9-1.3 1.8-2 6.3-4.9 9.1-3.7 2 .8 2.6 3.2 1.6 5-1 1.9-3.5 2.8-5.4 3.1-2 .3-6-.8-7.1-1.1-.3.6-.6 1.1-.8 1.7-1.4 2.7-2.7 5.4-4 8.1-.4.9-.8 1.9-1.3 2.8.4-.6.7-1 .8-1.1 1.8-2 6.3-4.9 9.1-3.7 2 .8 2.6 3.2 1.6 5-1 1.9-3.5 2.8-5.4 3.1-1.9.3-5.6-.7-6.9-1-.4 1-.8 2-1.1 2.9-.2.7-.5 1.3-.6 2-.2.7-.4 1.3-.6 2l-.9 3.9c-.2.9-.4 1.7-.5 2.5.4-.9 1.3-2.8 1.4-2.9 1.4-2.3 5.5-5.8 8.4-5.1 2.1.5 3 2.8 2.3 4.7-.7 2-3 3.3-4.9 3.8-2.1.6-6.8.1-7.3 0-.3 1.4-.5 2.8-.8 4-.5 2.8-.9 5.4-1.2 7.5h-2c.3-2.2.8-4.9 1.4-7.9.3-1.4.6-2.9 1-4.5-.4-.1-2.3-.9-4.1-1.9-1.5 1.7-5.5 3.6-6 3.9.5 1.3 1.1 2.6 1.6 3.8 1.1 2.5 2.1 4.7 3 6.6h-2.1c-.8-1.7-1.6-3.7-2.5-5.9-.5-1.3-1.1-2.8-1.7-4.3-.6.1-5.2 1.1-7.3.6-1.9-.4-4.3-1.5-5.2-3.5-.9-1.9-.1-4.2 2-4.9 2.8-1 7.2 2.3 8.8 4.4.1.1 1 1.6 1.5 2.6-.2-.6-.5-1.2-.7-1.8-.5-1.2-.9-2.5-1.3-3.8-.2-.7-.4-1.3-.6-2-.2-.7-.4-1.4-.5-2.1-.4-1.6-.7-3.3-1-5-1.1.4-5 1.7-7 1.6-2-.1-4.5-.9-5.7-2.6-1.1-1.7-.7-4.2 1.2-5.1 2.7-1.4 7.4 1.2 9.3 3 .1.1 1.3 1.6 2 2.5-.2-1-.3-2-.4-3.1-.4-3-.7-6-.9-9-.1-.9-.2-1.8-.3-2.8-.4.1-4.9 1.8-7.2 1.7-2-.1-4.5-.9-5.7-2.6-1.1-1.7-.7-4.2 1.2-5.1 2.7-1.4 7.4 1.2 9.3 3 .1.1 1.9 2.3 2.3 2.9-.2-2-.4-4-.8-6-.4-2.7-1-5.4-1.7-7.9-.2.1-4.9 1.9-7.2 1.7-2-.1-4.5-.9-5.7-2.6-1.1-1.7-.7-4.2 1.2-5.1 2.7-1.4 7.4 1.2 9.3 3 .1.1 2 2.5 2.3 2.9 0-.2-.1-.3-.1-.5-.8-2.7-2-5.2-3.1-7.5-.7-1.3-1.4-2.6-2.1-3.8-.9.4-4.8 2.3-6.8 2.4-2 .1-4.6-.4-5.9-2-1.3-1.6-1.2-4 .6-5.2 2.5-1.7 7.5.3 9.6 2 .1.1 1.2 1.1 1.9 1.9-.3-.5-.7-1.1-1-1.6-1.3-1.9-2.5-3.5-3.7-5-.6-.8-1.3-1.6-1.8-2.2-1.1 0-5.3-.1-7.1-1-1.8-.8-3.9-2.4-4.3-4.5-.4-2 .8-4.1 3-4.4 3-.3 6.5 3.8 7.6 6.2.1.2 1.2 3.7 1.1 3.7h-.1c.6.6 1.2 1.3 1.8 2.1 1.2 1.4 2.5 3.1 3.8 4.9 1.3 1.9 2.7 3.9 3.9 6.2 1.2 2.3 2.4 4.8 3.3 7.5v.1-3.5c.3-2.7 2.6-7.6 5.5-8.1 2.1-.4 3.9 1.3 4.1 3.3.2 2.1-1.4 4.2-2.8 5.6-1.7 1.5-6.4 3-6.7 3.1.8 2.6 1.5 5.3 2 8.1.3 1.6.5 3.2.7 4.9v-1.5c.3-2.7 2.6-7.6 5.5-8.1 2.1-.4 3.9 1.3 4.1 3.3.2 2.1-1.4 4.2-2.8 5.6-1.5 1.4-5.5 2.7-6.5 3 .1.6.2 1.3.2 1.9.4 3 .7 6 1.1 8.9.1 1 .3 2 .5 3.1v-1.3c.3-2.7 2.6-7.6 5.5-8.1 2.1-.4 3.9 1.3 4.1 3.3.2 2.1-1.4 4.2-2.8 5.6-1.4 1.3-5.1 2.5-6.3 2.9.2 1 .4 2.1.7 3.1.2.7.3 1.3.6 2 .2.7.4 1.3.6 2 .5 1.2.9 2.5 1.4 3.7.3.8.6 1.6 1 2.4-.2-1-.4-3-.4-3.2 0-1.8.6-4.7 1.8-6.7v-.8c.3-2 2.3-3.6 4.3-3 2.9.8 4.7 5.9 4.9 8.5 0 .2-.1 1.9-.2 3 .1-.6.3-1.2.4-1.9.3-1.3.6-2.6 1-3.9.2-.7.4-1.3.6-2 .2-.7.5-1.3.7-2 .6-1.6 1.2-3.1 1.9-4.7-1.1-.3-5.1-1.3-6.7-2.5-1.6-1.2-3.3-3.2-3.3-5.3 0-2.1 1.7-3.9 3.8-3.6 3 .3 5.6 5.1 6.1 7.7 0 .2.2 2.1.3 3.1.4-.9.8-1.9 1.3-2.8 1.3-2.7 2.8-5.4 4.2-8 .4-.8.9-1.6 1.3-2.5-.4-.1-5.1-1.2-6.9-2.6-1.6-1.2-3.3-3.2-3.3-5.3 0-2.1 1.7-3.9 3.8-3.6 3 .3 5.6 5.1 6.1 7.7 0 .2.3 3 .3 3.7.9-1.8 1.9-3.6 2.7-5.4 1.2-2.5 2.1-5 2.9-7.6-.2 0-5.1-1.2-7-2.6-1.6-1.2-3.3-3.2-3.3-5.3 0-2.1 1.7-3.9 3.8-3.6 3 .3 5.6 5.1 6.1 7.7 0 .2.3 3.2.3 3.7 0-.1.1-.3.2-.4.8-2.7 1.2-5.4 1.5-8 .2-1.5.2-2.9.3-4.3-.9-.1-5.3-.7-7-1.8-1.7-1-3.6-2.8-3.8-4.9-.2-2.1 1.3-4 3.4-4 3 0 6.1 4.4 6.9 7 0 .1.3 1.6.5 2.7v-1.9c0-2.3-.1-4.3-.3-6.2-.1-1-.2-2-.3-2.9-.9-.6-4.3-3-5.4-4.8-1-1.7-1.9-4.2-1.1-6.1.8-1.9 3-3 4.9-2 2.7 1.4 3.4 6.7 2.9 9.4 0 .2-1 3.7-1.1 3.7h-.1c.1.8.2 1.8.3 2.7.2 1.8.4 3.9.4 6.2.1 2.3.1 4.7-.2 7.4-.2 2.6-.6 5.3-1.4 8.1v.1c.5-.7 1.9-2.8 2-2.9 1.8-2 6.3-4.9 9.1-3.7 2 .8 2.6 3.2 1.6 5-.6 1.5-3.1 2.4-5.1 2.7"/><path fill="#838383" d="M122 667.2s-1-3.5-1-3.7c-.4-2.7.5-8 3.2-9.3 1.9-.9 4.1.2 4.8 2.1.7 2-.2 4.4-1.3 6.1-1.2 2-5.7 4.8-5.7 4.8m-12.4 24c-1.4.6-4.7.5-4.7.5s.7-2.2.8-2.3c.7-1.5 3.1-4.1 4.9-3.8 1.4.2 2.1 1.5 1.8 2.8-.3 1.3-1.6 2.3-2.8 2.8"/><path fill="#838383" d="M108.4 700.9c-1.4.2-4.4-.7-4.6-.7-.5 1.7-1.1 3.3-1.8 5-.4 1-.9 1.9-1.3 2.8.3-.4.5-.8.6-.8 1.1-1.3 4-3.1 5.8-2.4 1.3.5 1.6 2 1 3.2-.6 1.2-2.2 1.8-3.5 1.9-1.3.2-3.8-.5-4.5-.7-.2.4-.4.7-.5 1.1-.9 1.7-1.7 3.4-2.5 5.1-.3.6-.5 1.2-.8 1.8.2-.4.4-.6.5-.7 1.1-1.3 4-3.1 5.8-2.4 1.3.5 1.6 2 1 3.2-.6 1.2-2.2 1.8-3.5 1.9-1.2.2-3.6-.4-4.4-.7-.2.6-.5 1.2-.7 1.9-.1.4-.3.8-.4 1.3-.1.4-.2.8-.4 1.3l-.6 2.4c-.1.6-.2 1.1-.3 1.6.3-.6.8-1.8.9-1.9.9-1.4 3.5-3.7 5.3-3.2 1.3.3 1.9 1.8 1.5 3-.5 1.3-1.9 2.1-3.1 2.4-1.3.4-4.3 0-4.7 0-.2.9-.3 1.7-.5 2.6-.3 1.8-.6 3.4-.7 4.8h-1.2c.2-1.4.5-3.1.9-5 .2-.9.4-1.9.6-2.8-.2-.1-1.5-.6-2.6-1.2-1 1.1-3.5 2.3-3.8 2.4.3.8.7 1.6 1 2.4.7 1.6 1.3 3 1.9 4.2h-1.3c-.5-1.1-1-2.4-1.6-3.8-.3-.8-.7-1.8-1.1-2.7-.4.1-3.3.7-4.7.4-1.2-.3-2.7-1-3.3-2.2-.5-1.2-.1-2.7 1.2-3.1 1.8-.6 4.6 1.4 5.6 2.8.1.1.6 1 .9 1.6-.1-.4-.3-.8-.4-1.2-.3-.8-.6-1.6-.8-2.4-.1-.4-.3-.8-.4-1.3-.1-.4-.2-.9-.3-1.3-.2-1-.4-2.1-.6-3.2-.7.3-3.1 1.1-4.4 1-1.3-.1-2.9-.6-3.6-1.7-.7-1.1-.5-2.6.8-3.3 1.7-.9 4.7.7 5.9 1.9.1.1.8 1 1.3 1.6-.1-.6-.2-1.3-.3-1.9l-.6-5.7c-.1-.6-.1-1.2-.2-1.8-.2.1-3.1 1.2-4.6 1.1-1.3-.1-2.9-.6-3.6-1.7-.7-1.1-.5-2.6.8-3.3 1.7-.9 4.7.7 5.9 1.9.1.1 1.2 1.5 1.5 1.8-.1-1.3-.3-2.6-.5-3.8-.3-1.7-.6-3.4-1.1-5-.1 0-3.1 1.2-4.6 1.1-1.3-.1-2.9-.6-3.6-1.7-.7-1.1-.5-2.6.8-3.3 1.7-.9 4.7.7 5.9 1.9.1.1 1.3 1.6 1.5 1.9 0-.1 0-.2-.1-.3-.5-1.7-1.2-3.3-2-4.8-.4-.8-.9-1.6-1.4-2.4-.5.3-3 1.5-4.3 1.5-1.3.1-2.9-.2-3.8-1.3-.8-1-.7-2.6.4-3.3 1.6-1.1 4.8.2 6.1 1.3l1.2 1.2c-.2-.3-.4-.7-.6-1-.8-1.2-1.6-2.2-2.3-3.2-.4-.5-.8-1-1.2-1.4-.7 0-3.4-.1-4.5-.6s-2.5-1.5-2.7-2.9c-.3-1.3.5-2.6 1.9-2.8 1.9-.2 4.1 2.4 4.8 3.9.1.1.8 2.3.7 2.3.4.4.7.8 1.1 1.3.7.9 1.6 1.9 2.4 3.1.8 1.2 1.7 2.5 2.5 4s1.5 3 2.1 4.8v.1-2.2c.2-1.7 1.6-4.8 3.5-5.2 1.3-.2 2.5.8 2.6 2.1.1 1.3-.9 2.7-1.8 3.5-1.1 1-4 1.9-4.3 1.9.5 1.7.9 3.4 1.3 5.2.2 1 .3 2 .5 3.1v-1c.2-1.7 1.6-4.8 3.5-5.2 1.3-.2 2.5.8 2.6 2.1.1 1.3-.9 2.7-1.8 3.5-1 .9-3.5 1.7-4.1 1.9 0 .4.1.8.1 1.2.2 1.9.4 3.8.7 5.7.1.7.2 1.3.3 1.9v-.8c.2-1.7 1.6-4.8 3.5-5.2 1.3-.2 2.5.8 2.6 2.1.1 1.3-.9 2.7-1.8 3.5-.9.8-3.2 1.6-4 1.9.1.7.3 1.3.4 1.9.1.4.2.8.4 1.3.1.4.3.8.4 1.3l.9 2.4.6 1.5c-.1-.7-.3-1.9-.3-2 0-1.1.4-3 1.2-4.3v-.5c.2-1.3 1.4-2.3 2.8-1.9 1.8.5 3 3.7 3.1 5.4 0 .1-.1 1.2-.1 1.9l.3-1.2c.2-.8.4-1.6.6-2.5.1-.4.3-.8.4-1.3.1-.4.3-.9.4-1.3l1.2-3c-.7-.2-3.2-.8-4.2-1.6s-2.1-2-2.1-3.4c0-1.3 1.1-2.5 2.4-2.3 1.9.2 3.5 3.2 3.9 4.9 0 .1.1 1.3.2 2 .3-.6.5-1.2.8-1.8.8-1.7 1.8-3.4 2.7-5.1.3-.5.5-1 .8-1.6-.3-.1-3.3-.8-4.4-1.6-1-.8-2.1-2-2.1-3.4 0-1.3 1.1-2.5 2.4-2.3 1.9.2 3.5 3.2 3.9 4.9 0 .1.2 1.9.2 2.3.6-1.1 1.2-2.3 1.7-3.5.7-1.6 1.4-3.2 1.9-4.8-.1 0-3.3-.7-4.4-1.6-1-.8-2.1-2-2.1-3.4 0-1.3 1.1-2.5 2.4-2.3 1.9.2 3.5 3.2 3.9 4.9 0 .1.2 2 .2 2.4 0-.1.1-.2.1-.3.5-1.7.8-3.4 1-5.1.1-.9.2-1.9.2-2.7-.6-.1-3.3-.4-4.5-1.1-1.1-.7-2.3-1.8-2.4-3.1-.1-1.3.8-2.6 2.2-2.6 1.9 0 3.9 2.8 4.4 4.4 0 .1.2 1 .3 1.7v-1.2c0-1.4-.1-2.8-.2-3.9-.1-.7-.1-1.3-.2-1.8-.5-.4-2.8-1.9-3.4-3-.7-1.1-1.2-2.6-.7-3.9.5-1.2 1.9-1.9 3.1-1.3 1.7.9 2.1 4.3 1.9 6 0 .1-.7 2.4-.7 2.3.1.5.1 1.1.2 1.7.1 1.2.2 2.5.3 3.9 0 1.4 0 3-.1 4.7-.1 1.7-.4 3.4-.9 5.1v.1c.3-.5 1.2-1.8 1.3-1.8 1.1-1.3 4-3.1 5.8-2.4 1.3.5 1.6 2 1 3.2-.8 2-2.4 2.6-3.7 2.8"/><path fill="#838383" d="M75.8 691.9s-.6-2.2-.6-2.4c-.2-1.7.3-5.1 2-5.9 1.2-.6 2.6.1 3.1 1.4.5 1.3-.1 2.8-.8 3.9-.9 1.2-3.7 3-3.7 3m565.6-3.1c-1.4.6-4.7.5-4.7.5s.7-2.2.8-2.3c.7-1.5 3.1-4.1 4.9-3.8 1.4.2 2.1 1.5 1.8 2.8-.3 1.4-1.7 2.3-2.8 2.8"/><path fill="#838383" d="M640.2 698.5c-1.4.2-4.4-.7-4.6-.7-.5 1.7-1.1 3.3-1.8 5-.4.9-.9 1.9-1.3 2.8.3-.4.5-.8.6-.8 1.1-1.3 4-3.1 5.8-2.4 1.3.5 1.6 2 1 3.2-.6 1.2-2.2 1.8-3.5 1.9-1.3.2-3.8-.5-4.5-.7-.2.4-.4.7-.5 1.1-.9 1.7-1.7 3.4-2.5 5.1-.3.6-.5 1.2-.8 1.8.2-.4.4-.6.5-.7 1.1-1.3 4-3.1 5.8-2.4 1.3.5 1.6 2 1 3.2-.6 1.2-2.2 1.8-3.5 1.9-1.2.2-3.6-.4-4.4-.7-.2.6-.5 1.2-.7 1.9-.1.4-.3.8-.4 1.3-.1.4-.2.8-.4 1.3-.2.8-.4 1.7-.6 2.4-.1.6-.2 1.1-.3 1.6.3-.6.8-1.8.9-1.9.9-1.4 3.5-3.7 5.3-3.2 1.3.3 1.9 1.8 1.5 3-.5 1.3-1.9 2.1-3.1 2.4-1.3.4-4.3 0-4.7 0-.2.9-.3 1.7-.5 2.6-.3 1.8-.6 3.4-.7 4.8h-1.2c.2-1.4.5-3.1.9-5 .2-.9.4-1.9.6-2.8-.2-.1-1.5-.6-2.6-1.2-1 1.1-3.5 2.3-3.8 2.4.3.8.7 1.6 1 2.4.7 1.6 1.3 3 1.9 4.2h-1.3c-.5-1.1-1-2.4-1.6-3.8-.3-.8-.7-1.8-1.1-2.7-.4.1-3.3.7-4.7.4-1.2-.3-2.7-1-3.3-2.2-.5-1.2-.1-2.7 1.2-3.1 1.8-.6 4.6 1.4 5.6 2.8.1.1.6 1 .9 1.6-.1-.4-.3-.8-.4-1.2-.3-.8-.6-1.6-.8-2.4-.1-.4-.3-.8-.4-1.3-.1-.4-.2-.9-.3-1.3-.2-1-.4-2.1-.6-3.2-.7.3-3.1 1.1-4.4 1-1.3-.1-2.9-.6-3.6-1.7-.7-1.1-.5-2.6.8-3.3 1.7-.9 4.7.7 5.9 1.9.1.1.8 1 1.3 1.6-.1-.6-.2-1.3-.3-1.9l-.6-5.7c-.1-.6-.1-1.2-.2-1.8-.2.1-3.1 1.2-4.6 1.1-1.3-.1-2.9-.6-3.6-1.7-.7-1.1-.5-2.6.8-3.3 1.7-.9 4.7.7 5.9 1.9.1.1 1.2 1.5 1.5 1.8-.1-1.3-.3-2.6-.5-3.8-.3-1.7-.6-3.4-1.1-5-.1 0-3.1 1.2-4.6 1.1-1.3-.1-2.9-.6-3.6-1.7-.7-1.1-.5-2.6.8-3.3 1.7-.9 4.7.7 5.9 1.9.1.1 1.3 1.6 1.5 1.9 0-.1 0-.2-.1-.3-.5-1.7-1.2-3.3-2-4.8-.4-.8-.9-1.6-1.4-2.4-.5.3-3 1.5-4.3 1.5-1.3.1-2.9-.2-3.8-1.3-.8-1-.7-2.6.4-3.3 1.6-1.1 4.8.2 6.1 1.3l1.2 1.2c-.2-.3-.4-.7-.6-1-.8-1.2-1.6-2.2-2.3-3.2-.4-.5-.8-1-1.2-1.4-.7 0-3.4-.1-4.5-.6s-2.5-1.5-2.7-2.9c-.3-1.3.5-2.6 1.9-2.8 1.9-.2 4.1 2.4 4.8 3.9.1.1.8 2.3.7 2.3.4.4.7.8 1.1 1.3.7.9 1.6 1.9 2.4 3.1.8 1.2 1.7 2.5 2.5 4s1.5 3 2.1 4.8v.1-2.2c.2-1.7 1.6-4.8 3.5-5.2 1.3-.2 2.5.8 2.6 2.1.1 1.3-.9 2.7-1.8 3.5-1.1 1-4 1.9-4.3 1.9.5 1.7.9 3.4 1.3 5.2.2 1 .3 2 .5 3.1v-1c.2-1.7 1.6-4.8 3.5-5.2 1.3-.3 2.5.8 2.6 2.1.1 1.3-.9 2.7-1.8 3.5-1 .9-3.5 1.7-4.1 1.9 0 .4.1.8.2 1.2.2 1.9.4 3.8.7 5.7.1.7.2 1.3.3 1.9v-.8c.2-1.7 1.6-4.8 3.5-5.2 1.3-.2 2.5.8 2.6 2.1.1 1.3-.9 2.7-1.8 3.5-.9.8-3.2 1.6-4 1.9.1.7.3 1.3.4 1.9.1.4.2.8.4 1.3.1.4.3.8.4 1.3l.9 2.4.6 1.5c-.1-.7-.3-1.9-.3-2 0-1.1.4-3 1.2-4.3v-.5c.2-1.3 1.4-2.3 2.8-1.9 1.8.5 3 3.7 3.1 5.4 0 .1-.1 1.2-.1 1.9l.3-1.2c.2-.8.4-1.6.6-2.5.1-.4.3-.8.4-1.3.1-.4.3-.9.4-1.3l1.2-3c-.7-.2-3.2-.8-4.2-1.6s-2.1-2-2.1-3.4c0-1.3 1.1-2.5 2.4-2.3 1.9.2 3.5 3.2 3.9 4.9 0 .1.1 1.3.2 2 .3-.6.5-1.2.8-1.8.8-1.7 1.8-3.4 2.7-5.1.3-.5.5-1 .8-1.6-.3-.1-3.3-.8-4.4-1.6-1-.8-2.1-2-2.1-3.4 0-1.3 1.1-2.5 2.4-2.3 1.9.2 3.5 3.2 3.9 4.9 0 .1.2 1.9.2 2.3.6-1.1 1.2-2.3 1.7-3.5.7-1.6 1.4-3.2 1.9-4.8-.1 0-3.3-.7-4.4-1.6-1-.8-2.1-2-2.1-3.4 0-1.3 1.1-2.5 2.4-2.3 1.9.2 3.5 3.2 3.9 4.9 0 .1.2 2 .2 2.4 0-.1.1-.2.1-.3.5-1.7.8-3.4 1-5.1.1-.9.2-1.9.2-2.7-.6-.1-3.3-.4-4.5-1.1-1.1-.7-2.3-1.8-2.4-3.1-.1-1.3.8-2.6 2.2-2.6 1.9 0 3.9 2.8 4.4 4.4 0 .1.2 1 .3 1.7v-1.2c0-1.4-.1-2.8-.2-3.9-.1-.7-.1-1.3-.2-1.8-.5-.4-2.8-1.9-3.4-3-.7-1.1-1.2-2.6-.7-3.9.5-1.2 1.9-1.9 3.1-1.3 1.7.9 2.1 4.3 1.9 6 0 .1-.7 2.4-.7 2.3.1.5.1 1.1.2 1.7.1 1.2.2 2.5.3 3.9 0 1.4 0 3-.1 4.7-.1 1.7-.4 3.4-.9 5.1v.1c.3-.5 1.2-1.8 1.3-1.8 1.1-1.3 4-3.1 5.8-2.4 1.3.5 1.6 2 1 3.2-1 2-2.5 2.6-3.8 2.8"/><path fill="#838383" d="M607.6 689.6s-.6-2.2-.6-2.4c-.2-1.7.3-5.1 2-5.9 1.2-.6 2.6.1 3.1 1.4.5 1.3-.1 2.8-.8 3.9-.9 1.2-3.7 3-3.7 3"/><path fill="#9BD2A6" d="M701.7 526.3s-52.5 5.2-79.1 37.7c0 0-28.1-37.7-78.6-36.9-14.6-17.7-23.5-40.3-23.5-65.1 0-56.3 45.6-102 102-102 56.3 0 102 45.6 102 102 .1 24.4-8.5 46.9-22.8 64.3z"/><path fill="#9BD2A6" d="M701.7 526.3s-52.5 5.2-79.1 37.7c0 0-28.1-37.7-78.6-36.9-14.6-17.7-23.5-40.3-23.5-65.1 0-56.3 45.6-102 102-102 56.3 0 102 45.6 102 102 .1 24.4-8.5 46.9-22.8 64.3z"/><g opacity=".3"><defs><path id="i" d="M520.6 360.1h204v204h-204z"/></defs><clipPath id="j"><use xlink:href="#i" overflow="visible"/></clipPath><path clip-path="url(#j)" fill="#FFF" d="M701.7 526.3s-52.5 5.2-79.1 37.7c0 0-28.1-37.7-78.6-36.9-14.6-17.7-23.5-40.3-23.5-65.1 0-56.3 45.6-102 102-102 56.3 0 102 45.6 102 102 .1 24.4-8.5 46.9-22.8 64.3z"/></g><path fill="#838383" d="m619.5 735.7 4.9-368.5 1.2 368.5z"/><path fill="#838383" d="M621.7 554.2s-17.7-31.9-49.6-41.6c0 0 33.7 8 50.5 35.4l-.9 6.2zm2-89.5s-19.6-32.8-51.5-42.5c0 0 34.7 10 51.5 37.4v5.1zm-.7 46.5s-19-34.2-50.8-43.9c0 0 34.5 9.6 51.3 37l-.5 6.9zm1.4-24.4s17.1-31.9 47.9-41.6c0 0-32.5 8-48.7 35.4l.8 6.2zm0 44.3s17.1-31.9 47.9-41.6c0 0-32.5 8-48.7 35.4l.8 6.2z"/><path fill="#9BD2A6" d="M190.2 526.3s-52.5 5.2-79.1 37.7c0 0-28.1-37.7-78.6-36.9C17.9 509.4 9 486.8 9 462c0-56.3 45.6-102 102-102 56.3 0 102 45.6 102 102 .1 24.4-8.5 46.9-22.8 64.3z"/><g opacity=".3"><defs><path id="k" d="M9.1 360.1h204v204H9.1z"/></defs><clipPath id="l"><use xlink:href="#k" overflow="visible"/></clipPath><path clip-path="url(#l)" fill="#FFF" d="M190.2 526.3s-52.5 5.2-79.1 37.7c0 0-28.1-37.7-78.6-36.9C17.9 509.4 9 486.8 9 462c0-56.3 45.6-102 102-102 56.3 0 102 45.6 102 102 .1 24.4-8.5 46.9-22.8 64.3z"/></g><path fill="#838383" d="m108 735.7 4.9-368.5 1.2 368.5z"/><path fill="#838383" d="M110.2 554.2s-17.7-31.9-49.6-41.6c0 0 33.7 8 50.5 35.4l-.9 6.2zm1.9-89.5s-19.6-32.8-51.5-42.5c0 0 34.7 10 51.5 37.4v5.1zm-.6 46.5s-19-34.2-50.8-43.9c0 0 34.5 9.6 51.3 37l-.5 6.9zm1.3-24.4s17.1-31.9 47.9-41.6c0 0-32.5 8-48.7 35.4l.8 6.2zm0 44.3s17.1-31.9 47.9-41.6c0 0-32.5 8-48.7 35.4l.8 6.2z"/><path fill="#9BD2A6" d="M372.3 343.7s-89.1 8.8-134.3 64.1c0 0-47.7-64-133.5-62.7-24.9-30-39.8-68.5-39.9-110.5 0-95.7 77.5-173.3 173.2-173.3 95.7 0 173.3 77.5 173.3 173.2 0 41.5-14.6 79.6-38.9 109.4l.1-.2z"/><g opacity=".3"><defs><path id="m" d="M64.6 61.3h346.5v346.5H64.6z"/></defs><clipPath id="n"><use xlink:href="#m" overflow="visible"/></clipPath><path clip-path="url(#n)" fill="#FFF" d="M372.3 343.7s-89.1 8.8-134.3 64.1c0 0-47.7-64-133.5-62.7-24.9-30-39.8-68.5-39.9-110.5 0-95.7 77.5-173.3 173.2-173.3 95.7 0 173.3 77.5 173.3 173.2 0 41.5-14.6 79.6-38.9 109.4l.1-.2z"/></g><path fill="#838383" d="m232.1 735.7 8.8-662.2 2.2 662.2z"/><path fill="#838383" d="M236.4 391s-30.1-54.2-84.3-70.7c0 0 57.2 13.5 85.8 60.2l-1.5 10.5zm3.3-152s-33.4-55.6-87.5-72.2c0 0 59 17 87.5 63.6v8.6zm-1.2 79.1s-32.2-58-86.4-74.6c0 0 58.6 16.2 87.2 62.9l-.8 11.7zm2.3-41.5s29-54.2 81.3-70.7c0 0-55.2 13.5-82.8 60.2l1.5 10.5zm0 75.3s29-54.2 81.3-70.7c0 0-55.2 13.5-82.8 60.2l1.5 10.5z"/><path fill="none" stroke="#273238" stroke-linecap="round" stroke-linejoin="round" stroke-miterlimit="10" d="M25.8 735.2H8.9m695.3 0H41.3"/><g opacity=".1"><defs><path id="o" d="M331 742.4h214.8V775H331z"/></defs><clipPath id="p"><use xlink:href="#o" overflow="visible"/></clipPath><path clip-path="url(#p)" fill="#33334C" d="M331 758.7c0 9 48.1 16.3 107.4 16.3 59.3 0 107.4-7.3 107.4-16.3s-48.1-16.3-107.4-16.3c-59.3 0-107.4 7.3-107.4 16.3"/></g><path fill="#090B0A" d="m391.8 580.6 11.9 143.8h21c4.9-56 12.7-105.1 3.9-143.8 8.9-43.6 15.5-142.5 15.5-142.5-16-7.3-41.7-14-41.7-14-8.5 48.4-10.6 156.5-10.6 156.5"/><path fill="#2EBFC6" d="M355 758.3h68.6c3.2 0 5.9-2.4 6.3-5.5.1-.4.1-.9 0-1.3l-2.8-36s-2.9-1.3-6.9-2.3c-2.4-.6-4.4-2.3-5.1-4.6-.1-.2-.1-.3-.1-.5-1.6-6.9-11.6-9.1-13.4-2.4-.2.9-.4 1.7-.6 2.5 0 .2-.1.4-.1.6-.3 1.5-.5 2.8-.7 4v.1c-.4 3-.3 4.9-.3 4.9-.9 1.2-1.8 2.3-2.6 3.4-.4.6-.8 1.1-1.3 1.7-.9 1.2-1.8 2.3-2.6 3.4l-1.2 1.5c-1 1.2-1.9 2.3-2.8 3.4-.4.5-.8.9-1.3 1.4-3.5 3.7-7.1 6.3-11.3 6.8-7.4 1-19.6 1.8-25.5 12.8-.1.2-.2.5-.3.7-.9 2.5 1.1 5.4 4 5.4"/><path fill="#0EA8B1" d="M355 758.3h68.6c3.2 0 5.9-2.4 6.3-5.5H351c-.9 2.6 1.1 5.5 4 5.5"/><path fill="#FFF" d="M396 722.8c.8 1.2 2.4 2.6 5.7 3.9.6.2 1.2.4 1.8.7l.6-1.8-1.8-.6c-3.8-1.5-4.8-3-5.1-3.8-.4.5-.8 1.1-1.2 1.6"/><path fill="#FFF" d="M401.7 726.4c0 1.2 1 2.1 2.1 2.1 1.2 0 2.1-1 2.1-2.1 0-1.2-1-2.1-2.1-2.1-1.2 0-2.1 1-2.1 2.1m-9.5 1.3c.9.9 2.3 2 4.7 3 .7.3 1.4.5 2.2.8l.6-1.8c-.7-.2-1.4-.5-2-.7-2.4-1-3.6-2-4.3-2.7-.4.4-.8.9-1.2 1.4"/><path fill="#FFF" d="M396.9 730.6c0 1.2 1 2.1 2.1 2.1 1.2 0 2.1-1 2.1-2.1s-1-2.1-2.1-2.1c-1.2 0-2.1.9-2.1 2.1m-8.8 1.9c.9.9 2.3 1.9 4.5 2.8.7.3 1.4.6 2.2.8l.6-1.8c-.8-.2-1.4-.5-2-.8-2.1-.9-3.4-1.8-4-2.5-.5.6-.9 1-1.3 1.5"/><path fill="#FFF" d="M392.6 735.2c0 1.2 1 2.1 2.1 2.1 1.2 0 2.1-1 2.1-2.1s-1-2.1-2.1-2.1c-1.2 0-2.1 1-2.1 2.1m7.6-22.4c3.1 0 6.1.3 6.1.3v-3.4c-1.9-.7-3.8-.9-5.4-.9-.3 1.5-.5 2.8-.7 4"/><path fill="#2D2C2C" d="M455.3 438.2s.5 57.1 8.6 142.5c5.3 46.5 11.2 104.9 17.7 143.8h21l3-143.8s4.8-88.5-5.6-149.4l-44.7 6.9z"/><path fill="#2EBFC6" d="M463.3 753.5c.6 12.1 38.4 7.9 44.4 4.3 2.3-1.4 3.3-4.1 3.5-7.4.3-5.2-1.4-11.9-2.9-17.1-2.4-8.5-2.1-8.4-3.8-14.2 0 0 .4-9.5-11.9-13.1-12.4-3.6-16.9 19.9-19 24.5-1.9 4.2-9.5 9.8-10.2 20-.2 1-.2 2-.1 3"/><path fill="#FFF" d="m499.3 726.8 1-1.5c-.5-.3-11.4-7.3-20.9-3.1l.7 1.7c8.6-3.9 19.1 2.8 19.2 2.9m-1.1 10.5 1-1.5c-.5-.3-11.4-7.3-20.9-3.1l.7 1.7c8.7-3.9 19.1 2.8 19.2 2.9m.6-5.3 1-1.5c-.5-.3-11.4-7.3-20.9-3.1l.7 1.7c8.6-3.9 19 2.9 19.2 2.9"/><path fill="#FFF" d="M497.9 726.3c0 1.1.9 2 2 2s2-.9 2-2-.9-2-2-2-2 .9-2 2m-.2 5c0 1.1.9 2 2 2s2-.9 2-2-.9-2-2-2c-1-.1-2 .8-2 2m-1 5c0 1.1.9 2 2 2s2-.9 2-2-.9-2-2-2c-1.1-.1-2 .8-2 2m-20.1-3c0 1.1.9 2 2 2s2-.9 2-2-.9-2-2-2-2 .9-2 2m.6-5.4c0 1.1.9 2 2 2s2-.9 2-2-.9-2-2-2c-1.1-.1-2 .8-2 2m.5-5.5c0 1.1.9 2 2 2s2-.9 2-2-.9-2-2-2-2 .9-2 2"/><path fill="#0EA8B1" d="M463.3 753.5c.6 12.1 38.4 7.9 44.4 4.3 2.3-1.4 3.3-4.1 3.5-7.4-4 2.3-11 5.1-21.4 5.3-12.8.2-22.1-2.4-26.5-5.1-.1.9-.1 1.9 0 2.9"/><path fill="#FFF" d="M487.2 709.8s5.7-.6 10.6 2.1l-.6 3.8s-6.8-2-11.4-1.7c.1 0 .2-2.5 1.4-4.2"/><path fill="#2D2C2C" d="M497 416.2s7.1 25.2 7 47.6c0 0-34.8 15.2-79.1-1.6-18.1-6.9-27.3-27.1-20.8-45.3.1-.2.2-.4.2-.7.1 0 56.7-2.3 92.7 0"/><path fill="#172E47" d="M475.8 223s47.7-4.8 70.3 21.5c22.6 26.3 8.5 142.3-15.7 153.4-24.2 11.1-60.7 7.4-70.5-12.3-9.8-19.8-8.4-124.7 15.9-162.6"/><path fill="#151A31" d="M478 237.3s43.7.4 56.8 21.7c13.1 21.3 8.6 108.3-11.9 122.4-20.5 14.1-42.9 7.1-59-17.4-3.8-46.4-1.2-89.6 14.1-126.7"/><path fill="#416DB5" d="M389.4 337.9c0-59.5 24-96.2 24-96.2 16 56.5.7 88.5-3.5 103.5-4.1 15-43.8 69.7-43.8 69.7-3.5-4.1-8-6.9-12.3-7.7 0 0 12.7-24.6 17.2-33.7 4.6-9.4 18.4-35.6 18.4-35.6"/><path fill="#FAAE82" d="M355.7 406.5s-5.7 1.4-10.3 3.7c-4.6 2.3-10.1 5.2-12.9 6.7-3.4 1.8-.3 4.7 4.5 2.5s5.9-2.7 5.9-2.7-15.9 12.9-18.5 17.7c-2.4 4.4 6.7-2.2 14.6-7.3 0 0-13.2 15.1-12.2 18.3 1.3 4.3 17.2-14 17.2-14s-9.7 15.3-7.8 16.2c2.2 1 14.1-13.4 14.1-13.4s-5.8 11.1-4.2 11.2c3 .3 19.8-20.3 20-32.5 0 .1-7.4-6.5-10.4-6.4"/><path fill="#F58969" d="M340.4 423s5.8 7.6 14.7 8.6c0 .1-8.5 3.1-14.7-8.6m9.7-.2s10.2-4.6 5.9-13.5c0-.1 8.1 8.4-5.9 13.5"/><path fill="#5477BB" d="M467 207s25.8-.7 38 9.5c12.1 10.3 1.6 32.3-11.1 35.5-12.7 3.2-52.8-.2-57.1-6.9-4.4-6.7-2.8-36.5 30.2-38.1"/><path fill="#5477BB" d="M515 430.2c-38 25.5-76 24.5-115.2 2.5l13.6-191.1 22.6-3.9 1.8-.3 5.1-.9 31.6-5.4 5.4 1.6 6.8 2.1 1.6.5 30.4 9.2-17.5 131.6 13.8 54.1z"/><path fill="#416DB5" d="M466.3 253.2c22.7-.8 27.3-21.1 27.4-21.3.1-.5-.2-.9-.6-1-.5-.1-.9.2-1 .6-.2.8-4.4 19.1-25.8 19.9h-.4c-.5 0-.8.4-.8.9s.4.8.9.8c.1.1.2.1.3.1m-21.4-2.4c.5 0 .8-.4.8-.9s-.4-.8-.9-.8c-.3 0-6.9 0-8.9-8.9-.1-.5-.6-.7-1-.6-.5.1-.7.6-.6 1 2.3 10.2 10.5 10.2 10.6 10.2m30.3 125.9s.8 17.8 5.4 34.1c0 0-42 8.4-66.4-3.7 0 0-3.1-15.5-.7-33.3l61.7 2.9z"/><path fill="#FFF" d="M464.4 333.8s.1 0 0 0c.5-.1.8-.5.8-.9-2.6-20.8 3.5-73.9 3.5-74.4.1-.4-.3-.9-.7-.9-.4 0-.9.3-.9.7-.1.5-6.1 53.8-3.5 74.8 0 .4.4.7.8.7m-27.8-3.2s.1 0 0 0c.5-.1.8-.5.8-.9-2.6-20.8 3.7-74.3 3.8-74.8.1-.5-.3-.9-.7-.9-.4-.1-.9.3-.9.7-.1.5-6.4 54.2-3.8 75.2 0 .4.4.7.8.7"/><path fill="#172E47" d="M507.3 240.1s-30 83.5-4.9 128.4c3.8 4.7 3.6 17.3 2.9 22.5 0 0-31.2-21.3-26.9-76 4.2-54.7 15.6-78.1 15.6-78.1s5.8-6.2 13.3 3.2m-79.6-.9s-18.8 50.4-23.1 126.4c0 0-16.6-65.8 9.1-121.4 0-.1 4.4-9.9 14-5"/><path fill="#FAAE82" d="M518.9 411.3s-5.8 2.9-9.5 6.7c-3.7 3.9-7.4 8.1-9.6 10.5-2.7 2.9.9 4.2 4.1 2.4 4.8-2.6 6.1-5.2 6.1-5.2s-11 18.2-11.9 23.8c-.8 5.2 5.8-4.6 11.7-12.3 0 0-7.6 19.4-5.5 22.2 2.7 3.7 11.9-19.8 11.9-19.8s-4.2 18.3-1.9 18.5c2.5.2 9.1-18 9.1-18s-1.8 12.9-.2 12.4c3.1-.8 12.3-26.8 8.1-38.8 0 .3-9.6-3.5-12.4-2.4"/><path fill="#5477BB" d="M527.8 330.7s-10.3-10.3-21.2-40.1c0 0-4.3-42 12.3-46.2 0 0 24.6 34.7 33.9 78.1 0 0 3.7 52.7-20.7 91.8 0 0-7.8.7-13.1-3.1-.1.1 11.6-57 8.8-80.5"/><path fill="#172E47" d="M414.2 149.7s-7.6 5.4-4.3 19.3 8.8 15.1 8.8 15.1 7-31.2-4.5-34.4"/><path fill="#FAAE82" d="m447.1 214.9 2.2 17.6 1 8c10.7 6.8 26.5-4.6 26.5-4.6l-.4-27.7c-4.9-2.8-16.4 2.1-23.5 4.6-3.5 1.2-5.8 2.1-5.8 2.1"/><path fill="#F58969" d="m447.1 214.9 2.2 17.6c11.7-3.6 20.6-20.8 20.6-20.8l-17.1 1c-3.4 1.3-5.7 2.2-5.7 2.2"/><path fill="#FAAE82" d="M411.6 170.6v1.9c0 .5.1 1 .1 1.6.4 5.5 1.1 11.5 2.1 17.5.2 1.3.4 2.5.6 3.8.2 1.1.4 2.2.6 3.2.4 2.2.8 4.4 1.3 6.5.3 1.5.6 2.9.9 4.3.2 1 .5 1.9.8 2.9 1 2.9 2.7 5.4 4.7 7.5 5 5.1 12.4 7.5 19.9 5.7 6.1-1.5 12.8-3.2 19.1-5.2l.9-.3c5-1.6 9.7-3.4 13.5-5.2.5-.7.9-1.5 1.4-2.2 3.8-6.6 5.9-13.9 7.1-21.5.5-3 .8-6.1.9-9.1 0-.2.1-.5.1-.7-.1-2.8-.2-5.6-.4-8.3-1.1-19.8-18.4-34.8-38.2-33.1-15.7 1.4-30.4 8-33.8 16.3-1.2 2.9-1.7 7.4-1.6 12.8v1.6"/><path fill="#172E47" d="M477.5 212.4c3.8-6.6 5.9-13.9 7.1-21.5-2.2.1-5.1.9-8.8 2.8 0 0-.4 11.1 1.7 18.7m-37.1-31.2c.1 2.3 1.2 4.2 2.5 4.1 1.3 0 2.3-2 2.2-4.3-.1-2.3-1.2-4.2-2.5-4.1-1.3 0-2.3 1.9-2.2 4.3m-24 .8c.1 2.3 1.2 4.2 2.5 4.1 1.3 0 2.3-2 2.2-4.3s-1.2-4.2-2.5-4.1c-1.3.1-2.3 2-2.2 4.3m69-7.2s-7.6-4.6-13.6 4.3l-4.9.2s-.1-10-2.7-15.4-11.9-4.9-13.6-11.2c0 0-22.5 11.9-35.9 5.3-30.4-14.8 31.4-37.5 54.8-25.5 17.5 8.9 18.8 25 15.9 42.3"/><path fill="#172E47" d="M452.1 173.1s-.6-5.1-4.3-7.6c-3.4-2.3-6.4-2.3-8-2-.7.1-1.2.7-1.2 1.4 0 .8.7 1.5 1.6 1.4 2.7-.2 8.2.2 11.9 6.8m-40.5-2.5v1.1c3-3.6 6.8-4.2 8.9-4.2.2 0 .4 0 .6-.1.5-.2.9-.8.8-1.4-.1-.7-.6-1.3-1.3-1.3-1.6-.1-4.6.2-7.8 2.8-.5.4-.9.9-1.3 1.4.1.5.1 1.1.1 1.7"/><path fill="#FAAE82" d="M471.8 179.1s7.1-9.3 13.6-4.3c7.1 5.5 2.6 25.3-11.5 25.4l-2.1-21.1z"/><path fill="#F58969" d="M473.4 195.9c.6 0 1.1-.5 1.2-1.1.8-10 6.6-11.7 6.8-11.8.7-.2 1-.9.9-1.5-.2-.7-.8-1-1.5-.9-.3.1-7.8 2.2-8.7 14-.1.7.5 1.3 1.1 1.3h.2"/><path fill="#F58969" d="M481 189.4c.3 0 .6-.1.8-.3.5-.5.5-1.3 0-1.7-.1-.1-2.6-2.7-6.7-1.7-.7.2-1.1.8-.9 1.5.2.7.8 1.1 1.5.9 2.6-.7 4.2 1 4.3 1 .4.1.7.3 1 .3M438.4 212c-4.9-.1-7.8 2.6-8 2.7-.5.5-.5 1.2-.1 1.7.5.5 1.2.5 1.7.1.2-.2 4-3.5 10.3-1.3.6.2 1.3-.1 1.6-.7.2-.6-.1-1.3-.7-1.6-1.8-.6-3.4-.9-4.8-.9"/><path fill="#172E47" d="M433.9 181.4c-.2-5.5 4.1-10.2 9.6-10.4 5.5-.2 10.2 4.1 10.4 9.6.2 5.5-4.1 10.2-9.6 10.4-5.5.2-10.2-4.1-10.4-9.6m1.7-.1c.2 4.6 4.1 8.2 8.7 8 4.6-.2 8.2-4.1 8-8.7-.2-4.6-4.1-8.2-8.7-8-4.6.3-8.2 4.1-8 8.7m-27.7 1.1c-.2-5.5 4.1-10.2 9.6-10.4 5.5-.2 10.2 4.1 10.4 9.6.2 5.5-4.1 10.2-9.6 10.4-5.5.2-10.2-4.1-10.4-9.6m1.7-.1c.2 4.6 4.1 8.2 8.7 8 4.6-.2 8.2-4.1 8-8.7-.2-4.6-4.1-8.2-8.7-8-4.6.2-8.2 4.1-8 8.7"/><path fill="#172E47" d="m471.43 176.79-18.777 2.159-.183-1.59 18.777-2.158zm-37.03 3.81.9-1.4c-1.6-1.1-5.6-2.4-8.9.3l1 1.3c3.2-2.6 6.8-.3 7-.2"/><path fill="#F58969" d="M429.1 195.2c.4 0 .7-.2 1-.5.4-.6.3-1.3-.3-1.7l-3.4-2.4 2.8-.8c.5-.1.8-.5.9-1l1-7.9c.1-.7-.4-1.3-1.1-1.4-.7-.1-1.3.4-1.4 1.1l-.9 7.1-4.5 1.3c-.5.1-.8.5-.9 1-.1.5.1.9.5 1.2l5.5 3.9c.2 0 .5.1.8.1"/><path fill="#921A1D" d="M447.4 205.8c-.2 1.6-1 2.9-2.2 3.7-.9.6-1.9.9-3 .9-4.1-.1-9.7-.1-12.5.8-.7.2-1.4.2-1.9 0-.6-.2-1.1-.6-1.5-1.2-.8-1.2-1.1-2.5-.8-3.8.1-.3.1-.5.2-.8.5-1.3 1.5-2.4 2.8-2.9 2.5-1 5.9-2.3 9.5-3.2.8-.2 1.6-.3 2.3-.4 2.1-.3 4 .5 5.3 1.9.2.2.3.4.5.5 1 1.3 1.5 2.9 1.3 4.5"/><path fill="#FFF" d="m445.7 200.9-19.9 4.6c.5-1.3 1.5-2.4 2.8-2.9 2.5-1 5.9-2.3 9.5-3.2.8-.2 1.6-.3 2.3-.4 2.1-.3 4 .5 5.3 1.9"/><path fill="#F15D67" d="M445.2 209.5c-.9.6-1.9.9-3 .9-4.1-.1-9.7-.1-12.5.8-.7.2-1.4.2-1.9 0 .7-1.3 3.1-4.5 8.6-4.5 4.9-.1 7.6 1.7 8.8 2.8"/><defs><path id="q" d="M481 247.9c0 16.2 13.1 29.3 29.3 29.3 16.2 0 29.3-13.1 29.3-29.3 0-16.2-13.1-29.3-29.3-29.3-16.2 0-29.3 13.2-29.3 29.3"/></defs><clipPath id="s"><use xlink:href="#q" overflow="visible"/></clipPath><defs><filter id="r" filterUnits="userSpaceOnUse" x="481" y="218.6" width="58.6" height="58.6"><feColorMatrix values="1 0 0 0 0 0 1 0 0 0 0 0 1 0 0 0 0 0 1 0"/></filter></defs><mask maskUnits="userSpaceOnUse" x="481" y="218.6" width="58.6" height="58.6" id="u"><g filter="url(#r)"><radialGradient id="t" cx="-580.853" cy="925.274" r="1" gradientTransform="rotate(180 -8248.82 13670.438) scale(29.281)" gradientUnits="userSpaceOnUse"><stop offset="0" style="stop-color:#fff"/><stop offset="1" style="stop-color:#000"/></radialGradient><path clip-path="url(#s)" fill="url(#t)" d="M481 218.6h58.6v58.6H481z"/></g></mask><radialGradient id="v" cx="-580.853" cy="925.274" r="1" gradientTransform="rotate(180 -8248.82 13670.438) scale(29.281)" gradientUnits="userSpaceOnUse"><stop offset="0" style="stop-color:#ee2424"/><stop offset="1" style="stop-color:#ee2424"/></radialGradient><path clip-path="url(#s)" mask="url(#u)" fill="url(#v)" d="M481 218.6h58.6v58.6H481z"/><path fill="#EE2424" d="M533.6 198.8c-.1 0-.1 0 0 0-.6-.5-1.1-.9-1.7-1.3h-.1l-.3.6c-.2.4-.5.9-.7 1.3-.3.6-.6 1.2-.9 1.9-.2.3-.3.7-.5 1-.2.4-.4.7-.6 1.1-.1.2-.2.5-.3.7l-.2.2c-.4-.3-.9-.7-1.3-1 0 .1-.1.3-.1.4-.1.5-.3 1.1-.4 1.6-.1.5-.2.9-.3 1.4-.1.5-.3 1.1-.4 1.6-.2.8-.4 1.5-.6 2.3-.1.5-.3 1.1-.4 1.6-.1.2-.1.5-.2.7v.1s0-.1.1-.1c.1-.3.3-.5.4-.8.2-.3.3-.7.5-1 .2-.4.3-.7.5-1.1.2-.4.3-.7.5-1.1.3-.5.5-1.1.8-1.6.3-.6.6-1.2.8-1.7l.3-.6c0-.1 0-.1.1-.1.5.4.9.7 1.4 1.1l.1-.1c.1-.3.3-.6.4-.9.2-.3.3-.6.5-.9.1-.3.3-.5.4-.8l.3-.6c.2-.3.3-.7.5-1 .4-.8.8-1.6 1.2-2.3 0-.2.1-.4.2-.6m-42.9 6.7c-.7.2-1.4.4-2 .5h-.1l.3.6c.2.4.4.9.7 1.3.3.6.6 1.2.9 1.9.2.3.3.7.5 1 .2.4.4.7.6 1.1.1.2.2.5.3.7.1.1.1.2 0 .3-.5.1-1.1.3-1.6.4h-.1l.3.3c.4.4.7.9 1.1 1.3.3.4.6.7.9 1.1.3.4.7.8 1 1.3l1.5 1.8c.4.4.7.9 1.1 1.3.2.2.3.4.5.6v-.1c-.1-.3-.3-.5-.4-.8-.2-.3-.3-.7-.5-1-.2-.4-.4-.7-.6-1.1-.2-.3-.4-.7-.5-1-.3-.5-.5-1-.8-1.5-.3-.6-.6-1.1-.9-1.7l-.3-.6v-.1c.6-.2 1.1-.3 1.7-.5v-.1c-.1-.3-.3-.6-.4-.9-.2-.3-.3-.6-.5-.9-.1-.3-.3-.5-.4-.8l-.3-.6c-.2-.3-.3-.7-.5-1l-1.2-2.4c-.1 0-.2-.2-.3-.4m18.4-4.3h-.1c-.7 0-1.4.1-2.1.1h-.1c.1.3.1.6.2 1 .1.7.3 1.3.4 2 .2.9.4 1.8.5 2.8l.3 1.5c.1.5.2 1.1.3 1.6.1.3.1.7.2 1 0 .2 0 .3-.1.3-.6 0-1.2 0-1.8.1h-.1c.1.2.1.3.2.5.3.7.5 1.4.8 2 .2.6.5 1.1.7 1.7.3.7.5 1.3.8 2 .4 1 .8 1.9 1.2 2.9.3.7.5 1.4.8 2.1.1.3.2.6.4.9v.1-.1c-.1-.4-.2-.8-.2-1.2l-.3-1.5c-.1-.5-.2-1.1-.3-1.6-.1-.5-.2-1-.3-1.6-.2-.8-.3-1.5-.5-2.3-.2-.8-.4-1.7-.5-2.5-.1-.3-.1-.6-.2-.9v-.1c.6 0 1.2 0 1.9-.1v-.1c-.1-.4-.2-.9-.3-1.3-.1-.5-.2-.9-.3-1.4-.1-.4-.2-.8-.2-1.2-.1-.3-.1-.6-.2-.9l-.3-1.5c-.2-1.2-.5-2.3-.7-3.5 0-.2-.1-.5-.1-.8m39.3 12.1s.1.1 0 0c.5.6.9 1.2 1.4 1.8v.1c-.3.2-.6.3-.9.5l-1.8.9c-.8.4-1.6.9-2.5 1.3-.4.2-.9.5-1.3.7-.5.3-1 .5-1.5.8-.3.2-.6.3-.9.5-.2.1-.3.2-.2.3.4.5.7.9 1.1 1.4-.2.1-.3.1-.5.2-.7.2-1.4.4-2.1.7l-1.8.6c-.7.2-1.4.4-2 .6l-3 .9c-.7.2-1.4.4-2.1.7l-.9.3h-.1l.1-.1c.4-.2.7-.4 1.1-.5.4-.2.9-.5 1.3-.7.5-.2 1-.5 1.4-.7.5-.2.9-.5 1.4-.7.7-.4 1.4-.7 2.1-1.1.8-.4 1.5-.8 2.3-1.2.3-.1.5-.3.8-.4l.1-.1c-.4-.5-.8-1-1.1-1.5l.1-.1 1.2-.6c.4-.2.8-.4 1.2-.7.4-.2.7-.4 1.1-.6.3-.1.5-.3.8-.4.4-.2.9-.5 1.3-.7 1-.6 2.1-1.1 3.1-1.7.3-.2.6-.3.8-.5"/></svg>