<svg xmlns="http://www.w3.org/2000/svg" viewBox="0 0 913.65 576.38"><defs><style>.cls-1{isolation:isolate;}.cls-2{fill:#e6e7e8;}.cls-2,.cls-7{mix-blend-mode:multiply;}.cls-3{fill:#f6b9ae;}.cls-4{fill:#e2928a;}.cls-5{fill:#efaaa0;}.cls-6{fill:#414042;}.cls-7{fill:#d1d3d4;}.cls-8{fill:#58595b;}.cls-11,.cls-9{fill:#e27f89;}.cls-9{opacity:0.5;}.cls-10{fill:none;stroke:#e27f89;stroke-linecap:round;stroke-linejoin:round;}.cls-12{fill:#343435;}.cls-13{fill:#f7941d;}.cls-14{fill:#56b6cc;}</style></defs><g class="cls-1"><g id="Capa_2" data-name="Capa 2"><g id="Información"><path class="cls-2" d="M852.74,523.5s-190.9,52.88-426.37,52.88S0,523.5,0,523.5s190.89-52.89,426.37-52.89S852.74,523.5,852.74,523.5Z"/><path class="cls-3" d="M572.82,157l134,10.22,140.58-38.47,6.4,20S741,203.06,724.37,207C702.57,210.79,582.82,220,582.82,220Z"/><path class="cls-4" d="M870.84,135.51s13.94,5.77,15.3,6.84,5.31,9,7.6,9.65,4.83-2.14,2.09-8-3.55-7.51-4.9-8.6S875,128,875,128Z"/><path class="cls-5" d="M874.2,133.28S891.25,138,893,139s7.49,9.73,10.24,10.11,5.3-3.19,1.26-9.62-5.21-8.21-7-9.28S878,124,878,124Z"/><path class="cls-3" d="M847.94,128.85s19.31-6.91,25.19-8,29.12,8.24,36,9.36c7,1.89,6,7.62-3.67,6.78-10.38-.71-27.45-4.18-28.9-4.27s-9.3,7.78-9.72,8.85,7.22,5.46,8.66,5.73,10.9-3.35,15.86,2.21-15.62,9.14-19.59,8.55-17.78-1.3-25.56-8.35l-1-17.53Z"/><path class="cls-3" d="M121.78,482.61s-25.65,3.07-31,2.15-33-32-43-41.85-12.48-26.69-18.55-28.79-12.7,6.07-9.8,26,21.73,32.11,25.23,47.32S50.9,530.56,61.4,532s34.25-13.53,34.25-13.53l25.12-.83Z"/><path class="cls-6" d="M732.9,484.68l-29.85,41.54L599.19,515,499,504.2l-175-.93-214,15-8.67-34.69s157.47-26.65,207.16-43.82c36-6.52,150.81-21,150.81-21l104,14.35,57.76-4.26S677.18,456.48,732.9,484.68Z"/><polygon class="cls-7" points="599.19 515 499.04 504.2 324 503.27 481.67 489.77 474.55 463.99 510.7 492.51 599.19 515"/><path class="cls-3" d="M538.44,537.15l-58.39-5.74s-44-5-57.95-5.67-28.12,8.81-33.77,5.74-4.09-13.46,12.6-24.81,38.36-5.65,51.94-13.34,35.94-24.54,44.07-17.74,11.49,26.78,11.49,26.78l39.43,5.93Z"/><path class="cls-8" d="M508.37,536.28l5.69-35.66S634.82,474.6,673.9,474c37.65-2.47,68.05,3.71,72.28,29.38C749.34,532.75,665,549.34,508.37,536.28Z"/><path class="cls-3" d="M422,160.09c-33.28,7.2-129.92,40.85-129.92,40.85l-146.29,6,4.37,22.51s129.44,11.71,141.53,14.88c26,2,132.16-33.4,132.16-33.4l32-55S430.3,158.29,422,160.09Z"/><path class="cls-3" d="M145.83,208.14s-18.14-9.57-23.8-11.52-30,4-36.93,4.15c-7.24.88-7,6.7,2.67,7.24,10.38.77,27.77-.25,29.22-.12s8.09,9,8.36,10.14-7.93,4.38-9.39,4.43-10.31-4.85-16-.06,14.16,11.27,18.17,11.25,26.92,2,35.63-3.84l-5.69-18Z"/><path class="cls-3" d="M483.44,150c46.77-4.82,95.42,7.37,95.42,7.37l8.67,39S584.45,287.1,588.82,317C593,345.74,621,428.78,621,428.78,601.72,449,470.59,438.63,449.82,420c0,0,4.79-68.64-3-94-4.21-13.7-29.05-46.86-31.92-60.9-5.41-26.49,24.45-105.32,24.45-105.32Z"/><path class="cls-3" d="M467.87,149.56s-1.44,23,21.1,24c27.45,1.23,41.34-20.32,41.34-20.32l-2.94-11.08-3-23-3.7-28.06-25.59,19.1-12.45,1.51Z"/><path class="cls-9" d="M472.47,139.23c8.34,4.7,24.21,5.09,52.14-17.9l-4-30.27-26.06,29.59L467,115,465,122.22Z"/><path class="cls-3" d="M487.92,11.57v0s34.36-7,50.51,34.67c0,0,9.5,26.92-2.65,52.09,0,0-25.3,32.91-53.58,41.27-19.81,5.15-34-30.68-36.85-65.92C444.05,41.25,465.54,13.45,487.92,11.57Z"/><path class="cls-6" d="M452.07,74.76a8.1,8.1,0,0,1,2.08-2.84,6.77,6.77,0,0,1,2.57-1.39,6.92,6.92,0,0,1,2.9,0,8.65,8.65,0,0,1,4.62,3.07,11.65,11.65,0,0,1,2.45,5c-1.36-1.13-2.59-2.21-3.86-3.11a10.5,10.5,0,0,0-3.78-1.87c-2.5-.69-5.07.79-7.64,3.3l-4.15-4.2Z"/><path class="cls-6" d="M487.39,74.61A9.46,9.46,0,0,1,492.61,72a8.16,8.16,0,0,1,3.1.3,7.51,7.51,0,0,1,2.62,1.62,8.12,8.12,0,0,1,2,3l5.31-1.63-4.8,3.78v0h0l0,0c-2.5-2.71-5.1-4.4-7.82-3.94a11.77,11.77,0,0,0-4.22,1.51c-1.43.77-2.85,1.73-4.4,2.73A11.41,11.41,0,0,1,487.39,74.61Z"/><path class="cls-10" d="M489.56,103.88s-12.2,9.93-26.33.81"/><path class="cls-11" d="M473.74,99.16l-.28,0c-1.18-.15-3.9-1.28-3.88-8.37,0-11.6,2.2-17.92,2.3-18.18a.77.77,0,0,1,1-.48.78.78,0,0,1,.49,1c0,.07-2.17,6.37-2.21,17.68,0,4.77,1.29,6.64,2.51,6.81,1.8.26,4.66-2.7,6-7.88a.79.79,0,0,1,1-.56.77.77,0,0,1,.55,1C479.76,95.55,476.65,99.29,473.74,99.16Z"/><path class="cls-6" d="M453.8,61c2.32-1,5.05-.86,8.12.39a2.09,2.09,0,1,0,1.57-3.87c-4.15-1.69-8-1.81-11.38-.35-5.33,2.31-7.45,10.25-6.38,10.66C446,67.88,450.12,62.53,453.8,61Z"/><path class="cls-6" d="M507.83,72.59c1.25-.36-.33-9.47-6.08-12.59-3.65-2-7.95-2.24-12.79-.76a2.35,2.35,0,0,0,1.38,4.5c3.58-1.1,6.66-1,9.17.39C503.48,66.29,507.58,72.66,507.83,72.59Z"/><path class="cls-9" d="M505.62,88.72c-.27,3.8-4.75,6.59-10,6.21s-9.28-3.76-9-7.57,4.75-6.6,10-6.22S505.89,84.91,505.62,88.72Z"/><path class="cls-9" d="M464.93,87.33c.14,3.81-3.68,7-8.53,7.22s-8.89-2.78-9-6.59,3.68-7.06,8.53-7.23S464.79,83.51,464.93,87.33Z"/><path class="cls-12" d="M523.22,3.7s32.24-14.9,42.57,18.46-17.95,66.67,17.36,89.6c0,0-38.1,25.32-63-19.33S523.22,3.7,523.22,3.7Z"/><path class="cls-13" d="M528.87,31.38s12.61-4,11.31-14.67-22.8-28.53-29.2-5.5Z"/><path class="cls-6" d="M442.4,44.7s3.84,14.72,67.53-3.75c0,0-.36,25.84,28.31,38.39l3.89-6s5.92-32-14.19-52.39S461.29-9,442.4,44.7Z"/><path class="cls-6" d="M535.33,72.31s-10.65,13-6.34,29.22-1.6,29.66-4.64,32.63c0,0,21.2-3.72,16.69-22.16s-10.24-20.32-2.15-33.84Z"/><path class="cls-3" d="M522.67,78.14,522,94c13.19,5.42,24.77-7.3,27.26-18,1.25-5.41.18-10.29-4.13-12.15C536,60,528.58,68.67,525,74.13A38.56,38.56,0,0,0,522.67,78.14Z"/><path class="cls-11" d="M540.57,72.92c-9.37-.55-15.11,7.64-15.35,8a.78.78,0,0,0,.2,1.09.75.75,0,0,0,.41.14.79.79,0,0,0,.68-.34,20.24,20.24,0,0,1,5.85-5.26c3.14,2.26,1.23,7.65,1.21,7.7a.79.79,0,0,0,.47,1,1.06,1.06,0,0,0,.23,0,.78.78,0,0,0,.77-.51c.1-.27,2.1-5.94-1.17-9a13.69,13.69,0,0,1,6.36-1.29h.24a.76.76,0,0,0,.83-.73A.78.78,0,0,0,540.57,72.92Z"/><path class="cls-14" d="M455.24,155.6S410.82,225,410.82,251c0,20.49,24.09,53.21,30,67,6,14,9,105,9,105s120,41,171,6c0,0-29.12-89.11-31-107-2-19-3-100-3-100s-25-7-30.92-69L542,151.49S521.51,231,489.36,226.93s-20.95-74.41-20.95-74.41Z"/><path class="cls-2" d="M441.46,319.1s63.67,12.48,105.46-11.85c0,0-15,16.22-26.82,21.21,0,0,27.44.62,52.39-10.6,0,0-35.25,26.18-86.53,21.82l21,6.86S487.41,352.4,443.82,331Z"/></g></g></g></svg>