<svg xmlns="http://www.w3.org/2000/svg" viewBox="0 0 278.57 754.05"><defs><style>.cls-1{fill:#32324c;opacity:0.1;}.cls-2{fill:#050705;}.cls-3{fill:#02c6cb;}.cls-4{fill:#08a8b1;}.cls-5{fill:#fff;}.cls-6{fill:#2c2c2c;}.cls-7{fill:#162d47;}.cls-8{fill:#151a31;}.cls-9{fill:#ffaf82;}.cls-10{fill:#f88968;}</style></defs><g id="Capa_2" data-name="Capa 2"><g id="Información"><ellipse class="cls-1" cx="139.05" cy="735.02" rx="125.47" ry="19.04"/><path class="cls-2" d="M193.52,527l-13.9,167.9h-24.5c-5.67-65.43-14.81-122.77-4.5-167.9-10.39-50.89-18.11-166.39-18.11-166.39,18.69-8.56,48.67-16.36,48.67-16.36C191.12,400.73,193.52,527,193.52,527Z"/><path class="cls-3" d="M236.5,734.49H156.39a7.42,7.42,0,0,1-7.35-6.43,7.34,7.34,0,0,1,0-1.56l3.26-42.07a46.36,46.36,0,0,1,8-2.64,8.14,8.14,0,0,0,5.94-5.39c.06-.2.11-.41.16-.61,1.84-8.1,13.51-10.68,15.67-2.76.28,1,.52,2,.73,3l.15.71c.34,1.7.59,3.27.77,4.64a.19.19,0,0,1,0,.08,44.29,44.29,0,0,1,.4,5.72c1.06,1.35,2.09,2.67,3.08,4,.51.64,1,1.29,1.48,1.93,1.05,1.36,2.07,2.7,3.08,4l1.39,1.76c1.12,1.39,2.21,2.71,3.31,3.94.49.55,1,1.1,1.49,1.62,4.13,4.34,8.3,7.31,13.22,8,8.69,1.19,22.88,2.15,29.73,14.89a4.72,4.72,0,0,1,.35.81A4.94,4.94,0,0,1,236.5,734.49Z"/><path class="cls-4" d="M236.5,734.49H156.39a7.42,7.42,0,0,1-7.35-6.43h92.17A4.94,4.94,0,0,1,236.5,734.49Z"/><path class="cls-5" d="M188.64,693.06c-.93,1.36-2.82,3-6.63,4.53-.65.26-1.36.52-2.12.77l-.7-2.09q1.14-.37,2.07-.75c4.37-1.77,5.57-3.5,5.9-4.39C187.67,691.77,188.15,692.42,188.64,693.06Z"/><path class="cls-5" d="M182,697.32a2.49,2.49,0,1,1-2.48-2.49A2.48,2.48,0,0,1,182,697.32Z"/><path class="cls-5" d="M193.11,698.8a15.69,15.69,0,0,1-5.48,3.45c-.77.33-1.6.64-2.54,1l-.69-2.1c.87-.29,1.65-.57,2.34-.86a12.53,12.53,0,0,0,5-3.2Z"/><path class="cls-5" d="M187.63,702.15a2.48,2.48,0,1,1-2.48-2.48A2.49,2.49,0,0,1,187.63,702.15Z"/><path class="cls-5" d="M197.91,704.36a15.89,15.89,0,0,1-5.31,3.31q-1.15.5-2.58,1l-.68-2.1c.87-.28,1.65-.58,2.35-.87a14,14,0,0,0,4.73-2.92C196.91,703.29,197.4,703.84,197.91,704.36Z"/><path class="cls-5" d="M192.6,707.58a2.49,2.49,0,1,1-2.48-2.48A2.49,2.49,0,0,1,192.6,707.58Z"/><path class="cls-5" d="M183.67,681.35a54.87,54.87,0,0,0-7.14.4l0-4a18.07,18.07,0,0,1,6.33-1C183.24,678.41,183.49,680,183.67,681.35Z"/><path class="cls-6" d="M119.32,360.62s-.63,66.65-10.09,166.39c-6.16,54.34-13,122.51-20.65,167.9H64.06L60.6,527S55,423.68,67.18,352.48Z"/><path class="cls-3" d="M110.07,728.89c-.71,14.12-44.84,9.25-51.89,5-2.73-1.64-3.87-4.79-4.08-8.61-.35-6.09,1.66-13.88,3.39-20,2.83-9.94,2.44-9.76,4.4-16.55,0,0-.51-11.06,14-15.28s19.76,23.3,22.23,28.59c2.26,4.85,11.05,11.49,12,23.42A27.34,27.34,0,0,1,110.07,728.89Z"/><path class="cls-5" d="M68,697.69l-1.16-1.78c.54-.35,13.3-8.53,24.41-3.66l-.85,1.94C80.32,689.78,68.11,697.61,68,697.69Z"/><path class="cls-5" d="M69.25,710l-1.16-1.77c.54-.35,13.3-8.54,24.4-3.67l-.85,1.94C81.58,702.06,69.37,709.89,69.25,710Z"/><path class="cls-5" d="M68.62,703.83l-1.16-1.77c.54-.36,13.3-8.54,24.41-3.67L91,700.33C81,695.91,68.74,703.75,68.62,703.83Z"/><path class="cls-5" d="M69.67,697.13a2.39,2.39,0,1,1-2.39-2.38A2.38,2.38,0,0,1,69.67,697.13Z"/><path class="cls-5" d="M69.79,703a2.38,2.38,0,1,1-2.38-2.38A2.37,2.37,0,0,1,69.79,703Z"/><path class="cls-5" d="M71.05,708.77a2.38,2.38,0,1,1-2.38-2.38A2.38,2.38,0,0,1,71.05,708.77Z"/><path class="cls-5" d="M94.45,705.33A2.38,2.38,0,1,1,92.07,703,2.39,2.39,0,0,1,94.45,705.33Z"/><path class="cls-5" d="M93.82,699a2.38,2.38,0,1,1-2.38-2.38A2.37,2.37,0,0,1,93.82,699Z"/><path class="cls-5" d="M93.19,692.63a2.38,2.38,0,1,1-2.38-2.38A2.37,2.37,0,0,1,93.19,692.63Z"/><path class="cls-4" d="M110.07,728.89c-.71,14.12-44.84,9.25-51.89,5-2.73-1.64-3.87-4.79-4.08-8.61,4.63,2.65,12.81,5.94,25,6.16,15,.27,25.77-2.76,30.92-6A27.34,27.34,0,0,1,110.07,728.89Z"/><path class="cls-5" d="M82.08,677.84a23.6,23.6,0,0,0-12.41,2.47l.64,4.47s8-2.35,13.3-2A10.51,10.51,0,0,0,82.08,677.84Z"/><path class="cls-6" d="M70.64,335s-8.3,29.38-8.22,55.56c0,0,40.66,17.8,92.39-1.86a41.67,41.67,0,0,0,24.31-52.94l-.27-.76S112.7,332.3,70.64,335Z"/><path class="cls-7" d="M92.31,111S36.44,107.4,11.18,139.1s-3.75,166.43,25,178.34,71.11,6.05,81.69-17.44S122.35,154.21,92.31,111Z"/><path class="cls-8" d="M90.3,127.76s-51,2.37-65.4,27.78S19.56,282.31,44.12,297.83s50.35,6.44,68.15-22.92C114.69,220.69,109.75,170.37,90.3,127.76Z"/><path class="cls-4" d="M198.1,241.32C195.52,171.9,165.86,130,165.86,130c-16.28,66.58,3,103.27,8.52,120.64s54.18,79.39,54.18,79.39c3.89-4.88,9.09-8.42,14.07-9.56,0,0-15.94-28.12-21.59-38.65S198.1,241.32,198.1,241.32Z"/><path class="cls-9" d="M240.39,320a67,67,0,0,1,12.19,3.88c5.45,2.49,12,5.69,15.33,7.28,4,1.93.53,5.48-5.16,3.13s-7-2.87-7-2.87,19.1,14.31,22.34,19.85c2.95,5.06-8-2.31-17.35-7.9,0,0,16,17,15.06,20.88-1.3,5.06-20.68-15.62-20.68-15.62s12,17.37,9.74,18.52c-2.54,1.28-17-15-17-15S255,364.79,253.26,365c-3.53.43-24-22.86-24.7-37C228.56,328,236.94,320,240.39,320Z"/><path class="cls-10" d="M259,338.6s-6.44,9.18-16.74,10.73C242.25,349.33,252.31,352.52,259,338.6Z"/><path class="cls-10" d="M247.61,338.69s-12.13-4.93-7.48-15.52C240.13,323.17,231.06,333.4,247.61,338.69Z"/><path class="cls-3" d="M101.92,91.91S71.71,92.17,58,104.67s-.49,37.74,14.46,40.93,61.56-2.51,66.39-10.52S140.45,92.38,101.92,91.91Z"/><path class="cls-3" d="M55.49,354.52c45.42,28.14,89.81,25.31,134.56-2L165.86,130l-26.54-3.56-2.13-.28-6-.81-37.11-5-6.25,2.14-7.87,2.69L78,125.9,43,137.9,69.08,290.75Z"/><path class="cls-4" d="M104.63,145.85c-26.57,0-32.83-23.4-32.89-23.64a1,1,0,1,1,1.9-.48c.24.91,6,22.16,31,22.16a3,3,0,0,1,.42,0,1,1,0,0,1,1,1,1,1,0,0,1-1,1Z"/><path class="cls-4" d="M129.58,142.09a1,1,0,0,1,0-2c.36,0,8.08-.35,10-10.81a1,1,0,1,1,1.92.37c-2.26,12.08-11.82,12.4-11.92,12.4Z"/><path class="cls-4" d="M99.66,290.4s-.15,20.84-4.87,40c0,0,49.38,8,77.32-7.19a131.31,131.31,0,0,0-.57-38.87Z"/><path class="cls-5" d="M110.37,239.77h-.08a1,1,0,0,1-.87-1c2.11-24.44-7.27-86.07-7.36-86.69a1,1,0,0,1,.8-1.1,1,1,0,0,1,1.09.81c.09.62,9.5,62.48,7.38,87.15A1,1,0,0,1,110.37,239.77Z"/><path class="cls-5" d="M142.68,234.87h-.08a1,1,0,0,1-.88-1c2.11-24.44-7.58-86.56-7.67-87.18a1,1,0,1,1,1.89-.3c.1.63,9.82,63,7.69,87.64A1,1,0,0,1,142.68,234.87Z"/><path class="cls-7" d="M56.29,132.33S94.9,228.46,67.58,282c-4.21,5.63-3.45,20.34-2.45,26.4,0,0,35.45-26.22,28.12-89.9s-21.54-90.44-21.54-90.44S64.57,121,56.29,132.33Z"/><path class="cls-7" d="M149.12,127.8s24.16,58,32.43,146.47c0,0,16.55-77.5-15.88-141.35C165.67,132.92,160.13,121.65,149.12,127.8Z"/><path class="cls-9" d="M50.15,332.68s6.9,3.11,11.36,7.47,9,9.09,11.66,11.82c3.25,3.29-.84,4.89-4.63,3-5.75-2.83-7.38-5.76-7.38-5.76S74.82,370,76.05,376.51c1.11,6-7-5.06-14.21-13.82,0,0,9.73,22.29,7.41,25.72-3,4.49-14.75-22.55-14.75-22.55s5.66,21.22,3,21.55c-2.93.36-11.38-20.66-11.38-20.66s2.6,14.92.78,14.52c-3.6-.81-15.47-30.8-11.17-44.9C35.76,336.37,46.78,331.46,50.15,332.68Z"/><path class="cls-3" d="M36.3,239s11.57-12.46,23-47.74c0,0,3.2-49.17-16.31-53.36,0,0-27.24,41.51-36.15,92.62,0,0-2.08,61.68,28.16,106.31,0,0,9.14.52,15.19-4.15C50.15,332.68,34,266.51,36.3,239Z"/><path class="cls-7" d="M161.74,22.47s9.11,6,5.85,22.32S158,62.84,158,62.84,148.46,26.72,161.74,22.47Z"/><path class="cls-9" d="M126.24,100l-1.78,20.59-.82,9.43c-12.14,8.42-31.08-4.26-31.08-4.26l-.7-32.35c5.6-3.53,19.24,1.71,27.67,4.33C123.51,99,126.24,100,126.24,100Z"/><path class="cls-10" d="M126.24,100l-1.78,20.59C110.61,117,99.52,97.27,99.52,97.27l20,.48C123.51,99,126.24,100,126.24,100Z"/><path class="cls-9" d="M165.67,46.69c0,.6,0,1.23,0,1.85v.33c0,.6,0,1.21,0,1.83-.19,6.39-.83,13.44-1.69,20.5-.18,1.48-.37,3-.57,4.43-.18,1.27-.35,2.54-.53,3.8-.39,2.61-.78,5.2-1.19,7.7-.28,1.74-.55,3.44-.84,5.09a24.5,24.5,0,0,1-29,19.86c-7.17-1.44-15.09-3.22-22.47-5.28l-1.09-.3a121.61,121.61,0,0,1-16-5.53c-.58-.84-1.15-1.69-1.69-2.56a71.43,71.43,0,0,1-9.2-24.76c-.66-3.51-1.15-7.05-1.5-10.61a7.4,7.4,0,0,0-.15-.82c0-3.28,0-6.54.11-9.68A41.1,41.1,0,0,1,123,12.25c18.34.95,35.8,8.05,40.21,17.5C165,33.5,165.66,39.53,165.67,46.69Z"/><path class="cls-7" d="M90.58,98.41a71.48,71.48,0,0,1-9.2-24.77c2.61,0,6,.82,10.43,2.87C91.81,76.51,92.81,89.43,90.58,98.41Z"/><path class="cls-7" d="M132.53,60.29c0,2.73-1.22,4.94-2.72,4.94s-2.72-2.21-2.72-4.94,1.22-4.95,2.72-4.95S132.53,57.55,132.53,60.29Z"/><path class="cls-7" d="M160.63,60.29c0,2.73-1.22,4.94-2.72,4.94s-2.72-2.21-2.72-4.94,1.22-4.95,2.72-4.95S160.63,57.55,160.63,60.29Z"/><path class="cls-7" d="M79.8,54.78s8.71-5.67,16,4.46h5.71s-.32-11.73,2.45-18.09,13.7-6.2,15.33-13.71c0,0,26.76,12.88,42.15,4.67C196.28,13.55,123.17-10.26,96.4,4.72,76.51,15.85,75.65,34.81,79.8,54.78Z"/><path class="cls-7" d="M118.81,52.07s2.62-5.37,7.64-6.72a12.86,12.86,0,0,1,9.64.86,1.67,1.67,0,0,1,.75,2h0a1.67,1.67,0,0,1-2.27.94C131.75,47.89,125.55,46.2,118.81,52.07Z"/><path class="cls-7" d="M165.67,46.69c0,.6,0,1.23,0,1.85v.33A13.39,13.39,0,0,0,154,48.75a1.63,1.63,0,0,1-.71.16,1.68,1.68,0,0,1-.82-3.14,12.83,12.83,0,0,1,9.63-.86A9.87,9.87,0,0,1,165.67,46.69Z"/><path class="cls-9" d="M95.85,59.24s-8.74-10.59-16-4.46C71.74,61.54,77.91,84.47,94.29,84Z"/><path class="cls-10" d="M94.7,79a1.43,1.43,0,0,1-1.43-1.27c-1.34-11.6-8.22-13.38-8.51-13.45a1.45,1.45,0,0,1-1.07-1.73,1.43,1.43,0,0,1,1.71-1.08c.37.08,9.15,2.19,10.73,15.93A1.45,1.45,0,0,1,94.86,79Z"/><path class="cls-10" d="M85.49,71.63a1.43,1.43,0,0,1-.95-.36,1.44,1.44,0,0,1-.12-2A8.19,8.19,0,0,1,92.12,67a1.44,1.44,0,0,1-.62,2.82,5.27,5.27,0,0,0-4.93,1.32A1.4,1.4,0,0,1,85.49,71.63Z"/><path class="cls-10" d="M139.5,102a13.9,13.9,0,0,1-9.25-3.34,1.44,1.44,0,0,1,2-2.08c.2.19,4.6,4.23,11.94,1.71a1.45,1.45,0,0,1,1.83.9,1.44,1.44,0,0,1-.9,1.83A17.15,17.15,0,0,1,139.5,102Z"/><path class="cls-7" d="M128.47,72a11.67,11.67,0,1,1,11.67-11.67A11.69,11.69,0,0,1,128.47,72Zm0-21.42a9.75,9.75,0,1,0,9.75,9.75A9.76,9.76,0,0,0,128.47,50.54Z"/><path class="cls-7" d="M158.87,72a11.67,11.67,0,1,1,11.67-11.67A11.68,11.68,0,0,1,158.87,72Zm0-21.42a9.75,9.75,0,1,0,9.75,9.75A9.76,9.76,0,0,0,158.87,50.54Z"/><rect class="cls-7" x="106.22" y="45.45" width="1.92" height="22.07" transform="matrix(0.08, -1, 1, 0.08, 42.57, 158.98)"/><path class="cls-7" d="M139.61,59.42l-1.11-1.57c1.85-1.32,6.41-3,10.38,0l-1.17,1.52C143.89,56.47,139.78,59.29,139.61,59.42Z"/><path class="cls-10" d="M146.43,76.19a1.43,1.43,0,0,1-1.15-.56,1.46,1.46,0,0,1,.27-2l3.84-2.93-3.33-.86A1.45,1.45,0,0,1,145,68.64l-1.47-9.18a1.44,1.44,0,0,1,2.85-.45l1.32,8.24L153,68.62a1.45,1.45,0,0,1,.51,2.55l-6.2,4.73A1.42,1.42,0,0,1,146.43,76.19Z"/><path class="cls-10" d="M144.16,95.17A25.11,25.11,0,0,1,126.06,88a1.43,1.43,0,0,1,2-2C138.27,96,152.59,91,152.74,91a1.43,1.43,0,1,1,1,2.7A30.82,30.82,0,0,1,144.16,95.17Z"/></g></g></svg>