<svg xmlns="http://www.w3.org/2000/svg" viewBox="0 0 371.31 740.21"><defs><style>.cls-1,.cls-9{fill:#001627;}.cls-1{opacity:0.15;}.cls-2{fill:#ffcfca;}.cls-3{fill:#156c75;}.cls-4{fill:#561513;}.cls-5{fill:#f9bfbb;}.cls-6{fill:#f4b9b8;}.cls-10,.cls-7{fill:none;stroke:#001627;stroke-miterlimit:10;}.cls-7{stroke-width:1.72px;}.cls-8{fill:#6f57ff;}.cls-9{opacity:0.3;}.cls-10{stroke-width:1.8px;}.cls-11{fill:#4d6caa;}.cls-12{fill:#4dc2ce;}.cls-13{fill:#12f4ff;}.cls-14{fill:#70d0e0;}.cls-15{fill:#f95850;}.cls-16{fill:#ffac55;}.cls-17{fill:#ff7900;}.cls-18{fill:#1f3c49;}.cls-19{fill:#ea5353;}.cls-20{fill:#ff948f;}.cls-21{fill:#fff;}</style></defs><g id="Capa_2" data-name="Capa 2"><g id="Información"><path class="cls-1" d="M358.3,711.08c0,16.09-98.6,29.13-191,29.13S0,727.17,0,711.08,74.9,682,167.3,682,358.3,695,358.3,711.08Z"/><path class="cls-2" d="M251.53,681.08,246,677l-4.09-35.43s-31.34,5-31.34,5.45,3.18,33.16,3.18,33.16l-2.28,9.09,23.17,1.81,13.18-3.18Z"/><polygon class="cls-2" points="92.93 689.94 91.52 655.6 127.51 655.17 120.85 688.43 109.06 699.55 92.93 689.94"/><path class="cls-3" d="M134,712.67c-.93-2.91-10.58-20-12.9-24.29a35.53,35.53,0,0,1-14.46,3.14c-4.71,0-10-.44-13.74-3.29-2.4,3.38-5.33,8-7.55,11.76-2,3.4-4.84,7-6.27,10.76s-.8,8.26,2.27,10.8c10.15,8.38,38.59,10.45,50.82,1.14C135.82,719.91,134.62,714.64,134,712.67Z"/><path class="cls-4" d="M208.79,157.25c-15.51-1.46-112.88,15.15-119.43,10.06,8.08-9.21.6-84.25,5.72-112.15C98,39.28,104.55,23,116.75,12S148-4,163.15,3.85c9.4,4.87,16.5,13.51,20.79,23.18a67.37,67.37,0,0,1,4.44,14.37c.27,1.31.49,2.64.69,4a105.81,105.81,0,0,1,1,12.57,143.77,143.77,0,0,1-.92,19.48C187.41,93,214,138.81,208.79,157.25Z"/><path class="cls-2" d="M165.38,125c-2.33,1.42-5.13,1.73-7.84,2a67,67,0,0,1-9.8.53c-6.38-.28-12.17-2.57-18.21-4.62.11-3.68.22-7.37.34-11a135.35,135.35,0,0,0,0-13.81c-.1-1.41-.23-2.81-.41-4.21-.41-3.49-1-7-1.64-10.42q-.75-4.26-1.51-8.54a22,22,0,0,0,5.21,3.55c8.45,4.7,17.08,9.08,25.77,13.35a40.32,40.32,0,0,0,8.08,3.26l0,16.14Z"/><path class="cls-5" d="M165.36,111.21a98.92,98.92,0,0,1-27.72-11.85c-2.71-1.7-5.53-3.53-8.21-5.49-.41-3.49-1-7-1.64-10.42q-.75-4.26-1.51-8.54a22,22,0,0,0,5.21,3.55c8.45,4.7,17.08,9.08,25.77,13.35a40.32,40.32,0,0,0,8.08,3.26Z"/><path class="cls-2" d="M183.59,87.38c-2.18,5.25-5.18,10-10.09,13.09a25.82,25.82,0,0,1-14.71,3.79,32.83,32.83,0,0,1-15.91-5.32,41,41,0,0,1-6.66-5.27,58,58,0,0,1-9.08-11.61A72.18,72.18,0,0,1,118,59.38c-1.87-9.09-1.57-18.51,2.16-27.21a34.87,34.87,0,0,1,6.22-9.69,32.72,32.72,0,0,1,42.92-4.63,41.6,41.6,0,0,1,14.78,20.32,77.73,77.73,0,0,1,2.22,7.77C189.42,59.61,188.94,74.43,183.59,87.38Z"/><path class="cls-2" d="M250.93,349.23c-.34-.5-.67-1-1-1.57l-.23-.36h0c-.59-1-1.18-2.05-1.76-3.14h0c-3.21-6.17-5.76-13.78-5.16-20.34,0,0,11.87-4.12,15.2-3.65a64.67,64.67,0,0,1,11.25,5.38s6.6,3.47,7.52,6.4a5.7,5.7,0,0,1-1.13,5.21l.75.84c1.09,1.22,3,3.4,3.67,4.13,3.41,4,1.13,8.44-5.54,3.36.41.57,3.41,4.5.65,7.15-1.94,1.86-6.8-2.85-6.8-2.85s1.35,6.26-1,7.07c-2.58.87-6.33-4.42-6.48-4.63,0,.22,0,3.88-3.29,3.81C256.26,356,253.62,353.3,250.93,349.23Z"/><path class="cls-6" d="M262.2,336.37s-6.47,1.38-11.2-7.09c0,0,.42,9.2,11.64,8.77Z"/><path class="cls-7" d="M267.34,387.62s-45.86-113.13,38.2-19.86"/><path class="cls-7" d="M253.12,393.65s-22.27-127.9,38.2-19.86"/><polygon class="cls-8" points="215.02 406.15 325.99 348.84 371.31 436.56 283.02 490.12 251.09 493.4 215.02 406.15"/><polygon class="cls-9" points="215.02 406.15 251.09 493.4 283.02 490.12 233.52 396.54 215.02 406.15"/><path class="cls-10" d="M263.2,376.94s-13.63-99.77,35.62-7"/><path class="cls-10" d="M250.22,378.46s8.92-106,35.63-7"/><polygon class="cls-11" points="216.25 379.63 322.27 361.29 338.24 439.3 240.68 461.02 227.33 456.74 216.25 379.63"/><polygon class="cls-9" points="216.25 379.63 227.33 456.74 240.68 461.02 233.5 376.26 216.25 379.63"/><path class="cls-2" d="M275.81,352.58c-1.59,1.5-5.75-.33-9.3-4.09s-5.16-6.91-3.55-9.52c1.14-1.86,5.75.33,9.3,4.09S277.4,351.08,275.81,352.58Z"/><ellipse class="cls-2" cx="262.6" cy="347.81" rx="3.96" ry="7.47" transform="translate(-155.2 223.83) rotate(-36.42)"/><ellipse class="cls-2" cx="256.84" cy="350.73" rx="3.96" ry="7.47" transform="translate(-158.06 220.98) rotate(-36.42)"/><path class="cls-6" d="M251.14,349.18c-.33-.5-.66-1-1-1.58a4.85,4.85,0,0,1,1.76-3.67c2.69-2,4.9.84,4.9.84s-1.12-2.75.93-3.76a3.76,3.76,0,0,1,3.81.37s-.46-2.63,1.29-3.52,6.11,2.32,6.11,2.32-3.18-1.56-4.95-1.27-2.28,2.86-.05,5.43c-.24-.28-2.55-2.89-5-2.21s-.61,5.68-.51,5.95c-.18-.24-3.43-4.71-5.57-3.51C251.43,345.4,251.08,347.49,251.14,349.18Z"/><path class="cls-2" d="M274.78,330.76c1.15,2.68.13,5.31-3.71,7s-6.91,1.5-9.05-1.87c-1.53-2.41,1-6.19,4.89-7.84S273.63,328.08,274.78,330.76Z"/><path class="cls-6" d="M271.82,337.36s-4.9,2.13-8.14-.08-2.88-7,5-9.74a8.35,8.35,0,0,0-6.12,2.95c-2.8,3.1-1.13,7.05.92,7.86S267.64,339.25,271.82,337.36Z"/><path class="cls-12" d="M259.63,315.49a37.12,37.12,0,0,0-8.26-10.39,10.87,10.87,0,0,0-3.14-2.26c-3.19-1.34-6.87,1.56-9.39,3.27a43.81,43.81,0,0,0-8.27,7.35,5.75,5.75,0,0,0-1.68,3.19c-.1,1.52.93,2.86,1.91,4l6.73,8.14a7.23,7.23,0,0,0,2.54,2.23,6.6,6.6,0,0,0,3.64.13,36.88,36.88,0,0,0,14.69-6,6.87,6.87,0,0,0,2.4-2.39c.79-1.57.4-3.48-.22-5.13A19.31,19.31,0,0,0,259.63,315.49Z"/><path class="cls-13" d="M242.1,330.19a.36.36,0,0,1-.22-.07,10.39,10.39,0,0,1-2.14-1.93l-.21-.22a44,44,0,0,0-4.39-4.13.41.41,0,1,1,.52-.63,43.3,43.3,0,0,1,4.47,4.2l.21.23a10.4,10.4,0,0,0,2,1.79.41.41,0,0,1,.13.56A.44.44,0,0,1,242.1,330.19Z"/><path class="cls-13" d="M245.23,329.26a.46.46,0,0,1-.29-.11,20.71,20.71,0,0,1-1.72-1.79,37.29,37.29,0,0,1-3.61-4.56,1.19,1.19,0,0,1-.16-1.22.38.38,0,0,1,.5-.12.44.44,0,0,1,.2.54s0,.09.15.36a36.88,36.88,0,0,0,3.53,4.45,20.9,20.9,0,0,0,1.66,1.73.41.41,0,0,1,0,.58A.42.42,0,0,1,245.23,329.26Z"/><path class="cls-13" d="M248.81,328.08a.41.41,0,0,1-.35-.18,23.51,23.51,0,0,0-3.84-4.31c-.26-.23-.52-.46-.79-.68a15,15,0,0,1-2.48-2.44A.41.41,0,1,1,242,320a14.31,14.31,0,0,0,2.36,2.3l.8.69a24.12,24.12,0,0,1,4,4.47.41.41,0,0,1-.1.57A.47.47,0,0,1,248.81,328.08Z"/><path class="cls-13" d="M252.5,327.15a.37.37,0,0,1-.32-.14,84.42,84.42,0,0,0-8.13-8.25.41.41,0,0,1,.54-.61,83.84,83.84,0,0,1,8.21,8.33.41.41,0,0,1,0,.58A.43.43,0,0,1,252.5,327.15Z"/><path class="cls-13" d="M255.46,325a.41.41,0,0,1-.32-.15,39.47,39.47,0,0,0-8.19-7.4.41.41,0,0,1,.46-.68,40.27,40.27,0,0,1,8.36,7.55.41.41,0,0,1-.06.58A.46.46,0,0,1,255.46,325Z"/><path class="cls-13" d="M258.78,323.07a.42.42,0,0,1-.26-.08,19.87,19.87,0,0,1-3-3l-.87-1a29.94,29.94,0,0,0-5.18-4.49.41.41,0,0,1,.46-.68,31.18,31.18,0,0,1,5.32,4.61l.89,1a19.13,19.13,0,0,0,2.9,2.86.41.41,0,0,1,.09.57A.4.4,0,0,1,258.78,323.07Z"/><path class="cls-13" d="M259.05,317.34a.41.41,0,0,1-.29-.1l-6.55-6.07a.42.42,0,0,1,0-.58.4.4,0,0,1,.58,0l6.55,6.06a.4.4,0,0,1,0,.58A.36.36,0,0,1,259.05,317.34Z"/><path class="cls-4" d="M188.38,41.4c-3.67-7.11-7.33-14.5-12.59-20.4a33.38,33.38,0,0,0-17.85-10.71c-13.2-2.78-29.36.46-39.11,10.25-4.92,4.94-7.66,11.53-8.74,18.27s-.39,12.89.54,19.71c13,.28,25.24-6.58,33.1-16.08,5.86-7.08,9.58-15.48,12-24.24a74.58,74.58,0,0,0,12,15.55c5.89,5.7,13.26,10.14,21.34,11.62C188.87,44,188.65,42.71,188.38,41.4Z"/><path class="cls-14" d="M235.42,270.83c-4.4-5.82-14-17.08-14-17.08s2.89-75.94-13.89-107.71c-10.29-9.88-20.28-18.74-34.56-20.86-9.73,17.79-12.32,33.6-13.28,53.85-1.28,26.86-.89,55.13,12.08,78.68a145.12,145.12,0,0,0,12.61,18.41,326.39,326.39,0,0,0,40.13,43.78,12.3,12.3,0,0,0,14.4,1.49l13.46-7.83a9.17,9.17,0,0,0,3.28-12.6A314.85,314.85,0,0,0,235.42,270.83Z"/><path class="cls-13" d="M210.81,275.54c-.29-.43-.57-.87-.85-1.3a.46.46,0,0,0-.63-.14.47.47,0,0,0-.14.63q.42.66.87,1.32c.39.57.78,1.14,1.19,1.7a.42.42,0,0,0,.38.19.45.45,0,0,0,.35-.72C211.59,276.67,211.19,276.11,210.81,275.54Z"/><path class="cls-13" d="M203.37,261.39a.45.45,0,0,0-.59-.24.44.44,0,0,0-.25.59c.47,1.14,1,2.27,1.45,3.35a.47.47,0,0,0,.43.27l.17,0a.47.47,0,0,0,.23-.61C204.32,263.64,203.83,262.53,203.37,261.39Z"/><path class="cls-13" d="M200.84,254.61a.46.46,0,0,0-.58-.28.44.44,0,0,0-.28.57c.4,1.18.81,2.34,1.22,3.44a.46.46,0,0,0,.44.3.32.32,0,0,0,.14,0,.46.46,0,0,0,.27-.59C201.64,256.93,201.23,255.78,200.84,254.61Z"/><path class="cls-13" d="M199.29,249.79a3.59,3.59,0,0,1-.76.63c.11.34.21.69.31,1a.48.48,0,0,0,.45.32l.12,0a.45.45,0,0,0,.3-.57C199.57,250.72,199.43,250.25,199.29,249.79Z"/><path class="cls-13" d="M206.38,268a.47.47,0,0,0-.62-.2.45.45,0,0,0-.19.61c.56,1.1,1.14,2.18,1.73,3.22a.48.48,0,0,0,.41.23.42.42,0,0,0,.21-.06.46.46,0,0,0,.17-.62C207.51,270.13,206.93,269.06,206.38,268Z"/><path class="cls-13" d="M237.52,307.9a.47.47,0,0,0-.65,0,.46.46,0,0,0,0,.64l2.44,2.7a.47.47,0,0,0,.35.15.5.5,0,0,0,.29-.12.45.45,0,0,0,0-.64Z"/><path class="cls-13" d="M232.7,302.47a.46.46,0,0,0-.65,0,.47.47,0,0,0,0,.64l2.41,2.73a.46.46,0,0,0,.64,0,.46.46,0,0,0,0-.64Q233.89,303.84,232.7,302.47Z"/><path class="cls-13" d="M214.15,280.12a.46.46,0,1,0-.72.56c.74,1,1.49,1.91,2.25,2.86a.43.43,0,0,0,.37.17.46.46,0,0,0,.34-.74C215.64,282,214.89,281.08,214.15,280.12Z"/><path class="cls-13" d="M242.92,313.83l-.51-.56a.47.47,0,0,0-.65,0,.46.46,0,0,0,0,.64l.51.55a.42.42,0,0,0,.35.15.4.4,0,0,0,.29-.12A.45.45,0,0,0,242.92,313.83Z"/><path class="cls-13" d="M228,297a.45.45,0,1,0-.69.59q1.17,1.38,2.37,2.76a.41.41,0,0,0,.36.15.45.45,0,0,0,.32-.75C229.52,298.82,228.73,297.9,228,297Z"/><path class="cls-13" d="M218.67,285.8a.46.46,0,0,0-.64-.06.45.45,0,0,0-.07.64l2.3,2.82a.43.43,0,0,0,.36.16.48.48,0,0,0,.28-.1.46.46,0,0,0,.06-.64Z"/><path class="cls-13" d="M223.27,291.42a.45.45,0,1,0-.7.58l2.33,2.79a.45.45,0,1,0,.7-.58Z"/><path class="cls-2" d="M199.07,220.76q-6.13,24.38-12.26,48.76a54.38,54.38,0,0,1-7.08,16.77c-10.5,3.23-21.18,6.5-32.17,6.55a112,112,0,0,1-17.21-1.69c-9.17-1.38-18.43-3.5-26.34-8.33-.45-3.49-.6-7.58-.89-11.08l-3.3-39.88a14.79,14.79,0,0,0,7.55.95l13.38-1.49,48.76-5.46L188,223.79A29.56,29.56,0,0,0,199.07,220.76Z"/><path class="cls-14" d="M248.29,660.21a120.13,120.13,0,0,1-25,6.54c-13.57,1.94-14.55.28-14.55.28L184.05,503.85s-6.89-17.93-16.17-42.12q-1.09-2.85-2.23-5.81c-9.31-24.29-20.51-53.56-29.51-77.22-.1-.28-.21-.56-.32-.84-9.21-24.23-16-42.37-16-42.82.15-1.08,3.4-30.17,4.75-42.21.22-2-.91-9.55.57-10.13,9.54,2.27,22,1.49,31.35.45,16.35-1.81,26.8-3.63,26.8-3.63s22.66,50.25,31.8,80.41c9.08,30,23.62,146.73,23.62,146.73Z"/><path class="cls-15" d="M175.29,462.39l-2.44-5.73c-10.2-23.92-22.48-52.77-32.34-76.08l-.34-.82c2.43-19.86,5.26-39.71,3.47-59.56,16,25.09,22.32,55.07,25.83,84.61,1.28,10.83,2.22,21.7,3.22,32.56C173.46,445.72,174.26,454.07,175.29,462.39Z"/><path class="cls-14" d="M152,283.61c-11.81.45-16.3.08-27.71-2.73-6.8-1.68-15.9-5.45-21.35-10-8.63,15.44-21.23,38.52-24.08,66.78-5.9,58.6,18.52,171.51,18.52,171.51s-7.77,107-12.16,165.12c9.7,3.87,9.69,4.09,20.4,4.09,11.64,0,12.43.17,23.21-3.64l27.77-167C155.77,435.31,155,356,152,283.61Z"/><path class="cls-12" d="M192.86,238.08c-13.33,1.63-26.79.85-40.19.18q-12.88-.64-25.73-1.8c-4.35-.39-8.71-.81-13-1.29-3.33-.37-7.49-1.13-10.68.24-6.8,2.93-5.46,15.58-5,21.44.36,5.18,3.69,7.33,8.21,8.75,23.19,7.28,48.19,6.7,72,2,3.6-.7,8.66-.82,10.85-4.26,3.46-5.44,5.6-12.61,7.8-18.68C198.29,241.33,197,237.57,192.86,238.08Z"/><path class="cls-13" d="M100.76,261.34h0a.41.41,0,0,1-.38-.44l.41-4.67a.41.41,0,0,1,.44-.37.41.41,0,0,1,.37.45l-.4,4.66A.41.41,0,0,1,100.76,261.34Z"/><path class="cls-13" d="M103.51,263.66h-.06a.4.4,0,0,1-.33-.47c.32-1.87.62-3.78.88-5.66a.4.4,0,0,1,.46-.35.41.41,0,0,1,.35.46c-.26,1.89-.56,3.81-.88,5.69A.41.41,0,0,1,103.51,263.66Z"/><path class="cls-13" d="M106.77,265h-.06a.42.42,0,0,1-.33-.48,49.2,49.2,0,0,0,.76-6.18.41.41,0,0,1,.43-.38.41.41,0,0,1,.39.43,53,53,0,0,1-.77,6.28A.41.41,0,0,1,106.77,265Z"/><path class="cls-13" d="M109.58,266h-.09a.41.41,0,0,1-.28-.51,51.32,51.32,0,0,0,1.4-6.37.4.4,0,0,1,.46-.35.41.41,0,0,1,.34.47A49.56,49.56,0,0,1,110,265.7.42.42,0,0,1,109.58,266Z"/><path class="cls-13" d="M113.18,266.78h-.06a.42.42,0,0,1-.33-.48l1.11-5.9a.4.4,0,0,1,.47-.33.4.4,0,0,1,.33.48l-1.1,5.9A.41.41,0,0,1,113.18,266.78Z"/><path class="cls-13" d="M116.6,267.42h0a.41.41,0,0,1-.34-.47l.91-6.15a.41.41,0,0,1,.46-.35.41.41,0,0,1,.35.47l-.91,6.15A.41.41,0,0,1,116.6,267.42Z"/><path class="cls-13" d="M119.85,267.32h0a.42.42,0,0,1-.34-.47,51.06,51.06,0,0,1,1.12-5.08.41.41,0,1,1,.79.21,50.06,50.06,0,0,0-1.1,5A.4.4,0,0,1,119.85,267.32Z"/><path class="cls-13" d="M123.09,268.81h0a.41.41,0,0,1-.34-.48l1.1-6.39a.41.41,0,0,1,.81.14l-1.1,6.39A.41.41,0,0,1,123.09,268.81Z"/><path class="cls-13" d="M126,269.26H126a.41.41,0,0,1-.32-.48c.37-1.95.72-3.94,1-5.9a.39.39,0,0,1,.47-.33.41.41,0,0,1,.34.47c-.33,2-.68,3.95-1,5.92A.41.41,0,0,1,126,269.26Z"/><path class="cls-13" d="M129.22,269.16a.42.42,0,0,1-.39-.41,15.19,15.19,0,0,1,.67-4.06l0-.13a6.44,6.44,0,0,0,.33-1.72.41.41,0,0,1,.41-.41.43.43,0,0,1,.41.41,7.74,7.74,0,0,1-.36,1.94l0,.13a13.91,13.91,0,0,0-.64,3.84.41.41,0,0,1-.4.41Z"/><path class="cls-13" d="M132.1,269.72h0a.41.41,0,0,1-.36-.45c.24-2,.57-4.11,1-6.13a.4.4,0,0,1,.48-.31.4.4,0,0,1,.32.48c-.42,2-.74,4-1,6.05A.42.42,0,0,1,132.1,269.72Z"/><path class="cls-13" d="M135.74,269.63h-.06a.4.4,0,0,1-.32-.48c.28-1.38.58-2.8.78-4.21a4.06,4.06,0,0,0,0-1.59.41.41,0,0,1,.29-.5.42.42,0,0,1,.5.3,4.73,4.73,0,0,1,0,1.91c-.21,1.43-.5,2.86-.79,4.24A.4.4,0,0,1,135.74,269.63Z"/><path class="cls-13" d="M139.26,270.16h0a.41.41,0,0,1-.36-.46l.67-5.17a7.28,7.28,0,0,0,.08-1,.41.41,0,0,1,.4-.43.42.42,0,0,1,.42.4,7.53,7.53,0,0,1-.09,1.18l-.66,5.17A.41.41,0,0,1,139.26,270.16Z"/><path class="cls-13" d="M142.43,269.71h0a.41.41,0,0,1-.38-.44c.15-2,.4-4,.74-6a.41.41,0,0,1,.81.14,58.28,58.28,0,0,0-.73,5.88A.42.42,0,0,1,142.43,269.71Z"/><path class="cls-13" d="M145.53,270.16h-.08a.41.41,0,0,1-.31-.49,33.4,33.4,0,0,0,.79-6.21.41.41,0,1,1,.82,0,34.17,34.17,0,0,1-.81,6.36A.41.41,0,0,1,145.53,270.16Z"/><path class="cls-13" d="M148.58,270.24h0a.42.42,0,0,1-.39-.44l.36-5.81a.39.39,0,0,1,.43-.39.41.41,0,0,1,.38.44l-.35,5.81A.41.41,0,0,1,148.58,270.24Z"/><path class="cls-13" d="M151.69,269.59a.41.41,0,0,1-.39-.42l.13-5.95a.42.42,0,0,1,.42-.4.43.43,0,0,1,.4.42l-.13,5.95a.4.4,0,0,1-.42.4Z"/><path class="cls-13" d="M154.5,270.27h0a.43.43,0,0,1-.37-.45l.63-6.66a.4.4,0,0,1,.45-.36.41.41,0,0,1,.37.44l-.63,6.66A.41.41,0,0,1,154.5,270.27Z"/><path class="cls-13" d="M157.79,268.6h0a.4.4,0,0,1-.37-.44l.45-5.32a.44.44,0,0,1,.45-.38.41.41,0,0,1,.37.45l-.46,5.32A.41.41,0,0,1,157.79,268.6Z"/><path class="cls-13" d="M161,268.68h0a.41.41,0,0,1-.36-.45l.65-6.05a.42.42,0,0,1,.46-.36.41.41,0,0,1,.36.45l-.66,6.05A.41.41,0,0,1,161,268.68Z"/><path class="cls-13" d="M164.19,268.37a.42.42,0,0,1-.37-.27.87.87,0,0,1,0-.55l1-5.23a.41.41,0,0,1,.48-.32.41.41,0,0,1,.32.48l-1,5.23s0,.09,0,.11a.4.4,0,0,1-.4.55Z"/><path class="cls-13" d="M167.89,267.67a.41.41,0,0,1-.39-.43,41.08,41.08,0,0,1,.68-5.86.41.41,0,1,1,.8.15,41,41,0,0,0-.66,5.74.41.41,0,0,1-.43.4Z"/><path class="cls-13" d="M171.3,267.16h0a.4.4,0,0,1-.35-.45l.72-6a.41.41,0,0,1,.46-.36.41.41,0,0,1,.36.45l-.73,6.05A.42.42,0,0,1,171.3,267.16Z"/><path class="cls-13" d="M174.55,267h0a.41.41,0,0,1-.37-.45l.65-6.35a.41.41,0,0,1,.45-.37.42.42,0,0,1,.37.45l-.66,6.36A.41.41,0,0,1,174.55,267Z"/><path class="cls-13" d="M177.76,266.19a.47.47,0,0,1-.17,0,.48.48,0,0,1-.23-.52l.7-3.93a8,8,0,0,0,.2-2,.41.41,0,0,1,.38-.44.41.41,0,0,1,.44.38,9,9,0,0,1-.21,2.21l-.67,3.76a.46.46,0,0,1-.11.46A.4.4,0,0,1,177.76,266.19Zm.41-.42h0Z"/><path class="cls-13" d="M181.22,266h0a.4.4,0,0,1-.38-.43,59.15,59.15,0,0,1,.84-6.76.41.41,0,0,1,.48-.33.41.41,0,0,1,.32.48,60,60,0,0,0-.83,6.66A.4.4,0,0,1,181.22,266Z"/><path class="cls-13" d="M183.92,265.1h-.08a.41.41,0,0,1-.31-.47c.41-2.23.89-4.49,1.42-6.71a.41.41,0,0,1,.8.19c-.5,2.07-.95,4.18-1.34,6.27a.31.31,0,0,1,0,.19l-.07.25A.4.4,0,0,1,183.92,265.1Z"/><path class="cls-13" d="M187.64,262.75l-.13,0a.41.41,0,0,1-.24-.53c.61-1.65,1.15-3.35,1.6-5.06a.41.41,0,0,1,.8.21c-.46,1.73-1,3.46-1.63,5.14A.4.4,0,0,1,187.64,262.75Z"/><path class="cls-7" d="M123.66,393.63s-5.22-160.29,56.1-7.16"/><path class="cls-7" d="M103.39,394.61s30.58-167.79,56.1-7.16"/><polygon class="cls-16" points="50.75 392.73 213.55 372.41 229.63 501.13 96.49 527.1 55.64 516.66 50.75 392.73"/><polygon class="cls-9" points="50.75 392.73 55.64 516.66 96.49 527.1 77.92 389.27 50.75 392.73"/><path class="cls-2" d="M147.6,325.14c-2.38-.93-4.84-1.69-7.18-2.72a23.5,23.5,0,0,1-3.44-1.81c-1-.65-2.31-1.53-.57-1.87a18.28,18.28,0,0,1,3.55-.1,18.06,18.06,0,0,0,5.53-.53,3.4,3.4,0,0,0,2.25-2,3.21,3.21,0,0,0-1.43-3.45l-.12-.08a9.07,9.07,0,0,0-4-1.1c-4.42-.48-9-.4-13.35-1.19-2.52-.46-4.79-1.37-7.38-1.58a33.28,33.28,0,0,0-6.31.13l-3.05-2.93.13-.25-2.81-2.77q-4.74,8.74-9.51,17.48c2.36,1.58,3.84,2.54,3.86,2.48l0-.09c2.08,7.69,8.15,15.39,14.81,18.9a9.62,9.62,0,0,1,1.94,1.19c.45.4.66,1,1.12,1.37a19.91,19.91,0,0,0,5.19,3.25c3.27,1.46,7-.7,4.13-2.52a14.79,14.79,0,0,1-2.75-2c-.65-.58-1.42-1.07-1.08-1.39.66-.6,3.87,2,4.66,2.75,1.48,1.48,3.52,4.58,6.22,1.68,2.47-2.66-1-4.79-2.09-6-.45-.52-3.09-2.35-2.29-3.21s3.83,1.71,4.56,2.13c2.09,1.2,3.12,1.12,5-.91,1-1.07.14-3.89-1.71-5.23-1-.7-1.91-1.41-2.83-2.16-.38-.31-1.5-.9-1.11-1.51s1.65-.1,2.12,0c1.26.38,2.41,1.21,3.64,1.56,2.12.59,4.14.52,5.23-1.54S147.6,325.14,147.6,325.14Z"/><path class="cls-7" d="M134.08,373.16s-14.25-121.24,42.1-9"/><path class="cls-7" d="M118.77,375.21s12.42-129.23,42.09-9"/><polygon class="cls-17" points="78.72 377.16 200.91 351.3 221.36 447.9 122.04 476.15 90.39 470.86 78.72 377.16"/><polygon class="cls-9" points="78.72 377.16 90.39 470.86 122.04 476.15 99.11 372.8 78.72 377.16"/><path class="cls-12" d="M113.86,303.77a18.84,18.84,0,0,0-5.48-3.88,35.63,35.63,0,0,0-4.62-2.11c-.45-.17-4.74-1.79-4.9-1.51L87.51,316.18c-.26.51,10.72,6.82,11.63,7.35a7.8,7.8,0,0,0,4.41,1.27c2.64-.19,4.63-2.35,6.09-4.36,2.75-3.81,7.18-8.75,5.7-13.93A7.19,7.19,0,0,0,113.86,303.77Z"/><path class="cls-13" d="M103.58,322.47q-3.92-2.66-8-5c-.51-.29-.91.53-.4.82q4,2.28,7.84,4.86C103.47,323.48,104.06,322.79,103.58,322.47Z"/><ellipse class="cls-13" cx="101.53" cy="318.09" rx="0.45" ry="541.51" transform="translate(-219.77 227.23) rotate(-56.51)"/><ellipse class="cls-13" cx="107.86" cy="305.31" rx="0.45" ry="541.51" transform="translate(-206.28 226.78) rotate(-56.51)"/><path class="cls-13" d="M108.71,317.19q-5-2.79-10.24-5.21a.45.45,0,0,0-.39.82c3.47,1.61,6.89,3.34,10.23,5.21C108.83,318.29,109.22,317.47,108.71,317.19Z"/><path class="cls-13" d="M110.05,314.07c-1.61-1-3.21-1.94-4.81-2.93a30.89,30.89,0,0,1-4.26-3c-.44-.39-.94.37-.51.75a30.13,30.13,0,0,0,4.26,3l4.81,2.93C110,315.13,110.55,314.38,110.05,314.07Z"/><path class="cls-13" d="M114,305.58l-4.8-2.93a29.56,29.56,0,0,1-4.26-3c-.44-.39-.94.37-.51.75a29.56,29.56,0,0,0,4.26,3l4.8,2.93C114,306.63,114.46,305.88,114,305.58Z"/><path class="cls-13" d="M112.09,311.19q-4.86-2.93-9.92-5.47a.45.45,0,0,0-.4.81q5.06,2.57,9.92,5.47C112.19,312.3,112.59,311.48,112.09,311.19Z"/><path class="cls-14" d="M189,133.85c-.84-2-7.14-6.14-7.14-6.14s-37-6.06-54.37-3.2A135.82,135.82,0,0,0,102,131.29c-9,3.38-16.9,7.3-24.23,13.67a166.9,166.9,0,0,0-20.22,21.71c-3,3.73-5.89,7.52-8.77,11.32-8.3,10.94-17,21.92-23.84,33.88C15.1,229.13,8.3,251,19.12,269.45c6.48,11.05,16.76,19.42,26.85,27a182.68,182.68,0,0,0,39,23,8.33,8.33,0,0,0,10.53-3.59,122.67,122.67,0,0,0,7-15.38,11,11,0,0,0-.95-9.7,234.67,234.67,0,0,0-36.76-45C75,235.38,85,224.45,93,212.52a233.34,233.34,0,0,1,1.72,30.13c0,2.9-.11,6,1.38,8.48,1.87,3.16,5.69,4.51,9.23,5.49a151.35,151.35,0,0,0,79.31.15c5.22-1.4,10.66-3.31,13.79-8,2.83-4.27,3.36-9.64,4-14.58a192,192,0,0,0,1.63-25.47A195.08,195.08,0,0,0,189,133.85Z"/><path class="cls-3" d="M290,712.24c-5.83,1-12.07.56-18,.56-16.88,0-33.73-.82-50.59-1.62a22,22,0,0,1-7.9-1.37,11,11,0,0,1-4.73-4.09,8.7,8.7,0,0,1-1.34-3.6,6.69,6.69,0,0,1,0-1.34,17.56,17.56,0,0,1,1.43-5.22c1.2-3.09,1.77-5.35,3-8.44,13.39,0,26.72-2.5,39.63-6l3.88,2,22.38,11.27,9.08,4.58,2.18,1.09c2.14,1.09,5.18,1.76,6.75,3.72a4.58,4.58,0,0,1,.81,1.57C297.88,709.75,293.72,711.62,290,712.24Z"/><path class="cls-12" d="M173.63,121.5c-.23-.78-.5-1.55-.67-2.29-.71-3.06-.29-7-3.76-9-1.7-1-3.75-.72-5.67-.68-2.28.06-4.54.18-6.81.22a90.82,90.82,0,0,1-14.27-.92c-2.41-.35-4.81-.8-7.17-1.34-2.14-.49-4.31-1.36-6.51-1.5a4.91,4.91,0,0,0-4.15,1.47,5.14,5.14,0,0,0-.84,2.49c-.67,4.39-1.27,8.86-.4,13.26a6.32,6.32,0,0,0,1.85,3.76c2.58,2.22,8,2.74,11.43,3.33,11.17,1.95,23.05,1.83,33.31-2.38a8.78,8.78,0,0,0,3.32-2C174.5,124.56,174.08,123,173.63,121.5Z"/><path class="cls-13" d="M128.66,127.6a.4.4,0,0,1-.37-.29,58.54,58.54,0,0,1-1-19.51.38.38,0,0,1,.44-.3h0a.38.38,0,0,1,.37.39,57.8,57.8,0,0,0,1,19.3.35.35,0,0,1-.33.41Z"/><path class="cls-13" d="M132.18,128.7h0a.38.38,0,0,1-.37-.39,52.68,52.68,0,0,0,0-9l-.59-9.83c0-.28-.07-.37-.11-.39a.33.33,0,0,1-.13-.49.44.44,0,0,1,.56-.1,1.12,1.12,0,0,1,.5,1l.58,9.82a52.94,52.94,0,0,1,0,9.08A.39.39,0,0,1,132.18,128.7Z"/><path class="cls-13" d="M136.48,129.42a.41.41,0,0,1-.38-.34c-.26-6.37-.31-12.83-.13-19.19a.37.37,0,0,1,.42-.33.4.4,0,0,1,.4.37c-.18,6.35-.14,12.79.13,19.14a.36.36,0,0,1-.39.35Z"/><path class="cls-13" d="M140,130a.4.4,0,0,1-.38-.37,148.85,148.85,0,0,0-.41-19,.36.36,0,0,1,.38-.36.41.41,0,0,1,.44.33,150,150,0,0,1,.41,19.07.38.38,0,0,1-.42.33Z"/><path class="cls-13" d="M143.89,131h0a.39.39,0,0,1-.38-.39,55.16,55.16,0,0,0-.09-10.07l0-.38a21.74,21.74,0,0,1-.08-4.27c.05-.49.13-1,.22-1.47a11.45,11.45,0,0,0,.25-2.71.35.35,0,0,1,.38-.36.41.41,0,0,1,.44.34,11.86,11.86,0,0,1-.26,2.86c-.09.47-.17,1-.22,1.42a21.43,21.43,0,0,0,.09,4.16l0,.38a56.36,56.36,0,0,1,.09,10.18A.38.38,0,0,1,143.89,131Z"/><path class="cls-13" d="M147.23,130.53h0a.39.39,0,0,1-.36-.4,78.68,78.68,0,0,0,.33-18.15.36.36,0,0,1,.38-.37.39.39,0,0,1,.44.33,79.9,79.9,0,0,1-.33,18.29A.39.39,0,0,1,147.23,130.53Z"/><path class="cls-13" d="M151.71,130.22h0a.37.37,0,0,1-.35-.4,15.68,15.68,0,0,0-.18-4.21c-.09-.66-.18-1.33-.24-2a34.74,34.74,0,0,1,.05-4.45,19.63,19.63,0,0,0-.52-7.28.34.34,0,0,1,.28-.43.45.45,0,0,1,.51.25,20.36,20.36,0,0,1,.55,7.52,33.37,33.37,0,0,0,0,4.36c0,.65.14,1.32.23,2a16,16,0,0,1,.18,4.37A.39.39,0,0,1,151.71,130.22Z"/><path class="cls-13" d="M155.23,129.82a.37.37,0,0,1-.37-.37,142.59,142.59,0,0,0-.15-17.78.35.35,0,0,1,.38-.36.39.39,0,0,1,.43.34,141.78,141.78,0,0,1,.16,17.85.39.39,0,0,1-.43.32Z"/><path class="cls-13" d="M159.19,128.79a.39.39,0,0,1-.38-.38c.37-5.37.76-10.92-.51-16.31a.35.35,0,0,1,.32-.41.42.42,0,0,1,.48.29c1.29,5.48.9,11.08.53,16.49a.38.38,0,0,1-.43.32Z"/><path class="cls-13" d="M162.67,129.25a.38.38,0,0,1-.38-.34L161.74,112a.35.35,0,0,1,.39-.35.39.39,0,0,1,.42.35l.56,16.94a.37.37,0,0,1-.4.35Z"/><path class="cls-13" d="M166.74,128a.4.4,0,0,1-.38-.36,118.57,118.57,0,0,0-1-15.85.35.35,0,0,1,.36-.38.41.41,0,0,1,.45.33,119.63,119.63,0,0,1,1,15.92.38.38,0,0,1-.41.34Z"/><path class="cls-13" d="M170.66,126.35l-.09,0a.34.34,0,0,1-.27-.44,7.69,7.69,0,0,0-.12-4.08,19.51,19.51,0,0,1-.33-2c0-.54,0-1.08,0-1.61s0-1.07-.05-1.6a17.4,17.4,0,0,0-1.59-5.06.34.34,0,0,1,.24-.45.45.45,0,0,1,.53.22,18.2,18.2,0,0,1,1.64,5.25c.05.56.05,1.12.05,1.66s0,1,0,1.56a17,17,0,0,0,.32,2,8.22,8.22,0,0,1,.09,4.4A.4.4,0,0,1,170.66,126.35Z"/><path class="cls-2" d="M131.17,79.92a15.77,15.77,0,0,1-15.53,1.25,15.53,15.53,0,0,1-8.23-10.49,15.72,15.72,0,0,1-.32-2.48,11.2,11.2,0,0,1,.61-4.34,9.67,9.67,0,0,1,8.35-6,11.17,11.17,0,0,1,9.4,4.54l2.2,6.74Z"/><path class="cls-12" d="M191,254.69c2-1.24,4-2.33,5.86-3.56a12.8,12.8,0,0,0,4.49-4.59,11.33,11.33,0,0,0,1.08-3,8.68,8.68,0,0,0,.16-3.17c-.14-1.08-.39-2.21-.59-3.35s-.38-2.28-.55-3.43c-.31-2.29-.52-4.59-.68-6.89s-.25-4.61-.29-6.91c-.08-4.61,0-9.2.1-13.79.17-9.19.54-18.36,0-27.52a208.94,208.94,0,0,0-3.26-27.31A210.43,210.43,0,0,1,201,178.43c.7,9.18.48,18.39.45,27.56,0,4.58,0,9.17.14,13.75.07,2.29.19,4.56.4,6.84s.44,4.55.78,6.8c.18,1.12.37,2.24.59,3.36s.48,2.22.66,3.42a10.06,10.06,0,0,1-.12,3.67,12.9,12.9,0,0,1-1.17,3.45,12.07,12.07,0,0,1-2.17,3,18.71,18.71,0,0,1-2.77,2.29c-1.95,1.34-4,2.45-5.85,3.68Z"/><path class="cls-12" d="M90.19,141.71a21.93,21.93,0,0,1,5.82,5.9,32,32,0,0,1,3.71,7.5,48.66,48.66,0,0,1,2,8.12,77.16,77.16,0,0,1,.88,8.29c.13,2.78.11,5.55,0,8.33s-.42,5.53-.85,8.27A55.6,55.6,0,0,1,97,204a77.75,77.75,0,0,0,3.3-16c.26-2.72.48-5.44.54-8.17s.08-5.44-.07-8.16-.37-5.43-.76-8.12c-.18-1.35-.42-2.68-.69-4s-.6-2.63-1-3.93A39.45,39.45,0,0,0,97,151.72c-.24-.63-.54-1.23-.82-1.85s-.6-1.21-.95-1.79A25,25,0,0,0,90.19,141.71Z"/><path class="cls-13" d="M123.18,130.62a.45.45,0,0,1-.18-.87l1.69-.67a.45.45,0,0,1,.59.26.44.44,0,0,1-.26.58l-1.68.67A.45.45,0,0,1,123.18,130.62Z"/><path class="cls-13" d="M90,309.82a.45.45,0,0,1-.25-.07c-1-.62-2.1-1.24-3.14-1.87a.44.44,0,0,1-.16-.62.46.46,0,0,1,.62-.16L90.21,309a.45.45,0,0,1,.16.62A.46.46,0,0,1,90,309.82Zm-6.27-3.76a.4.4,0,0,1-.26-.06l-3.12-1.91a.45.45,0,0,1-.15-.62.46.46,0,0,1,.63-.15l3.11,1.9a.46.46,0,0,1,.16.63A.45.45,0,0,1,83.73,306.06Zm-6.22-3.83a.48.48,0,0,1-.26-.07l-3.09-2a.44.44,0,0,1-.13-.62.46.46,0,0,1,.63-.14c1,.66,2,1.32,3.07,2a.46.46,0,0,1-.22.84Zm-6.13-4a.43.43,0,0,1-.27-.08c-1-.68-2-1.36-3-2.06a.45.45,0,0,1-.12-.63.46.46,0,0,1,.64-.12c1,.7,2,1.38,3,2.06a.45.45,0,0,1,.13.63A.49.49,0,0,1,71.38,298.25Zm-6-4.16a.47.47,0,0,1-.28-.09c-1-.72-2-1.45-3-2.17a.44.44,0,0,1-.09-.64.45.45,0,0,1,.63-.09c1,.72,1.95,1.45,2.94,2.16a.46.46,0,0,1,.1.64A.49.49,0,0,1,65.37,294.09Zm-5.84-4.4a.41.41,0,0,1-.3-.09c-1-.77-1.93-1.54-2.85-2.31a.45.45,0,0,1-.06-.64.46.46,0,0,1,.64-.06c.91.76,1.87,1.53,2.83,2.29a.46.46,0,0,1,.08.64A.44.44,0,0,1,59.53,289.69Zm-5.65-4.64a.45.45,0,0,1-.31-.1l-2.79-2.37a.47.47,0,0,1-.05-.65.46.46,0,0,1,.65,0c.92.8,1.85,1.59,2.78,2.36a.46.46,0,0,1-.28.8Zm-5.53-4.78a.42.42,0,0,1-.32-.11c-1-.85-1.86-1.68-2.71-2.48a.45.45,0,0,1,.62-.66c.84.79,1.75,1.62,2.69,2.46a.45.45,0,0,1,0,.64A.42.42,0,0,1,48.35,280.27Zm-5.33-5a.42.42,0,0,1-.33-.13c-.9-.9-1.75-1.79-2.55-2.65a.45.45,0,0,1,0-.64.46.46,0,0,1,.64,0c.79.86,1.63,1.74,2.52,2.63a.45.45,0,0,1,0,.64A.48.48,0,0,1,43,275.26Zm-5-5.37a.46.46,0,0,1-.36-.16c-.81-1-1.58-1.94-2.29-2.89a.44.44,0,0,1,.1-.63.45.45,0,0,1,.63.09c.7.94,1.46,1.89,2.25,2.84a.45.45,0,0,1,0,.64A.49.49,0,0,1,38.07,269.89ZM33.72,264a.46.46,0,0,1-.4-.21c-.68-1.06-1.32-2.12-1.88-3.18a.44.44,0,0,1,.19-.61.45.45,0,0,1,.61.18c.55,1,1.17,2.08,1.84,3.12A.44.44,0,0,1,34,264,.53.53,0,0,1,33.72,264Zm-3.44-6.44a.46.46,0,0,1-.44-.28,33.75,33.75,0,0,1-1.25-3.48.44.44,0,0,1,.3-.56.46.46,0,0,1,.57.3A34.44,34.44,0,0,0,30.68,257a.44.44,0,0,1-.24.59A.32.32,0,0,1,30.28,257.59Zm-2.09-7a.46.46,0,0,1-.47-.38c0-.15,0-.31-.08-.47a28.37,28.37,0,0,1-.33-3.21.45.45,0,0,1,.43-.48.46.46,0,0,1,.47.43c.06,1.05.17,2.1.33,3.11,0,.16.05.31.08.46a.46.46,0,0,1-.37.53Zm-.38-7.28h0a.47.47,0,0,1-.42-.49,34,34,0,0,1,.45-3.67.45.45,0,0,1,.52-.37.45.45,0,0,1,.37.52,35.22,35.22,0,0,0-.43,3.58A.46.46,0,0,1,27.81,243.33Zm1.22-7.2H28.9a.46.46,0,0,1-.32-.56c.3-1.14.66-2.33,1.07-3.52a.45.45,0,1,1,.86.29c-.4,1.17-.76,2.34-1.06,3.46A.45.45,0,0,1,29,236.13Zm2.37-6.91a.58.58,0,0,1-.19,0,.45.45,0,0,1-.25-.6c.45-1.08.95-2.21,1.49-3.36a.47.47,0,0,1,.6-.22.46.46,0,0,1,.22.61c-.53,1.13-1,2.25-1.47,3.32A.46.46,0,0,1,31.4,229.22Zm3.1-6.62a.37.37,0,0,1-.23,0,.45.45,0,0,1-.19-.61c.53-1,1.1-2.09,1.73-3.23a.46.46,0,0,1,.8.44c-.63,1.14-1.2,2.19-1.73,3.21A.42.42,0,0,1,34.5,222.6ZM38,216.2a.36.36,0,0,1-.24-.06.46.46,0,0,1-.17-.62c.61-1.06,1.22-2.11,1.85-3.16a.45.45,0,0,1,.62-.16.45.45,0,0,1,.16.62c-.62,1.05-1.23,2.1-1.84,3.15A.43.43,0,0,1,38,216.2Zm3.73-6.28a.48.48,0,0,1-.26-.07.45.45,0,0,1-.15-.62c.64-1,1.28-2.08,1.93-3.12a.45.45,0,0,1,.62-.14.45.45,0,0,1,.15.62c-.65,1-1.29,2.07-1.92,3.11A.49.49,0,0,1,41.75,209.92Zm3.88-6.2a.41.41,0,0,1-.26-.07.45.45,0,0,1-.14-.63c.66-1,1.32-2.05,2-3.07a.46.46,0,0,1,.63-.13.45.45,0,0,1,.13.63c-.67,1-1.33,2-2,3.06A.43.43,0,0,1,45.63,203.72Zm4-6.11a.44.44,0,0,1-.27-.07.45.45,0,0,1-.12-.63c.68-1,1.36-2,2-3a.45.45,0,0,1,.75.51c-.69,1-1.37,2-2,3A.42.42,0,0,1,49.64,197.61Zm4.13-6a.46.46,0,0,1-.28-.08.44.44,0,0,1-.11-.63q1-1.5,2.1-3a.46.46,0,1,1,.74.53l-2.1,3A.43.43,0,0,1,53.77,191.58Zm4.22-6a.4.4,0,0,1-.28-.08.44.44,0,0,1-.11-.63c.71-1,1.43-2,2.14-3a.46.46,0,0,1,.74.53l-2.14,3A.45.45,0,0,1,58,185.61Zm4.29-5.91a.41.41,0,0,1-.28-.09.45.45,0,0,1-.1-.63L64.07,176a.45.45,0,0,1,.64-.1.46.46,0,0,1,.09.64l-2.17,2.94A.44.44,0,0,1,62.28,179.7Zm4.36-5.87a.45.45,0,0,1-.29-.09.46.46,0,0,1-.09-.64l2.19-2.92a.46.46,0,0,1,.73.55c-.73,1-1.47,1.94-2.19,2.92A.47.47,0,0,1,66.64,173.83ZM71,168a.52.52,0,0,1-.29-.09.46.46,0,0,1-.09-.64l2.21-2.91a.46.46,0,0,1,.64-.09.45.45,0,0,1,.08.64l-2.2,2.91A.47.47,0,0,1,71,168Zm4.42-5.82a.52.52,0,0,1-.29-.09.46.46,0,0,1-.09-.64l2.21-2.91a.46.46,0,0,1,.73.55L75.8,162A.5.5,0,0,1,75.45,162.17Zm4.45-5.8a.47.47,0,0,1-.3-.1.45.45,0,0,1-.07-.64c.83-1,1.59-2,2.32-2.84a.45.45,0,1,1,.69.59c-.72.85-1.47,1.77-2.3,2.82A.47.47,0,0,1,79.9,156.37Zm4.75-5.55a.44.44,0,0,1-.33-.12.47.47,0,0,1,0-.65c.88-.92,1.77-1.78,2.65-2.56a.45.45,0,0,1,.64,0,.46.46,0,0,1,0,.64c-.85.77-1.73,1.62-2.59,2.52A.45.45,0,0,1,84.65,150.82ZM90.11,146a.46.46,0,0,1-.38-.19.45.45,0,0,1,.09-.63c1-.7,2-1.4,3.07-2.06a.46.46,0,0,1,.48.78c-1.07.65-2.08,1.32-3,2A.54.54,0,0,1,90.11,146Zm6.21-3.84a.45.45,0,0,1-.42-.24.47.47,0,0,1,.19-.62c1-.53,2.1-1.07,3.3-1.63a.45.45,0,1,1,.38.82c-1.18.56-2.24,1.09-3.25,1.62A.46.46,0,0,1,96.32,142.14Zm6.61-3.13a.47.47,0,0,1-.44-.27.46.46,0,0,1,.24-.6l2.33-1,1-.44a.46.46,0,0,1,.35.84l-1,.44-2.33,1A.47.47,0,0,1,102.93,139Zm6.72-2.87a.45.45,0,0,1-.19-.87l3.37-1.41a.47.47,0,0,1,.6.25.46.46,0,0,1-.25.59l-3.37,1.41A.45.45,0,0,1,109.65,136.14Zm6.75-2.79a.44.44,0,0,1-.43-.28.46.46,0,0,1,.24-.6l3.39-1.37a.47.47,0,0,1,.6.25.45.45,0,0,1-.26.59l-3.38,1.38A.41.41,0,0,1,116.4,133.35Z"/><path class="cls-13" d="M94.73,312.6a.37.37,0,0,1-.25-.06l-1.57-.92a.46.46,0,0,1-.16-.62.45.45,0,0,1,.62-.16l1.57.92a.45.45,0,0,1,.16.62A.42.42,0,0,1,94.73,312.6Z"/><path class="cls-18" d="M155.74,62.12c-.13-2.58-1.6-4.61-3.29-4.52s-3,2.24-2.83,4.82,1.6,4.61,3.29,4.53S155.86,64.71,155.74,62.12Z"/><path class="cls-18" d="M178.94,62.57c-.13-2.53-1.56-4.5-3.21-4.42s-2.88,2.19-2.76,4.71,1.56,4.5,3.21,4.42S179.06,65.09,178.94,62.57Z"/><path class="cls-4" d="M147.73,51.25a.88.88,0,0,1-.67-.42.92.92,0,0,1,.29-1.25,8.89,8.89,0,0,1,9-.1.91.91,0,1,1-.93,1.56,7,7,0,0,0-7.11.08A.82.82,0,0,1,147.73,51.25Z"/><path class="cls-4" d="M171.58,51.91a.91.91,0,0,1-.34-1.69,8.25,8.25,0,0,1,8.29.16.91.91,0,1,1-1,1.54,6.42,6.42,0,0,0-6.43-.13A.92.92,0,0,1,171.58,51.91Z"/><path class="cls-18" d="M164,69.26a2.86,2.86,0,0,1,2.66-.48,3.35,3.35,0,0,1,2.14,2,3.3,3.3,0,0,1-.22,2.92,2.85,2.85,0,0,1-2.29,1.45,4,4,0,0,0,1.32-1.9,3,3,0,0,0-.08-2,3,3,0,0,0-1.28-1.52A3.94,3.94,0,0,0,164,69.26Z"/><path class="cls-19" d="M176.48,79.69v.07a11.17,11.17,0,0,1-2.5,7.57,11.7,11.7,0,0,1-17.84.3,11,11,0,0,1-2.72-6.75v-.06Z"/><path class="cls-20" d="M174,87.33a11.7,11.7,0,0,1-17.84.3,29.46,29.46,0,0,1,2.85-1A21.27,21.27,0,0,1,170.4,86,20.19,20.19,0,0,1,174,87.33Z"/><path class="cls-21" d="M174.34,79.8c-.3.25-.61.49-.92.72-4.67,3.43-13.25,4.86-17.53.18Z"/></g></g></svg>