<svg xmlns="http://www.w3.org/2000/svg" xmlns:xlink="http://www.w3.org/1999/xlink" viewBox="0 0 615.31 755.99"><defs><style>.cls-1{fill:none;}.cls-2{isolation:isolate;}.cls-3{fill:#606060;}.cls-4{fill:#fff;}.cls-5{fill:#212121;}.cls-6{fill:#bdbdbd;}.cls-10,.cls-11,.cls-15,.cls-6{mix-blend-mode:multiply;}.cls-7{fill:#994059;}.cls-10,.cls-11,.cls-8{fill:#d19688;}.cls-9{fill:#f67950;}.cls-11{opacity:0.7;}.cls-12{clip-path:url(#clip-path);}.cls-13{fill:#f9ed69;}.cls-14{fill:#d394d9;}.cls-15{opacity:0.5;}.cls-16{fill:#6a2c70;}.cls-17{font-size:58.46px;}.cls-17,.cls-18,.cls-19,.cls-20{fill:#b83b5e;font-family:DINPro-Medium, DINPro;font-weight:500;}.cls-18{font-size:44.59px;}.cls-19{font-size:31.37px;}.cls-20{font-size:21.92px;}</style><clipPath id="clip-path" transform="translate(29.35)"><path class="cls-1" d="M4,349.44S-51.34,739.82,248.84,752,551.26,426.92,551.26,426.92l-30.34-17L408.41,389.11l-105-55h-88l-110,7.33L26,334.12Z"/></clipPath></defs><g class="cls-2"><g id="Capa_2" data-name="Capa 2"><g id="Información"><path class="cls-3" d="M8.6,315c-.44,6.63-22.53,19.59,9.67-193.38C32.09,30.26,146.92.18,266.86,0,624.05-.53,544,145.86,534,234.09c-4.43,39,17.29,122.53,17.29,155.88L348.58,548,126,418.44Z" transform="translate(29.35)"/><path class="cls-4" d="M154.43,58.69C274.79,16.84,407.88,12.44,530.74,46.25c4.43-3.57,11.57-7,17.22-7.68s12.2,3.18,12.21,8.87c0,3.27-2.13,6.24-4.83,8.09s-5.9,2.79-9.05,3.69c16,44.65,18.25,95.27,5.28,140.9a35.09,35.09,0,0,1,15.48,9.39c4.35,4.48,5.86,12.37,1.5,16.84-2.94,3-7.71,3.63-11.8,2.61s-7.68-3.43-11.18-5.79C419.7,242.69,288.4,236.11,165.46,202.79c-4.66,2.05-12,3.58-17.06,2.91s-9.93-5.27-8.93-10.26,7.39-7.41,12.49-6.38c-14.25-13.39-23.13-32-25.41-51.41a84.63,84.63,0,0,1,13.27-55.91c-10.33-7.35-14.42-25.31-8.4-36.47C140.09,46.05,148.92,52,154.43,58.69Z" transform="translate(29.35)"/><path class="cls-5" d="M477.16,165.57a55.51,55.51,0,0,0-29.75,33,56.52,56.52,0,0,1,28.9-34.79l.85,1.81Z" transform="translate(29.35)"/><path class="cls-5" d="M497.63,156.89a65,65,0,0,1,46.56,19.66,64,64,0,0,0-46.51-17.66l-.05-2Z" transform="translate(29.35)"/><path class="cls-5" d="M466.44,131.2a108.41,108.41,0,0,0-39.62-46.35,109.38,109.38,0,0,1,41.43,45.5l-1.81.85Z" transform="translate(29.35)"/><path class="cls-5" d="M487.67,123.22a84,84,0,0,1,47.9-20.56,82.9,82.9,0,0,0-46.54,22l-1.36-1.48Z" transform="translate(29.35)"/><path class="cls-5" d="M348.23,156.15a83.21,83.21,0,0,1,60.18-46.71A82.19,82.19,0,0,0,350.06,157l-1.83-.81Z" transform="translate(29.35)"/><path class="cls-5" d="M289.12,134.89c6.84-25.45-5.32-54.14-28.39-67.07,23.69,12.51,36.66,41.41,30.33,67.54l-1.94-.47Z" transform="translate(29.35)"/><path class="cls-5" d="M281.42,166.58a89.27,89.27,0,0,0-66-38.48,90.22,90.22,0,0,1,67.61,37.34l-1.64,1.14Z" transform="translate(29.35)"/><path class="cls-5" d="M335.5,192.7c25.43-25.53,63-38.23,98.66-33.3-35.46-4.25-72.56,9-97.23,34.7l-1.43-1.4Z" transform="translate(29.35)"/><path class="cls-6" d="M534,234.09S513.43,170,466.29,108.82c-9.58,1-9,17.92-9,17.92L452,142.22l10.59,21.18L492,187l34.22,77.39-44.76-8.59L344.64,229.59l-.87-6.52a58,58,0,0,0,9.64-14.48A126.69,126.69,0,0,0,365.36,169l0,0s9.17-14,5.51-28.37c0,0,.9-25.34-17.43-37.87s-40.94.61-40.94.61-19.83-13.14-31.44,13.44c-8.42,19.28-7.33,34-6.1,40.55a8.46,8.46,0,0,0-1.77,1.44c-3.54,3.89-3.42,10.37-.22,14.56s9,7.27,14.23,6.54l-8.3,25.82-29.89,3-64.58,6.44h0l-6.12.61a69.08,69.08,0,0,0-55.21,38.41l-12,24.55h0l-5.34,10.92a64.47,64.47,0,0,0,7.46,9.73L96,350.78l24.49,62.84,5.47,4.82L302,520.88l21.29-3.1,77.19-174.54h45.21a25.3,25.3,0,0,0,20.09-10.1c12.37.13,26.5.54,42.44,1.34a340.1,340.1,0,0,0,38.5,0C541.62,288.32,534,234.09,534,234.09Z" transform="translate(29.35)"/><path class="cls-7" d="M438.44,336s19.75,1,25.66-22.2,10-65.21,10-65.21l-53,33.43-10.45,39.31Z" transform="translate(29.35)"/><path class="cls-8" d="M337.35,222.31l181.53,34.83-34.21-77.4-29.33-23.62-10.59-21.18L450,119.46s-.91-24.54,16.2-16.29c0,0,4.88-3.36,12.22,2.14,0,0,2.44-8.56,20.77,4.27,0,0,14.66.92,18.33,9.47s-.92,55-.92,55l66.34,116a22.46,22.46,0,0,1-14.11,33c-14.11,3.41-35.58,5.77-67.91,4.14-72.72-3.67-108.08,1-108.08,1L316,510.5s-101.83,2.44-184.11-56.22L88.74,343.49l29.8-88.83a69.06,69.06,0,0,1,58.62-46.76l94.47-9.42,8.31-25.82,54,24.19Z" transform="translate(29.35)"/><path class="cls-5" d="M507.88,232.25c9.29,19.35,18,39.11,26.09,59-9.3-19.36-18-39.11-26.09-59Z" transform="translate(29.35)"/><path class="cls-5" d="M450,119.46c1.74,13.61,5.23,29.05,10.86,5.21l.4-1.62c.76,4.3,1.68,8.6,2.78,12.83.72,2.3,2.57,10.4,5.08,10.7,3.46-1.92,4.54-18.7,5.18-23.09.38,2.06,4.59,23.39,8.24,18,2.48-4.53,2.9-9.94,3.77-15l.71,0c.11,3.54.09,7.31,1.52,10.59,2.42,4.5,6.88-6.44,7.82-8.25l6.19-5.61-6,5.79c-.94,2.09-5.3,13.58-8.46,8.33-1.55-3.37-1.58-7.2-1.75-10.85l.71.05c-.62,4.47-1.18,9-2.72,13.29-3.2,8.2-6.83-.38-8-4.49A85.23,85.23,0,0,1,474,126.7l1,0c-.64,5.73-1.23,11.52-3,17.06-1.41,4.52-3.92,5.28-6,.63-2.69-6.2-3.89-12.91-5.11-19.52l.7,0c-6.1,24.26-10.38,9.24-11.55-5.38Z" transform="translate(29.35)"/><path class="cls-5" d="M481.57,142.75a24.84,24.84,0,0,1,3.15,17.54A24.58,24.58,0,0,0,481.16,143l.41-.29Z" transform="translate(29.35)"/><path class="cls-5" d="M496.68,128.89c2.39,3,6.44,4.36,10.21,4.41.55,0,1.1,0,1.66,0-.56,0-1.11.08-1.66.1-3.89.09-8-1.12-10.61-4.18l.4-.29Z" transform="translate(29.35)"/><path class="cls-5" d="M498.43,127.06c4.44,1.63,9.73,2,13.94-.46-4.19,2.65-9.55,2.43-14.12.93l.18-.47Z" transform="translate(29.35)"/><path class="cls-5" d="M500.47,125.07c3.58.19,7.55-.68,10.06-3.42-2.44,2.9-6.4,3.94-10.09,3.92l0-.5Z" transform="translate(29.35)"/><polygon class="cls-5" points="490.22 124.72 492.53 106.22 490.97 124.79 490.22 124.72 490.22 124.72"/><polygon class="cls-5" points="503.46 126.58 504.75 109.28 504.21 126.62 503.46 126.58 503.46 126.58"/><polygon class="cls-5" points="515.72 126.43 522.98 112.94 516.39 126.77 515.72 126.43 515.72 126.43"/><path class="cls-5" d="M463,132.06a15.12,15.12,0,0,1-7.22,13.06,14.87,14.87,0,0,0,6.72-13l.5,0Z" transform="translate(29.35)"/><path class="cls-4" d="M474.12,248.55s-33.24,55-35.68,87.41H393.22L316,510.5,209.92,526l-58-136.86,3.87-71.56s-38.49-5-57.23-35.16l17.32-35.46a69.07,69.07,0,0,1,55.21-38.42l100.58-10,8.31-25.82,54,24.19,3.39,25.46Z" transform="translate(29.35)"/><path class="cls-9" d="M426.82,336h11.62c2.44-32.39,35.68-87.41,35.68-87.41l-11.39-2.19S433.77,286.67,426.82,336Z" transform="translate(29.35)"/><polygon class="cls-10" points="557.12 277.25 366.7 222.31 548.23 257.14 557.12 277.25"/><path class="cls-9" d="M155.75,317.55l.41-7.54c-36-8.2-52.31-38.54-52.31-38.54h0l-5.33,10.92C117.26,312.53,155.75,317.55,155.75,317.55Z" transform="translate(29.35)"/><path class="cls-9" d="M230.33,202.6s14,47.82,48.9,54.36,58.12-34.65,58.12-34.65L334,196.85l-54-24.19-8.31,25.82Z" transform="translate(29.35)"/><path class="cls-5" d="M159.21,253.47c-1.69,43.62-4.33,92.07-7.33,135.64,1.71-43.65,4.31-92.08,7.33-135.64Z" transform="translate(29.35)"/><path class="cls-5" d="M358.1,161.76s9.17-14,5.5-28.36c0,0,.9-25.35-17.42-37.87s-40.94.61-40.94.61S285.41,83,273.8,109.57s-5.16,44.4-5.16,44.4L285.1,174l30.08-26.27,27.35,5.2Z" transform="translate(29.35)"/><path class="cls-8" d="M241.75,201.46s35.11,85.62,88.1,19.63L334,196.85l-54-24.19-8.31,25.82Z" transform="translate(29.35)"/><path class="cls-11" d="M273.82,191.69s16.36,66.2,56,29.4L334,196.85l-54-24.19Z" transform="translate(29.35)"/><path class="cls-8" d="M359.17,146.07a126.64,126.64,0,0,1-13,55.24C341.82,210,336,218.73,327,222.53c-12.44,5.28-27.58-.92-35.86-11.61s-10.88-24.74-11.19-38.26c-5.22.74-11-2.35-14.24-6.54s-3.32-10.66.23-14.55,10.6-4.1,13.92,0c3,3.68,3.15,9.83,4.82,14.26a37.76,37.76,0,0,1,15.71-18.36c-.71-5.2-.43-10.82-1.15-16,3.92-6.19,11.4-5.53,18.29-3S330,136,336.07,140.1,352.15,148.17,359.17,146.07Z" transform="translate(29.35)"/><path class="cls-5" d="M339.55,176.26a19.78,19.78,0,0,0,.86,8.45c.56,1.73,2.24,4.37.22,5.87-2.63,1.37-5.61,1.76-8.46,2.53,2.48-1.24,5.52-2,7.88-3.28,1.42-1.26-.21-3.28-.54-4.84a14.84,14.84,0,0,1,0-8.73Z" transform="translate(29.35)"/><path class="cls-5" d="M315.62,191.69a22.7,22.7,0,0,0,20.13,8.63c-7.5,2.32-16.64-1.6-20.13-8.63Z" transform="translate(29.35)"/><path class="cls-5" d="M317.55,167.85a20.12,20.12,0,0,0,15.57,3.09,13.28,13.28,0,0,1-15.57-3.09Z" transform="translate(29.35)"/><path class="cls-5" d="M343,174.08a9.88,9.88,0,0,0,10.85,5.42c-4.15,2.49-10.34-.61-10.85-5.42Z" transform="translate(29.35)"/><path class="cls-5" d="M314.89,155.68a14.16,14.16,0,0,1,17.66,2,19.56,19.56,0,0,0-17.66-2Z" transform="translate(29.35)"/><path class="cls-5" d="M344.94,162.18c4.83-2,11,2.17,10.9,7.4a10.57,10.57,0,0,0-10.9-7.4Z" transform="translate(29.35)"/><path class="cls-9" d="M4,349.44S-51.34,739.82,248.84,752,551.26,426.92,551.26,426.92l-30.34-17L408.41,389.11l-105-55h-88l-110,7.33L26,334.12Z" transform="translate(29.35)"/><g class="cls-12"><polygon class="cls-13" points="155.34 503.13 138.98 511.21 136.36 529.26 123.62 516.2 105.64 519.28 114.13 503.13 105.64 486.99 123.62 490.07 136.36 477.01 138.98 495.06 155.34 503.13"/><polygon class="cls-13" points="205.03 422.86 189.75 415.93 175.37 424.58 177.24 407.91 164.56 396.91 181 393.54 187.55 378.08 195.84 392.67 212.56 394.12 201.24 406.51 205.03 422.86"/><polygon class="cls-13" points="292.34 458.91 309.44 455.9 316.66 440.1 324.81 455.44 342.06 457.42 330 469.91 333.44 486.93 317.83 479.31 302.71 487.85 305.13 470.65 292.34 458.91"/><polygon class="cls-13" points="263.8 552.02 278.27 559.35 292.52 551.59 290.02 567.62 301.81 578.77 285.79 581.35 278.83 596.01 271.43 581.57 255.33 579.48 266.78 567.97 263.8 552.02"/><polygon class="cls-13" points="172.85 623.59 152.3 632.07 147.63 653.81 133.21 636.88 111.09 639.15 122.74 620.21 113.74 599.88 135.35 605.1 151.91 590.26 153.62 612.43 172.85 623.59"/><polygon class="cls-13" points="315.67 673.72 295.11 682.2 290.44 703.94 276.03 687.01 253.91 689.29 265.56 670.35 256.56 650.01 278.17 655.24 294.73 640.39 296.44 662.56 315.67 673.72"/><polygon class="cls-13" points="54.51 423.71 34.43 417.86 18.23 431.09 17.58 410.19 0 398.87 19.68 391.8 25.01 371.57 37.82 388.11 58.7 386.93 46.93 404.21 54.51 423.71"/><polygon class="cls-13" points="435.9 564.56 421.38 544.3 396.46 544.78 411.24 524.7 403.08 501.15 426.74 509 446.62 493.96 446.46 518.89 466.91 533.15 443.15 540.71 435.9 564.56"/><polygon class="cls-13" points="368.15 598.91 381.16 602.01 391.08 593.05 392.15 606.37 403.74 613.04 391.4 618.18 388.64 631.27 379.94 621.12 366.64 622.53 373.6 611.12 368.15 598.91"/><polygon class="cls-13" points="525.83 643.66 506.9 638.85 492.2 651.72 490.93 632.23 474.15 622.23 492.29 614.99 496.62 595.95 509.11 610.97 528.56 609.19 518.13 625.71 525.83 643.66"/><polygon class="cls-13" points="550.27 525.97 537.37 515.43 521.37 520.08 527.41 504.55 518.05 490.76 534.68 491.71 544.9 478.55 549.14 494.67 564.81 500.31 550.8 509.32 550.27 525.97"/><polygon class="cls-13" points="456.92 437.46 453.84 423.89 440.93 418.75 452.87 411.62 453.78 397.75 464.24 406.91 477.72 403.48 472.24 416.26 479.66 428.02 465.81 426.76 456.92 437.46"/><polygon class="cls-13" points="297.97 378.37 288.19 362.39 269.49 361.39 281.66 347.16 276.84 329.06 294.14 336.24 309.85 326.06 308.37 344.73 322.91 356.53 304.7 360.89 297.97 378.37"/><circle class="cls-4" cx="105.37" cy="420.06" r="2.45"/><circle class="cls-4" cx="158.55" cy="445.66" r="4.47"/><path class="cls-4" d="M31.63,473.54a3.48,3.48,0,1,1-3.47-3.48A3.48,3.48,0,0,1,31.63,473.54Z" transform="translate(29.35)"/><path class="cls-4" d="M70,545.61a2.37,2.37,0,1,1-2.37-2.37A2.37,2.37,0,0,1,70,545.61Z" transform="translate(29.35)"/><path class="cls-4" d="M17.6,537.83a3.16,3.16,0,1,1-3.16-3.15A3.15,3.15,0,0,1,17.6,537.83Z" transform="translate(29.35)"/><path class="cls-4" d="M55.27,615.05a2.9,2.9,0,1,1-2.89-2.89A2.89,2.89,0,0,1,55.27,615.05Z" transform="translate(29.35)"/><path class="cls-4" d="M129.2,565.49a.93.93,0,1,1-.93-.93A.93.93,0,0,1,129.2,565.49Z" transform="translate(29.35)"/><path class="cls-4" d="M287.25,703.94a.93.93,0,1,1-.93-.93A.93.93,0,0,1,287.25,703.94Z" transform="translate(29.35)"/><path class="cls-4" d="M166.44,512.27a2,2,0,1,1-2-2A2,2,0,0,1,166.44,512.27Z" transform="translate(29.35)"/><path class="cls-4" d="M208.55,465.78a4.28,4.28,0,1,1-4.28-4.28A4.28,4.28,0,0,1,208.55,465.78Z" transform="translate(29.35)"/><path class="cls-4" d="M186.1,577.31a3.52,3.52,0,1,1-3.52-3.51A3.52,3.52,0,0,1,186.1,577.31Z" transform="translate(29.35)"/><path class="cls-4" d="M191.68,697.22a3.51,3.51,0,1,1-3.51-3.51A3.51,3.51,0,0,1,191.68,697.22Z" transform="translate(29.35)"/><path class="cls-4" d="M179.07,619.61a1.66,1.66,0,1,1-1.66-1.66A1.66,1.66,0,0,1,179.07,619.61Z" transform="translate(29.35)"/><path class="cls-4" d="M146.83,683.56a1.67,1.67,0,1,1-1.66-1.66A1.66,1.66,0,0,1,146.83,683.56Z" transform="translate(29.35)"/><path class="cls-4" d="M244.63,697.22a1.66,1.66,0,1,1-1.66-1.66A1.66,1.66,0,0,1,244.63,697.22Z" transform="translate(29.35)"/><path class="cls-4" d="M208.26,672.17a1.67,1.67,0,1,1-1.66-1.66A1.66,1.66,0,0,1,208.26,672.17Z" transform="translate(29.35)"/><path class="cls-4" d="M293.47,606.06a4.86,4.86,0,1,1-3.82-3.82A4.86,4.86,0,0,1,293.47,606.06Z" transform="translate(29.35)"/><path class="cls-4" d="M334.32,687.9a4.87,4.87,0,1,1-3.82-3.82A4.87,4.87,0,0,1,334.32,687.9Z" transform="translate(29.35)"/><path class="cls-4" d="M243,525.72a3.54,3.54,0,1,1-3.54-3.53A3.53,3.53,0,0,1,243,525.72Z" transform="translate(29.35)"/><circle class="cls-4" cx="281.83" cy="427.84" r="3.25"/><path class="cls-4" d="M212.14,399.54a1.8,1.8,0,1,1-1.8-1.79A1.8,1.8,0,0,1,212.14,399.54Z" transform="translate(29.35)"/><path class="cls-4" d="M50.92,365.89a3.78,3.78,0,1,1-3.78-3.78A3.78,3.78,0,0,1,50.92,365.89Z" transform="translate(29.35)"/><path class="cls-4" d="M131.23,374.83a3.25,3.25,0,1,1-3.25-3.26A3.26,3.26,0,0,1,131.23,374.83Z" transform="translate(29.35)"/><circle class="cls-4" cx="294.27" cy="381.17" r="1.93"/><path class="cls-4" d="M321.62,404.12a3,3,0,1,1-3-3A3,3,0,0,1,321.62,404.12Z" transform="translate(29.35)"/><path class="cls-4" d="M364.4,378.82a4.28,4.28,0,1,1-4.28-4.27A4.28,4.28,0,0,1,364.4,378.82Z" transform="translate(29.35)"/><path class="cls-4" d="M341.39,462a2,2,0,1,1-2-2A2,2,0,0,1,341.39,462Z" transform="translate(29.35)"/><path class="cls-4" d="M329.55,518.22a4,4,0,1,1-4-4A4,4,0,0,1,329.55,518.22Z" transform="translate(29.35)"/><path class="cls-4" d="M335.75,568.21a1.79,1.79,0,1,1-1.79-1.79A1.79,1.79,0,0,1,335.75,568.21Z" transform="translate(29.35)"/><circle class="cls-4" cx="443.12" cy="599.05" r="3.1"/><path class="cls-4" d="M466.3,562.59a2,2,0,1,1-2-2A2,2,0,0,1,466.3,562.59Z" transform="translate(29.35)"/><path class="cls-4" d="M442.4,644.65a2.42,2.42,0,1,1-2.42-2.42A2.42,2.42,0,0,1,442.4,644.65Z" transform="translate(29.35)"/><path class="cls-4" d="M324,724.92a2.42,2.42,0,1,1-2.42-2.42A2.42,2.42,0,0,1,324,724.92Z" transform="translate(29.35)"/><path class="cls-4" d="M369.53,662.25a2.42,2.42,0,1,1-2.42-2.42A2.42,2.42,0,0,1,369.53,662.25Z" transform="translate(29.35)"/><circle class="cls-4" cx="530.31" cy="579.06" r="1.76"/><path class="cls-4" d="M448,496.77a2.8,2.8,0,1,1-2.8-2.8A2.8,2.8,0,0,1,448,496.77Z" transform="translate(29.35)"/><path class="cls-4" d="M242,623.83a2.8,2.8,0,1,1-2.8-2.8A2.8,2.8,0,0,1,242,623.83Z" transform="translate(29.35)"/><path class="cls-4" d="M474.12,455.82a2.23,2.23,0,1,1-2.23-2.24A2.23,2.23,0,0,1,474.12,455.82Z" transform="translate(29.35)"/><path class="cls-4" d="M399.08,469.66a3.88,3.88,0,1,1-3.88-3.88A3.88,3.88,0,0,1,399.08,469.66Z" transform="translate(29.35)"/><path class="cls-4" d="M534,458a2.17,2.17,0,1,1-2.16-2.16A2.16,2.16,0,0,1,534,458Z" transform="translate(29.35)"/><circle class="cls-4" cx="533.57" cy="427.84" r="3.25"/><path class="cls-4" d="M532.89,544.48A3.5,3.5,0,1,1,529.4,541,3.49,3.49,0,0,1,532.89,544.48Z" transform="translate(29.35)"/><circle class="cls-4" cx="470.53" cy="688.85" r="3.62"/><circle class="cls-4" cx="309.28" cy="752.37" r="3.62"/><path class="cls-4" d="M112.63,675.25a3.11,3.11,0,1,1-3.11-3.11A3.11,3.11,0,0,1,112.63,675.25Z" transform="translate(29.35)"/><path class="cls-4" d="M194.79,740.45a3.11,3.11,0,1,1-3.11-3.11A3.11,3.11,0,0,1,194.79,740.45Z" transform="translate(29.35)"/></g><path class="cls-14" d="M4,349.44c49,23.81,106.86,16.41,160.65,7.57S275.48,338.75,326,359.2c24.61,10,46,26.44,69.24,39.2a253.75,253.75,0,0,0,156,28.52V390a253.75,253.75,0,0,1-156-28.52C372,348.69,350.62,332.21,326,322.25c-50.53-20.45-107.55-11-161.34-2.19s-107,18.78-156.07-5Z" transform="translate(29.35)"/><g class="cls-15"><path class="cls-16" d="M378.37,379.23a510.91,510.91,0,0,0-22.52,123.9,336,336,0,0,1,22.52-123.9Z" transform="translate(29.35)"/></g><g class="cls-15"><path class="cls-16" d="M156.87,328q.56,47.29-3,94.51-.56-47.29,3-94.51Z" transform="translate(29.35)"/></g><text class="cls-17" transform="translate(181.17 145.53) rotate(-10.43)">Z</text><text class="cls-18" transform="translate(217.52 153.97) rotate(-10.43)">Z</text><text class="cls-19" transform="translate(245.02 166.14) rotate(-10.43)">Z</text><text class="cls-20" transform="translate(268.5 186.58) rotate(-10.43)">Z</text><g class="cls-15"><path class="cls-16" d="M384,407.12a135.63,135.63,0,0,0,24.28,51.36l2.36,3-2.56-2.85A106.42,106.42,0,0,1,384,407.12Z" transform="translate(29.35)"/></g><g class="cls-15"><path class="cls-16" d="M143,349.88a138.38,138.38,0,0,1-33.67,48.6l-3,2.64,2.77-2.83A188.21,188.21,0,0,0,143,349.88Z" transform="translate(29.35)"/></g></g></g></g></svg>