<svg xmlns="http://www.w3.org/2000/svg" viewBox="0 0 465.65 733.68"><defs><style>.cls-1,.cls-10{fill:#32324c;}.cls-1{opacity:0.1;}.cls-2{fill:#050705;}.cls-3{fill:#8933a2;}.cls-4{fill:#741789;}.cls-5{fill:#fff;}.cls-6{fill:#2c2c2c;}.cls-7{fill:#ffaf82;}.cls-8{fill:#d31818;}.cls-9{fill:#e42320;}.cls-11{fill:#f88968;}.cls-12{fill:#920e08;}.cls-13{fill:#f85c66;}.cls-14{fill:#ea6b12;}.cls-15{fill:#333;}.cls-16{fill:#33aa59;}</style></defs><g id="Capa_2" data-name="Capa 2"><g id="Información"><ellipse class="cls-1" cx="180.57" cy="714.65" rx="125.47" ry="19.04"/><path class="cls-2" d="M286.54,503.26,229.77,660.94l-31.43,3.15c14.53-70.19,29.78-132.51,41.6-160.87-41.48-37.24-95.4-122-95.4-122C163.24,372.51,195,360,195,360,241.34,408,286.54,503.26,286.54,503.26Z"/><path class="cls-3" d="M282.61,715.24H202.48a7.48,7.48,0,0,1-7.36-6.57,8.41,8.41,0,0,1,0-1.59l3.26-43a46.17,46.17,0,0,1,8-2.7c2.77-.67,6.48-2.4,7.32-5.19.06-.2.31-.48.4-.68,4.11-8.94,16.51-11.39,18.66-3.3.28,1-1.47,5.17-1.58,5.38-1.62,3.12-1,9.27-1,9.27,1.06,1.38,2.08,2.73,3.08,4.07l1.48,2c1,1.39,2.07,2.76,3.08,4.06.47.62.93,1.21,1.39,1.8,1.12,1.42,2.21,2.77,3.31,4,.49.58,1,1.13,1.49,1.67,4.13,4.43,8.3,7.46,13.23,8.16,8.69,1.22,22.88,2.2,29.73,15.22a4.58,4.58,0,0,1,.35.83A5,5,0,0,1,282.61,715.24Z"/><path class="cls-4" d="M282.61,715.23H202.48a7.47,7.47,0,0,1-7.36-6.56h92.2A5,5,0,0,1,282.61,715.23Z"/><path class="cls-5" d="M234.74,672.91c-.93,1.39-2.82,3.07-6.64,4.63-.65.27-1.35.53-2.12.79l-.69-2.14c.76-.25,1.44-.51,2.06-.77,4.38-1.8,5.58-3.57,5.91-4.48Z"/><ellipse class="cls-5" cx="225.63" cy="677.26" rx="2.49" ry="2.54"/><path class="cls-5" d="M239.21,678.77a15.74,15.74,0,0,1-5.48,3.53c-.77.34-1.61.65-2.54,1l-.69-2.15q1.29-.43,2.34-.87a12.56,12.56,0,0,0,5-3.28C238.29,677.59,238.75,678.18,239.21,678.77Z"/><path class="cls-5" d="M233.73,682.2a2.49,2.49,0,1,1-2.48-2.54A2.51,2.51,0,0,1,233.73,682.2Z"/><path class="cls-5" d="M244,684.46a15.85,15.85,0,0,1-5.31,3.37c-.78.34-1.63.67-2.58,1l-.68-2.15c.87-.29,1.65-.59,2.35-.89a13.71,13.71,0,0,0,4.73-3C243,683.37,243.51,683.92,244,684.46Z"/><path class="cls-5" d="M238.7,687.74a2.49,2.49,0,1,1-2.48-2.53A2.51,2.51,0,0,1,238.7,687.74Z"/><path class="cls-5" d="M229.77,660.94a56.15,56.15,0,0,0-7.15.41l0-4.09A17.87,17.87,0,0,1,229,656.2C229.34,657.94,229.59,659.54,229.77,660.94Z"/><path class="cls-6" d="M89.54,344.05s-24.9,37.14-17.7,70.52c0,0,44.08,24.08,95.82,4,21.16-8.21,34.9-36.83,27.32-58.61-.09-.26-.18-.51-.28-.77C194.7,359.19,131.61,341.28,89.54,344.05Z"/><path class="cls-6" d="M71.84,414.57c7.08,30.12,34.7,51.41,78.5,95-17.31,26.35-39.17,95.69-48.11,154.5l31.43-3.15,64.8-159.6s-20.46-65-59-97.56Z"/><path class="cls-3" d="M186.5,715.24H106.37A7.47,7.47,0,0,1,99,708.67a7.65,7.65,0,0,1,0-1.59l3.26-43a46.17,46.17,0,0,1,8-2.7,8.18,8.18,0,0,0,5.94-5.5c.06-.21.11-.42.16-.63,1.84-8.27,23-8.19,19.82-.45a22.07,22.07,0,0,0-1,3.24c-1.24,2.28-1.17,2.22-1.24,3.92s.16,4.9.16,4.9c1.06,1.38,2.09,2.73,3.08,4.07.51.66,1,1.32,1.48,2,1.05,1.39,2.08,2.76,3.08,4.06.47.62.93,1.21,1.4,1.8,1.11,1.42,2.2,2.77,3.3,4,.49.58,1,1.13,1.5,1.67,4.13,4.43,8.29,7.46,13.22,8.16,8.69,1.22,22.88,2.2,29.74,15.22a3.92,3.92,0,0,1,.34.83A5,5,0,0,1,186.5,715.24Z"/><path class="cls-4" d="M186.5,715.23H106.37A7.46,7.46,0,0,1,99,708.67h92.19A5,5,0,0,1,186.5,715.23Z"/><path class="cls-5" d="M138.63,672.91c-.93,1.39-2.82,3.07-6.63,4.63-.65.27-1.36.53-2.13.79l-.69-2.14c.76-.25,1.45-.51,2.06-.77,4.38-1.8,5.59-3.57,5.91-4.48C137.66,671.6,138.14,672.26,138.63,672.91Z"/><ellipse class="cls-5" cx="129.53" cy="677.26" rx="2.49" ry="2.54"/><path class="cls-5" d="M143.11,678.77a15.81,15.81,0,0,1-5.49,3.53c-.77.34-1.6.65-2.54,1l-.69-2.15q1.31-.43,2.34-.87a12.56,12.56,0,0,0,5-3.28C142.18,677.59,142.64,678.18,143.11,678.77Z"/><path class="cls-5" d="M137.63,682.2a2.49,2.49,0,1,1-2.49-2.54A2.52,2.52,0,0,1,137.63,682.2Z"/><path class="cls-5" d="M147.91,684.46a16,16,0,0,1-5.32,3.37q-1.16.51-2.58,1l-.68-2.15c.87-.29,1.65-.59,2.35-.89a13.51,13.51,0,0,0,4.73-3C146.9,683.37,147.4,683.92,147.91,684.46Z"/><path class="cls-5" d="M142.59,687.74a2.48,2.48,0,1,1-2.48-2.53A2.51,2.51,0,0,1,142.59,687.74Z"/><path class="cls-5" d="M133.66,660.94a55.91,55.91,0,0,0-7.14.41l0-4.09a17.92,17.92,0,0,1,6.33-1.06C133.23,657.94,133.48,659.54,133.66,660.94Z"/><path class="cls-7" d="M380.1,312.68S392.12,315,398,322c1.53,1.81-2.74,6-6.48,4.75,0,0,3.92,2.45,3.28,4.82-1.4,5.21-5.57,3.58-5.57,3.58s2.49,4.76.23,7.55c-2.52,3.1-7.53,1.15-7.53,1.15s6,2.58,1.78,7.57c-3.21,3.81-31.35-9.64-40.39-27.41,0,0,6.12-15.11,10.56-17.09,0,0,9.63-3.43,18.06-3.38C371.92,303.49,383.64,301,380.1,312.68Z"/><path class="cls-8" d="M187.73,141.09c-18.74-1.24-29,14.07-21.92,31,7.41,17.6,40.53,43,60.93,70.62,0,0,29.51,44.3,118.46,84.29l8.89-20.83s-18.58-11.73-33.78-26.55-54.25-40-54.25-40S203.28,142.11,187.73,141.09Z"/><path class="cls-9" d="M181.45,139.78a7.74,7.74,0,0,0-10.21-.11c-7.91,6.78-22.62,19.9-28.09,28.17-7.65,11.55-17.88,36.15-23.13,78-3.33,26.48-31.83,101.85-31.83,101.85s25,15.2,45.17,21.52c26.61,8.35,61-3.4,61-3.4s27.57-71.6,29.18-112c1.78-44.6-16.34-91-16.34-91Z"/><path class="cls-8" d="M91.62,338.49c-1.15,3.31-3.43,9.22-3.43,9.22s21.54,16.31,47.35,22.85,58.35-3.05,58.35-3.05l3.49-10.26s-37,8.1-58.72,2.76S91.62,338.49,91.62,338.49Z"/><path class="cls-10" d="M282.74,57.85s8.62,9.45.22,27-16.07,17.76-16.07,17.76S266.43,58.86,282.74,57.85Z"/><path class="cls-7" d="M213.21,132.41,206,155.51l-3.32,10.59c-16,6.57-34.5-12.74-34.5-12.74L174.6,118c7.31-2.63,22.52,5,31.52,10.09C210.35,130.54,213.21,132.41,213.21,132.41Z"/><path class="cls-11" d="M213.21,132.41,206,155.51c-14.93-7.68-22.64-33-22.64-33l22.79,5.62C210.35,130.54,213.21,132.41,213.21,132.41Z"/><path class="cls-10" d="M278.26,66.77s28.27-5.36,26.11-28S269.55,18,242.09,12.16C197.86,2.73,178.37,22,173.48,46.05S160.27,101.8,168,116.38s19.34-.32,28.65-13.75S251.82,52.47,278.26,66.77Z"/><path class="cls-7" d="M275.44,87.53c-.13.48-.26,1-.4,1.45l-.27,1q-.43,1.55-.93,3.12c-4.24,13.91-10.76,29.74-16.51,42.69A28.72,28.72,0,0,1,218.69,150c-17.56-8.42-38.94-19.88-47.62-29.36-2.64-2.88-4.09-5.57-3.91-7.95a156.58,156.58,0,0,1,3.49-20.86c5.31-24.07,14.61-53.43,14.61-53.43,29.23-22,88.49,4.48,92.81,27.08C279.06,70.65,277.87,78.51,275.44,87.53Z"/><path class="cls-12" d="M241.49,124.88a7.09,7.09,0,0,1-8.61,5.13,7.11,7.11,0,0,1-5.32-6.38,7.41,7.41,0,0,1,.19-2.23,7.09,7.09,0,1,1,13.74,3.48Z"/><path class="cls-13" d="M239.62,128.16a7.08,7.08,0,0,1-12.06-4.53,12.91,12.91,0,0,1,7.31,1.25A13.76,13.76,0,0,1,239.62,128.16Z"/><path class="cls-10" d="M235.31,91.56c-.79,3.11-2.81,5.27-4.51,4.84s-2.45-3.3-1.67-6.4,2.81-5.28,4.52-4.84S236.1,88.46,235.31,91.56Z"/><path class="cls-10" d="M266.94,99.57c-.79,3.11-2.81,5.27-4.52,4.84s-2.45-3.3-1.66-6.4,2.8-5.28,4.51-4.84S267.72,96.47,266.94,99.57Z"/><path class="cls-10" d="M176.08,69.9s11.54-3.94,17,9.69l6.49,1.64s3-13.42,8-19.85,17.35-3.1,21.36-11.16c0,0,26.37,19.09,49.38,16.55s-31.13-53.54-65.85-44.19S177.12,46,176.08,69.9Z"/><path class="cls-10" d="M221.59,82.35s2.45-6.57,8.16-8.7a15,15,0,0,1,11.34-.08,2,2,0,0,1,1.1,2.31h0a2,2,0,0,1-2.55,1.34C236.21,76,228.79,74.74,221.59,82.35Z"/><path class="cls-10" d="M275,89l-.27,1q-.43,1.55-.93,3.12a15.63,15.63,0,0,0-9.66-9,2.16,2.16,0,0,1-.73-.44,2,2,0,0,1-.46-2.19,2,2,0,0,1,2.29-1.14,15,15,0,0,1,8.91,7A11.14,11.14,0,0,1,275,89Z"/><path class="cls-10" d="M171.07,120.63c-2.64-2.88-4.09-5.57-3.92-7.95a158.46,158.46,0,0,1,3.5-20.86l13.51,15.39S181.43,118.92,171.07,120.63Z"/><path class="cls-7" d="M193,79.59s-6.88-14.55-17-9.69c-11.1,5.37-10.68,33.19,8.08,37.32Z"/><path class="cls-11" d="M186.05,101.68a1.69,1.69,0,0,1-1.26-1.86c1.82-13.56-5.48-17.57-5.79-17.73a1.7,1.7,0,0,1-.72-2.28,1.67,1.67,0,0,1,2.25-.73c.4.2,9.77,5.12,7.61,21.19a1.7,1.7,0,0,1-1.9,1.45Z"/><path class="cls-11" d="M177.71,90.68a1.69,1.69,0,0,1-.54-3,9.57,9.57,0,0,1,9.39-.31,1.69,1.69,0,1,1-1.51,3,6.16,6.16,0,0,0-6,.1A1.71,1.71,0,0,1,177.71,90.68Z"/><path class="cls-11" d="M231.13,136.86a16.69,16.69,0,0,1-11.31-9,1.69,1.69,0,0,1,3.13-1.29c.12.3,3,6.7,12,7.46a1.69,1.69,0,0,1-.28,3.36A21.75,21.75,0,0,1,231.13,136.86Z"/><path class="cls-11" d="M245.63,113.41a1.67,1.67,0,0,1-1.14-1,1.69,1.69,0,0,1,.89-2.22l5.21-2.22-3.54-1.94a1.69,1.69,0,0,1-.87-1.63l1-10.85a1.69,1.69,0,0,1,3.37.3l-.87,9.75,5.61,3.08a1.69,1.69,0,0,1-.15,3l-8.41,3.59A1.73,1.73,0,0,1,245.63,113.41Z"/><path class="cls-14" d="M296.07,321V477H465.65V321Zm111.24,25.55h-52.9a6.56,6.56,0,0,1,0-13.11h52.9a6.56,6.56,0,1,1,0,13.11Z"/><rect class="cls-15" x="306.75" y="457.55" width="59.68" height="5.43"/><rect class="cls-15" x="306.75" y="443.54" width="59.68" height="5.43"/><rect class="cls-15" x="389.49" y="356.73" width="64.55" height="42.27"/><rect class="cls-15" x="389.49" y="406.69" width="64.55" height="6.33"/><rect class="cls-15" x="389.49" y="457.1" width="64.55" height="6.33"/><path class="cls-7" d="M374.56,323s12.14,1.52,18.45,8.07c1.64,1.71-2.35,6.22-6.16,5.17,0,0,4.07,2.19,3.59,4.59-1.05,5.29-5.32,3.94-5.32,3.94s2.79,4.59.72,7.52c-2.31,3.26-7.44,1.65-7.44,1.65s6.14,2.17,2.28,7.43c-3,4-31.91-7.56-42.1-24.69,0,0,5.11-15.48,9.41-17.75,0,0,9.38-4.06,17.8-4.57C365.79,314.38,377.32,311.16,374.56,323Z"/><path class="cls-8" d="M171.33,164.43c-18.78,0-28,15.95-19.83,32.37,8.54,17.07,43.26,40.27,65.43,66.46,0,0,32.35,42.27,123.74,76.33l7.51-21.36S328.86,307.74,312.72,294,256,257.59,256,257.59,186.92,164.43,171.33,164.43Z"/><rect class="cls-16" x="-146.92" y="205.55" width="437.52" height="5.95" transform="translate(-148.7 210.91) rotate(-71.61)"/></g></g></svg>