<svg xmlns="http://www.w3.org/2000/svg" viewBox="0 0 502.52 596.97"><defs><style>.cls-1{fill:#175275;}.cls-2{fill:#fefefe;}.cls-3{fill:#664008;}.cls-4{fill:#fcfcfd;}.cls-5{fill:#e84360;}.cls-6{fill:#125073;}.cls-7{fill:#00000c;}</style></defs><g id="Capa_2" data-name="Capa 2"><g id="Información"><path d="M217.44.12c53,0,106,.07,158.92-.12C381,0,382,1.31,381.85,5.66c-.33,9.29-.18,18.61-.05,27.92A11.13,11.13,0,0,1,379.31,41c-9.13,11.76-18.21,23.56-27.1,35.5a8.77,8.77,0,0,1-8,4c-25.89-.15-51.79-.06-77.68-.11-2.93,0-5.23-.19-6,3.84-.74,3.69-4.48,5.5-7.8,6.7a98.48,98.48,0,0,1-68.47.17c-4.17-1.49-8-3.72-8.84-8.85-.47-2.86-2.91-1.78-4.53-1.78-19.12-.08-38.25,0-57.37,0-7.62,0-15.24-.2-22.85.09a8.15,8.15,0,0,1-7.93-4c-8.17-11.82-16.19-23.79-25.17-35-3.44-4.3-4-8.32-4-13.15.09-7.79.25-15.58-.07-23.36-.17-4,1-5,5-5,35.71.17,71.42.1,107.13.1ZM62.28,38.23c8.13,11.44,15.77,22,23.13,32.7,2.14,3.12,4.43,4.28,8.28,4.27q123.87-.2,247.74,0a8.85,8.85,0,0,0,8-4c6.65-9,13.5-17.78,20.26-26.66,1.48-2,2.9-3.93,4.64-6.3Z"/><path class="cls-1" d="M122.34,213.13c0-7.62-.07-15.67,0-23.72.05-3.41-2.32-2.93-4.15-2.65-5.15.81-6.39-1.11-6.33-6.24.31-24,.23-48.09,0-72.13,0-3.8.93-4.82,4.76-4.81q97.53.17,195.06,0c3.93,0,4.68,1.11,4.65,4.8-.17,24.55-.22,49.1,0,73.65.05,4.3-1.47,4.77-5.11,4.76-37.76-.12-75.52,0-113.28-.18a12.87,12.87,0,0,0-10.82,4.75c-8.35,9.33-17.23,18.17-25.88,27.23-1.63,1.7-3.15,3.48-5.31,5.88,8.1-.06,5,4.06,3.75,7.62a171.87,171.87,0,0,0-8.9,62.44c.12,3.5,1,4.89,5,4.66,9.74-.58,9.83-.29,12.59-9.46,3.74-12.46,8.94-24.16,18.12-33.61,25.05-25.79,65.37-25.68,91.45.12,11.06,10.94,17.62,24.31,20.83,39.34.86,4,2.21,5.27,6.57,6.1,20.7,3.94,37.08-6.93,53.84-15.42,20.52-10.4,35.11-27.83,49-45.66,7.4-9.48,13.41-20,20.55-29.56,4.95-6.64,4.71-13.22,4.73-20.5a55.94,55.94,0,0,0-4.89-23.65c-5.29-12-4-24.58,2.42-36.19,9.18-16.53,27.91-17,37.86-1,1.56,2.52,2.86,4.31,6.16,3.81a6.56,6.56,0,0,1,3.87.92c18.66,10.52,30.83,30.32,18.68,53.86-5,9.76-12.59,17.1-21.39,23.34a43.06,43.06,0,0,0-16.78,23.94c-10.13,34.5-22.84,67.94-42.31,98.44-6.57,10.3-13.94,20-23.4,27.87a6,6,0,0,0-1.91,2.83c-4.17,12.1-13.08,19.92-23.72,26.06-18.43,10.65-38.71,15.82-59.38,19.73C249.4,421.75,190.27,420.2,131.44,407c-14.39-3.24-28.22-8.31-40.74-16.38a53.89,53.89,0,0,1-16.65-16.11c-6.8-10.6-6.18-21.52-1.09-32.4a46.64,46.64,0,0,0,4-15.46c2.71-26.07,12.4-50.08,22.29-74,5-12.19,10.74-24.09,16.59-35.91C117.45,213.43,118.59,209.23,122.34,213.13ZM311,181.22c0-22.68,0-45.36.11-68,0-3.34-1-4.26-4.3-4.26q-92.66.14-185.32,0c-3.09,0-4,.9-4,4,.12,21.66.06,43.33.07,65,0,1.63-.43,3.39,2.32,3.46,2.39.06,3.14-.7,3.35-3.08,1.07-12.57,8.13-22,16.71-30.44,4.35-4.27,9.36-8,15.54-9.17a75.77,75.77,0,0,1,31.73.82c7.86,1.87,8.77,5.76,3.21,11.68-6.84,7.28-13.39,14.81-18.47,23.47-.74,1.25-2.26,2.83-1.07,4.05,1.44,1.49,3.2-.09,4.54-.91,3.64-2.25,6.34-5.58,9.33-8.56,2.57-2.55,5.56-3.4,8.75-1.69s3.72,4.67,3.19,7.9c-.33,2-.92,3.91-1.4,5.86,1.44,1.77,3.45,1.05,5.21,1.05q52.69.06,105.4,0C307.6,182.37,309.64,183.15,311,181.22ZM296.68,328c0-2.37.09-4.75,0-7.11-.8-17.79-3.78-35-13.87-50.22C265,243.93,229.47,232.35,199.69,252c-14.27,9.42-21.82,23.8-26.1,39.9-8.75,32.85-6.68,64.66,12.55,93.49,12.21,18.31,30,28.26,52.71,26.38,23.39-1.94,39.5-14.54,49-35.76C294.69,360.75,296.84,344.58,296.68,328ZM205.23,411.8c.27-1.9-.54-2.07-1.06-2.36-16.93-9.81-27.56-24.58-33.78-42.84a124.23,124.23,0,0,1-5.93-56.48c.76-5.94.71-6-5.48-5.85a140.46,140.46,0,0,0-40.88,6.81c-12.7,4.21-24.51,10.2-32.88,21-7.49,9.66-13.42,20.34-9.42,33.19,3.36,10.83,11.86,17.6,21.39,22.75C130.91,406.24,168.09,408.76,205.23,411.8Zm57.81-.93c2.6,0,3.92.12,5.22,0,23.75-2.46,47.32-5.88,70.15-13.13,13.78-4.37,27-9.87,38.07-19.6,15.29-13.44,15.66-32.66.9-46.54A67,67,0,0,0,362,320.94c-18.12-9.29-37.89-11.88-57.71-14.33-2.95-.37-3.38.85-3.12,3.42,1.27,12.83,1.54,25.71-.28,38.47C297.21,374.05,288.23,396.61,263,410.87ZM393.84,355c3.24-3.64,6.19-6.59,8.71-9.87,25.71-33.45,39.91-72.28,52.22-112,.64-2.07-.15-3.08-1.7-4.18-5.65-4-11.31-8-16.79-12.27-2.65-2.05-4-1.84-5.77,1.13a255.19,255.19,0,0,1-20,28.72c-15.91,20-33.33,38.32-57.24,49-7,3.14-14.12,6.12-21.32,9.24,1.45,1.34,3,1.27,4.51,1.61,11.09,2.54,21.86,6.05,31.7,11.86C381.91,326.37,392.78,336.7,393.84,355ZM82.33,326.3c3-2.65,5.33-4.83,7.81-6.75,15.06-11.66,32.65-16.7,51.15-19.14,3.35-.44,4.44-1.35,4.29-4.93-.87-20.78,1.31-41.23,7.81-61.07,1.22-3.72.09-4.57-3.36-5a71.14,71.14,0,0,1-25.92-8.31c-3.14-1.76-4.14-.82-5.46,2-10.15,21.39-19.85,43-27.29,65.48C87.39,300.56,83.79,312.67,82.33,326.3ZM190.78,172.05c-3,1.29-4.38,3.54-6.2,5.23-2.61,2.42-5.06,5.05-8.49,6.31s-7.1,2.26-10-.64-1.26-6.36.27-9.41c4.14-8.24,10.21-15.08,16.2-22,1.7-1.95,3.83-3.61,4.83-6.24-28-5.9-39.26-2.29-53.12,17.94-4.21,6.14-5.78,12.93-6.08,20.09-.26,6.25-.21,12.52,0,18.77.6,16.84,1.82,18.06,18.49,21.3,2.27.44,3.29-.21,4.65-1.73,4.95-5.56,10-11,15.11-16.41,6.7-7.17,13.59-14.17,20.1-21.5C189.26,180.71,192,177.24,190.78,172.05Zm306.34-1.74c-.12-13-7.13-21.48-16.64-28.43-2.23-1.63-4.54-4.23-7.68-2.68s-3.11,4.83-3.24,8c-.37,8.62-4.35,15.48-10.92,20.85-2.28,1.87-4.94,3.15-7.94,1.53s-2.82-4.43-2.61-7.14c.33-4,.92-8.05,1.32-12.09.1-.93.3-2.27-1.1-2.35a2.63,2.63,0,0,0-1.87,1.38,54.66,54.66,0,0,0-3.53,7.81c-2.16,6.62-3.06,13.5-3.76,20.39-1.08,10.58,1.2,21.31-1.28,31.83-.42,1.77.81,2.45,1.85,3.22,5,3.7,10.11,7.34,15.17,11,1.09.79,2.31,1.88,3.26,0,5.76-11.32,17.14-17,25.62-25.49C491.47,190.37,496.55,181.16,497.12,170.31Zm-64-30.58c18.31.19,13.78,2.87,14.45-12.3,0-.16,0-.33,0-.5.18-2.9-1.2-3.13-3.37-2C438.39,128.1,435.2,133.21,433.16,139.73ZM453,131.24c0,2.46,0,4.47,0,6.48,0,1.37.44,2.44,2,2.2,3.64-.58,8.54,2.13,10.7-1.61s-2.05-6.57-4.21-9.36c-1.86-2.39-4.65-5.3-7.35-4.45S453.63,129.22,453,131.24Zm.55,33.53c6.71-4.46,9.3-10.24,10.65-16.8.47-2.3-1.14-2.7-2.69-2.32-2.32.56-6.54-2-6.68,1.67C454.64,152.81,453.32,158.22,453.57,164.77Zm-18.82,2.79c1.78-8,3.3-15,7.09-22a43.06,43.06,0,0,1-5.66,0c-4.11-.6-5.23,1.23-5.13,5.1C431.2,156.24,431.85,161.66,434.75,167.56ZM206.89,411.69l.33-.22c-.1-.09-.19-.25-.29-.26s-.23.13-.34.21Z"/><path class="cls-2" d="M62.28,38.23h312c-1.74,2.37-3.16,4.35-4.64,6.3-6.76,8.88-13.61,17.69-20.26,26.66a8.85,8.85,0,0,1-8,4Q217.56,75,93.69,75.2c-3.85,0-6.14-1.15-8.28-4.27C78.05,60.2,70.41,49.67,62.28,38.23Z"/><path class="cls-3" d="M296.68,328c.16,16.57-2,32.74-8.83,48-9.5,21.22-25.61,33.82-49,35.76-22.7,1.88-40.5-8.07-52.71-26.38-19.23-28.83-21.3-60.64-12.55-93.49,4.28-16.1,11.83-30.48,26.1-39.9,29.78-19.66,65.35-8.08,83.1,18.67,10.09,15.2,13.07,32.43,13.87,50.22C296.77,323.26,296.68,325.64,296.68,328Z"/><path class="cls-4" d="M195.25,181.32c.48-1.95,1.07-3.88,1.4-5.86.53-3.23-.12-6.26-3.19-7.9s-6.18-.86-8.75,1.69c-3,3-5.69,6.31-9.33,8.56-1.34.82-3.1,2.4-4.54.91-1.19-1.22.33-2.8,1.07-4.05,5.08-8.66,11.63-16.19,18.47-23.47,5.56-5.92,4.65-9.81-3.21-11.68a75.77,75.77,0,0,0-31.73-.82c-6.18,1.15-11.19,4.9-15.54,9.17-8.58,8.43-15.64,17.87-16.71,30.44-.21,2.38-1,3.14-3.35,3.08-2.75-.07-2.32-1.83-2.32-3.46,0-21.66,0-43.33-.07-65,0-3.11,1-4,4-4q92.67.12,185.32,0c3.33,0,4.32.92,4.3,4.26-.15,22.68-.1,45.36-.11,68Z"/><path class="cls-4" d="M205.23,411.8c-37.14-3-74.32-5.56-108-23.77-9.53-5.15-18-11.92-21.39-22.75-4-12.85,1.93-23.53,9.42-33.19,8.37-10.81,20.18-16.8,32.88-21A140.46,140.46,0,0,1,159,304.27c6.19-.16,6.24-.09,5.48,5.85a124.23,124.23,0,0,0,5.93,56.48c6.22,18.26,16.85,33,33.78,42.84C204.69,409.73,205.5,409.9,205.23,411.8Z"/><path class="cls-5" d="M263,410.87c25.19-14.26,34.17-36.82,37.83-62.37,1.82-12.76,1.55-25.64.28-38.47-.26-2.57.17-3.79,3.12-3.42,19.82,2.45,39.59,5,57.71,14.33a67,67,0,0,1,15.4,10.64c14.76,13.88,14.39,33.1-.9,46.54-11.05,9.73-24.29,15.23-38.07,19.6-22.83,7.25-46.4,10.67-70.15,13.13C267,411,265.64,410.87,263,410.87Z"/><path class="cls-5" d="M393.84,355c-1.06-18.29-11.93-28.62-25.66-36.74-9.84-5.81-20.61-9.32-31.7-11.86-1.46-.34-3.06-.27-4.51-1.61,7.2-3.12,14.3-6.1,21.32-9.24,23.91-10.68,41.33-29,57.24-49a255.19,255.19,0,0,0,20-28.72c1.75-3,3.12-3.18,5.77-1.13,5.48,4.24,11.14,8.25,16.79,12.27,1.55,1.1,2.34,2.11,1.7,4.18-12.31,39.7-26.51,78.53-52.22,112C400,348.4,397.08,351.35,393.84,355Z"/><path class="cls-4" d="M82.33,326.3c1.46-13.63,5.06-25.74,9-37.76,7.44-22.51,17.14-44.09,27.29-65.48,1.32-2.78,2.32-3.72,5.46-2A71.14,71.14,0,0,0,150,229.41c3.45.43,4.58,1.28,3.36,5-6.5,19.84-8.68,40.29-7.81,61.07.15,3.58-.94,4.49-4.29,4.93-18.5,2.44-36.09,7.48-51.15,19.14C87.66,321.47,85.38,323.65,82.33,326.3Z"/><path class="cls-4" d="M190.78,172.05c1.19,5.19-1.52,8.66-4.24,11.73-6.51,7.33-13.4,14.33-20.1,21.5-5.08,5.43-10.16,10.85-15.11,16.41-1.36,1.52-2.38,2.17-4.65,1.73-16.67-3.24-17.89-4.46-18.49-21.3-.22-6.25-.27-12.52,0-18.77.3-7.16,1.87-13.95,6.08-20.09,13.86-20.23,25.08-23.84,53.12-17.94-1,2.63-3.13,4.29-4.83,6.24-6,6.9-12.06,13.74-16.2,22-1.53,3.05-3.21,6.47-.27,9.41s6.6,1.89,10,.64,5.88-3.89,8.49-6.31C186.4,175.59,187.75,173.34,190.78,172.05Z"/><path class="cls-4" d="M497.12,170.31c-.57,10.85-5.65,20.06-13.35,27.81-8.48,8.54-19.86,14.17-25.62,25.49-.95,1.87-2.17.78-3.26,0-5.06-3.67-10.14-7.31-15.17-11-1-.77-2.27-1.45-1.85-3.22,2.48-10.52.2-21.25,1.28-31.83.7-6.89,1.6-13.77,3.76-20.39a54.66,54.66,0,0,1,3.53-7.81,2.63,2.63,0,0,1,1.87-1.38c1.4.08,1.2,1.42,1.1,2.35-.4,4-1,8.05-1.32,12.09-.21,2.71-.29,5.57,2.61,7.14s5.66.34,7.94-1.53c6.57-5.37,10.55-12.23,10.92-20.85.13-3.13.08-6.39,3.24-8s5.45,1.05,7.68,2.68C490,148.83,497,157.34,497.12,170.31Z"/><path class="cls-4" d="M433.16,139.73c2-6.52,5.23-11.63,11.08-14.76,2.17-1.17,3.55-.94,3.37,2,0,.17,0,.34,0,.5C446.94,142.6,451.47,139.92,433.16,139.73Z"/><path class="cls-4" d="M453,131.24c.61-2-1.46-6,1.09-6.74s5.49,2.06,7.35,4.45c2.16,2.79,6.32,5.73,4.21,9.36s-7.06,1-10.7,1.61c-1.52.24-2-.83-2-2.2C453,135.71,453,133.7,453,131.24Z"/><path class="cls-4" d="M453.57,164.77c-.25-6.55,1.07-12,1.28-17.45.14-3.65,4.36-1.11,6.68-1.67,1.55-.38,3.16,0,2.69,2.32C462.87,154.53,460.28,160.31,453.57,164.77Z"/><path class="cls-4" d="M434.75,167.56c-2.9-5.9-3.55-11.32-3.7-16.92-.1-3.87,1-5.7,5.13-5.1a43.06,43.06,0,0,0,5.66,0C438.05,152.57,436.53,159.6,434.75,167.56Z"/><path class="cls-6" d="M195.25,181.32l115.75-.1c-1.36,1.93-3.4,1.15-5.14,1.15q-52.69.06-105.4,0C198.7,182.37,196.69,183.09,195.25,181.32Z"/><path class="cls-4" d="M206.89,411.69l-.3-.27c.11-.08.23-.21.34-.21s.19.17.29.26Z"/><path class="cls-5" d="M247.06,597H18c-13.07,0-18-5-18-18.11Q0,540,0,501.16c0-10.47,5.47-16,15.86-16H477c10.91,0,16.44,5.62,16.46,16.71q0,38.85,0,77.71c0,11.84-5.57,17.42-17.38,17.42Zm-131-43.06c-.44-1.46-1.6-1.93-2.55-2.59-7.37-5.11-14.64-10.36-22.15-15.24-3.09-2-4-3.44-1.62-6.86,5.07-7.38,9.53-15.17,14.44-22.66,1.61-2.44,1.47-3.67-1.28-4.87A115,115,0,0,1,92,496.27c-3-1.72-5-1.58-7.07,1.55-4.34,6.45-9.23,12.52-13.6,19C69.4,519.64,68,520.11,65,518c-8.07-5.86-16.42-11.33-24.56-17.1-2.27-1.61-3.61-1.9-5,1a110.43,110.43,0,0,1-6.37,11.52c-1.63,2.56-1.24,4,1.15,5.79,7.54,5.74,14.81,11.81,22.32,17.59,2.09,1.61,2.25,2.71.65,4.83-5.42,7.14-10.52,14.51-16,21.64-1.89,2.47-2.13,4.11.42,6.3,4.87,4.19,9.55,8.6,14.15,13.08,2.12,2.06,3.28,2,4.9-.61,5-8.25,10.3-16.29,15.3-24.53,1.62-2.67,2.88-3.1,5.4-1,5.69,4.79,11.62,9.28,17.42,14,1.52,1.22,2.66,2.37,4.61.33,4.92-5.12,10.07-10,15.11-15A18,18,0,0,0,116.06,553.91ZM176,542.58l-1.25.34c-1.14-1.65-2.23-3.34-3.44-4.94-4-5.26-8-10.44-12-15.74a5.51,5.51,0,0,0-6.24-2.21c-2.65.69-1.44,3.11-1.46,4.73-.11,10.15,0,20.31-.1,30.46,0,2.64,1.19,3.07,3.4,3,2-.05,3.74,0,3.56-2.85-.15-2.35,0-4.73,0-7.1v-15.2a110,110,0,0,1,16.76,22.38,5.12,5.12,0,0,0,5.91,2.68c2.94-.5,1.73-2.92,1.75-4.5.11-9.81,0-19.63.09-29.44,0-2.67-.12-4.46-3.68-4.4-3.36.06-3.36,1.83-3.33,4.22C176,530.21,176,536.4,176,542.58ZM467.49,539c0-11.88-7.47-20-18.3-19.91s-18.25,8.14-18.26,20c0,12.17,7.47,20.27,18.57,20.11C460.41,559,467.53,551,467.49,539Zm-243.93-.13c0,12.31,7.24,20.37,18.35,20.29,11-.07,18.2-8,18.21-20s-7.34-20-18.14-20.1S223.61,527.05,223.56,538.82Zm107.58,18.89a48.51,48.51,0,0,0-6.86-11.28c-1.6-2-2.22-3.4.53-5.13,4-2.55,4.88-6.68,4.23-11.16-.68-4.72-3.62-7.54-8-8.89a35,35,0,0,0-15.52-.9c-2.76.39-3.7,1.29-3.66,4.08q.21,15,0,29.94c0,2.68.49,3.91,3.57,3.93s3.63-1.48,3.46-4a41.13,41.13,0,0,1,0-6.08c.1-1.35-.88-3.36,1.28-3.83,2-.42,4.06-.56,5.48,1.53,1.61,2.37,3.64,4.53,4.87,7.09C322.68,557.37,325.63,559.46,331.14,557.71Zm-34.58,0a48.73,48.73,0,0,0-6.9-11.34c-1.57-2-2.42-3.26.48-5,4.09-2.45,5-6.58,4.36-11.07-.65-4.68-3.46-7.57-7.86-9a35.57,35.57,0,0,0-15.47-1c-3,.39-3.93,1.4-3.87,4.41.18,9.78.09,19.57.05,29.36,0,2.31-.2,4.18,3.24,4.23s4-1.42,3.76-4.24a42.4,42.4,0,0,1,0-6.07c.1-1.35-.8-3.35,1.46-3.7,1.79-.27,3.76-.55,5.07,1.32,1.75,2.49,3.89,4.78,5.18,7.47C288.21,557.57,291.24,559.45,296.56,557.7Zm39.93-19c0,5.42.09,10.84,0,16.25-.05,2.39.74,3.29,3.19,3.24q9.64-.18,19.3,0c2.55.06,3.11-1.06,3.13-3.34s-1.07-2.84-3.1-2.79c-4.06.08-8.13,0-12.19,0-1.45,0-2.9.32-3.37-2-1.51-7.24-.05-9.23,7.27-9.23,1.52,0,3.05-.12,4.56,0,2.51.24,3.62-.45,3.6-3.29s-1.51-2.89-3.54-2.83c-2.37.07-4.75-.12-7.11,0-3.12.23-4.91-.15-4.91-4.17s1.28-5,5-4.7c3,.28,6.09,0,9.13.08,2.16.06,3.51-.33,3.48-3,0-2.47-.92-3.25-3.29-3.2-5.92.11-11.85.15-17.77,0-2.83-.08-3.41,1.17-3.35,3.64C336.58,528.58,336.49,533.66,336.49,538.74Zm-128,20.38a21.6,21.6,0,0,0,7.7-1.16c1.81-.54,4.1-.76,3.22-3.93s-2.44-2.55-4.86-1.93c-11.23,2.87-17.8-2.57-17.33-14.1.41-10.17,6.48-14.26,17.52-11.59,2.22.54,3.38.45,4.12-2,.61-2,.44-2.94-1.63-3.84-6.92-3-16-1.72-21.36,3.3-6,5.59-7.75,16.16-4.18,25C194.31,555.41,200.18,559.06,208.45,559.12ZM372.72,539c0-11.07,6.29-15.7,17.44-12.59,2.3.64,3.33.47,4.07-1.85s.23-3.47-2.07-4.16c-5.84-1.74-11.6-2.21-17.19.83-8.75,4.77-12.22,16.44-8.1,27.18,3.36,8.78,12.62,12.65,23.8,9.71,1.84-.48,5.13,0,4.15-4.06-.93-3.83-3-2.42-5.29-1.88C378.77,554.75,372.69,550,372.72,539Zm37.13,3.19c0,4.22.14,8.45-.05,12.66-.12,2.78,1.07,3.36,3.58,3.39s3.57-.73,3.5-3.43c-.17-6.25-.06-12.5-.05-18.75,0-9,0-9.12,8.75-9.8,2.54-.2,3.06-1.26,3.05-3.49s-.86-2.94-3-2.92c-8.11.08-16.21.11-24.32,0-2.65,0-3,1.25-3,3.42s.77,2.82,2.93,3c8.65.66,8.64.74,8.64,9.36Zm-267.09-2.71c0-5.41-.1-10.82,0-16.22.07-2.71-1-3.47-3.59-3.44s-3.21,1-3.2,3.33q.12,15.72,0,31.43c0,2.45.53,3.67,3.35,3.66s3.51-1,3.44-3.56C142.66,549.65,142.76,544.58,142.76,539.51Z"/><path class="cls-4" d="M116.06,553.91a18,18,0,0,1-1.49,1.85c-5,5-10.19,9.9-15.11,15-1.95,2-3.09.89-4.61-.33-5.8-4.67-11.73-9.16-17.42-14-2.52-2.12-3.78-1.69-5.4,1-5,8.24-10.32,16.28-15.3,24.53-1.62,2.66-2.78,2.67-4.9.61-4.6-4.48-9.28-8.89-14.15-13.08-2.55-2.19-2.31-3.83-.42-6.3,5.43-7.13,10.53-14.5,16-21.64,1.6-2.12,1.44-3.22-.65-4.83-7.51-5.78-14.78-11.85-22.32-17.59-2.39-1.82-2.78-3.23-1.15-5.79a110.43,110.43,0,0,0,6.37-11.52c1.39-2.9,2.73-2.61,5-1C48.6,506.64,57,512.11,65,518c2.94,2.14,4.38,1.67,6.32-1.19,4.37-6.44,9.26-12.51,13.6-19,2.1-3.13,4.07-3.27,7.07-1.55a115,115,0,0,0,10.89,5.42c2.75,1.2,2.89,2.43,1.28,4.87-4.91,7.49-9.37,15.28-14.44,22.66-2.36,3.42-1.47,4.85,1.62,6.86,7.51,4.88,14.78,10.13,22.15,15.24C114.46,552,115.62,552.45,116.06,553.91Z"/><path class="cls-4" d="M176,542.58c0-6.18,0-12.37,0-18.56,0-2.39,0-4.16,3.33-4.22,3.56-.06,3.7,1.73,3.68,4.4-.09,9.81,0,19.63-.09,29.44,0,1.58,1.19,4-1.75,4.5a5.12,5.12,0,0,1-5.91-2.68,110,110,0,0,0-16.76-22.38v15.2c0,2.37-.12,4.75,0,7.1.18,2.82-1.54,2.8-3.56,2.85-2.21.06-3.43-.37-3.4-3,.11-10.15,0-20.31.1-30.46,0-1.62-1.19-4,1.46-4.73a5.51,5.51,0,0,1,6.24,2.21c3.92,5.3,8,10.48,12,15.74,1.21,1.6,2.3,3.29,3.44,4.94Z"/><path class="cls-4" d="M467.49,539c0,12-7.08,20-18,20.16-11.1.16-18.58-7.94-18.57-20.11,0-11.82,7.41-19.91,18.26-20S467.45,527.07,467.49,539ZM438.08,540a29.27,29.27,0,0,0,.4,3.24c1.28,6,5.44,9.7,10.7,9.7,5.42,0,9.11-3.5,10.6-9.72a18.42,18.42,0,0,0-.93-11.42,10.44,10.44,0,0,0-16.44-4C438.93,530.82,438.07,534.89,438.08,540Z"/><path class="cls-4" d="M223.56,538.82C223.61,527.05,231.14,519,242,519s18.16,8.23,18.14,20.1-7.26,19.9-18.21,20C230.8,559.19,223.52,551.13,223.56,538.82Zm7,.53a41.12,41.12,0,0,0,.78,5c1.56,5.61,5.86,8.92,11,8.64s8.61-3.67,9.95-9.27A18.44,18.44,0,0,0,251,530.86a10.36,10.36,0,0,0-16-3C231.59,530.91,230.53,534.9,230.55,539.35Z"/><path class="cls-4" d="M331.14,557.71c-5.51,1.75-8.46-.34-10.59-4.74-1.23-2.56-3.26-4.72-4.87-7.09-1.42-2.09-3.52-2-5.48-1.53-2.16.47-1.18,2.48-1.28,3.83a41.13,41.13,0,0,0,0,6.08c.17,2.56-.24,4.06-3.46,4s-3.6-1.25-3.57-3.93q.18-15,0-29.94c0-2.79.9-3.69,3.66-4.08a35,35,0,0,1,15.52.9c4.37,1.35,7.31,4.17,8,8.89.65,4.48-.19,8.61-4.23,11.16-2.75,1.73-2.13,3.1-.53,5.13A48.51,48.51,0,0,1,331.14,557.71Zm-18.61-19.6c6.24,0,9.25-1.85,9.39-5.67s-3.15-6.25-8.52-6.43c-4.49-.15-5,2.47-4.48,5.8C309.29,534.41,306.85,539,312.53,538.11Z"/><path class="cls-4" d="M296.56,557.7c-5.32,1.75-8.35-.13-10.5-4.61-1.29-2.69-3.43-5-5.18-7.47-1.31-1.87-3.28-1.59-5.07-1.32-2.26.35-1.36,2.35-1.46,3.7a42.4,42.4,0,0,0,0,6.07c.23,2.82-.33,4.29-3.76,4.24s-3.25-1.92-3.24-4.23c0-9.79.13-19.58-.05-29.36-.06-3,.87-4,3.87-4.41a35.57,35.57,0,0,1,15.47,1c4.4,1.4,7.21,4.29,7.86,9,.62,4.49-.27,8.62-4.36,11.07-2.9,1.75-2.05,3-.48,5A48.73,48.73,0,0,1,296.56,557.7Zm-22.24-26.07c0,6.47,0,6.47,4,6.48,5.93,0,8.93-1.89,9-5.72s-3.2-6.22-8.57-6.38C273.78,525.87,274.1,529.06,274.32,531.63Z"/><path class="cls-4" d="M336.49,538.74c0-5.08.09-10.16,0-15.24-.06-2.47.52-3.72,3.35-3.64,5.92.17,11.85.13,17.77,0,2.37,0,3.27.73,3.29,3.2,0,2.67-1.32,3.06-3.48,3-3-.09-6.11.2-9.13-.08-3.69-.34-5,.75-5,4.7s1.79,4.4,4.91,4.17c2.36-.17,4.74,0,7.11,0,2-.06,3.51,0,3.54,2.83s-1.09,3.53-3.6,3.29c-1.51-.15-3,0-4.56,0-7.32,0-8.78,2-7.27,9.23.47,2.28,1.92,2,3.37,2,4.06,0,8.13.08,12.19,0,2-.05,3.13.44,3.1,2.79s-.58,3.4-3.13,3.34q-9.65-.19-19.3,0c-2.45,0-3.24-.85-3.19-3.24C336.58,549.58,336.49,544.16,336.49,538.74Z"/><path class="cls-4" d="M208.45,559.12c-8.27-.06-14.14-3.71-16.8-10.26-3.57-8.81-1.8-19.38,4.18-25,5.35-5,14.44-6.31,21.36-3.3,2.07.9,2.24,1.84,1.63,3.84-.74,2.43-1.9,2.52-4.12,2-11-2.67-17.11,1.42-17.52,11.59-.47,11.53,6.1,17,17.33,14.1,2.42-.62,4-1.18,4.86,1.93s-1.41,3.39-3.22,3.93A21.6,21.6,0,0,1,208.45,559.12Z"/><path class="cls-4" d="M372.72,539c0,10.92,6,15.72,16.81,13.18,2.27-.54,4.36-2,5.29,1.88,1,4.1-2.31,3.58-4.15,4.06-11.18,2.94-20.44-.93-23.8-9.71-4.12-10.74-.65-22.41,8.1-27.18,5.59-3,11.35-2.57,17.19-.83,2.3.69,2.78,1.93,2.07,4.16s-1.77,2.49-4.07,1.85C379,523.33,372.74,528,372.72,539Z"/><path class="cls-4" d="M409.85,542.22v-6.59c0-8.62,0-8.7-8.64-9.36-2.16-.16-3-.79-2.93-3s.36-3.46,3-3.42c8.11.12,16.21.09,24.32,0,2.16,0,3,.73,3,2.92s-.51,3.29-3.05,3.49c-8.76.68-8.75.79-8.75,9.8,0,6.25-.12,12.5.05,18.75.07,2.7-.89,3.46-3.5,3.43s-3.7-.61-3.58-3.39C410,550.67,409.85,546.44,409.85,542.22Z"/><path class="cls-4" d="M142.76,539.51c0,5.07-.1,10.14,0,15.2.07,2.57-.73,3.56-3.44,3.56s-3.37-1.21-3.35-3.66q.12-15.72,0-31.43c0-2.34.73-3.3,3.2-3.33s3.66.73,3.59,3.44C142.66,528.69,142.76,534.1,142.76,539.51Z"/><path class="cls-5" d="M438.08,540c0-5.14.85-9.21,4.33-12.23a10.44,10.44,0,0,1,16.44,4,18.42,18.42,0,0,1,.93,11.42c-1.49,6.22-5.18,9.71-10.6,9.72-5.26,0-9.42-3.73-10.7-9.7A29.27,29.27,0,0,1,438.08,540Z"/><path class="cls-5" d="M230.55,539.35c0-4.45,1-8.44,4.42-11.5a10.36,10.36,0,0,1,16,3,18.44,18.44,0,0,1,1.32,12.83c-1.34,5.6-4.89,9-9.95,9.27s-9.44-3-11-8.64A41.12,41.12,0,0,1,230.55,539.35Z"/><path class="cls-5" d="M312.53,538.11c-5.68.84-3.24-3.7-3.61-6.3-.48-3.33,0-5.95,4.48-5.8,5.37.18,8.67,2.47,8.52,6.43S318.77,538.14,312.53,538.11Z"/><path class="cls-5" d="M274.32,531.63c-.22-2.57-.54-5.76,4.47-5.62,5.37.16,8.69,2.43,8.57,6.38s-3.11,5.74-9,5.72C274.31,538.1,274.31,538.1,274.32,531.63Z"/><path class="cls-7" d="M187.18,191.3c3.14-3.5,6.24-4.75,10.87-4.71,27.09.22,86.62.09,113.71.13,2.7,0,4.61.26,4.57-3.78-.22-25.22-.16-50.44-.05-75.67,0-2.93-.9-3.67-3.73-3.66q-98.27.11-196.54,0c-3.45,0-4.17,1.14-4.15,4.36q.18,37.33,0,74.66c0,3.49,1.18,4.37,4.35,4.33,1.87,0,3.5-.57,5.28,0,.56.17.76,1.12.76,1.12l.79-8.64c-.87,1.68-1.39,2-2.39,2-2.8.05-2.35-1-2.34-3.5.08-21.67.11-43.34,0-65,0-3.22.15-3.95,3.14-3.94q92.7.11,185.4,0c2.9,0,4.2.52,4.18,3.85-.14,22-.07,44-.08,66,0,1,.29,2.08-.93,2.64-27.42,0-87.31-.07-114.73-.11Z"/></g></g></svg>