<svg xmlns="http://www.w3.org/2000/svg" xmlns:xlink="http://www.w3.org/1999/xlink" viewBox="0 0 823.82 557.96"><defs><style>.cls-1{fill:url(#Degradado_sin_nombre_6);}.cls-2{fill:#1e1c18;}.cls-3{fill:#322f28;}.cls-4{fill:url(#Degradado_sin_nombre_6-2);}.cls-5{fill:#ffaf82;}.cls-6,.cls-7{fill:none;stroke-miterlimit:10;}.cls-6{stroke:#ff0630;stroke-width:6px;}.cls-7{stroke:#b3cc3c;stroke-width:9px;}.cls-8{fill:#b3cc3c;}.cls-9{fill:#fcfcfd;}.cls-10{fill:#e84360;}</style><linearGradient id="Degradado_sin_nombre_6" x1="1238.13" y1="55.7" x2="1249.21" y2="288.24" gradientTransform="matrix(1, 0.07, -0.07, 1, -919.91, -110.25)" gradientUnits="userSpaceOnUse"><stop offset="0"/><stop offset="1" stop-opacity="0"/></linearGradient><linearGradient id="Degradado_sin_nombre_6-2" x1="1831.05" y1="-23.52" x2="1668.75" y2="270.88" gradientTransform="translate(-1004.64 -106.44) rotate(5.19)" xlink:href="#Degradado_sin_nombre_6"/></defs><g id="Capa_2" data-name="Capa 2"><g id="Información"><path class="cls-1" d="M578.4,290.31H34.72a18.4,18.4,0,0,1-18.4-18.4V107.47a18.4,18.4,0,0,1,18.4-18.4H578.4a18.4,18.4,0,0,1,18.4,18.4V271.91A18.4,18.4,0,0,1,578.4,290.31Z"/><path class="cls-2" d="M596.8,27.19v5.53H16.32V27.19c0-5.94,5.19-10.75,11.59-10.75h557.3C591.61,16.44,596.8,21.25,596.8,27.19Z"/><rect class="cls-3" x="16.32" y="24.58" width="580.48" height="201.24" rx="2.02"/><rect class="cls-2" x="39.66" y="52.7" width="23.67" height="13.32"/><rect class="cls-2" x="87.62" y="52.7" width="23.67" height="13.32"/><rect class="cls-2" x="135.59" y="52.7" width="23.67" height="13.32"/><rect class="cls-2" x="183.55" y="52.7" width="23.67" height="13.32"/><rect class="cls-2" x="231.52" y="52.7" width="23.67" height="13.32"/><rect class="cls-2" x="279.49" y="52.7" width="23.67" height="13.32"/><rect class="cls-2" x="327.45" y="52.7" width="23.67" height="13.32"/><rect class="cls-2" x="379.66" y="52.7" width="23.67" height="13.32"/><rect class="cls-2" x="427.63" y="52.7" width="23.67" height="13.32"/><rect class="cls-2" x="475.6" y="52.7" width="23.67" height="13.32"/><rect class="cls-2" x="523.56" y="52.7" width="23.67" height="13.32"/><rect class="cls-2" x="39.66" y="78.59" width="22.97" height="22.97"/><rect class="cls-2" x="76" y="78.59" width="22.97" height="22.97"/><rect class="cls-2" x="112.34" y="78.59" width="22.97" height="22.97"/><rect class="cls-2" x="148.68" y="78.59" width="22.97" height="22.97"/><rect class="cls-2" x="185.02" y="78.59" width="22.97" height="22.97"/><rect class="cls-2" x="221.36" y="78.59" width="22.97" height="22.97"/><rect class="cls-2" x="257.7" y="78.59" width="22.97" height="22.97"/><rect class="cls-2" x="294.04" y="78.59" width="22.97" height="22.97"/><rect class="cls-2" x="330.38" y="78.59" width="22.97" height="22.97"/><rect class="cls-2" x="39.66" y="109.5" width="22.97" height="22.97"/><rect class="cls-2" x="76" y="109.5" width="22.97" height="22.97"/><rect class="cls-2" x="112.34" y="109.5" width="22.97" height="22.97"/><rect class="cls-2" x="148.68" y="109.5" width="22.97" height="22.97"/><rect class="cls-2" x="185.02" y="109.5" width="22.97" height="22.97"/><rect class="cls-2" x="221.36" y="109.5" width="22.97" height="22.97"/><rect class="cls-2" x="257.7" y="109.5" width="22.97" height="22.97"/><rect class="cls-2" x="294.04" y="109.5" width="22.97" height="22.97"/><rect class="cls-2" x="330.38" y="109.5" width="22.97" height="22.97"/><rect class="cls-2" x="368.18" y="78.59" width="22.97" height="22.97"/><rect class="cls-2" x="404.52" y="78.59" width="22.97" height="22.97"/><rect class="cls-2" x="440.86" y="78.59" width="22.97" height="22.97"/><rect class="cls-2" x="368.18" y="109.5" width="22.97" height="22.97"/><rect class="cls-2" x="404.52" y="109.5" width="22.97" height="22.97"/><rect class="cls-2" x="440.86" y="109.5" width="22.97" height="22.97"/><rect class="cls-2" x="39.66" y="140.41" width="22.97" height="22.97"/><rect class="cls-2" x="76" y="140.41" width="22.97" height="22.97"/><rect class="cls-2" x="112.34" y="140.41" width="22.97" height="22.97"/><rect class="cls-2" x="148.68" y="140.41" width="22.97" height="22.97"/><rect class="cls-2" x="185.02" y="140.41" width="22.97" height="22.97"/><rect class="cls-2" x="221.36" y="140.41" width="22.97" height="22.97"/><rect class="cls-2" x="257.7" y="140.41" width="22.97" height="22.97"/><rect class="cls-2" x="294.04" y="140.41" width="22.97" height="22.97"/><rect class="cls-2" x="330.38" y="140.41" width="22.97" height="22.97"/><rect class="cls-2" x="39.66" y="171.32" width="22.97" height="22.97"/><rect class="cls-2" x="76" y="171.32" width="22.97" height="22.97"/><rect class="cls-2" x="112.34" y="171.32" width="131.99" height="22.97"/><rect class="cls-2" x="257.7" y="171.32" width="22.97" height="22.97"/><rect class="cls-2" x="294.04" y="171.32" width="22.97" height="22.97"/><rect class="cls-2" x="330.38" y="171.32" width="22.97" height="22.97"/><rect class="cls-2" x="480.4" y="78.59" width="22.97" height="22.97"/><rect class="cls-2" x="516.74" y="78.59" width="22.97" height="22.97"/><rect class="cls-2" x="553.08" y="78.59" width="22.97" height="22.97"/><rect class="cls-2" x="480.4" y="109.5" width="22.97" height="22.97"/><rect class="cls-2" x="516.74" y="109.5" width="22.97" height="22.97"/><rect class="cls-2" x="553.08" y="109.5" width="22.97" height="22.97"/><rect class="cls-2" x="480.4" y="140.41" width="22.97" height="22.97"/><rect class="cls-2" x="516.74" y="140.41" width="22.97" height="22.97"/><rect class="cls-2" x="516.74" y="171.32" width="22.97" height="22.97"/><rect class="cls-2" x="553.08" y="140.41" width="22.97" height="22.97"/><rect class="cls-2" x="480.4" y="171.32" width="22.97" height="22.97"/><rect class="cls-2" x="553.08" y="171.32" width="22.97" height="22.97"/><rect class="cls-2" x="404.52" y="140.41" width="22.97" height="22.97"/><rect class="cls-2" x="368.18" y="171.32" width="22.97" height="22.97"/><rect class="cls-2" x="404.52" y="171.32" width="22.97" height="22.97"/><rect class="cls-2" x="440.86" y="171.32" width="22.97" height="22.97"/><path class="cls-4" d="M737.6,177.9c-7.57-24.43-27.89-36.73-48.72-37.67-1.49-.08-3-.08-4.47,0a55.66,55.66,0,0,0-32.3,11.39h0c-9.67,7.51-16.93,18.67-19.38,33.32-.13.71-.25,1.44-.35,2.18-7.74,53,21.74,58.18,17,79-12,52.6,17.59,69.29,41.57,69.81H691c9.87.21,18.78-2.31,23.46-6.2C736.82,311.11,754.17,231.37,737.6,177.9Z"/><path class="cls-3" d="M722.56,307.52c-4.68,3.88-13.59,6.41-23.46,6.2H699c-24-.53-53.55-17.21-41.57-69.81,4.73-20.8-24.75-25.94-17-79,.11-.74.23-1.46.35-2.18,2.45-14.65,9.71-25.81,19.38-33.32h0A55.67,55.67,0,0,1,692.5,118c1.49,0,3,0,4.47,0,20.83.94,41.15,13.23,48.72,37.67C762.26,209.2,744.91,289,722.56,307.52Z"/><path class="cls-2" d="M706.08,181.56h0a2.11,2.11,0,0,1-2.08-2.11c-.18-26-7.54-50.27-11.5-61.42,1.49,0,3,0,4.47,0,4.14,12,11.07,35.88,11.24,61.38A2.11,2.11,0,0,1,706.08,181.56Z"/><path class="cls-2" d="M699,313.72c-24-.53-53.55-17.21-41.57-69.81,4.73-20.8-24.75-25.94-17-79,.11-.74.23-1.46.35-2.18,2.45-14.65,9.71-25.81,19.38-33.32-.46.66-19.16,27-9.68,54.9,9.6,28.25,25.59,31.47,18.57,70C662.21,292,680.52,312.05,699,313.72Z"/><path class="cls-5" d="M176.92,326.44s10.28-34.09,21.66-58.86,3.57-43.9,10.4-66.26-19.92-20.71-25.09,2.75-2.95,34.56-7.84,35.32S157.19,183,155.17,166.55s1.35-57.54-4.8-63.94-21,16.72-16.27,59.51S135.34,204,135.34,204s-4-16.61-8.28-34.48-4.28-39.63-3.48-51.83S111.94,99.44,108.27,106s-9.51,49.11-4.57,65.75,11,45.19,11,45.19S98.3,178.65,95.5,168.78s1.88-47.59-6.75-54.47c-3.56-2.84-15,1-13,54.67,0,0,3.93,26.22,9.58,42.45A94.88,94.88,0,0,1,72.2,183a263.41,263.41,0,0,1-7.12-43.92c-1.26-14.53-13.84-12.6-13.86,13S55.51,206,62.71,219.63s17.71,93.39,39,122.65l-2.28,55.23h78.41Z"/><path class="cls-5" d="M652.44,310.91c3-9.69-10.32-50.47-15.83-76.31s-.73-52.31,7.32-53.13c9.65-1,9.3,36.09,15.85,41.85,11.35,10,20.07-13.89,24.36-21l34.56-57.75c4.06-6.77,10.81-14.59,18.2-11.84,6.65,2.47,7.55,11.39,7,18.46s-.52,15.77,5.64,19.28c3,1.72,6.83,1.63,9.81,3.42,3.74,2.24,5.29,7,5.18,11.34S763,193.74,762.16,198c-2.74,13.46.14,27.33.93,41,.84,14.54-2.29,24.92-9.78,37-7.62,12.27-12.15,26-21.79,37.18-2,2.35-32.09,38.55-32.3,38.36C699.18,351.56,652.44,310.91,652.44,310.91Z"/><path class="cls-5" d="M657.55,310.91a31.11,31.11,0,1,1,6.69,43.49A31.11,31.11,0,0,1,657.55,310.91Z"/><path class="cls-5" d="M725.24,320.72s-5.89,15.18-42.6,93.95h-82l52.26-108C651.08,274.29,725.24,320.72,725.24,320.72Z"/><polyline class="cls-6" points="695.71 0.14 695.71 304.21 618.92 457.5"/><line class="cls-7" x1="121.73" y1="0.14" x2="135.59" y2="457.5"/><path class="cls-8" d="M135.91,496.33h126.5c6.64,0,9.58,2.92,9.58,9.5v43.1c0,5.78-3.19,9-9,9q-127.06,0-254.12,0C3.1,558,0,554.73,0,548.83q0-21.69,0-43.38c0-6,3.08-9.12,9.12-9.12ZM82.2,507.91c-.2-1-1-.83-1.55-1-4.28-.92-8.59-1.73-12.83-2.77-1.88-.46-2.79.07-3.71,1.71-5.18,9.18-10.51,18.26-15.73,27.41-1,1.66-1.52,2.14-2.65.1-1.94-3.5-4.13-6.87-6.14-10.33-.68-1.17-1.21-1.66-2.55-.75-2.78,1.88-5.64,3.64-8.53,5.35-1.27.74-1.21,1.3-.26,2.3,5.83,6.16,11.65,12.34,17.39,18.59,1.13,1.23,1.72,1.2,2.78-.07q16.42-19.8,33-39.53C81.67,508.62,81.94,508.24,82.2,507.91Zm30.53,9.15c-6.12,0-10.12,4.28-10.15,10.86s4,11,10.31,11c6.07,0,10-4.39,10-11S118.82,517.06,112.73,517.06Zm33,11.14c0,2.79.07,5.58,0,8.37-.06,1.54.62,1.88,2,1.86s2.19-.22,2-1.82a9.1,9.1,0,0,1,0-2.5c.19-1.07-.82-2.58.89-3.11s2.79.49,3.65,1.84,2,2.9,2.89,4.44c1,1.81,2.86,1.44,3.91.93,1.47-.72-.13-1.84-.57-2.65a31.18,31.18,0,0,0-2.81-4.15c-.65-.85-.71-1.35.3-1.95,2.71-1.6,3.32-4,2.65-7-.72-3.15-3.05-4.36-5.87-4.73-2.1-.28-4.27-.06-6.4-.15s-2.86.64-2.72,2.77C145.86,523,145.73,525.59,145.73,528.2Zm70.75-.43c0,6.93,3.74,11.11,10.05,11.12s10.09-4.15,10.11-10.83-3.88-11-10-11C220.43,517,216.52,521.15,216.48,527.77Zm-89.8.43c0,2.79.07,5.58,0,8.37,0,1.54.63,1.88,2,1.86s2.19-.22,2-1.82a10,10,0,0,1,0-2.5c.19-1.07-.81-2.58.9-3.11s2.79.49,3.65,1.83,2,2.91,2.88,4.45c1,1.81,2.86,1.45,3.91.93,1.49-.73-.14-1.83-.58-2.63a29.62,29.62,0,0,0-2.79-4.16c-.64-.85-.71-1.35.3-2,2.67-1.61,3.34-4,2.65-7-.74-3.13-3.06-4.36-5.88-4.72-2.1-.27-4.27-.06-6.4-.15s-2.85.65-2.72,2.77C126.81,523,126.68,525.59,126.68,528.2Zm38.26-.23h0c0,2.88.09,5.77,0,8.65-.06,1.34.27,1.83,1.64,1.8,3.54-.07,7.08,0,10.61,0,1.18,0,1.93-.15,1.91-1.63s-.49-1.82-1.8-1.75c-1.49.08-3,0-4.47,0-4.34,0-4.41-.14-4-4.56.11-1.17.5-1.66,1.68-1.62,1.76,0,3.54,0,5.3,0,1.28.05,1.55-.58,1.55-1.7s-.32-1.73-1.57-1.68c-1.77.07-3.54-.06-5.31,0s-1.68-1-1.62-2.18-.43-2.55,1.61-2.47,4.09,0,6.14,0c1.28,0,1.84-.35,1.84-1.73s-.71-1.68-1.91-1.66c-3.26,0-6.52.05-9.77,0-1.33,0-1.81.46-1.78,1.78C165,522.2,164.94,525.08,164.94,528Zm26.3,10.92a16,16,0,0,0,4.46-.61c1.72-.38,1.66-1.29,1.2-2.67-.58-1.74-1.6-.74-2.44-.51-4.57,1.25-8.25-.14-9.14-3.79-.76-3.1-1-6.35,1.36-9s5.15-2.3,8-1.27c1.19.43,1.65.15,2-.95s.24-1.87-1-2.39c-3.76-1.54-9-.69-11.77,2-3.17,3.09-4.16,8.7-2.35,13.27C183.2,537.1,186.07,538.89,191.24,538.89Zm-96.88,0a11,11,0,0,0,3.86-.46c1.12-.39,2.72-.12,2.13-2.34s-1.78-1.22-2.93-.91c-5.26,1.44-8.8-.94-9.18-6.16-.49-6.72,3.08-9.75,9.6-8,1.28.34,1.85.23,2.22-1.06.29-1,.48-1.67-.75-2.2-3.61-1.55-9.15-.8-11.85,1.74-3.36,3.16-4.36,8.78-2.44,13.73C86.47,537,89.63,538.9,94.36,538.89Zm111-9.24c0,2.05,0,4.09,0,6.14,0,1.42-.26,2.73,2,2.68,2.09-.06,1.88-1.23,1.87-2.56,0-3.26,0-6.51,0-9.77,0-4.86,0-4.92,4.7-5.2,1.34-.08,1.77-.57,1.78-1.84s-.56-1.58-1.7-1.57q-6.71.06-13.4,0c-1.22,0-1.63.49-1.62,1.66s.29,1.7,1.56,1.74c1.53.06,3.67-.78,4.46.48s.29,3.23.33,4.89C205.4,527.41,205.38,528.53,205.38,529.65Z"/><path class="cls-9" d="M82.2,507.91c-.26.33-.53.71-.82,1.06q-16.5,19.75-33,39.53c-1.06,1.27-1.65,1.3-2.78.07C39.9,542.32,34.08,536.14,28.25,530c-.95-1-1-1.56.26-2.3,2.89-1.71,5.75-3.47,8.53-5.35,1.34-.91,1.87-.42,2.55.75,2,3.46,4.2,6.83,6.14,10.33,1.13,2,1.7,1.56,2.65-.1,5.22-9.15,10.55-18.23,15.73-27.41.92-1.64,1.83-2.17,3.71-1.71,4.24,1,8.55,1.85,12.83,2.77C81.22,507.08,82,506.9,82.2,507.91Z"/><path class="cls-9" d="M112.73,517.06c6.09,0,10.15,4.33,10.17,10.85s-3.94,10.94-10,11c-6.31,0-10.34-4.25-10.31-11S106.61,517.06,112.73,517.06Zm6,11c0-2.28-.39-4.44-2.15-6.1a5.64,5.64,0,0,0-7.8,0c-2.8,2.67-2.95,8.87-.3,11.79a5.67,5.67,0,0,0,7.79.58C118.26,532.67,118.73,530.44,118.77,528Z"/><path class="cls-9" d="M145.73,528.2c0-2.61.13-5.23,0-7.82-.14-2.13.72-2.86,2.72-2.77s4.3-.13,6.4.15c2.82.37,5.15,1.58,5.87,4.73.67,2.94.06,5.37-2.65,7-1,.6-.95,1.1-.3,1.95a31.18,31.18,0,0,1,2.81,4.15c.44.81,2,1.93.57,2.65-1.05.51-2.91.88-3.91-.93-.86-1.54-1.94-2.95-2.89-4.44s-1.93-2.38-3.65-1.84-.7,2-.89,3.11a9.1,9.1,0,0,0,0,2.5c.15,1.6-.73,1.8-2,1.82s-2.06-.32-2-1.86C145.8,533.78,145.73,531,145.73,528.2Zm6.54-7.3c-2.46,0-2.53.12-2.53,3.66,0,1.58-.36,3.21,2.25,3,3.29-.25,4.79-1.16,4.8-3.39S155.3,520.9,152.27,520.9Z"/><path class="cls-9" d="M216.48,527.77c0-6.62,4-10.73,10.2-10.71,6.08,0,10,4.34,10,11s-3.91,10.84-10.11,10.83S216.44,534.7,216.48,527.77Zm16.23.15c-.4-2.72-.7-5.45-3.53-6.87a5.41,5.41,0,0,0-5.81.3c-4,2.68-4,10.43-.11,13.18a5.43,5.43,0,0,0,6.05.31C232.08,533.35,232.35,530.6,232.71,527.92Z"/><path class="cls-9" d="M126.68,528.2c0-2.61.13-5.22,0-7.82-.13-2.12.72-2.86,2.72-2.77s4.3-.12,6.4.15c2.82.36,5.14,1.59,5.88,4.72.69,2.95,0,5.37-2.65,7-1,.61-.94,1.11-.3,2a29.62,29.62,0,0,1,2.79,4.16c.44.8,2.07,1.9.58,2.63-1.05.52-2.9.88-3.91-.93-.86-1.54-1.93-3-2.88-4.45s-1.93-2.37-3.65-1.83-.71,2-.9,3.11a10,10,0,0,0,0,2.5c.15,1.6-.72,1.8-2,1.82s-2-.32-2-1.86C126.75,533.78,126.68,531,126.68,528.2Zm3.84-4.3c.06,1.94-.58,3.84,2.27,3.68,3.44-.2,5-1.17,5-3.51-.05-2.15-1.59-3.07-4.63-3.21C130.41,520.75,130.36,522.35,130.52,523.9Z"/><path class="cls-9" d="M164.94,528c0-2.89,0-5.77,0-8.66,0-1.32.45-1.81,1.78-1.78,3.25.05,6.51,0,9.77,0,1.2,0,1.92.21,1.91,1.66s-.56,1.77-1.84,1.73c-2-.07-4.1.05-6.14,0s-1.56,1.35-1.61,2.47-.13,2.28,1.62,2.18,3.54,0,5.31,0c1.25,0,1.57.53,1.57,1.68s-.27,1.75-1.55,1.7c-1.76-.06-3.54,0-5.3,0-1.18,0-1.57.45-1.68,1.62-.4,4.42-.33,4.56,4,4.56,1.49,0,3,.06,4.47,0,1.31-.07,1.79.4,1.8,1.75s-.73,1.64-1.91,1.63c-3.53,0-7.07-.06-10.61,0-1.37,0-1.7-.46-1.64-1.8.12-2.88,0-5.77,0-8.65Z"/><path class="cls-9" d="M191.24,538.89c-5.17,0-8-1.79-9.66-5.89-1.81-4.57-.82-10.18,2.35-13.27,2.77-2.71,8-3.56,11.77-2,1.25.52,1.42,1.21,1,2.39s-.84,1.38-2,.95c-2.85-1-5.74-1.22-8,1.27s-2.12,5.89-1.36,9c.89,3.65,4.57,5,9.14,3.79.84-.23,1.86-1.23,2.44.51.46,1.38.52,2.29-1.2,2.67A16,16,0,0,1,191.24,538.89Z"/><path class="cls-9" d="M94.36,538.89c-4.73,0-7.89-1.89-9.34-5.65-1.92-5-.92-10.57,2.44-13.73,2.7-2.54,8.24-3.29,11.85-1.74,1.23.53,1,1.22.75,2.2-.37,1.29-.94,1.4-2.22,1.06-6.52-1.76-10.09,1.27-9.6,8,.38,5.22,3.92,7.6,9.18,6.16,1.15-.31,2.34-1.28,2.93.91s-1,1.95-2.13,2.34A11,11,0,0,1,94.36,538.89Z"/><path class="cls-9" d="M205.38,529.65c0-1.12,0-2.24,0-3.35,0-1.66.43-3.67-.33-4.89s-2.93-.42-4.46-.48c-1.27,0-1.55-.62-1.56-1.74s.4-1.67,1.62-1.66q6.69.06,13.4,0c1.14,0,1.72.32,1.7,1.57s-.44,1.76-1.78,1.84c-4.71.28-4.7.34-4.7,5.2,0,3.26,0,6.51,0,9.77,0,1.33.22,2.5-1.87,2.56-2.28,0-2-1.26-2-2.68C205.39,533.74,205.38,531.7,205.38,529.65Z"/><path class="cls-8" d="M118.77,528c0,2.4-.51,4.63-2.46,6.26a5.67,5.67,0,0,1-7.79-.58c-2.65-2.92-2.5-9.12.3-11.79a5.64,5.64,0,0,1,7.8,0C118.38,523.6,118.75,525.76,118.77,528Z"/><path class="cls-8" d="M152.27,520.9c3,0,4.53,1.09,4.52,3.29s-1.51,3.14-4.8,3.39c-2.61.19-2.25-1.44-2.25-3C149.74,521,149.81,520.91,152.27,520.9Z"/><path class="cls-8" d="M232.71,527.92c-.36,2.68-.63,5.43-3.4,6.92a5.43,5.43,0,0,1-6.05-.31c-3.92-2.75-3.86-10.5.11-13.18a5.41,5.41,0,0,1,5.81-.3C232,522.47,232.31,525.2,232.71,527.92Z"/><path class="cls-8" d="M130.52,523.9c-.16-1.55-.11-3.15,2.6-3,3,.14,4.58,1.06,4.63,3.21.06,2.34-1.52,3.31-5,3.51C129.94,527.74,130.58,525.84,130.52,523.9Z"/><path class="cls-10" d="M683,557.9H552c-7.47,0-10.29-2.75-10.28-10q0-21.51,0-43c0-5.79,3.13-8.87,9.07-8.88H814.4c6.24,0,9.4,3.11,9.41,9.25q0,21.53,0,43c0,6.55-3.18,9.64-9.93,9.64Zm-74.88-23.84c-.26-.81-.92-1.07-1.46-1.44-4.21-2.82-8.37-5.73-12.66-8.43-1.77-1.12-2.28-1.91-.93-3.8,2.9-4.09,5.45-8.4,8.26-12.55.91-1.35.83-2-.74-2.69a67.22,67.22,0,0,1-6.22-3c-1.72-.94-2.85-.87-4.05.86-2.48,3.57-5.27,6.94-7.77,10.5-1.11,1.58-1.93,1.84-3.61.66-4.61-3.24-9.39-6.27-14-9.47-1.3-.89-2.06-1.05-2.86.56a61,61,0,0,1-3.64,6.38c-.93,1.41-.71,2.19.66,3.2,4.31,3.18,8.47,6.54,12.75,9.74,1.2.89,1.29,1.5.38,2.67-3.1,4-6,8-9.12,12-1.08,1.37-1.22,2.28.24,3.49,2.78,2.32,5.46,4.76,8.09,7.24,1.21,1.15,1.88,1.14,2.8-.34,2.85-4.56,5.89-9,8.75-13.57.93-1.49,1.64-1.72,3.08-.55,3.25,2.66,6.65,5.14,10,7.73.87.67,1.52,1.31,2.64.18,2.81-2.83,5.75-5.55,8.63-8.32A10.84,10.84,0,0,0,608.07,534.06Zm34.24-6.27-.71.18c-.66-.91-1.28-1.84-2-2.73-2.27-2.91-4.6-5.78-6.84-8.71a3.19,3.19,0,0,0-3.56-1.23c-1.52.38-.83,1.72-.84,2.62-.06,5.62,0,11.24-.06,16.86,0,1.47.69,1.7,1.95,1.67s2.14,0,2-1.58c-.09-1.3,0-2.62,0-3.93v-8.42a62,62,0,0,1,9.59,12.39,3,3,0,0,0,3.37,1.49c1.68-.27,1-1.62,1-2.49.07-5.43,0-10.87,0-16.3,0-1.48-.06-2.47-2.1-2.44s-1.92,1-1.9,2.34C642.33,520.94,642.31,524.36,642.31,527.79Zm166.64-2c0-6.58-4.27-11.06-10.47-11s-10.43,4.51-10.43,11.06c0,6.73,4.27,11.21,10.61,11.13S809,532.44,809,525.78Zm-139.44-.08c0,6.82,4.14,11.28,10.49,11.24s10.4-4.44,10.41-11.06-4.2-11.09-10.37-11.13S669.54,519.19,669.51,525.7ZM731,536.16a26.19,26.19,0,0,0-3.92-6.24c-.91-1.13-1.27-1.88.31-2.84,2.31-1.42,2.79-3.7,2.42-6.18a5.86,5.86,0,0,0-4.57-4.92,20.57,20.57,0,0,0-8.87-.5c-1.58.22-2.12.71-2.09,2.26.08,5.52.07,11,0,16.57,0,1.48.28,2.17,2,2.18s2.07-.82,2-2.24a23.55,23.55,0,0,1,0-3.36c.06-.75-.5-1.87.74-2.12s2.32-.32,3.13.84a32.59,32.59,0,0,1,2.78,3.93C726.17,536,727.86,537.13,731,536.16Zm-19.76,0a26.79,26.79,0,0,0-3.94-6.28c-.9-1.1-1.39-1.81.27-2.77,2.34-1.36,2.85-3.65,2.49-6.13a5.86,5.86,0,0,0-4.49-5,20.91,20.91,0,0,0-8.84-.55c-1.72.21-2.25.77-2.22,2.44.11,5.41,0,10.83,0,16.25,0,1.28-.11,2.32,1.86,2.34s2.27-.78,2.14-2.34a22.3,22.3,0,0,1,0-3.37c.05-.74-.46-1.85.83-2,1-.15,2.15-.31,2.9.73a30.12,30.12,0,0,1,3,4.14C706.47,536.08,708.2,537.12,711.24,536.16Zm22.82-10.5c0,3,.05,6,0,9,0,1.32.43,1.82,1.83,1.79q5.5-.11,11,0c1.46,0,1.78-.58,1.79-1.85s-.62-1.57-1.78-1.55c-2.32.05-4.64,0-7,0-.83,0-1.66.18-1.93-1.09-.87-4,0-5.11,4.15-5.11.87,0,1.75-.06,2.61,0,1.44.13,2.07-.25,2.06-1.82s-.86-1.6-2-1.57c-1.36,0-2.72-.07-4.07,0-1.78.13-2.81-.09-2.81-2.31s.74-2.79,2.84-2.6c1.73.15,3.49,0,5.23,0,1.23,0,2-.18,2-1.66s-.53-1.8-1.89-1.77c-3.38.06-6.77.08-10.16,0-1.61-.05-1.94.64-1.91,2C734.12,520,734.06,522.85,734.06,525.66Zm-73.19,11.28a12.68,12.68,0,0,0,4.41-.64c1-.3,2.34-.42,1.84-2.17s-1.4-1.42-2.78-1.08c-6.42,1.59-10.17-1.42-9.91-7.8.24-5.63,3.71-7.9,10-6.41,1.27.29,1.93.24,2.35-1.1.35-1.11.25-1.63-.93-2.13a12.05,12.05,0,0,0-12.21,1.83c-3.42,3.09-4.43,8.94-2.39,13.82C652.79,534.89,656.15,536.91,660.87,536.94Zm93.9-11.12c0-6.13,3.6-8.69,10-7,1.31.36,1.9.26,2.33-1s.13-1.93-1.18-2.31c-3.34-1-6.64-1.22-9.83.46-5,2.64-7,9.1-4.63,15,1.92,4.86,7.21,7,13.6,5.38,1.05-.27,2.94,0,2.37-2.25s-1.72-1.34-3-1C758.23,534.52,754.76,531.87,754.77,525.82ZM776,527.59c0,2.33.08,4.67,0,7-.07,1.54.61,1.85,2,1.87s2-.4,2-1.9c-.09-3.46,0-6.92,0-10.38,0-5,0-5.05,5-5.42,1.45-.11,1.75-.7,1.74-1.93s-.49-1.64-1.72-1.62c-4.64,0-9.27.06-13.9,0-1.52,0-1.71.69-1.73,1.9s.45,1.56,1.68,1.65c4.94.36,4.94.41,4.94,5.18Zm-152.67-1.5c0-3-.06-6,0-9,0-1.51-.59-1.93-2.06-1.91s-1.83.55-1.82,1.85c0,5.79,0,11.59,0,17.39,0,1.36.3,2,1.91,2s2-.54,2-2C623.27,531.7,623.33,528.89,623.33,526.09Z"/><path class="cls-9" d="M608.07,534.06a10.84,10.84,0,0,1-.86,1c-2.88,2.77-5.82,5.49-8.63,8.32-1.12,1.13-1.77.49-2.64-.18-3.31-2.59-6.71-5.07-10-7.73-1.44-1.17-2.15-.94-3.08.55-2.86,4.56-5.9,9-8.75,13.57-.92,1.48-1.59,1.49-2.8.34-2.63-2.48-5.31-4.92-8.09-7.24-1.46-1.21-1.32-2.12-.24-3.49,3.11-3.94,6-8,9.12-12,.91-1.17.82-1.78-.38-2.67-4.28-3.2-8.44-6.56-12.75-9.74-1.37-1-1.59-1.79-.66-3.2a61,61,0,0,0,3.64-6.38c.8-1.61,1.56-1.45,2.86-.56,4.65,3.2,9.43,6.23,14,9.47,1.68,1.18,2.5.92,3.61-.66,2.5-3.56,5.29-6.93,7.77-10.5,1.2-1.73,2.33-1.8,4.05-.86a67.22,67.22,0,0,0,6.22,3c1.57.66,1.65,1.34.74,2.69-2.81,4.15-5.36,8.46-8.26,12.55-1.35,1.89-.84,2.68.93,3.8,4.29,2.7,8.45,5.61,12.66,8.43C607.15,533,607.81,533.25,608.07,534.06Z"/><path class="cls-9" d="M642.31,527.79c0-3.43,0-6.85,0-10.28,0-1.32,0-2.3,1.9-2.34s2.12,1,2.1,2.44c0,5.43,0,10.87,0,16.3,0,.87.68,2.22-1,2.49a3,3,0,0,1-3.37-1.49,62,62,0,0,0-9.59-12.39v8.42c0,1.31-.07,2.63,0,3.93.11,1.57-.88,1.55-2,1.58s-2-.2-1.95-1.67c.07-5.62,0-11.24.06-16.86,0-.9-.68-2.24.84-2.62a3.19,3.19,0,0,1,3.56,1.23c2.24,2.93,4.57,5.8,6.84,8.71.69.89,1.31,1.82,2,2.73Z"/><path class="cls-9" d="M809,525.78c0,6.66-4.05,11.08-10.29,11.16s-10.62-4.4-10.61-11.13c0-6.55,4.23-11,10.43-11.06S808.92,519.2,809,525.78Zm-16.82.59a15.88,15.88,0,0,0,.23,1.8c.73,3.3,3.11,5.37,6.12,5.37s5.21-1.94,6.06-5.39a9.92,9.92,0,0,0-.53-6.32,6.06,6.06,0,0,0-9.4-2.23C792.62,521.27,792.13,523.53,792.13,526.37Z"/><path class="cls-9" d="M669.51,525.7c0-6.51,4.34-11,10.53-11s10.38,4.56,10.37,11.13-4.15,11-10.41,11.06S669.49,532.52,669.51,525.7Zm4,.3a22.83,22.83,0,0,0,.44,2.75,6.15,6.15,0,0,0,6.29,4.78c2.89-.15,4.92-2,5.69-5.13a9.86,9.86,0,0,0-.76-7.1,6,6,0,0,0-9.14-1.67A7.84,7.84,0,0,0,673.51,526Z"/><path class="cls-9" d="M731,536.16c-3.14,1-4.83-.18-6-2.62a32.59,32.59,0,0,0-2.78-3.93c-.81-1.16-2-1.08-3.13-.84s-.68,1.37-.74,2.12a23.55,23.55,0,0,0,0,3.36c.09,1.42-.14,2.25-2,2.24s-2.06-.7-2-2.18c.07-5.52.08-11,0-16.57,0-1.55.51-2,2.09-2.26a20.57,20.57,0,0,1,8.87.5,5.86,5.86,0,0,1,4.57,4.92c.37,2.48-.11,4.76-2.42,6.18-1.58,1-1.22,1.71-.31,2.84A26.19,26.19,0,0,1,731,536.16Zm-10.63-10.85c3.56,0,5.29-1,5.37-3.14s-1.81-3.46-4.88-3.56c-2.56-.08-2.83,1.37-2.56,3.21C718.52,523.26,717.12,525.77,720.37,525.31Z"/><path class="cls-9" d="M711.24,536.16c-3,1-4.77-.08-6-2.55a30.12,30.12,0,0,0-3-4.14c-.75-1-1.88-.88-2.9-.73-1.29.19-.78,1.3-.83,2a22.3,22.3,0,0,0,0,3.37c.13,1.56-.19,2.37-2.14,2.34s-1.86-1.06-1.86-2.34c0-5.42.08-10.84,0-16.25,0-1.67.5-2.23,2.22-2.44a20.91,20.91,0,0,1,8.84.55,5.86,5.86,0,0,1,4.49,5c.36,2.48-.15,4.77-2.49,6.13-1.66,1-1.17,1.67-.27,2.77A26.79,26.79,0,0,1,711.24,536.16Zm-12.71-14.44c0,3.59,0,3.59,2.29,3.59,3.38,0,5.1-1,5.16-3.17s-1.83-3.44-4.9-3.53C698.22,518.53,698.4,520.3,698.53,521.72Z"/><path class="cls-9" d="M734.06,525.66c0-2.81.06-5.63,0-8.44,0-1.37.3-2.06,1.91-2,3.39.09,6.78.07,10.16,0,1.36,0,1.88.4,1.89,1.77s-.76,1.69-2,1.66c-1.74,0-3.5.11-5.23,0-2.1-.19-2.83.41-2.84,2.6s1,2.44,2.81,2.31c1.35-.1,2.71,0,4.07,0,1.16,0,2,0,2,1.57s-.62,2-2.06,1.82c-.86-.08-1.74,0-2.61,0-4.18,0-5,1.1-4.15,5.11.27,1.27,1.1,1.08,1.93,1.09,2.32,0,4.64,0,7,0,1.16,0,1.79.25,1.78,1.55s-.33,1.88-1.79,1.85q-5.52-.11-11,0c-1.4,0-1.86-.47-1.83-1.79C734.11,531.66,734.06,528.66,734.06,525.66Z"/><path class="cls-9" d="M660.87,536.94c-4.72,0-8.08-2.05-9.6-5.68-2-4.88-1-10.73,2.39-13.82a12.05,12.05,0,0,1,12.21-1.83c1.18.5,1.28,1,.93,2.13-.42,1.34-1.08,1.39-2.35,1.1-6.31-1.49-9.78.78-10,6.41-.26,6.38,3.49,9.39,9.91,7.8,1.38-.34,2.28-.65,2.78,1.08s-.81,1.87-1.84,2.17A12.68,12.68,0,0,1,660.87,536.94Z"/><path class="cls-9" d="M754.77,525.82c0,6,3.46,8.7,9.61,7.29,1.3-.29,2.5-1.07,3,1s-1.32,2-2.37,2.25c-6.39,1.62-11.68-.52-13.6-5.38-2.36-5.95-.37-12.41,4.63-15,3.19-1.68,6.49-1.42,9.83-.46,1.31.38,1.59,1.07,1.18,2.31s-1,1.38-2.33,1C758.37,517.13,754.78,519.69,754.77,525.82Z"/><path class="cls-9" d="M776,527.59v-3.65c0-4.77,0-4.82-4.94-5.18-1.23-.09-1.69-.44-1.68-1.65s.21-1.92,1.73-1.9c4.63.07,9.26,0,13.9,0,1.23,0,1.71.4,1.72,1.62s-.29,1.82-1.74,1.93c-5,.37-5,.43-5,5.42,0,3.46-.06,6.92,0,10.38,0,1.5-.5,1.92-2,1.9s-2.12-.33-2-1.87C776.08,532.26,776,529.92,776,527.59Z"/><path class="cls-9" d="M623.33,526.09c0,2.8-.06,5.61,0,8.41,0,1.43-.42,2-2,2s-1.92-.67-1.91-2c0-5.8,0-11.6,0-17.39,0-1.3.42-1.83,1.82-1.85s2.1.4,2.06,1.91C623.27,520.1,623.33,523.09,623.33,526.09Z"/><path class="cls-10" d="M792.13,526.37c0-2.84.49-5.1,2.48-6.77a6.06,6.06,0,0,1,9.4,2.23,9.92,9.92,0,0,1,.53,6.32c-.85,3.45-3,5.38-6.06,5.39s-5.39-2.07-6.12-5.37A15.88,15.88,0,0,1,792.13,526.37Z"/><path class="cls-10" d="M673.51,526a7.84,7.84,0,0,1,2.52-6.37,6,6,0,0,1,9.14,1.67,9.86,9.86,0,0,1,.76,7.1c-.77,3.1-2.8,5-5.69,5.13a6.15,6.15,0,0,1-6.29-4.78A22.83,22.83,0,0,1,673.51,526Z"/><path class="cls-10" d="M720.37,525.31c-3.25.46-1.85-2-2.07-3.49-.27-1.84,0-3.29,2.56-3.21,3.07.1,5,1.37,4.88,3.56S723.93,525.33,720.37,525.31Z"/><path class="cls-10" d="M698.53,521.72c-.13-1.42-.31-3.19,2.55-3.11,3.07.09,5,1.35,4.9,3.53s-1.78,3.18-5.16,3.17C698.52,525.31,698.52,525.31,698.53,521.72Z"/></g></g></svg>