<svg xmlns="http://www.w3.org/2000/svg" viewBox="0 0 298.35 744.35"><defs><style>.cls-1,.cls-12{fill:#32324c;}.cls-1{opacity:0.1;}.cls-2{fill:#ffaf82;}.cls-3{fill:#d31818;}.cls-4{fill:#265d92;}.cls-5{fill:#1a4a75;}.cls-6{fill:#fff;}.cls-7{fill:#050705;}.cls-8{fill:#2c2c2c;}.cls-9{fill:#dd342c;}.cls-10,.cls-11{fill:#f88968;}.cls-11{opacity:0.5;}.cls-13{fill:#ea6b12;}.cls-14{fill:#333;}</style></defs><g id="Capa_2" data-name="Capa 2"><g id="Información"><ellipse class="cls-1" cx="125.47" cy="725.32" rx="125.47" ry="19.04"/><path class="cls-2" d="M263.94,297.29s8.12,3.23,11.54,9.53c.89,1.65-2.49,4.61-5,3.14,0,0,2.49,2.43,1.82,4.28-1.47,4.08-4.21,2.29-4.21,2.29s1.27,4.15-.56,6.16c-2.05,2.25-5.34.1-5.34.1s3.91,2.76.51,6.35c-2.59,2.74-20.85-11.33-25.44-26.78,0,0,5.7-11.6,9-12.72,0,0,7-1.72,12.87-.74C259.13,288.9,267.51,288.21,263.94,297.29Z"/><path class="cls-3" d="M184.24,158.49s-45.64-12.54-42.31,2c3.46,15.13,12.49,51.84,24,76.54,0,0,14.4,25.55,72.37,68l8.17-15.94a183.1,183.1,0,0,1-20.94-25.35c-9.14-13.74-32.2-50.14-32.2-50.14S192.86,168.49,184.24,158.49Z"/><path class="cls-2" d="M134.17,532.66c-9.74,38-2.61,103.25-3.58,154.13l24.25-7.74L169,532.66Z"/><path class="cls-4" d="M212.34,731.87H134.85a7.17,7.17,0,0,1-7.11-6.21,7.61,7.61,0,0,1,0-1.51l3.15-40.7a45.06,45.06,0,0,1,7.74-2.56,7.85,7.85,0,0,0,5.74-5.21c.06-.19.11-.39.16-.59,1.78-7.83,13.07-10.32,15.16-2.67.27,1,.5,2,.7,2.88.05.22.1.46.14.68.34,1.64.58,3.16.75,4.49,0,0,0,0,0,.08a43.07,43.07,0,0,1,.38,5.53c1,1.31,2,2.59,3,3.85.49.62,1,1.25,1.43,1.86,1,1.33,2,2.62,3,3.85.45.59.9,1.15,1.35,1.71,1.07,1.34,2.13,2.62,3.19,3.81.48.54,1,1.06,1.45,1.57,4,4.2,8,7.07,12.79,7.73,8.4,1.15,22.12,2.08,28.75,14.41a4.18,4.18,0,0,1,.34.79A4.78,4.78,0,0,1,212.34,731.87Z"/><path class="cls-5" d="M212.34,731.87H134.85a7.17,7.17,0,0,1-7.11-6.22H216.9A4.78,4.78,0,0,1,212.34,731.87Z"/><path class="cls-6" d="M166.05,691.79c-.9,1.32-2.73,2.91-6.42,4.39-.62.25-1.31.5-2,.75l-.67-2c.74-.24,1.4-.48,2-.72,4.23-1.71,5.39-3.39,5.71-4.25C165.11,690.55,165.58,691.18,166.05,691.79Z"/><path class="cls-6" d="M159.65,695.92a2.41,2.41,0,1,1-2.41-2.41A2.41,2.41,0,0,1,159.65,695.92Z"/><path class="cls-6" d="M170.38,697.35a15.4,15.4,0,0,1-5.31,3.34c-.74.32-1.55.61-2.45.91l-.67-2c.84-.27,1.59-.55,2.26-.83a12,12,0,0,0,4.82-3.1C169.48,696.23,169.93,696.79,170.38,697.35Z"/><path class="cls-6" d="M165.08,700.59a2.41,2.41,0,1,1-2.41-2.4A2.4,2.4,0,0,1,165.08,700.59Z"/><path class="cls-6" d="M175,702.73a15.62,15.62,0,0,1-5.14,3.2q-1.12.48-2.49.93l-.67-2c.85-.28,1.61-.56,2.28-.85a13.23,13.23,0,0,0,4.57-2.82C174.05,701.7,174.53,702.22,175,702.73Z"/><path class="cls-6" d="M169.88,705.84a2.4,2.4,0,1,1-2.4-2.4A2.4,2.4,0,0,1,169.88,705.84Z"/><path class="cls-6" d="M161.24,680.47a54.71,54.71,0,0,0-6.91.39l0-3.88a17.27,17.27,0,0,1,6.11-1C160.83,677.62,161.07,679.14,161.24,680.47Z"/><path class="cls-7" d="M126.18,389.58l-2.67,144.13s27.23,8.78,54.69,2l5.87-166.54Z"/><path class="cls-2" d="M54.9,504.74c0,9.91,0,18.85.24,26L56,680.86H77.39L91,540.58l5.33-35.84Z"/><path class="cls-8" d="M58.51,375.39S55.62,427.46,76.81,435s105.51,24,107.26-65.87Z"/><path class="cls-8" d="M58.49,387.93,45.84,533.58s29.28,9.76,58.51-1.43l2.71-90.85Z"/><path class="cls-4" d="M97.1,723c-.67,13.23-42,8.68-48.67,4.7-2.55-1.53-3.62-4.49-3.82-8.07-.33-5.71,1.55-13,3.18-18.74,2.65-9.33,2.29-9.15,4.13-15.53,0,0-.48-10.36,13.08-14.32s18.53,21.85,20.84,26.81c2.12,4.55,10.36,10.77,11.22,22A25.89,25.89,0,0,1,97.1,723Z"/><path class="cls-6" d="M57.64,693.7,56.55,692c.51-.33,12.47-8,22.88-3.44l-.79,1.82C69.2,686.28,57.75,693.62,57.64,693.7Z"/><path class="cls-6" d="M58.82,705.22l-1.09-1.67c.51-.32,12.47-8,22.88-3.43l-.79,1.82C70.38,697.8,58.93,705.14,58.82,705.22Z"/><path class="cls-6" d="M58.23,699.46l-1.09-1.67c.51-.32,12.47-8,22.88-3.43l-.79,1.82C69.79,692,58.34,699.38,58.23,699.46Z"/><path class="cls-6" d="M59.21,693.18A2.24,2.24,0,1,1,57,691,2.23,2.23,0,0,1,59.21,693.18Z"/><path class="cls-6" d="M59.33,698.64a2.24,2.24,0,1,1-2.24-2.24A2.23,2.23,0,0,1,59.33,698.64Z"/><path class="cls-6" d="M60.51,704.09a2.24,2.24,0,1,1-2.24-2.23A2.24,2.24,0,0,1,60.51,704.09Z"/><circle class="cls-6" cx="80.22" cy="700.87" r="2.23"/><path class="cls-6" d="M81.86,694.91a2.24,2.24,0,1,1-2.23-2.23A2.23,2.23,0,0,1,81.86,694.91Z"/><path class="cls-6" d="M81.27,689A2.24,2.24,0,1,1,79,686.72,2.23,2.23,0,0,1,81.27,689Z"/><path class="cls-5" d="M97.1,723c-.67,13.23-42,8.68-48.67,4.7-2.55-1.53-3.62-4.49-3.82-8.07,4.35,2.48,12,5.57,23.45,5.78,14,.25,24.16-2.59,29-5.6A25.89,25.89,0,0,1,97.1,723Z"/><path class="cls-6" d="M70.85,675.09a22.09,22.09,0,0,0-11.64,2.32l.6,4.19s7.51-2.21,12.47-1.88A9.85,9.85,0,0,0,70.85,675.09Z"/><path class="cls-9" d="M100.1,138.9,46.58,165.22l18.3,102.23L53.81,386.58s90.07,19.3,134.55-1.18l-4.12-226.91L139.76,141Z"/><path class="cls-2" d="M134.85,117.14l-1.8,24.12-.82,11.06c-14.11,10-31-3.87-31-3.87L94.51,109.9c6.51-4.22,22.55,1.73,32.46,4.68C131.64,116,134.85,117.14,134.85,117.14Z"/><path class="cls-10" d="M134.85,117.14l-1.8,24.12c-16.26-4.07-29.52-27-29.52-27l23.44.28C131.64,116,134.85,117.14,134.85,117.14Z"/><path class="cls-2" d="M187.14,52.73c0,.85,0,1.76,0,2.65v.12c-.06,2.92-.18,5.94-.37,9,0,.29,0,.58-.05.87-.3,4.93-.76,10-1.29,15.15-.13,1.1-.25,2.2-.38,3.3-.4,3.55-.85,7.08-1.32,10.56-.09.69-.19,1.38-.29,2.08-.19,1.38-.39,2.74-.59,4.1-.43,3-.88,5.86-1.32,8.65a31.64,31.64,0,0,1-37.13,26.09c-17.26-3.27-34.87-7.76-48.32-13.54,0,0-.19-.39-.53-1.14a135.84,135.84,0,0,1-8-24.12,137.41,137.41,0,0,1-3-49.18C89.78,6.58,176,2.92,186,36.52c.07.39.14.78.2,1.18A100.06,100.06,0,0,1,187.14,52.73Z"/><path class="cls-11" d="M128.62,89.7c0,5.09-5.69,9.23-12.72,9.23s-12.72-4.14-12.72-9.23,5.7-9.24,12.72-9.24S128.62,84.6,128.62,89.7Z"/><path class="cls-11" d="M185.41,80.55c-.13,1.1-.25,2.2-.38,3.3-.4,3.55-.85,7.08-1.32,10.56-.09.69-.19,1.38-.29,2.08l-.36,2.43c-6.77-.22-12.15-4.27-12.15-9.23s5.69-9.23,12.72-9.23A17.39,17.39,0,0,1,185.41,80.55Z"/><path class="cls-12" d="M187.14,52.72c0,.87,0,1.76,0,2.65-5.49-5-4.09-17.66-4.09-17.66a10.75,10.75,0,0,1,3.2,0A100.23,100.23,0,0,1,187.14,52.72Z"/><path class="cls-12" d="M95.53,120.65a136.74,136.74,0,0,1-8.06-24.12l8.64,3.19S98.72,113.12,95.53,120.65Z"/><path class="cls-12" d="M138.75,75.4c0,3.54-1.5,6.42-3.44,6.44s-3.55-2.82-3.59-6.35,1.5-6.41,3.44-6.44S138.71,71.87,138.75,75.4Z"/><path class="cls-12" d="M175.26,75.4c0,3.54-1.5,6.42-3.44,6.44s-3.55-2.82-3.59-6.35,1.5-6.41,3.44-6.44S175.22,71.87,175.26,75.4Z"/><path class="cls-2" d="M97.32,69.91s-10-11.8-18.13-4.8c-9,7.72-1.73,33.43,16.7,32.63Z"/><path class="cls-10" d="M96.15,92.14a1.62,1.62,0,0,1-1.5-1.42c-1.68-13.17-9.66-15-9.74-15a1.62,1.62,0,0,1,.67-3.17c.42.09,10.33,2.35,12.29,17.78a1.63,1.63,0,0,1-1.41,1.82Z"/><path class="cls-10" d="M85.7,84a1.62,1.62,0,0,1-1-.41,1.6,1.6,0,0,1-.16-2.27,9.15,9.15,0,0,1,8.64-2.6,1.62,1.62,0,0,1-.67,3.17A6,6,0,0,0,87,83.45,1.66,1.66,0,0,1,85.7,84Z"/><path class="cls-10" d="M158,112.59a32.67,32.67,0,0,1-23-10.83,1.86,1.86,0,1,1,2.78-2.48c12.39,13.91,31.39,8.66,31.58,8.61a1.86,1.86,0,0,1,1,3.58A40,40,0,0,1,158,112.59Z"/><path class="cls-10" d="M152.57,120.94a19.24,19.24,0,0,1-13.71-6.65,2,2,0,1,1,3.13-2.38c.23.29,5.32,6.65,15.75,4.79a2,2,0,1,1,.69,3.87A24.64,24.64,0,0,1,152.57,120.94Z"/><path class="cls-10" d="M155.67,94.89a1.84,1.84,0,0,1-1.35-.71,1.86,1.86,0,0,1,.32-2.61l4.92-3.85-4.31-1.07a1.85,1.85,0,0,1-1.39-1.49l-2-11.83a1.86,1.86,0,0,1,3.67-.63l1.83,10.63L164.17,85a1.87,1.87,0,0,1,1.38,1.42,1.84,1.84,0,0,1-.68,1.85l-7.93,6.21A1.88,1.88,0,0,1,155.67,94.89Z"/><path class="cls-12" d="M83.48,63S70.2,39.43,73,29.41,85.81,18.92,85.81,18.92,106.23-2,137,.28C162.48,2.15,187.14-3.45,190.9,4c3.47,6.87-11.65,11.65-11.65,11.65s12.59-.93,15.38,2.33-.14,11-13.23,10.14c0,0,10.9.58,13.7,6.17s-9.79,7.69-21,5.36S118,37.57,108.18,44.32c0,0,2.1,12.34-4,17.24,0,0,4.66,16.32.23,20.28S97.05,63.26,83.48,63Z"/><path class="cls-12" d="M141.5,57v6.09s-11.13-2-18.68,2.67l-.88-5.07S128.3,54.37,141.5,57Z"/><path class="cls-12" d="M163.31,57v6.09s11.13-2,18.69,2.67l.87-5.07S176.51,54.37,163.31,57Z"/><path class="cls-13" d="M159.21,289.5v128H298.35v-128Zm91.27,21h-43.4a5.38,5.38,0,1,1,0-10.75h43.4a5.38,5.38,0,1,1,0,10.75Z"/><rect class="cls-14" x="167.97" y="401.55" width="48.97" height="4.45"/><rect class="cls-14" x="167.97" y="390.05" width="48.97" height="4.45"/><rect class="cls-14" x="235.85" y="318.82" width="52.97" height="34.69"/><rect class="cls-14" x="235.85" y="359.81" width="52.97" height="5.19"/><rect class="cls-14" x="235.85" y="401.18" width="52.97" height="5.19"/><path class="cls-2" d="M223.61,291.15s10,1.26,15.14,6.63c1.35,1.4-1.93,5.1-5.06,4.24,0,0,3.35,1.79,2.95,3.77-.86,4.34-4.37,3.23-4.37,3.23s2.29,3.77.59,6.17c-1.89,2.68-6.1,1.35-6.1,1.35s5,1.79,1.87,6.1c-2.43,3.3-26.19-6.2-34.55-20.26,0,0,4.2-12.7,7.72-14.57,0,0,7.7-3.33,14.61-3.74C216.41,284.07,225.88,281.42,223.61,291.15Z"/><path class="cls-3" d="M56.85,161c-13.56-1.84-21.53,4.4-24.49,11-5.25,11.73,3.4,29.47,12,40.06,9.18,11.29,30.31,27.19,49.91,48,0,0,24.92,23.64,101.53,44.65L202,287.22a193.92,193.92,0,0,1-29.09-19.92c-13.25-11.31-46.58-29.83-46.58-29.83S69.53,162.74,56.85,161Z"/></g></g></svg>