<svg xmlns="http://www.w3.org/2000/svg" viewBox="0 0 493.62 596.96"><defs><style>.cls-1{fill:#031821;}.cls-2{fill:#175275;}.cls-3{fill:#fefefe;}.cls-4{fill:#664008;}.cls-5{fill:#00000c;}.cls-6{fill:#fcfcfd;}.cls-7{fill:#b3cc3c;}.cls-8{fill:#125073;}</style></defs><g id="Capa_2" data-name="Capa 2"><g id="Información"><path class="cls-1" d="M246.61.11C299.41.11,352.22.17,405,0c4.46,0,5.72,1,5.54,5.53-.38,9.64-.16,19.29-.09,28.94a9.13,9.13,0,0,1-1.85,6.1C399,53,389.4,65.48,380,78.08c-1.76,2.35-3.8,2.36-6.19,2.36-26.07,0-52.13,0-78.19-.06-3,0-5.25,0-6.14,3.86s-4.5,5.31-7.8,6.71c-14.92,6.36-30.59,6.57-46.38,5.38a65.62,65.62,0,0,1-23-5.63c-3.76-1.74-7.24-3.9-8.05-8.43-.55-3.08-2.89-1.78-4.42-1.79-24.2-.08-48.42-.53-72.6.18-9.31.27-15-2.4-20.09-10.31C99.8,59.07,92.44,47.68,83.26,37.71c-1.08-1.17-.62-2.57-.62-3.86,0-9.65.21-19.3-.14-28.94C82.35.65,83.92,0,87.69,0Q167.15.21,246.61.11Zm-155.43,38c8.89,12.47,17.2,24.1,25.49,35.75,1.23,1.72,3,1.24,4.64,1.24q125.15,0,250.29.07a6.62,6.62,0,0,0,5.95-2.9c5.34-7.2,10.86-14.26,16.3-21.39,3.1-4.07,6.16-8.18,9.62-12.77Z"/><path class="cls-2" d="M326,327.6c-.36-5.74-.54-11.49-1.11-17.21-1.66-16.63-6.5-32.08-17.17-45.35-26.24-32.62-76.79-30.08-96.12,5.82-19.52,36.25-19.12,73.7.51,109.75,11.55,21.19,30.52,33.07,55.64,31.14s41.54-16.28,50.7-39.34C324.14,358,325.75,343,326,327.6ZM235.8,411.13c-2.16-1.38-3.21-2.09-4.29-2.74a66.19,66.19,0,0,1-23.45-23.45c-13.78-23.33-17.64-48.68-14.52-75.27.47-4.05.19-5.69-4.5-5.52-15.15.55-30,2.64-44.29,7.75-14,5-26.24,12.49-34.4,25.47-11.17,17.79-8.52,33,8.21,45.65,10.83,8.18,23.25,13,36.16,16.74,23.37,6.72,47.32,9.77,71.5,11.35C229,411.28,231.7,411.13,235.8,411.13Zm56.75-.31c25.58-.46,67.92-9.37,89.91-18.78,9.55-4.09,18.47-9.16,25.7-16.83,11.44-12.16,12-27.49,1.24-40.27-4.86-5.79-11-10-17.63-13.46-18.54-9.57-38.7-12.63-59.12-14.71-2.92-.3-2.62,1.25-2.43,3a161.08,161.08,0,0,1-.11,36.92C326.91,373.08,317.78,396.12,292.55,410.82Zm124-76.22c.52-.61.69-.72.71-.84,4.27-35.95-2-70.67-12.24-104.93-.67-2.25-2.09-2.63-4.17-2.68-8.95-.22-17.91-.39-26.84-1-4.34-.29-5.6,1-5.06,5.3,2.77,22.19.65,43.53-11.69,63-1.17,1.85-2,4-3.2,5.75-2.34,3.36-1.85,4.48,2.46,5.3C379.21,308.78,400.91,315.38,416.52,334.6Zm-305-8.53c3.49-2.91,6.29-5.52,9.36-7.77,14.56-10.71,31.35-15.5,49-17.8,3.73-.49,5-1.46,4.83-5.48-1-20.75,1.34-41.16,7.9-60.94,1.18-3.58-.08-4.22-3.21-4.63a73.84,73.84,0,0,1-26.83-8.65c-2.69-1.52-3.42-.51-4.45,1.62-11,22.82-21.27,46-29,70.13C115.65,303.26,112.56,314.07,111.49,326.07ZM346.84,157.93a15.37,15.37,0,0,0,.11,8.94A99.33,99.33,0,0,0,361.9,198.3c4.74,6.66,9,13.49,10.84,21.57.43,1.9,1.32,2.43,3.15,2.37,6.09-.22,12.18-.37,18.27-.4,2.07,0,3.11-.49,3-2.85-.69-10.8,1.55-21,5.45-31.13a45.46,45.46,0,0,0,.87-29.94c-4.07-13.5-15.12-20.94-32.47-22.09-3-.19-6.48-.78-8.29,2.36s.26,5.71,1.84,8.41c4.37,7.44,4.76,15.38,2.13,23.48-.85,2.61-2.31,5-5.49,5.33s-4.91-1.86-6.29-4.24c-1.18-2-2-4.31-3.12-6.37C350.47,162.51,349.86,159.72,346.84,157.93Zm-147.6-15.15c-7,.43-13.28-.2-18.71,3.35C167,155,157.91,166.7,157.12,183.67c-.28,6.09-.16,12.14.1,18.22.76,17.36,1.23,17.93,18.29,21.39a4.59,4.59,0,0,1,.48.17c1.64.67,2.75.17,3.91-1.23,9.29-11.22,19.92-21.18,29.87-31.8,3.57-3.82,7.35-7.52,9.49-12.43.72-1.66,2.15-4,.5-5.16-2-1.46-3,1.34-4.22,2.5-3.64,3.55-7,7.48-12.15,8.86-2.95.79-6.23,1.25-8.54-1.41-2.17-2.51-1.24-5.47,0-8.11a53.23,53.23,0,0,1,4-7.07,172.5,172.5,0,0,1,15.3-18.93c.84-.94,2.67-1.81,1.84-3.2-.52-.87-2.3-1.22-3.57-1.37C207.7,143.53,203,143.14,199.24,142.78Zm147.65,40.75c-1.14-3-2.08-5.52-3-8-2-5.42-3.59-10.93-2.89-16.78.34-2.81,1.62-5.12,4.62-6s5.29.42,7,2.73A45.43,45.43,0,0,1,356,161c1.47,2.72,2.27,5.84,4.8,8.77a22.8,22.8,0,0,0-.08-18.67c-.86-2-2.24-2.2-4-2.19-8.62,0-17.23.09-25.84,0-2.53,0-3.71.77-3.84,3.37-.42,8.67,1.07,16.85,6.34,24C336.45,180.39,340.31,183.53,346.89,183.53Zm-3.75-47.88a40.24,40.24,0,0,1,0-4.53c.41-3.63-.85-4.13-3.78-2.3a23.26,23.26,0,0,0-8.13,8.73c-3.21,5.86-3.09,6,3.57,6C343.14,143.59,343.14,143.59,343.14,135.65Zm9.49,7.86c3,.63,4.35-.41,4-3.69a6.52,6.52,0,0,1,.95-3.86c1.26-2,.2-3.12-1.12-4.29-2-1.82-4.05-3.78-6.89-3.93-1.4-.07-1,1.49-1,2.4-.05,3.21.18,6.45-.08,9.64S349.56,144.11,352.63,143.51ZM236,411.7l.35-.24c-.11-.1-.21-.27-.32-.28s-.23.15-.35.23Z"/><path class="cls-3" d="M91.18,38.09H403.47c-3.46,4.59-6.52,8.7-9.62,12.77-5.44,7.13-11,14.19-16.3,21.39a6.62,6.62,0,0,1-5.95,2.9q-125.15-.09-250.29-.07c-1.62,0-3.41.48-4.64-1.24C108.38,62.19,100.07,50.56,91.18,38.09Z"/><path class="cls-4" d="M326,327.6c-.23,15.35-1.84,30.42-7.55,44.81-9.16,23.06-25.47,37.4-50.7,39.34s-44.09-9.95-55.64-31.14c-19.63-36.05-20-73.5-.51-109.75,19.33-35.9,69.88-38.44,96.12-5.82,10.67,13.27,15.51,28.72,17.17,45.35C325.44,316.11,325.62,321.86,326,327.6Z"/><path class="cls-5" d="M216.26,191.3c3.13-3.51,6.24-4.76,10.87-4.72,27.08.22,54.17.09,81.25.13,2.7,0,4.61.26,4.58-3.78-.23-25.22-.16-50.44,0-75.67,0-2.93-.91-3.66-3.73-3.66q-98.28.11-196.55,0c-3.44,0-4.16,1.14-4.15,4.37q.19,37.32,0,74.65c0,3.49,1.12,4.2,4.3,4.15,11.68-.16,23.36-.08,35,0a23.23,23.23,0,0,0,3.73.11l.43-5.48c-.95,0-.95,0-3.22,0-10.49-.09-21-.14-31.49,0-2.81.05-3.35-1-3.34-3.5q.12-32.5,0-65c0-3.22,1.15-4,4.14-3.94q92.7.1,185.4,0c2.89,0,4.2.53,4.18,3.85-.14,22-.07,44-.09,66,0,1,.3,2.08-.92,2.64l-82.27-.11Z"/><path class="cls-2" d="M222.33,181.9c.45-2.63,3.13-5.81,3.3-8.46a5.88,5.88,0,0,0-3.64-6.16,6.35,6.35,0,0,0-7.12,1c-2.51,2.32-4.88,4.78-7.38,7.12a19,19,0,0,1-3.29,2.49c-1.37.81-3,2.2-4.35.73-1-1.16.4-2.82,1.14-4.11,5.42-9.27,12.64-17.12,19.83-25,3.52-3.85,3.05-7.83-1.78-9-16.32-4-32.91-6.88-47.41,5.09-10.27,8.46-18.06,18.82-19.43,32.7l-.82,10.52c0,8.21,0,16.42,0,24.55-3.34-4-4.56-.76-6.19,2.53-7.56,15.32-14.79,30.79-21.09,46.67-8.06,20.29-15.31,40.83-18.21,62.64-.65,4.93-.44,9.79-2.84,14.71-9.16,18.82-5.43,33.5,11.07,46.54,13.71,10.83,29.81,16.56,46.52,20.46a428.61,428.61,0,0,0,127.49,10c23.81-1.63,47.44-4.85,70.56-11,16.4-4.39,32.4-9.85,46.17-20.22,11.61-8.75,19.19-20,17.36-35-.77-6.39.07-12.3.87-18.41.2-1.51.3-3,.42-4.55,2.79-35.31-3.77-69.33-14.09-102.85-.68-2.23-1.28-4.23-4.26-3.86-2,.25-2.75-1.1-2.65-2.8.36-6.71-.48-13.53,2.3-20a72,72,0,0,0,5.86-23.51c1.34-19.55-7.07-34.72-22.78-40.8a50.63,50.63,0,0,0-21.42-3.3,6.16,6.16,0,0,1-5.34-1.88c-10.8-10.58-24.49-9.34-32.71,3.32-9.05,13.94-9.14,28.81-2,43.5,3.68,7.59,9.75,13.29,18.85,13.45,3.63.07,5.42,1.21,7,4.24a105,105,0,0,0,6.55,10.24,58.36,58.36,0,0,1,7.1,12.84c.39,1.07,1.31,2.91,0,3-5.05.43-2.7,3.93-2.51,6,2.12,22.73,1.52,44.73-10.54,65.45-4.83,8.3-8.92,13.86-19.46,10.89-3-.85-4.55-1.4-5.18-4.66a81.14,81.14,0,0,0-13-31.12c-21.11-30.45-63-38.16-91.73-16.8-14,10.37-21.36,25-26.12,41.23-2.53,8.6-2.46,8.34-11.42,8.89-4.64.28-6.15-1.05-6.2-5.67-.23-21.32,2.32-42.19,9.47-62.35,1.29-3.63,2.56-6.66-3.3-6.68,1.31-3,3.43-4.71,5.26-6.64,8.38-8.83,15.74-17.42,23.85-26.48Z"/><path class="cls-6" d="M235.8,411.13c-4.1,0-6.85.15-9.58,0-24.18-1.58-48.13-4.63-71.5-11.35-12.91-3.71-25.33-8.56-36.16-16.74-16.73-12.63-19.38-27.86-8.21-45.65,8.16-13,20.43-20.48,34.4-25.47,14.28-5.11,29.14-7.2,44.29-7.75,4.69-.17,5,1.47,4.5,5.52-3.12,26.59.74,51.94,14.52,75.27a66.19,66.19,0,0,0,23.45,23.45C232.59,409,233.64,409.75,235.8,411.13Z"/><path class="cls-7" d="M292.55,410.82c25.23-14.7,34.36-37.74,37.56-64.15a161.08,161.08,0,0,0,.11-36.92c-.19-1.73-.49-3.28,2.43-3,20.42,2.08,40.58,5.14,59.12,14.71,6.66,3.44,12.77,7.67,17.63,13.46,10.72,12.78,10.2,28.11-1.24,40.27C400.93,382.88,392,388,382.46,392,360.47,401.45,318.13,410.36,292.55,410.82Z"/><path class="cls-7" d="M416.52,334.6c-15.61-19.22-37.31-25.82-60-30.13-4.31-.82-4.8-1.94-2.46-5.3,1.25-1.79,2-3.9,3.2-5.75,12.34-19.43,14.46-40.77,11.69-63-.54-4.35.72-5.59,5.06-5.3,8.93.6,17.89.77,26.84,1,2.08,0,3.5.43,4.17,2.68,10.22,34.26,16.51,69,12.24,104.93C417.21,333.88,417,334,416.52,334.6Z"/><path class="cls-6" d="M111.49,326.07c1.07-12,4.16-22.81,7.57-33.52,7.71-24.18,18-47.31,29-70.13,1-2.13,1.76-3.14,4.45-1.62a73.84,73.84,0,0,0,26.83,8.65c3.13.41,4.39,1.05,3.21,4.63-6.56,19.78-8.86,40.19-7.9,60.94.19,4-1.1,5-4.83,5.48-17.6,2.3-34.39,7.09-49,17.8C117.78,320.55,115,323.16,111.49,326.07Z"/><path class="cls-6" d="M346.84,157.93c3,1.79,3.63,4.58,4.91,6.87,1.16,2.06,1.94,4.33,3.12,6.37,1.38,2.38,3,4.63,6.29,4.24s4.64-2.72,5.49-5.33c2.63-8.1,2.24-16-2.13-23.48-1.58-2.7-3.59-5.36-1.84-8.41s5.29-2.55,8.29-2.36c17.35,1.15,28.4,8.59,32.47,22.09a45.46,45.46,0,0,1-.87,29.94c-3.9,10.12-6.14,20.33-5.45,31.13.15,2.36-.89,2.83-3,2.85-6.09,0-12.18.18-18.27.4-1.83.06-2.72-.47-3.15-2.37-1.8-8.08-6.1-14.91-10.84-21.57A99.33,99.33,0,0,1,347,166.87,15.37,15.37,0,0,1,346.84,157.93Z"/><path class="cls-6" d="M199.24,142.78c3.74.36,8.46.75,13.15,1.32,1.27.15,3.05.5,3.57,1.37.83,1.39-1,2.26-1.84,3.2a172.5,172.5,0,0,0-15.3,18.93,53.23,53.23,0,0,0-4,7.07c-1.25,2.64-2.18,5.6,0,8.11,2.31,2.66,5.59,2.2,8.54,1.41,5.13-1.38,8.51-5.31,12.15-8.86,1.18-1.16,2.19-4,4.22-2.5,1.65,1.19.22,3.5-.5,5.16-2.14,4.91-5.92,8.61-9.49,12.43-10,10.62-20.58,20.58-29.87,31.8-1.16,1.4-2.27,1.9-3.91,1.23a4.59,4.59,0,0,0-.48-.17c-17.06-3.46-17.53-4-18.29-21.39-.26-6.08-.38-12.13-.1-18.22.79-17,9.83-28.64,23.41-37.54C186,142.58,192.2,143.21,199.24,142.78Z"/><path class="cls-6" d="M346.89,183.53c-6.58,0-10.44-3.14-13.53-7.31-5.27-7.11-6.76-15.29-6.34-24,.13-2.6,1.31-3.4,3.84-3.37,8.61.13,17.22.07,25.84,0,1.79,0,3.17.2,4,2.19a22.8,22.8,0,0,1,.08,18.67c-2.53-2.93-3.33-6-4.8-8.77a45.43,45.43,0,0,0-3.39-5.61c-1.71-2.31-3.92-3.68-7-2.73s-4.28,3.24-4.62,6c-.7,5.85.88,11.36,2.89,16.78C344.81,178,345.75,180.5,346.89,183.53Z"/><path class="cls-6" d="M343.14,135.65c0,7.94,0,7.94-8.31,7.94-6.66,0-6.78-.18-3.57-6a23.26,23.26,0,0,1,8.13-8.73c2.93-1.83,4.19-1.33,3.78,2.3A40.24,40.24,0,0,0,343.14,135.65Z"/><path class="cls-6" d="M352.63,143.51c-3.07.6-4.42-.46-4.17-3.73s0-6.43.08-9.64c0-.91-.38-2.47,1-2.4,2.84.15,4.87,2.11,6.89,3.93,1.32,1.17,2.38,2.28,1.12,4.29a6.52,6.52,0,0,0-.95,3.86C357,143.1,355.61,144.14,352.63,143.51Z"/><path class="cls-8" d="M224.34,181.34l82.27.11c-1.37,1.47-3.16.92-4.78.92q-36.39,0-72.78,0C227.44,182.37,225.63,183,224.34,181.34Z"/><path class="cls-6" d="M236,411.7l-.32-.29c.12-.08.24-.24.35-.23s.21.18.32.28Z"/><path class="cls-7" d="M246.65,485.11H476.23c12,0,17.39,5.29,17.39,17.25q0,39.1,0,78.21c0,10.49-5.78,16.38-16.3,16.38q-230.58,0-461.18,0C5.62,596.94,0,591.09,0,580.39Q0,541,0,501.66c0-11,5.6-16.54,16.56-16.55Zm-97.47,21c-.36-1.83-1.78-1.5-2.82-1.72-7.76-1.67-15.58-3.13-23.29-5-3.4-.83-5,.13-6.73,3.12-9.4,16.64-19.07,33.13-28.54,49.74-1.72,3-2.76,3.87-4.8.18-3.53-6.36-7.51-12.46-11.16-18.76-1.22-2.11-2.19-3-4.62-1.35-5,3.41-10.24,6.6-15.48,9.7-2.3,1.35-2.2,2.36-.48,4.18,10.59,11.18,21.15,22.39,31.56,33.73,2.06,2.24,3.13,2.18,5.05-.12q29.82-35.94,59.81-71.74C148.22,507.41,148.71,506.73,149.18,506.12Zm55.41,16.61c-11.11,0-18.36,7.77-18.42,19.71,0,12.2,7.26,20,18.7,19.91,11-.07,18.23-8,18.18-19.93S215.64,522.73,204.59,522.73Zm59.89,20.21c0,5.07.12,10.14-.05,15.2-.09,2.8,1.14,3.41,3.64,3.37s4-.39,3.71-3.29a16.5,16.5,0,0,1,0-4.55c.34-1.93-1.49-4.68,1.62-5.65s5.06.9,6.62,3.34c1.72,2.71,3.68,5.27,5.24,8.07,1.83,3.29,5.19,2.62,7.09,1.69,2.67-1.31-.23-3.35-1-4.81a58.35,58.35,0,0,0-5.1-7.54c-1.19-1.54-1.29-2.45.54-3.53,4.92-2.91,6-7.32,4.8-12.65-1.3-5.71-5.53-7.92-10.64-8.59-3.82-.5-7.75-.11-11.63-.28-3.62-.15-5.18,1.18-4.92,5C264.71,533.47,264.48,538.21,264.48,542.94Zm128.4-.77c-.08,12.57,6.78,20.16,18.24,20.18,11.26,0,18.31-7.53,18.35-19.66s-7.05-19.92-18.08-20C400.05,522.69,393,530.15,392.88,542.17Zm-163,.77c0,5.07.12,10.14,0,15.2-.1,2.79,1.13,3.41,3.63,3.37s4-.4,3.71-3.29a17.32,17.32,0,0,1,0-4.55c.34-1.93-1.48-4.68,1.63-5.64s5,.89,6.62,3.33c1.72,2.7,3.68,5.27,5.23,8.06,1.83,3.29,5.2,2.63,7.1,1.7,2.7-1.32-.27-3.32-1.05-4.78a57.59,57.59,0,0,0-5.06-7.56c-1.18-1.54-1.3-2.44.53-3.54,4.85-2.93,6.06-7.31,4.81-12.66-1.33-5.69-5.54-7.92-10.66-8.58-3.83-.49-7.75-.11-11.63-.28-3.62-.15-5.17,1.19-4.92,5C230.14,533.47,229.91,538.21,229.91,542.94Zm69.43-.41h0c0,5.23.16,10.48-.06,15.7-.11,2.44.48,3.32,3,3.27,6.42-.13,12.84-.09,19.26,0,2.14,0,3.5-.27,3.47-3,0-2.45-.9-3.3-3.28-3.18-2.7.14-5.4,0-8.11,0-7.88,0-8-.24-7.28-8.26.19-2.13.91-3,3.05-3,3.2.09,6.42-.07,9.62,0,2.32.08,2.81-1.05,2.81-3.09s-.57-3.13-2.85-3c-3.21.12-6.43-.11-9.63.06s-3-1.86-2.94-4-.78-4.63,2.91-4.49,7.44-.07,11.15.06c2.32.07,3.34-.64,3.35-3.14s-1.3-3.05-3.48-3c-5.91.08-11.82.1-17.73,0-2.4-.05-3.28.85-3.23,3.24C299.42,532.05,299.34,537.29,299.34,542.53Zm47.73,19.82c2.52.22,5.29-.51,8.1-1.12,3.11-.67,3-2.33,2.18-4.83-1.06-3.16-2.92-1.34-4.44-.93-8.28,2.26-15-.25-16.59-6.88-1.38-5.63-1.89-11.53,2.47-16.32,4.11-4.52,9.35-4.17,14.52-2.3,2.17.78,3,.27,3.69-1.72s.44-3.39-1.84-4.33c-6.81-2.8-16.33-1.26-21.36,3.65-5.75,5.61-7.55,15.79-4.27,24.09C332.48,559.09,337.69,562.35,347.07,562.35Zm-175.82,0a20,20,0,0,0,7-.82c2-.71,4.94-.22,3.87-4.24s-3.24-2.22-5.31-1.66c-9.55,2.6-16-1.7-16.67-11.19-.89-12.2,5.59-17.69,17.42-14.5,2.33.63,3.36.43,4-1.91.52-1.79.86-3-1.38-4-6.53-2.81-16.59-1.44-21.5,3.16-6.1,5.73-7.91,15.93-4.43,24.92C156.93,558.91,162.66,562.37,171.25,562.34Zm201.48-16.76c0,3.72,0,7.43,0,11.15,0,2.58-.47,4.95,3.66,4.85,3.79-.1,3.41-2.23,3.4-4.64,0-5.91,0-11.82,0-17.73,0-8.82,0-8.93,8.54-9.44,2.44-.15,3.22-1,3.24-3.34s-1-2.86-3.09-2.85q-12.17.1-24.33,0c-2.2,0-2.95.89-2.93,3s.52,3.08,2.83,3.16c2.79.1,6.66-1.42,8.09.86s.53,5.86.61,8.88C372.77,541.52,372.73,543.55,372.73,545.58Z"/><path class="cls-6" d="M149.18,506.12c-.47.61-1,1.29-1.5,1.93q-29.93,35.85-59.81,71.74c-1.92,2.3-3,2.36-5.05.12-10.41-11.34-21-22.55-31.56-33.73-1.72-1.82-1.82-2.83.48-4.18,5.24-3.1,10.44-6.29,15.48-9.7,2.43-1.65,3.4-.76,4.62,1.35,3.65,6.3,7.63,12.4,11.16,18.76,2,3.69,3.08,2.83,4.8-.18,9.47-16.61,19.14-33.1,28.54-49.74,1.69-3,3.33-3.95,6.73-3.12,7.71,1.9,15.53,3.36,23.29,5C147.4,504.62,148.82,504.29,149.18,506.12Z"/><path class="cls-6" d="M204.59,522.73c11,0,18.41,7.85,18.46,19.69s-7.15,19.86-18.18,19.93c-11.44.07-18.75-7.71-18.7-19.91C186.23,530.5,193.48,522.74,204.59,522.73Zm10.95,19.94c0-4.15-.7-8.07-3.9-11.09a10.24,10.24,0,0,0-14.16,0c-5.07,4.85-5.35,16.1-.53,21.4a10.26,10.26,0,0,0,14.13,1C214.63,551.06,215.48,547,215.54,542.67Z"/><path class="cls-6" d="M264.48,542.94c0-4.73.23-9.47-.07-14.18-.26-3.86,1.3-5.19,4.92-5,3.88.17,7.81-.22,11.63.28,5.11.67,9.34,2.88,10.64,8.59,1.22,5.33.12,9.74-4.8,12.65-1.83,1.08-1.73,2-.54,3.53a58.35,58.35,0,0,1,5.1,7.54c.79,1.46,3.69,3.5,1,4.81-1.9.93-5.26,1.6-7.09-1.69-1.56-2.8-3.52-5.36-5.24-8.07-1.56-2.44-3.5-4.3-6.62-3.34s-1.28,3.72-1.62,5.65a16.5,16.5,0,0,0,0,4.55c.27,2.9-1.33,3.26-3.71,3.29s-3.73-.57-3.64-3.37C264.6,553.08,264.48,548,264.48,542.94Zm11.87-13.23c-4.47,0-4.6.22-4.6,6.64,0,2.85-.65,5.82,4.08,5.47,6-.45,8.71-2.1,8.72-6.15S281.84,529.69,276.35,529.71Z"/><path class="cls-6" d="M392.88,542.17c.07-12,7.17-19.48,18.51-19.44,11,0,18.13,7.87,18.08,20s-7.09,19.68-18.35,19.66C399.66,562.33,392.8,554.74,392.88,542.17Zm29.45.28c-.72-4.94-1.27-9.89-6.41-12.47a9.78,9.78,0,0,0-10.54.54c-7.21,4.86-7.32,18.93-.19,23.92a9.85,9.85,0,0,0,11,.55C421.19,552.3,421.68,547.31,422.33,542.45Z"/><path class="cls-6" d="M229.91,542.94c0-4.73.23-9.47-.07-14.18-.25-3.85,1.3-5.19,4.92-5,3.88.17,7.8-.21,11.63.28,5.12.66,9.33,2.89,10.66,8.58,1.25,5.35,0,9.73-4.81,12.66-1.83,1.1-1.71,2-.53,3.54a57.59,57.59,0,0,1,5.06,7.56c.78,1.46,3.75,3.46,1.05,4.78-1.9.93-5.27,1.59-7.1-1.7-1.55-2.79-3.51-5.36-5.23-8.06-1.57-2.44-3.5-4.3-6.62-3.33s-1.29,3.71-1.63,5.64a17.32,17.32,0,0,0,0,4.55c.27,2.89-1.32,3.26-3.71,3.29s-3.73-.58-3.63-3.37C230,553.08,229.91,548,229.91,542.94Zm7-7.79c.11,3.52-1.05,7,4.12,6.67,6.24-.36,9.11-2.12,9-6.36-.09-3.91-2.88-5.58-8.39-5.82C236.67,529.42,236.58,532.34,236.87,535.15Z"/><path class="cls-6" d="M299.34,542.53c0-5.24.08-10.48,0-15.71-.05-2.39.83-3.29,3.23-3.24,5.91.1,11.82.08,17.73,0,2.18,0,3.49.39,3.48,3s-1,3.21-3.35,3.14c-3.71-.13-7.44.08-11.15-.06s-2.82,2.46-2.91,4.49-.24,4.13,2.94,4,6.42.06,9.63-.06c2.28-.09,2.86,1,2.85,3s-.49,3.17-2.81,3.09c-3.2-.11-6.42,0-9.62,0-2.14-.06-2.86.82-3.05,3-.73,8-.6,8.26,7.28,8.26,2.71,0,5.41.11,8.11,0,2.38-.12,3.25.73,3.28,3.18,0,2.69-1.33,3-3.47,3-6.42-.07-12.84-.11-19.26,0-2.5,0-3.09-.83-3-3.27.22-5.22.06-10.47.06-15.7Z"/><path class="cls-6" d="M347.07,562.35c-9.38,0-14.59-3.26-17.54-10.69-3.28-8.3-1.48-18.48,4.27-24.09,5-4.91,14.55-6.45,21.36-3.65,2.28.94,2.58,2.19,1.84,4.33s-1.52,2.5-3.69,1.72c-5.17-1.87-10.41-2.22-14.52,2.3-4.36,4.79-3.85,10.69-2.47,16.32,1.62,6.63,8.31,9.14,16.59,6.88,1.52-.41,3.38-2.23,4.44.93.83,2.5.93,4.16-2.18,4.83C352.36,561.84,349.59,562.57,347.07,562.35Z"/><path class="cls-6" d="M171.25,562.35c-8.59,0-14.32-3.44-17-10.25-3.48-9-1.67-19.19,4.43-24.92,4.91-4.6,15-6,21.5-3.16,2.24,1,1.9,2.21,1.38,4-.68,2.34-1.71,2.54-4,1.91-11.83-3.19-18.31,2.3-17.42,14.5.69,9.49,7.12,13.79,16.67,11.19,2.07-.56,4.24-2.32,5.31,1.66s-1.83,3.53-3.87,4.24A20.21,20.21,0,0,1,171.25,562.35Z"/><path class="cls-6" d="M372.73,545.58c0-2,0-4.06,0-6.08-.08-3,.78-6.66-.61-8.88s-5.3-.76-8.09-.86c-2.31-.08-2.81-1.14-2.83-3.16s.73-3,2.93-3q12.17.09,24.33,0c2.07,0,3.11.58,3.09,2.85s-.8,3.19-3.24,3.34c-8.54.51-8.54.62-8.54,9.44,0,5.91,0,11.82,0,17.73,0,2.41.39,4.54-3.4,4.64-4.13.1-3.69-2.27-3.66-4.85C372.76,553,372.73,549.3,372.73,545.58Z"/><path class="cls-7" d="M215.54,542.67c-.06,4.34-.91,8.39-4.46,11.34A10.26,10.26,0,0,1,197,553c-4.82-5.3-4.54-16.55.53-21.4a10.24,10.24,0,0,1,14.16,0C214.84,534.6,215.51,538.52,215.54,542.67Z"/><path class="cls-7" d="M276.35,529.71q8.23,0,8.2,6c0,4.05-2.73,5.7-8.72,6.15-4.73.35-4.08-2.62-4.08-5.47C271.75,529.93,271.88,529.72,276.35,529.71Z"/><path class="cls-7" d="M422.33,542.45c-.65,4.86-1.14,9.85-6.16,12.54a9.85,9.85,0,0,1-11-.55c-7.13-5-7-19.06.19-23.92a9.78,9.78,0,0,1,10.54-.54C421.06,532.56,421.61,537.51,422.33,542.45Z"/><path class="cls-7" d="M236.87,535.15c-.29-2.81-.2-5.73,4.73-5.51,5.51.24,8.3,1.91,8.39,5.82.11,4.24-2.76,6-9,6.36C235.82,542.11,237,538.67,236.87,535.15Z"/></g></g></svg>