<svg xmlns="http://www.w3.org/2000/svg" xmlns:xlink="http://www.w3.org/1999/xlink" viewBox="0 0 664.23 633.89"><defs><style>.cls-1{fill:none;}.cls-2{fill:url(#Degradado_sin_nombre_14);}.cls-3{fill:#ffae8a;}.cls-4{fill:url(#Degradado_sin_nombre_14-2);}.cls-5{fill:#fff;}.cls-6{clip-path:url(#clip-path);}.cls-7{fill:#eaeaea;}.cls-8{fill:#991900;}.cls-9{fill:#ffcfca;}.cls-10{fill:#f9bfbb;}.cls-11{fill:#1f3c49;}.cls-12{fill:#d55454;}.cls-13{fill:#f37c7c;}.cls-14{fill:#97c6b7;}.cls-15{fill:#83b2a3;}.cls-16{fill:#263238;}.cls-17{fill:#455a64;}.cls-18{fill:#ff725e;}.cls-19{opacity:0.2;}</style><linearGradient id="Degradado_sin_nombre_14" x1="580.99" y1="100.3" x2="590.32" y2="100.3" gradientUnits="userSpaceOnUse"><stop offset="0" stop-color="#df1d17"/><stop offset="1" stop-color="#f0500f"/></linearGradient><linearGradient id="Degradado_sin_nombre_14-2" x1="444.09" y1="101.22" x2="581.12" y2="101.22" xlink:href="#Degradado_sin_nombre_14"/><clipPath id="clip-path"><rect class="cls-1" x="483.18" y="62.86" width="58.65" height="73.46"/></clipPath></defs><g id="Capa_2" data-name="Capa 2"><g id="Información"><rect class="cls-2" x="580.99" width="9.33" height="200.61"/><rect class="cls-3" x="445.64" y="1.55" width="133.93" height="199.34" rx="0.13"/><path class="cls-4" d="M581,202.44H444.23a.14.14,0,0,1-.14-.14V.13a.13.13,0,0,1,.14-.13H581a.13.13,0,0,1,.13.13V202.3A.13.13,0,0,1,581,202.44Zm-133.66-3.1H577.88a.14.14,0,0,0,.14-.14V3.24a.14.14,0,0,0-.14-.14H447.33a.14.14,0,0,0-.14.14v196A.14.14,0,0,0,447.33,199.34Z"/><rect class="cls-5" x="459.13" y="13.85" width="107.19" height="174.61" rx="0.13"/><g class="cls-6"><rect class="cls-7" x="483.18" y="62.86" width="58.65" height="73.46"/><path class="cls-8" d="M538.77,115.29c.11-7.63.2-15.5-1.49-22.94-1.65-7.29-5-13.77-10.71-18.32-6-4.78-14.65-5.81-21.36-2-16.25,9.24-17.32,32-17,49,.3,17.27-2.75,64.5-3.38,64.42,17.8,4.61,40.33,3.92,57,.44C541.26,164.08,538.43,137.54,538.77,115.29Z"/><polygon class="cls-9" points="522.88 137.23 504.28 136.51 506.24 124.43 507.44 117.01 519.53 117.3 520.98 125.92 522.88 137.23"/><path class="cls-10" d="M521,125.92a25.18,25.18,0,0,1-11.53-.51,33,33,0,0,1-3.21-1l1.2-7.42,12.1.29Z"/><path class="cls-9" d="M531.35,93.59c-.5-6.62-3.06-12.74-8.55-16.3a16.38,16.38,0,0,0-17.16.06c-9.68,6-10.9,19.39-8.51,29.68a23,23,0,0,0,6.92,12.3c4,3.46,9.68,4.89,14.61,2.75C528.42,117.83,532.08,103.43,531.35,93.59Z"/><path class="cls-11" d="M520.31,98.78c-.85,0-1.56,1-1.58,2.32s.64,2.37,1.49,2.38,1.56-1,1.58-2.32S521.16,98.8,520.31,98.78Z"/><path class="cls-11" d="M507.08,98.46c-.85,0-1.56,1-1.58,2.33s.65,2.36,1.5,2.37,1.55-1,1.57-2.32S507.93,98.48,507.08,98.46Z"/><path class="cls-11" d="M512.15,104.33a1.45,1.45,0,0,1,1.33-.29,1.72,1.72,0,0,1,1,2.45,1.42,1.42,0,0,1-1.13.76,2,2,0,0,0,.64-1,1.52,1.52,0,0,0-.08-1,1.55,1.55,0,0,0-.67-.74A2,2,0,0,0,512.15,104.33Z"/><path class="cls-8" d="M516.35,73.5c.56.2-1.13,6.56-1.34,7.23A22.39,22.39,0,0,1,504,94c-3.05,1.66-6.88,3.09-10.4,2.44a5.82,5.82,0,0,1-.8-.2c.39-3.78.87-7.72,2.48-11.17,2.89-6.18,9-10.49,15.68-12.09A9.62,9.62,0,0,1,516.35,73.5Z"/><path class="cls-8" d="M513.57,74.18c-.53.17.76,6.18.93,6.81a20.88,20.88,0,0,0,9.63,12.91c2.78,1.69,6.29,3.19,9.6,2.75a4.64,4.64,0,0,0,.76-.15C534.3,93,534,89.25,532.67,86c-2.42-5.9-8-10.2-14.08-12A9,9,0,0,0,513.57,74.18Z"/><path class="cls-9" d="M530.19,98.69A11,11,0,0,1,532,97.44a1.47,1.47,0,0,1,1.19-.24c.51.21.72,1,.77,1.51a13.45,13.45,0,0,1-.37,5.46c-.78,2.49-2,3.25-3.45,4.52a2.59,2.59,0,0,1-2.47.81,15.46,15.46,0,0,0,2.08-7.19A26.11,26.11,0,0,1,530.19,98.69Z"/><path class="cls-9" d="M496.86,97.89a13.25,13.25,0,0,0-1.79-1.34,1.46,1.46,0,0,0-1.2-.29c-.53.18-.78.95-.86,1.46a13,13,0,0,0,.12,5.48c.67,2.53,1.91,3.34,3.29,4.68a2.7,2.7,0,0,0,2.48.93,15.18,15.18,0,0,1-1.77-7.28A24.77,24.77,0,0,0,496.86,97.89Z"/><path class="cls-11" d="M504.59,95.3a.35.35,0,0,1-.28-.15.36.36,0,0,1,.09-.48,4.16,4.16,0,0,1,4.34-.13.34.34,0,1,1-.34.59,3.49,3.49,0,0,0-3.61.11A.41.41,0,0,1,504.59,95.3Z"/><path class="cls-11" d="M518.27,95.63a.36.36,0,0,1-.28-.15.35.35,0,0,1,.1-.48,4.14,4.14,0,0,1,4.34-.13.35.35,0,0,1,.12.47.34.34,0,0,1-.47.12,3.49,3.49,0,0,0-3.61.11A.36.36,0,0,1,518.27,95.63Z"/><path class="cls-12" d="M519.91,110.75a6.16,6.16,0,0,1-12.31-.3,5.78,5.78,0,0,1,.15-1.19l12.07.29A6,6,0,0,1,519.91,110.75Z"/><path class="cls-13" d="M518,115.09a6.15,6.15,0,0,1-8.64-.21,6.17,6.17,0,0,1,8.64.21Z"/><path class="cls-5" d="M518.94,109.53a6.15,6.15,0,0,1-10.31-.25Z"/><path class="cls-14" d="M525.31,134.69c-.34-1.79-.66-3.58-1-5.37-.15-.76-.13-1.88-1-2.12a7.42,7.42,0,0,0-1.94,0l-1.91.07c-1.39.06-2.79.07-4.18.06-2.79,0-5.58-.18-8.35-.42-.48,0-.95-.08-1.42-.12a5.51,5.51,0,0,0-2.06-.07c-.74.24-.78,1.18-.91,1.83-.18.9-.31,1.81-.48,2.72s-.3,1.69-.44,2.54c-.06.36-.14.73-.21,1.09a7.17,7.17,0,0,0-.22,1c0,.7.88.89,1.4,1a49,49,0,0,0,16,1.55,37.18,37.18,0,0,0,4.35-.38c.78-.13,2.15-.25,2.62-1S525.47,135.58,525.31,134.69Z"/><path class="cls-15" d="M504,127.71a22.06,22.06,0,0,1-.52,4.28c-.14.68-.29,1.36-.44,2a8.61,8.61,0,0,0-.34,2.07c0,.29.46.3.45,0a8.88,8.88,0,0,1,.36-2.11c.16-.7.31-1.39.45-2.09a22.73,22.73,0,0,0,.5-4.19C504.46,127.43,504,127.41,504,127.71Z"/><path class="cls-15" d="M506.37,128c0-.29-.47-.3-.45,0,.09,1.47-.58,2.87-.88,4.28a18.94,18.94,0,0,0-.42,4.37.23.23,0,0,0,.46,0,18.55,18.55,0,0,1,.44-4.46C505.83,130.81,506.46,129.44,506.37,128Z"/><path class="cls-15" d="M507.74,128.1q-.35,4.35-.76,8.68a.17.17,0,0,0-.05.16l0,.2a.23.23,0,0,0,.46,0c.28-3,.55-6,.79-9C508.22,127.82,507.77,127.81,507.74,128.1Z"/><path class="cls-15" d="M509.88,128.09a.23.23,0,0,0-.44.12,12.27,12.27,0,0,1,.28,4.56c-.14,1.54-.38,3.08-.59,4.62,0,.29.42.3.45,0,.22-1.57.47-3.15.61-4.73A12.62,12.62,0,0,0,509.88,128.09Z"/><path class="cls-15" d="M512,128.44c0-.29-.47-.31-.45,0a44.74,44.74,0,0,1-.43,8.88c0,.29.41.29.46,0A44.74,44.74,0,0,0,512,128.44Z"/><path class="cls-15" d="M513.73,128.65a.23.23,0,0,0-.45,0c0,3-.12,6-.23,9a.23.23,0,0,0,.46,0C513.61,134.64,513.69,131.65,513.73,128.65Z"/><path class="cls-15" d="M515.61,128.56c0-.29-.46-.3-.46,0,.06,3,.11,6,.16,9,0,.29.46.31.46,0C515.72,134.54,515.66,131.55,515.61,128.56Z"/><path class="cls-15" d="M517.51,128.41c0-.29-.48-.3-.45,0,.31,3.07.5,6.15.55,9.23,0,.3.46.31.46,0C518,134.56,517.83,131.48,517.51,128.41Z"/><path class="cls-15" d="M519.31,128.45c0-.29-.49-.18-.44.11a77.39,77.39,0,0,1,1.1,9.1c0,.29.48.3.46,0A77.34,77.34,0,0,0,519.31,128.45Z"/><path class="cls-15" d="M521.33,128.07c-.05-.29-.49-.17-.45.11a89.78,89.78,0,0,1,1,9.12c0,.29.47.3.46,0C522.13,134.22,521.81,131.13,521.33,128.07Z"/><path class="cls-15" d="M523.11,128.23c-.06-.28-.51-.17-.44.11.61,2.83,1.09,5.69,1.46,8.56,0,.29.48.18.44-.11C524.21,133.92,523.72,131.06,523.11,128.23Z"/></g><path class="cls-16" d="M664.23,633.51c0,.21-148.71.38-332.1.38S0,633.72,0,633.51s148.67-.39,332.13-.39S664.23,633.3,664.23,633.51Z"/><path class="cls-16" d="M67,415a2.4,2.4,0,0,1,.2.45c.14.35.31.8.53,1.38.47,1.25,1.12,3,2,5.29,1.71,4.6,4.22,11.23,7.51,19.35C83.8,457.7,93.46,480,107.08,503a137.3,137.3,0,0,1,8.53,17.61,78.53,78.53,0,0,1,4.54,17.66,123.5,123.5,0,0,1-.09,30.8c-1,8.72-2.34,15.7-3.24,20.52-.47,2.37-.83,4.23-1.09,5.54l-.31,1.44a3.88,3.88,0,0,1-.13.48,1.72,1.72,0,0,1,0-.5c.06-.36.14-.84.23-1.45.23-1.32.55-3.18,1-5.56.8-4.84,2-11.82,3-20.53a124.89,124.89,0,0,0-.07-30.64,78.66,78.66,0,0,0-4.54-17.49,137.73,137.73,0,0,0-8.5-17.5C92.78,480.33,83.17,458,76.68,441.69c-3.23-8.16-5.66-14.83-7.28-19.46-.82-2.31-1.42-4.12-1.83-5.34l-.45-1.4A2.72,2.72,0,0,1,67,415Z"/><path class="cls-16" d="M79.38,492.06a3.9,3.9,0,0,1,.54.68l1.43,2,5.15,7.47c4.32,6.32,10.42,15,16.53,25,3,5,5.7,9.91,8,14.47s4,8.77,5.39,12.36,2.34,6.54,2.92,8.6c.27,1,.5,1.76.67,2.38a3.33,3.33,0,0,1,.19.84,3.31,3.31,0,0,1-.33-.8c-.22-.61-.49-1.38-.82-2.32-.66-2-1.74-5-3.14-8.5s-3.24-7.73-5.51-12.25-5-9.39-8-14.39c-6.08-10-12.11-18.68-16.32-25.08-2.11-3.2-3.81-5.79-5-7.61l-1.31-2.1A3.53,3.53,0,0,1,79.38,492.06Z"/><path class="cls-17" d="M54.1,511.09c4.64-10,16.56-16.46,27.5-15.57-2.44,1-3.94,3.51-4.55,6.07s-.5,5.22-.7,7.84c-1,12.57-9.08,23.3-16.85,33.24-5.46,7-11,14-17.48,20C42.8,544.77,43.93,525.82,54.1,511.09Z"/><path class="cls-17" d="M81.6,495.67c-6.95-5.36-15.92-7.58-24.69-7.67S39.47,489.8,31,492c-5.1,1.29-10.29,2.73-14.66,5.67s-7.84,7.7-7.93,13c7.21-7.92,18.83-9.45,29.12-12.44,7-2,13.7-4.92,20.81-6.41s17,.28,23.29,3.92"/><path class="cls-17" d="M80.41,494.24c3-3.19,1.37-10.67-1.29-14.2s-6.87-5.51-11-7a77.6,77.6,0,0,0-17-3.94,17.34,17.34,0,0,0,5.36,9.42A51.11,51.11,0,0,0,65.42,485l15,9.27"/><path class="cls-17" d="M109,490c8.7,3.82,15.45,10.94,21.94,17.88a96.46,96.46,0,0,1-27.38-11.34c-3.37-2.05-6.71-4.35-10.56-5.21s-8.18.86-11.4,3.52C87.05,486.78,100.29,486.14,109,490Z"/><path class="cls-17" d="M228.06,486.33c10.82,13.78,14.42,32.17,13.21,49.65a119,119,0,0,0-38.4-59.63c-7.06-5.87-16.08-10.51-24.83-10.51C196,464.23,216.89,472.13,228.06,486.33Z"/><path class="cls-17" d="M202.93,458.67c6,.44,11.55,3.5,16.54,6.93,7.64,5.24,14.81,11.86,18.14,20.5a63.52,63.52,0,0,0-55.69-22C188.5,460.85,195.6,458.13,202.93,458.67Z"/><path class="cls-17" d="M186,438c3.5,2.43,6.17,6.41,6,10.66a13.15,13.15,0,0,1-3.47,7.86,53.09,53.09,0,0,1-7.31,7c-2.22-9.82-4.89-20.08-7.1-29.89C178.29,434.44,182.51,435.56,186,438Z"/><path class="cls-17" d="M165.57,437c4.72,3,8.93,7.09,11.23,12.21s3.25,11.58.36,16.38a420.47,420.47,0,0,0-26.78-35.77C155.59,431.92,160.84,434,165.57,437Z"/><path class="cls-17" d="M148.22,453.9a33.67,33.67,0,0,1,28.67,12.57,28,28,0,0,0-15.4-2.92,371.08,371.08,0,0,0-39.56,7.34A33.67,33.67,0,0,1,148.22,453.9Z"/><path class="cls-17" d="M67.12,415c-.31-3.14,3.07-6.27,6-7.37s6.25-.74,9.34-.06c17.86,4,32.62,19.38,35.8,37.39a231.14,231.14,0,0,0-25.4-10.74l1.46.41a29.62,29.62,0,0,1-20-14.63,15.61,15.61,0,0,0-2.69-4.11,4,4,0,0,0-4.51-.89"/><path class="cls-17" d="M67.1,415A38.52,38.52,0,0,0,39,408.66a33.64,33.64,0,0,0-23.37,16.47,29.84,29.84,0,0,0-.14,28.32C20,444,24.88,434.17,33.35,428c2-1.45,4.22-2.77,5.34-5,1.29-2.54.76-5.67,1.87-8.3,1.36-3.23,5.12-4.17,8.62-4.35s13.65,3,17.92,4.59"/><path class="cls-17" d="M67.32,414.82c-8.41-2.49-17.92,1.62-23.64,7.92s-8.63,14.75-9.62,23.2-.19,17,.67,25.47A105.88,105.88,0,0,0,49.21,439.3c1.35-5.16,2.34-10.49,4.77-15.24s8.06-8.47,13.34-9.24"/><path class="cls-17" d="M67.6,415c-6.72-3.12-10.51-10.14-11.37-17.49a22.22,22.22,0,0,1,8.15-19.65,23.8,23.8,0,0,1,6.26,24.86c-1.42,4-4,8.1-3,12.28"/><path class="cls-16" d="M120.77,551.31a4.8,4.8,0,0,1,.29-1.06c.22-.69.51-1.71,1-3,.91-2.58,2.38-6.25,4.44-10.69A270.48,270.48,0,0,1,169,473.43a67.26,67.26,0,0,1,8.5-7.85,20,20,0,0,1,2.67-1.69,5.19,5.19,0,0,1,1-.4,6.36,6.36,0,0,1-1,.54,24.07,24.07,0,0,0-2.56,1.78,76.07,76.07,0,0,0-8.29,8,294.21,294.21,0,0,0-42.43,63c-2.11,4.39-3.66,8-4.65,10.56-.52,1.26-.86,2.27-1.13,2.94A7.39,7.39,0,0,1,120.77,551.31Z"/><polygon class="cls-18" points="96.97 633.51 142.89 633.51 150.22 574.9 88.59 574.9 96.97 633.51"/><path class="cls-17" d="M113.09,546.89c-4.87-11.18-2.82-24.73-9-35.24-4.73-8-13.48-12.81-22.17-16.21-2,6.06-1.06,12.82,1.5,18.67S90,525,94.32,529.76c5.92,6.54,12.34,11.08,18.77,17.13"/><rect class="cls-18" x="85.75" y="574.9" width="68.68" height="11.96" transform="translate(240.19 1161.77) rotate(180)"/><path class="cls-16" d="M88,587.25c0-.21,14.87-.39,33.2-.39s33.19.18,33.19.39-14.86.38-33.19.38S88,587.46,88,587.25Z"/><path class="cls-17" d="M64,415.48a75.22,75.22,0,0,1,8-12,25.55,25.55,0,0,1,11.74-8.09c6.19-1.81,12.83-.37,19,1.47a152.07,152.07,0,0,1,21.11,8,41.75,41.75,0,0,1-28.07.5c-4.72-1.61-9.31-1.4-14.27-.84-6,.69-13.6,6.27-17.51,10.93"/><path class="cls-17" d="M175.63,465.63c10.2.56,19.12,8.41,22.68,18s2.34,20.44-1.51,29.89S186.66,531.21,180,538.94c-3.35-11.51-6.71-23.08-8.19-35S171.45,476.87,175.63,465.63Z"/><g class="cls-19"><path d="M228.06,486.33c10.82,13.78,14.42,32.17,13.21,49.65a119,119,0,0,0-38.4-59.63c-7.06-5.87-16.08-10.51-24.83-10.51C196,464.23,216.89,472.13,228.06,486.33Z"/></g><g class="cls-19"><path d="M202.93,458.67c6,.44,11.55,3.5,16.54,6.93,7.64,5.24,14.81,11.86,18.14,20.5a63.52,63.52,0,0,0-55.69-22C188.5,460.85,195.6,458.13,202.93,458.67Z"/></g><g class="cls-19"><path d="M186,438c3.5,2.43,6.17,6.41,6,10.66a13.15,13.15,0,0,1-3.47,7.86,53.09,53.09,0,0,1-7.31,7c-2.22-9.82-4.89-20.08-7.1-29.89C178.29,434.44,182.51,435.56,186,438Z"/></g><g class="cls-19"><path d="M165.57,437c4.72,3,8.93,7.09,11.23,12.21s3.25,11.58.36,16.38a420.47,420.47,0,0,0-26.78-35.77C155.59,431.92,160.84,434,165.57,437Z"/></g><g class="cls-19"><path d="M148.22,453.9a33.67,33.67,0,0,1,28.67,12.57,28,28,0,0,0-15.4-2.92,371.08,371.08,0,0,0-39.56,7.34A33.67,33.67,0,0,1,148.22,453.9Z"/></g><g class="cls-19"><path d="M175.63,465.63c10.2.56,19.12,8.41,22.68,18s2.34,20.44-1.51,29.89S186.66,531.21,180,538.94c-3.35-11.51-6.71-23.08-8.19-35S171.45,476.87,175.63,465.63Z"/></g></g></g></svg>