<?xml version="1.0" encoding="utf-8"?>
<!-- Generator: Adobe Illustrator 18.1.1, SVG Export Plug-In . SVG Version: 6.00 Build 0)  -->
<svg version="1.1" id="Layer_1" xmlns="http://www.w3.org/2000/svg" xmlns:xlink="http://www.w3.org/1999/xlink" x="0px" y="0px"
	 viewBox="0 0 894 968.9" enable-background="new 0 0 894 968.9" xml:space="preserve">
<g opacity="0.11">
	<g>
		<defs>
			<rect id="SVGID_1_" x="10.4" y="159.5" width="798.4" height="803.7"/>
		</defs>
		<clipPath id="SVGID_2_">
			<use xlink:href="#SVGID_1_"  overflow="visible"/>
		</clipPath>
		<path clip-path="url(#SVGID_2_)" fill="#DB4B55" d="M409.6,963.1c-220.1,0-399.2-180.3-399.2-401.8
			c0-221.6,179.1-401.8,399.2-401.8c220.1,0,399.2,180.3,399.2,401.8C808.8,782.9,629.7,963.1,409.6,963.1 M409.6,164.7
			c-217.2,0-394,177.9-394,396.6c0,218.7,176.7,396.6,394,396.6c217.2,0,394-177.9,394-396.6C803.6,342.6,626.8,164.7,409.6,164.7"
			/>
	</g>
</g>
<g opacity="0.11">
	<g>
		<defs>
			<rect id="SVGID_3_" x="10.7" y="218" width="739" height="743.8"/>
		</defs>
		<clipPath id="SVGID_4_">
			<use xlink:href="#SVGID_3_"  overflow="visible"/>
		</clipPath>
		<path clip-path="url(#SVGID_4_)" fill="#DB4B55" d="M749.7,589.9c0,205.4-165.4,371.9-369.5,371.9S10.7,795.3,10.7,589.9
			C10.7,384.5,176.1,218,380.2,218S749.7,384.5,749.7,589.9"/>
	</g>
</g>
<g opacity="0.11">
	<g>
		<defs>
			<rect id="SVGID_5_" x="820.7" y="4" width="65.8" height="66.3"/>
		</defs>
		<clipPath id="SVGID_6_">
			<use xlink:href="#SVGID_5_"  overflow="visible"/>
		</clipPath>
		<path clip-path="url(#SVGID_6_)" fill="#DB4B55" d="M853.6,70.3c-18.2,0-32.9-14.9-32.9-33.1c0-18.3,14.8-33.1,32.9-33.1
			c18.2,0,32.9,14.9,32.9,33.1C886.6,55.5,871.8,70.3,853.6,70.3 M853.6,4.5c-17.9,0-32.5,14.7-32.5,32.7s14.6,32.7,32.5,32.7
			c17.9,0,32.5-14.7,32.5-32.7S871.6,4.5,853.6,4.5"/>
	</g>
</g>
<g opacity="0.11">
	<g>
		<defs>
			<rect id="SVGID_7_" x="706.4" y="49.2" width="65.8" height="66.3"/>
		</defs>
		<clipPath id="SVGID_8_">
			<use xlink:href="#SVGID_7_"  overflow="visible"/>
		</clipPath>
		<path clip-path="url(#SVGID_8_)" fill="#DB4B55" d="M739.3,115.4c-18.2,0-32.9-14.9-32.9-33.1c0-18.3,14.8-33.1,32.9-33.1
			c18.2,0,32.9,14.9,32.9,33.1C772.2,100.6,757.4,115.4,739.3,115.4 M739.3,49.6c-17.9,0-32.5,14.7-32.5,32.7s14.6,32.7,32.5,32.7
			c17.9,0,32.5-14.7,32.5-32.7S757.2,49.6,739.3,49.6"/>
	</g>
</g>
<g opacity="0.11">
	<g>
		<defs>
			<rect id="SVGID_9_" x="774.5" y="146.5" width="46.2" height="46.5"/>
		</defs>
		<clipPath id="SVGID_10_">
			<use xlink:href="#SVGID_9_"  overflow="visible"/>
		</clipPath>
		<path clip-path="url(#SVGID_10_)" fill="#DB4B55" d="M797.6,193c-12.7,0-23.1-10.4-23.1-23.2s10.4-23.2,23.1-23.2
			c12.7,0,23.1,10.4,23.1,23.2S810.4,193,797.6,193 M797.6,146.8c-12.6,0-22.8,10.3-22.8,22.9c0,12.6,10.2,22.9,22.8,22.9
			c12.6,0,22.8-10.3,22.8-22.9C820.4,157.1,810.2,146.8,797.6,146.8"/>
	</g>
</g>
<g opacity="0.11">
	<g>
		<defs>
			<rect id="SVGID_11_" x="824.5" y="15.9" width="51.6" height="51.9"/>
		</defs>
		<clipPath id="SVGID_12_">
			<use xlink:href="#SVGID_11_"  overflow="visible"/>
		</clipPath>
		<path clip-path="url(#SVGID_12_)" fill="#DB4B55" d="M876.1,41.8c0,14.3-11.6,26-25.8,26s-25.8-11.6-25.8-26
			c0-14.3,11.6-26,25.8-26S876.1,27.5,876.1,41.8"/>
	</g>
</g>
<g opacity="0.11">
	<g>
		<defs>
			<rect id="SVGID_13_" x="710" y="58.6" width="61.8" height="62.2"/>
		</defs>
		<clipPath id="SVGID_14_">
			<use xlink:href="#SVGID_13_"  overflow="visible"/>
		</clipPath>
		<path clip-path="url(#SVGID_14_)" fill="#DB4B55" d="M771.8,89.7c0,17.2-13.8,31.1-30.9,31.1c-17.1,0-30.9-13.9-30.9-31.1
			c0-17.2,13.8-31.1,30.9-31.1C758,58.6,771.8,72.6,771.8,89.7"/>
	</g>
</g>
<g opacity="0.11">
	<g>
		<defs>
			<rect id="SVGID_15_" x="782.9" y="154.8" width="29.6" height="29.8"/>
		</defs>
		<clipPath id="SVGID_16_">
			<use xlink:href="#SVGID_15_"  overflow="visible"/>
		</clipPath>
		<path clip-path="url(#SVGID_16_)" fill="#DB4B55" d="M812.4,169.7c0,8.2-6.6,14.9-14.8,14.9c-8.2,0-14.8-6.7-14.8-14.9
			c0-8.2,6.6-14.9,14.8-14.9C805.8,154.8,812.4,161.5,812.4,169.7"/>
	</g>
</g>
<polyline fill="none" points="728.3,1640 728.3,159.8 111,159.8 111,1640 "/>
<path fill="none" d="M111,159.8v793.1l51.6,5.3c9.7-3.4,69.2-49.5,77.7-43.8c97.6,66.7,233.9,46.2,306.5,11.7
	c22.2-10.6,56.4-31.3,56.4-31.3c25.1,60,125.2,58.1,125.2,58.1V159.8H111z"/>
<path fill="none" d="M437.4,181.9"/>
<path fill="none" d="M437.4,181.9"/>
</svg>
