<?xml version="1.0" encoding="utf-8"?>
<!-- Generator: Adobe Illustrator 18.1.1, SVG Export Plug-In . SVG Version: 6.00 Build 0)  -->
<svg version="1.1" id="Layer_1" xmlns="http://www.w3.org/2000/svg" xmlns:xlink="http://www.w3.org/1999/xlink" x="0px" y="0px"
	 viewBox="0 0 273.1 678.8" enable-background="new 0 0 273.1 678.8" xml:space="preserve">
<path fill="none" d="M0,678.8"/>
<path fill="none" d="M1920,678.8"/>
<path fill="none" d="M0,678.8"/>
<path fill="none" d="M1920,678.8"/>
<path fill="none" d="M0,678.8"/>
<path fill="none" d="M1920,678.8"/>
<path fill="none" d="M0,678.8"/>
<path fill="none" d="M1920,678.8"/>
<path fill="none" d="M0,678.8"/>
<path fill="none" d="M1920,678.8"/>
<path fill="none" d="M0,678.8"/>
<path fill="none" d="M1920,678.8"/>
<path fill="none" d="M0,678.8"/>
<path fill="none" d="M1920,678.8"/>
<path fill="none" d="M0,678.8"/>
<path fill="none" d="M1920,678.8"/>
<path fill="none" d="M0,678.8"/>
<path fill="none" d="M1920,678.8"/>
<path fill="none" d="M0,678.8"/>
<path fill="none" d="M1920,678.8"/>
<path fill="none" d="M0,678.8"/>
<path fill="none" d="M1920,678.8"/>
<path fill="none" d="M0,678.8"/>
<path fill="none" d="M1920,678.8"/>
<path fill="none" d="M0,678.8"/>
<path fill="none" d="M1920,678.8"/>
<path fill="none" d="M0,678.8"/>
<path fill="none" d="M1920,678.8"/>
<path fill="none" d="M0,678.8"/>
<path fill="none" d="M1920,678.8"/>
<g>
	<defs>
		<rect id="SVGID_1_" y="-29.2" width="266" height="708"/>
	</defs>
	<clipPath id="SVGID_2_">
		<use xlink:href="#SVGID_1_"  overflow="visible"/>
	</clipPath>
	<g opacity="0.16" clip-path="url(#SVGID_2_)">
		<g>
			<defs>
				<rect id="SVGID_3_" x="-128.6" width="398.7" height="684"/>
			</defs>
			<clipPath id="SVGID_4_">
				<use xlink:href="#SVGID_3_"  overflow="visible"/>
			</clipPath>
			<path clip-path="url(#SVGID_4_)" fill="#739FD4" d="M-127,528.9c-10.7-76.4,62.2-384.5,93.3-510.8C-28.9-1.1,0.1-4.9,11,12.2
				c72.3,114.3,246.9,396.6,257.6,473.3c13.5,96.8-64.1,185-173.3,197C-13.9,694.5-113.5,625.7-127,528.9"/>
			<path clip-path="url(#SVGID_4_)" fill="#FFFFFF" d="M87.3,684c-0.7-0.1-1.3-0.6-1.4-1.2L-9.3,1.6C-9.4,0.8-8.8,0.1-7.9,0
				C-7-0.1-6.2,0.5-6.1,1.2L89,682.4c0.1,0.8-0.5,1.5-1.4,1.6C87.5,684,87.4,684,87.3,684"/>
			<path clip-path="url(#SVGID_4_)" fill="#FFFFFF" d="M64.4,520.6c-0.3,0-0.5-0.1-0.8-0.3c-0.7-0.5-0.9-1.3-0.3-2L207.4,345
				c0.5-0.6,1.5-0.8,2.2-0.3c0.7,0.5,0.9,1.3,0.3,2L65.9,520C65.6,520.4,65,520.6,64.4,520.6"/>
			<path clip-path="url(#SVGID_4_)" fill="#FFFFFF" d="M59,481.9c-0.2,0-0.5-0.1-0.7-0.2c-0.7-0.4-0.9-1.3-0.5-2l128.5-173.3
				c0.5-0.7,1.5-0.8,2.2-0.4c0.7,0.4,0.9,1.3,0.5,2L60.5,481.3C60.2,481.7,59.6,482,59,481.9"/>
			<path clip-path="url(#SVGID_4_)" fill="#FFFFFF" d="M52,431.7c-0.3,0-0.6-0.2-0.9-0.4L-99.7,306.1c-0.6-0.5-0.7-1.4-0.1-2
				c0.6-0.6,1.6-0.6,2.2-0.1L53.3,429.3c0.6,0.5,0.7,1.4,0.1,2C53,431.6,52.5,431.8,52,431.7"/>
			<path clip-path="url(#SVGID_4_)" fill="#FFFFFF" d="M25.6,242.5c-0.3,0-0.5-0.1-0.8-0.3c-0.7-0.5-0.8-1.4-0.3-2l74.3-84.8
				c0.5-0.6,1.5-0.7,2.2-0.2c0.7,0.5,0.8,1.4,0.3,2L27,242C26.7,242.4,26.1,242.5,25.6,242.5"/>
			<path clip-path="url(#SVGID_4_)" fill="#FFFFFF" d="M12.7,150c-0.3,0-0.5-0.1-0.8-0.3l-67.4-44.1c-0.7-0.5-0.9-1.3-0.3-2
				c0.5-0.6,1.5-0.8,2.2-0.3l67.4,44.1c0.7,0.5,0.9,1.3,0.3,2C13.8,149.9,13.2,150,12.7,150"/>
			<path clip-path="url(#SVGID_4_)" fill="#FFFFFF" d="M15,167c-0.2,0-0.4-0.1-0.6-0.2l-75.5-36.3c-0.8-0.4-1.1-1.2-0.6-1.9
				c0.4-0.7,1.4-0.9,2.2-0.6L16,164.4c0.8,0.4,1.1,1.2,0.6,1.9C16.3,166.8,15.7,167.1,15,167"/>
			<path clip-path="url(#SVGID_4_)" fill="#FFFFFF" d="M78.9,623.9c-0.3,0-0.5-0.1-0.8-0.3l-206-137.3c-0.7-0.5-0.8-1.4-0.3-2
				c0.5-0.6,1.5-0.7,2.2-0.3L80,621.4c0.7,0.5,0.8,1.4,0.3,2C80,623.8,79.4,624,78.9,623.9"/>
		</g>
	</g>
</g>
<path fill="none" d="M1920,678.8"/>
<path fill="none" d="M0,678.8"/>
</svg>
