<?xml version="1.0" encoding="utf-8"?>
<!-- Generator: Adobe Illustrator 18.1.1, SVG Export Plug-In . SVG Version: 6.00 Build 0)  -->
<svg version="1.1" id="Layer_1" xmlns="http://www.w3.org/2000/svg" xmlns:xlink="http://www.w3.org/1999/xlink" x="0px" y="0px"
	 viewBox="0 0 275.1 683.9" enable-background="new 0 0 275.1 683.9" xml:space="preserve">
<polyline fill="none" points="276.1,-402.1 276.1,687.9 -1653.9,687.9 "/>
<g>
	<defs>
		<rect id="SVGID_1_" x="4.1" y="-25.1" width="271" height="713"/>
	</defs>
	<clipPath id="SVGID_2_">
		<use xlink:href="#SVGID_1_"  overflow="visible"/>
	</clipPath>
	<g opacity="0.16" clip-path="url(#SVGID_2_)">
		<g>
			<defs>
				<rect id="SVGID_3_" y="4.1" width="398.7" height="684"/>
			</defs>
			<clipPath id="SVGID_4_">
				<use xlink:href="#SVGID_3_"  overflow="visible"/>
			</clipPath>
			<path clip-path="url(#SVGID_4_)" fill="#5864AE" d="M397.1,533c10.7-76.4-62.2-384.5-93.3-510.8C299.1,3,270-0.8,259.2,16.4
				C186.8,130.7,12.2,413,1.5,489.6c-13.5,96.8,64.1,185,173.3,197C284.1,698.6,383.6,629.9,397.1,533"/>
			<path clip-path="url(#SVGID_4_)" fill="#FFFFFF" d="M182.9,688.1c0.7-0.1,1.3-0.6,1.4-1.2L279.4,5.7c0.1-0.8-0.5-1.5-1.4-1.6
				c-0.9-0.2-1.7,0.5-1.8,1.2l-95.2,681.2c-0.1,0.8,0.5,1.5,1.4,1.6C182.6,688.1,182.7,688.1,182.9,688.1"/>
			<path clip-path="url(#SVGID_4_)" fill="#FFFFFF" d="M205.7,524.7c0.3,0,0.5-0.1,0.8-0.3c0.7-0.5,0.9-1.3,0.3-2L62.7,349.1
				c-0.5-0.6-1.5-0.8-2.2-0.3c-0.7,0.5-0.9,1.3-0.3,2l144.1,173.3C204.6,524.5,205.1,524.7,205.7,524.7"/>
			<path clip-path="url(#SVGID_4_)" fill="#FFFFFF" d="M211.1,486c0.2,0,0.5-0.1,0.7-0.2c0.7-0.4,0.9-1.3,0.5-2L83.7,310.6
				c-0.5-0.7-1.5-0.8-2.2-0.4c-0.7,0.4-0.9,1.3-0.5,2l128.5,173.3C209.9,485.9,210.5,486.1,211.1,486"/>
			<path clip-path="url(#SVGID_4_)" fill="#FFFFFF" d="M218.1,435.9c0.3,0,0.6-0.2,0.9-0.4l150.8-125.2c0.6-0.5,0.7-1.4,0.1-2
				c-0.6-0.6-1.6-0.6-2.2-0.1L216.8,433.4c-0.6,0.5-0.7,1.4-0.1,2C217.1,435.8,217.6,435.9,218.1,435.9"/>
			<path clip-path="url(#SVGID_4_)" fill="#FFFFFF" d="M244.5,246.6c0.3,0,0.5-0.1,0.8-0.3c0.7-0.5,0.8-1.4,0.3-2l-74.3-84.8
				c-0.5-0.6-1.5-0.7-2.2-0.2c-0.7,0.5-0.8,1.4-0.3,2l74.3,84.8C243.4,246.5,244,246.7,244.5,246.6"/>
			<path clip-path="url(#SVGID_4_)" fill="#FFFFFF" d="M257.4,154.1c0.3,0,0.5-0.1,0.8-0.3l67.4-44.1c0.7-0.5,0.9-1.3,0.3-2
				c-0.5-0.6-1.5-0.8-2.2-0.3l-67.4,44.1c-0.7,0.5-0.9,1.3-0.3,2C256.3,154,256.9,154.2,257.4,154.1"/>
			<path clip-path="url(#SVGID_4_)" fill="#FFFFFF" d="M255.1,171.1c0.2,0,0.4-0.1,0.6-0.2l75.5-36.3c0.8-0.4,1.1-1.2,0.6-1.9
				c-0.4-0.7-1.4-0.9-2.2-0.6l-75.5,36.3c-0.8,0.4-1.1,1.2-0.6,1.9C253.8,170.9,254.4,171.2,255.1,171.1"/>
			<path clip-path="url(#SVGID_4_)" fill="#FFFFFF" d="M191.2,628c0.3,0,0.5-0.1,0.8-0.3l206-137.3c0.7-0.5,0.8-1.4,0.3-2
				c-0.5-0.6-1.5-0.7-2.2-0.3l-206,137.3c-0.7,0.5-0.8,1.4-0.3,2C190.1,627.9,190.7,628.1,191.2,628"/>
		</g>
	</g>
</g>
<polyline fill="none" points="-1653.9,687.9 276.1,687.9 276.1,-402.1 "/>
</svg>
