<svg xmlns="http://www.w3.org/2000/svg" viewBox="0 0 452.73 846.43"><defs><style>.cls-1{fill:#ffaf82}.cls-2{fill:#f88968}.cls-3{fill:#d35500}.cls-5{fill:#2c2c2c}.cls-6{fill:#f26403}.cls-9{fill:#32324c}</style></defs><g id="Capa_2" data-name="Capa 2"><g id="Información"><path class="cls-1" d="M215.38 237.72c1.2-.39 2.44-.76 3.73-1.13l.86-.24c2.34-.64 4.8-1.23 7.34-1.76 14.27-3 23.65-6 36.56-1.06 0 0 12.84 23.84 10 30.31 0 0-11.95 16.1-21.09 24.29 0 0-10.73 11.34-17.17 11.54s-9.88-5.24-9.88-5.24l-2.12 1c-3.08 1.5-8.58 4.2-10.4 5-10 4.63-17.69-2.5-3.64-13.08-1.39.51-11 4.31-14.8-2.75-2.67-5 9.59-12.1 9.59-12.1s-13.39-.84-13.67-6.05c-.31-5.7 12.51-10.28 13-10.46-.44-.12-7.85-2.14-5.82-8.79.85-2.54 7.76-6.35 17.51-9.48Z"/><path class="cls-2" d="M215.38 237.72c1.2-.39 2.44-.76 3.73-1.13a10 10 0 0 1 6.32 5.53c2.49 6.49-4.52 9.36-4.52 9.36s6.17-.74 7 3.91a7.89 7.89 0 0 1-3 7.41s5.53.52 6.29 4.51-8.17 11-8.17 11 5-5.52 5.4-9.23-4.39-6.11-10.83-3.06c.7-.33 7.25-3.52 7.3-8.71 0-5.35-11-4.32-11.63-4.26.59-.23 11.43-4.31 10.27-9.25-.76-3.43-4.74-5.27-8.16-6.08Z"/><path class="cls-2" d="M227.05 286.6s-1.1-11.08 5.19-16.36 15.39 4.63 16.19 15.21c0 0 2.84-6.22-1.83-13.64s-13.59-6.29-16.38-2.6-4.61 7.89-3.17 17.39Z"/><path class="cls-2" d="M234.9 268.22s.89-13.83 20.67-18.57c0 0-18.81-4.39-24.3 18.51Z"/><path class="cls-3" d="M449.54 193.08s-4.23-33.33-191.22 38.74c10.14 14.33 13.28 25.66 13.69 34.4 0 0 36.87-5.21 70.71-7.58 22.28-1.56 112.33-19.57 106.82-65.56Z"/><path class="cls-3" d="M248.43 285.45c-23.67 14.67-22.2 92.29 13 76.3 53.9-24.49 164.85-110.4 186.82-148.91 13.71-24-2.31-39.23-69.63-3.08-33.94 18.24-56.97 30.3-130.19 75.69Z"/><path d="M198.06 835.73c-7-49.24-11.86-142.66-11.86-142.66 33.71-15.43 87.76-29.5 87.76-29.5 8.12 46.1 17.07 111.92 16.85 182.86 0 .23-92.71-10.43-92.75-10.7Z" style="fill:#050705"/><path class="cls-5" d="M162.42 693.07s4.61 82.42-6.58 153.36c0 .19-100.94-9.92-100.92-10.28 4.08-58.66 5.13-109.07 13.47-157.76Z"/><path class="cls-5" d="M74.64 646.89s-15 53-14.83 100.2c0 0 73.32 32.08 166.6-3.37 38.14-14.5 57.51-57 43.85-95.46-.17-.45-.33-.91-.49-1.37 0 0-119.28-4.89-195.13 0Z"/><path class="cls-6" d="M296.22 677.46a383 383 0 0 1-47.72 18.62c-4.4 1.38-8.85 2.68-13.32 3.88a294.48 294.48 0 0 1-72.48 10.55c-40.58.57-81.7-8.5-120-32.12l25.88-153.78S22 308.14 34.05 282.27c7.45-15.92 55.77-29.7 55.77-29.7l3.43-1.18 6.31-2.16 2.68-.91 5.4-1.85 11.41-3.91 67.76 9.06 4.08.55 7 .93 3.88.52 48.48 6.47Z"/><path d="M235.18 700a294.48 294.48 0 0 1-72.48 10.55c1.09-6.89 2-14 2.68-21.4q.54-5.5.92-11.16.76-11.1 1-22.74.15-5.51.16-11.12 0-11.13-.29-22.63c-.11-3.68-.24-7.37-.4-11.09-.32-7.43-.75-15-1.28-22.57-.25-3.67-.52-7.34-.84-11q-.88-11.19-2.05-22.52c-.38-3.67-.77-7.36-1.18-11q-1.24-11.22-2.71-22.48-.72-5.52-1.48-11.05-1.53-11.25-3.25-22.46c-.57-3.69-1.14-7.37-1.74-11q-1.78-11.31-3.75-22.48c-.63-3.69-1.29-7.38-1.94-11.05q-2-11.37-4.18-22.49-1.07-5.55-2.15-11.06c-1.51-7.63-3.05-15.16-4.59-22.54q-1.16-5.61-2.35-11.1-2.48-11.56-5-22.57-1.25-5.64-2.53-11.12-2.68-11.73-5.32-22.64c-.91-3.8-1.81-7.53-2.71-11.16-2-8-3.88-15.61-5.71-22.71q-1.48-5.82-2.9-11.2c-2.59-9.86-4.94-18.5-6.94-25.72l5.4-1.85 11.41-3.91 67.76 9.06 4.08.55q1.83 9.59 3.58 19.21c.67 3.64 1.31 7.28 2 10.93q1.92 10.95 3.74 21.92.92 5.47 1.79 10.95 1.77 11 3.43 21.93.83 5.47 1.63 10.95 1.62 11 3.14 21.93c.51 3.67 1 7.34 1.5 11q1.49 11 2.86 21.94l1.37 11q1.35 11.07 2.6 22 .64 5.55 1.24 11 1.25 11.12 2.36 22c.38 3.71.77 7.4 1.12 11.07.76 7.43 1.45 14.79 2.12 22q.51 5.61 1 11.11 1 11.24 1.86 22.07c.31 3.76.6 7.46.89 11.14.57 7.55 1.12 14.93 1.6 22.12.27 3.78.51 7.5.76 11.17q.74 11.46 1.33 22.2c.22 3.8.41 7.54.6 11.2.39 7.77.73 15.21 1 22.26.16 3.86.29 7.62.41 11.25.26 8.06.45 15.53.56 22.37.06 4 .1 7.77.1 11.32.06 7.56-.03 14.17-.23 19.62Z" style="fill:#fff"/><path d="M196.43 282.31a463.15 463.15 0 0 1-59 3.43q-12.25 0-25.37-.5-1.48-5.82-2.9-11.2c32.48 1.34 60.71.47 85.29-2.66.69 3.62 1.33 7.28 1.98 10.93Zm5.57 32.87a465.78 465.78 0 0 1-65.23 4.13c-5.29 0-10.69-.07-16.23-.2-.91-3.8-1.81-7.53-2.71-11.16 31.33.88 58.6-.35 82.38-3.72q.88 5.48 1.79 10.95Zm5 32.88c-21 3.25-44.55 4.85-71.13 4.85h-7.54q-1.25-5.64-2.53-11.12c30.2.46 56.55-1.09 79.57-4.64q.85 5.44 1.63 10.91Zm4.66 32.94c-22.2 3.67-47.38 5.52-76 5.55q-1.16-5.61-2.35-11.1c29.12.08 54.57-1.72 76.85-5.45.51 3.66 1 7.33 1.5 11Zm4.23 33c-21.51 3.79-45.87 5.84-73.49 6.19q-1.07-5.55-2.15-11.06c28.08-.27 52.7-2.31 74.27-6.15q.69 5.49 1.37 11.02Zm3.84 33c-20.89 3.87-44.5 6.1-71.21 6.72-.63-3.69-1.29-7.38-1.94-11.05 27.15-.56 51-2.78 71.91-6.72q.65 5.51 1.24 11.05Zm3.48 33c-20.35 3.93-43.3 6.31-69.2 7.17-.57-3.69-1.14-7.37-1.74-11 26.29-.8 49.44-3.2 69.82-7.19.38 3.7.77 7.39 1.12 11.02Zm3.13 33.18c-19.91 4-42.34 6.47-67.6 7.54q-.72-5.52-1.48-11.05c25.6-1 48.16-3.56 68.07-7.6l1.01 11.11Zm2.75 33.21c-19.61 4-41.66 6.63-66.46 7.85-.38-3.67-.77-7.36-1.18-11 25.06-1.21 47.19-3.85 66.75-8 .31 3.76.6 7.47.89 11.15Zm2.36 33.29c-19.47 4.07-41.34 6.77-65.93 8.12-.25-3.67-.52-7.34-.84-11 24.76-1.36 46.66-4.1 66-8.25.32 3.74.52 7.45.77 11.13Zm1.93 33.4c-19.53 4.14-41.49 6.92-66.18 8.38-.11-3.68-.24-7.37-.4-11.09 24.75-1.47 46.63-4.29 66-8.49.2 3.8.39 7.54.58 11.2Zm1.41 33.51c-19.88 4.24-42.25 7.1-67.46 8.62q.15-5.51.16-11.12c25.11-1.54 47.29-4.44 66.89-8.75.16 3.86.29 7.66.41 11.25Zm.66 33.69c-20.59 4.36-43.82 7.29-70.07 8.83q.54-5.5.92-11.16c26-1.58 48.88-4.56 69-9 .11 4.05.15 7.78.15 11.33Z" style="fill:#e2e2e2"/><path class="cls-9" d="M259.1 60.3s17.17 11.32 11 42.07-18 34-18 34-18.03-68.06 7-76.07Z"/><path class="cls-1" d="M180.15 204 178 242.87l-1 17.82c-22.4 16.57-58.82-6.23-58.82-6.23l-3.89-57.64c10.36-7 37.06-1.17 53.12 3.28 7.59 2.1 12.74 3.9 12.74 3.9Z"/><path class="cls-2" d="M180.15 204 178 242.87c-26.3-6.07-48.33-42.52-48.33-42.52l37.75-.25c7.58 2.1 12.73 3.9 12.73 3.9Z"/><path class="cls-9" d="M255.64 76s41.95-19.55 29.65-54S222.81 3.4 177.68 5.12C105 7.88 82.25 45.68 84.09 85s1.43 92.13 19.26 111.81 30-8.14 39.25-32.75S208.77 64.11 255.64 76Z"/><path class="cls-1" d="M259.43 109.45c0 1.33-.05 2.68-.08 4-.75 24.44-5 54.13-9.1 78.29a46.18 46.18 0 0 1-54.62 37.44c-30.7-6.2-68.56-15.61-85.83-27-5.25-3.44-8.59-7.07-9.25-10.85-1.55-8.81-2.4-20.82-2.79-33.9-1.22-39.63 1.67-89.08 1.67-89.08 36.9-45.83 139.75-27.95 155.4 5.58 3.58 7.77 4.83 20.49 4.6 35.52Z"/><path class="cls-9" d="M198.47 131.58c0 5.15-2.3 9.33-5.13 9.33s-5.12-4.18-5.12-9.33 2.29-9.33 5.12-9.33 5.13 4.18 5.13 9.33Zm52.46 0c0 5.15-2.29 9.33-5.12 9.33s-5.13-4.18-5.13-9.33 2.3-9.33 5.13-9.33 5.12 4.18 5.12 9.33ZM97.58 121.21s16.42-10.7 30.26 8.39h10.76s-.61-22.11 4.62-34.1 25.83-11.68 28.9-25.83c0 0 48.65 19.35 83.52 6.29S186 4.78 135.53 33.08s-45.77 50.48-37.95 88.13Z"/><path class="cls-9" d="M171.13 118.66s4.93-10.13 14.4-12.67c8.76-2.35 15-.08 18.16 1.63a3.15 3.15 0 0 1 1.42 3.86 3.15 3.15 0 0 1-4.29 1.76c-5.31-2.47-16.99-5.65-29.69 5.42Zm88.3-9.21c0 1.33-.05 2.68-.08 4a25.18 25.18 0 0 0-22-.26 3.16 3.16 0 0 1-2.87-5.62c3.13-1.71 9.39-4 18.16-1.63a19.21 19.21 0 0 1 6.79 3.51ZM109.8 202.27c-5.25-3.44-8.59-7.07-9.25-10.85-1.55-8.81-2.4-20.82-2.79-33.9l27.14 18.66s.36 19.32-15.1 26.09Z"/><path class="cls-1" d="M127.84 129.6s-16.48-20-30.26-8.39c-15.2 12.74-3.56 56 27.32 55Z"/><path class="cls-2" d="M125.66 166.81a2.72 2.72 0 0 1-2.7-2.41c-2.51-21.86-15.48-25.22-16-25.35a2.72 2.72 0 0 1 1.21-5.3c.7.15 17.24 4.13 20.22 30a2.7 2.7 0 0 1-2.39 3 1.62 1.62 0 0 1-.34.06Z"/><path class="cls-2" d="M108.32 153a2.71 2.71 0 0 1-2-4.5 15.39 15.39 0 0 1 14.52-4.2 2.71 2.71 0 1 1-1.17 5.3 10 10 0 0 0-9.3 2.52 2.74 2.74 0 0 1-2.05.88Zm115.6 33.44c-10.83 0-26-2.89-37.75-16.38a2.71 2.71 0 1 1 4.1-3.56c17.78 20.43 45.64 13.18 45.92 13.1a2.72 2.72 0 0 1 1.44 5.24 55.57 55.57 0 0 1-13.71 1.6Zm-11.59 13.14c-14 0-20.85-9.06-21.17-9.49a2.72 2.72 0 0 1 4.36-3.24c.32.41 7.27 9.27 21.67 6.88a2.72 2.72 0 1 1 .89 5.36 34.79 34.79 0 0 1-5.75.49Zm10.84-38.01a2.72 2.72 0 0 1-1.65-4.88l7.25-5.53-6.28-1.63a2.71 2.71 0 0 1-2-2.2L217.72 130a2.72 2.72 0 0 1 5.37-.86l2.49 15.55 10 2.58a2.72 2.72 0 0 1 1 4.79L224.82 161a2.74 2.74 0 0 1-1.65.57Z"/><path class="cls-1" d="M50.64 274.43S33.25 286 17.8 284.53c-4-.38-3.89-10.65 2.21-13.54 0 0-7.71 1.71-9.77-1.93-4.52-8 2.51-11 2.51-11s-8.75-2.85-9.31-8.94c-.65-6.79 7.78-10.42 7.78-10.42S.86 242.73 0 231.63c-.66-8.49 49.68-25.76 81.92-15 0 0 10.63 25.71 7.61 33.43 0 0-7.62 15.7-17.94 25.72.01.04-11.32 17.06-20.95-1.35Z"/><path class="cls-6" d="M315.77 179.18S275.59 138.12 76 215.27l14.09 36s36.66-7.95 72.88-8.1 87.54-15 87.54-15 77.69-19.05 65.26-48.99Z"/><path class="cls-6" d="M41 330.38s12.77 41.67 215.23-73.74C331 214 326.6 171.86 305.81 176 164.08 204.2 9.07 273.26 41 330.38Z"/></g></g></svg>