<svg xmlns="http://www.w3.org/2000/svg" viewBox="0 0 341.27 710.69"><defs><style>.cls-2{fill:#32324c}.cls-3{fill:#fd614c}.cls-4{fill:#ff8175}.cls-5{fill:#fff}.cls-6{fill:#434361}.cls-8{fill:#f88968}.cls-11{fill:#f9bb9c}.cls-12{fill:#f99c80}.cls-13{fill:#dc795f}</style></defs><g id="Capa_2" data-name="Capa 2"><g id="Información"><path style="fill:#345668" d="M0 417.33h220.4v290.52H0z"/><path class="cls-2" d="M240.47 644.58s-42.16-144.43-25.7-191.74c0 0-139 21.14-145.13-43.81l38.92-25.62s103-24.78 162.19 57.93c11.73 16.4-8.27 193.83-8.27 193.83Z"/><path class="cls-3" d="M328.54 697.21 243.85 699c-4 .08-7.32-3.19-7.9-7.44a9.39 9.39 0 0 1-.08-1.84l2.61-49.85a46.3 46.3 0 0 1 8.4-3.3 9.08 9.08 0 0 0 6.18-6.51c.06-.23.11-.48.16-.72 1.78-9.62 14.07-12.93 16.51-3.62.32 1.21.59 2.38.83 3.5a88.729 88.729 0 0 1 1.08 6.31.34.34 0 0 1 0 .1 60.49 60.49 0 0 1 .54 6.76q1.71 2.36 3.33 4.63c.55.76 1.08 1.51 1.6 2.25q1.71 2.4 3.34 4.64c.5.71 1 1.38 1.51 2.05 1.2 1.62 2.38 3.16 3.57 4.59.53.65 1.06 1.28 1.61 1.89 4.45 5.05 8.92 8.46 14.13 9.16 9.21 1.22 24.23 2 31.73 17a5.88 5.88 0 0 1 .38 1c1.14 3.52-1.24 7.53-4.84 7.61Z"/><path class="cls-4" d="m328.54 697.2-84.69 1.8c-4 .08-7.32-3.19-7.9-7.44l97.44-2c1.13 3.55-1.25 7.57-4.85 7.64Z"/><path class="cls-5" d="M277.12 649.25c-.95 1.63-2.92 3.62-6.92 5.51-.68.33-1.42.65-2.23 1l-.77-2.46c.8-.31 1.52-.62 2.17-.93 4.59-2.19 5.82-4.27 6.15-5.33.55.72 1.08 1.47 1.6 2.21Z"/><path class="cls-5" d="M270.21 654.44a2.81 2.81 0 0 1-2.58 3 2.78 2.78 0 0 1-2.67-2.88 2.64 2.64 0 1 1 5.25-.11Zm11.79 1.5a16.63 16.63 0 0 1-5.73 4.21c-.81.41-1.69.79-2.67 1.18l-.77-2.47c.91-.36 1.73-.71 2.46-1.07a13.41 13.41 0 0 0 5.2-3.9c.51.71.97 1.38 1.51 2.05Z"/><path class="cls-5" d="M276.24 660a2.81 2.81 0 0 1-2.58 3 3 3 0 1 1 2.58-3Zm10.91 2.42a16.89 16.89 0 0 1-5.55 4 28.09 28.09 0 0 1-2.71 1.19l-.76-2.46c.92-.36 1.74-.73 2.47-1.09a14.55 14.55 0 0 0 4.94-3.56c.53.68 1.06 1.31 1.61 1.92Z"/><path class="cls-5" d="M281.6 666.34a2.81 2.81 0 0 1-2.58 3 3 3 0 1 1 2.58-3Zm-9.96-30.83a53.77 53.77 0 0 0-7.54.63v-4.74a17.24 17.24 0 0 1 6.67-1.36c.36 1.96.65 3.85.87 5.47Z"/><path class="cls-6" d="M148 433.42c-25.09 28.06-54.26 33.46-73.39 23.52-18.14-9.42-29.08-33-25.92-57.25 2.44-18.69 11.47-24.44 11.47-24.44 43.16-3.48 111.51-1.66 111.51-1.66s6.13 26.52-23.67 59.83Z"/><path class="cls-6" d="M219 656.29s-42.16-144.43-25.7-191.75c0 0-139 21.14-145.13-43.8l38.91-25.62s103-24.78 162.2 57.93C261 469.44 241 646.88 241 646.88Z"/><path class="cls-3" d="m307.08 708.91-84.69 1.78c-4 .08-7.33-3.2-7.9-7.44a9.45 9.45 0 0 1-.08-1.85l2.59-49.84a45.85 45.85 0 0 1 8.4-3.31 9.05 9.05 0 0 0 6.18-6.5c.05-.24.1-.48.16-.73 1.78-9.62 14.07-12.92 16.51-3.61.31 1.2.59 2.37.83 3.5a89.997 89.997 0 0 1 1.08 6.3.41.41 0 0 0 0 .11 60.25 60.25 0 0 1 .54 6.75q1.71 2.35 3.33 4.64c.55.75 1.07 1.51 1.6 2.25 1.14 1.59 2.25 3.15 3.34 4.64.5.7 1 1.38 1.5 2 1.21 1.62 2.39 3.16 3.58 4.59.53.65 1.06 1.28 1.61 1.89 4.45 5 8.91 8.46 14.13 9.16 9.21 1.22 24.23 2 31.73 17a5.88 5.88 0 0 1 .38 1c1.16 3.58-1.22 7.6-4.82 7.67Z"/><path class="cls-4" d="m307.08 708.91-84.69 1.77c-4 .09-7.33-3.19-7.9-7.43l97.44-2c1.13 3.57-1.25 7.58-4.85 7.66Z"/><path class="cls-5" d="M255.66 661c-.95 1.63-2.92 3.62-6.92 5.51-.68.33-1.42.65-2.23 1l-.77-2.46q1.2-.47 2.16-.93c4.6-2.19 5.83-4.27 6.16-5.33.55.67 1.07 1.43 1.6 2.21Z"/><path class="cls-5" d="M248.75 666.15a2.81 2.81 0 0 1-2.58 3 2.77 2.77 0 0 1-2.67-2.88 2.64 2.64 0 1 1 5.25-.11Zm11.75 1.5a16.7 16.7 0 0 1-5.72 4.21c-.81.4-1.69.79-2.67 1.17l-.77-2.46c.91-.36 1.73-.72 2.45-1.07a13.38 13.38 0 0 0 5.21-3.9c.5.7 1 1.4 1.5 2.05Z"/><path class="cls-5" d="M254.78 671.74a2.81 2.81 0 0 1-2.58 3 2.77 2.77 0 0 1-2.67-2.88 2.64 2.64 0 1 1 5.25-.11Zm10.91 2.39a17 17 0 0 1-5.55 4 28 28 0 0 1-2.71 1.2l-.76-2.46c.92-.36 1.74-.73 2.47-1.09a14.68 14.68 0 0 0 4.94-3.56c.53.67 1.06 1.3 1.61 1.91Z"/><path class="cls-5" d="M260.14 678.05a2.82 2.82 0 0 1-2.58 3 3 3 0 1 1 2.58-3Zm-9.96-30.84a52.9 52.9 0 0 0-7.54.64v-4.75a17.62 17.62 0 0 1 6.67-1.36c.36 2.01.69 3.86.87 5.47Z"/><path d="M320.34 242.93c-.71-.07-1.43-.14-2.18-.23l-.5-.07c-1.35-.18-2.76-.41-4.19-.69-8-1.58-13.57-2.06-19.19-7.43 0 0-1.46-15.16 1.43-17.9 0 0 9.71-5.74 16.23-8 0 0 8-3.54 11.43-2.24a6.75 6.75 0 0 1 4 4.87l1.32-.07c1.92-.11 5.36-.31 6.5-.36 6.17-.23 8.62 5.16-1 7.58.83 0 6.66.17 7.08 4.66.29 3.15-7.62 4.18-7.62 4.18s6.76 3.35 5.77 6.12c-1.08 3-8.73 2.6-9 2.58.2.16 3.61 2.83 1.1 5.83-1.03 1.24-5.44 1.67-11.18 1.17Z" style="fill:#ffaf82"/><path class="cls-8" d="M320.34 242.93c-.71-.07-1.43-.14-2.18-.23a5.57 5.57 0 0 1-2.07-4.25c.13-3.91 4.39-3.87 4.39-3.87s-3.37-1-2.78-3.55a4.45 4.45 0 0 1 3.15-3.2s-2.76-1.47-2.28-3.71 6.63-3.9 6.63-3.9-3.78 1.77-4.81 3.6.94 4.13 4.95 4c-.44 0-4.53.24-5.69 2.92s4.78 4.65 5.1 4.74c-.36 0-6.87-.26-7.34 2.56-.33 1.9 1.33 3.72 2.93 4.89Z"/><path class="cls-8" d="M325 215s-1.85 6-6.26 7.35-7-5.75-5.07-11.42a8.45 8.45 0 0 0-2 7.48c.8 4.86 5.67 6.22 7.92 4.92s4.03-3.06 5.41-8.33Z"/><path class="cls-8" d="M316.87 222.85s-3.48 7-14.77 5.12c0 0 8.8 6.38 16.64-4.3Z"/><path d="M245.68 207.28c30.15 4 51.87 9.31 51.87 9.31 4.74 6.27 3.83 14.13 2.87 22-51.67 5.21-92.52.1-123.49-7.33-33.65-12-94.33-62.09-94.33-62.09 5.85-42.8 38.22-18.68 38.22-18.68 42.93 34.39 71.45 52.15 71.45 52.15 5.06.66 27.73 1.27 53.41 4.64Z" style="fill:#006acd"/><path d="M85.32 385c18.5-2.13 68.15-5.07 86.72-5.07 6.74 0 4.13-16.94 1.55-38.32-6-49.48-8.28-104.48-8.31-162.91a40.7 40.7 0 0 0-29.05-39l-1.38-.41a106.32 106.32 0 0 0-55.36-1.44 40.65 40.65 0 0 0-30.76 44.65l11.62 91.35a40.39 40.39 0 0 1 .1 9.39l-3.37 45.3c-1.46 13.95-4.64 53.32-4.64 53.32 5.14 3.66 15.06 5.14 32.88 3.14Z" style="fill:#0188e5"/><path class="cls-2" d="m85.18 92.79-8.57-.33c-.79 1.6-4.78 10.78 6.17 13.54 0 0 2.09 10.24 12.55 6.63-2.56-6.74-6.85-13.43-10.15-19.84Z"/><path class="cls-11" d="M96.4 107.47v30.52s13.15 8.7 28.31 3.63l.54-3.75.53-3.68 2-14Z"/><path class="cls-12" d="M96.4 107.47v16c6.17 6.12 15.82 13 28.89 14.4l.53-3.68 2-14Zm58.17-39.87s4.86-11.59 15.69-6 5.4 38.36-13.72 34.93a48.79 48.79 0 0 1-1.97-28.93Z"/><path class="cls-13" d="M162.18 86h-.07a1.54 1.54 0 0 1-1.41-1.65c.73-9 7.4-14.87 7.68-15.12a1.54 1.54 0 0 1 2 2.32c-.09.08-6 5.39-6.64 13a1.53 1.53 0 0 1-1.56 1.45Z"/><path class="cls-13" d="M168.19 82.53a1.52 1.52 0 0 1-1.46-1.35 4.83 4.83 0 0 0-2.48-3.59 1.54 1.54 0 0 1 1.23-2.82c3.77 1.65 4.28 5.88 4.3 6.06a1.55 1.55 0 0 1-1.36 1.7 1.77 1.77 0 0 1-.23 0Z"/><path class="cls-11" d="M84.7 94.13c.43 1.41.9 2.82 1.43 4.21s1 2.5 1.57 3.73c13.16 28.64 63.57 30.44 71.35 1.41 7.67-28.6 7-64.1 7-64.1L85.3 35.19s-8.91 31.66-.6 58.94Z"/><path class="cls-12" d="M84.7 94.13c.43 1.41.9 2.82 1.43 4.21 2.62-2.3 2.58-7.9 2.58-7.9a7.17 7.17 0 0 1-4.01 3.69Z"/><circle class="cls-2" cx="114.61" cy="67.13" r="3.77"/><path class="cls-2" d="M148.92 68.43a3.77 3.77 0 1 1-3.63-3.92 3.77 3.77 0 0 1 3.63 3.92Zm-7.42-17.22s-3.55 3.62-2.43 5.67c0 0 12.68 3.83 19.15 8.82 0 0 1.87-5.72-3.32-8.91s-13.4-5.58-13.4-5.58Zm-21.29-.81s2.92 4.13 1.49 6c0 0-13.09 1.76-20.25 5.65 0 0-.93-5.94 4.68-8.25s14.08-3.4 14.08-3.4Z"/><path class="cls-12" d="M128.18 89.49a15.77 15.77 0 0 1-4.72-1 1.54 1.54 0 0 1 1.08-2.88c.06 0 6.29 2.24 7.69-1 1.31-3.06-.5-12.33-1.94-17.45a1.53 1.53 0 1 1 3-.83c.41 1.46 4 14.43 1.81 19.49-1.31 2.97-4.1 3.77-6.92 3.67Z"/><path class="cls-11" d="M92.36 64.69s-6.93-11.3-18.15-6.58S65.92 96 85.25 94c0 0 9.82-13.38 7.11-29.31Z"/><path class="cls-12" d="M81.18 82.92a1.55 1.55 0 0 1-1.47-1.53c0-7.71-5.58-13.46-5.63-13.52a1.53 1.53 0 1 1 2.18-2.15c.27.27 6.47 6.67 6.52 15.65a1.55 1.55 0 0 1-1.53 1.55Z"/><path class="cls-12" d="M75.45 79h-.23A1.54 1.54 0 0 1 74 77.2c0-.18.86-4.36 4.75-5.72a1.54 1.54 0 1 1 1 2.9A4.86 4.86 0 0 0 77 77.77 1.54 1.54 0 0 1 75.45 79Zm50.41 37.73a14.86 14.86 0 0 1-7.93-2.63 1 1 0 0 1 1.15-1.69c6.56 4.48 13.42 1 13.71.88a1 1 0 1 1 .94 1.81 16.92 16.92 0 0 1-7.87 1.63Z"/><path class="cls-2" d="M91.78 37.77s3.29 3.07 2 9.77-2.8 8.57-2.8 8.57a21.28 21.28 0 0 1 .4 11.3l-.1-.26a17.74 17.74 0 0 0-9.36-10.08l-.39-.17S69 55.86 68.82 41.75s9-15.45 9-15.45-.34-17 10.81-19.68 17.79 4.13 17.79 4.13A12.93 12.93 0 0 1 118.87 1c10.25-.53 12.27 7 12.27 7S132.6.31 147.2 0c8.65-.18 12.69 7.8 12.69 7.8s2.35-5.44 15.28-3.24c11.64 2 14.1 22.8 1.08 26.35 0 0 8.34 3.45 3.95 12.3S166.46 49 166.46 49s-10 .17-13.63-7c0 0-4.84 6.44-15.61 4s-13.91-6.79-13.91-6.79-7.42 6.35-15.41 3.65-7.49-7.95-16.12-5.09Z"/><path class="cls-2" d="M169.41 44.89s-.51 18.9-4.77 27.73l-1.55-10.06L164 56s-4.23-6.82-2.28-10.3 7.69-.81 7.69-.81Zm-42.22 47.02h.2-.1Zm.21-1.02-.71-.1-.41-.05-.54-.08-1.08-.15-1.07-.2a43.32 43.32 0 0 1-4.25-1.07 71.23 71.23 0 0 1-8.43-3.34c-1.42-.65-2.88-1.34-4.39-2l-.31-.13c-.16-.07-.32-.14-.5-.2a8.85 8.85 0 0 0-1.07-.31 8.47 8.47 0 0 0-2.33-.22 8.25 8.25 0 0 0-4.72 1.7 8.44 8.44 0 0 0-2.85 4 9.05 9.05 0 0 0-.31 1.1l-.13.71c-.09.46-.18.92-.24 1.37a38.44 38.44 0 0 0-.42 5.44 43.89 43.89 0 0 0 .31 5.38 41.47 41.47 0 0 0 1 5.3 42.88 42.88 0 0 0 1.6 5.17c.16.42.32.84.51 1.26l.26.62.13.32.07.15v.19a15 15 0 0 0 1.94 3.09 21.31 21.31 0 0 0 4.82 4.3 31.49 31.49 0 0 0 5.13 2.74 41.7 41.7 0 0 0 10.48 2.86 50.61 50.61 0 0 0 10.66.3 40.73 40.73 0 0 0 5.4-.75 30.83 30.83 0 0 0 5.53-1.63 21.61 21.61 0 0 0 2.82-1.39 15.87 15.87 0 0 0 2.77-2 20.36 20.36 0 0 0 3.84-4.92 30.52 30.52 0 0 0 2.27-5.15 39.78 39.78 0 0 0 1.42-5.2 46.69 46.69 0 0 0 .69-5.24 35.66 35.66 0 0 0 0-5.37 20.93 20.93 0 0 0-.4-2.83 11.55 11.55 0 0 0-1.1-3.19 6.39 6.39 0 0 0-1.54-1.93 4.75 4.75 0 0 0-1.49-.84 4.7 4.7 0 0 0-.9-.21h-.78c-.63 0-1 0-1.48.06l-1.27.1c-3.3.31-6.47.72-9.67 1.14l-4.77.64-2.39.34-1.19.17-.6.08h-.23Zm-24.3 2.18c0-.34.06-.67.11-1v-.25c.18 0 2.9 1.15 4.42 1.75a75.31 75.31 0 0 0 9.58 3.23 48.43 48.43 0 0 0 5.1 1l1.3.17 1.31.13h1.44c.52 0 1.05 0 1.57.05 7.12.27 19.8-3.46 20.19-3.58l.06 1a17.52 17.52 0 0 1 0 1.94 28.1 28.1 0 0 1-.51 4.21 35.7 35.7 0 0 1-1.1 4.18 26.07 26.07 0 0 1-3.62 7.32 10.68 10.68 0 0 1-2.34 2.36 6.89 6.89 0 0 1-1.19.67 13.79 13.79 0 0 1-1.55.56 25 25 0 0 1-3.76.74 39.44 39.44 0 0 1-4.12.26 53.73 53.73 0 0 1-8.48-.65 48.71 48.71 0 0 1-8.07-1.83 21.18 21.18 0 0 1-3.47-1.48 10 10 0 0 1-2.51-1.83 5.31 5.31 0 0 1-.68-.9v-.05l-.06-.12-.11-.23-.23-.47c-.16-.31-.3-.62-.44-.94a34.71 34.71 0 0 1-3-12.17 29.88 29.88 0 0 1 .16-4.07Z"/><path class="cls-5" d="M110.25 97.48a19.64 19.64 0 0 0 1.28 4.31 20.32 20.32 0 0 0 1.41 2.79 15 15 0 0 0 12.79 7.47c7.54.29 11.79-3.09 14.15-6.52a17.16 17.16 0 0 0 1.53-2.71 16.78 16.78 0 0 0 1.3-4.1s-14.01 4.36-32.46-1.24Z"/><path d="M131 105.63a35.39 35.39 0 0 0 8.88-.1 17.16 17.16 0 0 0 1.53-2.71 35.45 35.45 0 0 1-10.41 2.81Zm-19.47-3.84a20.32 20.32 0 0 0 1.41 2.79 36.29 36.29 0 0 0 8.52.68 35.14 35.14 0 0 1-9.93-3.47Z" style="fill:#e2e2e2"/><path class="cls-11" d="M314.58 212s9.51-4.5 16.88-2.46c1.92.53.9 5.82-2.33 6.8 0 0 3.9-.24 4.56 1.82 1.45 4.51-2.24 5.48-2.24 5.48s4 2.19 3.7 5.38c-.32 3.56-4.74 4.72-4.74 4.72s5.4-1.21 4.79 4.59c-.47 4.44-26.49 9.13-41.15.85 0 0-2.77-14.15-.59-17.88 0 0 5.14-7.47 11.08-11.78 0-.02 7.07-7.85 10.04 2.48Z"/><path d="M241.6 217.68c30.41-.28 52.66 2 52.66 2 5.56 5.55 5.76 13.46 5.91 21.39-50.43 12.37-91.6 13-123.3 10-35-7.21-114.07-61.77-114.07-61.77C62.62 146 98 165.41 98 165.41c47.32 28.06 90 55.12 90 55.12 5.16-.05 27.69-2.61 53.6-2.85Z" style="fill:#0590dd"/></g></g></svg>