<svg xmlns="http://www.w3.org/2000/svg" viewBox="0 0 256.29 661.54"><defs><style>.cls-1{fill:#ffcfca;}.cls-2{fill:#602826;}.cls-3{fill:#1c1c1c;}.cls-4{fill:#f9bfbb;}.cls-5{fill:#939393;}.cls-6{fill:#777;}.cls-7{fill:#a9aaa9;}.cls-8{fill:#e52828;}.cls-9{fill:#db0e0e;}.cls-10{fill:#eaa9a9;}.cls-11{fill:#5c7aea;}.cls-12{fill:#667ef7;}.cls-13{fill:#1f3c49;}.cls-14{fill:#ea5353;}.cls-15{fill:#ff948f;}.cls-16{fill:#fff;}</style></defs><g id="Capa_2" data-name="Capa 2"><g id="Información"><path class="cls-1" d="M215.21,618.27l-5-3.68-3.7-32.12s-28.42,4.53-28.42,4.94S181,617.47,181,617.47l-2.06,8.24,21,1.65,11.94-2.88Z"/><polygon class="cls-1" points="71.42 626.31 70.14 595.17 102.77 594.78 96.73 624.94 86.05 635.02 71.42 626.31"/><path class="cls-2" d="M108.64,646.91c-.84-2.64-9.58-18.13-11.69-22a32.22,32.22,0,0,1-13.11,2.85c-4.27,0-9-.4-12.45-3-2.18,3.07-4.84,7.26-6.85,10.66-1.83,3.09-4.39,6.3-5.68,9.76s-.73,7.49,2,9.79c9.2,7.6,35,9.48,46.08,1C110.3,653.48,109.21,648.7,108.64,646.91Z"/><path class="cls-3" d="M148.75,116.25c-9.11,15.92,2.24,62.63-5.9,79.07-7.71,15.57-15.35,31.18-23.56,46.49a421.32,421.32,0,0,1-39.51-15.14c-12.89-5.62-25.35-12-36.12-21.15a130.66,130.66,0,0,1-15.82-16C36.8,182.93,46,124,52.5,107.08,61.73,83,78,63.29,88,39.59c5.68-13.49,14.65-26.62,27.6-34s30.74-8.09,42.67,1.85c7.37,6.14,12,15.17,13.88,24.57a61.33,61.33,0,0,1,1.14,13.59c0,1.22-.08,2.44-.17,3.65a94.17,94.17,0,0,1-1.53,11.34A130.88,130.88,0,0,1,167,77.65C162.38,91.12,155.8,103.91,148.75,116.25Z"/><path class="cls-1" d="M136.63,115.16c-2.33.81-4.88.53-7.33.25a60.45,60.45,0,0,1-8.78-1.45c-5.6-1.49-10.27-4.65-15.22-7.64.82-3.24,1.63-6.48,2.46-9.71,1-4,2-8.11,2.66-12.24.19-1.26.34-2.54.46-3.81.31-3.17.45-6.35.58-9.54l.33-7.85a20.26,20.26,0,0,0,3.92,4.15c6.57,5.81,13.35,11.37,20.21,16.84a36.94,36.94,0,0,0,6.52,4.47l-3.13,14.29Z"/><path class="cls-4" d="M139.31,102.92A89.73,89.73,0,0,1,117.08,87c-2.07-2-4.21-4.21-6.2-6.47.31-3.17.45-6.35.58-9.54l.33-7.85a20.26,20.26,0,0,0,3.92,4.15c6.57,5.81,13.35,11.37,20.21,16.84a36.94,36.94,0,0,0,6.52,4.47Z"/><path class="cls-1" d="M160.1,85.38c-2.95,4.22-6.55,7.87-11.49,9.62a23.4,23.4,0,0,1-13.76.49,29.71,29.71,0,0,1-13-7.82,37.62,37.62,0,0,1-4.87-6,52.83,52.83,0,0,1-5.78-12,65.51,65.51,0,0,1-3.67-21.87c.11-8.41,2.21-16.69,7.22-23.66a31.53,31.53,0,0,1,7.39-7.37A29.68,29.68,0,0,1,161,21a37.73,37.73,0,0,1,9.12,20.87,68.49,68.49,0,0,1,.45,7.32C170.68,61.93,167.36,75,160.1,85.38Z"/><path class="cls-5" d="M220.69,289.13a33.75,33.75,0,0,0-7.14-9.68,9.94,9.94,0,0,0-2.77-2.15c-2.84-1.33-6.28,1.18-8.61,2.65a38.85,38.85,0,0,0-7.74,6.38,5.21,5.21,0,0,0-1.63,2.83c-.14,1.38.75,2.62,1.59,3.72q2.91,3.8,5.83,7.6a6.58,6.58,0,0,0,2.23,2.1,5.91,5.91,0,0,0,3.29.24,33.54,33.54,0,0,0,13.51-4.92,6.37,6.37,0,0,0,2.25-2.09,5.94,5.94,0,0,0,0-4.66A20.62,20.62,0,0,0,220.69,289.13Z"/><path class="cls-6" d="M204.32,301.87a.35.35,0,0,1-.21-.07,10.08,10.08,0,0,1-1.87-1.82l-.18-.21a38,38,0,0,0-3.84-3.88.37.37,0,0,1,.49-.56,40.6,40.6,0,0,1,3.92,3.95l.18.22a8.88,8.88,0,0,0,1.72,1.69.37.37,0,0,1-.21.68Z"/><path class="cls-6" d="M207.18,301.13a.39.39,0,0,1-.25-.1,18.15,18.15,0,0,1-1.5-1.69,33,33,0,0,1-3.13-4.25,1.1,1.1,0,0,1-.1-1.11.35.35,0,0,1,.46-.09.42.42,0,0,1,.17.5s0,.07.12.33a32.45,32.45,0,0,0,3.05,4.14,18.63,18.63,0,0,0,1.44,1.63.37.37,0,0,1,0,.52A.36.36,0,0,1,207.18,301.13Z"/><path class="cls-6" d="M210.46,300.18a.37.37,0,0,1-.31-.17,21.83,21.83,0,0,0-3.33-4l-.69-.64A13.49,13.49,0,0,1,204,293a.36.36,0,0,1,.09-.51.37.37,0,0,1,.52.09,12.69,12.69,0,0,0,2.06,2.16l.7.65a21.93,21.93,0,0,1,3.45,4.18.37.37,0,0,1-.12.52A.35.35,0,0,1,210.46,300.18Z"/><path class="cls-6" d="M213.84,299.47a.38.38,0,0,1-.29-.14,76.45,76.45,0,0,0-7.09-7.75.37.37,0,0,1,0-.52.37.37,0,0,1,.53,0,77.69,77.69,0,0,1,7.15,7.81.38.38,0,0,1,0,.53A.43.43,0,0,1,213.84,299.47Z"/><path class="cls-6" d="M216.59,297.65a.36.36,0,0,1-.29-.15,35.67,35.67,0,0,0-7.17-7,.37.37,0,1,1,.44-.6,36.63,36.63,0,0,1,7.32,7.13.36.36,0,0,1-.07.52A.38.38,0,0,1,216.59,297.65Z"/><path class="cls-6" d="M219.66,296a.35.35,0,0,1-.22-.08,17.5,17.5,0,0,1-2.65-2.8c-.25-.31-.5-.62-.76-.92a28.07,28.07,0,0,0-4.54-4.24.37.37,0,1,1,.44-.59,28.25,28.25,0,0,1,4.66,4.35l.77.93a17,17,0,0,0,2.54,2.68.39.39,0,0,1,.06.53A.41.41,0,0,1,219.66,296Z"/><path class="cls-6" d="M220.1,290.8a.36.36,0,0,1-.25-.11L214.11,285a.39.39,0,0,1,0-.53.38.38,0,0,1,.53,0l5.73,5.71a.37.37,0,0,1,0,.53A.39.39,0,0,1,220.1,290.8Z"/><path class="cls-3" d="M173.31,45.6c-1.87-7-3.67-14.27-7.17-20.52a30.28,30.28,0,0,0-13.72-12.95c-11.15-5.05-26.09-5.33-36.62,1.44A30,30,0,0,0,104.49,28c-2.26,5.76-2.85,11.34-3.36,17.55,11.49,2.8,23.62-.89,32.45-7.78C140.14,32.69,145.07,26,149,18.7a68.52,68.52,0,0,0,7.56,16.11c4.11,6.19,9.77,11.55,16.63,14.44C173.23,48,173.29,46.82,173.31,45.6Z"/><path class="cls-7" d="M200.25,247.87c-3.79-5.42-12.1-15.94-12.1-15.94s5.15-68.7-9-98.05c-9-9.3-17.74-17.66-30.61-20-9.41,15.79-12.28,30-13.83,48.34-2.06,24.29-2.65,49.92,8.32,71.69A131.94,131.94,0,0,0,153.85,251a295.6,295.6,0,0,0,34.89,41,11.17,11.17,0,0,0,13,1.84l12.45-6.65a8.32,8.32,0,0,0,3.4-11.31A287.88,287.88,0,0,0,200.25,247.87Z"/><path class="cls-5" d="M177.79,251.31c-.25-.4-.49-.8-.73-1.21a.41.41,0,0,0-.71.42c.24.41.49.82.74,1.23l1,1.58a.42.42,0,0,0,.35.19.38.38,0,0,0,.22-.07.42.42,0,0,0,.12-.57C178.46,252.36,178.12,251.84,177.79,251.31Z"/><path class="cls-5" d="M171.52,238.25A.42.42,0,0,0,171,238a.41.41,0,0,0-.24.53c.39,1.05.79,2.09,1.2,3.09a.41.41,0,0,0,.76-.32C172.31,240.32,171.91,239.29,171.52,238.25Z"/><path class="cls-5" d="M169.45,232a.41.41,0,1,0-.78.24c.32,1.08.65,2.14,1,3.15a.42.42,0,0,0,.39.28.3.3,0,0,0,.13,0,.41.41,0,0,0,.26-.52C170.11,234.15,169.78,233.09,169.45,232Z"/><path class="cls-5" d="M168.21,227.6a3.78,3.78,0,0,1-.7.55c.08.31.16.63.25.93a.41.41,0,0,0,.39.3h.11a.42.42,0,0,0,.29-.51C168.44,228.45,168.33,228,168.21,227.6Z"/><path class="cls-5" d="M174,244.31a.41.41,0,0,0-.55-.2.4.4,0,0,0-.2.54c.47,1,1,2,1.46,3a.42.42,0,0,0,.37.22.45.45,0,0,0,.19,0,.41.41,0,0,0,.17-.56C175,246.3,174.49,245.31,174,244.31Z"/><path class="cls-5" d="M200.91,281.53a.4.4,0,0,0-.58,0,.41.41,0,0,0-.06.58l2.12,2.52a.4.4,0,0,0,.58.05.4.4,0,0,0,.05-.58Z"/><path class="cls-5" d="M196.72,276.44a.42.42,0,0,0-.58-.06.41.41,0,0,0-.06.58c.69.86,1.39,1.71,2.09,2.56a.41.41,0,0,0,.32.15.39.39,0,0,0,.26-.1.41.41,0,0,0,.05-.58C198.11,278.15,197.41,277.3,196.72,276.44Z"/><path class="cls-5" d="M180.66,255.58a.41.41,0,0,0-.57-.1.42.42,0,0,0-.1.58c.64.89,1.29,1.78,1.95,2.66a.4.4,0,0,0,.33.17.43.43,0,0,0,.24-.08.41.41,0,0,0,.09-.58C182,257.35,181.3,256.47,180.66,255.58Z"/><path class="cls-5" d="M205.6,287.07l-.44-.51a.41.41,0,1,0-.63.53l.45.52a.38.38,0,0,0,.31.14.44.44,0,0,0,.27-.09A.42.42,0,0,0,205.6,287.07Z"/><path class="cls-5" d="M192.6,271.31a.41.41,0,0,0-.58-.07.4.4,0,0,0-.06.58l2,2.58a.41.41,0,0,0,.32.15.43.43,0,0,0,.26-.09.41.41,0,0,0,.06-.58Z"/><path class="cls-5" d="M184.57,260.87a.42.42,0,0,0-.58-.08.41.41,0,0,0-.08.58l2,2.63a.41.41,0,0,0,.33.16.38.38,0,0,0,.25-.08.41.41,0,0,0,.08-.58C185.89,262.63,185.22,261.75,184.57,260.87Z"/><path class="cls-5" d="M188.55,266.12a.41.41,0,1,0-.65.5l2,2.61a.41.41,0,0,0,.32.15.42.42,0,0,0,.26-.08.41.41,0,0,0,.07-.58Z"/><path class="cls-1" d="M167.65,200.94q-5.57,22.11-11.12,44.21a49.25,49.25,0,0,1-6.42,15.21c-9.52,2.93-19.2,5.88-29.16,5.93a101.27,101.27,0,0,1-15.61-1.53c-8.31-1.25-16.71-3.17-23.88-7.55-.41-3.16-.54-6.87-.8-10l-3-36.15a13.52,13.52,0,0,0,6.85.86l12.13-1.35,44.21-5,16.76-1.88A26.56,26.56,0,0,0,167.65,200.94Z"/><path class="cls-8" d="M212.27,599.35a108.33,108.33,0,0,1-22.64,5.93c-12.31,1.76-13.19.25-13.19.25L154,457.6s-6.25-16.27-14.66-38.19c-.66-1.72-1.34-3.48-2-5.27-8.44-22-18.6-48.56-26.75-70-.1-.25-.2-.5-.29-.76C102,321.4,95.77,305,95.83,304.55c.14-1,3.09-27.35,4.31-38.26.2-1.83-.83-8.66.52-9.19,8.65,2.06,19.91,1.35,28.42.41,14.82-1.65,24.3-3.3,24.3-3.3s20.54,45.56,28.83,72.9c8.23,27.19,21.41,133,21.41,133Z"/><path class="cls-9" d="M139.37,419.41c-.66-1.72-1.34-3.48-2-5.27-8.44-22-18.6-48.56-26.75-70-.1-.25-.2-.5-.29-.76,2.87-17.91,6.09-35.8,5.14-53.84,13.62,23.27,18.37,50.64,20.57,77.52.79,9.85,1.28,19.73,1.83,29.6C138.27,404.24,138.72,411.83,139.37,419.41Z"/><path class="cls-8" d="M125,257.92c-10.71.41-14.79.08-25.13-2.47-6.17-1.52-14.41-4.94-19.35-9.06-7.83,14-19.25,34.93-21.83,60.54-5.36,53.13,16.78,155.5,16.78,155.5s-7,97-11,149.69c8.79,3.52,8.79,3.71,18.5,3.71,10.55,0,11.27.16,21-3.3L129.12,461.1C128.39,395.45,127.73,323.52,125,257.92Z"/><path class="cls-5" d="M162.78,216.77c-12.13,1-24.3-.12-36.42-1.18q-11.64-1-23.25-2.48-5.89-.75-11.78-1.61c-3-.44-6.75-1.28-9.68-.14-6.26,2.43-5.47,13.94-5.29,19.25.15,4.71,3.1,6.77,7.14,8.21,20.77,7.37,43.44,7.68,65.21,4.26,3.28-.51,7.88-.45,10-3.49,3.32-4.82,5.49-11.24,7.69-16.67C167.59,219.9,166.55,216.45,162.78,216.77Z"/><path class="cls-6" d="M78.57,234.77h0a.36.36,0,0,1-.32-.41l.52-4.21a.37.37,0,0,1,.41-.33.38.38,0,0,1,.33.42L79,234.45A.36.36,0,0,1,78.57,234.77Z"/><path class="cls-6" d="M81,237h0a.38.38,0,0,1-.29-.44c.35-1.69.69-3.4,1-5.1a.39.39,0,0,1,.43-.31.38.38,0,0,1,.31.43c-.3,1.71-.64,3.44-1,5.13A.36.36,0,0,1,81,237Z"/><path class="cls-6" d="M83.88,238.25h0a.38.38,0,0,1-.28-.45,45.48,45.48,0,0,0,.89-5.57.38.38,0,0,1,.41-.33.37.37,0,0,1,.33.4,45.2,45.2,0,0,1-.9,5.67A.36.36,0,0,1,83.88,238.25Z"/><path class="cls-6" d="M86.4,239.28h-.08a.38.38,0,0,1-.24-.47,47.24,47.24,0,0,0,1.48-5.73.36.36,0,0,1,.43-.3.39.39,0,0,1,.3.44,46.89,46.89,0,0,1-1.5,5.82A.38.38,0,0,1,86.4,239.28Z"/><path class="cls-6" d="M89.63,240.11h0a.36.36,0,0,1-.28-.44l1.2-5.32a.37.37,0,0,1,.44-.28.38.38,0,0,1,.28.45L90,239.82A.36.36,0,0,1,89.63,240.11Z"/><path class="cls-6" d="M92.71,240.81h0a.36.36,0,0,1-.3-.43l1-5.54a.37.37,0,0,1,.43-.3.36.36,0,0,1,.3.43l-1,5.55A.37.37,0,0,1,92.71,240.81Z"/><path class="cls-6" d="M95.66,240.83h0a.36.36,0,0,1-.29-.43,44.43,44.43,0,0,1,1.19-4.57.36.36,0,0,1,.46-.24.37.37,0,0,1,.25.46,43.55,43.55,0,0,0-1.17,4.49A.38.38,0,0,1,95.66,240.83Z"/><path class="cls-6" d="M98.54,242.29h0a.37.37,0,0,1-.29-.44l1.21-5.75a.37.37,0,1,1,.72.15L98.93,242A.37.37,0,0,1,98.54,242.29Z"/><path class="cls-6" d="M101.19,242.79h0a.37.37,0,0,1-.28-.44c.4-1.76.78-3.55,1.14-5.31a.36.36,0,0,1,.44-.29.36.36,0,0,1,.29.43c-.36,1.77-.74,3.57-1.14,5.33A.36.36,0,0,1,101.19,242.79Z"/><path class="cls-6" d="M104.09,242.81a.37.37,0,0,1-.34-.38,13.73,13.73,0,0,1,.74-3.66l0-.12a6,6,0,0,0,.35-1.55.38.38,0,0,1,.39-.35.38.38,0,0,1,.36.38,6.75,6.75,0,0,1-.39,1.75l0,.11a12.75,12.75,0,0,0-.71,3.46.38.38,0,0,1-.38.36Z"/><path class="cls-6" d="M106.68,243.41h0a.37.37,0,0,1-.31-.42c.28-1.84.65-3.7,1.1-5.52a.38.38,0,0,1,.45-.27.37.37,0,0,1,.27.45c-.44,1.8-.81,3.63-1.09,5.45A.36.36,0,0,1,106.68,243.41Z"/><path class="cls-6" d="M110,243.45h-.06a.37.37,0,0,1-.27-.45c.3-1.24.61-2.52.85-3.78a3.73,3.73,0,0,0,.07-1.44.37.37,0,0,1,.72-.16,4.37,4.37,0,0,1-.06,1.73c-.24,1.29-.56,2.58-.86,3.82A.36.36,0,0,1,110,243.45Z"/><path class="cls-6" d="M113.15,244.05h0a.39.39,0,0,1-.31-.43l.78-4.66a6.15,6.15,0,0,0,.11-1,.37.37,0,0,1,.37-.37.38.38,0,0,1,.37.38,6,6,0,0,1-.12,1.06l-.77,4.66A.37.37,0,0,1,113.15,244.05Z"/><path class="cls-6" d="M116,243.75h0a.36.36,0,0,1-.32-.41c.2-1.79.49-3.6.87-5.37a.38.38,0,0,1,.44-.29.37.37,0,0,1,.28.44c-.37,1.75-.66,3.53-.86,5.31A.38.38,0,0,1,116,243.75Z"/><path class="cls-6" d="M118.82,244.25h-.06a.36.36,0,0,1-.26-.45,30.28,30.28,0,0,0,.91-5.6.37.37,0,0,1,.4-.34.36.36,0,0,1,.34.39,30.29,30.29,0,0,1-.94,5.74A.35.35,0,0,1,118.82,244.25Z"/><path class="cls-6" d="M121.59,244.43h0a.37.37,0,0,1-.34-.41l.52-5.25a.36.36,0,0,1,.4-.34.37.37,0,0,1,.34.41l-.52,5.25A.37.37,0,0,1,121.59,244.43Z"/><path class="cls-6" d="M124.43,244a.37.37,0,0,1-.34-.39l.32-5.39a.38.38,0,0,1,.39-.35.38.38,0,0,1,.35.39l-.32,5.39a.37.37,0,0,1-.39.35Z"/><path class="cls-6" d="M127,244.65h0a.36.36,0,0,1-.32-.41l.79-6a.37.37,0,0,1,.73.09l-.79,6A.36.36,0,0,1,127,244.65Z"/><path class="cls-6" d="M130,243.25h0a.37.37,0,0,1-.32-.42l.59-4.81a.39.39,0,0,1,.41-.32.38.38,0,0,1,.33.42l-.6,4.81A.36.36,0,0,1,130,243.25Z"/><path class="cls-6" d="M132.86,243.43h0a.37.37,0,0,1-.31-.42l.79-5.46a.37.37,0,0,1,.74.11l-.8,5.46A.36.36,0,0,1,132.86,243.43Z"/><path class="cls-6" d="M135.8,243.26a.38.38,0,0,1-.33-.25.84.84,0,0,1,0-.5l1.09-4.71a.37.37,0,0,1,.73.17l-1.1,4.71a.36.36,0,0,0,0,.1.35.35,0,0,1-.23.46A.23.23,0,0,1,135.8,243.26Z"/><path class="cls-6" d="M139.17,242.75a.38.38,0,0,1-.34-.4,37.53,37.53,0,0,1,.81-5.29.38.38,0,0,1,.45-.28.37.37,0,0,1,.28.44,36.35,36.35,0,0,0-.8,5.19.37.37,0,0,1-.4.34Z"/><path class="cls-6" d="M142.28,242.4h0a.37.37,0,0,1-.31-.42l.86-5.45a.37.37,0,1,1,.74.12l-.86,5.44A.38.38,0,0,1,142.28,242.4Z"/><path class="cls-6" d="M145.22,242.37h0a.36.36,0,0,1-.31-.41l.8-5.74a.35.35,0,0,1,.42-.31.38.38,0,0,1,.32.42l-.81,5.73A.38.38,0,0,1,145.22,242.37Z"/><path class="cls-6" d="M148.16,241.74a.3.3,0,0,1-.15-.05.4.4,0,0,1-.19-.47l.77-3.54a7.44,7.44,0,0,0,.24-1.81.37.37,0,0,1,.36-.38.36.36,0,0,1,.38.36,7.7,7.7,0,0,1-.26,2l-.73,3.38a.4.4,0,0,1-.42.52Zm.38-.36Z"/><path class="cls-6" d="M151.31,241.66h0a.38.38,0,0,1-.33-.41,52.2,52.2,0,0,1,1-6.09.37.37,0,0,1,.72.16,55.7,55.7,0,0,0-1,6A.37.37,0,0,1,151.31,241.66Z"/><path class="cls-6" d="M153.78,241h-.07a.37.37,0,0,1-.26-.44c.44-2,.94-4,1.5-6a.38.38,0,0,1,.46-.26.37.37,0,0,1,.26.46c-.52,1.86-1,3.75-1.42,5.63a.37.37,0,0,1,0,.18l-.08.22A.39.39,0,0,1,153.78,241Z"/><path class="cls-6" d="M157.22,239l-.11,0a.37.37,0,0,1-.2-.49,47.82,47.82,0,0,0,1.62-4.53.39.39,0,0,1,.47-.25.38.38,0,0,1,.24.47c-.47,1.55-1,3.1-1.64,4.6A.36.36,0,0,1,157.22,239Z"/><path class="cls-1" d="M218.2,325.51c-.43-.48-.86-1-1.29-1.51l-.3-.35h0c-.78-1-1.57-2-2.34-3.07h0c-4.32-6.06-8.18-13.73-8.54-20.78,0,0,12-6.16,15.56-6.17a70.1,70.1,0,0,1,12.74,4s7.52,2.67,8.94,5.64a6.14,6.14,0,0,1-.41,5.7l.92.77c1.34,1.13,3.73,3.14,4.51,3.82,4.21,3.69,2.48,8.78-5.36,4.4.52.54,4.28,4.26,1.76,7.48-1.77,2.27-7.63-2-7.63-2s2.37,6.43,0,7.64c-2.6,1.32-7.38-3.72-7.58-3.92,0,.23.63,4.11-2.9,4.53C224.88,331.86,221.67,329.42,218.2,325.51Z"/><path class="cls-10" d="M231.47,309s-6.37,2.34-12.4-5.58c0,0,1.76,9.29,13.09,7.22Z"/><path class="cls-11" d="M247.06,319.2s1.29-12.43-13.05-12.08c0,0-13.15,2.19-23,8.37,0,0,.19,4.18,3.54,5.43l-.21-1.71S240.15,307.66,247.06,319.2Z"/><path class="cls-12" d="M225.67,315.14l-135.1-12,24-21.08L225.73,306s7.5-.13,6.88,5.58C232.14,315.85,225.67,315.14,225.67,315.14Z"/><path class="cls-1" d="M247.64,323.48c-1.4,1.76-5.89.5-10-2.8s-6.24-6.27-5-9.15c.9-2,5.89-.5,10,2.8S249,321.73,247.64,323.48Z"/><ellipse class="cls-1" cx="233.53" cy="320.55" rx="4.06" ry="7.66" transform="translate(-157.76 255.85) rotate(-44.54)"/><path class="cls-10" d="M222.09,323.6c-.41-.46-.82-.94-1.23-1.45a5,5,0,0,1,1.26-4c2.44-2.45,5.1.14,5.1.14s-1.54-2.64.39-4a3.86,3.86,0,0,1,3.92-.17s-.85-2.6.81-3.76,6.54,1.46,6.54,1.46-3.46-1.12-5.22-.56-1.9,3.23.73,5.52c-.28-.26-3-2.57-5.35-1.53s.21,5.86.35,6.12c-.22-.22-4.17-4.29-6.17-2.76C221.84,319.72,221.79,321.89,222.09,323.6Z"/><path class="cls-1" d="M243.43,301.48c1.55,2.56.9,5.37-2.77,7.6s-6.79,2.53-9.45-.58c-1.9-2.22.16-6.44,3.83-8.67S241.88,298.93,243.43,301.48Z"/><path class="cls-10" d="M241.38,308.61s-4.67,2.87-8.28,1.1-3.93-6.67,3.66-10.62A8.63,8.63,0,0,0,231,303c-2.39,3.55-.13,7.32,2.07,7.84S237.41,311.13,241.38,308.61Z"/><path class="cls-1" d="M98.85,304.09c-1.64,1-2.95,2.66-5.23,2.28-2.52-.42-4.68-3.21-6.42-4.85a175.41,175.41,0,0,1-14.68-16l11-9.19c.27-.23,6.68,1.68,7.42,1.78,3.32.46,6.88-.69,10.25-.86,3.57-.17,7.19-.86,10.75-.36,4.44.62,3.92,2.3,3.16,5.93-1.26,6-.11,5,4,8.45,1.1.93,2.44,2.73,2.15,4.14a3.36,3.36,0,0,1-2.5,2.63c-1.19.11-2.63-.69-3.82-.84-3.17-.42-.73,2-3.29,3.89-1.39,1.05-2.9,2.14-4.64,2a42.35,42.35,0,0,0-6.46.37A4.34,4.34,0,0,0,98.85,304.09Z"/><path class="cls-5" d="M89,273.65a17.16,17.16,0,0,0-4.83-3.7,34.48,34.48,0,0,0-4.12-2.07c-.4-.17-4.23-1.78-4.39-1.53L64.73,284c-.26.46,9.48,6.54,10.29,7.05a7.11,7.11,0,0,0,4,1.3c2.4-.09,4.28-2,5.66-3.75,2.62-3.36,6.8-7.69,5.64-12.43A6.41,6.41,0,0,0,89,273.65Z"/><path class="cls-6" d="M79.08,290.24q-3.47-2.52-7.11-4.79c-.46-.28-.84.45-.39.73,2.37,1.47,4.69,3,6.94,4.67C78.94,291.16,79.5,290.56,79.08,290.24Z"/><ellipse class="cls-6" cx="77.37" cy="286.21" rx="0.41" ry="490.94" transform="translate(-200.38 182.48) rotate(-54.39)"/><ellipse class="cls-6" cx="83.53" cy="274.85" rx="0.41" ry="490.94" transform="matrix(0.58, -0.81, 0.81, 0.58, -188.57, 182.74)"/><path class="cls-6" d="M83.9,285.64q-4.45-2.7-9.1-5.06c-.47-.24-.86.48-.39.72q4.65,2.37,9.1,5.06C84,286.64,84.35,285.91,83.9,285.64Z"/><path class="cls-6" d="M85.21,282.86C83.8,281.92,82.37,281,81,280a26.88,26.88,0,0,1-3.76-2.87c-.38-.37-.86.3-.49.66a28.37,28.37,0,0,0,3.76,2.88l4.26,2.81C85.17,283.81,85.66,283.15,85.21,282.86Z"/><path class="cls-6" d="M89.05,275.29l-4.26-2.81A28.37,28.37,0,0,1,81,269.6c-.38-.36-.86.31-.48.67a26.79,26.79,0,0,0,3.75,2.87L88.56,276C89,276.25,89.49,275.58,89.05,275.29Z"/><path class="cls-6" d="M87.16,280.31q-4.3-2.81-8.8-5.29a.41.41,0,0,0-.39.73q4.48,2.49,8.8,5.29C87.22,281.33,87.6,280.6,87.16,280.31Z"/><path class="cls-7" d="M162.75,122.21c-.7-1.83-6.27-5.8-6.27-5.8s-33.33-6.73-49.15-4.71A123.13,123.13,0,0,0,84,117c-8.3,2.76-15.56,6-22.41,11.57a151.21,151.21,0,0,0-19,19c-2.83,3.28-5.59,6.61-8.33,10-7.88,9.63-16.14,19.29-22.72,29.9-9.51,15.31-16.4,34.87-7.21,52,5.5,10.22,14.53,18.15,23.42,25.38a166.45,166.45,0,0,0,34.6,22.11A7.56,7.56,0,0,0,72,284a109.61,109.61,0,0,0,6.88-13.7,9.88,9.88,0,0,0-.53-8.81,212.73,212.73,0,0,0-31.8-42c9.49-9.05,18.94-18.62,26.59-29.16a211.7,211.7,0,0,1,.55,27.36c-.14,2.63-.3,5.41,1,7.72,1.59,2.93,5,4.28,8.18,5.29a137.17,137.17,0,0,0,71.86,2.78c4.77-1.09,9.76-2.64,12.75-6.79,2.71-3.77,3.37-8.62,4.12-13.08a174.31,174.31,0,0,0,2.33-23A176.92,176.92,0,0,0,162.75,122.21Z"/><path class="cls-2" d="M250.11,646.53c-5.28.91-10.94.5-16.29.5-15.3,0-30.57-.74-45.86-1.47a19.91,19.91,0,0,1-7.16-1.24,10,10,0,0,1-4.29-3.71,7.68,7.68,0,0,1-1.21-3.27,5.45,5.45,0,0,1,0-1.21,15.86,15.86,0,0,1,1.3-4.73c1.09-2.8,1.6-4.86,2.7-7.66,12.14,0,24.22-2.26,35.93-5.47l3.51,1.78L239,630.27c2.74,1.38,5.49,2.77,8.24,4.14l2,1c1.94,1,4.7,1.59,6.12,3.37a3.91,3.91,0,0,1,.73,1.42C257.23,644.26,253.45,646,250.11,646.53Z"/><path class="cls-5" d="M149.25,110.51c-.18-.71-.4-1.42-.53-2.1-.54-2.79,0-6.35-3.1-8.27-1.51-1-3.37-.78-5.12-.81-2.06,0-4.12,0-6.18,0A81.05,81.05,0,0,1,121.42,98q-3.26-.6-6.45-1.45A37.06,37.06,0,0,0,109.13,95a4.47,4.47,0,0,0-3.81,1.19,4.75,4.75,0,0,0-.84,2.23c-.76,4-1.45,8-.81,12a5.72,5.72,0,0,0,1.55,3.46c2.26,2.1,7.2,2.75,10.24,3.4,10.06,2.14,20.82,2.43,30.27-1a8.16,8.16,0,0,0,3.07-1.72C149.94,113.31,149.61,111.92,149.25,110.51Z"/><path class="cls-6" d="M108.3,114.54a.39.39,0,0,1-.32-.28,53.21,53.21,0,0,1-.26-17.71.36.36,0,0,1,.41-.26h0a.35.35,0,0,1,.32.36,52.6,52.6,0,0,0,.25,17.52.32.32,0,0,1-.31.36Z"/><path class="cls-6" d="M111.46,115.65h0a.34.34,0,0,1-.32-.37,46.9,46.9,0,0,0,.29-8.12l-.21-8.93c0-.26,0-.34-.09-.36a.29.29,0,0,1-.1-.44.4.4,0,0,1,.52-.07,1,1,0,0,1,.41.89l.21,8.92a48.17,48.17,0,0,1-.29,8.22A.35.35,0,0,1,111.46,115.65Z"/><path class="cls-6" d="M115.33,116.45a.36.36,0,0,1-.33-.33c0-5.78.15-11.63.52-17.38a.34.34,0,0,1,.39-.29.36.36,0,0,1,.35.35c-.37,5.74-.55,11.58-.52,17.34a.32.32,0,0,1-.36.31Z"/><path class="cls-6" d="M118.49,117.1a.36.36,0,0,1-.33-.35,137.38,137.38,0,0,0,.27-17.22.32.32,0,0,1,.35-.32.37.37,0,0,1,.39.32,136.6,136.6,0,0,1-.27,17.29.34.34,0,0,1-.39.28Z"/><path class="cls-6" d="M122,118.08h0a.34.34,0,0,1-.32-.37,51,51,0,0,0,.25-9.12l0-.35a20.05,20.05,0,0,1,.07-3.87c.06-.44.16-.88.25-1.32a9.93,9.93,0,0,0,.32-2.45.33.33,0,0,1,.36-.32.37.37,0,0,1,.38.33,10.61,10.61,0,0,1-.33,2.58c-.09.43-.18.85-.25,1.29a21.45,21.45,0,0,0-.06,3.76l0,.35a51.12,51.12,0,0,1-.26,9.22A.35.35,0,0,1,122,118.08Z"/><path class="cls-6" d="M125,117.81h0a.35.35,0,0,1-.31-.38,71.66,71.66,0,0,0,.9-16.43.32.32,0,0,1,.35-.32.37.37,0,0,1,.39.31,71.64,71.64,0,0,1-.91,16.56A.36.36,0,0,1,125,117.81Z"/><path class="cls-6" d="M129.1,117.68h0a.35.35,0,0,1-.31-.38,14,14,0,0,0,0-3.82c-.06-.59-.12-1.21-.15-1.81a31.72,31.72,0,0,1,.19-4,17.77,17.77,0,0,0-.23-6.62.31.31,0,0,1,.27-.38.4.4,0,0,1,.45.25,18.24,18.24,0,0,1,.25,6.82,30.8,30.8,0,0,0-.19,4c0,.59.09,1.2.14,1.79a14.26,14.26,0,0,1,0,4A.35.35,0,0,1,129.1,117.68Z"/><path class="cls-6" d="M132.31,117.44a.36.36,0,0,1-.33-.36,127.24,127.24,0,0,0,.46-16.11.33.33,0,0,1,.36-.31.36.36,0,0,1,.38.32,128.4,128.4,0,0,1-.46,16.18.34.34,0,0,1-.4.28Z"/><path class="cls-6" d="M135.93,116.63a.34.34,0,0,1-.33-.35c.51-4.85,1.05-9.87.08-14.8a.32.32,0,0,1,.3-.36.38.38,0,0,1,.43.28c1,5,.45,10.07-.07,15a.35.35,0,0,1-.41.28Z"/><path class="cls-6" d="M139.06,117.17a.35.35,0,0,1-.33-.33l.07-15.36a.33.33,0,0,1,.37-.31.37.37,0,0,1,.37.34l-.07,15.36a.33.33,0,0,1-.37.31Z"/><path class="cls-6" d="M142.79,116.2a.37.37,0,0,1-.33-.34,106.47,106.47,0,0,0-.38-14.39.33.33,0,0,1,.34-.33.36.36,0,0,1,.4.3,107.55,107.55,0,0,1,.38,14.46.34.34,0,0,1-.38.3Z"/><path class="cls-6" d="M146.4,114.81l-.08,0a.32.32,0,0,1-.23-.41,6.92,6.92,0,0,0,0-3.7,16.4,16.4,0,0,1-.23-1.85,14.2,14.2,0,0,1,0-1.46c0-.48,0-1,0-1.45a16,16,0,0,0-1.28-4.64.31.31,0,0,1,.24-.4.41.41,0,0,1,.47.22,16.61,16.61,0,0,1,1.31,4.81c0,.51,0,1,0,1.51a13.25,13.25,0,0,0,0,1.41c0,.58.13,1.19.22,1.78a7.4,7.4,0,0,1-.06,4A.36.36,0,0,1,146.4,114.81Z"/><path class="cls-1" d="M115.14,68.55a14.31,14.31,0,0,1-14-1.92,14.05,14.05,0,0,1-5.24-10.89,13.19,13.19,0,0,1,.2-2.26,10,10,0,0,1,1.38-3.72,8.79,8.79,0,0,1,8.56-3.7,10.15,10.15,0,0,1,7.45,5.86l.63,6.39Z"/><path class="cls-5" d="M160.5,231.76c1.83-1.06,3.71-2,5.43-3a11.76,11.76,0,0,0,4.22-4,10.66,10.66,0,0,0,1.08-2.71,7.9,7.9,0,0,0,.24-2.86c-.09-1-.28-2-.42-3.06s-.27-2.08-.38-3.12c-.2-2.09-.32-4.18-.38-6.27s-.08-4.19,0-6.27c.08-4.18.31-8.34.55-12.49.47-8.32,1.11-16.62.92-24.93a190.11,190.11,0,0,0-2-24.86A189.77,189.77,0,0,1,172.14,163c.33,8.33-.18,16.67-.51,25-.17,4.15-.33,8.31-.34,12.46,0,2.07,0,4.14.14,6.21s.24,4.13.48,6.18c.12,1,.26,2,.42,3.07s.36,2,.49,3.12a9.5,9.5,0,0,1-.23,3.32,11.63,11.63,0,0,1-1.19,3.09,10.51,10.51,0,0,1-2.06,2.62,17.43,17.43,0,0,1-2.59,2c-1.81,1.15-3.66,2.08-5.42,3.14Z"/><path class="cls-5" d="M73,126a19.88,19.88,0,0,1,5.08,5.53,29.35,29.35,0,0,1,3.11,6.93,44.88,44.88,0,0,1,1.55,7.42,67.88,67.88,0,0,1,.52,7.54q0,3.78-.3,7.54a74.76,74.76,0,0,1-1,7.46,50.58,50.58,0,0,1-4.8,14.22,70.88,70.88,0,0,0,3.53-14.43c.32-2.45.62-4.9.76-7.37s.25-4.94.2-7.4-.15-4.93-.41-7.38c-.12-1.23-.29-2.44-.49-3.66s-.46-2.41-.76-3.59a34.81,34.81,0,0,0-1.09-3.51c-.19-.59-.44-1.14-.67-1.71s-.51-1.12-.8-1.66A22.82,22.82,0,0,0,73,126Z"/><path class="cls-5" d="M103.25,117.09a.41.41,0,0,1-.14-.8l1.55-.55a.42.42,0,0,1,.53.26.41.41,0,0,1-.25.52l-1.56.55A.3.3,0,0,1,103.25,117.09Z"/><path class="cls-5" d="M67.19,278.33a.38.38,0,0,1-.22-.07l-2.78-1.79a.42.42,0,0,1-.13-.57.41.41,0,0,1,.57-.12l2.79,1.79a.41.41,0,0,1-.23.76Zm-5.55-3.61a.39.39,0,0,1-.23-.07c-.92-.6-1.85-1.21-2.76-1.83a.42.42,0,0,1-.12-.57.41.41,0,0,1,.57-.11L61.86,274a.42.42,0,0,1,.12.57A.41.41,0,0,1,61.64,274.72ZM56.13,271a.4.4,0,0,1-.23-.08q-1.38-.93-2.73-1.89a.4.4,0,0,1-.1-.57.41.41,0,0,1,.57-.1l2.72,1.88a.42.42,0,0,1,.11.58A.43.43,0,0,1,56.13,271Zm-5.42-3.81a.41.41,0,0,1-.24-.08c-.9-.65-1.79-1.3-2.68-2a.4.4,0,0,1-.08-.57.42.42,0,0,1,.58-.09c.88.66,1.77,1.32,2.66,2a.42.42,0,0,1,.09.58A.42.42,0,0,1,50.71,267.23Zm-5.31-4a.43.43,0,0,1-.25-.09c-.88-.68-1.75-1.38-2.6-2.07a.41.41,0,0,1-.06-.58.42.42,0,0,1,.58-.06c.84.69,1.71,1.38,2.59,2.06a.41.41,0,0,1,.07.58A.42.42,0,0,1,45.4,263.26Zm-5.14-4.18A.41.41,0,0,1,40,259c-.85-.72-1.7-1.46-2.5-2.18a.41.41,0,1,1,.54-.61l2.5,2.17a.41.41,0,0,1-.27.72Zm-5-4.39a.43.43,0,0,1-.28-.11c-.81-.73-1.63-1.48-2.45-2.24a.42.42,0,0,1,0-.58.4.4,0,0,1,.58,0c.82.75,1.63,1.5,2.44,2.23a.41.41,0,0,1-.27.72Zm-4.86-4.52a.38.38,0,0,1-.28-.11c-.83-.8-1.63-1.59-2.37-2.34a.41.41,0,1,1,.59-.57c.73.74,1.52,1.52,2.35,2.32a.41.41,0,0,1,0,.58A.42.42,0,0,1,30.44,250.17Zm-4.65-4.72a.39.39,0,0,1-.3-.13c-.78-.84-1.53-1.67-2.22-2.48a.41.41,0,1,1,.62-.54c.69.8,1.43,1.63,2.2,2.46a.4.4,0,0,1,0,.58A.38.38,0,0,1,25.79,245.45Zm-4.31-5a.39.39,0,0,1-.32-.16c-.7-.9-1.37-1.8-2-2.69a.41.41,0,0,1,.68-.46c.6.87,1.26,1.76,1.95,2.65a.4.4,0,0,1-.07.57A.43.43,0,0,1,21.48,240.42ZM17.73,235a.4.4,0,0,1-.35-.21c-.58-1-1.12-2-1.6-2.94a.41.41,0,0,1,.74-.36c.47.95,1,1.92,1.57,2.88a.42.42,0,0,1-.15.57A.39.39,0,0,1,17.73,235ZM14.83,229a.41.41,0,0,1-.38-.27,32.82,32.82,0,0,1-1-3.19.42.42,0,0,1,.3-.5.41.41,0,0,1,.5.29,31.16,31.16,0,0,0,1,3.11A.41.41,0,0,1,15,229Zm-1.66-6.4a.42.42,0,0,1-.41-.35c0-.15,0-.29,0-.43a25.74,25.74,0,0,1-.2-2.93.41.41,0,0,1,.82,0,26.73,26.73,0,0,0,.19,2.84l.06.41a.42.42,0,0,1-.35.47ZM13.08,216H13a.41.41,0,0,1-.37-.45,33,33,0,0,1,.53-3.31.41.41,0,0,1,.49-.32.42.42,0,0,1,.32.49,31.65,31.65,0,0,0-.52,3.22A.4.4,0,0,1,13.08,216Zm1.34-6.47-.12,0A.41.41,0,0,1,14,209c.31-1,.68-2.09,1.09-3.15a.41.41,0,0,1,.53-.24.41.41,0,0,1,.24.53c-.41,1.05-.77,2.1-1.08,3.1A.41.41,0,0,1,14.42,209.54Zm2.37-6.19-.17,0a.42.42,0,0,1-.2-.55c.44-1,.93-2,1.46-3a.41.41,0,0,1,.73.37c-.52,1-1,2-1.44,3A.4.4,0,0,1,16.79,203.35Zm3-5.89a.39.39,0,0,1-.2-.05.4.4,0,0,1-.15-.56c.51-.92,1.06-1.86,1.67-2.87a.41.41,0,0,1,.71.42c-.61,1-1.15,1.94-1.67,2.85A.39.39,0,0,1,19.82,197.46Zm3.41-5.68a.46.46,0,0,1-.22-.06.42.42,0,0,1-.13-.57c.59-.94,1.18-1.87,1.78-2.8a.41.41,0,0,1,.57-.12.41.41,0,0,1,.12.57q-.9,1.38-1.77,2.79A.42.42,0,0,1,23.23,191.78Zm3.59-5.57a.39.39,0,0,1-.23-.07.42.42,0,0,1-.12-.57c.61-.92,1.23-1.84,1.85-2.75a.41.41,0,1,1,.68.46c-.62.91-1.23,1.83-1.84,2.75A.41.41,0,0,1,26.82,186.21Zm3.72-5.48a.43.43,0,0,1-.24-.08.41.41,0,0,1-.1-.57c.63-.91,1.27-1.81,1.91-2.71a.41.41,0,0,1,.57-.1.42.42,0,0,1,.1.58c-.64.89-1.27,1.8-1.9,2.7A.41.41,0,0,1,30.54,180.73Zm3.84-5.4a.41.41,0,0,1-.24-.08.42.42,0,0,1-.1-.58L36,172a.42.42,0,1,1,.67.49l-2,2.67A.42.42,0,0,1,34.38,175.33ZM38.32,170a.44.44,0,0,1-.25-.08.41.41,0,0,1-.08-.58l2-2.64a.41.41,0,0,1,.58-.08.42.42,0,0,1,.08.58c-.67.88-1.34,1.75-2,2.64A.44.44,0,0,1,38.32,170Zm4-5.26a.38.38,0,0,1-.25-.09.41.41,0,0,1-.07-.58l2-2.61a.41.41,0,1,1,.65.51c-.68.86-1.36,1.73-2,2.61A.44.44,0,0,1,42.34,164.74Zm4.09-5.22a.43.43,0,0,1-.26-.09.42.42,0,0,1-.06-.58l2.06-2.59a.42.42,0,0,1,.65.52l-2.07,2.59A.41.41,0,0,1,46.43,159.52Zm4.14-5.17a.43.43,0,0,1-.26-.09.42.42,0,0,1-.06-.58l2.09-2.58a.41.41,0,1,1,.64.52l-2.09,2.58A.41.41,0,0,1,50.57,154.35Zm4.18-5.14a.42.42,0,0,1-.26-.1.41.41,0,0,1-.06-.58l2.1-2.56a.41.41,0,1,1,.63.52l-2.09,2.56A.42.42,0,0,1,54.75,149.21Zm4.2-5.13a.39.39,0,0,1-.27-.1.41.41,0,0,1,0-.58l2.1-2.56a.41.41,0,0,1,.58-.05.42.42,0,0,1,.06.58l-2.11,2.56A.4.4,0,0,1,59,144.08ZM63.17,139a.39.39,0,0,1-.27-.1.41.41,0,0,1,0-.58c.79-.93,1.51-1.74,2.2-2.49a.41.41,0,1,1,.6.55c-.68.75-1.39,1.56-2.18,2.48A.41.41,0,0,1,63.17,139Zm4.49-4.86a.43.43,0,0,1-.29-.13.4.4,0,0,1,0-.58c.83-.81,1.66-1.56,2.48-2.24a.42.42,0,0,1,.58.05.41.41,0,0,1,0,.58c-.81.67-1.62,1.41-2.44,2.2A.4.4,0,0,1,67.66,134.11Zm5.11-4.21a.43.43,0,0,1-.34-.18.42.42,0,0,1,.11-.58c.88-.6,1.84-1.19,2.84-1.75a.41.41,0,0,1,.41.71c-1,.56-1.92,1.14-2.79,1.73A.48.48,0,0,1,72.77,129.9Zm5.76-3.27a.44.44,0,0,1-.38-.23.41.41,0,0,1,.2-.55c.94-.46,1.93-.91,3-1.38a.42.42,0,0,1,.54.22.41.41,0,0,1-.21.54c-1.09.47-2.08.91-3,1.36A.33.33,0,0,1,78.53,126.63ZM84.61,124a.41.41,0,0,1-.15-.79l2.15-.84.94-.36a.42.42,0,0,1,.54.24.41.41,0,0,1-.24.53l-.94.36-2.15.83A.4.4,0,0,1,84.61,124Zm6.19-2.37a.41.41,0,0,1-.15-.8l3.11-1.16a.42.42,0,0,1,.29.78l-3.11,1.16Zm6.21-2.3a.43.43,0,0,1-.39-.27.42.42,0,0,1,.25-.53l3.12-1.13a.4.4,0,0,1,.52.24.41.41,0,0,1-.24.53l-3.12,1.13A.32.32,0,0,1,97,119.34Z"/><path class="cls-5" d="M71.38,281a.46.46,0,0,1-.22-.06l-1.39-.89a.41.41,0,1,1,.45-.69l1.39.89a.4.4,0,0,1,.12.56A.4.4,0,0,1,71.38,281Z"/><path class="cls-13" d="M140.36,57.58c.39-2.31-.51-4.39-2-4.65s-3.05,1.42-3.44,3.73.51,4.39,2,4.65S140,59.9,140.36,57.58Z"/><path class="cls-13" d="M160.82,62.5c.38-2.25-.51-4.29-2-4.54s-3,1.38-3.36,3.64.5,4.28,2,4.53S160.44,64.76,160.82,62.5Z"/><path class="cls-13" d="M135.39,46.4a.84.84,0,0,1-.51-.5.83.83,0,0,1,.5-1,8,8,0,0,1,8,1.66.82.82,0,1,1-1.12,1.2,6.37,6.37,0,0,0-6.32-1.31A.83.83,0,0,1,135.39,46.4Z"/><path class="cls-13" d="M156.39,51.63a.82.82,0,0,1,0-1.56,7.48,7.48,0,0,1,7.31,1.76A.82.82,0,0,1,162.57,53a5.8,5.8,0,0,0-5.67-1.37A.81.81,0,0,1,156.39,51.63Z"/><path class="cls-13" d="M146.28,65.52a2.6,2.6,0,0,1,2.46.09,3.09,3.09,0,0,1,.73,4.75,2.58,2.58,0,0,1-2.31.83,3.57,3.57,0,0,0,1.54-1.42,2.81,2.81,0,0,0-.52-3.37A3.58,3.58,0,0,0,146.28,65.52Z"/><path class="cls-14" d="M155.31,77.19v.06a10.11,10.11,0,0,1-3.69,6.21,10.59,10.59,0,0,1-15.85-3.21,10,10,0,0,1-1.1-6.51v-.06Z"/><path class="cls-15" d="M151.61,83.46a10.59,10.59,0,0,1-15.85-3.21,22.76,22.76,0,0,1,2.72-.36,19.2,19.2,0,0,1,10.21,1.68A18,18,0,0,1,151.61,83.46Z"/><path class="cls-16" d="M153.38,76.86c-.31.17-.63.32-.95.46-4.8,2.12-12.68,1.72-15.55-3.26Z"/></g></g></svg>