<svg xmlns="http://www.w3.org/2000/svg" xmlns:xlink="http://www.w3.org/1999/xlink" width="139.8" height="139.8" xml:space="preserve"><defs><path id="a" d="M.9.9H139V139H.9z"/></defs><clipPath id="b"><use xlink:href="#a" overflow="visible"/></clipPath><g clip-path="url(#b)"><defs><path id="c" d="M.9.9H139V139H.9z"/></defs><clipPath id="d"><use xlink:href="#c" overflow="visible"/></clipPath><path clip-path="url(#d)" fill="#808285" d="M69.9 139c-38.1 0-69-31-69-69 0-38.1 31-69 69-69 38.1 0 69 31 69 69 .1 38-30.9 69-69 69"/></g><defs><path id="e" d="M0 69.9c0 38.6 31.4 69.9 69.9 69.9 38.6 0 69.9-31.4 69.9-69.9C139.8 31.4 108.5 0 69.9 0 31.4 0 0 31.4 0 69.9"/></defs><clipPath id="f"><use xlink:href="#e" overflow="visible"/></clipPath><linearGradient id="g" gradientUnits="userSpaceOnUse" x1="-725.002" y1="600.268" x2="-724.002" y2="600.268" gradientTransform="matrix(139.845 0 0 -139.845 101387.875 84014.375)"><stop offset="0" style="stop-color:#fff"/><stop offset="1" style="stop-color:#d1d3d4"/></linearGradient><path clip-path="url(#f)" fill="url(#g)" d="M0 0h139.8v139.8H0z"/><defs><path id="h" d="M3.5 69.9c0 36.6 29.8 66.4 66.4 66.4s66.4-29.8 66.4-66.4c0-36.6-29.8-66.4-66.4-66.4S3.5 33.3 3.5 69.9"/></defs><clipPath id="i"><use xlink:href="#h" overflow="visible"/></clipPath><linearGradient id="j" gradientUnits="userSpaceOnUse" x1="-725.002" y1="600.268" x2="-724.002" y2="600.268" gradientTransform="matrix(132.8527 0 0 -132.8527 96321.977 79817.148)"><stop offset="0" style="stop-color:#d1d3d4"/><stop offset="1" style="stop-color:#fff"/></linearGradient><path clip-path="url(#i)" fill="url(#j)" d="M3.5 3.5h132.9v132.9H3.5z"/><defs><path id="k" d="M18.4 18.4h118.4v118.4H18.4z"/></defs><clipPath id="l"><use xlink:href="#k" overflow="visible"/></clipPath><g opacity=".063" clip-path="url(#l)"><defs><path id="m" d="M31 31h104.8v104.8H31z"/></defs><clipPath id="n"><use xlink:href="#m" overflow="visible"/></clipPath><path clip-path="url(#n)" fill="#F7F7F7" d="M135.8 83.4c0 28.9-23.5 52.4-52.4 52.4S31 112.3 31 83.4C31 54.4 54.4 31 83.4 31c28.9 0 52.4 23.4 52.4 52.4"/></g><g opacity=".125" clip-path="url(#l)"><defs><path id="o" d="M30.1 30.1h104.7v104.7H30.1z"/></defs><clipPath id="p"><use xlink:href="#o" overflow="visible"/></clipPath><path clip-path="url(#p)" fill="#EFEFF0" d="M134.8 82.5c0 28.9-23.4 52.3-52.3 52.3s-52.3-23.4-52.3-52.3 23.4-52.3 52.3-52.3c28.9-.1 52.3 23.4 52.3 52.3"/></g><g opacity=".188" clip-path="url(#l)"><defs><path id="q" d="M29.3 29.3h104.6v104.6H29.3z"/></defs><clipPath id="r"><use xlink:href="#q" overflow="visible"/></clipPath><path clip-path="url(#r)" fill="#E7E8E8" d="M133.9 81.6c0 28.9-23.4 52.3-52.3 52.3s-52.3-23.4-52.3-52.3 23.4-52.3 52.3-52.3 52.3 23.4 52.3 52.3"/></g><g opacity=".25" clip-path="url(#l)"><defs><path id="s" d="M28.5 28.5h104.4v104.4H28.5z"/></defs><clipPath id="t"><use xlink:href="#s" overflow="visible"/></clipPath><path clip-path="url(#t)" fill="#DFE0E1" d="M132.9 80.7c0 28.8-23.4 52.2-52.2 52.2-28.8 0-52.2-23.4-52.2-52.2 0-28.8 23.4-52.2 52.2-52.2 28.8 0 52.2 23.3 52.2 52.2"/></g><g opacity=".313" clip-path="url(#l)"><defs><path id="u" d="M27.6 27.6h104.3v104.3H27.6z"/></defs><clipPath id="v"><use xlink:href="#u" overflow="visible"/></clipPath><path clip-path="url(#v)" fill="#D7D8D9" d="M132 79.8c0 28.8-23.4 52.2-52.2 52.2-28.8 0-52.2-23.4-52.2-52.2C27.6 51 51 27.6 79.8 27.6c28.8 0 52.2 23.4 52.2 52.2"/></g><g opacity=".375" clip-path="url(#l)"><defs><path id="w" d="M26.8 26.8H131V131H26.8z"/></defs><clipPath id="x"><use xlink:href="#w" overflow="visible"/></clipPath><path clip-path="url(#x)" fill="#CFD0D1" d="M131 78.9c0 28.8-23.3 52.1-52.1 52.1s-52.1-23.3-52.1-52.1 23.3-52.1 52.1-52.1S131 50.1 131 78.9"/></g><g opacity=".438" clip-path="url(#l)"><defs><path id="y" d="M25.9 25.9H130V130H25.9z"/></defs><clipPath id="z"><use xlink:href="#y" overflow="visible"/></clipPath><path clip-path="url(#z)" fill="#C7C8CA" d="M130.1 78c0 28.8-23.3 52.1-52.1 52.1S25.9 106.8 25.9 78 49.2 25.9 78 25.9c28.7 0 52.1 23.3 52.1 52.1"/></g><g opacity=".5" clip-path="url(#l)"><defs><path id="A" d="M25.1 25.1h104v104h-104z"/></defs><clipPath id="B"><use xlink:href="#A" overflow="visible"/></clipPath><path clip-path="url(#B)" fill="#C0C1C2" d="M129.1 77.1c0 28.7-23.3 52-52 52s-52-23.3-52-52 23.3-52 52-52 52 23.3 52 52"/></g><g opacity=".563" clip-path="url(#l)"><defs><path id="C" d="M24.2 24.2h103.9v103.9H24.2z"/></defs><clipPath id="D"><use xlink:href="#C" overflow="visible"/></clipPath><path clip-path="url(#D)" fill="#B8B9BA" d="M128.1 76.2c0 28.7-23.3 52-52 52s-52-23.3-52-52 23.3-51.9 52-51.9c28.8-.1 52 23.2 52 51.9"/></g><g opacity=".625" clip-path="url(#l)"><defs><path id="E" d="M23.4 23.4h103.8v103.8H23.4z"/></defs><clipPath id="F"><use xlink:href="#E" overflow="visible"/></clipPath><path clip-path="url(#F)" fill="#B0B1B3" d="M127.2 75.3c0 28.7-23.2 51.9-51.9 51.9S23.4 104 23.4 75.3s23.2-51.9 51.9-51.9 51.9 23.2 51.9 51.9"/></g><g opacity=".688" clip-path="url(#l)"><defs><path id="G" d="M22.6 22.6h103.7v103.7H22.6z"/></defs><clipPath id="H"><use xlink:href="#G" overflow="visible"/></clipPath><path clip-path="url(#H)" fill="#A8A9AB" d="M126.2 74.4c0 28.6-23.2 51.8-51.8 51.8-28.6 0-51.8-23.2-51.8-51.8 0-28.6 23.2-51.8 51.8-51.8 28.6 0 51.8 23.2 51.8 51.8"/></g><g opacity=".75" clip-path="url(#l)"><defs><path id="I" d="M21.7 21.7h103.6v103.6H21.7z"/></defs><clipPath id="J"><use xlink:href="#I" overflow="visible"/></clipPath><path clip-path="url(#J)" fill="#A0A1A4" d="M125.3 73.5c0 28.6-23.2 51.8-51.8 51.8-28.6 0-51.8-23.2-51.8-51.8 0-28.6 23.2-51.8 51.8-51.8 28.6 0 51.8 23.2 51.8 51.8"/></g><g opacity=".813" clip-path="url(#l)"><defs><path id="K" d="M20.9 20.9h103.5v103.5H20.9z"/></defs><clipPath id="L"><use xlink:href="#K" overflow="visible"/></clipPath><path clip-path="url(#L)" fill="#98999C" d="M124.3 72.6c0 28.6-23.2 51.7-51.7 51.7-28.6 0-51.7-23.2-51.7-51.7C20.9 44 44 20.9 72.6 20.9s51.7 23.1 51.7 51.7"/></g><g opacity=".875" clip-path="url(#l)"><defs><path id="M" d="M20 20h103.4v103.4H20z"/></defs><clipPath id="N"><use xlink:href="#M" overflow="visible"/></clipPath><path clip-path="url(#N)" fill="#909294" d="M123.4 71.7c0 28.5-23.1 51.7-51.7 51.7-28.5 0-51.7-23.1-51.7-51.7C20 43.2 43.2 20 71.7 20c28.6 0 51.7 23.2 51.7 51.7"/></g><g opacity=".938" clip-path="url(#l)"><defs><path id="O" d="M19.2 19.2h103.2v103.2H19.2z"/></defs><clipPath id="P"><use xlink:href="#O" overflow="visible"/></clipPath><path clip-path="url(#P)" fill="#888A8D" d="M122.4 70.8c0 28.5-23.1 51.6-51.6 51.6S19.2 99.3 19.2 70.8s23.1-51.6 51.6-51.6 51.6 23.1 51.6 51.6"/></g><g clip-path="url(#l)"><defs><path id="Q" d="M18.4 18.4h103.1v103.1H18.4z"/></defs><clipPath id="R"><use xlink:href="#Q" overflow="visible"/></clipPath><path clip-path="url(#R)" fill="#808285" d="M121.5 69.9c0 28.5-23.1 51.6-51.6 51.6S18.3 98.4 18.3 69.9s23.1-51.6 51.6-51.6c28.5.1 51.6 23.1 51.6 51.6"/></g><defs><path id="S" d="M17.5 69.9c0 29 23.5 52.4 52.4 52.4s52.4-23.5 52.4-52.4-23.4-52.4-52.4-52.4S17.5 41 17.5 69.9"/></defs><clipPath id="T"><use xlink:href="#S" overflow="visible"/></clipPath><linearGradient id="U" gradientUnits="userSpaceOnUse" x1="-725.002" y1="600.268" x2="-724.002" y2="600.268" gradientTransform="matrix(104.8837 0 0 -104.8837 76058.39 63028.266)"><stop offset="0" style="stop-color:#f67950"/><stop offset="1" style="stop-color:#f15a29"/></linearGradient><path clip-path="url(#T)" fill="url(#U)" d="M17.5 17.5h104.9v104.9H17.5z"/><defs><path id="V" d="M26.2 69.9c0 24.1 19.6 43.7 43.7 43.7s43.7-19.6 43.7-43.7S94 26.2 69.9 26.2 26.2 45.8 26.2 69.9"/></defs><clipPath id="W"><use xlink:href="#V" overflow="visible"/></clipPath><linearGradient id="X" gradientUnits="userSpaceOnUse" x1="-725.002" y1="600.268" x2="-724.002" y2="600.268" gradientTransform="matrix(87.4031 0 0 -87.4031 63393.645 52535.207)"><stop offset="0" style="stop-color:#f15a29"/><stop offset="1" style="stop-color:#f67950"/></linearGradient><path clip-path="url(#W)" fill="url(#X)" d="M26.2 26.2h87.4v87.4H26.2z"/><g opacity=".8"><defs><path id="Y" d="M52 52.2h32V93H52z"/></defs><clipPath id="Z"><use xlink:href="#Y" overflow="visible"/></clipPath><path clip-path="url(#Z)" fill="#A7A9AC" d="M54.5 93c-1.4 0-2.4-1.1-2.4-2.5V54.7c0-1.4 1.1-2.5 2.4-2.5.4 0 .9.1 1.3.4l27 17.9c.8.5 1.3 1.3 1.3 2.2 0 .9-.5 1.7-1.3 2.2l-27 17.9c-.4.1-.9.2-1.3.2z"/></g><g opacity=".8"><defs><path id="aa" d="M83.2 53h9.9v39.1h-9.9z"/></defs><clipPath id="ab"><use xlink:href="#aa" overflow="visible"/></clipPath><path clip-path="url(#ab)" fill="#A7A9AC" d="M88.1 92.1c-2.7 0-5-2.2-5-5V58c0-2.7 2.2-5 5-5 2.7 0 5 2.2 5 5v29.1c0 2.8-2.2 5-5 5"/></g><path fill="#FFF" d="M51.8 90.3c-1.4 0-2.4-1.1-2.4-2.5V52c0-1.4 1.1-2.5 2.4-2.5.4 0 .9.1 1.3.4l27 17.9c.8.5 1.3 1.3 1.3 2.2 0 .9-.5 1.7-1.3 2.2L53.1 90c-.4.2-.8.3-1.3.3z"/><path fill="#FFF" d="M85.5 89.5c-2.7 0-5-2.2-5-5V55.4c0-2.7 2.2-5 5-5 2.7 0 5 2.2 5 5v29.1c0 2.7-2.3 5-5 5"/></svg>