<svg xmlns="http://www.w3.org/2000/svg" viewBox="0 0 423.92 560.37"><defs><style>.cls-1{fill:#f2f2f2;}.cls-2{fill:#282523;}.cls-3{fill:#ffcfca;}.cls-4{fill:#f9bfbb;}.cls-5{fill:#c69200;}.cls-6{fill:#f95850;}.cls-7{fill:#fd7064;}.cls-8{fill:#f4b9b8;}.cls-9{fill:#1f3c49;}.cls-10{fill:#ea5353;}.cls-11{fill:#ff948f;}.cls-12{fill:#fff;}</style></defs><g id="Capa_2" data-name="Capa 2"><g id="home"><path class="cls-1" d="M423.92,337.68c-.11-26-7.55-52.46-17.22-76.13-20.81-50.94-53.66-96.17-90.26-137.27-20-22.45-41.44-44-66.78-60.22C177.81,18.12,100.14,46,50.72,109.08,14,156-6.65,216.14,1.93,275.81c8.91,61.92,55.31,109.27,103.43,145.6,46.91,35.41,106.45,60.34,166.81,54.49,55.65-5.4,119.68-39,142.83-92.31C421.38,368.9,424,353.37,423.92,337.68Z"/><rect class="cls-2" x="112.25" y="361.39" width="164.52" height="198.24"/><path class="cls-3" d="M291.54,75a1.24,1.24,0,0,0,0,1c.28.48,1,.39,1.52.2,3.92-1.43,6.42-5.3,9.95-7.51a16.61,16.61,0,0,0,3.37-6.39c.07-.26.14-.53.19-.79a2.54,2.54,0,0,0-.29-2.29,1.86,1.86,0,0,0-1.45-.51,5.71,5.71,0,0,0-3.45,2,50.33,50.33,0,0,0-6.13,6.92A24.68,24.68,0,0,0,291.54,75Z"/><path class="cls-4" d="M291.54,75a1.24,1.24,0,0,0,0,1c.28.48,1,.39,1.52.2,3.92-1.43,6.42-5.3,9.95-7.51a16.61,16.61,0,0,0,3.37-6.39,31.6,31.6,0,0,1-3.12,1.85,75.56,75.56,0,0,1-8,3.46A24.68,24.68,0,0,0,291.54,75Z"/><path class="cls-3" d="M304.78,70.83c-.53,1-1.29,2.74-.1,3.58s2.35-.41,3.08-1.27a40.2,40.2,0,0,1,8.18-7.28c1.49-1,3-1.89,4.56-2.84a75.26,75.26,0,0,0,10.12-7.56,2.47,2.47,0,0,0,.76-.94,1.72,1.72,0,0,0-1.05-2l-.22-.08a4.47,4.47,0,0,0-2.24,0c-.53.12-1.06.25-1.57.42a30,30,0,0,0-7.44,3.94C313.3,60.53,307.88,64.89,304.78,70.83Z"/><path class="cls-4" d="M309.1,68.06c6.2-6,13.66-10.58,20.79-15.49l.22-.15a4.47,4.47,0,0,0-2.24,0c-.53.12-1.06.25-1.57.42l-1.74,1c-1,.55-1.93,1.1-2.86,1.73-1.14.78-2.2,1.67-3.26,2.56C314.85,61.13,311.45,64,309.1,68.06Z"/><path class="cls-3" d="M303.82,69.53a2.42,2.42,0,0,0-.38,1.2c.05,1.09,1.66,1.74,2.73,1.94a34.19,34.19,0,0,1,4.21-5.78c4.95-5.47,11.32-9.71,17.41-13.88.73-.5,1.57-1.33,1.17-2.13a1.49,1.49,0,0,0-.62-.57,4.36,4.36,0,0,0-3-.32A13.16,13.16,0,0,0,322,51.3a23.12,23.12,0,0,0-2.95,1.75c-2.11,1.54-3.64,3.73-5.4,5.66l-.27.29C310.17,62.5,306.13,65.36,303.82,69.53Z"/><path class="cls-4" d="M311,63.56l4.9-5.78a36.91,36.91,0,0,1,2.59-2.86,25.74,25.74,0,0,1,4.13-3.22c.75-.49,1.53-.94,2.3-1.39a1.56,1.56,0,0,0,.38-.32A13.16,13.16,0,0,0,322,51.3a23.12,23.12,0,0,0-2.95,1.75c-2.11,1.54-3.64,3.73-5.4,5.66l-.27.29A23.09,23.09,0,0,1,311,63.56Z"/><path class="cls-3" d="M279.52,99.31c.13-1.36.27-2.72.41-4.08s.15-2.67.2-4a24.08,24.08,0,0,1,.45-4.32,16.21,16.21,0,0,1,.65-2.2,23.46,23.46,0,0,1,3.51-6.09,25.75,25.75,0,0,1,4.14-4.21,42.87,42.87,0,0,1,4-2.85c3.28-2.09,6.74-3.91,9.89-6.2a23.36,23.36,0,0,0,3-2.63h0c.24-.24.47-.5.69-.75h0c2.48-2.76,4.47-6,6.71-8.89a6.08,6.08,0,0,1,1.2-1.28,2.33,2.33,0,0,1,3.61,2l0,.17V54a4.66,4.66,0,0,1-.69,1.44c-.53.84-1,1.69-1.56,2.53,0,0,0,0,0,0h0v0c-.37.61-.76,1.21-1.13,1.83v0l-2.77,4.46h0c-.58,1-1.17,1.9-1.76,2.84h0l-.25.41h0c-.15.24-.29.46-.43.7a1,1,0,0,0-.24.7,2.24,2.24,0,0,0,.32.66,2.15,2.15,0,0,1-.3,2l0,0a1.74,1.74,0,0,1-.15.26,147.25,147.25,0,0,1-11.78,17.44l1.8,8.11a25.62,25.62,0,0,1-10.84,3.3A22.93,22.93,0,0,1,279.52,99.31Z"/><path class="cls-4" d="M281.23,84.71a14.43,14.43,0,0,0-.65,2.19,24.08,24.08,0,0,0-.45,4.32,20.1,20.1,0,0,0,3.29.08,31.89,31.89,0,0,0,4.36-.56,9.33,9.33,0,0,1-4.44-1.8,6,6,0,0,1-1.28-1.29A5.14,5.14,0,0,1,281.23,84.71Z"/><path class="cls-5" d="M202.46,115.68c-2.09,20.2-4.46,40.27-5.34,60.55-.84,19.2-1.58,38.42-3,57.59a468.08,468.08,0,0,1-46.76,2.37c-15.56.08-31-.79-46-5.24a144.75,144.75,0,0,1-23.17-9.11c6.11-10.67,9.4-22.66,13.11-34.31a339.22,339.22,0,0,0,9.71-38c5.45-28.05,6.25-55.75,5.73-84.2-.29-16.18,2.91-33.49,12.71-46.75s27.49-21.95,44-17.24c10.2,2.92,18.91,10,25.05,18.66a67.72,67.72,0,0,1,7.23,13.24c.52,1.24,1,2.5,1.46,3.76a105,105,0,0,1,3.53,12.16,144.37,144.37,0,0,1,3,19.34C205,84.15,204.07,100,202.46,115.68Z"/><path class="cls-3" d="M189.71,120c-2,1.86-4.7,2.72-7.3,3.52a67.52,67.52,0,0,1-9.54,2.47c-6.33,1-12.47-.11-18.83-.92-.61-3.64-1.24-7.28-1.86-10.93-.77-4.55-1.55-9.11-2.77-13.57-.38-1.36-.79-2.72-1.25-4.06-1.1-3.35-2.39-6.63-3.68-9.92l-3.18-8.09A22,22,0,0,0,147.12,81c9.25,2.94,18.6,5.53,28,8a40.86,40.86,0,0,0,8.6,1.6l3.23,15.86Z"/><path class="cls-4" d="M186.94,106.42a99.49,99.49,0,0,1-29.61-6.13c-3-1.14-6.14-2.37-9.17-3.77-1.1-3.35-2.39-6.63-3.68-9.92l-3.18-8.09A22,22,0,0,0,147.12,81c9.25,2.94,18.6,5.53,28,8a40.86,40.86,0,0,0,8.6,1.6Z"/><path class="cls-3" d="M200.12,79.36C199,85,197,90.26,192.8,94.24a25.77,25.77,0,0,1-13.7,6.65,32.77,32.77,0,0,1-16.71-2.06A42,42,0,0,1,154.8,95a58,58,0,0,1-11.24-9.61,72.53,72.53,0,0,1-13.51-20.48c-3.65-8.56-5.23-17.88-3.29-27.17A35.13,35.13,0,0,1,131,26.94a32.83,32.83,0,0,1,41.28-13.1,41.86,41.86,0,0,1,18.58,17,80.19,80.19,0,0,1,3.72,7.2C200.34,50.9,202.81,65.57,200.12,79.36Z"/><path class="cls-5" d="M122.64,65.5C135.52,63.19,146.15,54,152,43.1s7.43-23.4,7.26-35.59a41.08,41.08,0,0,0-22.84,6.89c-5.13,3.31-10,7.18-13.26,12.13-3.85,5.83-5.24,12.86-5,19.71S120.38,59,122.64,65.5Z"/><path class="cls-5" d="M165,15.09c1.79-.89,3.59-2.18,4.13-4.11.65-2.3-.8-4.81-2.86-6a12.38,12.38,0,0,0-7-1.28,16.17,16.17,0,0,0-8.34,2.38c-3.17,2.18-5.94,8.23-1.48,10.55S160.8,17.17,165,15.09Z"/><path class="cls-5" d="M197.15,37c-8.23.16-16.36-2.74-23.29-7.17-7.37-4.71-13.51-11.07-19.09-17.76-.67-.79-1.32-1.58-2-2.38,9.08-3,18.84.29,26.45,6,6.34,4.75,11.41,11.29,16.44,17.55C196.21,34.44,196.69,35.7,197.15,37Z"/><path class="cls-6" d="M301.53,102c-.13-.75-.29-1.49-.42-2.24-.37-2.08-.56-4.2-.87-6.3-.63-4.33-5.36-2.93-8.24-1.81a26.19,26.19,0,0,1-10.21,1.75,4.49,4.49,0,0,0-1.93.23c-1.68.73-2.45,3.26-2.13,4.93A71.44,71.44,0,0,0,280.67,110c1.73,4.68,10.45,2.64,13.92,1.87,3.18-.7,6.86-2,7.25-5.69A15,15,0,0,0,301.53,102Z"/><path class="cls-3" d="M226.55,214.23a213.06,213.06,0,0,1-5.86,21.43,339.11,339.11,0,0,1-16,39.18c-.62,1.32-1.24,2.62-1.87,3.93l-1.58.92-24.36,14c-6,3.46-12.06,6.94-18.59,9.27-10.51,3.75-20.94,2.67-31.65.42.44,0,2.93-28.14,3-30.4s.21-4.8.26-7.21a149.49,149.49,0,0,0-1.34-24.66c-.3-2.06-.65-4.09-1.07-6.13-2.36-11.75-6.38-23.12-10.15-34.49-4.08-12.31-6.1-25.06-9.58-37.48a9.38,9.38,0,0,1-.14-5.92c1.11-2.85,3.83-3.65,6.34-4.84,16-7.59,32.9-13.56,50.37-16.65a142.31,142.31,0,0,1,26.23-2.25c7.53.07,17.36-.39,23.39,4.92s9.79,12.79,11.8,20.49a93,93,0,0,1,2.45,21A233.27,233.27,0,0,1,226.55,214.23Z"/><path class="cls-3" d="M379.93,519.35a16,16,0,0,1-5.17-2.71,54.08,54.08,0,0,1-7-6.75c-2.49-2.69-4.89-5.38-7.29-8.08-2.56-2.85-5.12-5.71-7.75-8.56a35.6,35.6,0,0,0-.23-11.83c7.53-.53,15.39-.87,22.82.45l.5,4Z"/><path class="cls-6" d="M388.25,556.39a4,4,0,0,1-.64,1.43c-2.37,3.37-6,1.54-8.46-.65-3.93-3.46-7.09-8-10.37-12.07-9.4-11.64-18.2-23.71-27-35.78a19.36,19.36,0,0,1-3.44-6.21,9.65,9.65,0,0,1,.18-5.53,7.72,7.72,0,0,1,1.74-2.93,8.87,8.87,0,0,1,3.12-1.92c.71-.29,1.46-.53,2.19-.76,2.8-.88,4.67-1.75,7.47-2.63,7.46,9.22,16.58,17,26.2,24,.27,1.25.54,2.5.8,3.75q2.34,10.86,4.67,21.7c.29,1.32.58,2.65.86,4,.5,2.32,1,4.63,1.49,6.95C387.51,551.75,388.73,554.22,388.25,556.39Z"/><path class="cls-6" d="M391.73,378c-.32,3.06-.64,6.07-.93,9-2.05,20.9-5.61,42-7.82,62.64-.74,6.89-1.71,13.84-2.06,20.76-.11,2.18.24,5.28,0,8.1a8.88,8.88,0,0,1-1.72,5.14c-3.16,3.65-12.36,2-16.61,1.95s-12.57.65-15.07-3.68c-1.34-2.36-1-7.22-1.27-9.86-.68-6.82-1-13.68-1.73-20.5q-1.17-11.4-1.93-22.83a0,0,0,0,1,0,0q-.37-5.55-.66-11.12c-.09-1.7-.07-9.5-.18-18.78-.18-15.95-.74-36.26-2.85-37.29a.37.37,0,0,0-.17-.05H173.46c20.85-3.56,41.11-11,60.29-19.72,22.38-10.15-58.7-65.43-35.39-57.85,32.07,10.43,107.24,20,107.24,20,.21,0,21.89.7,33.14,1.34,10.78.62,21.74,2.08,31.48,6.76a40.93,40.93,0,0,1,8.24,5.19C395.78,331.36,394,356.09,391.73,378Z"/><path class="cls-7" d="M280.82,104.5a.42.42,0,0,1-.4-.33,77.29,77.29,0,0,1-1.35-8.82.41.41,0,0,1,.82-.08,73.62,73.62,0,0,0,1.34,8.73.43.43,0,0,1-.32.49Z"/><path class="cls-7" d="M283.41,103.94a.42.42,0,0,1-.4-.33c-.53-2.72-1-5.49-1.41-8.24a.41.41,0,1,1,.82-.12c.4,2.74.87,5.5,1.4,8.2a.41.41,0,0,1-.33.48Z"/><path class="cls-7" d="M287.44,104.14a.41.41,0,0,1-.4-.33c-.64-2.83-1.42-5.68-2.32-8.45a.4.4,0,0,1,.26-.52.42.42,0,0,1,.52.26c.91,2.8,1.69,5.67,2.34,8.53a.42.42,0,0,1-.31.5Z"/><path class="cls-7" d="M289.74,103.64a.41.41,0,0,1-.4-.35c-.47-3-1.09-6-1.84-9a.42.42,0,0,1,.3-.5.41.41,0,0,1,.5.29c.76,3,1.38,6,1.85,9a.41.41,0,0,1-.34.47Z"/><path class="cls-7" d="M293.17,103.89a.42.42,0,0,1-.41-.34l-1.57-9.33a.41.41,0,1,1,.81-.14l1.57,9.33a.41.41,0,0,1-.33.47Z"/><path class="cls-7" d="M296,103.21a.42.42,0,0,1-.4-.33l-2-10.47a.41.41,0,0,1,.81-.15l2,10.46a.42.42,0,0,1-.33.48Z"/><path class="cls-7" d="M299.4,102.14a.4.4,0,0,1-.4-.36,83.35,83.35,0,0,0-1.54-8.58.41.41,0,0,1,.3-.5.43.43,0,0,1,.5.31,82.42,82.42,0,0,1,1.55,8.67.41.41,0,0,1-.35.46Z"/><path class="cls-3" d="M147.1,82.46a15.8,15.8,0,0,1-15,4.31A15.57,15.57,0,0,1,121.9,78.1a14.49,14.49,0,0,1-.81-2.38,11,11,0,0,1-.26-4.38,9.69,9.69,0,0,1,7-7.57A11.2,11.2,0,0,1,138,66.36l3.5,6.19Z"/><path class="cls-3" d="M358.51,520a16,16,0,0,1-5.17-2.71,54.08,54.08,0,0,1-7-6.75c-2.49-2.69-4.89-5.38-7.29-8.08-2.56-2.85-5.12-5.71-7.75-8.56a35.6,35.6,0,0,0-.23-11.83c7.53-.53,15.39-.88,22.82.45l.5,4Z"/><path class="cls-7" d="M366.83,557.07a3.94,3.94,0,0,1-.64,1.44c-2.37,3.37-6,1.54-8.46-.65-3.93-3.46-7.09-8-10.37-12.07-9.4-11.64-18.2-23.71-27-35.78a19.36,19.36,0,0,1-3.44-6.21,9.64,9.64,0,0,1,.18-5.53,7.6,7.6,0,0,1,1.74-2.93,8.87,8.87,0,0,1,3.12-1.92c.71-.29,1.46-.53,2.19-.76,2.8-.88,4.67-1.75,7.47-2.63,7.46,9.22,16.58,17,26.2,24,.27,1.25.54,2.5.8,3.75q2.34,10.86,4.67,21.7c.29,1.32.58,2.65.86,4,.5,2.32,1,4.63,1.49,7C366.09,552.44,367.31,554.91,366.83,557.07Z"/><path class="cls-7" d="M370.31,378.7c-.32,3.06-.64,6.07-.93,9-2.05,20.89-5.61,42-7.82,62.64-.74,6.89-1.71,13.84-2.06,20.76-.11,2.18.24,5.28,0,8.1a8.88,8.88,0,0,1-1.72,5.14c-3.16,3.65-12.36,2-16.61,1.95s-12.57.65-15.07-3.68c-1.34-2.36-1-7.22-1.27-9.86-.68-6.82-1-13.68-1.73-20.5q-1.17-11.4-1.93-22.83a0,0,0,0,1,0,0c-.25-3.71-.48-7.41-.66-11.12-.09-1.7-.07-9.5-.18-18.78-.18-16-.74-36.26-2.85-37.29a.37.37,0,0,0-.17-.05H152c20.85-3.56-14.36-36.92,4.82-45.63,22.38-10.15,12.38-11.91,34-23.51,1.79-1,0,5.56,93.3,11.59h.05l.64,0c11.18.51,21.25.66,32.5,1.3,10.78.62,21.74,2.08,31.48,6.76a40.93,40.93,0,0,1,8.24,5.19C374.36,332.05,372.58,356.78,370.31,378.7Z"/><path class="cls-7" d="M323.14,358.66c-23.46,12.37-46.48,11.7-78.86,13.82-29.66,1.94-58.17,0-93.37-6.6-8.66-1.62-21.36-3.13-29.43-6.89-7.38-3.44-12.74-10.8-15.38-18.37a47.63,47.63,0,0,1-.9-27.4l.45-1.7a101.84,101.84,0,0,1,10-24,78.75,78.75,0,0,1,11.51-14.8c3-3,2.67-.3,6.58,0,14.87,1.17,54,.84,70.92,2.17,7.33.58-4.55,20.69,2.24,22.4,32.65,8.24,79,7.7,111.3,6.7,14.46-.46,27,6.07,38,15.05C364.1,325.44,323.66,358.39,323.14,358.66Z"/><path class="cls-8" d="M113.48,334.93a32.53,32.53,0,0,0,1,3.34c1,3,2,5.86,3,8.82a13.36,13.36,0,0,1,.81,3.93,5,5,0,0,1-1.39,3.66,3.07,3.07,0,0,1-3.69.46,5.08,5.08,0,0,1-1.67-3c-.4-1.5-.81-3-1.22-4.49-.55-2-1.1-4-1.55-6.09-.93-4.14-1.44-8.59.1-12.56.48-1.25,3.51-5,4.42-2.09.35,1.13-.17,2.67-.18,3.85A19.23,19.23,0,0,0,113.48,334.93Z"/><path class="cls-4" d="M111.73,337.54a32.53,32.53,0,0,0,1,3.34c1,2.95,2,5.86,3,8.82a13.36,13.36,0,0,1,.81,3.93,5,5,0,0,1-1.38,3.66,3.08,3.08,0,0,1-3.7.45,5,5,0,0,1-1.67-3c-.4-1.5-.81-3-1.22-4.49-.55-2-1.1-4-1.55-6.09-.93-4.14-1.44-8.59.1-12.56.48-1.25,3.51-5,4.42-2.09.35,1.13-.17,2.67-.18,3.85A19.29,19.29,0,0,0,111.73,337.54Z"/><path class="cls-3" d="M125.36,290.48c-.87-1.58-3.67-4.07-7-6.69l-3.63,3.06c-2.85,2.39-5.67,4.81-8.55,7.18-.61.51-1.46,1.09-2.3,1.71,3.88,2.07,7.37,3.87,7.44,4.57a7.23,7.23,0,0,1-.46,2.93l-.1.3a146,146,0,0,0-4.57,21c-.75,4.79-1.56,9.76-1,14.61a108.67,108.67,0,0,0,3.19,15.12,6.47,6.47,0,0,0,.88,2.23,2.37,2.37,0,0,0,3.75.22c2-2.76.91-6.89.23-9.95a53.81,53.81,0,0,1-1.59-8.62,17.61,17.61,0,0,1,1.73-8.09c.82-1.89,1.56-3.8,2.42-5.68a17.91,17.91,0,0,1,1.12-2.12,5.72,5.72,0,0,1,2.27-2.15,3.83,3.83,0,0,1,3-.2c.92.47.88,1.67,1,2.56a12.24,12.24,0,0,1-.2,3.14,19.42,19.42,0,0,0-.48,5.41,5.61,5.61,0,0,0,.17.91c.86,3.21,5.2,6.05,6.85,1.77a13.43,13.43,0,0,0,.61-2.88c.66-4.65,2.29-9.17,2.1-13.89a84,84,0,0,0-1-8.95C129.42,296.75,127.91,295.18,125.36,290.48Z"/><path class="cls-4" d="M116.88,322.23a20.46,20.46,0,0,1,.73-2,7.07,7.07,0,0,1,2.16-3,3.24,3.24,0,0,1,3.53-.32,3.75,3.75,0,0,1,1.5,2.67c.39,2.55-.61,5.09-1.44,7.53a17.41,17.41,0,0,0-.93,3.88,19.42,19.42,0,0,1,.48-5.41,12.24,12.24,0,0,0,.2-3.14c-.08-.89,0-2.09-1-2.56a3.83,3.83,0,0,0-3,.2A5.72,5.72,0,0,0,116.88,322.23Z"/><path class="cls-6" d="M128.07,289.11a37.33,37.33,0,0,0-8-10.62,11.12,11.12,0,0,0-3.09-2.34c-3.17-1.43-6.94,1.39-9.5,3.05A43.33,43.33,0,0,0,99,286.37a5.69,5.69,0,0,0-1.77,3.15c-.13,1.52.86,2.89,1.81,4.09l6.56,8.33a7.17,7.17,0,0,0,2.49,2.29,6.6,6.6,0,0,0,3.64.23,37.07,37.07,0,0,0,14.89-5.64,6.82,6.82,0,0,0,2.46-2.34c.83-1.56.48-3.48-.09-5.15A21.47,21.47,0,0,0,128.07,289.11Z"/><path class="cls-7" d="M110.13,303.42a.39.39,0,0,1-.23-.07,10.68,10.68,0,0,1-2.09-2l-.21-.23a44.14,44.14,0,0,0-4.3-4.24.41.41,0,1,1,.54-.62,43.56,43.56,0,0,1,4.38,4.32l.21.23a9.88,9.88,0,0,0,1.92,1.85.42.42,0,0,1,.12.57A.41.41,0,0,1,110.13,303.42Z"/><path class="cls-7" d="M113.28,302.56a.38.38,0,0,1-.28-.11,20.81,20.81,0,0,1-1.68-1.84,36.65,36.65,0,0,1-3.51-4.66,1.17,1.17,0,0,1-.13-1.22.38.38,0,0,1,.51-.11.46.46,0,0,1,.18.55s0,.08.14.36a38.16,38.16,0,0,0,3.43,4.55,22.82,22.82,0,0,0,1.62,1.77.4.4,0,0,1,0,.58A.39.39,0,0,1,113.28,302.56Z"/><path class="cls-7" d="M116.9,301.47a.39.39,0,0,1-.34-.18,24,24,0,0,0-3.74-4.43l-.78-.69a15.22,15.22,0,0,1-2.43-2.51.41.41,0,1,1,.67-.47,14.61,14.61,0,0,0,2.3,2.36l.79.71a23.85,23.85,0,0,1,3.87,4.58.4.4,0,0,1-.34.63Z"/><path class="cls-7" d="M120.63,300.64a.42.42,0,0,1-.32-.16,83.7,83.7,0,0,0-8-8.47.41.41,0,1,1,.56-.6,85.41,85.41,0,0,1,8,8.55.41.41,0,0,1-.06.58A.44.44,0,0,1,120.63,300.64Z"/><path class="cls-7" d="M123.65,298.58a.41.41,0,0,1-.32-.15,39.8,39.8,0,0,0-8-7.63.41.41,0,0,1-.1-.57.43.43,0,0,1,.58-.1,40.34,40.34,0,0,1,8.19,7.79.4.4,0,0,1-.32.66Z"/><path class="cls-7" d="M127,296.7a.43.43,0,0,1-.25-.09,20,20,0,0,1-3-3.06c-.28-.34-.56-.67-.85-1a30.15,30.15,0,0,0-5.08-4.63.41.41,0,0,1,.48-.67,31,31,0,0,1,5.22,4.75l.86,1a19.34,19.34,0,0,0,2.85,2.94.41.41,0,0,1-.26.74Z"/><path class="cls-7" d="M127.44,291a.39.39,0,0,1-.28-.12l-6.42-6.24a.41.41,0,1,1,.57-.59l6.42,6.24a.43.43,0,0,1,0,.59A.42.42,0,0,1,127.44,291Z"/><path class="cls-6" d="M221.19,231.77c-13.27,2.26-26.8,2.1-40.26,2q-12.94-.06-25.87-.61-6.57-.28-13.14-.69c-3.35-.21-7.55-.79-10.68.73-6.68,3.26-4.76,15.87-4.07,21.72.6,5.18,4,7.18,8.63,8.39,23.58,6.23,48.61,4.48,72.29-1.29,3.58-.87,8.65-1.22,10.68-4.77,3.22-5.61,5-12.89,6.95-19.07C226.79,234.78,225.32,231.07,221.19,231.77Z"/><path class="cls-7" d="M330.94,185.48c-.64,6.64-2.06,13-7.91,17-6.55,4.43-15.26,4.55-22.87,4.47a120.9,120.9,0,0,1-14.35-1.07c-5.79-.75-11.53-1.84-17.23-3a361.11,361.11,0,0,1-37-9.33v1.36q0,3.48-.05,7c-.06,4,.13,8.68.14,13.54,0,11-.8,22.85-7.41,30.2-5.35,6-12.44,5.56-20.06,8q-2.37.75-4.77,1.39c-4.53.83-9.08,1.55-13.66,2.09a159.83,159.83,0,0,1-32.21.72,104.91,104.91,0,0,1-25.2-5.52c-3.78-1.32-5.8-3.79-5.91-7.8-.13-4.54.71-9,1-13.54a34.11,34.11,0,0,0-.15-6.3c-1.07-8.26-3.52-16.28-6.27-24.11l-2.61,1.72c-1.15.78-8.24,5.78-14.64,10.3l-5.9,4.16L89,220l-.14.09c10,12.41,17.82,26.42,24.64,40.79,1.75,3.67,3.41,7.36,5,11.09l.12.29c1.27,3,3.37,6.59,1.71,9.86a13.17,13.17,0,0,1-3,3.6c-4.23,3.9-9.49,9.14-15.42,10.07S91.22,292,86.55,289.17a153.41,153.41,0,0,1-17.61-12.39,125.59,125.59,0,0,1-32.77-39.7c-3.26-6.3-5.8-13.35-5.35-20.55.46-7,3.74-13,8.11-18.31a160.7,160.7,0,0,1,17.69-17.8c10.57-9.48,21.64-18.36,32.85-27,10.21-7.9,20.28-16.1,31.56-22.45a94.85,94.85,0,0,1,19.12-8.09l1.31-.38a106.44,106.44,0,0,1,24.4-4,203.6,203.6,0,0,1,42.79,2.22l.4.08c3.72.62,7.39,1.4,10.95,2.32a126,126,0,0,1,23.72,9.12l28.81,14.09,9.62,4.71.32.15c-.61-.29-1.1-4.45-1.27-5.2a129.21,129.21,0,0,1-3.83-26.65c-.08-4-.84-8.33.48-12.23a5,5,0,0,1,1.13-1.9h.1a71.3,71.3,0,0,0,22.73-3c4.47,2.29,6.83,8.68,8.93,12.86q3,6,5.8,12.16c5.16,11.39,10.06,23.16,12.75,35.4A73.51,73.51,0,0,1,330.94,185.48Z"/><path class="cls-6" d="M144.48,132.33a.41.41,0,0,1-.4-.33.42.42,0,0,1,.32-.49,10.43,10.43,0,0,1,2.12-.24.41.41,0,1,1,0,.82,9.53,9.53,0,0,0-2,.23Z"/><path class="cls-6" d="M100.79,283.77a.38.38,0,0,1-.26-.09c-1.09-.87-2.18-1.76-3.23-2.64a.41.41,0,0,1,.53-.63c1.06.89,2.13,1.77,3.21,2.63a.41.41,0,0,1,.07.58A.41.41,0,0,1,100.79,283.77Zm-6.38-5.36a.41.41,0,0,1-.27-.1c-1-.93-2.08-1.87-3.09-2.82a.41.41,0,0,1,0-.58.42.42,0,0,1,.58,0c1,.94,2,1.88,3.07,2.8a.41.41,0,0,1,0,.58A.38.38,0,0,1,94.41,278.41Zm-6.08-5.69a.44.44,0,0,1-.29-.12c-1-1-2-2-2.93-3a.41.41,0,0,1,.6-.57c1,1,1.94,2,2.91,3a.41.41,0,0,1,0,.58A.43.43,0,0,1,88.33,272.72Zm-5.76-6a.43.43,0,0,1-.31-.13c-.92-1-1.85-2.07-2.76-3.13a.41.41,0,0,1,.62-.54C81,264,82,265,82.87,266a.4.4,0,0,1,0,.58A.35.35,0,0,1,82.57,266.7Zm-5.44-6.31a.41.41,0,0,1-.32-.15c-.87-1.08-1.75-2.18-2.59-3.27a.41.41,0,0,1,.65-.51c.84,1.09,1.71,2.19,2.58,3.26a.41.41,0,0,1-.06.58A.43.43,0,0,1,77.13,260.39ZM72,253.8a.4.4,0,0,1-.33-.17c-.82-1.13-1.63-2.26-2.42-3.41a.41.41,0,0,1,.67-.47c.79,1.14,1.59,2.27,2.41,3.39a.42.42,0,0,1-.09.58A.43.43,0,0,1,72,253.8Zm-4.73-6.86a.42.42,0,0,1-.35-.19c-.75-1.16-1.51-2.35-2.23-3.53a.41.41,0,0,1,.13-.56.42.42,0,0,1,.57.13c.72,1.18,1.47,2.36,2.22,3.51a.42.42,0,0,1-.12.57A.38.38,0,0,1,67.31,246.94ZM63,239.84a.43.43,0,0,1-.36-.21c-.69-1.2-1.38-2.43-2-3.64a.42.42,0,0,1,.17-.56.41.41,0,0,1,.56.17c.65,1.2,1.33,2.42,2,3.62a.4.4,0,0,1-.15.56A.36.36,0,0,1,63,239.84Zm-4-7.33a.4.4,0,0,1-.37-.23c-.69-1.39-1.26-2.63-1.75-3.81a.42.42,0,0,1,.23-.54.4.4,0,0,1,.53.22c.48,1.17,1,2.4,1.72,3.77a.4.4,0,0,1-.18.55A.39.39,0,0,1,59,232.51Zm-3.09-7.73a.42.42,0,0,1-.4-.3,24.1,24.1,0,0,1-.76-4.16.41.41,0,0,1,.82-.08,22.64,22.64,0,0,0,.74,4,.41.41,0,0,1-.29.5Zm-.69-8.24h-.05a.41.41,0,0,1-.36-.45,24.71,24.71,0,0,1,.86-4.15.4.4,0,0,1,.51-.27.41.41,0,0,1,.28.51,23,23,0,0,0-.83,4A.42.42,0,0,1,55.21,216.54Zm2.34-8a.58.58,0,0,1-.18,0,.43.43,0,0,1-.2-.55,32.91,32.91,0,0,1,2-3.69.41.41,0,0,1,.56-.13.42.42,0,0,1,.13.57,29.79,29.79,0,0,0-2,3.6A.41.41,0,0,1,57.55,208.58Zm4.45-7a.4.4,0,0,1-.32-.66c.73-.92,1.53-1.82,2.36-2.69l.41-.43.32.27.28.3-.42.43c-.81.85-1.59,1.74-2.31,2.63A.42.42,0,0,1,62,201.55Zm5.67-6.1a.4.4,0,0,1-.29-.12.41.41,0,0,1,0-.58l2.92-3a.41.41,0,0,1,.59.58c-1,1-2,2-2.92,3A.42.42,0,0,1,67.67,195.45Zm5.85-5.95a.4.4,0,0,1-.29-.12.41.41,0,0,1,0-.58l3-3a.41.41,0,1,1,.58.59l-2.94,2.94A.42.42,0,0,1,73.52,189.5Zm5.91-5.88a.41.41,0,0,1-.29-.7l3-2.92a.41.41,0,1,1,.57.59l-3,2.91A.42.42,0,0,1,79.43,183.62Zm6-5.82a.44.44,0,0,1-.3-.12.43.43,0,0,1,0-.59l3-2.88a.41.41,0,0,1,.58,0,.4.4,0,0,1,0,.58l-3,2.89A.46.46,0,0,1,85.4,177.8Zm6-5.75a.43.43,0,0,1-.3-.13.42.42,0,0,1,0-.58c1-1,2-1.91,3-2.85a.4.4,0,0,1,.58,0,.42.42,0,0,1,0,.58c-1,.94-2,1.89-3,2.85A.43.43,0,0,1,91.44,172.05Zm6.11-5.68a.39.39,0,0,1-.3-.13.4.4,0,0,1,0-.58l3.09-2.81a.41.41,0,0,1,.55.61c-1,.93-2.06,1.86-3.08,2.81A.42.42,0,0,1,97.55,166.37Zm6.19-5.58a.43.43,0,0,1-.31-.14.41.41,0,0,1,0-.58c1-.93,2.09-1.85,3.13-2.76a.41.41,0,0,1,.54.62c-1,.9-2.08,1.82-3.13,2.75A.4.4,0,0,1,103.74,160.79ZM110,155.3a.43.43,0,0,1-.31-.14.4.4,0,0,1,.05-.58c1.06-.92,2.13-1.82,3.18-2.7a.42.42,0,0,1,.58.05.41.41,0,0,1,0,.58l-3.18,2.69A.39.39,0,0,1,110,155.3Zm6.4-5.35a.41.41,0,0,1-.32-.15.42.42,0,0,1,.06-.58l3.26-2.61a.41.41,0,0,1,.51.65c-1.07.84-2.15,1.71-3.25,2.6A.43.43,0,0,1,116.42,150Zm6.55-5.16a.44.44,0,0,1-.33-.16.41.41,0,0,1,.08-.58c1.14-.87,2.26-1.7,3.35-2.49a.41.41,0,0,1,.58.09.41.41,0,0,1-.09.57c-1.09.79-2.21,1.62-3.34,2.49A.46.46,0,0,1,123,144.79Zm6.76-4.89a.39.39,0,0,1-.34-.18.41.41,0,0,1,.1-.57c1.21-.83,2.39-1.6,3.5-2.3a.41.41,0,1,1,.44.7c-1.1.69-2.27,1.46-3.47,2.28A.39.39,0,0,1,129.73,139.9Zm7.07-4.41a.41.41,0,0,1-.19-.77c1.34-.73,2.61-1.36,3.77-1.86a.41.41,0,0,1,.54.21.41.41,0,0,1-.22.54c-1.13.49-2.38,1.11-3.7,1.83A.35.35,0,0,1,136.8,135.49Z"/><path class="cls-6" d="M105.69,287.52a.41.41,0,0,1-.24-.08l-1.66-1.23a.41.41,0,0,1-.08-.58.42.42,0,0,1,.58-.08l1.64,1.22a.41.41,0,0,1,.09.58A.4.4,0,0,1,105.69,287.52Z"/><path class="cls-6" d="M196.52,115.84c-.27-.77-.57-1.53-.78-2.27-.85-3-.61-7-4.18-8.83-1.75-.91-3.79-.56-5.72-.42-2.27.16-4.54.39-6.81.53a91.56,91.56,0,0,1-14.34-.26c-2.44-.24-4.85-.58-7.25-1-2.16-.39-4.38-1.16-6.59-1.2a5,5,0,0,0-4.09,1.66,5.16,5.16,0,0,0-.73,2.54c-.47,4.43-.86,8.94.21,13.31a6.36,6.36,0,0,0,2,3.67c2.68,2.11,8.18,2.38,11.6,2.81,11.28,1.44,23.18.77,33.28-3.92a9.12,9.12,0,0,0,3.23-2.18C197.53,118.87,197,117.36,196.52,115.84Z"/><path class="cls-7" d="M151.74,124a.43.43,0,0,1-.39-.28,58.76,58.76,0,0,1-1.91-19.5.38.38,0,0,1,.43-.32h0a.37.37,0,0,1,.38.38,58.32,58.32,0,0,0,1.89,19.29.35.35,0,0,1-.3.42Z"/><path class="cls-7" d="M155.32,125h0a.39.39,0,0,1-.39-.38,51.78,51.78,0,0,0-.43-9l-1-9.82c0-.29-.09-.38-.13-.4a.33.33,0,0,1-.16-.48.44.44,0,0,1,.56-.12,1.06,1.06,0,0,1,.54.94l1.05,9.82a53,53,0,0,1,.43,9.09A.38.38,0,0,1,155.32,125Z"/><path class="cls-7" d="M159.66,125.5a.4.4,0,0,1-.39-.33c-.57-6.37-.91-12.83-1-19.21a.38.38,0,0,1,.41-.36.4.4,0,0,1,.41.36c.12,6.36.46,12.81,1,19.17a.36.36,0,0,1-.38.37Z"/><path class="cls-7" d="M163.21,125.93a.4.4,0,0,1-.4-.36,149.52,149.52,0,0,0-1.29-19,.36.36,0,0,1,.36-.39.43.43,0,0,1,.46.32,150.77,150.77,0,0,1,1.29,19.09.38.38,0,0,1-.41.35Z"/><path class="cls-7" d="M167.16,126.69h0a.39.39,0,0,1-.4-.37,56.05,56.05,0,0,0-.56-10.09l0-.38a22.54,22.54,0,0,1-.28-4.27c0-.5.09-1,.16-1.48a11.06,11.06,0,0,0,.12-2.74.37.37,0,0,1,.37-.38.41.41,0,0,1,.45.32,11.54,11.54,0,0,1-.13,2.88c-.06.48-.12,1-.15,1.44a22.33,22.33,0,0,0,.28,4.16l.05.38a56.33,56.33,0,0,1,.56,10.2A.38.38,0,0,1,167.16,126.69Z"/><path class="cls-7" d="M170.48,126.11h0a.38.38,0,0,1-.38-.38,79.29,79.29,0,0,0-.51-18.21.35.35,0,0,1,.35-.38.4.4,0,0,1,.46.31,79.3,79.3,0,0,1,.52,18.34A.39.39,0,0,1,170.48,126.11Z"/><path class="cls-7" d="M175,125.6h0a.38.38,0,0,1-.37-.38,15.41,15.41,0,0,0-.38-4.21c-.12-.65-.24-1.32-.32-2a35.13,35.13,0,0,1-.16-4.46,19.87,19.87,0,0,0-.86-7.27.34.34,0,0,1,.26-.45.44.44,0,0,1,.52.23,20.45,20.45,0,0,1,.9,7.51,35.46,35.46,0,0,0,.15,4.37c.08.65.21,1.32.32,2a16.07,16.07,0,0,1,.39,4.38A.39.39,0,0,1,175,125.6Z"/><path class="cls-7" d="M178.47,125a.39.39,0,0,1-.39-.36,141.5,141.5,0,0,0-1-17.8.36.36,0,0,1,.37-.38.39.39,0,0,1,.45.32,142.66,142.66,0,0,1,1,17.88.38.38,0,0,1-.41.34Z"/><path class="cls-7" d="M182.39,123.82a.4.4,0,0,1-.4-.37c.13-5.39.25-11-1.27-16.32a.35.35,0,0,1,.31-.42.41.41,0,0,1,.49.26c1.55,5.44,1.42,11.06,1.3,16.51a.4.4,0,0,1-.42.34Z"/><path class="cls-7" d="M185.9,124.12a.4.4,0,0,1-.4-.33l-1.34-17a.37.37,0,0,1,.38-.37.41.41,0,0,1,.44.33l1.34,17a.36.36,0,0,1-.38.37Z"/><path class="cls-7" d="M189.92,122.7a.39.39,0,0,1-.4-.34,117.36,117.36,0,0,0-1.74-15.83.37.37,0,0,1,.35-.4.42.42,0,0,1,.47.3,120.37,120.37,0,0,1,1.74,15.91.36.36,0,0,1-.39.36Z"/><path class="cls-7" d="M193.77,120.84h-.09a.37.37,0,0,1-.3-.44,7.59,7.59,0,0,0-.3-4.08c-.16-.66-.33-1.34-.43-2s-.09-1.09-.12-1.62-.05-1.07-.12-1.6a17.63,17.63,0,0,0-1.83-5,.32.32,0,0,1,.22-.45.44.44,0,0,1,.54.19,18,18,0,0,1,1.88,5.19,15.46,15.46,0,0,1,.13,1.66c0,.51.05,1,.12,1.56a16.81,16.81,0,0,0,.42,1.94,8.29,8.29,0,0,1,.29,4.41A.4.4,0,0,1,193.77,120.84Z"/><path class="cls-6" d="M285.81,205.83c-5.79-.75-11.53-1.84-17.23-3a361.11,361.11,0,0,1-37-9.33v1.36c-.54-2.12-1.1-4.24-1.51-6.42-.71-3.79-1.5-7.58-2.37-11.34q-2.47-10.61-5.78-21-1.65-5.19-3.51-10.31c-1.07-3-2-6.36-4.14-8.76a90.58,90.58,0,0,1,8.09,10.43c6.83,10.37,12.08,22,20.85,31,6.27,6.42,14,11.24,21.59,16,4.8,3,9.61,6,14.66,8.54C281.5,204,283.64,204.94,285.81,205.83Z"/><path class="cls-6" d="M117,200.43l-2.61,1.72c-1.53,1-13.56,9.55-20.54,14.46a28.43,28.43,0,0,1,1.34-4.77c.86-2.31,6.57-12.33,10.69-18.91,2.32-3.72,6.22-13,9.33-20-.09,3.29.14,7.14-.29,10.12C114.05,188.82,117,200.43,117,200.43Z"/><path class="cls-6" d="M295.68,169.46a53.6,53.6,0,0,1-6.83-4.87c-6.34-5.17-12.22-11.25-16.32-18.27l9.62,4.71A152.52,152.52,0,0,0,295.68,169.46Z"/><path class="cls-6" d="M297.45,193a35.7,35.7,0,0,1-3.93-.22.41.41,0,1,1,.08-.81,36.9,36.9,0,0,0,3.85.21h.21a.38.38,0,0,1,.41.4.4.4,0,0,1-.4.42Zm4.31-.31a.41.41,0,0,1-.06-.82,23.36,23.36,0,0,0,3.92-.93.4.4,0,0,1,.52.26.41.41,0,0,1-.26.52,23.82,23.82,0,0,1-4.06,1Zm-12.26-.52h-.08c-1.28-.25-2.64-.56-4-.92a.42.42,0,0,1-.29-.51.41.41,0,0,1,.5-.29c1.38.36,2.72.67,4,.91a.41.41,0,0,1-.07.82Zm-8-2.07a.25.25,0,0,1-.12,0c-1.24-.39-2.52-.81-3.91-1.31a.41.41,0,0,1,.27-.77c1.39.49,2.66.91,3.88,1.3a.41.41,0,0,1,.27.52A.4.4,0,0,1,281.54,190.09Zm28,0a.42.42,0,0,1-.36-.2.43.43,0,0,1,.15-.57,20,20,0,0,0,3.29-2.32.41.41,0,1,1,.53.62A21.11,21.11,0,0,1,309.7,190,.35.35,0,0,1,309.5,190.05Zm-35.72-2.67-.13,0c-1.3-.46-2.59-.93-3.87-1.42a.41.41,0,1,1,.29-.76c1.28.48,2.56.95,3.85,1.4a.42.42,0,0,1,.25.53A.41.41,0,0,1,273.78,187.38Zm42-2.57a.4.4,0,0,1-.27-.11.41.41,0,0,1,0-.58,10,10,0,0,0,2-3.39.41.41,0,1,1,.78.26,10.81,10.81,0,0,1-2.12,3.67A.4.4,0,0,1,315.78,184.81Zm-49.69-.33a.4.4,0,0,1-.15,0q-1.9-.78-3.81-1.59a.41.41,0,0,1-.21-.54.41.41,0,0,1,.54-.22c1.26.55,2.52,1.07,3.78,1.58a.42.42,0,0,1-.15.8Zm-7.55-3.26a.33.33,0,0,1-.17,0c-1.25-.57-2.49-1.16-3.73-1.77a.41.41,0,0,1,.37-.74c1.23.61,2.46,1.19,3.7,1.76a.41.41,0,0,1,.2.55A.41.41,0,0,1,258.54,181.22Zm-7.38-3.63a.41.41,0,0,1-.19,0c-1.21-.63-2.43-1.29-3.63-2a.41.41,0,1,1,.4-.72c1.2.67,2.41,1.32,3.61,1.95a.41.41,0,0,1-.19.77Zm67.28-.37a.41.41,0,0,1-.41-.41,19.64,19.64,0,0,0-.46-4,.4.4,0,0,1,.31-.48.41.41,0,0,1,.49.31,19.84,19.84,0,0,1,.48,4.16.41.41,0,0,1-.41.41ZM244,173.59a.42.42,0,0,1-.21-.06c-1.19-.71-2.38-1.44-3.51-2.16a.41.41,0,1,1,.44-.7c1.13.72,2.3,1.44,3.49,2.15a.41.41,0,0,1,.14.57A.42.42,0,0,1,244,173.59Zm72.86-4.39a.42.42,0,0,1-.39-.28c-.4-1.15-.88-2.4-1.48-3.8a.41.41,0,0,1,.22-.54.42.42,0,0,1,.54.21c.6,1.43,1.09,2.69,1.5,3.86a.4.4,0,0,1-.25.52A.35.35,0,0,1,316.84,169.2Zm-79.8,0a.4.4,0,0,1-.23-.08c-1.14-.77-2.28-1.57-3.38-2.36a.42.42,0,1,1,.49-.67c1.09.79,2.22,1.58,3.35,2.35a.41.41,0,0,1,.11.57A.42.42,0,0,1,237,169.18Zm-6.66-4.83a.39.39,0,0,1-.25-.08c-1.08-.84-2.17-1.71-3.22-2.58a.41.41,0,1,1,.52-.63c1,.86,2.13,1.73,3.2,2.56a.4.4,0,0,1,.08.57A.39.39,0,0,1,230.38,164.35Zm83.21-2.7a.41.41,0,0,1-.37-.22c-.62-1.23-1.25-2.45-1.88-3.66a.41.41,0,0,1,.18-.55.4.4,0,0,1,.55.18c.63,1.2,1.26,2.42,1.88,3.66a.4.4,0,0,1-.18.55A.39.39,0,0,1,313.59,161.65Zm-3.78-7.3a.42.42,0,0,1-.37-.22l-1.91-3.64a.4.4,0,0,1,.17-.55.41.41,0,0,1,.56.17l1.91,3.64a.4.4,0,0,1-.17.55A.34.34,0,0,1,309.81,154.35ZM306,147.08a.42.42,0,0,1-.36-.23c-.63-1.2-1.26-2.42-1.89-3.65a.41.41,0,1,1,.73-.37c.63,1.22,1.26,2.44,1.89,3.64a.42.42,0,0,1-.37.61Zm-3.73-7.33a.41.41,0,0,1-.38-.26c-.5-1.28-1-2.55-1.51-3.81a.41.41,0,0,1,.22-.54.42.42,0,0,1,.54.23c.51,1.26,1,2.54,1.52,3.82a.43.43,0,0,1-.24.54Zm-3.08-7.62a.41.41,0,0,1-.38-.25l-1.57-3.8a.41.41,0,0,1,.22-.54.42.42,0,0,1,.54.23l1.57,3.79a.41.41,0,0,1-.38.57Zm-3.12-7.6a.4.4,0,0,1-.38-.26c-.52-1.28-1-2.56-1.49-3.84a.41.41,0,0,1,.77-.29c.48,1.28,1,2.55,1.48,3.82a.42.42,0,0,1-.23.54A.4.4,0,0,1,296.05,124.53Zm-2.86-7.71a.4.4,0,0,1-.39-.28c-.46-1.37-.87-2.66-1.24-3.94a.42.42,0,0,1,.29-.51.41.41,0,0,1,.5.28c.37,1.27.77,2.55,1.23,3.91a.42.42,0,0,1-.26.52Zm-2.27-7.9a.42.42,0,0,1-.4-.32l-.08-.39a.4.4,0,0,1,.31-.49.41.41,0,0,1,.49.31l.09.39a.41.41,0,0,1-.31.49Z"/><path class="cls-7" d="M130,259.35h0a.41.41,0,0,1-.4-.42l.19-4.69a.42.42,0,0,1,.43-.4.41.41,0,0,1,.39.43L130.4,259A.41.41,0,0,1,130,259.35Z"/><path class="cls-7" d="M132.84,261.55h-.05a.41.41,0,0,1-.36-.46c.24-1.89.45-3.82.62-5.72a.41.41,0,0,1,.82.07c-.18,1.92-.38,3.85-.62,5.75A.41.41,0,0,1,132.84,261.55Z"/><path class="cls-7" d="M136.17,262.7h-.06a.41.41,0,0,1-.35-.46,48.11,48.11,0,0,0,.47-6.23.42.42,0,0,1,.42-.4.4.4,0,0,1,.4.41,49.66,49.66,0,0,1-.47,6.33A.41.41,0,0,1,136.17,262.7Z"/><path class="cls-7" d="M139,263.61h-.1a.42.42,0,0,1-.3-.5,48.83,48.83,0,0,0,1.1-6.45.41.41,0,0,1,.45-.37.42.42,0,0,1,.37.46,52.11,52.11,0,0,1-1.12,6.55A.42.42,0,0,1,139,263.61Z"/><path class="cls-7" d="M142.68,264.23h-.06a.41.41,0,0,1-.35-.46l.83-6a.41.41,0,0,1,.46-.35.4.4,0,0,1,.35.46l-.83,6A.41.41,0,0,1,142.68,264.23Z"/><path class="cls-7" d="M146.14,264.71h0a.41.41,0,0,1-.37-.45l.63-6.21a.41.41,0,1,1,.82.08l-.63,6.21A.41.41,0,0,1,146.14,264.71Z"/><path class="cls-7" d="M149.39,264.46h0A.41.41,0,0,1,149,264a47.2,47.2,0,0,1,.89-5.14.41.41,0,0,1,.49-.31.41.41,0,0,1,.31.49,48.64,48.64,0,0,0-.87,5.06A.42.42,0,0,1,149.39,264.46Z"/><path class="cls-7" d="M152.7,265.81h0a.42.42,0,0,1-.36-.46l.81-6.45a.41.41,0,1,1,.81.1l-.8,6.46A.42.42,0,0,1,152.7,265.81Z"/><path class="cls-7" d="M155.67,266.12h0a.4.4,0,0,1-.35-.46c.27-2,.53-4,.77-6a.39.39,0,0,1,.45-.36.4.4,0,0,1,.36.45c-.23,2-.49,4-.77,6A.41.41,0,0,1,155.67,266.12Z"/><path class="cls-7" d="M158.87,265.87a.41.41,0,0,1-.41-.39,14.88,14.88,0,0,1,.48-4.1l0-.14a6.71,6.71,0,0,0,.25-1.74.41.41,0,0,1,.82,0,7.08,7.08,0,0,1-.27,2l0,.13a14.15,14.15,0,0,0-.46,3.87.42.42,0,0,1-.39.44Z"/><path class="cls-7" d="M161.78,266.29h0a.4.4,0,0,1-.38-.43c.13-2.07.37-4.15.7-6.19a.41.41,0,0,1,.47-.34.41.41,0,0,1,.34.47c-.32,2-.56,4.07-.69,6.11A.41.41,0,0,1,161.78,266.29Z"/><path class="cls-7" d="M165.42,266h-.06a.42.42,0,0,1-.35-.47c.23-1.39.45-2.83.6-4.25a4.2,4.2,0,0,0-.06-1.59.41.41,0,1,1,.78-.24,4.62,4.62,0,0,1,.09,1.92c-.14,1.44-.37,2.88-.59,4.28A.42.42,0,0,1,165.42,266Z"/><path class="cls-7" d="M169,266.41h0a.41.41,0,0,1-.38-.44l.43-5.21a6.29,6.29,0,0,0,0-1.06.41.41,0,1,1,.82-.06,7.65,7.65,0,0,1,0,1.18l-.43,5.21A.41.41,0,0,1,169,266.41Z"/><path class="cls-7" d="M172.13,265.81h0a.43.43,0,0,1-.4-.43c.06-2,.22-4,.47-6a.42.42,0,0,1,.46-.36.41.41,0,0,1,.36.46,58.72,58.72,0,0,0-.46,5.93A.42.42,0,0,1,172.13,265.81Z"/><path class="cls-7" d="M175.25,266.11h-.07a.42.42,0,0,1-.34-.48,32.85,32.85,0,0,0,.5-6.26.41.41,0,0,1,.41-.41.39.39,0,0,1,.41.4,33.6,33.6,0,0,1-.51,6.41A.4.4,0,0,1,175.25,266.11Z"/><path class="cls-7" d="M178.32,266.05h0a.4.4,0,0,1-.4-.42l.08-5.84a.4.4,0,0,1,.42-.41.41.41,0,0,1,.4.42l-.08,5.85A.42.42,0,0,1,178.32,266.05Z"/><path class="cls-7" d="M181.41,265.26a.42.42,0,0,1-.42-.4l-.14-6a.41.41,0,0,1,.4-.42.42.42,0,0,1,.42.4l.15,6a.42.42,0,0,1-.4.42Z"/><path class="cls-7" d="M184.25,265.81h0a.42.42,0,0,1-.39-.43l.32-6.7a.41.41,0,1,1,.82,0l-.32,6.7A.41.41,0,0,1,184.25,265.81Z"/><path class="cls-7" d="M187.46,264h0a.41.41,0,0,1-.4-.43l.21-5.36a.43.43,0,0,1,.43-.39.42.42,0,0,1,.4.43l-.22,5.35A.4.4,0,0,1,187.46,264Z"/><path class="cls-7" d="M190.65,263.92h0a.41.41,0,0,1-.38-.44l.37-6.09a.42.42,0,0,1,.44-.38.4.4,0,0,1,.38.43l-.37,6.09A.42.42,0,0,1,190.65,263.92Z"/><path class="cls-7" d="M193.87,263.46a.43.43,0,0,1-.38-.25.91.91,0,0,1-.05-.55l.78-5.29a.42.42,0,0,1,.46-.35.42.42,0,0,1,.35.47l-.78,5.29s0,.09,0,.11a.39.39,0,0,1-.21.53A.29.29,0,0,1,193.87,263.46Z"/><path class="cls-7" d="M197.55,262.58a.41.41,0,0,1-.41-.41,41.72,41.72,0,0,1,.4-5.91.41.41,0,1,1,.82.12,40.05,40.05,0,0,0-.4,5.79.41.41,0,0,1-.41.41Z"/><path class="cls-7" d="M200.94,261.91h0a.42.42,0,0,1-.38-.44l.45-6.09a.41.41,0,1,1,.82.06l-.45,6.09A.4.4,0,0,1,200.94,261.91Z"/><path class="cls-7" d="M204.19,261.61h0a.41.41,0,0,1-.38-.44l.36-6.39a.39.39,0,0,1,.43-.39.41.41,0,0,1,.39.43l-.36,6.4A.41.41,0,0,1,204.19,261.61Z"/><path class="cls-7" d="M207.37,260.65a.47.47,0,0,1-.17,0,.46.46,0,0,1-.26-.51l.52-4a8.6,8.6,0,0,0,.11-2,.4.4,0,0,1,.36-.45.4.4,0,0,1,.45.36,9.1,9.1,0,0,1-.1,2.22l-.5,3.8a.47.47,0,0,1-.08.47A.45.45,0,0,1,207.37,260.65Zm.39-.44Z"/><path class="cls-7" d="M210.83,260.27h0a.41.41,0,0,1-.4-.42A62.06,62.06,0,0,1,211,253a.4.4,0,0,1,.46-.35.41.41,0,0,1,.36.46,58.14,58.14,0,0,0-.53,6.71A.41.41,0,0,1,210.83,260.27Z"/><path class="cls-7" d="M213.49,259.27h-.08a.41.41,0,0,1-.33-.46c.31-2.25.68-4.54,1.11-6.79a.41.41,0,0,1,.48-.32.42.42,0,0,1,.33.48c-.41,2.1-.76,4.23-1.05,6.34a.34.34,0,0,1,0,.2l-.06.25A.41.41,0,0,1,213.49,259.27Z"/><path class="cls-7" d="M217.11,256.74a.3.3,0,0,1-.13,0,.41.41,0,0,1-.26-.51c.53-1.69,1-3.42,1.37-5.15a.41.41,0,0,1,.8.17c-.38,1.76-.85,3.52-1.39,5.23A.42.42,0,0,1,217.11,256.74Z"/><path class="cls-5" d="M155,50.07a.88.88,0,0,1-.77-.19.91.91,0,0,1-.12-1.28,8.9,8.9,0,0,1,8.53-2.94.91.91,0,1,1-.38,1.78,7,7,0,0,0-6.75,2.33A.9.9,0,0,1,155,50.07Z"/><path class="cls-5" d="M179.24,46a.89.89,0,0,1-.71-.41.91.91,0,0,1,.27-1.26,8.28,8.28,0,0,1,8.32-.31.92.92,0,0,1-.89,1.6,6.4,6.4,0,0,0-6.44.24A.84.84,0,0,1,179.24,46Z"/><path class="cls-9" d="M173.79,64.43a2.88,2.88,0,0,1,2.6-.79,3.38,3.38,0,0,1,2.37,1.76,3.34,3.34,0,0,1,.12,2.94,2.86,2.86,0,0,1-2.12,1.71,3.92,3.92,0,0,0,1.1-2,3.08,3.08,0,0,0-1.76-3.33A4,4,0,0,0,173.79,64.43Z"/><path class="cls-10" d="M193.05,70.47l0,.09a15.88,15.88,0,0,1-1.78,11.24,16.71,16.71,0,0,1-25.08,4.53,15.81,15.81,0,0,1-5.4-8.9v-.09Z"/><path class="cls-11" d="M191.29,81.8a16.71,16.71,0,0,1-25.08,4.53A34.93,34.93,0,0,1,170,84.21c4.94-2.43,10.45-4,15.94-3.48A28.22,28.22,0,0,1,191.29,81.8Z"/><path class="cls-12" d="M190.05,71.11c-.8,7.15-20.09,11.73-25.8,5.5Z"/><path class="cls-9" d="M182.71,57.13a.39.39,0,0,1-.24,0,.46.46,0,0,1-.32-.44,4.4,4.4,0,0,1,2.43-3.7,6.3,6.3,0,0,1,4.38-.41.46.46,0,0,1,.33.55.45.45,0,0,1-.55.34,5.3,5.3,0,0,0-3.74.33,3.76,3.76,0,0,0-1.55,1.51l.08-.06a6.9,6.9,0,0,1,5.24-.65.46.46,0,0,1,.34.55.45.45,0,0,1-.54.34A6.14,6.14,0,0,0,184,56,3.23,3.23,0,0,0,183,57,.42.42,0,0,1,182.71,57.13Z"/><path class="cls-9" d="M165.05,59.72a.49.49,0,0,0,.24-.14.53.53,0,0,0,.07-.61,4.92,4.92,0,0,0-4.4-2.31,7,7,0,0,0-4.51,2,.53.53,0,0,0,0,.73.52.52,0,0,0,.73,0,6,6,0,0,1,3.84-1.7,4.27,4.27,0,0,1,2.34.64h-.11a7.72,7.72,0,0,0-5.49,2.2.51.51,0,1,0,.68.76,6.94,6.94,0,0,1,4.74-1.94,3.84,3.84,0,0,1,1.54.36A.56.56,0,0,0,165.05,59.72Z"/><rect class="cls-12" x="210.1" y="144.18" width="3.38" height="0.89" transform="matrix(0.54, -0.84, 0.84, 0.54, -24.39, 244.59)"/><rect class="cls-12" x="208.27" y="143.27" width="0.88" height="2.56" transform="matrix(0.98, -0.21, 0.21, 0.98, -25.89, 47.52)"/><rect class="cls-12" x="211.95" y="146.88" width="2.62" height="0.89" transform="translate(-26.38 48.54) rotate(-12.24)"/><path class="cls-12" d="M210.39,149.24a1.07,1.07,0,0,1-1.49.33,1.09,1.09,0,0,1-.48-.69,1.05,1.05,0,0,1,.15-.83,1,1,0,0,1,.68-.47,1,1,0,0,1,.82.14,1.21,1.21,0,0,1,.48.7,1.14,1.14,0,0,1-.16.82m.21-2.34a2.07,2.07,0,0,0-1.56-.29,1.94,1.94,0,0,0-1.29.91,2,2,0,0,0-.28,1.57,1.94,1.94,0,0,0,.91,1.3,1.92,1.92,0,0,0,1.54.3,2.08,2.08,0,0,0,1.57-2.47,2.07,2.07,0,0,0-.89-1.32"/><path class="cls-12" d="M196.1,148.38a2.34,2.34,0,0,0-1.6,1.11,2.46,2.46,0,0,0-.35,1.94,2.51,2.51,0,0,0,1.12,1.63,2.44,2.44,0,0,0,1.92.34,2.49,2.49,0,0,0,1.4-.84,2.66,2.66,0,0,0,.59-1.52l-1,.22a1.71,1.71,0,0,1-.41.76,1.58,1.58,0,0,1-2.43-2,1.51,1.51,0,0,1,1-.69,1.49,1.49,0,0,1,.88.07,1.72,1.72,0,0,1,.68.52l1-.22a2.53,2.53,0,0,0-1.17-1.14,2.34,2.34,0,0,0-1.62-.19"/><path class="cls-12" d="M203.33,150.13l.16-.14.09.39a.85.85,0,0,1-.12.76,1.06,1.06,0,0,1-.56.32.57.57,0,0,1-.37,0,.49.49,0,0,1-.22-.35.48.48,0,0,1,.13-.49,1.2,1.2,0,0,1,.43-.23Zm-.89-2.1a1.63,1.63,0,0,0-1.25.81,1.66,1.66,0,0,0-.1.91l1-.21a.67.67,0,0,1,.06-.38.58.58,0,0,1,.47-.3.85.85,0,0,1,.5,0c.12,0,.19.13.24.29a.36.36,0,0,1-.16.35l-.72.28a2.38,2.38,0,0,0-.78.43,1.1,1.1,0,0,0-.3,1.17,1,1,0,0,0,.5.75,1.25,1.25,0,0,0,.85.1,1.88,1.88,0,0,0,1.16-.67l.09.4,1-.21-.61-2.85a1,1,0,0,0-.7-.85,2.35,2.35,0,0,0-1.18,0"/><rect class="cls-12" x="199.51" y="147.59" width="0.99" height="5.16" transform="translate(-27.28 45.8) rotate(-12.24)"/><path class="cls-12" d="M206.34,147.34a1.52,1.52,0,0,0-.57.69l-.11-.49-.92.19.84,3.87,1-.21-.4-1.85a1.42,1.42,0,0,1,0-.7,1,1,0,0,1,.75-.73l.3-.05-.22-1-.25.07Z"/></g></g></svg>