<svg xmlns="http://www.w3.org/2000/svg" viewBox="0 0 14.85 33.33"><g data-name="Capa 2" style="isolation:isolate"><g data-name="Pop up"><g data-name="Logo y botones"><path d="M12.85 11 8.06 27.61a9 9 0 0 0-.38 1.89.72.72 0 0 0 .2.46.58.58 0 0 0 .44.24 1.15 1.15 0 0 0 .78-.35 13.64 13.64 0 0 0 2.53-3.14l.81.47q-3.54 6.15-7.52 6.15a3.35 3.35 0 0 1-2.41-.85 2.89 2.89 0 0 1-.9-2.17 7.93 7.93 0 0 1 .39-2.2l3.27-11.18a9.52 9.52 0 0 0 .46-2.41 1.22 1.22 0 0 0-.45-.93 1.73 1.73 0 0 0-1.2-.41h-.84l.29-.93L11.45 11Zm-1.46-9.39a3.32 3.32 0 0 1 2.46 1 3.32 3.32 0 0 1 1 2.43 3.29 3.29 0 0 1-1 2.43 3.33 3.33 0 0 1-2.44 1A3.26 3.26 0 0 1 9 7.49a3.31 3.31 0 0 1-1-2.43 3.38 3.38 0 0 1 1-2.43 3.24 3.24 0 0 1 2.39-1.02Z" style="fill:#a7a9ac;opacity:.8;mix-blend-mode:multiply"/><path d="M11.24 9.4 6.45 26a9 9 0 0 0-.38 1.89.72.72 0 0 0 .2.46.58.58 0 0 0 .44.24 1.15 1.15 0 0 0 .78-.35A13.64 13.64 0 0 0 10 25.1l.81.47q-3.54 6.15-7.52 6.15a3.35 3.35 0 0 1-2.39-.85A2.87 2.87 0 0 1 0 28.7a7.93 7.93 0 0 1 .41-2.2l3.25-11.18a9.52 9.52 0 0 0 .46-2.41 1.22 1.22 0 0 0-.45-.91 1.73 1.73 0 0 0-1.2-.41h-.84l.29-.93L9.84 9.4ZM9.78 0a3.32 3.32 0 0 1 2.46 1 3.33 3.33 0 0 1 1 2.44 3.28 3.28 0 0 1-1 2.42 3.33 3.33 0 0 1-2.44 1 3.26 3.26 0 0 1-2.39-1 3.3 3.3 0 0 1-1-2.42A3.39 3.39 0 0 1 7.37 1a3.24 3.24 0 0 1 2.41-1Z" style="fill:#fff"/></g></g></g></svg>