<svg xmlns="http://www.w3.org/2000/svg" viewBox="0 0 494.7 836.96"><defs><style>.cls-1{fill:#211931;}.cls-2{fill:#32324c;}.cls-3{fill:#c11c57;}.cls-4{fill:#ffaf82;}.cls-5{fill:#f88968;}.cls-6{fill:#e63067;}.cls-7{fill:#fff;}.cls-8{fill:#920e08;}.cls-9{fill:#f85c66;}.cls-10{fill:#d82a64;}.cls-11{fill:#f9bb9c;}</style></defs><g id="Capa_2" data-name="Capa 2"><g id="Información"><path class="cls-1" d="M158.23,824.15C99.75,687.67,138,633.58,138,633.58,170.32,618.79,220.82,602,220.82,602,238,699.59,222.41,837,222.41,837Z"/><path class="cls-2" d="M44.88,835.15S24,744.34,45.05,621.36l105.44,12.22s-10,63.76-30.28,197Z"/><path class="cls-2" d="M48.87,589.19c-4.18,22.09-7.82,59,3.33,96.12,0,0,77.81,19.33,132.54-24.13,35.8-28.44,37.49-61.72,37.06-72Z"/><path class="cls-3" d="M162.1,261.9s-90,1.79,78.14,84.55c62.14,30.6,92.93,5.87,81.63-6.58C244.8,255,193.77,210.22,162.1,261.9Z"/><path class="cls-4" d="M453.25,428.58c-.92-.42-1.87-.87-2.84-1.35l-.65-.33h0C448,426,446.21,425,444.41,424h0c-10.14-6-17.38-9.26-22.43-19.2,0,0,5.26-21.22,10.47-23.54,0,0,15.88-3.14,25.78-3.08,0,0,12.57-1,16.53,2.42a9.67,9.67,0,0,1,3.06,8.49l1.84.53c2.65.77,7.4,2.14,8.95,2.62,8.46,2.63,9.21,11.09-4.92,9.79,1.1.45,8.93,3.41,7.35,9.68-1.1,4.41-12.29,2-12.29,2s7.54,7.77,4.89,11c-2.91,3.57-13.05-.64-13.46-.81.2.31,3.54,5.54-1.28,8.41C467,433.47,460.77,432,453.25,428.58Z"/><path class="cls-5" d="M453.25,428.58c-.92-.42-1.87-.87-2.84-1.35a8,8,0,0,1-.78-6.74c2-5.23,7.78-3.14,7.78-3.14s-4.09-2.9-2.06-6.13a6.37,6.37,0,0,1,5.79-2.83s-3-3.31-1.32-6.11,10.84-2.12,10.84-2.12-6,.61-8.24,2.59-.69,6,4.82,7.71c-.6-.19-6.25-1.84-9.1,1.24s4.26,8.57,4.65,8.86c-.48-.19-9.17-3.63-11.16-.05C450.27,423,451.64,426.24,453.25,428.58Z"/><path class="cls-5" d="M472.79,393s-5.35,7.22-12,7-6.68-11.11-1.42-17.87c0,0-5.08,2.17-6.31,9.14s4.72,11.13,8.38,10.44S468.5,399.49,472.79,393Z"/><path class="cls-5" d="M458.13,399.76s-8,7.78-22.43-.12c0,0,8.86,12.83,24.57,2.12Z"/><path class="cls-3" d="M284.44,302.94c-63.33-23.17-46.84,26.88-30.66,40,26.57,21.59,170.35,67.74,170.35,67.74,1.05-11.68,5.55-22.63,12.18-29.58,0,0-54.13-27.62-73.89-38.29S284.44,302.94,284.44,302.94Z"/><path class="cls-6" d="M208.16,405.22c-5.18,14.07-9.44,37.08-9.44,37.08,4,34.54,17.1,108.15,28.08,146.89-49.54,26.08-143.15,31.47-190.36,8.59,9-30.75,27.78-133.46,26-152.66C42.34,235.51,74.9,249.86,74.9,249.86l30.78-9.21h0a154.79,154.79,0,0,1,64.19-5.21l19.07,2.47,10.89,1.42,17.84,4.9s-1.1,50.68,11.78,97.47c10.89,39.5-6.72,44.7-15.54,53.37a17,17,0,0,0-3.18,4.14A52.08,52.08,0,0,0,208.16,405.22Z"/><path class="cls-3" d="M210.47,400c-1,2-3,8-4,10-.84,1.7-3,11-3.68,13.81A154.63,154.63,0,0,1,171,414.46c-24.89-10.53-47-33.67-47.62-34.35C157.81,407.1,192.34,397.73,210.47,400Z"/><path class="cls-4" d="M188.94,237.92c-3.53,19.43-5.8,52.3-30.53,51-29.73-1.55-47.09-35.21-52.73-48.27h0a154.45,154.45,0,0,1,64.19-5.21Z"/><path class="cls-2" d="M248.17,135c2.11,8,4.29,16.17,6.31,24.86,6.43,27.7-19.92,29.33-19.92,29.33s7.12,19.05-7.08,32.94S197.14,227,197.14,227s-6.59,7.64-22.55,7.55c-23.15-.11-30.91-9.94-30.91-9.94l-23.79-6c-3.3,1.56-6.57,13.17-32.24,14.4-23.34,1.13-34.31-13.58-34.31-13.58-7,11.58-35.63,7.5-37.6-11.73-1.85-18.06,7-24.79,8-25.55C8.08,191.73-14.92,161.37,13.38,136c11.52-10.32,17.81-15,22.21-20.31-12.17,2-23.74-12.78-17.56-24.59C26,75.85,38.23,83,52.12,61.28,70.58,32.45,83.84,23.09,84.61,22.56l0,0C107.19,3.89,139.12-3.17,173.24,1.3c29,3.79,45.18,16.87,54.17,29.78,7.76,11.14,11.13,24.68,10.5,38.24q-.19,4.26-.1,8.43c3.4,10.18,10.55,28.31,20.05,34.32C270.78,120.25,262,139,248.17,135Z"/><path class="cls-5" d="M208.32,112.83s16.28-16.21,27.58-.39c9.93,13.92.8,48.33-25.54,45.56Z"/><path class="cls-7" d="M229,157.09a6.35,6.35,0,1,1-5.91-6.77A6.37,6.37,0,0,1,229,157.09Z"/><path class="cls-4" d="M172.12,242.71c-2.41,15.71-35.72,22.77-52.46-5.32l.42-34.79.3-25.56,58.87,15.65-5.69,39.94Z"/><path class="cls-5" d="M172.87,237.45c-20.39-1.11-42.17-16.71-52.89-27.18l.4-33.23,58.87,15.65Z"/><path class="cls-4" d="M151.57,209.5c-62-18.71-67.78-102-67.78-102A91.88,91.88,0,0,1,85.56,94a106.05,106.05,0,0,1,4.1-14.85c5.6-15.55,16.53-33,37.77-39.44.66-.21,1.34-.41,2-.59,35.17-9.83,85-.7,97.15,45.8a75.79,75.79,0,0,1,1.73,9c.24,1.82.44,3.7.58,5.63C232.54,146.87,207.29,226.32,151.57,209.5Z"/><path class="cls-8" d="M183.5,175.39a10.89,10.89,0,0,1-21.43,1.94,11.09,11.09,0,0,1-.33-3.43,10.91,10.91,0,0,1,21.76,1.49Z"/><path class="cls-9" d="M181.57,180.87a10.89,10.89,0,0,1-19.5-3.54,19.85,19.85,0,0,1,11.41-.12C176.75,178.08,179.65,179.23,181.57,180.87Z"/><path class="cls-2" d="M144.8,124.32a8.09,8.09,0,0,1-8.67-7.48,8,8,0,0,1,.93-4.39c-6.57-1.23-6.16-5.23-6.16-5.23.92,1.78,8.72,1.31,11.95,1h0l1-.09h.43a8.09,8.09,0,0,1,.54,16.16Z"/><path class="cls-4" d="M94.51,109.89S72.76,96,64.12,116c-7.6,17.66,10.63,53.29,38.91,44Z"/><path class="cls-5" d="M93.57,144.33c-1.55-6.08-6.3-18.71-19.74-25.12,0,0,13.81,14.93,14.2,25.78a2.68,2.68,0,0,0,2.56,2.64h.32A2.65,2.65,0,0,0,93.57,144.33Z"/><path class="cls-5" d="M165.92,197.43a30.09,30.09,0,0,1-10.24-4.91,1.84,1.84,0,0,1,2.29-2.89c.47.37,11.28,8.68,23.68,3.14a1.84,1.84,0,1,1,1.51,3.36A25.41,25.41,0,0,1,165.92,197.43Z"/><path class="cls-5" d="M177.13,153.8l-9.56-.65a2,2,0,1,1,.27-3.93l9.56.66a.41.41,0,0,0,.36-.16.4.4,0,0,0,.1-.38l-6.08-27.71a2,2,0,1,1,3.84-.85l6.08,27.72a4.38,4.38,0,0,1-4.57,5.3Z"/><path class="cls-2" d="M149.78,88.05h0A3.76,3.76,0,0,1,147.17,93c-7.17,1.83-21.92,6.61-27.48,16,0,0-.6-13.9,25.25-23.17A3.78,3.78,0,0,1,149.78,88.05Z"/><path class="cls-2" d="M189.52,92.27h0a3.77,3.77,0,0,0,2.79,4.81c7.24,1.55,22.16,5.76,28.07,14.91,0,0,.07-13.91-26.11-22.19A3.78,3.78,0,0,0,189.52,92.27Z"/><path class="cls-2" d="M198.23,126.94a8.1,8.1,0,0,0,9.61-6.24,8,8,0,0,0-.33-4.47c6.67-.32,6.81-4.35,6.81-4.35-1.15,1.65-8.81.12-12-.59h0l-1-.22s0,0,0,0l-.39,0a8.09,8.09,0,0,0-2.73,15.94Z"/><path class="cls-2" d="M132.67,43.72s-6.94,55.05-34.23,75.6c0,0-1.22-14.81-21.43-14,0,0-1.66-3.56-3.47-20.39S87,.22,162.81,9.84c0,0,24.53-3.25,56.43,28s9.66,61.59,9.66,61.59S172.93,87.8,132.67,43.72Z"/><path class="cls-7" d="M92.78,161.94a6.35,6.35,0,1,1-5.9-6.77A6.35,6.35,0,0,1,92.78,161.94Z"/><path class="cls-10" d="M62.47,268.5s-27.2,30.33,140.9,113.09c62.14,30.59,92.93,5.87,81.63-6.59C207.93,290.09,94.14,216.82,62.47,268.5Z"/><path class="cls-11" d="M451.94,381.83s14.13-3,23.31,2.11c2.39,1.32-.66,8.05-5.28,8.33,0,0,5.28.93,5.5,3.88.5,6.5-4.73,6.61-4.73,6.61s4.6,4.19,3.21,8.35c-1.56,4.65-7.83,4.79-7.83,4.79s7.59.11,4.92,7.66c-2,5.77-38.27,3.72-55.18-12,0,0,.82-19.78,4.92-24.06,0,0,9.26-8.32,18.55-12.17C439.33,375.32,451.27,367.13,451.94,381.83Z"/><path class="cls-10" d="M255.73,350.21c-67.25-4.93-37.68,38.68-18.52,46.9C268.67,410.6,419.6,415.6,419.6,415.6c-2.19-11.52-.86-23.28,3.61-31.78,0,0-59.62-11.74-81.56-16.6S255.73,350.21,255.73,350.21Z"/></g></g></svg>