<svg xmlns="http://www.w3.org/2000/svg" viewBox="0 0 448.74 841.22"><defs><style>.cls-1{fill:#d1140b;}.cls-2{fill:#2c2c2c;}.cls-3{fill:#d37157;}.cls-4{fill:#b55441;}.cls-5{fill:#e34333;}.cls-6{fill:#f99c80;}.cls-7{fill:#f9bb9c;}</style></defs><g id="Capa_2" data-name="Capa 2"><g id="Información"><path class="cls-1" d="M354.63,486.55s79.09-138.48,90.05-193.86c19.38-97.91-33.59-66.18-97.6-23.29L331.54,447.67Z"/><path class="cls-1" d="M191.39,337.21c2.08-26.57-76-3.74-95.12,14.84-26.88,26.14-43.54,55-67.52,140.05-46,163.21-32.86,135.6,55.51,105.19C84.26,597.29,183.93,432.48,191.39,337.21Z"/><path class="cls-2" d="M101.69,828.28c-.19-57.59,14.21-91.69,14.21-91.69,93.48-6,240.47,0,240.47,0,.21.56.41,1.12.6,1.67,0,0,15.11,48,6.27,90-44.44,27.24-90.82,3-133.52,3.14C185,831.57,144.12,854.91,101.69,828.28Z"/><path class="cls-2" d="M177,263.68c-39.05,9.83-50.59-31.56-50.59-31.56-32.88-9.58-25.54-44-25.54-44s-12-3.85-15.46-26.51S99.55,131,99.55,131,78.1,112.25,87.61,88.59C97.19,64.77,123,72.76,123,72.76s-9.17-31.22,12.23-44.12c26-15.69,43.58,3.28,43.58,3.28s.14-23.41,23.37-30.3C231-6.92,249.56,21.06,249.56,21.06s13.8-16.42,31.64-14.9C309,8.52,306.12,33.24,306.12,33.24c8.59-8.32,33.79-1.89,38.16,19.22,3.38,16.32-2.79,23.89-2.79,23.89s25.87,1.49,23,30.94c-1.31,13.36-11.92,17.25-18.1,22.07,0,0,17.69.72,17.24,24.59s-14.78,27.32-14.78,27.32,8.53,11.35.16,34.34S325.09,237,325.09,237s-7.4,26.31-33.42,31.06C241,277.27,177,263.68,177,263.68Z"/><path class="cls-3" d="M269,277.35l-1.22,23-1.54,28.82S260.49,340,234.66,340s-31.13-7.41-31.13-7.41l-1-12.79L199,277.35Z"/><path class="cls-4" d="M269,277.35l-1.22,23c-10.78,8.06-36.28,23.93-65.26,19.47L199,277.35Z"/><path class="cls-2" d="M324.73,157.49c-.32,3.72-.69,7.54-1.15,11.4-6.71,58.68-28,131.06-92.1,131.06-61.53,0-84.8-65.76-93.4-122.23-.92-6.3-1.7-12.46-2.35-18.44-5.84-54.86,36.75-103.14,91.88-103.79h4.92A93.93,93.93,0,0,1,324.73,157.49Z"/><path class="cls-2" d="M324.73,157.49c-.32,3.72-.69,7.54-1.15,11.4-14.34-8.78-11.35-33.8-11.35-33.8-9.2-6.2-9.2-21-9.2-21-18.4,0-21.06-19.55-21.06-19.55-23.09,3.09-32.56-14.94-32.56-14.94-21.6,28.64-44.76,6-50.4,0,4.18,22.61-33.6,31.91-37.39,30.3,5.84,19.23-14.9,32.52-14.9,32.52,7.78,19.31-8.64,35.31-8.64,35.31-.92-6.3-1.7-12.46-2.35-18.44-5.84-54.86,36.75-103.14,91.88-103.79h4.92A93.93,93.93,0,0,1,324.73,157.49Z"/><path class="cls-5" d="M107.6,760.32c79.85,49.2,166.35,60.69,255.17-.07L357.9,612.43l-1.29-124.71c0-3.69-28.94-67.65-15.26-150.42L269,315.52a137,137,0,0,0-35-4.63c-11.78.05-57.47,10.21-69,13.3,0,0-42.56,4.48-62.84,23.81-1.45,1.38,28.6,100.23,2.38,139.72l5.51,124.71Z"/><path class="cls-6" d="M213.13,554s9.55-20.53,21.66-28.39,6.93,8.85,2.49,19.44C233.7,553.65,213.13,554,213.13,554Z"/><path class="cls-6" d="M255.76,545.56s31.69-32.72,44.85-41.14c15.94-10.2,13.37,4.32-2.05,20S255.76,545.56,255.76,545.56Z"/><path class="cls-6" d="M259.49,544.63s17.7-28.88,29.9-38.64c14.78-11.82,13.76,2.89.07,20.11S259.49,544.63,259.49,544.63Z"/><path class="cls-7" d="M205.49,555.58c2.38,16.07,12.36,29.12,12.36,29.12,18.61-3.21,54.56-27.39,73.23-48.85s25.47-29.21,16.08-27.59c-13.18,2.28-38.59,20.11-50.73,28.94,0,0-28.56,2.61-50.94,18.38"/><path class="cls-1" d="M219.75,584.4S87.64,664.25,37.67,662.83-8.28,582.5,24.8,593.54s180.69-38,180.69-38S217.5,568.05,219.75,584.4Z"/><path class="cls-6" d="M236.28,428.61s-1,22.22-9,33.91-9.62-5.44-9.57-16.72C217.75,436.68,236.28,428.61,236.28,428.61Z"/><path class="cls-6" d="M200.76,452.32s-16.49,41.6-25.28,54.2c-10.64,15.25-13.76,1.09-5.65-18.94S200.76,452.32,200.76,452.32Z"/><path class="cls-6" d="M197.71,454.56s-5.22,32.87-12.63,46.32c-9,16.28-13.58,2.54-7.62-18.24S197.71,454.56,197.71,454.56Z"/><path class="cls-7" d="M242.64,424.34c-8.2-13.7-22.17-21.8-22.17-21.8-15.69,9.9-39.25,45.37-48.13,71.86s-12.16,36.08-4.25,31.09c11.11-7,27.49-32.76,35.2-45.33,0,0,25-13.1,39.35-35.82"/><path class="cls-1" d="M218.86,403.53S309.17,281.88,355.08,264.4s71.55,55.2,37.36,57.6-149.8,102.34-149.8,102.34S227.05,417.53,218.86,403.53Z"/></g></g></svg>