<svg xmlns="http://www.w3.org/2000/svg" viewBox="0 0 407.65 869.78"><defs><style>.cls-1{fill:#fbc0a4;}.cls-2{fill:#f95850;}.cls-3{fill:#fd7064;}.cls-4{fill:#282523;}.cls-5{fill:#c69200;}.cls-6{fill:#ffcfca;}.cls-7{fill:#f9bfbb;}.cls-8{fill:#1f3c49;}.cls-9{fill:#ea5353;}.cls-10{fill:#ff948f;}.cls-11{fill:#fff;}</style></defs><g id="Capa_2" data-name="Capa 2"><g id="Información"><path class="cls-1" d="M117.47,67.81c-.93.16-8.82-5.57-9.93-6.23-3.5-2.08-7.81-4.23-10.78-6.8a7.72,7.72,0,0,1-2.59-8.17c.61-2,2.07-4,3.18-6,3-5.28,2.58-9.35,1.44-14-1.26-5.1-.64-11-.34-16.53.14-2.61.88-5.94,3.72-7.26a4.68,4.68,0,0,1,5.75,1.52c1.42,2,1.62,4.61,2.47,6.91s2.78,4.42,5.73,4.12c3.4-.34,7-3.81,10-3.12s2.52,4.9,4.22,7.19c2,2.67,6.67,2.36,9.84,3.88,3,1.43,4.49,4.49,4.82,7.76.18,1.74-.94,32.19-1.21,32.23Z"/><path class="cls-1" d="M117.47,67.81c-.13-6.36,5.69-12.94,13-14.71s13.37,2,13.51,8.32-5.7,13-13,14.72S117.6,74.18,117.47,67.81Z"/><path class="cls-2" d="M108.54,70.49c.43,5.23,2.54,10,5.12,14.26a9.73,9.73,0,0,0,2.82,3.33c3.38,2.21,9.63-.75,13.76-2.44A83.93,83.93,0,0,0,144.7,78a10.6,10.6,0,0,0,3.83-3.65c.93-1.86.32-3.69-.31-5.31l-4.35-11.22a6.2,6.2,0,0,0-2.08-3.19,8.12,8.12,0,0,0-4.59-.79,62.74,62.74,0,0,0-22,4.88,13.49,13.49,0,0,0-4.33,2.55,9.17,9.17,0,0,0-2.43,6.38A25,25,0,0,0,108.54,70.49Z"/><path class="cls-3" d="M139.05,55.21a.42.42,0,0,1,.26.12A9.29,9.29,0,0,1,141,58.08l.14.32a38.61,38.61,0,0,0,3.46,5.85.54.54,0,0,1-.23.72.56.56,0,0,1-.77,0,38.26,38.26,0,0,1-3.52-6l-.15-.31a8.77,8.77,0,0,0-1.57-2.56.49.49,0,0,1,.13-.72A.7.7,0,0,1,139.05,55.21Z"/><path class="cls-3" d="M134.56,55.83a.41.41,0,0,1,.31.17,17.89,17.89,0,0,1,1.25,2.52,31.85,31.85,0,0,1,2.23,6.26,1.48,1.48,0,0,1-.43,1.53.56.56,0,0,1-.71.06c-.2-.14-.16-.47,0-.7,0,0,.07-.1,0-.47a32.62,32.62,0,0,0-2.18-6.11,19.51,19.51,0,0,0-1.21-2.42.55.55,0,0,1,.26-.72A.66.66,0,0,1,134.56,55.83Z"/><path class="cls-3" d="M129.36,56.67a.39.39,0,0,1,.35.28,20.26,20.26,0,0,0,2.64,6c.21.33.43.65.66,1a13.36,13.36,0,0,1,1.89,3.44.63.63,0,0,1-.4.7c-.31.14-.62,0-.7-.2A12.24,12.24,0,0,0,132,64.6l-.67-1a21.15,21.15,0,0,1-2.73-6.2.64.64,0,0,1,.43-.69A.65.65,0,0,1,129.36,56.67Z"/><path class="cls-3" d="M124.13,57.18a.41.41,0,0,1,.34.23A71.85,71.85,0,0,0,130.54,69a.56.56,0,0,1-.26.72.55.55,0,0,1-.76-.06A73.13,73.13,0,0,1,123.39,58a.6.6,0,0,1,.36-.71A.67.67,0,0,1,124.13,57.18Z"/><path class="cls-3" d="M119.22,59.29a.39.39,0,0,1,.34.24,34.15,34.15,0,0,0,6.59,10.56.5.5,0,0,1-.15.72.6.6,0,0,1-.79,0,34.77,34.77,0,0,1-6.73-10.78.61.61,0,0,1,.37-.7A.66.66,0,0,1,119.22,59.29Z"/><path class="cls-3" d="M113.94,61.16a.38.38,0,0,1,.28.14,16.93,16.93,0,0,1,2.32,4.2l.6,1.36a26.18,26.18,0,0,0,4.28,6.44.51.51,0,0,1-.17.72.57.57,0,0,1-.78,0,26.33,26.33,0,0,1-4.39-6.61c-.21-.45-.41-.91-.61-1.37a16.19,16.19,0,0,0-2.22-4,.53.53,0,0,1,.19-.72A.7.7,0,0,1,113.94,61.16Z"/><path class="cls-3" d="M110.57,68.19a.43.43,0,0,1,.32.19L116.08,77a.57.57,0,0,1-.27.72.54.54,0,0,1-.76-.07L109.86,69a.55.55,0,0,1,.27-.72A.69.69,0,0,1,110.57,68.19Z"/><path class="cls-3" d="M161.18,152.9a23.31,23.31,0,0,1,8.45,2.11,17.44,17.44,0,0,1,10.2,13.82c.82,6.2-1.25,12.94-5.84,19-7.18,9.47-19.34,15.35-30.26,14.63a23.21,23.21,0,0,1-8.45-2.11,17.4,17.4,0,0,1-10.2-13.81c-.83-6.2,1.24-12.95,5.84-19C138.1,158.06,150.26,152.18,161.18,152.9Z"/><path class="cls-3" d="M156.54,79.43c10.63,13.66,21.88,84,22.94,87.57l.5,5.08-54,19.07-.62-3c-.12-.56-2.91-14-3.84-38.57-.24-6.22-16.44-49.51-6.7-66.5,4.09-7.15,24.69-18.66,32.28-17C151.56,67.13,154.35,76.63,156.54,79.43Z"/><path class="cls-3" d="M142.05,285a44.58,44.58,0,0,1,6.43-10c5.82-6.81,13.09-11.1,20.48-12.07a20.25,20.25,0,0,1,18.66,6.92c7.27,8.49,8.1,22.89,2.06,35.82a44.35,44.35,0,0,1-6.43,10c-12,14.06-29.56,16.37-39.15,5.16C136.84,312.27,136,297.88,142.05,285Z"/><path class="cls-3" d="M178.6,163.56l1.24,3.85c.7,3.48,17,85.61,11.86,122.6l-.43,3.14-50.35,10.47-9.51-12.85c2.16-41.62-4.9-95.07-5.92-103.31l-.36-2.86Z"/><path class="cls-3" d="M139,159.72c8.7-6.29,19.41-8.58,28-6,13,3.95,17.14,17.83,9.26,30.94a36.38,36.38,0,0,1-9.88,10.63c-8.69,6.29-19.41,8.58-28,6-6.29-1.92-10.72-6.19-12.47-12s-.61-12.56,3.21-18.91A36.6,36.6,0,0,1,139,159.72Z"/><polygon class="cls-2" points="150.18 279.47 150.2 273.46 151.04 273.52 150.18 279.47"/><path class="cls-2" d="M150.2,262.07c0-3.8-.09-7.59-.07-11.38l3.17.1c-.28,3.8-.65,7.59-1,11.38Z"/><polygon class="cls-2" points="149.99 239.31 149.79 227.95 154.46 227.97 154.02 239.39 149.99 239.31"/><polygon class="cls-2" points="149.48 216.6 149.08 205.26 154.65 205.11 154.68 216.54 149.48 216.6"/><polygon class="cls-2" points="148.56 193.93 147.92 182.61 153.84 182.25 154.37 193.68 148.56 193.93"/><polygon class="cls-2" points="147.1 171.3 146.15 160.01 151.97 159.43 153.06 170.83 147.1 171.3"/><polygon class="cls-2" points="145.02 148.74 143.67 137.5 148.83 136.72 150.56 148.05 145.02 148.74"/><polygon class="cls-2" points="142.1 126.28 140.24 115.11 144.21 114.26 146.72 125.45 142.1 126.28"/><path class="cls-2" d="M138.1,104c-.87-3.68-1.66-7.38-2.5-11.07l2.05-.62c1.18,3.63,2.41,7.25,3.55,10.91Z"/><polygon class="cls-2" points="132.68 81.9 130.97 76.14 133.48 81.61 132.68 81.9"/><rect class="cls-4" x="31.63" y="603.42" width="220.24" height="265.38"/><path class="cls-5" d="M152.38,224.31c-2.8,18.28-6,36.44-7.15,54.8-1.12,17.38-2.11,34.77-4,52.11-20.81,1.49-41.67,2.07-62.6,2.15S65,363.76,44.91,359.74C34.27,357.6,7.35,357.84.16,310.58c-1.87-12.33,13-44,16.34-55.67,7.3-25.38,8.37-50.45,7.68-76.2-.39-14.64,3.89-30.31,17-42.31s36.8-19.86,58.92-15.59a67.41,67.41,0,0,1,33.53,16.88,59.19,59.19,0,0,1,9.68,12c.69,1.12,1.34,2.26,2,3.41a71.73,71.73,0,0,1,4.72,11,91,91,0,0,1,4,17.5C155.79,195.78,154.54,210.16,152.38,224.31Z"/><path class="cls-6" d="M135.32,280.28c-2.69,2.49-6.3,3.64-9.79,4.72a89.55,89.55,0,0,1-12.76,3.3c-8.48,1.33-16.7-.14-25.2-1.23-.83-4.88-1.67-9.75-2.49-14.63-1-6.09-2.08-12.2-3.72-18.17-.51-1.82-1.06-3.64-1.66-5.43-1.48-4.48-3.21-8.87-4.93-13.28l-4.26-10.84A29,29,0,0,0,78.3,228c12.38,3.94,24.9,7.41,37.47,10.71a55.47,55.47,0,0,0,11.51,2.15l4.33,21.23Z"/><path class="cls-7" d="M131.61,262.09A132.89,132.89,0,0,1,92,253.88c-4-1.52-8.22-3.17-12.27-5-1.48-4.48-3.21-8.87-4.93-13.28l-4.26-10.84A29,29,0,0,0,78.3,228c12.38,3.94,24.9,7.41,37.47,10.71a55.47,55.47,0,0,0,11.51,2.15Z"/><path class="cls-6" d="M149.25,225.87c-1.46,7.49-4.15,14.58-9.79,19.92a34.57,34.57,0,0,1-18.35,8.9,43.91,43.91,0,0,1-22.36-2.76,55.53,55.53,0,0,1-10.17-5.16,78.06,78.06,0,0,1-15-12.87,96.93,96.93,0,0,1-18.08-27.41c-4.88-11.47-7-23.94-4.4-36.39a46.75,46.75,0,0,1,5.6-14.41,44,44,0,0,1,55.26-17.53A55.8,55.8,0,0,1,136.78,161a103.23,103.23,0,0,1,5,9.64C149.54,187.77,152.85,207.4,149.25,225.87Z"/><path class="cls-5" d="M45.53,207.31c17.24-3.1,31.47-15.37,39.29-30s10-31.33,9.72-47.65c-11-.19-21.57,3.41-30.58,9.23-6.86,4.43-13.38,9.61-17.75,16.23-5.16,7.81-7,17.23-6.64,26.38S42.5,198.59,45.53,207.31Z"/><path class="cls-5" d="M102.18,139.83c2.4-1.19,4.8-2.92,5.53-5.5.87-3.09-1.07-6.44-3.83-8.08s-6.11-1.87-9.31-1.71c-3.92.2-7.93,1-11.17,3.19-4.24,2.91-8,11-2,14.12S96.61,142.61,102.18,139.83Z"/><path class="cls-5" d="M145.27,169.11c-11,.2-21.9-3.68-31.17-9.6-9.87-6.3-18.09-14.82-25.57-23.77l-2.63-3.2c12.16-3.95,25.22.4,35.41,8,8.49,6.37,15.27,15.12,22,23.5C144,165.73,144.66,167.42,145.27,169.11Z"/><path class="cls-6" d="M184.63,406.41a284.37,284.37,0,0,1-7.84,28.69,454.66,454.66,0,0,1-21.41,52.46c-.82,1.76-1.66,3.5-2.5,5.25L150.76,494l-32.61,18.77c-8.05,4.64-16.15,9.29-24.88,12.41-14.08,5-28,3.57-42.37.57.59,0,3.92-37.68,4.07-40.7q.24-4.81.34-9.65a201.35,201.35,0,0,0-1.78-33c-.41-2.75-.88-5.48-1.45-8.2-3.15-15.73-1.32-31.12-6.36-46.34-5.46-16.48-13.13-55.48-12.15-58,1.49-3.82,4.21-19.13,7.58-20.73,21.42-10.16,36.86-3.84,60.25-8a190.55,190.55,0,0,1,35.12-3c10.08.1,23.24-.51,31.31,6.6s13.11,17.11,15.79,27.42c2.38,9.15,3,18.66,3.28,28.11A310.24,310.24,0,0,1,184.63,406.41Z"/><path class="cls-6" d="M390,814.87a21.58,21.58,0,0,1-6.91-3.62,72.64,72.64,0,0,1-9.43-9c-3.33-3.6-6.55-7.2-9.76-10.81-3.43-3.81-6.85-7.64-10.37-11.46a47.54,47.54,0,0,0-.31-15.83c10.08-.71,20.6-1.18,30.55.6l.67,5.36Z"/><path class="cls-2" d="M401.09,864.45a5.13,5.13,0,0,1-.85,1.92c-3.18,4.52-8,2.06-11.32-.86-5.27-4.64-9.5-10.73-13.89-16.17-12.58-15.57-24.36-31.74-36.15-47.9-1.89-2.56-3.8-5.22-4.62-8.31a13,13,0,0,1,.25-7.4,10.09,10.09,0,0,1,2.33-3.92,12,12,0,0,1,4.17-2.58c1-.38,2-.7,2.94-1,3.74-1.18,6.25-2.34,10-3.52,10,12.34,22.19,22.79,35.07,32.08.36,1.67.72,3.36,1.07,5q3.15,14.52,6.26,29c.38,1.78.77,3.55,1.14,5.32.67,3.1,1.34,6.19,2,9.3C400.1,858.24,401.74,861.55,401.09,864.45Z"/><path class="cls-2" d="M405.76,625.66c-.43,4.1-.86,8.13-1.25,12-2.75,28-7.52,56.2-10.46,83.86-1,9.23-2.3,18.53-2.77,27.79-.14,2.92.32,7.07,0,10.84-.21,2.68-.81,5.16-2.3,6.88-4.23,4.89-16.54,2.71-22.24,2.62s-16.83.87-20.16-4.93c-1.81-3.16-1.35-9.66-1.71-13.19-.91-9.14-1.38-18.32-2.32-27.45Q341,708.86,340,693.55s0,0,0,0q-.51-7.44-.89-14.89c-.11-2.28-.09-12.72-.24-25.13-.24-21.37-1-48.55-3.81-49.92a.44.44,0,0,0-.24-.07H113.56c27.91-4.77,55-14.75,80.7-26.4,30-13.59-78.57-87.59-47.37-77.44,42.93,14,143.56,26.8,143.56,26.8.29,0,29.31.94,44.36,1.8,14.44.82,29.11,2.77,42.14,9a54.71,54.71,0,0,1,11,7C411.17,563.21,408.79,596.31,405.76,625.66Z"/><path class="cls-6" d="M78.27,230a21.16,21.16,0,0,1-20.1,5.78,20.83,20.83,0,0,1-13.63-11.61A20.2,20.2,0,0,1,43.45,221a15.11,15.11,0,0,1-.35-5.87A13,13,0,0,1,52.49,205a15,15,0,0,1,13.59,3.46l4.69,8.29Z"/><path class="cls-6" d="M361.28,815.79a21.38,21.38,0,0,1-6.91-3.62,72.65,72.65,0,0,1-9.44-9c-3.32-3.6-6.54-7.2-9.76-10.81-3.42-3.82-6.84-7.65-10.37-11.47a47.28,47.28,0,0,0-.3-15.83c10.08-.71,20.6-1.17,30.55.6l.67,5.36Z"/><path class="cls-3" d="M372.41,865.37a5.22,5.22,0,0,1-.84,1.93c-3.18,4.51-8,2.06-11.33-.87-5.27-4.63-9.5-10.73-13.89-16.17-12.58-15.57-24.35-31.74-36.15-47.89-1.88-2.57-3.8-5.23-4.61-8.31a13,13,0,0,1,.24-7.41,10.41,10.41,0,0,1,2.33-3.92,11.76,11.76,0,0,1,4.18-2.57c1-.39,2-.71,2.93-1,3.75-1.17,6.25-2.34,10-3.52,10,12.34,22.18,22.79,35.06,32.08.36,1.68.73,3.36,1.08,5q3.13,14.53,6.25,29,.58,2.65,1.15,5.31c.67,3.11,1.34,6.2,2,9.3C371.42,859.16,373.06,862.48,372.41,865.37Z"/><path class="cls-3" d="M377.08,626.59c-.43,4.09-.86,8.12-1.24,12-2.75,28-7.52,56.19-10.47,83.86-1,9.22-2.3,18.52-2.76,27.79-.14,2.91.32,7.06,0,10.84-.21,2.67-.82,5.16-2.3,6.87-4.24,4.89-16.54,2.71-22.24,2.62s-16.83.87-20.16-4.93c-1.81-3.15-1.36-9.66-1.71-13.19-.91-9.14-1.39-18.31-2.32-27.45q-1.56-15.25-2.58-30.56a0,0,0,0,1,0,0q-.51-7.46-.89-14.89c-.11-2.28-.09-12.73-.23-25.14-.24-21.36-1-48.55-3.82-49.92a.41.41,0,0,0-.23-.07H84.89c27.91-4.76-19.23-49.42,6.44-61.08,30-13.59,16.58-15.94,45.49-31.47,2.39-1.29,0,7.43,124.89,15.51h.07l.85.05c15,.68,28.45.89,43.51,1.75,14.44.82,29.11,2.77,42.14,9a54.52,54.52,0,0,1,11,6.94C382.5,564.13,380.12,597.24,377.08,626.59Z"/><path class="cls-3" d="M313.94,599.76c-31.41,16.56-62.23,15.65-105.58,18.5-39.7,2.6-77.87,0-125-8.84-11.58-2.16-28.59-4.18-39.4-9.22-9.88-4.6-17-14.45-20.59-24.59a63.92,63.92,0,0,1-1.2-36.68c.2-.76.4-1.52.61-2.28a135.56,135.56,0,0,1,13.44-32.19,105.15,105.15,0,0,1,15.4-19.81c4-4,3.58-.41,8.81,0,19.91,1.56,72.24,1.11,94.94,2.91,9.82.77-6.1,27.69,3,30,43.72,11,105.78,10.31,149,9,19.36-.6,36.15,8.13,50.84,20.15C368.77,555.29,314.63,599.4,313.94,599.76Z"/><path class="cls-2" d="M168.9,433.14c-17.37,2.3-34.94,1.35-52.42.55q-16.8-.78-33.57-2.22-8.52-.74-17-1.64c-4.35-.46-9.78-1.47-13.93.4-8.86,4-7.06,21-6.5,28.83.5,6.95,4.85,9.82,10.75,11.69,30.28,9.61,62.89,8.64,94,2.21,4.69-1,11.3-1.17,14.13-5.8,4.49-7.33,7.25-17,10.1-25.14C176,437.48,174.3,432.43,168.9,433.14Z"/><path class="cls-3" d="M190.28,390.94c-.27,3.1-.81,6.16-1.24,9.23-.76,5.31-1.3,11.55-2.1,18-1.81,14.56-4.91,30.22-14.67,38.89-7.9,7-17,5.34-27.19,7.28q-3.18.6-6.38,1.06c-6,.36-12,.56-18,.53a202,202,0,0,1-41.62-4.34,132.55,132.55,0,0,1-31.54-11.46c-4.65-2.37-6.82-6-6.29-11.33.59-6.05,2.43-11.86,3.54-17.82a46.72,46.72,0,0,0,.87-8.39,128.92,128.92,0,0,0-4-33.05c-23.32-93.55,1.42-85,17-91.62a121.69,121.69,0,0,1,26-7.6l1.76-.3a134.92,134.92,0,0,1,32.11-1.26c17.91,1.4,22.73,2.69,40.43,8.17.16.05,7.41,5.22,7.58,5.28C171.29,293.66,194.14,346.17,190.28,390.94Z"/><path class="cls-2" d="M144.43,274.7c-.36-1-.76-2.05-1-3-1.14-4.05-.82-9.37-5.59-11.83-2.35-1.21-5.08-.74-7.67-.56-3,.21-6.07.52-9.12.7a120.72,120.72,0,0,1-19.2-.34c-3.25-.32-6.49-.77-9.7-1.35-2.89-.52-5.86-1.56-8.82-1.61-2.12,0-4.38.68-5.47,2.23a7,7,0,0,0-1,3.39c-.62,5.93-1.15,12,.28,17.82A8.53,8.53,0,0,0,79.85,285c3.59,2.82,11,3.18,15.53,3.76,15.11,1.93,31,1,44.55-5.25a12,12,0,0,0,4.32-2.92C145.79,278.75,145.13,276.74,144.43,274.7Z"/><path class="cls-3" d="M84.48,285.68a.55.55,0,0,1-.51-.37,78.49,78.49,0,0,1-2.56-26.1.51.51,0,0,1,.57-.44h0a.53.53,0,0,1,.52.51A77.92,77.92,0,0,0,85,285.11a.47.47,0,0,1-.42.56Z"/><path class="cls-3" d="M89.27,286.94h0a.51.51,0,0,1-.52-.5,69,69,0,0,0-.58-12l-1.39-13.15c0-.38-.12-.49-.18-.52a.44.44,0,0,1-.2-.65.6.6,0,0,1,.75-.16,1.44,1.44,0,0,1,.72,1.26l1.4,13.15a70.47,70.47,0,0,1,.58,12.17A.52.52,0,0,1,89.27,286.94Z"/><path class="cls-3" d="M95.09,287.64a.54.54,0,0,1-.53-.45c-.75-8.52-1.22-17.18-1.37-25.72a.5.5,0,0,1,.54-.47.53.53,0,0,1,.56.47c.15,8.52.62,17.16,1.37,25.67a.48.48,0,0,1-.51.49Z"/><path class="cls-3" d="M99.83,288.2a.51.51,0,0,1-.52-.47,203.15,203.15,0,0,0-1.73-25.46.48.48,0,0,1,.48-.51.55.55,0,0,1,.61.42,202.73,202.73,0,0,1,1.74,25.56.52.52,0,0,1-.55.47Z"/><path class="cls-3" d="M105.12,289.22h0a.5.5,0,0,1-.52-.49,76.56,76.56,0,0,0-.75-13.5l-.07-.52a30.28,30.28,0,0,1-.38-5.72c0-.66.12-1.32.21-2a15.1,15.1,0,0,0,.17-3.66.49.49,0,0,1,.49-.51.54.54,0,0,1,.6.43,15.54,15.54,0,0,1-.17,3.86c-.08.64-.16,1.28-.2,1.92a29.7,29.7,0,0,0,.37,5.57l.07.52a77.27,77.27,0,0,1,.76,13.64A.52.52,0,0,1,105.12,289.22Z"/><path class="cls-3" d="M109.57,288.45h0a.5.5,0,0,1-.5-.51,105.76,105.76,0,0,0-.69-24.37.49.49,0,0,1,.48-.52.53.53,0,0,1,.61.42,106.2,106.2,0,0,1,.69,24.55A.51.51,0,0,1,109.57,288.45Z"/><path class="cls-3" d="M115.57,287.76h0a.52.52,0,0,1-.51-.52,20.24,20.24,0,0,0-.5-5.63c-.16-.87-.32-1.77-.43-2.67a45.88,45.88,0,0,1-.22-6c0-3.27,0-6.64-1.15-9.74a.46.46,0,0,1,.35-.6.58.58,0,0,1,.69.31c1.25,3.26,1.23,6.71,1.21,10a46,46,0,0,0,.21,5.87c.11.87.27,1.76.43,2.62a21.3,21.3,0,0,1,.51,5.86A.53.53,0,0,1,115.57,287.76Z"/><path class="cls-3" d="M120.27,287a.53.53,0,0,1-.53-.48,190.27,190.27,0,0,0-1.3-23.84.49.49,0,0,1,.49-.51.53.53,0,0,1,.6.43,189.88,189.88,0,0,1,1.31,23.94.51.51,0,0,1-.55.46Z"/><path class="cls-3" d="M125.51,285.38a.53.53,0,0,1-.53-.49c.17-7.22.34-14.69-1.7-21.85a.47.47,0,0,1,.41-.57.57.57,0,0,1,.66.36c2.07,7.27,1.9,14.81,1.73,22.09a.51.51,0,0,1-.56.46Z"/><path class="cls-3" d="M130.21,285.79a.54.54,0,0,1-.53-.45l-1.79-22.69a.48.48,0,0,1,.51-.49.53.53,0,0,1,.58.44l1.8,22.69a.5.5,0,0,1-.51.5Z"/><path class="cls-3" d="M135.59,283.89a.54.54,0,0,1-.53-.46,159.29,159.29,0,0,0-2.32-21.19.47.47,0,0,1,.46-.53.54.54,0,0,1,.62.4,157.67,157.67,0,0,1,2.34,21.3.5.5,0,0,1-.53.48Z"/><path class="cls-3" d="M140.74,281.39h-.11a.48.48,0,0,1-.4-.58c.53-1.75.08-3.56-.4-5.47a27.4,27.4,0,0,1-.58-2.69c-.09-.73-.13-1.46-.16-2.16a19.46,19.46,0,0,0-.17-2.15,23.55,23.55,0,0,0-2.44-6.69.44.44,0,0,1,.29-.61.58.58,0,0,1,.72.26,24.22,24.22,0,0,1,2.53,6.94c.1.75.14,1.5.17,2.23s.06,1.39.16,2.08a24.25,24.25,0,0,0,.55,2.61c.49,1.93,1,3.93.4,5.9A.55.55,0,0,1,140.74,281.39Z"/><path class="cls-2" d="M105.14,308.74c-1.3.75-12.42,30.55-17.28,37.89-2.75,4.15-4.79,5.16-10.47,11.25C80.56,356.89,103,319.53,105.14,308.74Z"/><path class="cls-3" d="M46.38,460.47h0a.55.55,0,0,1-.48-.61l.78-6.24a.55.55,0,0,1,1.1.14L47,460A.54.54,0,0,1,46.38,460.47Z"/><path class="cls-3" d="M49.94,463.72h-.07a.55.55,0,0,1-.42-.65c.53-2.49,1-5,1.47-7.55a.56.56,0,0,1,.64-.45.54.54,0,0,1,.44.64c-.45,2.53-.94,5.08-1.47,7.59A.55.55,0,0,1,49.94,463.72Z"/><path class="cls-3" d="M54.25,465.64h-.07a.55.55,0,0,1-.42-.66,65.62,65.62,0,0,0,1.33-8.25.55.55,0,0,1,1.1.11,67.72,67.72,0,0,1-1.36,8.38A.55.55,0,0,1,54.25,465.64Z"/><path class="cls-3" d="M58,467.17l-.13,0a.55.55,0,0,1-.35-.69A65.6,65.6,0,0,0,59.7,458a.55.55,0,0,1,.65-.44.54.54,0,0,1,.43.64,67.33,67.33,0,0,1-2.23,8.62A.55.55,0,0,1,58,467.17Z"/><path class="cls-3" d="M62.76,468.4h-.08a.55.55,0,0,1-.41-.66l1.78-7.87a.55.55,0,0,1,.66-.41.56.56,0,0,1,.42.66L63.34,468A.54.54,0,0,1,62.76,468.4Z"/><path class="cls-3" d="M67.33,469.44h-.06a.56.56,0,0,1-.44-.65l1.54-8.21a.55.55,0,1,1,1.08.2L67.91,469A.54.54,0,0,1,67.33,469.44Z"/><path class="cls-3" d="M71.69,469.48h-.07a.56.56,0,0,1-.43-.65A68.47,68.47,0,0,1,73,462.06a.56.56,0,0,1,.7-.36.54.54,0,0,1,.35.69A66.26,66.26,0,0,0,72.27,469,.54.54,0,0,1,71.69,469.48Z"/><path class="cls-3" d="M76,471.64h-.07a.55.55,0,0,1-.43-.65l1.8-8.52a.56.56,0,0,1,.66-.42.55.55,0,0,1,.42.65l-1.8,8.52A.54.54,0,0,1,76,471.64Z"/><path class="cls-3" d="M79.88,472.39h-.07a.55.55,0,0,1-.42-.66c.6-2.6,1.17-5.25,1.7-7.86a.54.54,0,0,1,.65-.43.55.55,0,0,1,.43.65c-.53,2.62-1.11,5.27-1.7,7.89A.55.55,0,0,1,79.88,472.39Z"/><path class="cls-3" d="M84.17,472.42a.54.54,0,0,1-.5-.56,19.82,19.82,0,0,1,1.11-5.42l0-.18a8.42,8.42,0,0,0,.53-2.29.56.56,0,0,1,.58-.52.57.57,0,0,1,.52.57,9.59,9.59,0,0,1-.58,2.58l0,.18a18.37,18.37,0,0,0-1.06,5.11.54.54,0,0,1-.57.53Z"/><path class="cls-3" d="M88,473.32h0a.54.54,0,0,1-.46-.62c.41-2.74,1-5.48,1.64-8.17a.55.55,0,0,1,1.06.26c-.66,2.66-1.2,5.37-1.62,8.07A.55.55,0,0,1,88,473.32Z"/><path class="cls-3" d="M92.89,473.4l-.08,0a.54.54,0,0,1-.41-.66c.46-1.84.92-3.72,1.27-5.6a5.55,5.55,0,0,0,.11-2.13.55.55,0,1,1,1.07-.24,6.52,6.52,0,0,1-.09,2.57c-.36,1.91-.83,3.81-1.28,5.66A.57.57,0,0,1,92.89,473.4Z"/><path class="cls-3" d="M97.59,474.29h0a.55.55,0,0,1-.45-.63l1.16-6.9a8.58,8.58,0,0,0,.16-1.41.55.55,0,0,1,.56-.54.53.53,0,0,1,.54.55,10.06,10.06,0,0,1-.17,1.58l-1.16,6.9A.56.56,0,0,1,97.59,474.29Z"/><path class="cls-3" d="M101.86,473.84h0a.56.56,0,0,1-.49-.61c.31-2.66.74-5.34,1.3-8a.56.56,0,0,1,.66-.42.55.55,0,0,1,.42.65c-.55,2.58-1,5.23-1.28,7.85A.56.56,0,0,1,101.86,473.84Z"/><path class="cls-3" d="M106,474.6l-.1,0a.55.55,0,0,1-.39-.67,44,44,0,0,0,1.37-8.29.55.55,0,0,1,.59-.51.54.54,0,0,1,.51.59,46.15,46.15,0,0,1-1.4,8.49A.56.56,0,0,1,106,474.6Z"/><path class="cls-3" d="M110.1,474.86h0a.55.55,0,0,1-.5-.6l.78-7.79a.53.53,0,0,1,.6-.49.55.55,0,0,1,.49.6l-.77,7.79A.55.55,0,0,1,110.1,474.86Z"/><path class="cls-3" d="M114.3,474.16a.56.56,0,0,1-.5-.59l.48-8a.55.55,0,0,1,.58-.52.56.56,0,0,1,.52.58l-.48,8a.56.56,0,0,1-.58.52Z"/><path class="cls-3" d="M118,475.21h0a.54.54,0,0,1-.47-.61l1.18-8.9a.54.54,0,0,1,.62-.47.54.54,0,0,1,.47.61l-1.18,8.9A.56.56,0,0,1,118,475.21Z"/><path class="cls-3" d="M122.53,473.13h0a.55.55,0,0,1-.48-.61l.89-7.13a.59.59,0,0,1,.61-.48.56.56,0,0,1,.48.62l-.89,7.12A.54.54,0,0,1,122.53,473.13Z"/><path class="cls-3" d="M126.78,473.41h0a.57.57,0,0,1-.47-.63l1.19-8.08a.55.55,0,0,1,.63-.46.54.54,0,0,1,.46.62l-1.19,8.08A.54.54,0,0,1,126.78,473.41Z"/><path class="cls-3" d="M131.14,473.16a.57.57,0,0,1-.49-.38,1.31,1.31,0,0,1,0-.74l1.64-7a.53.53,0,0,1,.66-.41.55.55,0,0,1,.41.66l-1.64,7a.8.8,0,0,0,0,.15.52.52,0,0,1-.33.68A.44.44,0,0,1,131.14,473.16Z"/><path class="cls-3" d="M136.14,472.4a.54.54,0,0,1-.5-.59,54.46,54.46,0,0,1,1.21-7.83.55.55,0,0,1,.65-.42.55.55,0,0,1,.42.66,52.38,52.38,0,0,0-1.18,7.68.55.55,0,0,1-.6.5Z"/><path class="cls-3" d="M140.74,471.89h0a.55.55,0,0,1-.45-.63l1.28-8.07a.55.55,0,1,1,1.09.17l-1.29,8.07A.54.54,0,0,1,140.74,471.89Z"/><path class="cls-3" d="M145.11,471.85h0a.54.54,0,0,1-.47-.62l1.2-8.49a.53.53,0,0,1,.62-.47.56.56,0,0,1,.47.62l-1.2,8.49A.55.55,0,0,1,145.11,471.85Z"/><path class="cls-3" d="M149.46,470.93a.48.48,0,0,1-.23-.07.62.62,0,0,1-.28-.7l1.15-5.24a11.15,11.15,0,0,0,.36-2.68.55.55,0,1,1,1.1,0,12,12,0,0,1-.39,3l-1.1,5a.6.6,0,0,1-.16.61A.58.58,0,0,1,149.46,470.93Zm.56-.54Z"/><path class="cls-3" d="M154.12,470.82h0a.56.56,0,0,1-.49-.61,78.86,78.86,0,0,1,1.48-9,.54.54,0,0,1,.65-.42.55.55,0,0,1,.42.66,81.3,81.3,0,0,0-1.46,8.9A.55.55,0,0,1,154.12,470.82Z"/><path class="cls-3" d="M157.78,469.79l-.11,0a.54.54,0,0,1-.38-.65c.66-3,1.41-6,2.24-8.93a.55.55,0,0,1,1.06.3c-.77,2.75-1.48,5.55-2.11,8.33a.62.62,0,0,1,0,.27l-.12.33A.55.55,0,0,1,157.78,469.79Z"/><path class="cls-3" d="M162.89,466.82a.35.35,0,0,1-.17,0,.54.54,0,0,1-.29-.72c.9-2.18,1.71-4.44,2.41-6.7a.55.55,0,0,1,.68-.37.56.56,0,0,1,.37.69c-.7,2.3-1.53,4.59-2.45,6.81A.55.55,0,0,1,162.89,466.82Z"/><path class="cls-5" d="M88.86,186.66a1.22,1.22,0,0,1-1.19-2,11.93,11.93,0,0,1,11.42-3.94,1.22,1.22,0,0,1-.51,2.39,9.41,9.41,0,0,0-9,3.11A1.18,1.18,0,0,1,88.86,186.66Z"/><path class="cls-5" d="M121.3,181.25a1.21,1.21,0,0,1-1-.55,1.22,1.22,0,0,1,.35-1.69,11.1,11.1,0,0,1,11.14-.41,1.22,1.22,0,1,1-1.18,2.14,8.55,8.55,0,0,0-8.62.32A1.18,1.18,0,0,1,121.3,181.25Z"/><path class="cls-8" d="M114,205.89a3.82,3.82,0,0,1,3.48-1.06,4.59,4.59,0,0,1,3.33,6.29A3.84,3.84,0,0,1,118,213.4a5.19,5.19,0,0,0,1.47-2.74A4,4,0,0,0,119,208a3.93,3.93,0,0,0-1.93-1.82A5.17,5.17,0,0,0,114,205.89Z"/><path class="cls-9" d="M139.78,214l0,.12a21.23,21.23,0,0,1-2.39,15.06,22.37,22.37,0,0,1-33.57,6.05,21.13,21.13,0,0,1-7.22-11.91l0-.11Z"/><path class="cls-10" d="M137.42,229.14a22.37,22.37,0,0,1-33.57,6.05,52.24,52.24,0,0,1,5.06-2.83c6.6-3.25,14-5.32,21.32-4.66A37.39,37.39,0,0,1,137.42,229.14Z"/><path class="cls-11" d="M135.77,214.82c-1.08,9.58-26.89,15.7-34.54,7.36Z"/><path class="cls-8" d="M126,196.11a.61.61,0,0,1-.76-.6,5.91,5.91,0,0,1,3.26-5,8.36,8.36,0,0,1,5.86-.54.61.61,0,0,1-.29,1.18,7.17,7.17,0,0,0-5,.44,5,5,0,0,0-2.07,2l.11-.07a9.14,9.14,0,0,1,7-.87.61.61,0,0,1-.26,1.19c-1.39-.31-4-.64-6.08.71a4.21,4.21,0,0,0-1.4,1.26A.63.63,0,0,1,126,196.11Z"/><path class="cls-8" d="M102.3,199.58a.8.8,0,0,0,.32-.19.68.68,0,0,0,.09-.81,6.58,6.58,0,0,0-5.88-3.1,9.39,9.39,0,0,0-6,2.64.7.7,0,0,0,0,1,.69.69,0,0,0,1,0,8.09,8.09,0,0,1,5.15-2.28,5.8,5.8,0,0,1,3.13.86h-.15a10.24,10.24,0,0,0-7.34,2.94.68.68,0,0,0-.06,1,.67.67,0,0,0,1,.05c1.19-1.05,3.6-2.79,6.34-2.59a5,5,0,0,1,2.07.47A.67.67,0,0,0,102.3,199.58Z"/><rect class="cls-11" x="162.61" y="312.64" width="4.52" height="1.19" transform="translate(-187.77 282.57) rotate(-57.27)"/><rect class="cls-11" x="160.16" y="311.43" width="1.18" height="3.43" transform="matrix(0.98, -0.21, 0.21, 0.98, -62.71, 41.18)"/><rect class="cls-11" x="165.09" y="316.25" width="3.5" height="1.19" transform="translate(-63.36 42.56) rotate(-12.24)"/><path class="cls-11" d="M163,319.42a1.4,1.4,0,0,1-.91.64,1.36,1.36,0,0,1-1.09-.21,1.43,1.43,0,0,1-.64-.92,1.39,1.39,0,0,1,.2-1.11,1.32,1.32,0,0,1,.9-.63,1.36,1.36,0,0,1,1.11.19,1.47,1.47,0,0,1,.43,2m.27-3.14a2.67,2.67,0,0,0-2.09-.38,2.59,2.59,0,0,0-1.71,1.21,2.69,2.69,0,0,0-.38,2.1,2.81,2.81,0,0,0,3.28,2.14,2.78,2.78,0,0,0,2.11-3.31,2.76,2.76,0,0,0-1.21-1.76"/><path class="cls-11" d="M143.86,318.26a3.13,3.13,0,0,0-2.13,1.49,3.46,3.46,0,0,0,1,4.77,3.26,3.26,0,0,0,2.56.47,3.34,3.34,0,0,0,1.88-1.13,3.53,3.53,0,0,0,.79-2l-1.36.29a2.41,2.41,0,0,1-.55,1,2,2,0,0,1-1,.56,2.11,2.11,0,0,1-2.5-1.63,2,2,0,0,1,.28-1.6,2,2,0,0,1,1.32-.93,2.08,2.08,0,0,1,1.18.1,2.24,2.24,0,0,1,.92.7l1.36-.3a3.38,3.38,0,0,0-1.56-1.52,3.12,3.12,0,0,0-2.18-.26"/><path class="cls-11" d="M153.54,320.61l.22-.19.12.52a1.12,1.12,0,0,1-.16,1,1.45,1.45,0,0,1-.75.44.76.76,0,0,1-.5-.05.77.77,0,0,1-.11-1.12,1.72,1.72,0,0,1,.57-.31Zm-1.18-2.81a1.87,1.87,0,0,0-1.81,2.29l1.3-.28a.86.86,0,0,1,.08-.51.8.8,0,0,1,.63-.4,1.14,1.14,0,0,1,.66,0c.17,0,.26.18.32.39a.43.43,0,0,1-.21.46l-1,.38a3,3,0,0,0-1.05.58,1.49,1.49,0,0,0-.4,1.56,1.44,1.44,0,0,0,.67,1,1.71,1.71,0,0,0,1.14.14,2.61,2.61,0,0,0,1.55-.9l.12.53,1.29-.28-.83-3.81a1.35,1.35,0,0,0-.92-1.14,3,3,0,0,0-1.58,0"/><rect class="cls-11" x="148.44" y="317.2" width="1.32" height="6.91" transform="translate(-64.57 38.88) rotate(-12.24)"/><path class="cls-11" d="M157.58,316.86a2.2,2.2,0,0,0-.77.94l-.14-.66-1.23.25,1.12,5.19,1.28-.28-.53-2.48a1.85,1.85,0,0,1,0-.95,1.39,1.39,0,0,1,1-1l.4-.06-.29-1.32-.33.1Z"/><path class="cls-1" d="M100.32,74.35C99.48,74.05,94.68,64.2,94,63c-2.28-3.9-5.23-8.27-6.9-12.4-1.26-3.12-1.39-6.86.51-9.69,1.2-1.8,3.08-3.05,4.68-4.53,4.26-4,5.3-8.31,5.87-13.61.62-5.87,3.09-11.57,5.2-17.15C104.29,3,106-.07,108.88,0c2.3.06,3.93,2.28,4.38,4.46.55,2.73-.16,5.54-.19,8.33s.89,5.93,3.49,7.11c3,1.35,7.21-.4,9.58,1.84s.51,6.29,1.19,9.5c.79,3.73,4.88,5.77,7.07,8.92,2.07,3,2.33,6.87,1.52,10.39C135.5,52.43,124.44,83.12,124.2,83Z"/><path class="cls-1" d="M100.32,74.35a13.06,13.06,0,0,1,15.94-8.57A12.24,12.24,0,0,1,125,81.11,13,13,0,0,1,109,89.68,12.24,12.24,0,0,1,100.32,74.35Z"/><path class="cls-2" d="M91.84,72.61c-1.37,5.59-1.15,11.5-.39,17.21a14.07,14.07,0,0,0,1.3,4.84c2.14,4,8.43,4.07,12.5,4.4a60,60,0,0,0,14.84-.61,7.79,7.79,0,0,0,4.46-1.83c1.41-1.44,1.5-3.63,1.5-5.61q0-6.84,0-13.7a9,9,0,0,0-.71-4.31,8.55,8.55,0,0,0-3.64-3.12,50.24,50.24,0,0,0-20.29-6,9.56,9.56,0,0,0-4.52.44c-2.17.93-3.4,3.17-4.19,5.33C92.39,70.61,92.09,71.6,91.84,72.61Z"/><path class="cls-3" d="M122.84,72.26a.48.48,0,0,1,.18.24,13.42,13.42,0,0,1,.55,3.7l0,.39a54.43,54.43,0,0,0,1,7.74.54.54,0,0,1-.43.63.55.55,0,0,1-.65-.41,56.75,56.75,0,0,1-1-7.89l0-.4a12.49,12.49,0,0,0-.49-3.41.53.53,0,0,1,.35-.68A.55.55,0,0,1,122.84,72.26Z"/><path class="cls-3" d="M118.82,70.63a.5.5,0,0,1,.2.34,27,27,0,0,1,.24,3.21,46.58,46.58,0,0,1-.19,7.55,1.54,1.54,0,0,1-.88,1.35.51.51,0,0,1-.62-.29.58.58,0,0,1,.26-.71s.1-.07.15-.48a45.38,45.38,0,0,0,.18-7.37,26.28,26.28,0,0,0-.22-3.09.53.53,0,0,1,.46-.61A.52.52,0,0,1,118.82,70.63Z"/><path class="cls-3" d="M114.12,68.88a.55.55,0,0,1,.21.46,29.34,29.34,0,0,0,.25,7.49q.11.66.24,1.32a18.66,18.66,0,0,1,.46,4.49.55.55,0,0,1-.57.51.53.53,0,0,1-.52-.56,18.34,18.34,0,0,0-.46-4.24L113.49,77a30.86,30.86,0,0,1-.26-7.74.56.56,0,0,1,.89-.38Z"/><path class="cls-3" d="M109.51,66.78a.51.51,0,0,1,.21.41,105.49,105.49,0,0,0,1.31,15,.54.54,0,0,1-.46.61.55.55,0,0,1-.63-.44,105.87,105.87,0,0,1-1.32-15.09.55.55,0,0,1,.54-.55A.61.61,0,0,1,109.51,66.78Z"/><path class="cls-3" d="M104.64,66.49a.49.49,0,0,1,.21.41,49.46,49.46,0,0,0,2.09,14.15.53.53,0,0,1-.37.66.54.54,0,0,1-.68-.35,50.51,50.51,0,0,1-2.14-14.45.54.54,0,0,1,.55-.53A.51.51,0,0,1,104.64,66.49Z"/><path class="cls-3" d="M99.53,65.75a.51.51,0,0,1,.19.28,25,25,0,0,1,.58,5.48c0,.57,0,1.14.06,1.7A37.72,37.72,0,0,0,101.85,82a.52.52,0,0,1-.38.66.54.54,0,0,1-.68-.36,39.16,39.16,0,0,1-1.53-9c0-.57-.05-1.14-.06-1.72a24.24,24.24,0,0,0-.54-5.25.53.53,0,0,1,.4-.65A.56.56,0,0,1,99.53,65.75Z"/><path class="cls-3" d="M94.33,71.28a.51.51,0,0,1,.21.34l1.55,11.47a.55.55,0,0,1-1.09.15L93.45,71.77a.55.55,0,0,1,.88-.49Z"/><path class="cls-3" d="M109.21,183.66a25.8,25.8,0,0,1,6.48,6.41,24.81,24.81,0,0,1,4.08,19.3,25.88,25.88,0,0,1-11.28,16.57,27.52,27.52,0,0,1-30.57-.17,26.14,26.14,0,0,1-6.48-6.41,24.84,24.84,0,0,1-4.08-19.31,25.9,25.9,0,0,1,11.27-16.57A27.55,27.55,0,0,1,109.21,183.66Z"/><path class="cls-3" d="M129.66,105.9c4.5,19.37-9.31,97.27-9.58,101.43l-1.26,5.46-52.21-7.54.46-3.38c.08-.64,2.17-15.84,9.54-41.52,1.87-6.5,2.47-59.09,16.39-71.64,5.85-5.27,27.18-6.75,33.06-1.19C129.51,90.77,128.73,101.93,129.66,105.9Z"/><path class="cls-3" d="M54.82,298.89a31.67,31.67,0,0,1,10.77-.5A30.48,30.48,0,0,1,86,309.71a28.71,28.71,0,0,1,6,22c-1.75,12.37-11.4,22.55-24,25.32a31.94,31.94,0,0,1-10.77.51c-16.86-2.08-28.69-17-26.38-33.35C32.58,311.84,42.22,301.67,54.82,298.89Z"/><path class="cls-3" d="M120.47,203.35l-.22,4.57c-.57,3.92-14,96.41-30.63,131.83l-1.41,3L31.67,320.07l1.14-3C48.46,275.42,65.54,210.18,67.4,201.2l.65-3.11Z"/><path class="cls-3" d="M88.1,179.52a27.09,27.09,0,0,1,25.75,7.91,25.26,25.26,0,0,1-2.41,36.43,27.41,27.41,0,0,1-11.92,5.95,27.09,27.09,0,0,1-25.75-7.92,24.9,24.9,0,0,1-6.6-18.62,25.61,25.61,0,0,1,9-17.8A27.3,27.3,0,0,1,88.1,179.52Z"/><polygon class="cls-2" points="52.55 347.05 54.64 341.43 55.24 341.68 52.55 347.05"/><polygon class="cls-2" points="58.67 330.07 62.54 318.68 65.07 319.62 60.33 330.73 58.67 330.07"/><polygon class="cls-2" points="66.27 307.25 69.84 295.77 73.78 297.08 69.55 308.4 66.27 307.25"/><path class="cls-2" d="M73.31,284.27c1.11-3.85,2.17-7.71,3.31-11.55l4.91,1.47c-1.22,3.84-2.52,7.65-3.77,11.48Z"/><polygon class="cls-2" points="79.82 261.15 82.84 249.53 88.39 251 85.05 262.62 79.82 261.15"/><polygon class="cls-2" points="85.77 237.89 88.52 226.21 94.31 227.55 91.44 239.3 85.77 237.89"/><polygon class="cls-2" points="91.13 214.5 93.61 202.75 99.34 203.89 96.95 215.75 91.13 214.5"/><polygon class="cls-2" points="95.89 190.97 98.06 179.17 103.44 180.05 101.54 191.99 95.89 190.97"/><path class="cls-2" d="M100,167.33c.57-4,1.23-7.91,1.84-11.86l4.64.58c-.47,4-.89,8-1.4,12Z"/><polygon class="cls-2" points="103.53 143.57 105.04 131.65 108.52 131.96 107.68 144.02 103.53 143.57"/><polygon class="cls-2" points="106.37 119.7 107.53 107.72 109.33 107.81 109.08 119.89 106.37 119.7"/><polygon class="cls-2" points="108.56 95.67 109.03 89.68 109.22 95.69 108.56 95.67"/></g></g></svg>