<svg xmlns="http://www.w3.org/2000/svg" xmlns:xlink="http://www.w3.org/1999/xlink" viewBox="0 0 617.52 896.3"><defs><style>.cls-1{fill:#32324c;}.cls-2{fill:#202121;}.cls-3{fill:#2e3030;}.cls-4{fill:#ffaf82;}.cls-5{fill:#063547;}.cls-6{fill:url(#linear-gradient);}.cls-7{fill:url(#linear-gradient-2);}.cls-8{fill:red;}.cls-9{fill:#e50000;}.cls-10{fill:#f88968;}.cls-11{fill:#fff;}.cls-12{fill:#920e08;}.cls-13{fill:#f85c66;}.cls-14{stroke:#000;stroke-miterlimit:10;}</style><linearGradient id="linear-gradient" x1="-8047.77" y1="-14393.14" x2="-8029.75" y2="-14393.14" gradientTransform="translate(-13812.51 8498.58) rotate(90)" gradientUnits="userSpaceOnUse"><stop offset="0" stop-color="#339e8c"/><stop offset="1" stop-color="#226b7c"/></linearGradient><linearGradient id="linear-gradient-2" x1="-8036.57" y1="-14393.05" x2="-7946.53" y2="-14393.05" xlink:href="#linear-gradient"/></defs><g id="Capa_2" data-name="Capa 2"><g id="Información"><path d="M146,191.33c-.85,11.38,2.58,38,5.27,49A46.29,46.29,0,0,1,153,253.52c-.2,4.46-1.6,9-4.5,12.08,3.4-1.24,11.57-10.91,15-12.14"/><path d="M140,191.33c-.71,11.2.93,22.69,2.48,33.76.71,5.06,1.51,10.13,2.61,15.12,1.45,6.61,4.09,15.3-.84,21.14-4.49,5.32,1,12.29,7.27,9.43,5.9-2.7,9.14-9.48,15-12.14,7-3.21.93-13.55-6.05-10.36-5.91,2.69-9.15,9.48-15,12.14l7.27,9.42c10.44-12.37,4.63-27.34,2.3-41.5-2-12.06-3.81-24.76-3-37,.49-7.71-11.51-7.68-12,0Z"/><path class="cls-1" d="M182.51,507.21l9.26-4.24c2.87-1.31,3.79-5.67,2.16-8.21-1.91-2.95-5.15-3.55-8.21-2.15l-9.27,4.24c-2.86,1.31-3.78,5.67-2.15,8.21,1.91,2.95,5.15,3.55,8.21,2.15Z"/><path d="M142,339.51c-2.81,26.66-16.33,51.91-12.68,79.21,1.82,13.59,8.19,25.7,14.2,37.83,6.2,12.49,12.32,26.46,9.06,40.66-1.49,6.46,7.51,10.73,11,4.62a115.31,115.31,0,0,0,12.65-33.54l-11,1.43a45.6,45.6,0,0,1,2.68,31c-.93,3.63,1.82,7.77,5.79,7.6,7.3-.33,13.87-2.21,17.47-9.1,3.14-6,2.75-13.29,2.27-19.85-.62-8.48-1.86-16.73-5.13-24.63s-7.51-15.09-10.65-22.93a190.76,190.76,0,0,1-12-48.43c-2.05-17.46-.9-35.07-2.9-52.5-.54-4.73-6.39-8.46-10.24-4.24-7.29,8-3.9,18.37-.25,27.25,4.43,10.8,10.18,21.22,12.62,32.73,2.53,11.94.39,24.45,2.2,36.54.89,5.94,2.29,11.79,3.18,17.72a63.47,63.47,0,0,1,.76,9,34.47,34.47,0,0,1-.16,4.43c-.12,1.05-.67,1.83,0,1.72l7.38,4.19c-10.91-30.74-9.37-63.53-11.83-95.58-.45-5.94.4-15.22-6.42-17.79-6.63-2.5-11.16,4.05-12.49,9.65-1.84,7.76-1.68,15.89-1.68,23.81l0,27.11,11.19-3a41.54,41.54,0,0,1-.8-41.61l-11-4.62A175.38,175.38,0,0,0,139,387.44c-.81,6.62-3.52,17.42,2.47,22.44,6.52,5.45,14.68-2.16,19.2-6.78,5.1-5.24,10.09-12.42,6-19.82-3.63-6.64-11.64-9-18.53-6.49s-12,9.47-13.39,16.67c-1.35,7,.86,14.94,7.19,18.83s14.25,3.37,19.38-2c2.55-2.64,2.31-7.62-1.21-9.42a22.1,22.1,0,0,0-30.32,11.22c-3.39,7.81-3.46,32.14,11.38,24.94,8.48-4.11,18.89-21.37,10.19-29.59-4-3.83-10.67-3.27-14.73.19-4.48,3.81-5.85,10.12-4.18,15.66,3.48,11.57,19.52,14,27.69,6,10-9.72-.2-21.78-11.53-22.38-9.62-.51-25.31,8.38-19.4,20.09,5.6,11.11,24.3-.56,26.45-9,1.91-7.47-5.6-11-11.82-9.7a19.68,19.68,0,0,0-13.47,10.74c-3.44,7.34.06,13.84,7.82,15.66a18.91,18.91,0,0,0,18.05-5.83c3.13-3.45,1.3-10.86-4.24-10.24-6.26.7-12.06,2.84-16.61,7.37-4.4,4.37-5.95,10.64-.88,15.21,8.37,7.56,22.33,3.58,27.44-5.72,2.46-4.49-1.62-10.3-6.78-8.82-7.59,2.2-23.94,13.27-16.51,22.9,3.74,4.83,10.21,2.76,14.43-.13a26.05,26.05,0,0,0,10-13.74c1.77-5.36-4.43-8.87-8.82-6.77-7.58,3.63-21,20-7.49,25.17,10,3.82,20.2-6,23.27-14.6,1.19-3.35-2-8.1-5.79-7.6-8.85,1.18-19.5,10.46-14.17,20.26,4.26,7.83,18,5.53,17.47-4.13-.24-4.32-5-7.77-9-5.18a22.33,22.33,0,0,0-9.09,11.24c-1.55,3.9,2.32,7.35,5.79,7.6,5.35.39,9.8-2.28,12.64-6.71,3.79-5.92-4.55-11.74-9.43-7.27a19.84,19.84,0,0,0-6.13,10.62,6.17,6.17,0,0,0,4.19,7.38,12,12,0,0,0,12.57-3l-8.49-8.49c-4.63,4.95-12,15.87-2.59,20.26,7.55,3.5,15.32-3.66,19.4-9.28l-8.21,2.15a28.54,28.54,0,0,1,8.88,11.85c3.06,7.07,13.4,1,10.36-6.06a39.86,39.86,0,0,0-13.18-16.15c-2.76-2.09-6.49-.22-8.21,2.15-1.19,1.64-3.82,2.6-4.79,4-1.29.42-.76,1.05,1.6,1.91,1.14,2.06,2,2.38,2.54,1,.73-.4,2.13-2.76,2.69-3.36,5.28-5.64-2.88-13.84-8.49-8.49-.1.45-.4.42-.89-.09l4.19,7.38a9,9,0,0,1,3-5.32L157.61,449c-.64,1-1.06.85-2.27.76l5.79,7.59a8.52,8.52,0,0,1,3.57-4.07l-9-5.18,5.22-.79a3.32,3.32,0,0,1,1.11-1.81,4.7,4.7,0,0,1,2.37-1.53l-5.78-7.59a9.89,9.89,0,0,1-2.75,4.11c-1.31,1.16-3.18,1.3-4.4,2.27q-3.15.11,2.24,2.6a11.55,11.55,0,0,1,1.74-2.52,15,15,0,0,1,5-3.48l-8.82-6.78a13.23,13.23,0,0,1-2.9,5.08,11.78,11.78,0,0,1-2.24,1.92c-1.72.56-1.72,1,0,1.24l2.76,3.58c.52,1.36-.8,1.74.74-.38a14.5,14.5,0,0,1,2.37-2.58,15.84,15.84,0,0,1,6.09-3.12l-6.77-8.82a6.42,6.42,0,0,1-3.19,3.1c-1.85.81-3,.07-4.73.34-1.22.19-1.3-2.09-.9,1,.36,2.82,1,.52,2.24-.45a14.09,14.09,0,0,1,7-2.82l-4.24-10.25a7.25,7.25,0,0,1-5.27,2.77,3.74,3.74,0,0,1-1.76-.2q-1.89-.76.17,2s1.33-2.36,1.48-2.53a7.72,7.72,0,0,1,2.36-1.8c2.29-1.12,2.51.49.77-3.45-1.93-4.36-1-2.45-2.89-.6a9.46,9.46,0,0,1-3.43,2.12,17.52,17.52,0,0,0-2.62.49q2.79,5.44,3.88,2.81a2,2,0,0,1,.7-.92,13.08,13.08,0,0,1,4.93-2.12c1.42-.2,4.34-.23,5.45.93,1,1,.85-.15.13.94-.48.71-1.92,1-2.67,1.13-1.64.29-3.86,0-4.82-1.58s.4-2.41.2-3.53c-.68-3.85-1.55-1.82-2.09-.81-.63,1.19-.71,3-1.31,4.25-.39.85-4.67,5.32-4.64,5.73l4,2.41a17,17,0,0,1-.55-2.21,17.55,17.55,0,0,1-.28-3.69,14.67,14.67,0,0,1,1.91-7c2.52-4.21,8-6.57,12.6-4.23l-1.21-9.42a3.72,3.72,0,0,1-5.5-.58c-1.88-2.34-1-6.26.26-8.66,1.08-2.07,4.3-6,7.17-4.77,3.4,1.44-1.31,5.42-2.63,6.76a37.57,37.57,0,0,1-3.67,3.35c-.91.69-1.86,1.33-2.83,1.94,3,2.55,4.39,2.8,4.21.73.51-1,.26-4.5.35-5.66q.28-3.78.76-7.53a163,163,0,0,1,5.75-26.1c2-6.49-7.66-10.58-11-4.62a53.83,53.83,0,0,0,.79,53.71c3,5.07,11.19,3,11.18-3,0-13.91-1-28.17.35-42a46,46,0,0,1,.69-4.81c.17-.91.38-1.81.62-2.7L153.57,356c-.85,1,.72,8,.83,9.5.5,6.69.82,13.4,1.13,20.1,1.2,26.19,2.21,52.82,11.06,77.76a6.21,6.21,0,0,0,7.38,4.19c11.42-1.94,9.29-19.27,8.19-27.28-.9-6.54-2.43-13-3.43-19.49s-.86-13-.83-19.53c.07-12.69-2.56-23.93-7.51-35.57-2.37-5.57-5-11-7.27-16.66-1.3-3.27-5.16-10.71-2.19-14l-10.24-4.25c1.76,15.36.83,30.88,2.25,46.28a220.12,220.12,0,0,0,8.41,44.43,182,182,0,0,0,7.73,20.58c2.94,6.61,6.81,12.89,9.17,19.75,2.47,7.2,3.21,14.91,3.46,22.48a23.23,23.23,0,0,1-.64,7.8c-1.19,3.68-3.73,3.95-7.4,4.12l5.79,7.59a58.76,58.76,0,0,0-3.9-40.2c-2.16-4.61-10-3.45-11,1.43a104.33,104.33,0,0,1-11.45,30.67l11,4.63c3.26-14.17-.32-28-6.05-41-5.64-12.85-13.48-24.89-16.37-38.79-2.78-13.38.1-27.15,3.4-40.15,3.45-13.58,7.39-27,8.87-40.95.8-7.67-11.2-7.61-12,0Z"/><path class="cls-2" d="M289.27,891.82c-63.27-147.62-26.57-176-26.57-176,34.92-16,89.55-34.12,89.55-34.12,18.58,105.52,14.43,209,14.43,209Z"/><path class="cls-3" d="M154.1,896.3s-14.76-60.67,8-193.69l114,13.22s-12.81,31.41-34.75,175.53Z"/><path class="cls-3" d="M166.26,667.81c-4.52,23.9-8.47,63.83,3.59,104,0,0,84.17,20.91,143.37-26.1,38.73-30.76,40.55-66.76,40.09-77.88Z"/><path class="cls-4" d="M319.66,251.25S369.42,362.46,371,446.38a444.5,444.5,0,0,1,53.83,22.2c27.17,13.54,112.51,33,112.51,33l-9.47,31.82s-128.79-11.15-190-45.82C337.83,487.56,289.9,356.66,319.66,251.25Z"/><path class="cls-4" d="M531,501.09s16.21-18.09,29.78-18,51.82-18.76,54.56,4.85c1.14,9.8-9,40.83-48.93,50.06-25.43,5.87-40.6-4.79-40.6-4.79Z"/><polygon class="cls-5" points="547.52 440.1 554.8 454.19 564.51 447.86 555.32 436.71 547.52 440.1"/><path class="cls-5" d="M580.13,485.31c-11.74-.19-21.6-7.43-25-17.34a19.6,19.6,0,0,1-.79-2.87,23.21,23.21,0,0,1,.28-10.61c2.87-11,13.6-19.09,26.28-18.89.23,0,.47,0,.7,0,12.3.47,22.41,8.73,24.93,19.55a22.86,22.86,0,0,1,.62,5.7,23.11,23.11,0,0,1-.61,4.94,21.29,21.29,0,0,1-.91,2.94,25.76,25.76,0,0,1-16,15.07A28,28,0,0,1,580.13,485.31Z"/><path class="cls-6" d="M609.91,468.83l-4.26-.07-18.51-.29-32-.5-4-.06-1.1-2.93a8.18,8.18,0,0,1,4.57-10.49,4.45,4.45,0,0,1,.51-.19c5.52-1.83,14-3.66,25.67-3.49l.93,0a76.56,76.56,0,0,1,24.61,4.27.84.84,0,0,1,.19.07,8.18,8.18,0,0,1,4.55,10.76Z"/><path class="cls-7" d="M602.53,552.05l-20.14-.33-26.46-.41-4.76-83.4c0-1,1.17-2,3.19-2.81,4.86-2,14.81-3.26,26.28-3.08,1.5,0,3,.07,4.42.15,9.36.45,17.27,1.84,21.5,3.65,2.16.91,3.37,1.94,3.35,3L602.53,552Z"/><path class="cls-5" d="M579.13,558c-12.87-.2-23.25-3.21-23.2-6.71.05-3.29,9.36-5.86,21.19-6h2.21c12.84.21,23.2,3.21,23.2,6.69v0c0,2.89-7.16,5.21-16.86,5.83C583.59,558,581.4,558.06,579.13,558Z"/><path class="cls-4" d="M558,473.78s10.14.14,12.35,8.52-7.48,6.3-13.68,5.26-11.26,1.61-11.94,2.68C542.6,493.67,540.23,473.73,558,473.78Z"/><path class="cls-4" d="M582,518.43c-.1-8.11,17.17-11.33,28.77-15.46,7.73-2.75,6.16,8.14-.1,11.8S582.08,523.61,582,518.43Z"/><path class="cls-4" d="M579.23,510.26c0-9.15,19.44-13.1,32.51-18,8.7-3.26,6.74,9.05-.34,13.3S579.21,516.1,579.23,510.26Z"/><path class="cls-4" d="M577.49,498.78c-.3-9.42,16.19-12,29.68-16.57,9-3,11.05,8.85,3.8,13S577.68,504.8,577.49,498.78Z"/><path class="cls-4" d="M585.44,523.24c1.91-6.09,13.06-7.35,22.81-8.37,6.49-.67,5.29,9.15-.32,10.77S584.23,527.13,585.44,523.24Z"/><path class="cls-8" d="M366.79,666.54c-103.2,52.56-206.33,8.79-206.33,8.79C174.63,585.54,191.79,467,191.79,467c-28.4-54.33-46.48-202.31-46.48-202.31,16.6-5.46,24.46-7.82,43.5-12.84,5.38-1.42,10.32-2.62,14.54-3.59,8.64-2,14.23-3,14.23-3,26-3.54,53.12-1.65,72.84.91l.4.05c17.3,2.26,28.84,5,28.84,5s7.93,59.86,25,90.15,4,48.6,0,61.8a46.6,46.6,0,0,0-1.5,9.9c-1.13,16.54-2.54,94.37-2.54,94.37Z"/><path class="cls-4" d="M270.42,303.26c-28.32.87-53.69-30.92-67.07-55,8.64-2,14.23-3,14.23-3,26-3.54,53.12-1.65,72.84.91l.4.05C294.27,270.44,300.24,302.33,270.42,303.26Z"/><path class="cls-9" d="M344.69,403.2a45.87,45.87,0,0,0-1.5,9.9c-50,25.72-101.87,11-101.87,11C308.65,423,344.69,403.2,344.69,403.2Z"/><path class="cls-4" d="M11.7,160.09c0,.52.08,1,.14,1.57v0c.06.66.13,1.35.22,2,.17,1.6.39,3.23.67,4.87h0c2.13,13.29,4.64,22.52,13.12,32.06,0,0,23,2.3,27.68-2.27,0,0,9.73-14.77,13.81-25.34,0,0,6.27-13,4.33-18.62s-7.77-6.83-7.77-6.83,8.51-36.79,3.28-47.73S57.84,116,52.57,136c0-1.36.58-5.49-6.17-8.51-5.51-2.45-8.35,8.87-8.35,8.87s-5.13-11.29-9.72-9.83c-5,1.6-4.78,14.18-4.77,14.68-.25-.35-4.42-6.08-9.5-2.14C11.85,140.73,10.83,149.27,11.7,160.09Z"/><path class="cls-10" d="M42.19,167.19s-11.66,5.31-9.27,23.95c0,0-7.6-15.79,10.38-28A3.93,3.93,0,0,1,42.19,167.19Z"/><path class="cls-10" d="M11.7,160.09c0,.52.08,1,.14,1.57v0c.06.66.13,1.35.22,2a10.35,10.35,0,0,0,6.45,5.38c8.19,2.69,8.43-6.32,8.43-6.32s3.16,3.3,6.54,3,5.32-6,5.32-6a6.93,6.93,0,0,0,7.33,5.2c6-.39,6.87-12.74,4.31-16.85,0,.44.55,10.89-3.64,13.36s-8.49-4.22-9.22-9.38c0,.64.54,9.52-4.52,10.8s-7.84-7.21-8.14-8.12c.13.83,1.14,7.82-2.22,10.37C19.55,167.57,14.1,164.12,11.7,160.09Z"/><path class="cls-10" d="M62.83,170.94s-7.82,6.62-15.75,3.54-2.42-10.51,1.53-13.2c0,0-5.42,1.65-7.1,5.47S39.57,178,49,178.31,62.83,170.94,62.83,170.94Z"/><path class="cls-4" d="M41.72,324.52C72,304.93,93.8,293,145.31,264.67c11.82,15.56,17.7,44.94,8.8,69.25-28.36,12.26-139.2,59.37-151,35.38-10.87-22.14,9-118.71,24-174.29,13.22,1.76,13.69,2.55,26.45,1.44C53.53,196.45,54.39,304.14,41.72,324.52Z"/><path d="M295.22,247.12a41.37,41.37,0,0,0,36.39-45.3c-4.81-49.66,2.05-89.87-3.76-120.28C323.57,59.16,314.4,23.7,276.92,8.05c-54.39-22.71-101.41,5.07-121.08,52.8C148.73,78.12,145.44,89,141,122.65c-3.2,24.29-.14,43.6-.57,59.89a62,62,0,0,0,53.66,63.14C226.84,250.08,264.88,250.5,295.22,247.12Z"/><path class="cls-10" d="M300.26,120.67s16-18.25,29-2.4c11.46,14,4.32,50.85-23.62,49.82Z"/><path class="cls-11" d="M328.22,165.8a7.07,7.07,0,1,1-7.07-7.06A7.08,7.08,0,0,1,328.22,165.8Z"/><path class="cls-4" d="M277.07,261.16c-1.27,16.74-38.38,26.1-60-2.67l-2.78-36.82-2-27,68.22,13.23-2.72,42.56Z"/><path class="cls-10" d="M277.43,255.55c-23.23,0-49.39-15.29-62.51-25.75l-2.66-35.17,68.22,13.23Z"/><path class="cls-4" d="M247.45,226.58C180.81,211.33,168.71,124,168.71,124a96.85,96.85,0,0,1,.89-14.36,111.22,111.22,0,0,1,3.25-15.94c4.78-16.78,15-35.91,36.94-44.26.69-.27,1.39-.52,2.08-.77,36.34-12.88,89.47-6.86,105.63,41.26A78.07,78.07,0,0,1,320,99.22c.39,1.89.73,3.86,1,5.88C328.23,154.78,307.35,240.28,247.45,226.58Z"/><path class="cls-1" d="M234.19,137.35a8.57,8.57,0,0,1-9.68-7.27,8.32,8.32,0,0,1,.67-4.68c-7-.82-6.86-5.07-6.86-5.07,1.09,1.82,9.27.76,12.66.24h0c.41-.08.75-.13,1-.17h.05a2.69,2.69,0,0,1,.4,0,8.55,8.55,0,0,1,1.74,17Z"/><path class="cls-4" d="M180.18,125.76s-23.91-13.11-31.57,8.66c-6.74,19.15,15,55.36,44.14,43.51Z"/><path class="cls-11" d="M182.82,179.46a7.07,7.07,0,1,1-7.07-7.06A7.07,7.07,0,0,1,182.82,179.46Z"/><path class="cls-12" d="M287.52,189.48a22.81,22.81,0,0,1-4.22,6.41c-3.72,3.93-9.4,6.81-18.06,6.8-7.27,0-13-4.06-17.2-8.89a48.91,48.91,0,0,1-6.59-9.92,50.39,50.39,0,0,1-2.76-6.33s34.88-1.08,51.58-3.54h0a35,35,0,0,1-.34,6.86A32.21,32.21,0,0,1,287.52,189.48Z"/><path class="cls-11" d="M289.93,180.87c-15.91,3.09-41.66,2.85-48.48,3a50.39,50.39,0,0,1-2.76-6.33s34.88-1.08,51.58-3.54h0A35,35,0,0,1,289.93,180.87Z"/><path class="cls-10" d="M181.67,162.11c-2.07-6.29-8-19.26-22.61-25,0,0,15.63,14.73,16.82,26.13a2.82,2.82,0,0,0,2.88,2.6h.34A2.8,2.8,0,0,0,181.67,162.11Z"/><path class="cls-13" d="M283.3,195.89c-3.72,3.93-9.4,6.81-18.06,6.8-7.27,0-13-4.06-17.2-8.89,2.31-1.31,8.74-4.07,17.89-1,0,0,3.24-2,8.94-1.3C278.18,191.85,281.16,193,283.3,195.89Z"/><path class="cls-10" d="M261.7,212.84a32.2,32.2,0,0,1-11.15-4.44,1.95,1.95,0,0,1,2.21-3.21c.52.36,12.5,8.33,25.17,1.6a1.94,1.94,0,1,1,1.83,3.43A26.83,26.83,0,0,1,261.7,212.84Z"/><path class="cls-10" d="M270.36,166.07H260.25a2.08,2.08,0,0,1,0-4.16h10.11a.46.46,0,0,0,.45-.59l-8.4-28.76a2.08,2.08,0,0,1,4-1.16l8.4,28.75a4.62,4.62,0,0,1-4.44,5.92Z"/><path d="M244.84,102.25h0a4,4,0,0,1-3.5,4.7c-7.78.77-23.94,3.4-31.23,12.29,0,0,1.59-14.6,30-20.16A4,4,0,0,1,244.84,102.25Z"/><path d="M276.92,102h0a4,4,0,0,0,4.28,4c7.79-.61,24.16-.84,32.89,6.64,0,0-4.12-14.1-33.1-14.6A4,4,0,0,0,276.92,102Z"/><path class="cls-1" d="M290.65,136.26a8.53,8.53,0,0,0,9-11.95c7-.82,6.86-5.07,6.86-5.07-1.09,1.82-9.27.76-12.66.24h0c-.41-.08-.76-.13-1-.17h0a2.69,2.69,0,0,0-.4,0,8.55,8.55,0,0,0-1.74,17Z"/><path class="cls-14" d="M215.61,53.32S212.26,111.8,185,135.41c0,0-2.34-15.51-23.57-13.18,0,0-2-3.63-5.12-21.22s8.07-90.22,88.61-85.54c0,0,25.61-5.2,61.46,25.45S321,105.1,321,105.1,261.18,96.85,215.61,53.32Z"/><path d="M140.11,187.68c-1.16,33.13,18.89,62,32.66,90.69,14.92,31.09,26.84,64.85,25.3,99.81-.42,9.43-2.63,18.85-1.14,28.28a40.42,40.42,0,0,0,11.12,21.61c3.71,3.86,10.08.82,10.24-4.24.24-7.65-3.35-14.62-2.6-22.35.8-8.12,4.13-15.88,6.37-23.66A151.21,151.21,0,0,0,227.82,331c-.55-15.8-4.23-30.83-8.06-46.08-2-7.84-3.81-15.76-4.17-23.86a63.2,63.2,0,0,1,.64-12.06c.5-3.32.51-6.5-2-9.08-2.7-2.79-7-3.33-10.58-4.38q-6.28-1.84-12.46-4A282.44,282.44,0,0,1,164.93,221c-3-1.39-6.36-.83-8.21,2.15-4.68,7.58.27,14.12,6,19a46.58,46.58,0,0,1,14,19.6c2.63,7.16,13.45,4.42,11.57-3.19l-6.76-27.38c-1.59-6.43-12.35-5.26-11.79,1.59.54,6.52,1.73,20.09,9.61,22.1,8.81,2.25,13.32-10.2,13.93-16.67.21-2.32-2-5.45-4.41-5.79-5.41-.76-10.28,1.32-12.45,6.62A10.86,10.86,0,0,0,181,252.47c9.07,5.45,24-3.77,17.4-14.42-6.12-9.88-21.57-2.68-18.51,8.41a11.39,11.39,0,0,0,10.53,8.34c5.91.1,10.08-4,12.15-9.14.95-2.38-.63-5.6-2.76-6.78-9.63-5.31-22.44,2.81-18,14.14,4.52,11.57,20.23,7.53,21.21-3.93.26-3-3-6.29-6-6-4.81.46-9.15,2.8-10.51,7.78a10.07,10.07,0,0,0,5.59,11.65c9.8,4.42,18.52-9.58,9.64-16-8.46-6.11-18.65,3.45-16.78,12.58,1,4.74,5.47,7.38,10.15,6.61,5.2-.86,7.66-5.34,9-10a6.14,6.14,0,0,0-4.19-7.38c-9.76-3.4-20.86,4.84-22.19,14.76-.62,4.68,1.58,9.7,6.61,10.63a8.08,8.08,0,0,0,9.8-7.79c.18-4.09-4-6.57-7.59-5.78a8.67,8.67,0,0,0-6.62,10.25c1.09,4.78,6.51,7.1,10.94,7.42,10.68.79,18.34-8.27,18.28-18.46,0-6.5-10.83-8.48-11.78-1.59a17.54,17.54,0,0,1-4.11,9.69c-2.42,2.7-6.32,3.57-8.48,6.41a7.56,7.56,0,0,0,.28,9.65c2.73,3.1,7.13,3.19,10.9,2.69a28.83,28.83,0,0,0,6.81-1.83,26.53,26.53,0,0,0,3.15-1.31c.32-.8-3.18-2.61-3.67-2.66-3.32-.36-8.5,1.47-11.27,3.27-6.58,4.29-7.29,13.66-.45,18.09a14.12,14.12,0,0,0,10.12,2,27,27,0,0,0,5.61-1.79c2.62-1.05,2.67-.18,1.34-3.5s-.68-2.64-2.8-1.62c-5.34,2.58-13.49,5.71-12.47,13.25.85,6.28,10.13,8.42,15.37,7.07-1.36.35,1.41-.07,1.35,0l-.72-1c-.37-1.27-.86-1.37-1.46-.29-1.34.43-3.25,2.32-4.23,3.22a12.13,12.13,0,0,0-4.28,9.52,9,9,0,0,0,16.54,4.69c5.87-9-2.59-15.38-9.19-20.11l-4.62,11,8.83,2.33,4.42,1.16,2.65.7-1.16-4.41s-4.35,3.54-4.75,3.83a22.73,22.73,0,0,0-5.13,4.75c-5.34,7.12-4,18.1,3,23.63,4.26,3.34,12.07.47,10-5.84a9,9,0,0,1,.34-7H207.72c.6,1.95-1.05,3.94-1.9,5.65a30.3,30.3,0,0,0-2.74,7.71,28.31,28.31,0,0,0,1.41,15.59c2.76,7.12,14.37,4,11.57-3.19a17.46,17.46,0,0,1,.83-15.4c2.24-4.38,3.93-8.62,2.4-13.55-1.87-6-9.44-5.32-11.57,0a19.37,19.37,0,0,0-.34,13.34l10-5.84c-8.94-7,6.07-12.66,9-18.26,6.61-12.71-14.69-14.84-22.17-16.81-6.89-1.81-10,7.13-4.63,11a25.85,25.85,0,0,0,5.21,3.09c4.83,1.76,5.71,1.57,9.3-1.35s6.43-7.36,5.37-12.26a10,10,0,0,0-7.76-7.49,22.53,22.53,0,0,0-5.68-.34c-1.35,0-3.33.16-3.62-.16l1.54,5.84c.53-2,6-3.13,7.9-4.2,3.81-2.17,6.66-5.89,6.16-10.46a8.46,8.46,0,0,0-8.69-7.6c-2.57.09-4.75,1.18-7.09,2.09-1.16.45-2.74.71-3.85,1.22a1.12,1.12,0,0,1-1,0c-.92-.44-1,.25-.19,2.06-.05,0,5.75-1.49,5.93-1.52a17.48,17.48,0,0,0,6.49-2.24A11.86,11.86,0,0,0,215,280a9.18,9.18,0,0,0-8.35-8.85c-2.52-.2-4.71.63-7,1.54a32.16,32.16,0,0,1-3.54,1.34,9.34,9.34,0,0,1-2.91.44c-2-.13-1.42.62,1.64,2.24l-.6,4.63a30.62,30.62,0,0,0,4.19-2.48,27.57,27.57,0,0,0,5.15-5.2A27.09,27.09,0,0,0,208.88,261l-11.79-1.6c0,1.9-.25,3.82-1.72,5.21a4.68,4.68,0,0,1-2.48,1.28c-2.8-.3-3.87,1.65-3.21,5.87l-7.6-5.79,7.37-1.06.43-1.2c.78-.81,1.18-1.89,2.06-2.68,1.56-1.38,2.79-1.76,4.73-1.09l-4.19-7.38q-1.77,3.66,4.2,4.45a7.84,7.84,0,0,0,.29-1.87l-6-6c.1-1.19,2.47,0,2.74.15L191,242.47a.28.28,0,0,0-.17.36q2.47,1.53-2.72-.59a.87.87,0,0,1-1-.13q1.38,2.25-1.36,1.86l-4.4-5.78a9.41,9.41,0,0,1-1.21,3.82,4.31,4.31,0,0,1-1,1.31c-.81.86-.73.84.24,0l4.63.6c.66.41-.9-3.61-1.13-4.5a39.06,39.06,0,0,1-1.11-6.63l-11.78,1.6,6.76,27.38,11.57-3.19a60.49,60.49,0,0,0-9.21-16.78c-1.11-1.41-12.5-11.71-12-12.55l-8.21,2.15c9,4.12,18.07,7.89,27.37,11.15q7,2.47,14.23,4.58l3.59,1c2.3.83,2.4.67.29-.51-.21,2.36-.63,4.69-.76,7.06-1,19.21,6.51,37.51,10,56.1a138.53,138.53,0,0,1-1.29,56.77c-2.25,9.66-6.23,18.9-7.93,28.68a44.81,44.81,0,0,0-.44,14.15c.65,4.53,2.47,8.84,2.33,13.45l10.24-4.24c-12.12-12.58-6.75-28.65-6.37-44.22a176,176,0,0,0-6-48.11c-8.21-31.7-24-60.05-38.36-89.2-7.78-15.81-14.29-32.48-13.67-50.38.28-7.72-11.73-7.71-12,0Z"/><path d="M202.83,254.46c7.72,0,7.74-12,0-12s-7.73,12,0,12Z"/><path d="M279.66,228c-2.07,23.58-5.69,47-9.45,70.3-4,24.89-.06,48.72,6.84,72.74,1.88,6.55,11.61,5.19,11.79-1.59.35-13.7-1.33-27.18,2-40.65,3.24-13.19,7.82-26.15,12-39,4.15-12.71,8.52-25.36,13.45-37.79s12.19-24.8,14.12-38.24c.87-6-5.15-9.75-10-5.84-6.46,5.18-10.92,12.12-14.15,19.68a95,95,0,0,0-3.68,10.22c-.61,2-.94,4.55-2.05,6.38-1.42,2.34-1.74,1.89-4.11,1.33-4.06-1-8-.71-10.69,2.93-2.2,3-1.17,5.49-1,8.85.08,1.39-1,4.92-.4,7.18.78,3,4.32,5.05,3.68,8.34-1.46,7.52,9.27,10.65,11.57,3.19a54.41,54.41,0,0,1,7.75-15.5l-10.36-6c-1.57,3.63-3.17,7.24-4.7,10.89-1.15,2.73-2.52,2.64-5.15,3.88-5.41,2.54-7.59,6.7-6.87,12.59.4,3.24.29,3.51-.95,6.41a61.72,61.72,0,0,0-3,9.48c-1.84,7.39-3.33,14.86-4.57,22.37s10.31,10.8,11.57,3.19c1.19-7.21,2.61-14.38,4.35-21.48a52.77,52.77,0,0,1,2.65-8.91c1.19-2.69,2.42-4.62,2.37-7.64a26.66,26.66,0,0,0-.37-3.34c-.09-.67.05-2.83-.87-1.5,1-1.4,4.56-1.83,6.09-2.74,5.58-3.36,7.38-11.53,9.8-17.15,3-7-5.82-12.47-10.36-6a64.42,64.42,0,0,0-9,18.36L299.58,276c.75-3.84.8-7.35-1-10.92-1.58-3.1-2.55-2.4-2.18-5.47.16-1.29.75-3.67.08-4.93q-.46-2.88-3.24,2.4a21.85,21.85,0,0,0,2.89.86,13,13,0,0,0,9.8-2.09c6.79-4.53,7.57-13.71,10.18-20.75,2.7-7.3,6.68-13.81,12.79-18.71l-10-5.84c-1.93,13.42-9.17,25.75-14.12,38.24-5.17,13-9.72,26.28-14,39.61-4.27,13.15-9.14,26.43-12.07,40s-1.42,27.28-1.77,41.1l11.78-1.6c-3.46-12-6.58-24.31-7.79-36.81-1.11-11.48-.18-22.49,1.64-33.82,3.7-23,7.16-46,9.19-69.22.67-7.69-11.33-7.64-12,0Z"/><path d="M320,204.33c-1,19.17,5.47,38.41,8.37,57.22a316.72,316.72,0,0,1,3.84,59.16C331,356.15,322,391.41,302.48,421.3l11,4.62c12.41-31.05,21.24-64.77,16.7-98.4-2.25-16.67-8.49-32.17-13.26-48.2-2.33-7.88-4.33-15.93-4.72-24.16-.34-6.95-.16-15.28,4.05-21.19a18.39,18.39,0,0,0,1.35-1.62l1.06-1-3-.3c-.12.22,1,4.75,1,5.63-.31,4.29-2.24,8.38-4.1,12.18-4.19,8.57-7.85,16.84-5.84,26.54,1.14,5.49,8.23,5.3,11,1.43a176,176,0,0,0,17.23-30.33l-11-4.63c-2,8.5-6,16.21-9,24.37-2.45,6.66-5.54,16.17-2.46,23.08,3.59,8,13.38,6.43,17.41-.23,4.48-7.39,4.68-18.19,3.69-26.49-.75-6.36-9.78-8.57-11.78-1.59a176,176,0,0,0-6.41,35.42c-.74,10-.09,20.24,5.3,29,1.88,3,6.87,4.29,9.43,1.22,5.3-6.37,6-14.92,7.1-22.87a169.77,169.77,0,0,0,1.43-27.23h-12c.77,19.8,1.46,39.61-.49,59.36-.76,7.68,11.24,7.63,12,0,1.95-19.75,1.26-39.56.49-59.36-.3-7.69-12.21-7.75-12,0a166.14,166.14,0,0,1-.77,21.74c-.37,3.54-.89,7.07-1.53,10.57-.52,2.87-.77,7-2.72,9.3l9.43,1.22c-4.64-7.5-4.25-16.34-3.51-24.81a161.35,161.35,0,0,1,5.82-30.33l-11.79-1.6a44.17,44.17,0,0,1-1,17.62c-.15.5-1.13,2.36-1.05,2.81,2.72,2.21,4,2.48,3.83.8a8.7,8.7,0,0,1,0-1.25c.62-2.56.64-5.22,1.37-7.82,2.85-10.17,8.32-19.38,10.77-29.7,1.5-6.28-8.09-11.1-11-4.62a176.71,176.71,0,0,1-17.23,30.34l11,1.43c-1.9-9.14,5.69-18,8.5-26.21,2.5-7.34,3.09-16.49-2-22.9-5.9-7.36-14.07-2-18.37,4.16-4.73,6.77-6.08,15.43-6.2,23.52-.28,18.38,6.61,35.76,12.1,53,5.87,18.44,8.36,36.77,6.52,56.11-2.07,21.66-8.79,42.71-16.84,62.83-2.63,6.58,7.44,10,11,4.62,19.94-30.51,29.41-66.6,31.2-102.77a320.1,320.1,0,0,0-3.13-59.5c-1.36-9.93-3.11-19.79-5.12-29.6-2.12-10.34-4.37-20.53-3.8-31.15.42-7.72-11.58-7.69-12,0Z"/><path d="M292.44,279.51c-5,22.24,4.13,42.82,12.72,62.86,4.09,9.54,7.67,19,8.52,29.38s.21,21-.21,31.45c-.31,7.87,11.15,7.48,12,0a159.58,159.58,0,0,0-3.94-58.6c-5.41-20.45-13.58-39.94-14.72-61.33l-11.18,3a97.56,97.56,0,0,1,16.27,50.38c.28,7.7,12.28,7.74,12,0A109.62,109.62,0,0,0,306,280.25c-3.07-4.66-11.52-3.28-11.18,3,1.13,21.3,8.29,41,14.24,61.27,5.56,18.93,6.66,39.11,4.42,58.66h12c.81-20.33,1.27-39.51-6.49-58.68-7.87-19.43-19.85-40.13-15-61.82,1.69-7.53-9.87-10.74-11.57-3.19Z"/><path d="M152.88,445.7a29.42,29.42,0,0,1-12.3-28.42c1.23-7.55-10.33-10.8-11.57-3.19a42,42,0,0,0,17.81,42c6.38,4.38,12.39-6,6.06-10.36Z"/><path d="M173.34,476.9v12.15c0,7.72,12,7.73,12,0V476.9c0-7.73-12-7.74-12,0Z"/></g></g></svg>