<svg xmlns="http://www.w3.org/2000/svg" viewBox="0 0 554.34 835.23"><defs><style>.cls-1{fill:#ffaf82;}.cls-2{fill:#016a9c;}.cls-3{fill:#1d86a6;}.cls-4{fill:#009762;}.cls-5{fill:#007054;}.cls-6{fill:#32324c;}.cls-7{fill:#f88968;}.cls-8{fill:#fff;}.cls-9{fill:#920e08;}.cls-10{fill:#f85c66;}</style></defs><g id="Capa_2" data-name="Capa 2"><g id="Información"><path class="cls-1" d="M316,272.93c-107.93-59.91-192.14-59.3-192.14-59.3,86.27,86.46,153.1,97.05,184.54,104.58S479,307.55,479,307.55c-3.84-10.5-4.44-21.8-1.6-30.55,0,0-57.42-1.23-78.62-2.19S316,272.93,316,272.93Z"/><path class="cls-2" d="M218.69,831.43c-58.79-131.69-34.11-192.9-34.11-192.9C217,624.27,267.8,608.1,267.8,608.1c17.27,94.13,22.71,222.12,22.71,222.12Z"/><path class="cls-3" d="M92.94,835.23s-23-89.82-1.83-208.49l106,11.79s-10,63.73-30.43,192.29Z"/><path class="cls-3" d="M95,595.7c-4.2,21.32-7.87,56.94,3.35,92.75,0,0,78.21,18.65,133.22-23.28,36-27.44,37.69-59.55,37.26-69.47Z"/><path class="cls-4" d="M276,599.63C181.17,646,86.42,607.39,86.42,607.39c13-79.19,51.76-125.88,33.16-163.49C90.84,385.81,72.51,245.22,72.51,245.22c15.25-4.81,22.47-6.89,40-11.32,4.94-1.26,9.48-2.31,13.35-3.16,7.94-1.75,13.08-2.64,13.08-2.64,23.92-3.12,48.8-1.45,66.92.8l.37,0c15.89,2,26.49,4.44,26.49,4.44s7.29,52.79,23,79.5,3.7,42.86,0,54.5a39.43,39.43,0,0,0-1.38,8.73c-1,14.59-3.9,62.47-2.34,83.23C254.65,494.8,276,599.63,276,599.63Z"/><path class="cls-1" d="M187.46,279.25c-26,.78-49.34-27.26-61.63-48.51,7.94-1.75,13.08-2.64,13.08-2.64,23.92-3.12,48.8-1.45,66.92.8l.37,0C209.37,250.32,214.85,278.44,187.46,279.25Z"/><path class="cls-5" d="M255.69,367.39a38.85,38.85,0,0,0-1.38,8.73c-46,22.69-93.59,9.75-93.59,9.75C222.58,384.86,255.69,367.39,255.69,367.39Z"/><path class="cls-6" d="M214.8,220.44c20.9-2.23,35.84-20.32,33.81-40.41-4.46-44.3,1.92-80.17-3.49-107.29-4-20-12.49-51.6-47.32-65.56-50.55-20.26-94.25,4.53-112.52,47.1-6.62,15.4-9.67,25.08-13.79,55.12-3,21.67-.14,38.9-.54,53.43-.79,28.26,20.68,52.56,49.87,56.32C151.25,223.08,186.61,223.45,214.8,220.44Z"/><path class="cls-7" d="M219.49,107.64s14.85-16.28,27-2.14c10.65,12.44,4,45.36-22,44.44Z"/><path class="cls-8" d="M245.46,147.9a6.57,6.57,0,1,1-6.56-6.3A6.44,6.44,0,0,1,245.46,147.9Z"/><path class="cls-1" d="M197.93,233c-1.18,14.94-35.67,23.28-55.74-2.38l-2.59-32.84-1.9-24.13,63.4,11.81-2.53,38Z"/><path class="cls-7" d="M198.27,228c-21.59,0-45.9-13.64-58.1-23l-2.47-31.38,63.4,11.81Z"/><path class="cls-1" d="M170.41,202.11c-61.93-13.6-73.18-91.52-73.18-91.52a83.64,83.64,0,0,1,.83-12.81,96.48,96.48,0,0,1,3-14.21c4.44-15,14-32,34.33-39.49.64-.24,1.29-.46,1.93-.68,33.77-11.49,83.15-6.12,98.17,36.8a70.1,70.1,0,0,1,2.28,8.3c.36,1.69.68,3.45,1,5.26C245.47,138.07,226.07,214.34,170.41,202.11Z"/><path class="cls-6" d="M158.08,122.52a7.91,7.91,0,0,1-9-6.48,7.23,7.23,0,0,1,.62-4.18c-6.51-.73-6.38-4.53-6.38-4.53,1,1.63,8.62.68,11.77.22h0l.93-.15h0a2.43,2.43,0,0,1,.38,0,7.86,7.86,0,0,1,8.36,6.54A7.68,7.68,0,0,1,158.08,122.52Z"/><path class="cls-1" d="M107.89,112.18s-22.22-11.69-29.34,7.73c-6.26,17.07,14,49.38,41,38.81Z"/><path class="cls-8" d="M110.34,160.08a6.57,6.57,0,1,1-6.56-6.3A6.43,6.43,0,0,1,110.34,160.08Z"/><path class="cls-9" d="M207.64,169a20.21,20.21,0,0,1-3.92,5.72c-3.46,3.51-8.74,6.08-16.78,6.06-6.76,0-12.06-3.61-16-7.92a48,48,0,0,1-8.69-14.5s32.42-1,47.94-3.16h0a30.17,30.17,0,0,1-.32,6.12A27.57,27.57,0,0,1,207.64,169Z"/><path class="cls-8" d="M209.88,161.34c-14.78,2.75-38.71,2.54-45,2.68a43.9,43.9,0,0,1-2.57-5.64s32.42-1,47.94-3.16h0A30.17,30.17,0,0,1,209.88,161.34Z"/><path class="cls-7" d="M109.28,144.61c-1.93-5.62-7.42-17.18-21-22.34,0,0,14.52,13.14,15.62,23.31a2.61,2.61,0,0,0,2.68,2.32h.32A2.52,2.52,0,0,0,109.28,144.61Z"/><path class="cls-10" d="M203.72,174.74c-3.46,3.51-8.74,6.08-16.78,6.06-6.76,0-12.06-3.61-16-7.92,2.16-1.18,8.13-3.64,16.63-.93,0,0,3-1.75,8.31-1.16C199,171.14,201.73,172.11,203.72,174.74Z"/><path class="cls-7" d="M183.65,189.85a30.24,30.24,0,0,1-10.36-3.95,1.7,1.7,0,0,1-.46-2.42,1.85,1.85,0,0,1,2.51-.44c.48.31,11.62,7.43,23.39,1.42a1.85,1.85,0,0,1,2.45.72,1.7,1.7,0,0,1-.75,2.34A25.81,25.81,0,0,1,183.65,189.85Z"/><path class="cls-7" d="M191.7,148.14h-9.4a1.86,1.86,0,1,1,0-3.71h9.4a.39.39,0,0,0,.34-.17.38.38,0,0,0,.07-.36l-7.8-25.65a1.85,1.85,0,0,1,1.31-2.3,1.94,1.94,0,0,1,2.39,1.26l7.81,25.65a4,4,0,0,1-.69,3.63A4.31,4.31,0,0,1,191.7,148.14Z"/><path class="cls-6" d="M168,91.21h0a3.57,3.57,0,0,1-3.25,4.2c-7.23.68-22.25,3-29,11,0,0,1.47-13,27.91-18A3.7,3.7,0,0,1,168,91.21Z"/><path class="cls-6" d="M197.8,91h0a3.63,3.63,0,0,0,4,3.59c7.24-.54,22.45-.75,30.56,5.93,0,0-3.82-12.58-30.76-13A3.64,3.64,0,0,0,197.8,91Z"/><path class="cls-6" d="M210.55,121.55a7.9,7.9,0,0,0,9-6.48,7.14,7.14,0,0,0-.61-4.18c6.51-.74,6.37-4.53,6.37-4.53-1,1.63-8.61.68-11.76.22h0l-.94-.15h0a2.31,2.31,0,0,0-.37,0,7.87,7.87,0,0,0-8.37,6.54A7.69,7.69,0,0,0,210.55,121.55Z"/><path class="cls-6" d="M140.82,47.56s-3.12,52.17-28.45,73.23c0,0-2.19-13.84-21.91-11.76,0,0-1.87-3.24-4.76-18.93s7.5-80.48,82.35-76.3c0,0,23.8-4.64,57.11,22.71s13.58,57.25,13.58,57.25S183.17,86.39,140.82,47.56Z"/><path class="cls-1" d="M68.35,566.45s13.43,2.84,23,8.66,19.34,12.31,25.17,16c7,4.45.34,8.66-7.11,6.83-11.28-2.77-15.29-7.17-15.29-7.17s32.07,30.46,36.7,41.21c4.23,9.82-14.33-6.13-30.44-18.5,0,0,25.65,34.58,22.8,41.26-3.74,8.77-34.68-33.21-34.68-33.21s18,34.21,13.46,35.71c-5.08,1.67-28-31.19-28-31.19s10.21,24.56,6.82,24.51c-6.71-.08-39-47-36.66-72.65C44.13,577.92,61.89,565.58,68.35,566.45Z"/><path class="cls-1" d="M72.9,568.64c-10,12.94-14.89,13.52-29,15.11C14,523.54-.34,467.94,0,428.65,6.79,377.4,73.2,244.78,73.2,244.78,101.72,266.37,102.68,317,102.68,317c-19.85,46-44.9,94-57.29,123Z"/><path class="cls-7" d="M430.35,278.78s7.06-1.44,18.14-.35c0,0,40.47-7.81,54.47-3,0,0,26.91,3.76,38.5,4,0,0,8.56,0,9.55,3.33s2.82,30.39,2.82,30.39,4.75,6.8-14.71,7c0,0-.62,4.87-4.52,7.32s-10,.48-21.67-8.59c0,0-16.16-4.92-20.33-16.2,0,0,1.15-3.57-12.61-2.68l-49.64-1.56Z"/><path class="cls-1" d="M430.35,277.11a55.52,55.52,0,0,1,19.95-1.69s43.47-4.12,57.46.72c0,0,21,4.61,32.57,4.85,0,0,8.57,0,9.56,3.33s3.94,33.23,3.94,33.23,4.75,6.79-14.71,7c0,0-.62,4.88-4.52,7.32s-10,.48-21.67-8.59c0,0-16.16-4.92-20.33-16.19,0,0-7.63-.47-26,2l-39.44,4.71Z"/><path class="cls-7" d="M539.12,324.57c-5-.34-17.2-8.81-18.29-14-.58-2.78.18-3.5,2.73-3.39,6.84.31,12.61-2,16.92-7.53.38-.49.48-1.31,1.69-1.35a11.64,11.64,0,0,1-4.41,6.09c-1.27.95-2.61,2.27-1.4,3.09,2.64,1.8,4,1.41,5.56,4.23.28.51,3,3.63,2.23,3.37-2.5-.89-3.11-.63-4.38.64-.33.32-1.74,1.13-1.63.69a9.47,9.47,0,0,0-.1-4.93c-.52-1.8-.46-4-2.36-3.66-2.43.41-8.22-.13-9.3,1.84-.88,1.59.2,5.88,1.25,7.09,3.17,3.65,10.21,7.84,11.49,7.79"/></g></g></svg>