<svg xmlns="http://www.w3.org/2000/svg" viewBox="0 0 333.67 850.36"><defs><style>.cls-1{fill:#262423;}.cls-2{fill:#fff6f0;}.cls-3{fill:#f8e8d8;}.cls-4{fill:#af0058;}.cls-5{fill:#fbc0a4;}.cls-6{fill:#f9b092;}.cls-7{fill:#403433;}.cls-8{fill:#f69d7d;}.cls-10,.cls-11,.cls-12,.cls-13,.cls-14,.cls-15,.cls-9{fill:none;stroke-linecap:round;}.cls-9{stroke:#b2b2b2;stroke-width:0.5px;}.cls-10{stroke:#1d1d1b;}.cls-11{stroke:#686767;stroke-width:0.92px;}.cls-12{stroke:#787777;stroke-width:0.83px;}.cls-13{stroke:#878787;stroke-width:0.75px;}.cls-14{stroke:#969695;stroke-width:0.67px;}.cls-15{stroke:#a4a4a4;stroke-width:0.58px;}.cls-16{fill:#1d1d1b;}.cls-17{fill:#e2057f;}</style></defs><g id="Capa_2" data-name="Capa 2"><g id="Información"><path class="cls-1" d="M226,116.14c0,19.92-6.65,122.11-6.65,122.11s-49.59-6-94.62-6c-37,0-110,19.64-110,19.64S6.46,144,6.46,116.14C6.46,52,59.4,0,124.7,0S226,52,226,116.14Z"/><path class="cls-2" d="M289.65,571.19c44,121.46-20.49,257.11-20.49,257.11s-95.7,44.43-183.55,7.17L53.05,748S18.08,618.51,91,565.45,289.65,571.19,289.65,571.19Z"/><path class="cls-3" d="M299.87,521.89A34.3,34.3,0,1,1,330,472.56a34,34,0,0,1,1.6,26.2A34.42,34.42,0,0,1,299.87,521.89Z"/><path class="cls-3" d="M271,355.73a39.66,39.66,0,1,1,6.87-44.91A39.67,39.67,0,0,1,271,355.73Z"/><path class="cls-4" d="M271.75,507.55l-3.17-5.19c-2.31-4.72-56.76-116.17-65.34-167l-.73-4.31L280,316l1,4.12c14.24,57,44.52,141,49.21,152.18l1.62,3.89Z"/><path class="cls-4" d="M324.2,510.86a34.31,34.31,0,1,1,8.35-15A34.35,34.35,0,0,1,324.2,510.86Z"/><path class="cls-3" d="M74.33,565.77a34.31,34.31,0,0,0-36.85-57.88,34.55,34.55,0,0,0-8.83,8.1,34.31,34.31,0,0,0,45.68,49.78Z"/><path class="cls-3" d="M62.27,392a39.78,39.78,0,0,1-42.66,1.5A39.38,39.38,0,0,1,1.36,369.27,39.66,39.66,0,1,1,62.27,392Z"/><path class="cls-4" d="M24.73,551.13l-2-5.73C21.39,540.3-1.86,409.77.12,358.29l.17-4.37,78.94,1,.16,4.25c2.31,58.68,7.49,157.4,9.79,169.33l.8,4.14Z"/><path class="cls-4" d="M76.74,564.5A38.21,38.21,0,1,1,89.25,550,38.22,38.22,0,0,1,76.74,564.5Z"/><path class="cls-4" d="M253.78,411.35c21.65-22.26,20.4-42.65,12-58.66.32-.29.67-.54,1-.84a39.52,39.52,0,0,0-15.93-67s0-.09,0-.09-2.69-1.62-52.84-14.06c-29.77-7.92-62-25.47-117.47,9.73-12.59,11.48-39.39,19.6-60.86,40.07a39.61,39.61,0,0,0,21.3,73,40.49,40.49,0,0,0,5.85-.45C58.06,423.6,84.16,504.88,84.16,504.88L68.05,586.74c117.3,61.22,232.25-10,232.25-10Z"/><path class="cls-5" d="M164.28,285.2c-9,5.19-16.07,7.9-26.18,8.15-15,.41-20.49-8.37-25.5-9.71L63.9,171.2,152,210.91l.21,3.73Z"/><path class="cls-6" d="M140.07,250.21a88.11,88.11,0,0,1-27-7.89,184.19,184.19,0,0,1-24-13.14l-25.11-58L152,210.91l.21,3.73,6.38,37.28C152.42,251.31,146.23,250.93,140.07,250.21Z"/><path class="cls-5" d="M34.12,111.34S1.77,104.4,6,140.72s30.51,37.05,38.27,38.62c0,0,14.48,64.68,94.27,58.49s66.72-68,66.13-109,4-112.11-48.24-117.36C103.73,6.22,29.49,9.69,34.12,111.34Z"/><path class="cls-7" d="M120.31,128.81a10.72,10.72,0,1,1-11.2-10.22A10.72,10.72,0,0,1,120.31,128.81Z"/><path class="cls-7" d="M175,128.81a10.72,10.72,0,1,1-11.2-10.22A10.72,10.72,0,0,1,175,128.81Z"/><path class="cls-7" d="M124.64,103.74c.41-.56-1.15-2.69-4.78-4.75a27.83,27.83,0,0,0-30.81,3,16.48,16.48,0,0,0-3.3,3.64c-.6,1-.75,1.67-.5,1.94s.94.08,2-.39l4-2a36.53,36.53,0,0,1,27.21-2.61C121.93,103.49,124.19,104.39,124.64,103.74Z"/><path class="cls-7" d="M155.48,102.4c.56.55,2.61-.77,5.91-2.37a36.58,36.58,0,0,1,27.22-2.61l4.27,1.19c1.08.28,1.79.34,2,0s-.08-.94-.86-1.8a16.75,16.75,0,0,0-3.93-2.95,27.86,27.86,0,0,0-30.81,2.95C156.1,99.54,155,101.92,155.48,102.4Z"/><path class="cls-6" d="M12.26,127.54c-2.77,9.62,1.17,19.75,5,29,1.15,2.74,2.42,5.63,4.88,7.31s6.46,1.42,7.75-1.26-.59-5.51-2-8-2.26-6.22.16-7.78c1.13-.73,2.6-.66,3.79-1.29,2.57-1.36,2.55-5,1.89-7.87a44.19,44.19,0,0,0-4.33-11.25c-1.91-3.46-4.93-7-8.88-6.93C16.39,119.52,13.41,123.57,12.26,127.54Z"/><path class="cls-2" d="M100.26,255.14s39.25,33.92,48.34,32.44,10-35.66,10-35.66,22.53,6.14,26.48,10.66,9.81,47.07,9.81,47.07c-6.93,7.26-38.22-18.57-43.13-14.73s-25,34.91-29.54,34.4c0,0-37.94-48.94-36.7-57C86,268.84,100.26,255.14,100.26,255.14Z"/><path class="cls-1" d="M34.12,111.34c42.94-9.63,54.08-28.63,58.1-61.82,0,0,28.09,79.29,133.75,59C225.29,108,218,4.7,144.6,5.17,75.3,5.61,45.77,17.59,34.12,60.49,25.22,93.24,34.12,111.34,34.12,111.34Z"/><path class="cls-1" d="M34.12,111.34c.22,11.12,12.7,51,12.7,51s-2.4-54,4.8-65.38S34.12,111.34,34.12,111.34Z"/><path class="cls-6" d="M109.58,171.24a21.41,21.41,0,1,1-22.36-20.41A21.4,21.4,0,0,1,109.58,171.24Z"/><path class="cls-6" d="M205.12,166.89a20.77,20.77,0,1,1-21.69-19.8A20.77,20.77,0,0,1,205.12,166.89Z"/><path class="cls-8" d="M151.11,158.53c1.39,1.41-.76,5.44-5.68,6.4s-8.42-2-7.66-3.83,3.47-2.66,6.29-3.26S149.76,157,151.11,158.53Z"/><path class="cls-8" d="M157,178.67c.46.79-1.36,3.06-5.52,4.93a29.76,29.76,0,0,1-32.67-7.19c-3-3.44-3.7-6.27-2.94-6.79,1.67-1.18,8.45,6.08,19.72,8.36C146.8,180.64,156,176.9,157,178.67Z"/><path class="cls-9" d="M93.38,825.19c2,.88,3.72,4.25,3.81,7.53.07,2.62-1.17,4.19-2.79,3.48-1.29-.56-2.38-2.72-2.44-4.83,0-1.68.75-2.67,1.78-2.22a3.65,3.65,0,0,1,1.57,3.09c0,1.07-.48,1.71-1.14,1.42a2.36,2.36,0,0,1-1-2"/><path class="cls-10" d="M65.46,709.15c-.42,4.71-2.93,7.25-5.69,5.63a7.16,7.16,0,0,1-2.66-3.71,13.74,13.74,0,0,1-.65-5.64c.31-3.07,2-4.66,3.71-3.57,1.39.87,2.31,3.53,2,6-.2,1.94-1.26,3-2.37,2.3-.88-.54-1.47-2.26-1.31-3.83.13-1.25.81-1.91,1.52-1.46"/><path class="cls-10" d="M67.37,714.2c1.69,4.46,1.19,9.87-.94,12.12-1.71,1.79-4.33.38-5.66-3.24-1.07-2.89-.8-6.41.62-7.82,1.13-1.13,2.74-.18,3.6,2.12.68,1.83.51,4.06-.4,5-.72.74-1.75.14-2.3-1.33a3.39,3.39,0,0,1,.25-3.2"/><path class="cls-10" d="M70.49,716c2.77,1.58,4.59,6.64,4.35,11.31-.23,3.75-2.21,5.82-4.44,4.6-1.77-1-3.07-4.24-2.89-7.27.18-2.42,1.48-3.73,2.88-2.92,1.11.64,1.91,2.72,1.81,4.64-.09,1.54-.91,2.39-1.82,1.88a3.38,3.38,0,0,1-1.18-3"/><path class="cls-10" d="M66.88,685c2.29-2.17,3.15-7.49,1.78-12-1-3.6-3.32-5.24-5.26-3.59a5.63,5.63,0,0,0-1.57,3.27,10.23,10.23,0,0,0,.3,4.48c.69,2.34,2.23,3.33,3.44,2.24,1-.87,1.29-3.07.74-4.92-.46-1.49-1.41-2.15-2.2-1.46a3.38,3.38,0,0,0-.48,3.17"/><path class="cls-11" d="M65.92,669.17a8.22,8.22,0,0,0,2.34-4.74,16.6,16.6,0,0,0-.05-6.51c-.78-3.33-2.79-5-4.67-3.83l-.22.16c-1.39,1.09-2.09,4-1.69,6.64,0,.25.08.49.14.73.46,2.07,1.8,3,2.9,2.36l.24-.18a5.15,5.15,0,0,0,1-4.38c0-.08,0-.17,0-.26-.32-1.37-1.17-2-1.93-1.5l-.06,0a3.28,3.28,0,0,0-.65,3"/><path class="cls-12" d="M65.75,654a7.9,7.9,0,0,0,2.56-4.32,14.57,14.57,0,0,0,.46-3,17.22,17.22,0,0,0-.1-3.13c-.44-3.2-2.26-5-4.11-4l-.23.14c-1.39,1-2.31,3.69-2.09,6.25,0,.24.07.48.12.7.4,2,1.52,2.92,2.62,2.31a2.56,2.56,0,0,0,.25-.16c.88-.7,1.29-2.45,1.16-4.07l0-.26c-.2-1.29-.94-2-1.7-1.52l-.06,0a3.18,3.18,0,0,0-.85,2.77"/><path class="cls-13" d="M66.68,639.58a8,8,0,0,0,2.74-3.85,12.19,12.19,0,0,0,.7-2.75,15.94,15.94,0,0,0,.23-2.93,5.73,5.73,0,0,0-1.08-3.5,2,2,0,0,0-2.4-.65,1.27,1.27,0,0,0-.23.12c-1.39.77-2.55,3.32-2.57,5.78,0,.24,0,.46.05.68.23,1.84,1.2,2.81,2.28,2.31a1.58,1.58,0,0,0,.24-.15c.89-.6,1.4-2.2,1.45-3.72v-.24c-.06-1.22-.69-1.92-1.44-1.57l-.06,0a3,3,0,0,0-1.08,2.53"/><path class="cls-14" d="M68.89,626.17a7.05,7.05,0,0,0,3-3.23A21.19,21.19,0,0,0,73,620.53a12.52,12.52,0,0,0,.6-2.66c.48-2.76-.53-4.84-2.43-4.43l-.25.07a4.73,4.73,0,0,0-2.15,1.85,8.23,8.23,0,0,0-1.23,3.27q0,.35-.06.66c-.13,1.71.76,2.71,1.79,2.35l.25-.12a4.61,4.61,0,0,0,1.89-3.25l0-.23c.06-1.14-.36-1.88-1.13-1.66l-.07,0a2.84,2.84,0,0,0-1.32,2.21"/><path class="cls-15" d="M73,614.06a7.62,7.62,0,0,0,3.42-2.28A23.67,23.67,0,0,0,78,609.92c.23-.34.44-.7.64-1.06a8.63,8.63,0,0,0,.62-1.06,6.32,6.32,0,0,0,.78-3.09,1.65,1.65,0,0,0-1.5-1.63l-.26,0a4.09,4.09,0,0,0-2.59,1.08,9,9,0,0,0-1.25,1.22,7.54,7.54,0,0,0-.89,1.53,5.77,5.77,0,0,0-.23.61c-.53,1.53.06,2.59,1.09,2.47l.26-.06a4.47,4.47,0,0,0,2.52-2.48l.1-.2c.42-.93.24-1.73-.49-1.76h-.07a2.57,2.57,0,0,0-1.88,1.63"/><path class="cls-9" d="M80,604.22a6.7,6.7,0,0,0,1.78,0,17.1,17.1,0,0,0,2-.5,24.43,24.43,0,0,0,4-1.73A6.86,6.86,0,0,0,90,600.17a1.48,1.48,0,0,0-.07-2.09,3.85,3.85,0,0,0-2.81-.84,6,6,0,0,0-1.85.33,5.9,5.9,0,0,0-1.72.86,2.89,2.89,0,0,0-1.35,1.76,1,1,0,0,0,.69,1.14,5,5,0,0,0,3.48-.75c.92-.57,1.35-1.25.73-1.72a1.54,1.54,0,0,0-1.11-.2,3.09,3.09,0,0,0-1.36.48"/><path class="cls-10" d="M73.05,732.07c2.78,1.53,4.75,6.54,4.6,11.23-.15,3.75-2.09,5.86-4.34,4.68-1.8-.94-3.16-4.17-3-7.2.1-2.42,1.39-3.76,2.81-3,1.12.62,2,2.68,1.91,4.6-.06,1.54-.85,2.4-1.77,1.92a3.41,3.41,0,0,1-1.25-3"/><path class="cls-11" d="M75.83,747.71c2.69,1.4,4.63,6.13,4.56,10.58-.07,3.44-1.76,5.46-3.82,4.61l-.25-.11c-1.58-.81-2.85-3.47-3-6.12,0-.25,0-.49,0-.74.11-2.1,1.14-3.33,2.38-2.89l.28.13c1,.56,1.79,2.35,1.84,4.08v.27c0,1.4-.74,2.22-1.6,1.84l-.07,0A3.24,3.24,0,0,1,75,756.56"/><path class="cls-12" d="M78.77,762.64c2.55,1.28,4.54,5.72,4.45,10,0,3.29-1.61,5.21-3.59,4.41l-.25-.12c-1.52-.78-2.73-3.3-2.81-5.83,0-.24,0-.47,0-.7.1-1.94,1.05-3.08,2.23-2.65a1.59,1.59,0,0,1,.27.12,4.76,4.76,0,0,1,1.75,3.85v.26c0,1.32-.71,2.07-1.51,1.73l-.07,0A3.12,3.12,0,0,1,78.09,771"/><path class="cls-13" d="M81.73,776.73c2.43,1.17,4.38,5.34,4.37,9.33,0,3.12-1.52,5-3.4,4.18a1.58,1.58,0,0,1-.23-.11c-1.42-.76-2.58-3.16-2.68-5.54,0-.23,0-.45,0-.67.09-1.79,1-2.82,2.1-2.4l.26.12a4.57,4.57,0,0,1,1.67,3.62v.24c0,1.23-.65,1.93-1.41,1.6l-.06,0a2.9,2.9,0,0,1-1.12-2.44"/><path class="cls-14" d="M84.72,790a6.91,6.91,0,0,1,2.91,3.37,12.77,12.77,0,0,1,1.28,5.35c0,3-1.37,4.7-3.17,3.95l-.23-.11c-1.36-.73-2.47-3-2.57-5.26q0-.31,0-.63c.1-1.63.93-2.56,2-2.16l.25.13A4.39,4.39,0,0,1,86.75,798v.23c0,1.13-.59,1.79-1.31,1.48l-.06,0a2.74,2.74,0,0,1-1.07-2.26"/><path class="cls-15" d="M87.66,802.42c2.16,1,3.93,4.63,4,8.14,0,2.79-1.3,4.45-3,3.71a.91.91,0,0,1-.22-.11c-1.27-.71-2.3-2.88-2.37-5a5.53,5.53,0,0,1,0-.59c.12-1.49.9-2.32,1.88-1.91l.24.12A4.15,4.15,0,0,1,89.62,810v.22c0,1-.57,1.62-1.23,1.34l-.06,0a2.6,2.6,0,0,1-1-2.12"/><path class="cls-9" d="M90.49,814.12c2,.9,3.73,4.28,3.82,7.55.07,2.62-1.18,4.17-2.8,3.46-1.29-.57-2.39-2.74-2.44-4.84,0-1.68.75-2.67,1.79-2.21a3.7,3.7,0,0,1,1.56,3.09c0,1.08-.48,1.71-1.14,1.42a2.36,2.36,0,0,1-1-2"/><path class="cls-10" d="M73,713.41c2.21-2.18,5.36-.35,7,4a12.87,12.87,0,0,1,.77,5.4A6.55,6.55,0,0,1,79.29,727c-1.38,1.42-3.42.31-4.55-2.51-.91-2.25-.64-5,.48-6.13.91-.9,2.2-.17,2.87,1.63.55,1.44.4,3.18-.3,3.91-.56.58-1.41.12-1.86-1"/><path class="cls-10" d="M73.41,708.09c.51-4.67,3.11-7.08,5.81-5.47,2.16,1.29,3.54,5.28,3.26,9-.26,2.94-1.89,4.54-3.64,3.54-1.4-.8-2.38-3.38-2.17-5.76.15-1.9,1.26-2.9,2.35-2.25a4.19,4.19,0,0,1,1.37,3.68c-.11,1.21-.78,1.86-1.5,1.44"/><path class="cls-10" d="M71.62,703.07a16.06,16.06,0,0,1-.79-6.84,8.21,8.21,0,0,1,2.21-5c1.86-1.65,4.3-.09,5.43,3.42,1,2.81.61,6.17-.85,7.53-1.16,1.08-2.75.14-3.54-2.14-.63-1.82-.41-4,.54-4.85.77-.68,1.75-.06,2.27,1.39a3.2,3.2,0,0,1-.35,3.09"/><path class="cls-10" d="M68.54,701.26a8.77,8.77,0,0,1-3.2-4.63,16.41,16.41,0,0,1-.61-6.94c.5-3.77,2.64-5.63,4.77-4.23,1.7,1.11,2.75,4.39,2.34,7.35-.32,2.37-1.69,3.61-3,2.75-1.09-.69-1.77-2.82-1.51-4.73.21-1.54,1.08-2.31,1.95-1.75a3.33,3.33,0,0,1,1,3"/><path class="cls-10" d="M66,703.76c-2.27,2.16-5.37.26-6.93-4.32a12.37,12.37,0,0,1-.56-5.62,6.8,6.8,0,0,1,1.77-4.13c1.48-1.35,3.44,0,4.36,2.87a8.48,8.48,0,0,1,.31,3.55,4.34,4.34,0,0,1-1.08,2.63c-.92.87-2.2.08-2.84-1.79-.47-1.5-.24-3.29.52-4s1.41,0,1.79,1.17"/><path class="cls-16" d="M70.56,716.49c-2.34.35-4.79-2.92-5.4-7.3s1-8.19,3.31-8.46,4.7,3,5.22,7.32S72.92,716.14,70.56,716.49Zm-.41-2.78c1.53-.22,2.41-2.66,2-5.46s-1.85-4.92-3.38-4.73-2.48,2.63-2.13,5.47S68.64,713.93,70.15,713.71Z"/><path class="cls-5" d="M173.33,430.18a2.85,2.85,0,0,1-1.51,1.67c-1.19.37-2.26-.84-2.84-2-4.39-8.31-2.74-18.55-5.3-27.57a37.24,37.24,0,0,1,4-15.76c.27-.55.57-1.09.87-1.62.9-1.58,2.16-3.23,3.95-3.39a4.19,4.19,0,0,1,3.19,1.35c2.18,2.14,2.57,5.46,2.78,8.51a113.22,113.22,0,0,1-.2,20.83A55.58,55.58,0,0,1,173.33,430.18Z"/><path class="cls-6" d="M173.33,430.18a2.85,2.85,0,0,1-1.51,1.67c-1.19.37-2.26-.84-2.84-2-4.39-8.31-2.74-18.55-5.3-27.57a37.24,37.24,0,0,1,4-15.76,74,74,0,0,0,2.42,7.8,174.63,174.63,0,0,0,8.17,17.88A55.58,55.58,0,0,1,173.33,430.18Z"/><path class="cls-5" d="M157.51,403.2c-.63,2.47-2,6.53-5.24,6.13-3.45-.43-3.32-4.21-3.25-6.76a89.6,89.6,0,0,0-2.66-24.52c-1-3.91-2.23-7.75-3.34-11.64a170.71,170.71,0,0,1-5.5-27.89,5.72,5.72,0,0,1,.15-2.73c.69-1.75,3-2.39,4.79-1.79.17.06.35.12.51.19a9.86,9.86,0,0,1,3.71,3.41,34.35,34.35,0,0,1,2,3.07c3.16,5.45,5,11.67,6.49,17.82C158.82,373.12,161.29,388.6,157.51,403.2Z"/><path class="cls-6" d="M154.47,392.05c-1.27-19.44-6.86-38.31-11.37-57.26,0-.2-.09-.4-.13-.6a9.86,9.86,0,0,1,3.71,3.41,34.35,34.35,0,0,1,2,3.07c.47,1.43.93,2.86,1.4,4.28.78,2.38,1.58,4.76,2.17,7.2a89.31,89.31,0,0,1,1.59,9.2C155.31,371.79,156.66,381.74,154.47,392.05Z"/><path class="cls-5" d="M161.07,402.48a5.32,5.32,0,0,1-1.18,2.59c-1.73,1.74-5.39.39-7.49-.89a76.31,76.31,0,0,0,1.69-16c0-16.62-4.27-33.33-8.14-49.49-.47-1.94-.62-4.6,1.25-5.31a3.16,3.16,0,0,1,1.9,0,9.62,9.62,0,0,1,5.56,4,30.11,30.11,0,0,1,3.49,7.11,53.92,53.92,0,0,1,2.29,7.39c1.2,5.77.46,11.73.49,17.62,0,.29,0,.6,0,.89C161.08,381.15,163.5,392,161.07,402.48Z"/><path class="cls-6" d="M158.09,381.68c.18-5.7.35-11.38.53-17.07.09-2.89.19-5.8,0-8.7a59.48,59.48,0,0,0-2.05-11.61c-.52-1.94-1.14-3.87-1.74-5.79a3.41,3.41,0,0,1-.17-1.11,30.11,30.11,0,0,1,3.49,7.11,53.92,53.92,0,0,1,2.29,7.39c1.2,5.77.46,11.73.49,17.62,0,.29,0,.6,0,.89A51.33,51.33,0,0,0,158.09,381.68Z"/><path class="cls-5" d="M170.23,356.87a13.67,13.67,0,0,1,.09,3.94c-.7,8.27-2.2,16.64-2.22,25v0a0,0,0,0,0,0,0c0,.75,0,1.53,0,2.3h0s0,0,0,0a50.35,50.35,0,0,0,1,8.89c1.79,8.6,4.83,16.85,7.17,25.3a95.93,95.93,0,0,1,2.39,10.81,59.85,59.85,0,0,1,.58,13.29,53.11,53.11,0,0,1-3.35,15.48,35,35,0,0,1-2.22,4.66,56.46,56.46,0,0,1-5.77,7.9c-1,1.16-2,2.09-2.92,3-8.61,10.79-23.31,20.16-35.84,31.64-18,16.49-54.39-19.92-38.68-29.12,7.82-4.57,49-32.58,51.75-34.32h0a331.08,331.08,0,0,1,6.63-46.94c0-.22.08-.44.14-.65,0,0,0-.06,0-.08.37-1.58,1-3.19,2.48-3.74a5.37,5.37,0,0,0,1.54-.63,2.52,2.52,0,0,0,.66-1.54c.11-.6.21-1.19.33-1.81h0c.06-.37.12-.71.19-1.07h0c.43-2.47.89-4.93,1.34-7.39h0c.7-3.89,1.41-7.77,2.1-11.64,0,0,0,0,0,0,.32-1.6.58-3.18.89-4.76,0,0,0,0,0,0h0s0,0,0-.06c.4-2.19.82-4.39,1.21-6.59a10.75,10.75,0,0,1,1-3.45l.08-.12a2.66,2.66,0,0,1,.21-.33C163.57,351.38,169.31,352.83,170.23,356.87Z"/><path class="cls-6" d="M175.92,462a34.24,34.24,0,0,1-2.22,4.65,55.94,55.94,0,0,1-5.78,7.9,44.68,44.68,0,0,1-5.62-4.84,74.37,74.37,0,0,1-6.43-7.52A21,21,0,0,0,166,465.83a12.75,12.75,0,0,0,4.09-.22A11.68,11.68,0,0,0,175.92,462Z"/><path class="cls-5" d="M154.19,431.33a2.81,2.81,0,0,0,1.81,1.34c1.23.13,2.05-1.27,2.4-2.48,2.66-9-1-18.73-.25-28.08a37.11,37.11,0,0,0-7.05-14.66q-.56-.72-1.17-1.41c-1.18-1.37-2.74-2.74-4.54-2.55a4.25,4.25,0,0,0-2.86,1.95c-1.71,2.54-1.43,5.87-1,8.9a114.19,114.19,0,0,0,4.3,20.38A55.56,55.56,0,0,0,154.19,431.33Z"/><path class="cls-6" d="M154.19,431.33a2.81,2.81,0,0,0,1.81,1.34c1.23.13,2.05-1.27,2.4-2.48,2.66-9-1-18.73-.25-28.08a37.11,37.11,0,0,0-7.05-14.66,71.54,71.54,0,0,1-.83,8.13,174.25,174.25,0,0,1-4.48,19.14A55.56,55.56,0,0,0,154.19,431.33Z"/><path class="cls-5" d="M164.37,401.76c1.11,2.29,3.23,6,6.35,5,3.3-1.11,2.42-4.79,1.85-7.27a89.81,89.81,0,0,1-2.23-24.56c.2-4,.65-8.05,1-12.07a170.82,170.82,0,0,0-.12-28.43,5.53,5.53,0,0,0-.68-2.65c-1-1.58-3.41-1.75-5.05-.81-.16.09-.31.19-.46.29a9.87,9.87,0,0,0-3,4.07c-.5,1.12-1,2.25-1.35,3.41-2,6-2.56,12.42-2.85,18.75C157.16,372.53,157.78,388.19,164.37,401.76Z"/><path class="cls-6" d="M165.16,390.23c-2.6-19.31-.84-38.91-.17-58.38,0-.2,0-.41,0-.61a9.87,9.87,0,0,0-3,4.07c-.5,1.12-1,2.25-1.35,3.41-.18,1.49-.35,3-.53,4.47-.3,2.49-.6,5-.71,7.49-.12,3.11.07,6.22.26,9.33C160.33,370.54,161,380.55,165.16,390.23Z"/><path class="cls-5" d="M160.74,401.76a5.24,5.24,0,0,0,1.67,2.3c2,1.37,5.35-.68,7.16-2.35a76.48,76.48,0,0,1-4.81-15.36c-3.27-16.29-2.39-33.51-1.79-50.12.08-2-.3-4.63-2.27-5a3.23,3.23,0,0,0-1.87.36,9.68,9.68,0,0,0-4.65,5.06,29.71,29.71,0,0,0-2,7.67,52.34,52.34,0,0,0-.79,7.69c0,5.89,1.86,11.59,3,17.37.05.28.11.58.16.87C156.52,380.85,156.29,392,160.74,401.76Z"/><path class="cls-6" d="M159.56,380.77q-2-8.31-3.89-16.62c-.66-2.82-1.33-5.65-1.71-8.53a58.82,58.82,0,0,1-.29-11.79c.13-2,.36-4,.57-6a3.35,3.35,0,0,0-.06-1.13,29.71,29.71,0,0,0-2,7.67,52.34,52.34,0,0,0-.79,7.69c0,5.89,1.86,11.59,3,17.37.05.28.11.58.16.87A52,52,0,0,1,159.56,380.77Z"/><path class="cls-5" d="M142.76,358.85a13.59,13.59,0,0,0,.69,3.88c2.32,8,5.44,15.88,7.11,24v0a0,0,0,0,1,0,0c.16.73.3,1.5.43,2.26h0a0,0,0,0,1,0,0,50.32,50.32,0,0,1,.76,8.93c-.06,8.78-1.42,17.46-2,26.21a97.21,97.21,0,0,0-.21,11.07,59.2,59.2,0,0,0,2.06,13.14A53.31,53.31,0,0,0,157.91,463a35.6,35.6,0,0,0,3.1,4.13,55.11,55.11,0,0,0,7.22,6.6,41.22,41.22,0,0,0,3.46,2.41c10.57,8.88,21.81,18.28,35.5,24.54C230.35,511.24,261.84,465,244.62,459c-8.57-2.93-16.49-2.94-24.93-6.25-2.57-1-28.94-11.17-31.95-12.33h0A330.88,330.88,0,0,0,172,395.73a6.65,6.65,0,0,0-.27-.61s0-.05,0-.07c-.68-1.48-1.63-2.93-3.17-3.18a4.92,4.92,0,0,1-1.63-.32,2.42,2.42,0,0,1-1-1.37c-.23-.57-.44-1.12-.68-1.71h0c-.13-.35-.26-.67-.4-1h0c-.91-2.33-1.84-4.66-2.77-7v0c-1.45-3.67-2.92-7.33-4.35-11,0,0,0,0,0,0-.62-1.5-1.19-3-1.8-4.49,0,0,0,0,0,0l0,0s0,0,0-.05c-.82-2.07-1.68-4.14-2.49-6.22a10.66,10.66,0,0,0-1.68-3.18l-.11-.1a1.8,1.8,0,0,0-.27-.28C148.21,352.16,142.86,354.71,142.76,358.85Z"/><path class="cls-6" d="M157.91,463a35.2,35.2,0,0,0,3.1,4.12,55.84,55.84,0,0,0,7.23,6.6,45.16,45.16,0,0,0,4.55-5.85,74.4,74.4,0,0,0,4.82-8.64,21,21,0,0,1-9.21,5.61,13,13,0,0,1-4.05.6A11.71,11.71,0,0,1,157.91,463Z"/><path class="cls-4" d="M83.05,527.15a31.06,31.06,0,0,1-34.89,37.09,31.06,31.06,0,1,1,34.89-37.09Z"/><path class="cls-4" d="M74.12,558.75c-2.88,2.41-11.23,9.06-11.23,9.06L29.23,512.64,32.36,510c.59-.5,59.49-31.17,59.49-31.17l49.78,20.65C110.55,530,91.41,544.21,74.12,558.75Z"/><path class="cls-4" d="M269.94,498a31.06,31.06,0,1,0,12-33.49A31.12,31.12,0,0,0,269.94,498Z"/><path class="cls-4" d="M282.26,519.87c17.62,4.93,29.82-1.43,29.82-1.43l-.8-57.81-4-.93c-.75-.18-72.76-3.18-72.76-3.18L205.19,500C246.75,513.06,260.51,513.79,282.26,519.87Z"/><path class="cls-17" d="M98.88,12.73S185-2.77,205.14,63.18c15.74,51.62.66,173.62.66,173.62l-9.87-1S258.63-2.77,98.88,12.73Z"/></g></g></svg>