<svg xmlns="http://www.w3.org/2000/svg" viewBox="0 0 444.88 843.4"><defs><style>.cls-1{fill:#050705;}.cls-2{fill:#2c2c2c;}.cls-3{fill:#02c6cb;}.cls-4{fill:#08a8b1;}.cls-5{fill:#fff;}.cls-6{fill:#162d47;}.cls-7{fill:#ffaf82;}.cls-8{fill:#f88968;}.cls-9{fill:#fbc0a4;}.cls-10{fill:#f8e8d8;}.cls-11{fill:#04bcbc;}</style></defs><g id="Capa_2" data-name="Capa 2"><g id="Información"><path class="cls-1" d="M77.63,843.4c17.88-87.61,31.18-222.48,31.18-222.48C76.62,606.18,25,592.75,25,592.75,7.89,690,3.76,843.4,3.76,843.4Z"/><path class="cls-2" d="M232.63,843.4s9.66-113.91-11.34-236.5l-89.78,14s1.09,50.77,17.37,222.48Z"/><path class="cls-2" d="M215.33,576.83s14.3,50.58,14.16,95.67c0,0-70,30.63-159.07-3.22C34,655.44,15.5,614.85,28.55,578.13c.15-.43.31-.87.47-1.3C29,576.83,142.91,572.15,215.33,576.83Z"/><path class="cls-3" d="M161.49,158.25s52,.45,75.63,22,.85,65-24.9,70.48-106-4.33-114.3-18.13S95.13,159.06,161.49,158.25Z"/><path class="cls-3" d="M241.42,610.41C163.22,658.86,86.79,654,9.73,606.9l41.65-383,45.71-6.12,3.66-.49,10.4-1.39L175,207.34,185.81,211l13.55,4.64,3.25,1.11L263,237.45,218,500.63Z"/><path class="cls-4" d="M156.81,251.12c45.76,0,56.52-40.29,56.63-40.69a1.69,1.69,0,1,0-3.27-.84c-.4,1.57-10.29,38.16-53.35,38.16a3.46,3.46,0,0,0-.72,0,1.69,1.69,0,0,0,0,3.38Z"/><path class="cls-4" d="M113.84,244.65a1.69,1.69,0,0,0,0-3.38c-.61,0-13.9-.6-17.28-18.6a1.68,1.68,0,1,0-3.31.63c3.9,20.8,20.36,21.34,20.52,21.35Z"/><path class="cls-4" d="M165.36,500s.26,35.88,8.39,68.84c0,0-85,13.79-133.13-12.37a226,226,0,0,1,1-66.93Z"/><path class="cls-5" d="M146.92,412.84h.14a1.63,1.63,0,0,0,1.5-1.78c-3.63-42.08,12.52-148.21,12.68-149.27a1.64,1.64,0,1,0-3.25-.5c-.17,1.07-16.37,107.59-12.71,150.05A1.66,1.66,0,0,0,146.92,412.84Z"/><path class="cls-5" d="M91.3,404.4h.14a1.63,1.63,0,0,0,1.5-1.78c-3.63-42.07,13-149,13.22-150.11a1.64,1.64,0,1,0-3.25-.51c-.17,1.08-16.92,108.43-13.25,150.9A1.64,1.64,0,0,0,91.3,404.4Z"/><path class="cls-6" d="M58.47,38.69S42.79,49,48.41,77.12,64.89,108.2,64.89,108.2,81.34,46,58.47,38.69Z"/><path class="cls-7" d="M119.6,172.2l3.07,35.44,1.41,16.25c20.91,14.5,53.52-7.33,53.52-7.33l1.21-55.7c-9.66-6.09-33.13,2.93-47.66,7.44C124.3,170.43,119.6,172.2,119.6,172.2Z"/><path class="cls-8" d="M119.6,172.2l3.07,35.44c23.85-6.28,43-40.16,43-40.16l-34.47.82C124.3,170.43,119.6,172.2,119.6,172.2Z"/><path class="cls-7" d="M51.71,80.39c0,1,0,2.12,0,3.19,0,.19,0,.38,0,.56,0,1,0,2.08.08,3.15.33,11,1.44,23.14,2.91,35.3.31,2.56.64,5.11,1,7.63.31,2.19.6,4.38.91,6.54.67,4.5,1.35,9,2,13.25.48,3,1,5.93,1.46,8.77a42.87,42.87,0,0,0,1.42,5.81A42.19,42.19,0,0,0,110,193c12.34-2.5,26-5.56,38.7-9.1l1.87-.51a212.4,212.4,0,0,0,27.51-9.53q1.51-2.17,2.91-4.4c8.12-13,13-27.56,15.85-42.65,1.14-6,2-12.13,2.58-18.25a10.94,10.94,0,0,1,.25-1.43c0-5.63-.08-11.25-.18-16.66A70.74,70.74,0,0,0,125.17,21.1C93.59,22.72,63.53,35,55.93,51.23,52.91,57.68,51.72,68.06,51.71,80.39Z"/><path class="cls-6" d="M181,169.44c8.12-13,13-27.56,15.84-42.64-4.48,0-10.34,1.41-18,4.94C178.89,131.74,177.17,154,181,169.44Z"/><path class="cls-6" d="M108.77,103.8c0,4.71,2.1,8.52,4.68,8.52s4.68-3.81,4.68-8.52-2.09-8.52-4.68-8.52S108.77,99.1,108.77,103.8Z"/><path class="cls-6" d="M60.39,103.8c0,4.71,2.1,8.52,4.68,8.52s4.68-3.81,4.68-8.52-2.09-8.52-4.68-8.52S60.39,99.1,60.39,103.8Z"/><path class="cls-6" d="M199.57,94.32s-15-9.77-27.65,7.67h-9.83s.56-20.19-4.21-31.15-23.6-10.67-26.4-23.59c0,0-46.07,22.18-72.57,8C-1,23.33,124.9-17.66,171,8.13,205.23,27.29,206.71,59.94,199.57,94.32Z"/><path class="cls-6" d="M132.39,89.66s-4.51-9.26-13.15-11.57c-8-2.15-13.73-.08-16.6,1.48a2.87,2.87,0,0,0-1.29,3.53h0a2.88,2.88,0,0,0,3.92,1.61C110.12,82.45,120.78,79.55,132.39,89.66Z"/><path class="cls-6" d="M51.71,80.39c0,1,0,2.12,0,3.19,0,.19,0,.38,0,.56a23.06,23.06,0,0,1,20-.2,2.88,2.88,0,0,0,2.63-5.13c-2.86-1.56-8.58-3.63-16.59-1.49A17.38,17.38,0,0,0,51.71,80.39Z"/><path class="cls-7" d="M171.92,102S187,83.76,199.57,94.32c13.88,11.64,3.25,51.12-25,50.22Z"/><path class="cls-8" d="M173.92,136a2.48,2.48,0,0,0,2.46-2.2c2.29-20,14.14-23,14.64-23.16a2.48,2.48,0,0,0-1.1-4.84c-.64.14-15.75,3.78-18.47,27.43a2.47,2.47,0,0,0,2.18,2.75A1.42,1.42,0,0,0,173.92,136Z"/><path class="cls-8" d="M189.76,123.33a2.48,2.48,0,0,0,1.86-4.13,14.12,14.12,0,0,0-13.27-3.83,2.48,2.48,0,1,0,1.07,4.85,9,9,0,0,1,8.48,2.28A2.48,2.48,0,0,0,189.76,123.33Z"/><path class="cls-8" d="M96.77,175.54a23.91,23.91,0,0,0,15.93-5.75,2.49,2.49,0,0,0-3.45-3.58c-.35.33-7.92,7.27-20.56,2.95a2.48,2.48,0,1,0-1.6,4.69A29.65,29.65,0,0,0,96.77,175.54Z"/><path class="cls-6" d="M95.66,103.8a20.1,20.1,0,1,1,20.1,20.1A20.12,20.12,0,0,1,95.66,103.8Zm3.31,0A16.79,16.79,0,1,0,115.76,87,16.81,16.81,0,0,0,99,103.8Z"/><path class="cls-6" d="M43.33,103.8a20.1,20.1,0,1,1,20.09,20.1A20.11,20.11,0,0,1,43.33,103.8Zm3.31,0A16.79,16.79,0,1,0,63.42,87,16.8,16.8,0,0,0,46.64,103.8Z"/><rect class="cls-6" x="133.42" y="95.61" width="38.01" height="3.31" transform="matrix(1, -0.08, 0.08, 1, -7.06, 12.07)"/><path class="cls-6" d="M96.58,102.3l1.92-2.7c-3.2-2.27-11-5.2-17.88,0l2,2.62C89.21,97.23,96.29,102.09,96.58,102.3Z"/><path class="cls-8" d="M84.85,131.19a2.48,2.48,0,0,0,1.5-4.46l-6.61-5,5.73-1.48a2.49,2.49,0,0,0,1.83-2l2.53-15.8a2.48,2.48,0,1,0-4.9-.79l-2.28,14.2-9.1,2.36a2.48,2.48,0,0,0-.88,4.38l10.67,8.14A2.5,2.5,0,0,0,84.85,131.19Z"/><path class="cls-8" d="M88.74,163.87c9.36,0,21.16-2.49,31.17-12.36a2.47,2.47,0,1,0-3.46-3.52c-17.57,17.32-42.22,8.77-42.47,8.68a2.46,2.46,0,0,0-1.66,4.64A52.46,52.46,0,0,0,88.74,163.87Z"/><path class="cls-4" d="M244.17,283.89a31.13,31.13,0,0,0,9.1,4.57,28.39,28.39,0,0,0,21.62-1.73,25.39,25.39,0,0,0,13-16.3c2.91-11.12-1.77-23.42-11.64-30.6a31.13,31.13,0,0,0-9.1-4.57c-15.26-4.72-30.8,3.36-34.63,18C229.63,264.41,234.31,276.71,244.17,283.89Z"/><path class="cls-4" d="M257.57,445l10.51-59.14c.91-3.53,22.33-86.81,20.66-123.1l-.14-3.08-56.81-2.57-.1,3c-1.38,41.18-9.95,102.83-11.54,111.13L203.57,420Z"/><path class="cls-3" d="M219.68,451.28a25.67,25.67,0,0,0,25,3.21c12.15-5.21,17.06-19.42,10.93-31.69a26.84,26.84,0,0,0-8.15-9.6,25.62,25.62,0,0,0-25-3.21,22,22,0,0,0-12.34,13.19,23.78,23.78,0,0,0,1.41,18.49A26.59,26.59,0,0,0,219.68,451.28Z"/><path class="cls-9" d="M83.41,469.4a12.63,12.63,0,1,0,15.38,9.09A12.63,12.63,0,0,0,83.41,469.4Z"/><path class="cls-7" d="M35.25,497.44c1.61,2.94,2,6.68,5.84,8.16,4.17,1.63,9.95-.62,14-1.53a306.34,306.34,0,0,0,36.56-10.9s-8.26-23.76-8.27-23.77c-.2-.59-11.59-3.49-12.79-4-5.43-2.31-9.74-7.26-14.68-10.55-5.21-3.47-10.06-7.77-15.88-10.23-7.24-3.06-8-.07-10.09,6.09-3.51,10.15-14.31,9.56-23.53,11.09C4,462.23,1,463,.2,465.37c-.7,2,.54,4.21,2.23,5.47s3.78,1.83,5.72,2.67a21.93,21.93,0,0,1,11.49,11.74c1.16,2.83,2,6.22,4.67,7.64s6.57.21,9,2.16A7.48,7.48,0,0,1,35.25,497.44Z"/><path class="cls-4" d="M208.18,458.76a30.36,30.36,0,1,0-6.77-34.11A30.47,30.47,0,0,0,208.18,458.76Z"/><path class="cls-4" d="M107.68,496.65c23.36-1.52,125.49-29.55,130.24-30.73l6.06-2.56L224,406.63l-3.81,1.23c-.72.22-17.87,5.76-46,19.4-7.14,3.45-90.79,42.14-90.79,42.14L80.51,497Z"/><path class="cls-7" d="M353.79,390.11c.41-1,12.73-7,14.29-7.89,4.89-2.84,10.39-6.49,15.55-8.56,3.9-1.55,8.51-1.71,11.91.66,2.15,1.5,3.61,3.84,5.36,5.84,4.66,5.3,10,6.61,16.48,7.32,7.2.8,14.09,3.88,20.87,6.51,3.16,1.23,6.84,3.4,6.62,6.95-.17,2.86-3,4.89-5.67,5.43-3.38.69-6.82-.2-10.24-.25s-7.34,1.09-8.9,4.33c-1.8,3.74.17,9-2.7,11.91s-7.76.62-11.74,1.46c-4.62,1-7.31,6.06-11.28,8.78-3.75,2.57-8.55,2.87-12.85,1.86-2.29-.53-39.56-14.36-39.44-14.66C342.05,419.78,353.75,390.2,353.79,390.11Z"/><path class="cls-7" d="M353.79,390.11c8,2.5,12.43,11.4,9.83,19.86s-11.21,13.3-19.24,10.8-12.43-11.39-9.83-19.86S345.76,387.61,353.79,390.11Z"/><path class="cls-10" d="M210.17,364.08A32,32,0,0,1,200,369a30.08,30.08,0,0,1-24-3.38,31.73,31.73,0,0,1-14.24-20.2,34.84,34.84,0,0,1,13.34-35.73,31.74,31.74,0,0,1,10.17-4.88,30,30,0,0,1,24,3.37,31.78,31.78,0,0,1,14.25,20.2A34.86,34.86,0,0,1,210.17,364.08Z"/><path class="cls-11" d="M334.81,425.79c-23.74-5.56-151.9-56.9-156.57-59L172.49,363l31.11-58,3.7,2c.7.36,17.31,9.23,43.73,28.71,6.69,4.93,102.43,42.5,102.43,42.5l-15,48.54Z"/><path class="cls-11" d="M67.82,288.85a38.56,38.56,0,0,0,9.6-9.14,40.18,40.18,0,0,0,7.73-28.45,37.39,37.39,0,0,0-13.64-25.32,35.41,35.41,0,0,0-42-1.58,38.73,38.73,0,0,0-9.6,9.14c-12.58,16.91-9.93,41,5.92,53.77A35.39,35.39,0,0,0,67.82,288.85Z"/><path class="cls-11" d="M216.46,314.3l-4.08-3.95C208.56,307.3,107,238.09,62.69,220.76l-3.75-1.47L19.1,280.12l16.63,20.4c48.75,23.82,128.16,56.55,137.38,63l3.2,2.25Z"/><path class="cls-11" d="M209.18,364.78a34.67,34.67,0,0,0,15.18-30.13c-.73-18.27-15.54-32.14-33-30.91A31.55,31.55,0,0,0,176.12,309a34.65,34.65,0,0,0-15.19,30.13,32.74,32.74,0,0,0,10.23,22.78A30,30,0,0,0,194,370,31.44,31.44,0,0,0,209.18,364.78Z"/></g></g></svg>