<svg xmlns="http://www.w3.org/2000/svg" viewBox="0 0 355.58 853.43"><defs><style>.cls-1{fill:#c12a02;}.cls-2{fill:#fff;}.cls-3{fill:#e2e2e2;}.cls-4{fill:#ffaf82;}.cls-5{fill:#f88968;}.cls-6{fill:#ffa378;}.cls-7{fill:#32324c;}.cls-8{fill:#821500;}</style></defs><g id="Capa_2" data-name="Capa 2"><g id="Información"><path class="cls-1" d="M309.43,816.09c-26.65,14-51.39,24.24-76.17,30.42a224.75,224.75,0,0,1-56.94,6.92,218.63,218.63,0,0,1-50-5.37c-26.51-6-52.61-16.78-81.58-32l11-227.56L54.54,323.1,121.93,305l20.28-5.41a130.13,130.13,0,0,1,68.22,0l22.83,6.13L298.1,323.1l-1.18,265.43Z"/><path class="cls-2" d="M233.26,305.72V846.51a224.75,224.75,0,0,1-56.94,6.92,218.63,218.63,0,0,1-50-5.37l-.09-13.46-.13-14.1-.28-32.74-.09-14.1L125.48,741l-.14-14.1-.22-32.7-.14-14-.27-32.7-.09-14-.28-32.74-.13-14.06-.28-32.74-.09-14-.27-32.79-.09-14-.27-32.84-.14-13.91-.27-32.83-.09-13.92-.28-32.79-.09-13.91-.27-32.88-.14-13.87V305l20.28-5.41a130.13,130.13,0,0,1,68.22,0l22.6,6.09Z"/><path class="cls-3" d="M233.26,320.12v13.74a328.27,328.27,0,0,1-55.8,4.55,395.88,395.88,0,0,1-55.39-4l-.14-13.87c25.79,3.73,67.76,7.14,111.1-.5Z"/><path class="cls-3" d="M233.26,359.23v13.83a323.07,323.07,0,0,1-55,4.55,385.7,385.7,0,0,1-55.85-4.14l-.09-13.92C148.17,363.42,190,367,233.26,359.23Z"/><path class="cls-3" d="M233.26,399.45v13.91a314,314,0,0,1-54.21,4.55,371,371,0,0,1-56.25-4.36l-.09-13.92C148.49,403.68,190.1,407.41,233.26,399.45Z"/><path class="cls-3" d="M233.26,446.38v13.91a306.08,306.08,0,0,1-53.53,4.55,359.67,359.67,0,0,1-56.52-4.55l-.14-13.91C148.85,450.56,190.24,454.43,233.26,446.38Z"/><path class="cls-3" d="M233.26,493.35v13.87a298.28,298.28,0,0,1-52.89,4.6,349.74,349.74,0,0,1-56.8-4.73l-.09-14C149.22,497.49,190.33,501.45,233.26,493.35Z"/><path class="cls-3" d="M233.26,540.24v13.91a287.19,287.19,0,0,1-52.26,4.6,346.18,346.18,0,0,1-57.07-4.87l-.09-14C149.54,544.42,190.46,548.52,233.26,540.24Z"/><path class="cls-3" d="M233.26,587.17v13.92a282.18,282.18,0,0,1-51.71,4.63,333.31,333.31,0,0,1-57.21-5l-.13-14.06C149.9,591.31,190.55,595.54,233.26,587.17Z"/><path class="cls-3" d="M233.26,634.1V648a272.79,272.79,0,0,1-51.16,4.68,319.45,319.45,0,0,1-57.39-5.28l-.09-14C150.26,638.24,190.69,642.56,233.26,634.1Z"/><path class="cls-3" d="M233.26,681v14a270.61,270.61,0,0,1-50.71,4.64,310.78,310.78,0,0,1-57.43-5.46l-.14-14C150.58,685.17,190.83,689.58,233.26,681Z"/><path class="cls-3" d="M233.26,728v13.92A263,263,0,0,1,183,746.61,303.16,303.16,0,0,1,125.48,741l-.14-14.1C151,732.05,190.92,736.6,233.26,728Z"/><path class="cls-3" d="M233.26,774.85v14a258.89,258.89,0,0,1-49.8,4.73,291.72,291.72,0,0,1-57.62-5.82l-.09-14.1C151.31,779,191.05,783.62,233.26,774.85Z"/><path class="cls-3" d="M233.26,821.78v14a254.45,254.45,0,0,1-49.39,4.73,288.9,288.9,0,0,1-57.62-5.91l-.13-14.1C151.63,825.91,191.19,830.64,233.26,821.78Z"/><path class="cls-4" d="M211.72,261.61l-1.17,22-1.47,27.63s-5.48,10.39-30.23,10.39-29.83-7.1-29.83-7.1l-1-12.26-3.33-40.7Z"/><path class="cls-5" d="M211.72,261.61l-1.17,22c-10.32,7.73-34.76,22.94-62.53,18.66l-3.33-40.7Z"/><path class="cls-6" d="M102.4,161.37s-19-18.55-34.11-6.45c-17.89,14.31.83,65.78,32.56,60.33Z"/><path class="cls-5" d="M91.34,202.44a3.13,3.13,0,0,1-3-2.88c-2-25.33-16.87-29.73-17.5-29.9a3.15,3.15,0,0,1-2.21-3.84,3.12,3.12,0,0,1,3.81-2.23c.8.21,19.74,5.45,22.16,35.47a3.14,3.14,0,0,1-2.88,3.38Z"/><path class="cls-5" d="M73.6,189.53a3.14,3.14,0,0,1-2.17-5.3A17.82,17.82,0,0,1,88.36,180,3.14,3.14,0,0,1,86.8,186,11.43,11.43,0,0,0,76,188.55,3.11,3.11,0,0,1,73.6,189.53Z"/><path class="cls-6" d="M247.32,161.37s19-18.55,34.11-6.45c17.89,14.31-.82,65.78-32.56,60.33Z"/><path class="cls-5" d="M258.39,202.44a3.14,3.14,0,0,0,3-2.88c2-25.33,16.87-29.73,17.5-29.9a3.16,3.16,0,0,0,2.21-3.84,3.12,3.12,0,0,0-3.81-2.23c-.81.21-19.74,5.45-22.16,35.47a3.14,3.14,0,0,0,2.88,3.38Z"/><path class="cls-5" d="M276.13,189.53a3.14,3.14,0,0,0,2.16-5.3A17.81,17.81,0,0,0,261.37,180a3.14,3.14,0,1,0,1.56,6.08,11.41,11.41,0,0,1,10.81,2.51A3.13,3.13,0,0,0,276.13,189.53Z"/><path class="cls-4" d="M175.81,283.25c-65.52,0-85.75-77.82-91.78-134.8C78.47,95.91,119.26,49.62,172.09,49h2.12c.88,0,1.75,0,2.62,0,52.18.69,92.82,45.73,88.31,97.72C260.14,204.47,241.31,283.25,175.81,283.25Z"/><path class="cls-7" d="M259,7.13c33.24,22.74,3.17,67.08,3.17,67.08s33.09,32.4-1,108.67l-6.07-1.23c3.87-24.43,1.55-54.16,0-58.84-4.61-13.94-29.08-21.37-27.82-36.45,0,0-75,23.45-115.6.42,0,0-3.2,19.32-14.32,31.51-9.31,10.19-4,45.7-2.81,61.06l-6.23.61c-3.7-15.65-12.71-43.82-13.68-52.13-.61-5.23-2.84-26-3.79-40.82a73,73,0,0,1,7.37-37.72c3.26-6.43,7.79-12.88,14-17.52C114.07,15.54,228.86-13.49,259,7.13Z"/><path class="cls-7" d="M145.16,161.27c0,6.55-2.91,11.86-6.51,11.86s-6.52-5.31-6.52-11.86,2.91-11.86,6.51-11.86S145.16,154.72,145.16,161.27Z"/><path class="cls-7" d="M112,135.92s6.27-12.88,18.3-16.11c11.15-3,19.11-.11,23.1,2.06a4,4,0,0,1,1.8,4.91h0a4,4,0,0,1-5.46,2.24C143,125.88,128.19,121.84,112,135.92Z"/><path class="cls-7" d="M209,161.27c0,6.55,2.91,11.86,6.51,11.86s6.52-5.31,6.52-11.86-2.91-11.86-6.51-11.86S209,154.72,209,161.27Z"/><path class="cls-7" d="M242.16,135.92s-6.27-12.88-18.3-16.11c-11.15-3-19.11-.11-23.1,2.06a4,4,0,0,0-1.8,4.91h0a4,4,0,0,0,5.45,2.24C211.16,125.88,226,121.84,242.16,135.92Z"/><path class="cls-5" d="M176,201.46a3.45,3.45,0,0,1-1.47-6.38l9.85-6.09-7.74-2.84a3.47,3.47,0,0,1-2.25-3L173,160.88a3.45,3.45,0,1,1,6.89-.41l1.2,20L193.39,185a3.46,3.46,0,0,1,.62,6.19L178.12,201A3.49,3.49,0,0,1,176,201.46Z"/><path class="cls-5" d="M190.57,235c-12.77,2.56-29.55,2.4-45.92-8.34a3.43,3.43,0,1,1,3.76-5.74c28.71,18.83,60,.42,60.33.23a3.43,3.43,0,1,1,3.54,5.88A73.27,73.27,0,0,1,190.57,235Z"/><path class="cls-5" d="M178.86,250a35,35,0,0,1-19-5,2.41,2.41,0,1,1,2.47-4.14c16.06,9.56,31.69.45,32.34.06a2.41,2.41,0,0,1,2.49,4.13A40.12,40.12,0,0,1,178.86,250Z"/><path class="cls-1" d="M63.81,633.42S-73.37,413,54.54,323.1l23.08-6.2S34,429.52,126,552.45c0,0,19.71,57.36,8.87,71.85C103.84,665.8,63.81,633.42,63.81,633.42Z"/><path class="cls-8" d="M68.37,408.68c1.1,4.12,2.39,8.17,3.77,12.19s2.84,8,4.31,12l2.31,5.93c.77,2,1.6,3.93,2.39,5.89s1.63,3.92,2.46,5.87,1.64,3.91,2.53,5.83l2.56,5.83L91.37,468c1.7,3.9,3.65,7.67,5.41,11.54L102.34,491c1.88,3.81,3.8,7.61,5.59,11.49-2.37-3.55-4.64-7.16-6.88-10.79s-4.33-7.36-6.35-11.12c-4.06-7.51-7.88-15.16-11.3-23-.88-1.95-1.68-3.93-2.49-5.91s-1.67-3.94-2.39-6-1.51-4-2.22-6-1.39-4-2-6.08-1.29-4.07-1.87-6.13-1.16-4.12-1.64-6.2A98.45,98.45,0,0,1,68.37,408.68Z"/><path class="cls-4" d="M30.85,540.39c.52,2.52,1.11,5.09,1.76,7.74.15.59.29,1.17.44,1.78l0,0c1.21,4.8,2.64,9.76,4.25,14.8h0C46.44,593,48.67,603.1,70.69,620c10.71,8.22,56.48,5.45,63.66-7,8.88-15.43,18.23-32.44,23.56-56.88,0,0,9.33-30.45,3.21-42.07s-19.24-12.25-19.24-12.25-.11-1.93-.29-4.81c-.42-7-1.17-19.43-1.49-23.53-1.79-22.31-22.21-28.85-26.86,6.7-.49-3-3.44-23.89-19.77-23.48-11.48.27-11.8,29.18-11.8,29.18s-15-22.9-24.49-18.17c-10.41,5.19-5.65,32.52-5.47,33.61-.66-.67-11.69-11.78-21.44-1.5C26.4,503.86,26.6,520,30.85,540.39Z"/><path class="cls-5" d="M30.85,540.39c.52,2.52,1.11,5.09,1.76,7.74,4.09,3.57,9.67,6.63,16.17,5.66,14-2.11,12-17.43,12-17.43s4.89,11.69,14,8.48S85,532.14,85,532.14s6.48,9.3,14.33,6.63,11.23-25.52,11.23-25.52-4.79,14.34-10.93,18.86S84.33,530.46,83.26,516c.13,1.58,1.06,16.41-8.1,21.72-9.44,5.44-18.76-15.23-19.25-16.35.19,1.28,3.86,24.6-6.08,27.5C43,550.84,35.73,545.65,30.85,540.39Z"/><path class="cls-5" d="M129.29,511.93s-20.76,9.2-23.8,25.67,23.68,22.64,43.26,13.41c0,0-8.17,11.31-26,10.48S97.9,543.7,101.64,535.05,111,518.94,129.29,511.93Z"/><path class="cls-5" d="M104.58,544.36S81,559.84,92.43,599.69c0,0-26.69-29,8.4-61.73Z"/><path class="cls-1" d="M291.76,633.42S429,413,301,323.1L278,316.9s43.66,112.62-48.37,235.55c0,0-19.71,57.36-8.87,71.85C251.74,665.8,291.76,633.42,291.76,633.42Z"/><path class="cls-8" d="M287.21,408.68a100.21,100.21,0,0,1-2.37,12.6c-.49,2.08-1.09,4.13-1.64,6.2s-1.25,4.09-1.87,6.13-1.35,4.06-2.05,6.08-1.48,4-2.22,6-1.59,4-2.39,6-1.61,4-2.49,5.91c-3.42,7.83-7.24,15.48-11.3,23-2,3.76-4.21,7.43-6.35,11.12s-4.52,7.24-6.88,10.79c1.79-3.88,3.71-7.68,5.59-11.49l5.56-11.48c1.76-3.87,3.71-7.64,5.4-11.54l2.68-5.77,2.55-5.83c.9-1.92,1.71-3.88,2.54-5.83s1.67-3.9,2.45-5.87,1.63-3.92,2.4-5.89l2.31-5.93c1.47-4,3-7.95,4.3-12S286.1,412.8,287.21,408.68Z"/><path class="cls-4" d="M320,540.39c-.52,2.52-1.11,5.09-1.75,7.74-.15.59-.3,1.17-.44,1.78l0,0c-1.21,4.8-2.64,9.76-4.25,14.8h0C304.38,593,302.14,603.1,280.13,620c-10.71,8.22-56.48,5.45-63.66-7-8.88-15.43-18.23-32.44-23.57-56.88,0,0-9.32-30.45-3.2-42.07s19.23-12.25,19.23-12.25.12-1.93.29-4.81c.43-7,1.17-19.43,1.49-23.53,1.8-22.31,22.22-28.85,26.86,6.7.5-3,3.44-23.89,19.77-23.48,11.49.27,11.81,29.18,11.81,29.18s15-22.9,24.48-18.17c10.41,5.19,5.66,32.52,5.47,33.61.66-.67,11.69-11.78,21.44-1.5C324.41,503.86,324.22,520,320,540.39Z"/><path class="cls-5" d="M320,540.39c-.52,2.52-1.11,5.09-1.75,7.74-4.1,3.57-9.67,6.63-16.17,5.66C288,551.68,290,536.36,290,536.36s-4.88,11.69-14,8.48-10.16-12.7-10.16-12.7-6.48,9.3-14.33,6.63-11.23-25.52-11.23-25.52,4.79,14.34,10.93,18.86,15.27-1.65,16.33-16.14c-.13,1.58-1.06,16.41,8.11,21.72,9.44,5.44,18.76-15.23,19.24-16.35-.18,1.28-3.85,24.6,6.08,27.5C307.81,550.84,315.09,545.65,320,540.39Z"/><path class="cls-5" d="M221.52,511.93s20.76,9.2,23.8,25.67S221.64,560.24,202.06,551c0,0,8.18,11.31,26,10.48s24.82-17.79,21.09-26.44S239.82,518.94,221.52,511.93Z"/><path class="cls-5" d="M246.23,544.36s23.64,15.48,12.15,55.33c0,0,26.69-29-8.39-61.73Z"/></g></g></svg>