<svg xmlns="http://www.w3.org/2000/svg" xmlns:xlink="http://www.w3.org/1999/xlink" width="132.1" height="132.1" xml:space="preserve"><defs><path id="a" d="M.8.8h130.4v130.4H.8z"/></defs><clipPath id="b"><use xlink:href="#a" overflow="visible"/></clipPath><g clip-path="url(#b)"><defs><path id="c" d="M.8.8h130.4v130.4H.8z"/></defs><clipPath id="d"><use xlink:href="#c" overflow="visible"/></clipPath><path clip-path="url(#d)" fill="#808285" d="M66 131.3C30 131.3.8 102 .8 66.1.8 30.1 30.1.9 66 .9c36 0 65.2 29.3 65.2 65.2.1 35.9-29.2 65.2-65.2 65.2"/></g><defs><path id="e" d="M0 66c0 36.4 29.6 66 66 66s66-29.6 66-66S102.4 0 66 0 0 29.6 0 66"/></defs><clipPath id="f"><use xlink:href="#e" overflow="visible"/></clipPath><linearGradient id="g" gradientUnits="userSpaceOnUse" x1="-1050.248" y1="596.383" x2="-1049.248" y2="596.383" gradientTransform="matrix(132.0758 0 0 -132.0758 138712.344 78833.797)"><stop offset="0" style="stop-color:#fff"/><stop offset="1" style="stop-color:#d1d3d4"/></linearGradient><path clip-path="url(#f)" fill="url(#g)" d="M0 0h132.1v132.1H0z"/><defs><path id="h" d="M3.3 66c0 34.6 28.1 62.7 62.7 62.7s62.7-28.1 62.7-62.7S100.6 3.3 66 3.3 3.3 31.4 3.3 66"/></defs><clipPath id="i"><use xlink:href="#h" overflow="visible"/></clipPath><linearGradient id="j" gradientUnits="userSpaceOnUse" x1="-1050.248" y1="596.383" x2="-1049.248" y2="596.383" gradientTransform="matrix(125.472 0 0 -125.472 131780.031 74895.406)"><stop offset="0" style="stop-color:#d1d3d4"/><stop offset="1" style="stop-color:#fff"/></linearGradient><path clip-path="url(#i)" fill="url(#j)" d="M3.3 3.3h125.5v125.5H3.3z"/><defs><path id="k" d="M17.3 17.3h111.8v111.8H17.3z"/></defs><clipPath id="l"><use xlink:href="#k" overflow="visible"/></clipPath><g opacity=".063" clip-path="url(#l)"><defs><path id="m" d="M29.3 29.3h99v99h-99z"/></defs><clipPath id="n"><use xlink:href="#m" overflow="visible"/></clipPath><path clip-path="url(#n)" fill="#F7F7F7" d="M128.2 78.7c0 27.3-22.2 49.5-49.5 49.5S29.2 106 29.2 78.7s22.2-49.5 49.5-49.5 49.5 22.2 49.5 49.5"/></g><g opacity=".125" clip-path="url(#l)"><defs><path id="o" d="M28.5 28.5h98.8v98.9H28.5z"/></defs><clipPath id="p"><use xlink:href="#o" overflow="visible"/></clipPath><path clip-path="url(#p)" fill="#EFEFF0" d="M127.3 77.9c0 27.3-22.1 49.4-49.4 49.4s-49.4-22.1-49.4-49.4c0-27.3 22.1-49.4 49.4-49.4s49.4 22.1 49.4 49.4"/></g><g opacity=".188" clip-path="url(#l)"><defs><path id="q" d="M27.7 27.7h98.8v98.7H27.7z"/></defs><clipPath id="r"><use xlink:href="#q" overflow="visible"/></clipPath><path clip-path="url(#r)" fill="#E7E8E8" d="M126.4 77c0 27.3-22.1 49.4-49.4 49.4-27.3 0-49.4-22.1-49.4-49.4 0-27.3 22.1-49.4 49.4-49.4 27.3.1 49.4 22.2 49.4 49.4"/></g><g opacity=".25" clip-path="url(#l)"><defs><path id="s" d="M26.9 26.9h98.6v98.6H26.9z"/></defs><clipPath id="t"><use xlink:href="#s" overflow="visible"/></clipPath><path clip-path="url(#t)" fill="#DFE0E1" d="M125.5 76.2c0 27.2-22.1 49.3-49.3 49.3s-49.3-22.1-49.3-49.3C26.9 49 49 26.9 76.2 26.9s49.3 22.1 49.3 49.3"/></g><g opacity=".313" clip-path="url(#l)"><defs><path id="u" d="M26.1 26.1h98.5v98.5H26.1z"/></defs><clipPath id="v"><use xlink:href="#u" overflow="visible"/></clipPath><path clip-path="url(#v)" fill="#D7D8D9" d="M124.6 75.4c0 27.2-22.1 49.3-49.3 49.3-27.2 0-49.3-22.1-49.3-49.3 0-27.2 22.1-49.3 49.3-49.3 27.3 0 49.3 22 49.3 49.3"/></g><g opacity=".375" clip-path="url(#l)"><defs><path id="w" d="M25.3 25.3h98.4v98.4H25.3z"/></defs><clipPath id="x"><use xlink:href="#w" overflow="visible"/></clipPath><path clip-path="url(#x)" fill="#CFD0D1" d="M123.7 74.5c0 27.2-22 49.2-49.2 49.2-27.2 0-49.2-22-49.2-49.2 0-27.2 22-49.2 49.2-49.2 27.2 0 49.2 22 49.2 49.2"/></g><g opacity=".438" clip-path="url(#l)"><defs><path id="y" d="M24.5 24.5h98.3v98.3H24.5z"/></defs><clipPath id="z"><use xlink:href="#y" overflow="visible"/></clipPath><path clip-path="url(#z)" fill="#C7C8CA" d="M122.8 73.7c0 27.2-22 49.2-49.2 49.2-27.2 0-49.2-22-49.2-49.2 0-27.2 22-49.2 49.2-49.2 27.2 0 49.2 22 49.2 49.2"/></g><g opacity=".5" clip-path="url(#l)"><defs><path id="A" d="M23.7 23.7h98.2v98.2H23.7z"/></defs><clipPath id="B"><use xlink:href="#A" overflow="visible"/></clipPath><path clip-path="url(#B)" fill="#C0C1C2" d="M121.9 72.8c0 27.1-22 49.1-49.1 49.1s-49.1-22-49.1-49.1 22-49.1 49.1-49.1 49.1 22 49.1 49.1"/></g><g opacity=".563" clip-path="url(#l)"><defs><path id="C" d="M22.9 22.9H121V121H22.9z"/></defs><clipPath id="D"><use xlink:href="#C" overflow="visible"/></clipPath><path clip-path="url(#D)" fill="#B8B9BA" d="M121 72c0 27.1-22 49.1-49.1 49.1S22.8 99.1 22.8 72s22-49.1 49.1-49.1c27.2 0 49.1 22 49.1 49.1"/></g><g opacity=".625" clip-path="url(#l)"><defs><path id="E" d="M22.1 22.1h98v98h-98z"/></defs><clipPath id="F"><use xlink:href="#E" overflow="visible"/></clipPath><path clip-path="url(#F)" fill="#B0B1B3" d="M120.1 71.1c0 27.1-21.9 49-49 49s-49-21.9-49-49 21.9-49 49-49 49 21.9 49 49"/></g><g opacity=".688" clip-path="url(#l)"><defs><path id="G" d="M21.3 21.3h97.9v97.9H21.3z"/></defs><clipPath id="H"><use xlink:href="#G" overflow="visible"/></clipPath><path clip-path="url(#H)" fill="#A8A9AB" d="M119.2 70.3c0 27-21.9 49-49 49s-49-21.9-49-49c0-27 21.9-49 49-49s49 21.9 49 49"/></g><g opacity=".75" clip-path="url(#l)"><defs><path id="I" d="M20.5 20.5h97.8v97.8H20.5z"/></defs><clipPath id="J"><use xlink:href="#I" overflow="visible"/></clipPath><path clip-path="url(#J)" fill="#A0A1A4" d="M118.3 69.4c0 27-21.9 48.9-48.9 48.9S20.5 96.4 20.5 69.4s21.9-48.9 48.9-48.9 48.9 21.9 48.9 48.9"/></g><g opacity=".813" clip-path="url(#l)"><defs><path id="K" d="M19.7 19.7h97.7v97.7H19.7z"/></defs><clipPath id="L"><use xlink:href="#K" overflow="visible"/></clipPath><path clip-path="url(#L)" fill="#98999C" d="M117.4 68.6c0 27-21.9 48.9-48.9 48.9S19.6 95.6 19.6 68.6s21.9-48.9 48.9-48.9c27.1 0 48.9 21.9 48.9 48.9"/></g><g opacity=".875" clip-path="url(#l)"><defs><path id="M" d="M18.9 18.9h97.6v97.6H18.9z"/></defs><clipPath id="N"><use xlink:href="#M" overflow="visible"/></clipPath><path clip-path="url(#N)" fill="#909294" d="M116.5 67.7c0 27-21.9 48.8-48.8 48.8-27 0-48.8-21.9-48.8-48.8 0-27 21.9-48.8 48.8-48.8 27 0 48.8 21.9 48.8 48.8"/></g><g opacity=".938" clip-path="url(#l)"><defs><path id="O" d="M18.1 18.1h97.5v97.5H18.1z"/></defs><clipPath id="P"><use xlink:href="#O" overflow="visible"/></clipPath><path clip-path="url(#P)" fill="#888A8D" d="M115.6 66.9c0 26.9-21.8 48.8-48.8 48.8-26.9 0-48.8-21.8-48.8-48.8.1-26.9 22-48.8 48.9-48.8s48.7 21.9 48.7 48.8"/></g><g clip-path="url(#l)"><defs><path id="Q" d="M17.3 17.3h97.4v97.4H17.3z"/></defs><clipPath id="R"><use xlink:href="#Q" overflow="visible"/></clipPath><path clip-path="url(#R)" fill="#808285" d="M114.7 66c0 26.9-21.8 48.7-48.7 48.7-26.9 0-48.7-21.8-48.7-48.7 0-26.9 21.8-48.7 48.7-48.7 26.9 0 48.7 21.8 48.7 48.7"/></g><defs><path id="S" d="M16.5 66c0 27.4 22.2 49.5 49.5 49.5s49.5-22.2 49.5-49.5c0-27.4-22.2-49.5-49.5-49.5S16.5 38.7 16.5 66"/></defs><clipPath id="T"><use xlink:href="#S" overflow="visible"/></clipPath><linearGradient id="U" gradientUnits="userSpaceOnUse" x1="-1050.248" y1="596.383" x2="-1049.248" y2="596.383" gradientTransform="matrix(99.0568 0 0 -99.0568 104050.766 59141.855)"><stop offset="0" style="stop-color:#f0500f"/><stop offset="1" style="stop-color:#df1d17"/></linearGradient><path clip-path="url(#T)" fill="url(#U)" d="M16.5 16.5h99.1v99.1H16.5z"/><defs><path id="V" d="M24.8 66c0 22.8 18.5 41.3 41.3 41.3 22.8 0 41.3-18.5 41.3-41.3 0-22.8-18.5-41.3-41.3-41.3-22.8.1-41.3 18.6-41.3 41.3"/></defs><clipPath id="W"><use xlink:href="#V" overflow="visible"/></clipPath><linearGradient id="X" gradientUnits="userSpaceOnUse" x1="-1050.248" y1="596.383" x2="-1049.248" y2="596.383" gradientTransform="matrix(82.5474 0 0 -82.5474 86719.977 49295.887)"><stop offset="0" style="stop-color:#df1d17"/><stop offset="1" style="stop-color:#f0500f"/></linearGradient><path clip-path="url(#W)" fill="url(#X)" d="M24.8 24.8h82.5v82.5H24.8z"/><g opacity=".8"><defs><path id="Y" d="M39.7 46.3h33.8v44.6H39.7z"/></defs><clipPath id="Z"><use xlink:href="#Y" overflow="visible"/></clipPath><path clip-path="url(#Z)" fill="#A7A9AC" d="M52.3 81s2 1 4.4 2.4l12.4 6.9c2.4 1.3 4.4.2 4.4-2.6V49.4c0-2.8-2-3.9-4.4-2.6l-12.4 6.9c-2.4 1.3-4.4 2.4-4.4 2.4s-2.2-.1-5-.1h-2.6c-2.8 0-5 1.7-5 3.7v17.6c0 2 2.2 3.7 5 3.7h7.6"/></g><path fill="#FFF" d="M49.8 78.5s2 1 4.4 2.4l12.4 6.9c2.4 1.3 4.4.2 4.4-2.6V46.9c0-2.8-2-3.9-4.4-2.6l-12.4 6.9c-2.4 1.3-4.4 2.4-4.4 2.4s-2.2-.1-5-.1h-2.6c-2.8 0-5 1.7-5 3.7v17.6c0 2 2.2 3.7 5 3.7h7.6"/><g opacity=".8"><defs><path id="aa" d="M77.4 58.5h20v20h-20z"/></defs><clipPath id="ab"><use xlink:href="#aa" overflow="visible"/></clipPath><path clip-path="url(#ab)" fill="#A7A9AC" d="M89.9 66v-5c0-1.4-1.1-2.5-2.5-2.5s-2.5 1.1-2.5 2.5v5h-5c-1.4 0-2.5 1.1-2.5 2.5s1.1 2.5 2.5 2.5h5v5c0 1.4 1.1 2.5 2.5 2.5.7 0 1.3-.3 1.8-.7.5-.5.7-1.1.7-1.8v-5h5c.7 0 1.3-.3 1.8-.7.5-.5.7-1.1.7-1.8 0-1.4-1.1-2.5-2.5-2.5h-5z"/></g><path fill="#FFF" d="M87.4 63.5v-5c0-1.4-1.1-2.5-2.5-2.5s-2.5 1.1-2.5 2.5v5h-5c-1.4 0-2.5 1.1-2.5 2.5s1.1 2.5 2.5 2.5h5v5c0 1.4 1.1 2.5 2.5 2.5.7 0 1.3-.3 1.8-.7.5-.5.7-1.1.7-1.8v-5h5c.7 0 1.3-.3 1.8-.7.5-.5.7-1.1.7-1.8 0-1.4-1.1-2.5-2.5-2.5h-5z"/></svg>