<svg xmlns="http://www.w3.org/2000/svg" xmlns:xlink="http://www.w3.org/1999/xlink" width="213.4" height="201" xml:space="preserve"><g opacity=".26"><defs><path id="a" d="M0 0h213.4v201H0z"/></defs><clipPath id="b"><use xlink:href="#a" overflow="visible"/></clipPath><path clip-path="url(#b)" fill="#535FF2" d="M207.9 111.3 94.6 198.1c-8.2 6.3-20.2 1.7-22.1-8.4L42.2 33C40.1 21.7 51.7 12.8 62 17.8l143.5 69.9c9.4 4.5 10.6 17.3 2.4 23.6"/><path clip-path="url(#b)" fill="#FFF" d="M46.9 190.1c-2 0-4-.4-5.9-1.1-5.4-2.1-9.3-6.7-10.4-12.4L.3 19.8C-.9 13.6 1.5 7.3 6.5 3.5c5-3.9 11.7-4.5 17.4-1.8l143.6 69.9c5.2 2.5 8.7 7.5 9.3 13.3.6 5.8-1.8 11.3-6.4 14.9L57 186.7c-3 2.2-6.5 3.4-10.1 3.4M16.6 5.4c-2.4 0-4.7.8-6.8 2.4-3.4 2.6-5 6.7-4.2 11l30.2 156.8c.7 3.8 3.4 7 7 8.3 3.7 1.4 7.7.8 10.8-1.6L167 95.5c3.1-2.4 4.7-6.1 4.3-10-.4-3.9-2.7-7.2-6.2-8.9L21.6 6.6c-1.6-.8-3.3-1.2-5-1.2m152.1 92.2z"/></g></svg>