<?xml version="1.0" encoding="utf-8"?>
<!-- Generator: Adobe Illustrator 18.1.1, SVG Export Plug-In . SVG Version: 6.00 Build 0)  -->
<svg version="1.1" id="Layer_1" xmlns="http://www.w3.org/2000/svg" xmlns:xlink="http://www.w3.org/1999/xlink" x="0px" y="0px"
	 viewBox="0 0 186 196.1" enable-background="new 0 0 186 196.1" xml:space="preserve">
<path fill="none" d="M1702.4,712"/>
<path fill="none" d="M1702.4,712"/>
<path fill="none" d="M1702.4,712"/>
<path fill="none" d="M1702.4,712"/>
<path fill="none" d="M1702.4,712"/>
<path fill="none" d="M1702.4,712"/>
<path fill="none" d="M1702.4,712"/>
<path fill="none" d="M1702.4,712"/>
<path fill="none" d="M1702.4,712"/>
<path fill="none" d="M1702.4,712"/>
<path fill="none" d="M1702.4,712"/>
<path fill="none" d="M1702.4,712"/>
<path fill="none" d="M1702.4,712"/>
<path fill="none" d="M1702.4,712"/>
<path fill="none" d="M1702.4,712"/>
<path fill="none" d="M1702.4,712"/>
<path fill="none" d="M952,0"/>
<path fill="none" d="M-968,0"/>
<path fill="none" d="M952,0"/>
<path fill="none" d="M-968,0"/>
<path fill="none" d="M952,0"/>
<path fill="none" d="M-968,0"/>
<g opacity="0.26">
	<g>
		<defs>
			<rect id="SVGID_1_" x="-36.9" y="-13.7" width="213.4" height="201"/>
		</defs>
		<clipPath id="SVGID_2_">
			<use xlink:href="#SVGID_1_"  overflow="visible"/>
		</clipPath>
		<path clip-path="url(#SVGID_2_)" fill="#739FD4" d="M171,97.6L57.7,184.5c-8.2,6.3-20.2,1.7-22.1-8.4L5.3,19.3
			C3.2,8,14.8-0.9,25.1,4.1L168.7,74C178,78.6,179.2,91.3,171,97.6"/>
		<path clip-path="url(#SVGID_2_)" fill="#FFFFFF" d="M10,176.4c-2,0-4-0.4-5.9-1.1c-5.4-2.1-9.3-6.7-10.4-12.4L-36.6,6.2
			c-1.2-6.2,1.2-12.5,6.2-16.4c5-3.9,11.7-4.5,17.4-1.8l143.6,69.9c5.2,2.5,8.7,7.5,9.3,13.3c0.6,5.8-1.8,11.3-6.4,14.9L20.1,173
			C17.1,175.3,13.6,176.4,10,176.4 M-20.3-8.2c-2.4,0-4.7,0.8-6.8,2.4c-3.4,2.6-5,6.7-4.2,11L-1,161.9c0.7,3.8,3.4,7,7,8.3
			c3.7,1.4,7.7,0.8,10.8-1.6l113.3-86.9c3.1-2.4,4.7-6.1,4.3-10c-0.4-3.9-2.7-7.2-6.2-8.9L-15.3-7.1C-16.9-7.8-18.6-8.2-20.3-8.2
			 M131.8,84L131.8,84L131.8,84z"/>
	</g>
</g>
<path fill="none" d="M952,0"/>
<path fill="none" d="M-968,0"/>
<path fill="none" d="M-968,0"/>
<path fill="none" d="M952,0"/>
</svg>
