<svg xmlns="http://www.w3.org/2000/svg" viewBox="0 0 199.8 681.5"><defs><style>.cls-1{fill:#f9bb9c;}.cls-2{fill:#f99c80;}.cls-3{fill:#0188e5;}</style></defs><g id="Capa_2" data-name="Capa 2"><g id="Información"><path class="cls-1" d="M75.07,316.33s-22.75-30.77-36.13-61.39S10.28,186.73,2.38,167.7c-9.51-22.89,11.56-30.19,26.44.75s25,43.46,25,43.46S26.19,67.09,35,46.51C51,8.89,59.45,85.72,77.58,143.78c0,0-3.3-130.31,15.13-142.62,24.18-16.16,27.72,141.7,27.72,141.7s14.7-116.8,28.41-113.09C164.14,33.9,163.7,155.3,163.7,155.3S180.9,76,189.11,81.65c16.25,11.28,19.45,204.53-30.34,265.86C158.77,347.51,89.39,329.19,75.07,316.33Z"/><path class="cls-2" d="M67.15,170s60.82-14.15,109.31,17.7C176.46,187.66,146.6,137,67.15,170Z"/><path class="cls-2" d="M114.69,211.86s32,65.56-26.65,92.19C88,304.05,163.67,295.34,114.69,211.86Z"/><path class="cls-3" d="M76.15,318.73s-14,153.07-33,260.94,152.72,166.78,147.93-14.36c-3.63-137.16-11.56-251.72-11.56-251.72C145.46,331,111,331.89,76.15,318.73Z"/></g></g></svg>