<svg xmlns="http://www.w3.org/2000/svg" viewBox="0 0 349.51 800.79"><defs><style>.cls-1,.cls-9{fill:#32324c;}.cls-1{opacity:0.1;}.cls-2{fill:#016a9c;}.cls-3{fill:#d53a65;}.cls-4{fill:#b0224b;}.cls-5{fill:#fff;}.cls-6{fill:#1d86a6;}.cls-7{fill:#ffaf82;}.cls-8{fill:#1f2232;}.cls-10{fill:#434361;}.cls-11{fill:#009762;}.cls-12{fill:#007054;}.cls-13{fill:#f88968;}.cls-14{fill:#920e08;}.cls-15{fill:#f85c66;}</style></defs><g id="Capa_2" data-name="Capa 2"><g id="Información"><ellipse class="cls-1" cx="159.7" cy="780.7" rx="132.39" ry="20.09"/><path class="cls-2" d="M210.56,573.81,196.05,749.13H170.47c-5.92-68.33-18.68-158.76,1.3-183.07-35.36-82.51-24.91-166-24.91-166,19.52-8.94,50-19.07,50-19.07C207.29,440,210.56,573.81,210.56,573.81Z"/><path class="cls-3" d="M255.44,790.46H171.79a7.74,7.74,0,0,1-7.68-6.71,8,8,0,0,1,0-1.63l3.4-43.93a48.51,48.51,0,0,1,8.35-2.76,8.46,8.46,0,0,0,6.2-5.63c.06-.21.12-.42.17-.64,1.92-8.45,14.11-11.14,16.37-2.88.29,1.07.54,2.11.76,3.11.05.24.1.5.15.73.36,1.78.62,3.42.81,4.85a.28.28,0,0,1,0,.09,46.38,46.38,0,0,1,.42,6q1.65,2.12,3.21,4.15l1.55,2c1.1,1.43,2.16,2.83,3.22,4.16.48.63,1,1.24,1.45,1.84,1.16,1.45,2.3,2.83,3.45,4.11.51.59,1,1.16,1.56,1.7,4.31,4.54,8.66,7.63,13.8,8.35,9.07,1.24,23.89,2.24,31.05,15.55a4.81,4.81,0,0,1,.36.85A5.16,5.16,0,0,1,255.44,790.46Z"/><path class="cls-4" d="M255.44,790.46H171.79a7.74,7.74,0,0,1-7.68-6.71h96.25A5.16,5.16,0,0,1,255.44,790.46Z"/><path class="cls-5" d="M205.47,747.19c-1,1.43-2.95,3.15-6.93,4.74-.68.28-1.41.55-2.21.81l-.73-2.19c.8-.26,1.51-.52,2.16-.78,4.57-1.85,5.82-3.66,6.16-4.59Z"/><circle class="cls-5" cx="195.96" cy="751.64" r="2.59"/><path class="cls-5" d="M210.14,753.19a16.32,16.32,0,0,1-5.73,3.6c-.8.35-1.67.67-2.65,1L201,755.6c.91-.3,1.72-.6,2.44-.9a13.24,13.24,0,0,0,5.21-3.35C209.17,752,209.65,752.59,210.14,753.19Z"/><path class="cls-5" d="M204.42,756.69a2.6,2.6,0,1,1-2.6-2.59A2.59,2.59,0,0,1,204.42,756.69Z"/><path class="cls-5" d="M215.15,759a16.45,16.45,0,0,1-5.55,3.45c-.81.35-1.7.69-2.69,1l-.71-2.19c.91-.3,1.72-.61,2.46-.92a14.18,14.18,0,0,0,4.93-3.05C214.1,757.89,214.62,758.46,215.15,759Z"/><path class="cls-5" d="M209.61,762.36a2.6,2.6,0,1,1-2.6-2.59A2.61,2.61,0,0,1,209.61,762.36Z"/><path class="cls-5" d="M200.28,735a57.75,57.75,0,0,0-7.46.42l.05-4.19a19,19,0,0,1,6.6-1.08C199.83,731.9,200.09,733.54,200.28,735Z"/><path class="cls-6" d="M154.39,400.07s-6,93.56-18.3,174.11c-2.62,17.22-5.84,127.56-13.8,175H96.68L91.75,576.94S77.91,467,90.65,392.68Z"/><path class="cls-3" d="M144.73,784.61c-.74,14.74-46.82,9.67-54.19,5.24-2.85-1.71-4-5-4.26-9C85.92,774.5,88,766.37,89.82,760c3-10.38,2.55-10.19,4.59-17.29,0,0-.53-11.54,14.57-15.94s20.64,24.32,23.22,29.85c2.36,5.06,11.53,12,12.48,24.45A29.76,29.76,0,0,1,144.73,784.61Z"/><path class="cls-5" d="M100.78,752l-1.2-1.85c.56-.37,13.88-8.91,25.48-3.83l-.89,2C113.66,743.77,100.91,752,100.78,752Z"/><path class="cls-5" d="M102.1,764.86,100.89,763c.56-.36,13.89-8.9,25.48-3.82l-.89,2C115,756.59,102.23,764.77,102.1,764.86Z"/><path class="cls-5" d="M101.44,758.44l-1.21-1.85c.56-.36,13.89-8.91,25.48-3.82l-.88,2C114.31,750.18,101.57,758.36,101.44,758.44Z"/><path class="cls-5" d="M102.54,751.45a2.49,2.49,0,1,1-2.49-2.49A2.49,2.49,0,0,1,102.54,751.45Z"/><path class="cls-5" d="M102.67,757.53a2.49,2.49,0,1,1-2.49-2.49A2.5,2.5,0,0,1,102.67,757.53Z"/><path class="cls-5" d="M104,763.61a2.49,2.49,0,1,1-2.49-2.49A2.48,2.48,0,0,1,104,763.61Z"/><path class="cls-5" d="M128.42,760a2.49,2.49,0,1,1-2.49-2.49A2.49,2.49,0,0,1,128.42,760Z"/><circle class="cls-5" cx="125.27" cy="753.38" r="2.49"/><path class="cls-5" d="M127.1,746.75a2.49,2.49,0,1,1-2.49-2.49A2.49,2.49,0,0,1,127.1,746.75Z"/><path class="cls-4" d="M144.73,784.61c-.74,14.74-46.82,9.67-54.19,5.24-2.85-1.71-4-5-4.26-9,4.84,2.77,13.37,6.21,26.12,6.44,15.63.28,26.9-2.88,32.28-6.24A29.76,29.76,0,0,1,144.73,784.61Z"/><path class="cls-5" d="M115.5,731.31s-7-.74-13,2.58l.67,4.66s8.35-2.45,13.88-2.08A11,11,0,0,0,115.5,731.31Z"/><path class="cls-6" d="M93,373.23c-2.53,13.36-4.74,35.68,2,58.12,0,0,47,11.68,80.12-14.59,21.65-17.19,22.67-37.31,22.41-43.53Z"/><path class="cls-7" d="M177.86,147.22s27.68,61.87,28.54,108.57a245.61,245.61,0,0,1,29.94,12.35c15.12,7.53,62.61,18.35,62.61,18.35l-5.28,17.71S222,298,188,278.7C188,278.7,161.3,205.87,177.86,147.22Z"/><path class="cls-7" d="M297.06,285s10.81-8.87,18.73-8.71,31.69-1.6,33.51,3.88-8.05,21.47-31.29,26.52c-14.8,3.22-24.62-2.72-24.62-2.72Z"/><path class="cls-8" d="M344.62,291.26,305.57,301a4.28,4.28,0,0,1-4.24-1.57L289.8,283.07a2,2,0,0,1-.41-1.49l0-.15.69-3.06,5.06.73,49,7.09,2.65.39-.72,3.24,0,.23s0,.05,0,.07A1.81,1.81,0,0,1,344.62,291.26Z"/><path class="cls-8" d="M344.17,286.19l-49-7.09,34.76-8.68a4.26,4.26,0,0,1,4.22,1.57Z"/><path class="cls-9" d="M302,296.33,290.49,280a1.75,1.75,0,0,1,1.08-2.9l39.05-9.76a4.3,4.3,0,0,1,4.23,1.58l11.54,16.37a1.75,1.75,0,0,1-1.08,2.9l-39.05,9.76A4.3,4.3,0,0,1,302,296.33Z"/><path class="cls-10" d="M306.33,293.09l-8.94-12.69a1.75,1.75,0,0,1,1.08-2.9l30.38-7.58a4.28,4.28,0,0,1,4.22,1.57L342,284.18a1.75,1.75,0,0,1-1.08,2.9l-30.37,7.58A4.3,4.3,0,0,1,306.33,293.09Z"/><path class="cls-8" d="M346,290.12h0s0,0,0-.07Z"/><path class="cls-7" d="M318.54,270.32s3.35,2.61,2,6-4.09.22-5.9-1.69-4.16-2.31-4.66-2.12C308.37,273.06,312.61,265.81,318.54,270.32Z"/><path class="cls-7" d="M325.43,296.52s11-6.26,18.26-9c4.85-1.81,3.58,4-.36,6.38S331.49,301.16,325.43,296.52Z"/><path class="cls-11" d="M204.08,378.28c-57.42,29.25-114.8,4.9-114.8,4.9,7.88-50,17.43-115.93,17.43-115.93C90.91,237,80.85,154.68,80.85,154.68c9.24-3,13.61-4.35,24.2-7.14,3-.79,5.75-1.46,8.09-2,4.81-1.1,7.92-1.67,7.92-1.67,14.49-2,29.56-.91,40.53.51l.22,0c9.63,1.26,16.05,2.8,16.05,2.8s4.41,33.31,13.92,50.15,2.24,27,0,34.39a25.62,25.62,0,0,0-.83,5.51c-.63,9.2-1.42,52.51-1.42,52.51Z"/><path class="cls-7" d="M150.46,176.16c-15.76.48-29.87-17.21-37.32-30.61,4.81-1.1,7.92-1.67,7.92-1.67,14.49-2,29.56-.91,40.53.51l.22,0C163.73,157.9,167.05,175.64,150.46,176.16Z"/><path class="cls-12" d="M191.78,231.76a25.62,25.62,0,0,0-.83,5.51c-27.84,14.31-56.68,6.15-56.68,6.15C171.73,242.78,191.78,231.76,191.78,231.76Z"/><path class="cls-7" d="M6.51,96.5c0,.29,0,.57.08.87h0q0,.57.12,1.14c.1.89.22,1.8.37,2.71h0c1.18,7.39,2.57,12.53,7.29,17.84,0,0,12.81,1.27,15.4-1.27,0,0,5.42-8.22,7.69-14.09,0,0,3.49-7.24,2.41-10.37a6.19,6.19,0,0,0-4.32-3.8S40.29,69.08,37.38,63s-5.2,9-8.13,20.06c0-.75.32-3-3.44-4.73-3.06-1.36-4.64,4.94-4.64,4.94S18.31,77,15.76,77.8c-2.79.89-2.65,7.88-2.65,8.16-.14-.19-2.46-3.38-5.29-1.19C6.59,85.73,6,90.48,6.51,96.5Z"/><path class="cls-13" d="M23.47,100.45s-6.48,3-5.15,13.32c0,0-4.23-8.78,5.77-15.6A2.19,2.19,0,0,1,23.47,100.45Z"/><path class="cls-13" d="M6.51,96.5c0,.29,0,.57.08.87h0q0,.57.12,1.14a5.7,5.7,0,0,0,3.59,3C14.86,103,15,98,15,98s1.76,1.84,3.64,1.69,3-3.35,3-3.35a3.86,3.86,0,0,0,4.08,2.9c3.33-.22,3.82-7.1,2.4-9.38,0,.24.3,6.06-2,7.43s-4.73-2.35-5.13-5.22c0,.36.3,5.3-2.51,6s-4.37-4-4.54-4.52c.08.46.64,4.35-1.23,5.76S7.84,98.74,6.51,96.5Z"/><path class="cls-13" d="M35,102.53s-4.35,3.68-8.77,2-1.34-5.84.86-7.34c0,0-3,.92-3.95,3s-1.08,6.24,4.14,6.43A8.92,8.92,0,0,0,35,102.53Z"/><path class="cls-7" d="M23.21,188c16.87-10.9,29-17.55,57.64-33.3,6.58,8.66,9.85,25,4.9,38.53C70,200,8.3,226.25,1.74,212.9c-6-12.32,5-66.05,13.33-97,7.35,1,7.62,1.43,14.72.8C29.79,116.72,30.26,176.64,23.21,188Z"/><path class="cls-9" d="M165,138.12a23.13,23.13,0,0,0,20.34-25.32c-2.69-27.76,1.15-50.23-2.1-67.23-2.39-12.51-7.52-32.32-28.46-41.07C124.41-8.19,98.13,7.34,87.14,34c-4,9.65-5.81,15.71-8.3,34.54-1.79,13.57-.08,24.37-.32,33.47a34.65,34.65,0,0,0,30,35.29A247.26,247.26,0,0,0,165,138.12Z"/><path class="cls-13" d="M167.85,67.44s8.93-10.2,16.22-1.34c6.41,7.79,2.42,28.42-13.2,27.85Z"/><path class="cls-5" d="M183.47,92.67a3.95,3.95,0,1,1-3.94-4A3.93,3.93,0,0,1,183.47,92.67Z"/><path class="cls-7" d="M154.89,146c-.71,9.36-21.45,14.59-33.53-1.49l-1.55-20.58-1.14-15.11,38.13,7.39L155.27,140Z"/><path class="cls-13" d="M155.09,142.83c-13,0-27.6-8.55-34.94-14.4l-1.48-19.65,38.13,7.39Z"/><path class="cls-7" d="M138.34,126.63c-37.25-8.52-44-57.34-44-57.34a53.58,53.58,0,0,1,.5-8,62.78,62.78,0,0,1,1.81-8.9c2.67-9.38,8.41-20.07,20.65-24.74l1.16-.43c20.31-7.2,50-3.83,59,23.06a45.07,45.07,0,0,1,1.37,5.2c.22,1.06.41,2.16.57,3.29C183.48,86.5,171.81,134.29,138.34,126.63Z"/><path class="cls-9" d="M130.92,76.76a4.77,4.77,0,0,1-5.4-4.06,4.65,4.65,0,0,1,.37-2.62c-3.92-.46-3.84-2.83-3.84-2.83.61,1,5.18.42,7.08.13h0l.56-.09H130a4.77,4.77,0,0,1,1,9.49Z"/><path class="cls-7" d="M100.74,70.29S87.37,63,83.09,75.13c-3.76,10.7,8.4,30.94,24.68,24.31Z"/><path class="cls-5" d="M102.21,100.3a3.95,3.95,0,1,1-3.94-4A3.94,3.94,0,0,1,102.21,100.3Z"/><path class="cls-14" d="M160.73,105.9a12.62,12.62,0,0,1-2.36,3.58c-2.08,2.2-5.25,3.81-10.09,3.8-4.07,0-7.25-2.27-9.62-5a30.07,30.07,0,0,1-5.22-9.09s19.49-.6,28.82-2h0a20.28,20.28,0,0,1-.2,3.83A17.75,17.75,0,0,1,160.73,105.9Z"/><path class="cls-5" d="M162.07,101.08c-8.89,1.73-23.28,1.6-27.09,1.69a27.82,27.82,0,0,1-1.54-3.54s19.49-.6,28.82-2h0A20.28,20.28,0,0,1,162.07,101.08Z"/><path class="cls-13" d="M101.57,90.6c-1.16-3.52-4.46-10.76-12.63-14,0,0,8.73,8.23,9.39,14.6a1.58,1.58,0,0,0,1.61,1.45h.2A1.57,1.57,0,0,0,101.57,90.6Z"/><path class="cls-15" d="M158.37,109.48c-2.08,2.2-5.25,3.81-10.09,3.8-4.07,0-7.25-2.27-9.62-5a12.22,12.22,0,0,1,10-.58,8.37,8.37,0,0,1,5-.73A6.32,6.32,0,0,1,158.37,109.48Z"/><path class="cls-13" d="M146.3,119a17.63,17.63,0,0,1-6.23-2.48,1.09,1.09,0,0,1,1.23-1.79c.29.2,7,4.66,14.07.89a1.09,1.09,0,0,1,1,1.92A15,15,0,0,1,146.3,119Z"/><path class="cls-13" d="M151.14,92.82h-5.65a1.17,1.17,0,1,1,0-2.33h5.65a.25.25,0,0,0,.21-.1.28.28,0,0,0,0-.23l-4.7-16.07a1.16,1.16,0,1,1,2.23-.65l4.7,16.07a2.59,2.59,0,0,1-2.48,3.31Z"/><path class="cls-9" d="M136.88,57.14h0a2.23,2.23,0,0,1-2,2.64c-4.35.42-13.38,1.89-17.45,6.86,0,0,.88-8.16,16.79-11.26A2.23,2.23,0,0,1,136.88,57.14Z"/><path class="cls-9" d="M154.81,57h0a2.22,2.22,0,0,0,2.39,2.25c4.35-.34,13.5-.47,18.38,3.71,0,0-2.3-7.88-18.5-8.16A2.23,2.23,0,0,0,154.81,57Z"/><path class="cls-9" d="M162.48,76.15a4.78,4.78,0,0,0,5.41-4.06,4.69,4.69,0,0,0-.37-2.61c3.91-.46,3.83-2.84,3.83-2.84-.61,1-5.18.43-7.08.14h0l-.56-.1h0a.9.9,0,0,0-.23,0,4.77,4.77,0,0,0-1,9.49Z"/><path class="cls-9" d="M120.54,29.8s-1.87,32.68-17.11,45.88c0,0-1.31-8.67-13.18-7.37,0,0-1.12-2-2.86-11.86S91.9,6,136.92,8.64c0,0,14.31-2.9,34.35,14.23s8.16,35.87,8.16,35.87S146,54.13,120.54,29.8Z"/></g></g></svg>