<svg xmlns="http://www.w3.org/2000/svg" viewBox="0 0 714.9 450.67"><defs><style>.cls-1{fill:#ffcfca;}.cls-2{fill:#f9bfbb;}</style></defs><g id="Capa_2" data-name="Capa 2"><g id="Información"><path class="cls-1" d="M289.63,242.54c-1.81,1.24-3.92,2.46-6.05,2-3.43-.78-4.33-5.26-4.18-8.81,1.06-26.5,19.6-49.12,26.12-74.77a104.84,104.84,0,0,1,32.14-32.74c1.43-1,2.92-1.87,4.42-2.73,4.42-2.56,9.83-4.81,14.45-2.66,3.05,1.44,5,4.56,5.89,7.8,2.29,8.32-1.48,17-5.26,24.71-8.64,17.49-18.3,34.89-30,50.52C316.55,220,304.31,232.66,289.63,242.54Z"/><path class="cls-1" d="M280.36,185.78c-5.67,4.42-15.69,11.16-22.31,4.64-7-6.92-.14-15.12,4.42-20.69a252.87,252.87,0,0,0,36.31-59.3c4.56-10.44,8.41-21.15,12.61-31.75A481.41,481.41,0,0,1,347.21,7c1.33-2.21,2.78-4.5,5-5.84C356.8-1.6,363.08,1,366.06,5.39c.28.43.56.87.79,1.3,2.25,4.2,2.59,9.24,2.44,14A101.37,101.37,0,0,1,368.45,31c-2.32,17.61-9,34.61-16.19,51C335.16,120.92,314,159.72,280.36,185.78Z"/><path class="cls-2" d="M293.24,163.42C324,117.84,344,66.09,366.61,16c.23-.52.47-1,.71-1.57,2.25,4.2,2.58,9.25,2.44,14a98.82,98.82,0,0,1-.85,10.31c-1.4,4-2.82,8-4.22,12-2.36,6.66-4.71,13.34-7.57,19.82a262.3,262.3,0,0,1-12.31,23.26C330.08,119.66,315.93,144.18,293.24,163.42Z"/><path class="cls-1" d="M283.19,197.06c-1.64,2.15-3.48,4.34-6,5.33-6.46,2.54-14.38-5.11-18.36-10.81a215.28,215.28,0,0,0,22.57-39.4c18.88-42.91,26.87-90.87,35.24-137,1-5.55,3.62-12.58,9.26-12.31A9.17,9.17,0,0,1,330.85,5c5.45,4.1,8.35,10.09,9.77,16.76,1.53,7.13,1.39,15,.94,22.33a151.33,151.33,0,0,1-2.47,21.67c-3.46,16.24-12.15,30.81-18.78,46-.33.76-.67,1.54-1,2.31C307.48,142,301.37,172.84,283.19,197.06Z"/><path class="cls-2" d="M299.13,140q10.42-21.74,20.79-43.43c3.54-7.37,7.09-14.77,9.89-22.46a166.88,166.88,0,0,0,7.91-32.3c.86-5.61,1.45-11.28,2.08-16.92a9.67,9.67,0,0,1,.82-3.06c1.53,7.13,1.39,15,.94,22.33a151.33,151.33,0,0,1-2.47,21.67c-3.46,16.24-12.15,30.81-18.78,46-.33.76-.67,1.54-1,2.31C311.82,122.17,304.66,130.48,299.13,140Z"/><path class="cls-1" d="M353.13,80.89c-.67,3.67-2.41,7-4.1,10.34-10.89,20.73-23.95,40.83-33.16,62.49l-2.55,6.19c-3,7.82,1.37,16.93-.24,25.23-4.74,24.31-5.86,49.08-9.05,73.59a275.45,275.45,0,0,1-5.6,30.74,167.93,167.93,0,0,1-13.07,35.16c-6.62,12.93-15.23,25.93-25.68,36.56a98.36,98.36,0,0,1-10.91,9.69c-7.36,5.59-15.46,10-23.67,14.19-3.82,2-7.4,3.3-10.94,4.71-34.24,18.61-76,39.46-114.63,57.29-62.45,29.2-133-128.87-82-135.59,25.37-3.3,51.6-8.69,76.81-13.09,7.68-1.37,86.4-14.66,95.4-16.18l.06,0c19.89-40.23,43.38-77.84,68.72-114.74.35-.53.7-1,1.08-1.53,0-.07.11-.13.13-.2,2.69-3.69,15.57-17.44,16.31-18.15,0,0,11.63-17.75,11.68-17.78,6.07-9.34,18.23-28,18.27-28.06,2.57-3.79,7.53-11.46,7.58-11.49s7-10.67,10.45-16a81.79,81.79,0,0,1,6.8-8.07,7.7,7.7,0,0,1,.91-.62C341.79,59.33,355.16,69.38,353.13,80.89Z"/><path class="cls-2" d="M259.67,361.22a96.9,96.9,0,0,1-10.89,9.65c-7.38,5.59-15.49,10-23.71,14.19a126.17,126.17,0,0,1-9.32-18.73,208.14,208.14,0,0,1-8.51-26.58,59.32,59.32,0,0,0,22.35,20.69,36.86,36.86,0,0,0,10.87,3.91C247,365.44,253.65,364,259.67,361.22Z"/><path class="cls-1" d="M423.19,243.85c1.79,1.25,3.89,2.5,6,2,3.44-.74,4.39-5.2,4.29-8.76-.73-26.51-19-49.36-25.18-75.08a105.11,105.11,0,0,0-31.74-33.15c-1.42-1-2.9-1.9-4.38-2.78-4.39-2.62-9.78-4.93-14.42-2.84-3.06,1.4-5.06,4.5-6,7.73-2.4,8.28,1.26,17,4.95,24.77,8.41,17.59,17.86,35.12,29.37,50.89C396.55,221,408.64,233.78,423.19,243.85Z"/><path class="cls-1" d="M433.17,187.21c5.62,4.49,15.55,11.35,22.25,4.92,7.06-6.83.33-15.12-4.16-20.75a253,253,0,0,1-35.57-59.75c-4.42-10.49-8.14-21.26-12.21-31.9A480.39,480.39,0,0,0,368.56,7.56c-1.31-2.23-2.72-4.54-5-5.91-4.52-2.76-10.84-.28-13.87,4.11-.28.43-.57.86-.81,1.29-2.3,4.17-2.7,9.21-2.61,14A98.82,98.82,0,0,0,347,31.35c2.1,17.64,8.59,34.72,15.56,51.16C379.18,121.66,399.86,160.73,433.17,187.21Z"/><path class="cls-2" d="M420.57,164.68C390.42,118.73,371,66.74,349.05,16.37l-.69-1.57c-2.31,4.17-2.7,9.21-2.61,14a96.16,96.16,0,0,0,.71,10.32c1.35,4,2.73,8,4.08,12,2.27,6.69,4.53,13.4,7.32,19.92,3.48,8,7.74,15.74,12,23.41C384.28,120.47,398.12,145.17,420.57,164.68Z"/><path class="cls-1" d="M430.2,198.45c1.61,2.17,3.43,4.38,5.93,5.4,6.42,2.63,14.43-4.92,18.48-10.58a215.32,215.32,0,0,1-22.07-39.68C414.2,110.45,406.81,62.4,399,16.18c-.92-5.56-3.46-12.62-9.1-12.42a9.24,9.24,0,0,0-5,2.08c-5.5,4-8.48,10-10,16.63-1.62,7.12-1.58,15-1.22,22.32A150.27,150.27,0,0,0,376,66.5c3.25,16.27,11.76,31,18.2,46.25.32.76.65,1.55.94,2.32C406.6,143.09,412.32,174,430.2,198.45Z"/><path class="cls-2" d="M415,141.16,394.72,97.47c-3.44-7.42-6.9-14.86-9.6-22.58a166.7,166.7,0,0,1-7.5-32.4c-.79-5.62-1.31-11.3-1.87-17a9.86,9.86,0,0,0-.79-3.07c-1.62,7.12-1.58,15-1.22,22.32A150.27,150.27,0,0,0,376,66.5c3.25,16.27,11.76,31,18.2,46.25.32.76.65,1.55.94,2.32C402.51,123.21,409.56,131.61,415,141.16Z"/><path class="cls-1" d="M351.27,74.74c.83,3.64,2.71,6.91,4.54,10.16,11.75,20.25,25.63,39.8,35.74,61l2.81,6.07c3.35,7.7-.67,17,1.29,25.21,5.75,24.08,7.91,48.78,12.12,73.14a273.6,273.6,0,0,0,6.89,30.48,166.85,166.85,0,0,0,14.53,34.58c7.15,12.65,16.3,25.27,27.18,35.45a99.09,99.09,0,0,0,11.3,9.23c7.59,5.27,15.87,9.32,24.25,13.19A118.68,118.68,0,0,0,503,377.54C538,394.71,580.67,413.79,620,430c63.62,26.56,127.52-134.33,76.28-138.91-25.48-2.23-51.91-6.52-77.28-9.87-7.73-1.05-86.94-11-96-12.17h-.06c-21.55-39.37-46.6-76-73.46-111.77-.37-.51-.74-1-1.14-1.49,0-.07-.11-.12-.13-.19-2.85-3.57-16.29-16.77-17.06-17.45,0,0-12.36-17.25-12.41-17.28-6.46-9.08-19.39-27.24-19.43-27.27-2.73-3.68-8-11.14-8-11.17s-7.48-10.37-11.11-15.52A80.58,80.58,0,0,0,373,59.12a7,7,0,0,0-.93-.59C361.7,52.73,348.77,63.32,351.27,74.74Z"/><path class="cls-2" d="M456.38,350.92a97,97,0,0,0,11.29,9.18c7.6,5.28,15.88,9.35,24.28,13.19a126.45,126.45,0,0,0,8.53-19.1,207.89,207.89,0,0,0,7.38-26.91,59.16,59.16,0,0,1-21.46,21.59,36.29,36.29,0,0,1-10.7,4.37C469.25,354.6,462.51,353.46,456.38,350.92Z"/></g></g></svg>