<svg xmlns="http://www.w3.org/2000/svg" viewBox="0 0 224.7 614.72"><defs><style>.cls-1{fill:#f88968;}.cls-2{fill:#ffaf82;}.cls-3{fill:#e7a656;}</style></defs><g id="Capa_2" data-name="Capa 2"><g id="Información"><path class="cls-1" d="M210.93,243.26c1.33-10.33,8.79-45.71,10.06-56.5,1.3,2.39,2.39,4.39,3.47,6.39,2.34,36.47-13.23,95.64-23.53,127.11C194.79,339.05,200.93,276.26,210.93,243.26Z"/><path class="cls-1" d="M63.1,349.62s-3.79-44.5-44.48-87.93c0,0,10.68-5.33,31,14.62S63.1,349.62,63.1,349.62Z"/><path class="cls-2" d="M189.66,357.67c3.26,10.4,4.86,21,6.21,31.68a132.71,132.71,0,0,1,.79,13.77c6.83,44.92,13,98.88,17.2,148,7.09,79.71-200,80.76-186.55,23.64,6.75-28.39,11.51-58.67,17-87.41,1.63-8.76,19.66-115.9,21.66-126.14C65.94,361.24,189.66,357.67,189.66,357.67Z"/><path class="cls-2" d="M14.86,144.58c-.86-8.13,5.26-10.4,11-11.93C44.15,127.79,61.48,121,77,110c11.87-8.42,24-8.44,36.51-1.29,6.27,3.57,13,6.42,19.54,9.4,1.47.67,3.33,2.33,4.91.53,1.37-1.56.16-3.36-.44-5.06-3.7-10.67-10.85-18.43-19.55-25.48-14.47-11.75-20-27.41-17.64-46,.79-6.23,3.1-11.14,9.32-13,6.55-1.95,10.64,2.79,14.84,6.56,2.19,2,2.47,6.65,7.19,4.71,1.22,10.92,3.08,22.21,10.56,30.3,13.1,14.18,19.67,30.62,21.8,49.35.67,5.84,4,13.59-8.1,10.4l24.95,16.26c-1.78-20.66-6.27-39.3-10.23-58A50.59,50.59,0,0,0,160.15,67c-9.63-12-18.84-24.44-17.88-41.19.42-7.39.54-14.8.8-22.2,8.42-5.69,14.6-4.95,20.14,4.05,10,16.24,20.6,32.1,33,46.49,14.83,17.21,19.54,37.13,21.26,59.05,2,25.83,6.91,51.41,7,77.43-1.08-1.22-23.49,64.73-41,85.21-9.16,10.72-19.62,19.08-34.6,21-16.65,2.1-33.26,1.1-49.86.95-20.08-.17-38.06-7.73-55.46-17.35C34.23,275.27,28.24,266,18.5,261.62l.12.07L17,259.93c-4.37-6.05-10.69-10.33-13.89-17.62C1,237.45-.65,233.08.25,227.86c2.66-15.26,1.5-30.69,2.22-46,.36-7.75,1.76-15.94,12.29-16.84,16.65-1.3,19.69,3,25.61,17a24.52,24.52,0,0,1,2,11.47c-1.46,19,5.41,32.75,24.6,38.64,7.37,2.26,12.07,10.45,20.92,9.4l-.1,0c2.14,2.65,4.6,1.8,7.08.64,11.54-12.61,26.75-20,41-28.76,3.26-2,5.35-3.42,4.18-7.5-2.3-8-1.14-16,.32-24,.68-4.84-1.65-7.09-6.27-8.09-14.86-3.24-26.75-11.75-37.14-22.33-4.13-4.2-7.37-4.19-12.63-2a114,114,0,0,1-51.06,8.29C25.09,157.09,15.86,156.15,14.86,144.58Z"/><path class="cls-1" d="M143.07,3.63c-.26,7.4-.38,14.81-.8,22.2-1,16.75,8.25,29.18,17.88,41.19a50.59,50.59,0,0,1,10.51,21.66c4,18.74,8.45,37.38,10.23,58l-24.95-16.26c12.09,3.19,8.77-4.56,8.1-10.4-2.13-18.73-8.7-35.17-21.8-49.35-7.48-8.09-9.34-19.38-10.56-30.3C129.14,26.19,131.68,13.55,143.07,3.63Z"/><path class="cls-1" d="M14.86,144.58c1,11.57,10.23,12.51,18.44,13a114,114,0,0,0,51.06-8.29c5.26-2.17,8.5-2.18,12.63,2,10.39,10.58,22.28,19.09,37.14,22.33,4.62,1,7,3.25,6.27,8.09-13.87-2.76-27-7.6-36.67-18.2-7.85-8.59-15.44-13.38-26.54-5.81-2.1,1.43-5.21,1.35-7.82,2.09-10.26,2.92-20.93,3.35-33.64,4.29,8.11,6,10.64,12.74,12.5,19.83a97.79,97.79,0,0,1,3,26c-.06,4.84,1.5,7.61,6.3,10.49,10.51,6.31,21.2,12.63,30.36,21-8.85,1-13.55-7.14-20.92-9.4-19.19-5.89-26.06-19.62-24.6-38.64a24.52,24.52,0,0,0-2-11.47c-5.92-13.91-9-18.26-25.61-17,2.34-2.18,5.15-3.6,1.91-7.88C14.17,153.82,11.63,149.28,14.86,144.58Z"/><path class="cls-3" d="M17,259.93l1.59,1.76Z"/><path class="cls-3" d="M87.8,241.43l7.09.64C92.4,243.23,89.94,244.08,87.8,241.43Z"/><path class="cls-2" d="M194.33,378.41S205.7,279.53,214,225.26c1.33-8.62,13.6-35.61,9.9-39-26.73-24.52-181,94-181,94s26.94,59.3,20,98.15S194.33,378.41,194.33,378.41Z"/></g></g></svg>