<svg xmlns="http://www.w3.org/2000/svg" viewBox="0 0 542.28 280.73"><defs><style>.cls-1{fill:#ffaf82;}.cls-2{fill:#f88968;}</style></defs><g id="Capa_2" data-name="Capa 2"><g id="Información"><path class="cls-1" d="M328.62,259c-4.75-2.18-9.57-4.53-14.52-7l-3.31-1.68-.05-.05c-8.93-4.6-18.1-9.71-27.31-15.2V235c-51.78-31-105.31-75.54-130.84-126.74,0,0,51.76-77.44,78.56-89.17,0,0,74-19.28,124.78-18.61,0,0,64.52-4.46,84.7,13S456,57.17,456,57.17l9.39,2.77C479,64,503.3,71.18,511.27,73.7c43.31,13.79,46.86,57.19-25.59,50.05,5.65,2.34,45.68,17.77,37.37,49.89-5.8,22.59-63.13,10-63.13,10s38.41,40.1,24.69,56.77c-15.05,18.2-66.93-3.75-69-4.62,1,1.61,17.93,28.54-6.89,43.1C398.83,284.62,367.08,276.84,328.62,259Z"/><path class="cls-2" d="M328.62,259c-4.75-2.18-9.57-4.53-14.52-7-5.17-9.73-8.67-22.16-3.76-34.57,10.61-26.75,40-15.83,40-15.83s-20.9-15-10.37-31.54,29.79-14.28,29.79-14.28-15.42-17.08-6.54-31.39,55.65-10.49,55.65-10.49-30.58,2.88-42.33,13-3.75,31,24.42,39.72c-3.06-1-32-9.63-46.67,6.06-15.11,16.17,21.5,44.09,23.49,45.57-2.44-.95-46.89-18.92-57.19-.6C313.51,230.21,320.46,247,328.62,259Z"/><path class="cls-2" d="M430.11,77.4s-27.74,36.83-61.71,35.28S334.49,55.45,361.75,21c0,0-26.12,11-32.68,46.68s23.78,57.27,42.61,53.85S407.84,110.36,430.11,77.4Z"/><path class="cls-2" d="M354.63,111.38S313.15,151,239.59,110c0,0,45,66.09,126,11.73Z"/><path class="cls-1" d="M4.51,39.12S131.18,27.28,225.18,21.28c87.48-5.59,7.79,160,7.79,160L0,181.36Z"/></g></g></svg>