<svg xmlns="http://www.w3.org/2000/svg" viewBox="0 0 405.15 768.64"><defs><style>.cls-1{fill:#ffaf82}.cls-2{fill:#f88968}.cls-3{fill:#c11c57}.cls-5{fill:#32324c}.cls-6{fill:#e63067}.cls-7{fill:#ff8175}.cls-8{fill:#fff}.cls-9{fill:#434361}</style></defs><g id="Capa_2" data-name="Capa 2"><g id="Información"><path class="cls-1" d="M111.38 420.25a98.72 98.72 0 0 1 7.43 17.23c2.49 8.44 5.24 18.76 6.68 24 1.73 6.3-5.56 5.86-8.43-2.72s-3.57-10.52-3.57-10.52 2.53 34.93-.49 43.84c-2.76 8.14-5.11-11.05-7.94-26.82 0 0-3.42 34.16-8.64 36.77-6.85 3.43-2.59-37.93-2.59-37.93s-7.68 30-11.14 28.61c-3.86-1.58.24-33.28.24-33.28s-7.1 20.16-9.06 18.4c-3.87-3.48 2.23-48.57 17.25-63 0 .03 16.94 1.59 20.26 5.42Z"/><path class="cls-2" d="M108.64 458.76s-16.35 1.7-28-8.22c.02 0 6.16 14.22 28 8.22ZM97.6 446.25s-6.21-18.19 10-23.22c-.01-.03-20.06-.21-10 23.22Z"/><path class="cls-3" d="M250.21 219.31c-9.29 39.14-99.89 69.9-116.27 111.25s-20.82 91.69-20.82 91.69c-12.68 5-21.54 1.95-28-1.7 0 0 .92-74.86 20-114.76S232 180.38 232 180.38s25.73 7.23 18.21 38.93Z"/><path style="fill:#345668" d="M47.03 447.75h237.36v312.88H47.03z"/><path class="cls-5" d="M304.77 697.44s-45.4-155.55-27.67-206.5c0 0-149.69 22.76-156.3-47.18l41.91-27.59s110.9-26.69 174.68 62.39c12.63 17.65-8.91 208.74-8.91 208.74Z"/><path class="cls-6" d="m399.62 754.11-91.2 1.89c-4.32.09-7.89-3.44-8.51-8a10 10 0 0 1-.09-2l2.81-53.69a49.34 49.34 0 0 1 9.05-3.55 9.77 9.77 0 0 0 6.65-7c.06-.25.12-.52.17-.78 1.93-10.36 15.16-13.92 17.79-3.89.34 1.29.64 2.55.89 3.77.06.3.13.61.18.9.43 2.15.75 4.15 1 5.89v.11a63.11 63.11 0 0 1 .57 7.27c1.24 1.7 2.43 3.36 3.59 5 .59.81 1.16 1.62 1.73 2.42 1.23 1.72 2.42 3.39 3.6 5 .54.75 1.08 1.49 1.62 2.21 1.29 1.74 2.57 3.39 3.84 4.93.58.7 1.15 1.39 1.74 2 4.79 5.44 9.6 9.12 15.22 9.87 9.92 1.31 26.09 2.19 34.17 18.27a6.9 6.9 0 0 1 .41 1c1.21 3.98-1.35 8.27-5.23 8.38Z"/><path class="cls-7" d="m399.62 754.11-91.2 1.89c-4.32.09-7.89-3.43-8.51-8l104.94-2.2c1.21 3.91-1.35 8.2-5.23 8.31Z"/><path class="cls-8" d="M344.25 702.47c-1 1.76-3.15 3.9-7.46 5.93-.73.36-1.53.7-2.39 1l-.84-2.65c.86-.34 1.64-.67 2.34-1 4.94-2.36 6.27-4.6 6.62-5.74.59.85 1.16 1.66 1.73 2.46Z"/><path class="cls-8" d="M336.81 708.06a2.85 2.85 0 1 1-2.88-3.11 3 3 0 0 1 2.88 3.11Zm12.66 1.62a17.81 17.81 0 0 1-6.17 4.52c-.87.44-1.82.86-2.87 1.27l-.84-2.65c1-.39 1.87-.77 2.65-1.15a14.49 14.49 0 0 0 5.61-4.2c.54.75 1.08 1.53 1.62 2.21Z"/><path class="cls-8" d="M343.3 714.08a3 3 0 0 1-2.78 3.23 3.19 3.19 0 1 1 2.78-3.23Zm11.75 2.57a18.1 18.1 0 0 1-6 4.34q-1.31.66-2.91 1.29l-.83-2.66c1-.38 1.88-.78 2.67-1.17a15.45 15.45 0 0 0 5.31-3.84c.6.7 1.17 1.39 1.76 2.04Z"/><path class="cls-8" d="M349.07 720.88a3 3 0 0 1-2.77 3.22 3 3 0 0 1-2.88-3.1 3 3 0 0 1 2.77-3.23 3 3 0 0 1 2.88 3.11Zm-10.73-33.21a57.67 57.67 0 0 0-8.12.68v-5.11a18.59 18.59 0 0 1 7.17-1.46c.4 2.15.72 4.15.95 5.89Z"/><path class="cls-9" d="M205.22 470c-27 30.22-58.44 36-79 25.34-19.54-10.15-31.32-35.58-27.91-61.66 2.62-20.13 12.34-26.32 12.34-26.32 46.49-3.75 117.94-1.19 117.94-1.19s8.69 27.98-23.37 63.83Z"/><path class="cls-9" d="M283.92 710.05s-45.41-155.55-27.68-206.51c0 0-149.68 22.77-156.3-47.17l41.91-27.6s110.91-26.68 174.68 62.4c12.64 17.65-8.91 208.74-8.91 208.74Z"/><path class="cls-6" d="m376.51 766.72-91.21 1.91c-4.31.09-7.89-3.43-8.51-8a10.83 10.83 0 0 1-.08-2l2.81-53.63a49.75 49.75 0 0 1 9.05-3.56 9.75 9.75 0 0 0 6.65-7c.06-.26.12-.52.17-.78 1.92-10.36 15.16-13.92 17.78-3.89.34 1.29.64 2.55.9 3.77l.18.89c.43 2.16.75 4.15 1 5.89v.12a63.11 63.11 0 0 1 .57 7.27c1.24 1.69 2.43 3.36 3.59 5l1.73 2.43c1.22 1.71 2.42 3.39 3.59 5 .54.75 1.08 1.48 1.62 2.2 1.3 1.75 2.57 3.4 3.85 4.94.57.7 1.15 1.39 1.74 2 4.79 5.43 9.6 9.11 15.22 9.87 9.91 1.31 26.09 2.19 34.17 18.27a6.79 6.79 0 0 1 .41 1c1.26 3.9-1.35 8.22-5.23 8.3Z"/><path class="cls-7" d="m376.51 766.72-91.21 1.91c-4.31.09-7.89-3.44-8.51-8l105-2.2c1.21 3.89-1.4 8.21-5.28 8.29Z"/><path class="cls-8" d="M321.14 715.08c-1 1.75-3.15 3.9-7.46 5.93-.73.35-1.53.7-2.4 1l-.83-2.65c.86-.34 1.63-.67 2.33-1 5-2.35 6.28-4.59 6.63-5.74Z"/><path class="cls-8" d="M313.69 720.66a3 3 0 0 1-2.77 3.23 3.19 3.19 0 1 1 2.77-3.23Zm12.66 1.62a17.81 17.81 0 0 1-6.17 4.53 30.27 30.27 0 0 1-2.87 1.27l-.83-2.65c1-.39 1.86-.77 2.65-1.16 3.16-1.55 4.78-3 5.6-4.19.54.75 1.08 1.48 1.62 2.2Z"/><path class="cls-8" d="M320.19 726.69a3 3 0 0 1-2.78 3.22 3 3 0 0 1-2.88-3.1 2.85 2.85 0 1 1 5.66-.12Zm11.75 2.57a18.25 18.25 0 0 1-6 4.34c-.88.44-1.84.87-2.92 1.29l-.82-2.66c1-.39 1.87-.78 2.66-1.17a15.52 15.52 0 0 0 5.32-3.84c.59.7 1.17 1.39 1.76 2.04Z"/><path class="cls-8" d="M326 733.49a2.85 2.85 0 1 1-2.88-3.11 3 3 0 0 1 2.88 3.11Zm-10.77-33.22a58.35 58.35 0 0 0-8.12.69v-5.11a18.66 18.66 0 0 1 7.18-1.47c.39 2.16.71 4.15.94 5.89Z"/><path class="cls-6" d="M223.31 291.29c-3.52 9.57-6.42 25.21-6.42 25.21 2.69 23.49 4.19 63.35 11.66 89.69-33.69 17.74-88.19 18.82-120.29 3.26-.18-21.83.67-67.33 4.47-103.14 7.85-73.83 20-120.67 20-120.67l20.93-6.26a105.11 105.11 0 0 1 43.65-3.55l13 1.68 7.41 1 12.58 1.64s-1.2 36.17 7.56 68c7.4 26.86-4.57 30.4-10.56 36.3a11.15 11.15 0 0 0-2.17 2.81 35.82 35.82 0 0 0-1.82 4.03Z"/><path class="cls-3" d="M227.23 284.39a11.15 11.15 0 0 0-2.17 2.81 35.82 35.82 0 0 0-1.75 4.09 105.07 105.07 0 0 1-22.17 3.88c-18.35 1.11-38.8-6.31-39.4-6.53a125.43 125.43 0 0 0 65.49-4.25Z"/><path class="cls-1" d="M210.24 177.51c-2.4 13.22-3.94 35.57-20.76 34.69-20.22-1-32-23.94-35.85-32.82a105.22 105.22 0 0 1 43.64-3.55Z"/><path class="cls-5" d="M254.13 96.74c2 5.85 4.05 11.9 6 18.32 6.24 20.46-13.44 23-13.44 23s6.31 13.94-3.61 25.11-22.52 5.17-22.52 5.17-4.56 6.07-16.56 6.82c-17.37 1.1-23.7-5.88-23.7-5.88L162.16 166c-2.39 1.33-4.25 10.21-23.45 12.46-17.46 2-26.44-8.44-26.44-8.44-4.62 9-26.35 7.46-28.81-6.87-2.32-13.45 3.94-19 4.71-19.58-11.28 8-30.1-13.62-10.16-34.1 8.11-8.34 12.59-12.21 15.62-16.38-9 2.14-18.47-8.38-14.43-17.56 5.21-11.84 14.74-7.12 24-24.12 12.37-22.58 21.83-30.28 22.39-30.72 16-15.15 39.57-22.08 65.4-20.48 22 1.35 34.76 10.34 42.18 19.57A46.36 46.36 0 0 1 243.06 48c.05 2.14.17 4.24.36 6.33 3.07 7.46 9.37 20.7 16.8 24.72 10.12 5.43 4.46 19.95-6.09 17.69Z"/><path class="cls-2" d="M223.09 82.11s11.38-13 20.67-1.7c8.17 9.93 3.09 36.22-16.82 35.49Z"/><path class="cls-8" d="M240.89 114.26a4.78 4.78 0 1 1-4.78-4.77 4.78 4.78 0 0 1 4.78 4.77Z"/><path class="cls-1" d="M202.59 181.42c-1 11.91-25.64 18.92-39.64-1.3L161.48 154l-1.08-19.2 45 8.73-2.22 30.26Z"/><path class="cls-2" d="M202.88 177.43c-15.35.22-32.5-10.37-41.07-17.67l-1.41-25 45 8.73Z"/><path class="cls-1" d="M185.47 157.56c-47.47-10.86-56.1-73.09-56.1-73.09a68.56 68.56 0 0 1 .63-10.23 79.85 79.85 0 0 1 2.32-11.35c3.4-12 10.71-25.59 26.31-31.53l1.48-.55c25.89-9.17 63.74-4.88 75.25 29.39a57.94 57.94 0 0 1 1.75 6.63c.28 1.35.52 2.76.73 4.2 5.16 35.38-9.7 96.29-52.37 86.53Z"/><path d="M207.67 130.32a8 8 0 0 1-1.17 4.22 8.19 8.19 0 0 1-14.81-1.66 8.2 8.2 0 1 1 16-2.56Z" style="fill:#920e08"/><path d="M206.5 134.54a8.19 8.19 0 0 1-14.81-1.66 15.07 15.07 0 0 1 8.56-.68 15.68 15.68 0 0 1 6.25 2.34Z" style="fill:#f85c66"/><path class="cls-5" d="M176 94a6.1 6.1 0 0 1-6.89-5.18 6 6 0 0 1 .47-3.34c-5-.58-4.89-3.61-4.89-3.61.78 1.3 6.61.54 9 .17l.71-.12h.29A6.09 6.09 0 0 1 176 94Z"/><path class="cls-1" d="M137.55 85.74s-17-9.34-22.49 6.17c-4.8 13.64 10.7 39.44 31.44 31Z"/><path class="cls-2" d="M138.61 111.64c-1.48-4.49-5.69-13.73-16.11-17.84 0 0 11.13 10.49 12 18.61a2 2 0 0 0 2.05 1.85h.25a2 2 0 0 0 1.81-2.62Zm57.01 36.13a22.76 22.76 0 0 1-7.94-3.16 1.39 1.39 0 1 1 1.57-2.29c.37.26 8.91 5.94 17.93 1.14a1.39 1.39 0 0 1 1.3 2.45 19.08 19.08 0 0 1-12.86 1.86Zm6.17-33.31h-7.21a1.48 1.48 0 0 1 0-3h7.21a.32.32 0 0 0 .26-.14.33.33 0 0 0 .06-.29l-6-20.48a1.48 1.48 0 1 1 2.84-.83l6 20.48a3.3 3.3 0 0 1-3.16 4.22Z"/><path class="cls-5" d="M177.89 66.52a2.83 2.83 0 0 1-1.7 3.82c-5.29 1.74-16.11 6.08-19.8 13.39 0 0-1.16-10.39 17.75-18.68a2.85 2.85 0 0 1 3.75 1.47Zm30.04 1.13a2.82 2.82 0 0 0 2.34 3.46c5.51.8 16.92 3.19 21.83 9.75 0 0-.66-10.44-20.73-15.31a2.84 2.84 0 0 0-3.44 2.1Zm8.31 25.57a6.09 6.09 0 0 0 6.89-5.17 6 6 0 0 0-.47-3.34c5-.59 4.88-3.61 4.88-3.61-.77 1.29-6.6.54-9 .17-.29-.06-.54-.09-.71-.12a1.46 1.46 0 0 0-.29 0 6.09 6.09 0 0 0-1.24 12.1Z"/><path class="cls-5" d="M162.78 34.14S160.4 75.8 141 92.62c0 0-1.68-11.05-16.8-9.4 0 0-1.43-2.58-3.65-15.11s5.76-64.27 63.13-60.94c0 0 18.24-3.7 43.78 18.14S237.85 71 237.85 71s-42.6-5.86-75.07-36.86Z"/><path class="cls-8" d="M138.92 124.89a4.78 4.78 0 1 1-4.78-4.78 4.78 4.78 0 0 1 4.78 4.78Z"/><path class="cls-1" d="M37.79 443.39A84.74 84.74 0 0 1 44 459c2 7.61 4.15 16.92 5.29 21.64 1.37 5.67-5.38 5.16-7.71-2.57s-2.92-9.5-2.92-9.5 1 31.38-2.1 39.33c-2.87 7.26-4.33-10-6.36-24.19 0 0-4.45 30.6-9.39 32.86-6.48 3-1-34.08-1-34.08S11.62 509.28 8.46 508c-3.52-1.48 1.48-29.87 1.48-29.87s-7.34 18-9.09 16.38c-3.46-3.18 3.89-43.55 18.36-56.23 0-.04 15.65 1.62 18.58 5.11Z"/><path class="cls-6" d="M127.79 245.37C105.15 290.5 78.2 316.57 69.62 326c-1.55 6.61-9 38-17.94 67.33a512.44 512.44 0 0 0-12.41 50.77c-8.39 2.19-16.32.79-23.82-3.91 4.89-51.42 15-91.56 27.19-121.2 31.8-110 89.52-133.32 89.52-133.32 17.62 18.01-4.37 59.7-4.37 59.7Z"/></g></g></svg>