<svg xmlns="http://www.w3.org/2000/svg" viewBox="0 0 624.49 836.96"><defs><style>.cls-2{fill:#32324c}.cls-3{fill:#c11c57}.cls-4{fill:#f88968}.cls-5{fill:#f99c80}.cls-6{fill:#ffaf82}.cls-8{fill:#fff}.cls-11{fill:#d82a64}</style></defs><g id="Capa_2" data-name="Capa 2"><g id="Información"><path d="M466.26 824.15c58.49-136.48 20.2-190.57 20.2-190.57-32.29-14.79-82.79-31.58-82.79-31.58-17.18 97.59-1.59 235-1.59 235Z" style="fill:#211931"/><path class="cls-2" d="M579.62 835.15s20.89-90.81-.18-213.79L474 633.58s10 63.76 30.27 197Z"/><path class="cls-2" d="M575.62 589.19c4.18 22.09 7.83 59-3.33 96.12 0 0-77.81 19.33-132.53-24.13-35.81-28.44-37.49-61.72-37.07-72Z"/><path class="cls-3" d="M291.09 301.3c131.6-73.1 159.12-65.45 159.12-65.45-32.78 38.27 29.46 40.24 3.19 58.6-40.92 28.59-128.15 48.68-148 55.19-32.52 10.69-183.31 2.48-183.31 2.48 3.19-11.29 2.9-23.12-.81-32 0 0 60.42-6.48 82.69-9.4s87.12-9.42 87.12-9.42Z"/><path class="cls-4" d="M113.89 321.51s-18-14.82-32.69-16.74-2.51 11.29 6.3 19.15c7.13 6.35 26.39-2.41 26.39-2.41Z"/><path class="cls-5" d="M70.57 332.55s-43.92-16.31-59.88-18.29c-19.31-2.4-10.49 9.95 10.78 17.66s49.1.63 49.1.63Z"/><path class="cls-5" d="M66.69 333.34s-29.23-18.95-44.89-22.6c-19-4.42-11.48 8.79 8.86 18.7s36.03 3.9 36.03 3.9Z"/><path class="cls-6" d="M121.66 319.55c4.92 16 1.44 32.51 1.44 32.51-18.68 5.28-62.78-1.22-89.62-12.86s-36.59-15.81-27.16-18.47c13.24-3.73 44.74 1.55 59.92 4.35 0 0 27.66-10.24 55.42-5.53"/><path d="M416.34 405.22c5.17 14.07 9.44 37.08 9.44 37.08-4 34.54-17.11 108.15-28.09 146.89 49.54 26.08 143.15 31.47 190.36 8.59-9-30.75-27.78-133.46-25.94-152.66 20-209.61-12.52-195.26-12.52-195.26l-30.78-9.21a154.75 154.75 0 0 0-64.18-5.21l-19.08 2.47-10.89 1.42-17.83 4.9s1.1 50.68-11.78 97.47c-10.89 39.5 6.72 44.7 15.53 53.37a16.71 16.71 0 0 1 3.18 4.14 52 52 0 0 1 2.58 6.01Z" style="fill:#e63067"/><path class="cls-3" d="M414 400c1 2 3 8 4 10 .85 1.7 3 11 3.68 13.81a154.27 154.27 0 0 0 31.75-9.38c24.89-10.53 47-33.67 47.63-34.35-34.37 27.02-68.9 17.65-87.06 19.92Z"/><path class="cls-6" d="M435.55 237.92c3.54 19.43 5.81 52.3 30.54 51 29.73-1.55 47.09-35.21 52.72-48.27a154.42 154.42 0 0 0-64.18-5.21Z"/><path class="cls-2" d="M376.32 135c-2.11 8-4.29 16.17-6.31 24.86-6.43 27.7 19.92 29.33 19.92 29.33s-7.12 19.05 7.08 32.94 30.34 4.87 30.34 4.87 6.6 7.64 22.56 7.55c23.14-.11 30.91-9.94 30.91-9.94l23.79-6c3.29 1.56 6.56 13.17 32.24 14.4 23.34 1.13 34.31-13.58 34.31-13.58 6.94 11.58 35.62 7.5 37.59-11.73 1.85-18.06-7-24.79-8-25.55 15.68 9.57 38.69-20.79 10.38-46.16-11.51-10.32-17.81-15-22.21-20.31 12.18 2 23.74-12.78 17.56-24.59-8-15.25-20.2-8.12-34.09-29.82-18.46-28.83-31.71-38.19-32.48-38.72C517.3 3.89 485.37-3.17 451.25 1.3c-29 3.79-45.18 16.87-54.17 29.78-7.76 11.14-11.13 24.68-10.5 38.24.14 2.84.16 5.65.1 8.43-3.4 10.18-10.55 28.31-20.05 34.32-12.92 8.18-4.1 26.93 9.69 22.93Z"/><path class="cls-4" d="M416.18 112.83s-16.29-16.21-27.58-.39c-9.94 13.92-.81 48.33 25.53 45.56Z"/><path class="cls-8" d="M395.48 157.09a6.35 6.35 0 1 0 5.9-6.77 6.36 6.36 0 0 0-5.9 6.77Z"/><path class="cls-6" d="M452.37 242.71c2.42 15.71 35.73 22.77 52.46-5.32l-.41-34.79-.31-25.6-58.87 15.65 5.7 39.94Z"/><path class="cls-4" d="M451.62 237.45c20.39-1.11 42.18-16.71 52.89-27.18l-.4-33.23-58.87 15.65Z"/><path class="cls-6" d="M472.92 209.5c62-18.71 67.79-102 67.79-102a91.88 91.88 0 0 0-1.77-13.5 106.2 106.2 0 0 0-4.11-14.85c-5.6-15.55-16.53-33-37.76-39.44-.67-.21-1.34-.41-2-.59-35.17-9.83-85-.7-97.15 45.8a77.87 77.87 0 0 0-1.73 9q-.36 2.73-.58 5.63c-3.61 47.32 21.6 126.77 77.31 109.95Z"/><path d="M441 175.39a10.73 10.73 0 0 0 1.93 5.48 10.9 10.9 0 1 0-1.93-5.48Z" style="fill:#920e08"/><path d="M442.93 180.87a10.88 10.88 0 0 0 19.49-3.54 19.84 19.84 0 0 0-11.41-.12 21 21 0 0 0-8.08 3.66Z" style="fill:#f85c66"/><path class="cls-2" d="M479.69 124.32a8.1 8.1 0 0 0 8.68-7.48 8 8 0 0 0-.93-4.39c6.56-1.23 6.15-5.23 6.15-5.23-.91 1.78-8.71 1.31-11.95 1l-1-.09h-.42a8.09 8.09 0 0 0-.55 16.16Z"/><path class="cls-6" d="M530 109.89S551.73 96 560.37 116c7.61 17.66-10.62 53.29-38.9 44Z"/><path class="cls-4" d="M530.92 144.33c1.55-6.08 6.3-18.71 19.75-25.12 0 0-13.82 14.93-14.2 25.78a2.7 2.7 0 0 1-2.56 2.64h-.33a2.65 2.65 0 0 1-2.66-3.3Zm-72.35 53.1a30.32 30.32 0 0 0 10.25-4.91 1.84 1.84 0 0 0-2.29-2.89c-.47.37-11.28 8.68-23.69 3.14a1.84 1.84 0 0 0-1.5 3.36 25.38 25.38 0 0 0 17.23 1.3Zm-11.2-43.63 9.55-.65a2 2 0 0 0-.26-3.93l-9.56.66a.43.43 0 0 1-.37-.16.43.43 0 0 1-.09-.38l6.08-27.71a2 2 0 0 0-3.85-.85l-6.08 27.72a4.38 4.38 0 0 0 4.58 5.3Z"/><path class="cls-2" d="M474.71 88.05a3.78 3.78 0 0 0 2.61 4.95c7.17 1.83 21.93 6.61 27.48 16 0 0 .6-13.9-25.24-23.17a3.79 3.79 0 0 0-4.85 2.22ZM435 92.27a3.76 3.76 0 0 1-2.79 4.81C425 98.63 410 102.84 404.11 112c0 0-.07-13.91 26.11-22.19a3.77 3.77 0 0 1 4.78 2.46Zm-8.73 34.67a8.11 8.11 0 0 1-9.62-6.24 8 8 0 0 1 .33-4.47c-6.67-.32-6.81-4.35-6.81-4.35 1.15 1.65 8.81.12 12-.59l.94-.22h.38a8.09 8.09 0 0 1 2.74 15.94Z"/><path class="cls-2" d="M491.82 43.72s6.94 55.05 34.23 75.6c0 0 1.22-14.81 21.43-14 0 0 1.66-3.56 3.47-20.39S537.49.22 461.69 9.84c0 0-24.54-3.25-56.44 28s-9.66 61.59-9.66 61.59 55.98-11.63 96.23-55.71Z"/><path class="cls-8" d="M531.71 161.94a6.35 6.35 0 1 0 5.91-6.77 6.35 6.35 0 0 0-5.91 6.77Z"/><path class="cls-11" d="M562 268.5s27.2 30.33-140.9 113.09c-62.1 30.59-92.91 5.87-81.6-6.59 77.06-84.91 190.85-158.18 222.5-106.5Z"/><path class="cls-11" d="M368.76 350.21c67.25-4.93 37.69 38.68 18.52 46.9-31.46 13.49-182.39 18.49-182.39 18.49 2.19-11.52.87-23.28-3.61-31.78 0 0 59.63-11.74 81.56-16.6s85.92-17.01 85.92-17.01Z"/><path class="cls-6" d="M194 385.82s-20.36-15.09-35.2-15.72-.33 13.37 9.13 20.43c7.65 5.71 26.07-4.71 26.07-4.71Z"/><path class="cls-5" d="M151.81 400.61s-45.18-12.41-61.24-13c-19.45-.7-9.58 10.83 12.28 16.66s48.96-3.66 48.96-3.66Z"/><path class="cls-5" d="M148 401.74s-30.78-16.33-46.7-18.59c-19.25-2.75-10.64 9.75 10.48 17.85s36.22.74 36.22.74Z"/><path class="cls-6" d="M201.57 383.19c6.3 15.48 4.28 32.27 4.28 32.27-18.15 6.88-62.65 4.26-90.4-5s-37.83-12.54-28.67-16c12.86-4.88 44.7-2.38 60.07-.91 0 0 26.65-12.62 54.72-10.36"/></g></g></svg>