<svg xmlns="http://www.w3.org/2000/svg" viewBox="0 0 646.59 817.6"><defs><clipPath id="clip-path"><path class="cls-1" d="m225.1 177.48-6.01 19.17 15.14 5.15 2.06-8.7 3.09-7.73 1.71-3.09-15.99-4.8z"/></clipPath><clipPath id="clip-path-2"><path class="cls-1" d="m48.56 196.28-6.01 19.17 15.14 5.15 2.06-8.69 3.09-7.73 1.72-3.09-16-4.81z"/></clipPath><style>.cls-1,.cls-10,.cls-11,.cls-14,.cls-15,.cls-16,.cls-17,.cls-9{fill:none}.cls-2{fill:#f2b200}.cls-3{fill:#ffa87d}.cls-4{fill:#f88968}.cls-5{fill:#96006f}.cls-7{fill:#ffba97}.cls-10,.cls-11,.cls-14,.cls-15,.cls-16,.cls-17,.cls-9{stroke:#1d1d1b}.cls-9{stroke-width:.75px}.cls-10{stroke-width:.5px}.cls-11{stroke-width:.25px}.cls-12{fill:#1d1d1b}.cls-13{fill:#fff}.cls-14{stroke-width:.23px}.cls-15{stroke-width:.2px}.cls-16{stroke-width:.18px}.cls-17{stroke-width:.15px}.cls-18{fill:#32324c}</style></defs><g id="Capa_2" data-name="Capa 2"><g id="Información"><path class="cls-2" d="M241.48 236.59c0 58 70 315.75-114.42 315.75-169.28 0-120.56-270-120.56-328s55.17-110.75 120.56-110.75 114.42 64.97 114.42 123Z"/><path class="cls-3" d="M330.8 358.68C187.79 280 76.19 280.76 76.19 280.76 190.51 394.37 279.07 408.3 320.73 418.19s226-14 226-14c-5.09-13.79-5.89-28.65-2.12-40.14 0 0-76.09-1.63-104.19-2.89s-109.62-2.48-109.62-2.48Z"/><path class="cls-4" d="M482.3 366.37s9.35-1.89 24-.46c0 0 53.64-10.26 72.18-3.9 0 0 35.66 5 51 5.27 0 0 11.35.05 12.66 4.38s3.72 39.94 3.72 39.94 6.3 8.92-19.49 9.23c0 0-.81 6.41-6 9.62s-13.2.63-28.72-11.29c0 0-21.41-6.47-26.93-21.29 0 0 1.51-4.69-16.72-3.52l-65.7-2.05Z"/><path class="cls-3" d="M482.3 364.18a74 74 0 0 1 26.43-2.18s57.6-5.41 76.14.95c0 0 27.81 6.06 43.16 6.37 0 0 11.35.05 12.66 4.38s5.22 43.67 5.22 43.67 6.3 8.93-19.49 9.23c0 0-.81 6.41-6 9.62s-13.2.63-28.72-11.29c0 0-21.41-6.47-26.93-21.28 0 0-10.12-.62-34.4 2.67l-52.26 6.2Z"/><path class="cls-4" d="M626.42 426.55c-6.67-.44-22.79-11.59-24.22-18.36-.78-3.65.23-4.61 3.61-4.45 9.07.41 16.7-2.6 22.42-9.9.5-.65.64-1.72 2.24-1.78a15.28 15.28 0 0 1-5.85 8c-1.68 1.24-3.45 3-1.85 4.06 3.5 2.36 5.3 1.86 7.37 5.56.37.67 3.93 4.76 3 4.42-3.31-1.16-4.12-.82-5.81.84-.43.43-2.3 1.49-2.16.92a12.32 12.32 0 0 0-.12-6.49c-.69-2.36-.62-5.21-3.13-4.8-3.22.53-10.89-.18-12.33 2.41-1.16 2.1.27 7.73 1.66 9.32 4.2 4.8 13.53 10.31 15.22 10.24"/><path class="cls-5" d="M277.76 796c-126.71 47.22-251.2 2.19-251.2 2.19C43.81 694.15 95.15 632.8 70.49 583.37 32.42 507 8.13 322.27 8.13 322.27c20.21-6.32 29.77-9.06 53-14.88 6.54-1.65 12.56-3 17.7-4.16 10.51-2.29 17.32-3.46 17.32-3.46 31.7-4.1 64.67-1.91 88.67 1.05l35.6 5.9s9.58 69.38 30.44 104.47 4.9 56.33 0 71.63A51 51 0 0 0 249 494.3c-1.38 19.16-5.18 82.09-3.1 109.37C249.48 650.26 277.76 796 277.76 796Z"/><path d="M250.85 482.82A50.54 50.54 0 0 0 249 494.3c-60.91 29.81-124 12.8-124 12.8 82-1.32 125.85-24.28 125.85-24.28Z" style="fill:#77005e"/><path class="cls-2" d="M196.67 298.34c27.69-2.94 47.49-35.34 44.81-61.75-5.92-58.21 2.53-105.35-4.63-141-5.27-26.24-16.55-67.81-62.71-86.15-67-26.63-124.88 6-149.1 61.9-8.76 20.23-12.8 33-18.27 72.44-3.94 28.48-.18 51.12-.71 70.2-1 37.14 27.4 77.73 66.08 82.67 40.33 5.15 87.17 5.65 124.53 1.69Z"/><path class="cls-3" d="M202.88 141.46s19.69-21.39 35.74-2.81c14.12 16.35 5.33 59.61-29.08 58.41Z"/><path class="cls-7" d="M174.32 306.16c-1.56 19.62-47.26 30.59-73.87-3.13L97 259.87l-2.51-31.71 84 15.52-3.35 49.89Z"/><path class="cls-4" d="M174.76 299.58c-28.6 0-60.81-17.92-77-30.19l-3.26-41.23 84 15.52Z"/><g style="clip-path:url(#clip-path)"><path class="cls-9" transform="rotate(-73.06 229.661 189.173)" d="M221.04 182.7h17.26v12.93h-17.26z"/><path class="cls-10" transform="rotate(-73.06 229.655 189.168)" d="M222.32 183.66h14.7v11.02h-14.7z"/><path class="cls-11" transform="rotate(-73.06 229.655 189.168)" d="M223.52 184.56h12.3v9.22h-12.3z"/><path class="cls-12" transform="rotate(-73.06 229.655 189.168)" d="M224.56 185.34h10.22V193h-10.22z"/><path class="cls-13" transform="rotate(-73.06 230.256 191.15)" d="M228.17 189.57h4.22v3.17h-4.22z"/><path class="cls-11" d="m247.67 194.65-7.29 5.34-3.07-8.49 7.29-5.34 3.07 8.49z"/><path class="cls-11" d="m246.9 194.42-6.2 4.54-2.62-7.23 6.2-4.54 2.62 7.23z"/><path class="cls-11" d="m246.18 194.2-5.19 3.8-2.19-6.05 5.19-3.8 2.19 6.05z"/><path class="cls-12" d="m245.56 194.01-4.32 3.16-1.82-5.03 4.32-3.16 1.82 5.03z"/><path class="cls-13" d="m244.69 193.75-1.79 1.3-.75-2.08 1.79-1.3.75 2.08z"/><path class="cls-14" d="m256.91 197.47-6.26 4.58-2.64-7.29 6.26-4.58 2.64 7.29z"/><path class="cls-14" d="m256.25 197.27-5.33 3.9-2.25-6.21 5.33-3.9 2.25 6.21z"/><path class="cls-14" d="m255.63 197.08-4.46 3.26-1.88-5.19 4.46-3.27 1.88 5.2z"/><path class="cls-12" d="m255.1 196.92-3.71 2.71-1.57-4.32 3.71-2.71 1.57 4.32z"/><path class="cls-13" d="m254.35 196.69-1.53 1.12-.65-1.78 1.53-1.12.65 1.78z"/><path class="cls-15" d="m264.72 199.85-5.23 3.83-2.21-6.1 5.23-3.83 2.21 6.1z"/><path class="cls-15" d="m264.16 199.68-4.45 3.26-1.88-5.19 4.46-3.26 1.87 5.19z"/><path class="cls-15" d="m263.65 199.52-3.73 2.73-1.57-4.34 3.72-2.73 1.58 4.34z"/><path class="cls-12" d="m263.2 199.38-3.1 2.27-1.3-3.61 3.09-2.26 1.31 3.6z"/><path class="cls-13" d="m262.57 199.19-1.27.94-.55-1.49 1.28-.94.54 1.49z"/><path class="cls-16" d="m271.09 201.79-4.2 3.07-1.78-4.89 4.2-3.08 1.78 4.9z"/><path class="cls-16" d="m270.64 201.65-3.57 2.62-1.51-4.17 3.57-2.62 1.51 4.17z"/><path class="cls-16" d="m270.23 201.53-2.99 2.19-1.27-3.49 3-2.19 1.26 3.49z"/><path class="cls-12" d="m269.87 201.42-2.49 1.82-1.05-2.9 2.49-1.82 1.05 2.9z"/><path class="cls-13" d="m269.37 201.26-1.03.76-.43-1.2 1.02-.76.44 1.2z"/><path class="cls-17" d="m276.02 203.29-3.17 2.32-1.34-3.69 3.18-2.32 1.33 3.69z"/><path class="cls-17" d="m275.69 203.19-2.7 1.98-1.14-3.15 2.7-1.98 1.14 3.15z"/><path class="cls-17" d="m275.38 203.09-2.26 1.66-.96-2.63 2.26-1.66.96 2.63z"/><path class="cls-12" d="m275.11 203.01-1.88 1.38-.79-2.19 1.87-1.38.8 2.19z"/><path class="cls-13" d="m274.73 202.9-.78.57-.33-.91.78-.57.33.91z"/><path class="cls-11" d="m211.67 183.69 3.08 8.49 7.28-5.34-3.07-8.49-7.29 5.34z"/><path class="cls-11" d="m212.44 183.92 2.62 7.23 6.21-4.54-2.62-7.23-6.21 4.54z"/><path class="cls-11" d="m213.16 184.14 2.19 6.05 5.2-3.8-2.2-6.05-5.19 3.8z"/><path class="cls-12" d="m213.78 184.33 1.83 5.03 4.31-3.16-1.82-5.03-4.32 3.16z"/><path class="cls-13" d="m214.66 184.59.75 2.08 1.78-1.3-.75-2.08-1.78 1.3z"/><path class="cls-14" d="m202.43 180.87 2.64 7.3 6.26-4.59-2.64-7.29-6.26 4.58z"/><path class="cls-14" d="m203.09 181.07 2.25 6.22 5.33-3.91-2.25-6.21-5.33 3.9z"/><path class="cls-14" d="m203.71 181.26 1.88 5.2 4.46-3.27-1.88-5.19-4.46 3.26z"/><path class="cls-12" d="m204.25 181.43 1.56 4.31 3.71-2.71-1.57-4.32-3.7 2.72z"/><path class="cls-13" d="m205 181.65.64 1.79 1.53-1.12-.64-1.79-1.53 1.12z"/><path class="cls-15" d="m194.63 178.49 2.2 6.1 5.23-3.83-2.2-6.09-5.23 3.82z"/><path class="cls-15" d="m195.18 178.66 1.88 5.19 4.45-3.26-1.88-5.19-4.45 3.26z"/><path class="cls-15" d="m195.7 178.82 1.57 4.34 3.73-2.73-1.58-4.34-3.72 2.73z"/><path class="cls-12" d="m196.15 178.96 1.3 3.6 3.1-2.26-1.31-3.61-3.09 2.27z"/><path class="cls-13" d="m196.77 179.15.54 1.49 1.28-.94-.54-1.49-1.28.94z"/><path class="cls-16" d="m188.26 176.55 1.77 4.9 4.2-3.08-1.77-4.89-4.2 3.07z"/><path class="cls-16" d="m188.7 176.69 1.51 4.16 3.58-2.61-1.51-4.17-3.58 2.62z"/><path class="cls-16" d="m189.12 176.81 1.26 3.49 2.99-2.19-1.26-3.49-2.99 2.19z"/><path class="cls-12" d="m189.47 176.92 1.05 2.9 2.49-1.82-1.05-2.9-2.49 1.82z"/><path class="cls-13" d="m189.98 177.08.43 1.19 1.03-.75-.44-1.2-1.02.76z"/><path class="cls-17" d="m183.32 175.05 1.34 3.69 3.17-2.32-1.34-3.69-3.17 2.32z"/><path class="cls-17" d="m183.65 175.15 1.14 3.15 2.7-1.98-1.14-3.14-2.7 1.97z"/><path class="cls-17" d="m183.97 175.25.95 2.63 2.26-1.65-.95-2.64-2.26 1.66z"/><path class="cls-12" d="m184.24 175.33.79 2.19 1.88-1.38-.79-2.19-1.88 1.38z"/><path class="cls-13" d="m184.62 175.44.32.91.78-.57-.33-.9-.77.56z"/></g><path class="cls-7" d="M137.85 265.61c-82.06-17.87-97-120.27-97-120.27A109.35 109.35 0 0 1 42 128.5a124.68 124.68 0 0 1 4-18.67c5.88-19.68 18.51-42.11 45.49-51.9.84-.31 1.7-.61 2.56-.9 44.74-15.1 110.17-8 130.07 48.37a89 89 0 0 1 3 10.91c.48 2.22.9 4.53 1.26 6.9 8.94 58.23-16.77 158.47-90.53 142.4Z"/><path class="cls-18" d="M121.52 161a10.47 10.47 0 0 1-11.92-8.51 9.51 9.51 0 0 1 .82-5.5c-8.62-1-8.44-5.94-8.44-5.94 1.34 2.13 11.41.89 15.58.28l1.24-.2a4.21 4.21 0 0 1 .5 0 10.41 10.41 0 0 1 11.08 8.59 10.12 10.12 0 0 1-8.86 11.28Z"/><path class="cls-7" d="M55 147.43s-29.45-15.37-38.88 10.15c-8.29 22.44 18.51 64.9 54.36 51Z"/><path d="M187.19 222.13a26.87 26.87 0 0 1-5.19 7.51c-4.59 4.61-11.58 8-22.25 8-8.95 0-16-4.75-21.18-10.41a62 62 0 0 1-11.51-19.06s42.94-1.3 63.51-4.17a39.47 39.47 0 0 1-.43 8 36.2 36.2 0 0 1-2.95 10.13Z" style="fill:#920e08"/><path class="cls-13" d="M190.15 212c-19.59 3.62-51.3 3.34-59.7 3.53a58.06 58.06 0 0 1-3.39-7.42s42.94-1.24 63.51-4.11a39.47 39.47 0 0 1-.42 8Z"/><path class="cls-4" d="M56.84 190C54.29 182.66 47 167.46 29 160.68c0 0 19.25 17.27 20.71 30.64a3.44 3.44 0 0 0 3.55 3.05h.42a3.29 3.29 0 0 0 3.16-4.37Z"/><path d="M182 229.64c-4.59 4.61-11.58 8-22.25 8-8.95 0-16-4.75-21.18-10.41 2.85-1.55 10.77-4.78 22-1.22 0 0 4-2.3 11-1.52 4.12.42 7.79 1.7 10.43 5.15Z" style="fill:#f85c66"/><path class="cls-4" d="M155.39 249.5a40.1 40.1 0 0 1-13.72-5.2 2.21 2.21 0 0 1-.62-3.17 2.48 2.48 0 0 1 3.33-.59c.65.42 15.4 9.77 31 1.87a2.46 2.46 0 0 1 3.24 1 2.22 2.22 0 0 1-1 3.08 34.47 34.47 0 0 1-22.23 3.01Zm10.67-54.82H153.6a2.44 2.44 0 1 1 0-4.87h12.46a.56.56 0 0 0 .46-.22.49.49 0 0 0 .09-.48l-10.34-33.71a2.42 2.42 0 0 1 1.74-3 2.58 2.58 0 0 1 3.17 1.66l10.34 33.7a5.16 5.16 0 0 1-.9 4.77 5.76 5.76 0 0 1-4.56 2.15Z"/><path class="cls-18" d="M134.64 119.86a4.71 4.71 0 0 1-4.32 5.52c-9.58.9-29.48 4-38.45 14.4 0 0 1.95-17.11 37-23.63a4.93 4.93 0 0 1 5.77 3.71Zm39.5-.28a4.79 4.79 0 0 0 5.26 4.71c9.6-.7 29.76-1 40.51 7.79 0 0-5.07-16.52-40.76-17.11a4.82 4.82 0 0 0-5.01 4.61Zm16.91 40.16a10.46 10.46 0 0 0 11.95-8.52 9.48 9.48 0 0 0-.82-5.49c8.63-1 8.45-5.95 8.45-5.95-1.35 2.13-11.42.89-15.59.28l-1.25-.19a2.74 2.74 0 0 0-.5 0 10.4 10.4 0 0 0-11.08 8.59 10.12 10.12 0 0 0 8.84 11.28Z"/><path class="cls-2" d="M98.64 62.5s-4.12 68.56-37.7 96.24c0 0-2.89-18.18-29-15.45 0 0-2.47-4.26-6.31-24.88S35.55 12.65 134.72 18.13c0 0 31.54-6.09 75.69 29.85s18 75.23 18 75.23-73.65-9.68-129.77-60.71Z"/><g style="clip-path:url(#clip-path-2)"><path class="cls-9" transform="rotate(-73.06 53.123 207.968)" d="M44.51 201.51h17.26v12.93H44.51z"/><path class="cls-10" transform="rotate(-73.06 53.13 207.973)" d="M45.79 202.47h14.7v11.02h-14.7z"/><path class="cls-11" transform="rotate(-73.05 53.147 207.988)" d="M46.99 203.37h12.3v9.22h-12.3z"/><path class="cls-12" transform="rotate(-73.06 53.123 207.968)" d="M48.03 204.14h10.22v7.66H48.03z"/><path class="cls-13" transform="rotate(-73.05 53.747 209.958)" d="M51.63 208.37h4.22v3.17h-4.22z"/><path class="cls-11" d="m71.14 213.46-7.29 5.33-3.08-8.49 7.29-5.33 3.08 8.49z"/><path class="cls-11" d="m70.37 213.22-6.21 4.55-2.62-7.24 6.21-4.54 2.62 7.23z"/><path class="cls-11" d="m69.65 213-5.2 3.81-2.19-6.06 5.19-3.8 2.2 6.05z"/><path class="cls-12" d="m69.02 212.81-4.31 3.16-1.83-5.03 4.32-3.16 1.82 5.03z"/><path class="cls-13" d="m68.15 212.55-1.78 1.3-.75-2.07 1.78-1.31.75 2.08z"/><path class="cls-14" d="m80.37 216.27-6.26 4.58-2.64-7.29 6.26-4.58 2.64 7.29z"/><path class="cls-14" d="m79.72 216.07-5.34 3.9-2.24-6.21 5.33-3.9 2.25 6.21z"/><path class="cls-14" d="m79.1 215.88-4.46 3.27-1.89-5.2 4.46-3.26 1.89 5.19z"/><path class="cls-12" d="m78.56 215.72-3.71 2.71-1.56-4.32L77 211.4l1.56 4.32z"/><path class="cls-13" d="m77.81 215.49-1.53 1.12-.65-1.78 1.54-1.12.64 1.78z"/><path class="cls-15" d="m88.18 218.65-5.23 3.83-2.21-6.1 5.23-3.82 2.21 6.09z"/><path class="cls-15" d="m87.63 218.48-4.46 3.26-1.87-5.19 4.45-3.26 1.88 5.19z"/><path class="cls-15" d="m87.11 218.32-3.72 2.73-1.58-4.34 3.73-2.73 1.57 4.34z"/><path class="cls-12" d="m86.66 218.19-3.09 2.27-1.31-3.61 3.1-2.27 1.3 3.61z"/><path class="cls-13" d="m86.04 218-1.28.93-.54-1.49 1.28-.93.54 1.49z"/><path class="cls-16" d="m94.55 220.59-4.2 3.08-1.77-4.9 4.2-3.07 1.77 4.89z"/><path class="cls-16" d="m94.11 220.46-3.58 2.61-1.51-4.16 3.58-2.62 1.51 4.17z"/><path class="cls-16" d="m93.69 220.33-2.99 2.19-1.26-3.49 2.99-2.19 1.26 3.49z"/><path class="cls-12" d="m93.33 220.22-2.48 1.82-1.05-2.9 2.48-1.82 1.05 2.9z"/><path class="cls-13" d="m92.83 220.07-1.03.75-.43-1.2 1.03-.75.43 1.2z"/><path class="cls-17" d="m99.49 222.1-3.17 2.32-1.34-3.7 3.17-2.32 1.34 3.7z"/><path class="cls-17" d="m99.15 221.99-2.7 1.98-1.14-3.15 2.7-1.97 1.14 3.14z"/><path class="cls-17" d="m98.84 221.9-2.26 1.65-.95-2.63 2.26-1.65.95 2.63z"/><path class="cls-12" d="m98.57 221.82-1.88 1.37-.79-2.19 1.88-1.37.79 2.19z"/><path class="cls-13" d="m98.19 221.7-.78.57-.32-.91.77-.56.33.9z"/><path class="cls-11" d="m35.14 202.49 3.07 8.49 7.29-5.33-3.08-8.49-7.28 5.33z"/><path class="cls-11" d="m35.9 202.72 2.62 7.24 6.21-4.55-2.62-7.23-6.21 4.54z"/><path class="cls-11" d="m36.63 202.94 2.19 6.06 5.19-3.81-2.19-6.05-5.19 3.8z"/><path class="cls-12" d="m37.25 203.13 1.82 5.03 4.32-3.16-1.83-5.03-4.31 3.16z"/><path class="cls-13" d="m38.12 203.4.75 2.08 1.79-1.31-.76-2.08-1.78 1.31z"/><path class="cls-14" d="m25.9 199.68 2.64 7.29 6.26-4.58-2.65-7.3-6.25 4.59z"/><path class="cls-14" d="m26.56 199.88 2.24 6.21 5.34-3.9-2.25-6.22-5.33 3.91z"/><path class="cls-14" d="m27.18 200.07 1.88 5.19 4.46-3.26-1.88-5.2-4.46 3.27z"/><path class="cls-12" d="m27.71 200.23 1.56 4.32 3.71-2.71-1.56-4.32-3.71 2.71z"/><path class="cls-13" d="m28.46 200.46.65 1.78 1.53-1.12-.65-1.78-1.53 1.12z"/><path class="cls-15" d="m18.09 197.3 2.21 6.09 5.23-3.83-2.21-6.09-5.23 3.83z"/><path class="cls-15" d="m18.64 197.47 1.88 5.19 4.46-3.26-1.88-5.19-4.46 3.26z"/><path class="cls-15" d="m19.16 197.62 1.57 4.35 3.73-2.73-1.57-4.34-3.73 2.72z"/><path class="cls-12" d="m19.61 197.76 1.3 3.61 3.1-2.27-1.31-3.61-3.09 2.27z"/><path class="cls-13" d="m20.23 197.95.54 1.49 1.28-.94-.54-1.49-1.28.94z"/><path class="cls-16" d="m11.72 195.36 1.77 4.89 4.2-3.07-1.77-4.9-4.2 3.08z"/><path class="cls-16" d="m12.16 195.49 1.51 4.17 3.58-2.62-1.51-4.17-3.58 2.62z"/><path class="cls-16" d="m12.58 195.62 1.26 3.49 3-2.2-1.27-3.48-2.99 2.19z"/><path class="cls-12" d="m12.94 195.73 1.05 2.9 2.49-1.82-1.05-2.9-2.49 1.82z"/><path class="cls-13" d="m13.44 195.88.43 1.2 1.03-.75-.43-1.2-1.03.75z"/><path class="cls-17" d="m6.78 193.85 1.34 3.7 3.17-2.32-1.34-3.7-3.17 2.32z"/><path class="cls-17" d="m7.12 193.96 1.14 3.14 2.7-1.97-1.14-3.15-2.7 1.98z"/><path class="cls-17" d="m7.43 194.05.95 2.64 2.26-1.66-.95-2.63-2.26 1.65z"/><path class="cls-12" d="m7.7 194.13.79 2.19 1.88-1.37-.79-2.19-1.88 1.37z"/><path class="cls-13" d="m8.08 194.25.33.9.78-.56-.33-.91-.78.57z"/></g><path class="cls-9" d="M158.74 377.85a49.31 49.31 0 0 1-15.38-2.44A72.28 72.28 0 0 1 130 369.6l8.31-15.13a54.8 54.8 0 0 0 10.23 4.53 32.17 32.17 0 0 0 9.92 1.64Z"/><path class="cls-10" d="M156.4 376.5a46.45 46.45 0 0 1-6.52-.72 58.15 58.15 0 0 1-6.14-1.6 61.74 61.74 0 0 1-5.81-2.13c-.94-.38-1.83-.84-2.76-1.26s-1.83-.84-2.7-1.33l6.77-13c.73.42 1.47.75 2.22 1.1s1.47.72 2.22 1c1.49.58 3 1.23 4.48 1.65a43.8 43.8 0 0 0 4.46 1.17 31.68 31.68 0 0 0 4.37.47Z"/><path class="cls-11" d="M154.34 375.2a58.39 58.39 0 0 1-19.59-5.93l5.41-11a46.63 46.63 0 0 0 15.31 4.73Z"/><path class="cls-12" d="M152.7 373.93a56.14 56.14 0 0 1-16-4.89l4.29-9.28a46.07 46.07 0 0 0 13.05 4Z"/><path class="cls-13" d="m150.51 372.31-3.33-.77c-1.1-.27-2.16-.66-3.24-1l1.33-4c1 .29 2 .66 3 .91l3 .7Z"/><path class="cls-11" d="M179.33 358.08a25.75 25.75 0 0 1-3.79 13.66 25.61 25.61 0 0 1-13.93-2.74 18.63 18.63 0 0 0 6.32-9.58 18.8 18.8 0 0 0 11.4-1.34Z"/><path class="cls-11" d="M178.42 359.39a24.31 24.31 0 0 1-3.42 11.43 18.25 18.25 0 0 1-3.22 0 26.73 26.73 0 0 1-3.06-.35c-1-.22-1.95-.46-2.86-.71a21.92 21.92 0 0 1-2.64-1 19.91 19.91 0 0 0 1.85-1.95c.55-.71 1.06-1.41 1.52-2.08a21.87 21.87 0 0 0 1.15-2.18 12 12 0 0 0 .79-2.2 18.54 18.54 0 0 0 9.89-.96Z"/><path class="cls-11" d="M177.49 360.56a16.46 16.46 0 0 1-.36 2.32 23 23 0 0 1-.6 2.38 24.33 24.33 0 0 1-2.09 4.71 24.26 24.26 0 0 1-5.15-.24 17.73 17.73 0 0 1-2.4-.54 17 17 0 0 1-2.23-.7 17.14 17.14 0 0 0 1.46-1.75 14.22 14.22 0 0 0 1.23-1.79 16.27 16.27 0 0 0 1.67-3.74 17.39 17.39 0 0 0 4.11.18 18.2 18.2 0 0 0 2.15-.3 14.21 14.21 0 0 0 2.21-.53Z"/><path class="cls-12" d="M176.64 361.54a21.75 21.75 0 0 1-.95 3.84c-.23.64-.47 1.29-.74 1.95a20 20 0 0 1-1 1.9c-.73 0-1.42.06-2.12 0s-1.42-.13-2.09-.22a20.26 20.26 0 0 1-3.86-.88 17.63 17.63 0 0 0 2.14-3c.3-.53.57-1 .82-1.55s.43-1.09.61-1.61a16.16 16.16 0 0 0 1.72.17h1.75a19.23 19.23 0 0 0 3.72-.6Z"/><path class="cls-13" d="M175.37 362.83a26.37 26.37 0 0 1-1 3.11 11.47 11.47 0 0 1-1.66.06h-1.61c.23-.49.44-1 .64-1.43a9.73 9.73 0 0 0 .52-1.43 23.91 23.91 0 0 0 3.11-.31Z"/><path class="cls-14" d="M185.73 340.11a53.56 53.56 0 0 1 3.76 10.94 39 39 0 0 1-9.77 6.44 33.74 33.74 0 0 0-2-10.33 48 48 0 0 0 8.01-7.05Z"/><path class="cls-14" d="M185.5 341.46c.67 1.46 1.19 2.94 1.75 4.49a50 50 0 0 1 1.37 4.82 41.6 41.6 0 0 1-8.18 5.55 32.1 32.1 0 0 0-.68-4.59 36.91 36.91 0 0 0-1.18-4.28 44.57 44.57 0 0 0 3.54-2.76c1.12-1.02 2.31-2.08 3.38-3.23Z"/><path class="cls-14" d="M185.27 342.73c.48 1.21 1 2.48 1.4 3.77s.83 2.63 1.13 4a39.62 39.62 0 0 1-6.76 4.69 30.16 30.16 0 0 0-.64-3.84 36.47 36.47 0 0 0-1-3.62c1-.71 2-1.51 3-2.33s1.9-1.75 2.87-2.67Z"/><path class="cls-12" d="M185 343.82a49 49 0 0 1 2.06 6.44c-.92.74-1.79 1.45-2.72 2.11s-1.87 1.26-2.81 1.83c-.16-1.1-.39-2.17-.6-3.2s-.56-2.07-.85-3.05a46.82 46.82 0 0 0 4.92-4.13Z"/><path class="cls-13" d="M184.69 345.33c.31.86.57 1.72.85 2.62-.68.61-1.4 1.18-2.15 1.73a26.42 26.42 0 0 0-.76-2.59c.67-.56 1.37-1.09 2.06-1.76Z"/><path class="cls-15" d="M186.61 323.92a84.3 84.3 0 0 1 5.14 8 77.45 77.45 0 0 1-5.9 7.46 72.37 72.37 0 0 0-4.46-7.94 82.84 82.84 0 0 0 5.22-7.52Z"/><path class="cls-15" d="M186.64 325.06c1.52 2.16 3 4.42 4.34 6.8-.78 1.11-1.58 2.21-2.43 3.27l-1.25 1.57-1.3 1.51-.89-1.75-1-1.71a58.14 58.14 0 0 0-2-3.31c1.63-2.01 3.11-4.15 4.53-6.38Z"/><path class="cls-15" d="M186.66 326.14c.64.91 1.24 1.84 1.84 2.78s1.2 1.92 1.76 2.9c-1.31 1.86-2.7 3.64-4.13 5.33-1-2-2.09-3.86-3.25-5.67.67-.85 1.3-1.72 1.93-2.61s1.26-1.8 1.85-2.73Z"/><path class="cls-12" d="M186.67 327.07c1 1.52 2 3.1 3 4.72-1.08 1.54-2.25 3-3.4 4.43-.89-1.63-1.77-3.19-2.74-4.71 1.09-1.43 2.1-2.91 3.14-4.44Z"/><path class="cls-13" d="m186.66 328.37 1.24 1.93-1.36 1.85-1.17-1.92 1.29-1.86z"/><path class="cls-16" d="M185.19 310.75c1.74 1.78 3.43 3.69 5 5.69-.57 1.15-1.15 2.28-1.78 3.39s-1.23 2.19-1.88 3.26c-.74-1-1.49-2-2.27-2.94s-1.55-1.89-2.35-2.8c1.21-2.12 2.29-4.35 3.28-6.6Z"/><path class="cls-16" d="M185.35 311.66c1.47 1.53 2.9 3.16 4.26 4.85-1 1.94-2 3.83-3.09 5.66-1.28-1.7-2.59-3.33-4-4.89q1.54-2.71 2.83-5.62Z"/><path class="cls-16" d="M185.5 312.51c1.21 1.29 2.4 2.65 3.54 4.06-.81 1.62-1.68 3.2-2.56 4.74-1.1-1.41-2.19-2.78-3.34-4.09q1.25-2.3 2.36-4.71Z"/><path class="cls-12" d="M185.62 313.25c1 1.09 2 2.21 2.92 3.37q-1 2-2.12 3.94-1.35-1.76-2.78-3.39c.7-1.29 1.36-2.58 1.98-3.92Z"/><path class="cls-13" d="m185.76 314.28 1.22 1.38-.85 1.64-1.17-1.39.8-1.63z"/><path class="cls-17" d="M182 301.08a5.31 5.31 0 0 1 .7.24c.21.1.42.22.64.35a10.16 10.16 0 0 1 1.26.83c.42.3.82.61 1.19.93s.79.65 1.15 1a42.76 42.76 0 0 1-1.9 5.46 40.69 40.69 0 0 0-4.12-3.64c.16-.43.28-.82.42-1.25s.26-.85.36-1.27a10.08 10.08 0 0 0 .27-1.28c0-.22.06-.45.07-.68a5.56 5.56 0 0 0-.04-.69Z"/><path class="cls-17" d="M182.41 301.63a19.48 19.48 0 0 1 4.07 2.91 43 43 0 0 1-1.6 4.65 41.88 41.88 0 0 0-3.53-3.1 17 17 0 0 0 1.06-4.46Z"/><path class="cls-17" d="M182.72 302.2a15 15 0 0 1 1.72 1.14c.53.42 1.09.87 1.62 1.33-.2.67-.4 1.33-.61 2l-.7 1.9-1.47-1.34c-.51-.44-1-.85-1.51-1.25.21-.6.38-1.2.57-1.84a16.3 16.3 0 0 0 .38-1.94Z"/><path class="cls-12" d="M183 302.71a23.64 23.64 0 0 1 2.73 2.07c-.33 1.11-.68 2.18-1.08 3.22-.81-.76-1.65-1.48-2.49-2.14a23.14 23.14 0 0 0 .84-3.15Z"/><path class="cls-13" d="M183.27 303.43c.39.26.74.55 1.11.84-.11.46-.23.9-.38 1.34-.35-.3-.71-.58-1.08-.85.08-.43.26-.88.35-1.33Z"/><path class="cls-11" d="M114.15 347.86c1.16 4.17 2.54 8.33 4.15 12.54a109 109 0 0 0 13.26.13 102.09 102.09 0 0 1-4.7-11.78c-4.15-.09-8.42-.38-12.71-.89Z"/><path class="cls-11" d="M115.36 348.9c.53 1.75 1.08 3.53 1.66 5.31s1.23 3.54 1.91 5.32c1.93.1 3.79.21 5.67.24s3.73 0 5.58-.06c-.77-1.65-1.45-3.39-2.12-5s-1.25-3.4-1.83-5.06c-1.78 0-3.57-.14-5.4-.24s-3.62-.34-5.47-.51Z"/><path class="cls-11" d="M116.52 349.84c.89 3 1.9 5.9 3 8.88 1.59.08 3.17.15 4.72.2s3.13 0 4.66 0c-.6-1.43-1.19-2.83-1.74-4.24s-1-2.86-1.54-4.26c-2.98-.09-6.04-.27-9.1-.58Z"/><path class="cls-12" d="M117.53 350.66c.74 2.48 1.61 4.88 2.51 7.36 2.64.13 5.21.24 7.79.19-1-2.34-1.88-4.75-2.71-7.09-2.49-.12-5.06-.2-7.59-.46Z"/><path class="cls-13" d="m118.94 351.8 1 3c1.06.07 2.11.14 3.18.16-.37-1-.71-2-1.05-3Z"/><path class="cls-14" d="M100.15 334.69c.67 3.65 1.43 7.33 2.32 11 1.87.34 3.72.66 5.59.94s3.7.55 5.55.76q-.75-2.67-1.39-5.37c-.44-1.77-.84-3.56-1.21-5.35-3.61-.53-7.22-1.21-10.86-1.98Z"/><path class="cls-14" d="M101.11 335.67c.29 1.56.6 3.12.94 4.67s.67 3.13 1.06 4.69c3.15.58 6.33 1.06 9.46 1.47-.82-3.06-1.55-6.1-2.2-9.15-1.54-.23-3.08-.5-4.62-.78s-3.1-.57-4.64-.9Z"/><path class="cls-14" d="M102 336.59c.53 2.58 1.06 5.22 1.69 7.81 2.63.49 5.29.89 7.9 1.26-.66-2.58-1.28-5.12-1.82-7.68-2.58-.39-5.15-.89-7.77-1.39Z"/><path class="cls-12" d="M102.8 337.38c.45 2.14.89 4.33 1.41 6.48 2.19.4 4.38.74 6.56 1.05-.54-2.13-1-4.25-1.5-6.39-2.16-.33-4.27-.74-6.47-1.14Z"/><path class="cls-13" d="m103.91 338.47.57 2.68 2.7.46-.6-2.65-2.67-.49z"/><path class="cls-15" d="M89.17 322.72c.38 3.08.82 6.18 1.31 9.28 3 .78 6.1 1.49 9.13 2.14q-.83-4.59-1.47-9.13-4.47-1.06-8.97-2.29Z"/><path class="cls-15" d="M89.93 323.59c.32 2.63.71 5.25 1.12 7.89q3.89 1 7.77 1.84c-.46-2.61-.88-5.2-1.25-7.79-2.57-.61-5.1-1.25-7.64-1.94Z"/><path class="cls-15" d="M90.63 324.4q.44 3.28 1 6.6c2.17.54 4.33 1.06 6.5 1.54-.39-2.18-.72-4.36-1-6.53-2.22-.5-4.35-1.01-6.5-1.61Z"/><path class="cls-12" d="M91.25 325.1c.25 1.81.5 3.65.79 5.48 1.81.44 3.59.88 5.39 1.28-.31-1.8-.58-3.63-.85-5.43-1.78-.43-3.58-.87-5.33-1.33Z"/><path class="cls-13" d="m92.12 326.07.32 2.26 2.22.55-.34-2.25-2.2-.56z"/><path class="cls-16" d="M80.72 312.51c.2 2.49.43 5 .7 7.49 2.4.73 4.81 1.43 7.21 2.1-.29-2.48-.56-4.94-.79-7.41-2.37-.69-4.75-1.42-7.12-2.18Z"/><path class="cls-16" d="M81.29 313.24q.27 3.17.6 6.36c2 .63 4.1 1.22 6.14 1.8-.25-2.11-.47-4.22-.67-6.31-2.02-.6-4.05-1.21-6.07-1.85Z"/><path class="cls-16" d="M81.83 313.91c.15 1.77.32 3.55.51 5.33 1.71.51 3.42 1 5.13 1.5-.2-1.76-.38-3.53-.55-5.28-1.7-.46-3.39-1.02-5.09-1.55Z"/><path class="cls-12" d="m82.3 314.49.42 4.43c1.43.42 2.84.85 4.27 1.25-.17-1.46-.31-2.94-.46-4.4Z"/><path class="cls-13" d="m82.96 315.3.17 1.83 1.76.53-.18-1.82-1.75-.54z"/><path class="cls-17" d="M74.5 304.33c.07 1.89.17 3.78.29 5.67 1.79.63 3.59 1.23 5.38 1.81-.15-1.87-.27-3.74-.37-5.61-1.8-.59-3.53-1.2-5.3-1.87Z"/><path class="cls-17" d="M74.91 304.9c.06 1.6.15 3.21.25 4.82 1.53.53 3 1 4.58 1.55-.12-1.6-.22-3.2-.31-4.79-1.51-.48-3.01-1.03-4.52-1.58Z"/><path class="cls-17" d="M75.3 305.42c0 1.35.13 2.69.21 4l3.83 1.29-.26-4c-1.26-.39-2.52-.83-3.78-1.29Z"/><path class="cls-12" d="m75.63 305.88.18 3.35 3.18 1.08-.21-3.33-3.15-1.1z"/><path class="cls-13" d="m76.1 306.51.08 1.38 1.3.46-.07-1.38-1.31-.46z"/><path class="cls-7" d="M280.89 404.07c-110.86-39.48-178.6-82.34-240-91.46-22.71-3.37-33.77 6.08-37.4 21.21s3.34 27.49 23.51 41.8c66.84 47.35 214.39 81 243.8 87.95 41.66 9.9 226-14 226-14-5.09-13.79-5.89-28.64-2.12-40.14 0 0-76.09-1.63-104.19-2.89s-109.6-2.47-109.6-2.47Z"/><path class="cls-4" d="M432.39 411.75s9.35-1.89 24-.46c0 0 53.64-10.26 72.18-3.89 0 0 35.67 5 51 5.27 0 0 11.35 0 12.66 4.37S596 457 596 457s6.29 8.93-19.49 9.24c0 0-.82 6.4-6 9.61s-13.2.63-28.72-11.28c0 0-21.41-6.47-26.93-21.29 0 0 1.52-4.7-16.71-3.52l-65.78-2.06Z"/><path class="cls-7" d="M432.39 409.56a74.12 74.12 0 0 1 26.44-2.23s57.59-5.41 76.13 1c0 0 27.82 6 43.17 6.37 0 0 11.35 0 12.66 4.37S596 462.7 596 462.7s6.29 8.93-19.49 9.24c0 0-.82 6.4-6 9.61s-13.2.63-28.72-11.28c0 0-21.41-6.47-26.93-21.29 0 0-10.12-.62-34.4 2.67l-52.25 6.2Z"/><path class="cls-4" d="M576.52 471.94c-6.68-.45-22.8-11.59-24.23-18.37-.77-3.65.23-4.6 3.62-4.45 9.06.41 16.7-2.6 22.41-9.89.51-.65.64-1.73 2.24-1.78a15.29 15.29 0 0 1-5.84 8c-1.69 1.25-3.46 3-1.85 4.06 3.49 2.36 5.3 1.86 7.36 5.57.38.67 3.94 4.76 2.95 4.41-3.31-1.16-4.12-.81-5.8.85-.43.42-2.3 1.48-2.16.91a12.38 12.38 0 0 0-.13-6.48c-.69-2.36-.61-5.22-3.13-4.81-3.22.53-10.89-.18-12.32 2.41-1.17 2.1.26 7.73 1.65 9.32 4.2 4.8 13.53 10.31 15.23 10.25"/><path class="cls-5" d="M99.26 288s42.58 22.14 76 3.54c0 0-1.72 7.29 1 10.81 0 0 2 29.91-29.16 27.14s-49.5-24.37-49.5-24.37 1.96-13.32 1.66-17.12Z"/><path class="cls-2" d="M81 132.08s-15 32.8-4.21 45S94.47 218.81 91 224.3c0 0-11.12-39.45-20.5-46.11s-8.33-24 0-50.8 10.5 4.69 10.5 4.69Z"/></g></g></svg>