<svg xmlns="http://www.w3.org/2000/svg" viewBox="0 0 445.42 674.72"><defs><style>.cls-1{fill:#5e2929}.cls-2{fill:#efeadc}.cls-3{fill:#fbbf94}.cls-4{fill:#f28657}.cls-5{fill:#c45555}.cls-6{fill:#fff}.cls-11{fill:#cbc9b7}</style></defs><g id="Capa_2" data-name="Capa 2"><g id="Información"><ellipse class="cls-1" cx="162.78" cy="179.39" rx="9.88" ry="10.88"/><path class="cls-1" d="M269.34 170.76c5.46 0 9.88 4.86 9.88 10.87s-4.42 10.87-9.88 10.87-9.89-4.87-9.89-10.87 4.43-10.87 9.89-10.87Z"/><path class="cls-2" d="m440.28 589.55 5.14 83.2H335.71L346 574.26l87.46-47.78c4.17 20.72 5.54 42.14 6.82 63.07Z"/><path class="cls-2" d="m346 574.26-10.29 98.49h-35.19L287 410.24q-.63-12.45-1.28-24.9a120.8 120.8 0 0 0 24.65 12.91 313.63 313.63 0 0 1 42.23 20.46c28.54 16.58 55.24 39.37 69 69.92a175.27 175.27 0 0 1 11.81 37.85Zm-246.58 0 10.28 98.49H0q2.57-41.6 5.13-83.2c1.29-20.93 2.65-42.35 6.87-63.07Z"/><path class="cls-2" d="M99.42 574.26 12 526.48a174.72 174.72 0 0 1 11.81-37.85c13.8-30.55 40.51-53.34 69.05-69.92a313 313 0 0 1 42.23-20.46 120.55 120.55 0 0 0 27.25-14.73l.79 1.08-1.32 25.64Q155 541.49 148.25 672.75H109.7l-10.28-98.49Z"/><path class="cls-3" d="M285.72 385.34q.63 12.45 1.28 24.9a137.76 137.76 0 0 1-38.51 26.35c-14.21 6.42-35.59 5.32-49.57-.92a130.5 130.5 0 0 1-37.15-25.43l1.32-25.64-.79-1.08c2.8-2 5.62-4.2 8.53-6.61 4.43-3.65 8.8-7.59 11.46-12.67a23.82 23.82 0 0 0 2.47-7.67l.72.1c20.61 15.33 48.81 17.75 71.32 5.33 1.51-.83 3-1.71 4.42-2.65a23.38 23.38 0 0 0 1.91 4.93c2.65 5.08 7 9 11.45 12.67 3.82 3.12 7.47 5.89 11.14 8.39Z"/><path class="cls-4" d="M260.31 352.74a29 29 0 0 0 .91 6.57 65.37 65.37 0 0 1-4.42 2.65c-22.51 12.46-50.71 10-71.32-5.29l-.72-.1A31.56 31.56 0 0 0 185 349a75.91 75.91 0 0 0-3.63-16.11 116.93 116.93 0 0 0 37.09 7.7c15.56.5 31.45-3.66 46.09-10-2.24 6.91-4.45 14.7-4.24 22.15Z"/><path class="cls-5" d="M54.35 232.72c2.52 9.73 9.87 17.75 18.62 22.72a61.63 61.63 0 0 0 16.32 6.19c6.94 1.64 11.91 1.83 15.89 8.39a149.16 149.16 0 0 0 13 18.2q4.41 5.28 9.28 10.15a103.1 103.1 0 0 1 10.62 27.41c1.42 6.18 2.26 12.65.83 18.82-1.21 5.24-4.3 10.24-8.84 13-13.64 3.57-28.78.48-40.94-6.89-16-9.68-27.93-25.25-31.53-43.34a93 93 0 0 1-1.49-23.07c.72-13.22 1.15-25.55-1-38.77-.83-5-1.8-10-2.63-15.08l1.41-.24c.11.79.25 1.68.46 2.51Z"/><path class="cls-6" d="M227.62 247.28c4.81 0 8.7 6.3 8.7 14.08s-3.89 14.07-8.7 14.07-8.69-6.3-8.69-14.07 3.89-14.08 8.69-14.08Z"/><path class="cls-1" d="M302 140.34a5.33 5.33 0 0 1-3 5.66c-3.72 1.51-7.5-2.1-10.78-3.3a77.27 77.27 0 0 0-12.12-3.29c-4.85-.93-11.75-.77-16-3.37-2.1-1.26-3.53-4-2.54-6.2a6.22 6.22 0 0 1 4.86-4c5.12-1.28 12.47.56 17.52 1.79a79.2 79.2 0 0 1 10.1 3.48c2.87 1.12 5.78 1.77 8.33 3.69a8.72 8.72 0 0 1 3.63 5.54Zm-119-10.52c1 2.23-.44 4.94-2.54 6.2-4.28 2.6-11.18 2.44-16 3.37a77.27 77.27 0 0 0-12.12 3.29c-3.28 1.2-7.07 4.81-10.78 3.3a5.35 5.35 0 0 1-2.95-5.64 8.78 8.78 0 0 1 3.62-5.6c2.55-1.92 5.46-2.57 8.33-3.69a79.2 79.2 0 0 1 10.1-3.48c5.05-1.23 12.4-3.07 17.52-1.79a6.19 6.19 0 0 1 4.82 4.04Z"/><path d="M346 322c3.87 20.1 20.66 33.07 41.19 31.29l.71-.07c-15.75 4.82-32 6.53-48.59 7.21-12.72.53-25.42-1.22-38-3l-22.35-3.09c-5.74-.8-12.69-2.85-18.57-1.65-.21-7.45 2-15.24 4.2-22.11a167.6 167.6 0 0 0 17.8-9q3.09-1.8 6.09-3.75A149.64 149.64 0 0 0 334.69 270c3.73-6.14 8.32-6.7 14.59-8.1a130.62 130.62 0 0 1-1.47 19.46C346 294.88 343.37 308.63 346 322Zm-164.67 10.93A75.91 75.91 0 0 1 185 349a64.81 64.81 0 0 0-40.73 2.47c-3.17 1.26-6 3.16-9.08 4.4a40.51 40.51 0 0 1-5.1 1.67c4.54-2.74 7.63-7.74 8.84-13 1.43-6.17.59-12.64-.83-18.82a103.1 103.1 0 0 0-10.62-27.41 148.94 148.94 0 0 0 24 19.48c2 1.3 4 2.55 6.1 3.75a156.16 156.16 0 0 0 23.75 11.39Z" style="fill:#9b3c3d"/><path class="cls-5" d="M63 205.65c-7.42 5.43-10.61 15.42-9.17 24.54l-1.41.24c-1.37-8.23-2.39-16.5-1.9-24.86.93-15.7 7.14-30.5 12.06-45.44a285.09 285.09 0 0 0 9.54-37.4c2-10.92 2.15-22.24 6-32.56 7.55-20 14.74-38 33-50.83a75.49 75.49 0 0 1 28.65-12.16c8.16-1.6 16.69-1.89 24.46-5.13 7.2-3 13.27-8.39 20.36-11.79A108.17 108.17 0 0 1 231.53 0a111.92 111.92 0 0 1 11.59.65c26 2.81 50.35 13.89 71.55 28.8 20.33 14.32 32.53 36.88 41.7 59.74 7.95 19.8 12.64 42.14 26.28 59.09 6.5 8.08 15.4 12.91 21.69 21.08A74.93 74.93 0 0 1 419 224.15c-1.22 9.24-4.18 18.28-4.26 27.61-.09 11.4 6.59 17.19 11 26.66a57.57 57.57 0 0 1 4.5 32.4c-3.39 21.78-20 40.13-42.41 42.42l-.71.07c-20.5 1.78-37.29-11.19-41.12-31.31-2.59-13.39 0-27.14 1.85-40.64a130.62 130.62 0 0 0 1.47-19.46 56.44 56.44 0 0 0-2.88-17.9c-1.51-2.68-3-5.38-4.36-8.12a189.94 189.94 0 0 1-17.15-52.35c-1.72-10-2.64-20.17-5.06-30-2.3-9.39-6.08-17.77-14.06-23.62-6.68-4.91-14.8-7.7-20.59-13.83C278.74 109.21 274 98.3 265 94.85c-8.51-3.26-18.16-1.7-26.88-1.86-15.81-.29-32.05-2-46.11-9.22a55.11 55.11 0 0 1-12.26-8.62 50.66 50.66 0 0 1-4.94-5.31c-.87-1.07-2.32-4.37-3.63-4.84-4.13-1.49-6 9.58-7 12.08A81.11 81.11 0 0 1 155 93.32c-6.31 8.75-14 16.13-21.57 23.76-6.58 6.64-9 12.35-9.86 21.66-.74 8.43-4.38 16.74-8.34 24.11S106.09 176.36 103 184a75.85 75.85 0 0 0-3.61 11.4c-.87 3.69-.75 7.2-1.47 10.81a5.94 5.94 0 0 1-3.16 4.42A3.67 3.67 0 0 1 90 209h-.07c-5.87-8.16-18.82-9.3-26.93-3.35Z"/><path class="cls-3" d="M181.33 332.93a156.16 156.16 0 0 1-23.76-11.33c-2.06-1.2-4.1-2.45-6.1-3.75a148.94 148.94 0 0 1-24-19.48q-4.86-4.86-9.28-10.15a149.16 149.16 0 0 1-13-18.2c-4-6.56-9-6.75-15.89-8.39a61.63 61.63 0 0 1-16.3-6.19c-8.75-5-16.1-13-18.62-22.72-.21-.83-.39-1.68-.52-2.53-1.44-9.12 1.75-19.11 9.17-24.54 8.11-6 21.06-4.81 26.91 3.37h.07a3.67 3.67 0 0 0 4.78 1.61 5.94 5.94 0 0 0 3.16-4.42c.72-3.61.6-7.12 1.47-10.81A75.85 75.85 0 0 1 103 184c3.09-7.61 8.36-13.87 12.27-21.12s7.6-15.68 8.34-24.11c.82-9.31 3.28-15 9.86-21.66 7.56-7.63 15.26-15 21.57-23.76a81.11 81.11 0 0 0 9.15-16.24c1-2.5 2.85-13.57 7-12.08 1.31.47 2.76 3.77 3.63 4.84a50.66 50.66 0 0 0 4.94 5.31A55.11 55.11 0 0 0 192 83.77C206.06 91 222.3 92.7 238.11 93c8.72.16 18.37-1.4 26.88 1.86 9 3.45 13.75 14.36 20.23 21.19 5.79 6.13 13.91 8.92 20.59 13.83 8 5.85 11.76 14.23 14.06 23.62 2.42 9.86 3.34 20 5.06 30a189.94 189.94 0 0 0 17.15 52.35c1.37 2.74 2.85 5.44 4.36 8.12a56.44 56.44 0 0 1 2.84 17.93c-6.27 1.4-10.86 2-14.59 8.1a149.64 149.64 0 0 1-46.29 47.83q-3 1.95-6.09 3.75a167.6 167.6 0 0 1-17.8 9c-14.64 6.34-30.53 10.5-46.09 10a116.93 116.93 0 0 1-37.09-7.65ZM299 146a5.33 5.33 0 0 0 2.94-5.64 8.72 8.72 0 0 0-3.61-5.6c-2.55-1.92-5.46-2.57-8.33-3.69a79.2 79.2 0 0 0-10.1-3.48c-5.05-1.23-12.4-3.07-17.52-1.79a6.22 6.22 0 0 0-4.86 4c-1 2.23.44 4.94 2.54 6.2 4.29 2.6 11.19 2.44 16 3.37a77.27 77.27 0 0 1 12.12 3.29c3.34 1.22 7.12 4.83 10.82 3.34Zm-19.8 35.65c0-6-4.42-10.87-9.88-10.87s-9.89 4.86-9.89 10.87 4.43 10.87 9.89 10.87 9.9-4.89 9.9-10.89Zm-42.9 79.73c0-7.78-3.89-14.08-8.7-14.08s-8.69 6.3-8.69 14.08 3.89 14.07 8.69 14.07 8.72-6.32 8.72-14.09ZM180.43 136c2.1-1.26 3.54-4 2.54-6.2a6.19 6.19 0 0 0-4.85-4c-5.12-1.28-12.47.56-17.52 1.79a79.2 79.2 0 0 0-10.1 3.48c-2.87 1.12-5.78 1.77-8.33 3.69a8.78 8.78 0 0 0-3.62 5.6 5.35 5.35 0 0 0 2.95 5.64c3.71 1.51 7.5-2.1 10.78-3.3a77.27 77.27 0 0 1 12.12-3.29c4.85-.95 11.75-.79 16.03-3.41Zm-7.76 43.37c0-6-4.43-10.88-9.89-10.88s-9.88 4.87-9.88 10.88 4.42 10.88 9.88 10.88 9.89-4.85 9.89-10.86Z"/><path d="M148.25 672.75h152.27l-1-18.88a808.31 808.31 0 0 1-149.5-16.07Z" style="fill:#ededed"/><path class="cls-6" d="M248.49 436.59c-14.21 6.42-35.59 5.32-49.57-.92a130.5 130.5 0 0 1-37.15-25.43Q155.91 524 150.05 637.8a808.31 808.31 0 0 0 149.5 16.07Q293.27 532.05 287 410.24a137.76 137.76 0 0 1-38.51 26.35Z"/><path d="M286.23 212.92c-3.94 4.87-4.24 12.21-1.1 17.63a18.57 18.57 0 0 0 15.63 8.85 22.23 22.23 0 0 0 16.56-7.57c4.07-4.57 6.35-11.06 4.73-17-3.92-14.29-28.28-11.23-35.82-1.91Zm-128.47 1.18c3.94 4.86 4.24 12.21 1.1 17.63a18.59 18.59 0 0 1-15.63 8.84 22.23 22.23 0 0 1-16.56-7.57c-4.07-4.57-6.35-11.06-4.73-17 3.92-14.29 28.28-11.22 35.82-1.9Zm79.56-2.68a1.69 1.69 0 0 0 .55-1.15 1.28 1.28 0 0 0-1.23-1.06 4.17 4.17 0 0 0-1.72.38 19.78 19.78 0 0 1-11.3.55 6.92 6.92 0 0 0-2-.32 1.84 1.84 0 0 0-1.63 1.05 1.74 1.74 0 0 0 .39 1.69 4.29 4.29 0 0 0 1.51 1c4.86 2.19 11.68 2.08 15.43-2.14Z" style="fill:#f7a17c"/><path class="cls-4" d="M230.49 216.85a1.82 1.82 0 0 1-.17-3.64 12.7 12.7 0 0 0 7.75-21.61 29.35 29.35 0 0 0-3.21-2.61 35.66 35.66 0 0 1-3-2.35 20.12 20.12 0 0 1-5.37-21.09 1.83 1.83 0 0 1 3.45 1.21 16.37 16.37 0 0 0 4.36 17.17c.83.75 1.73 1.41 2.69 2.12a30.33 30.33 0 0 1 3.64 3 16.35 16.35 0 0 1-10 27.82ZM91.26 246.6h-.09a1.83 1.83 0 0 1-1.74-1.9c.08-1.65-2.47-3-3.57-3.54h-.06c-2.49-1.17-5.59-2.62-6.41-5.84-.56-2.19.24-4.16.94-5.89a13.7 13.7 0 0 0 .81-2.35c.55-2.67-1.23-5.76-4.06-7a10.81 10.81 0 0 0-9.23.69 1.82 1.82 0 1 1-1.69-3.23 14.41 14.41 0 0 1 12.41-.79c4.4 2 7 6.73 6.14 11.08a16.4 16.4 0 0 1-1 3c-.56 1.39-1 2.59-.79 3.62.4 1.55 2.54 2.55 4.42 3.43h.07c4.85 2.27 5.76 5.07 5.67 7a1.82 1.82 0 0 1-1.82 1.72Z"/><path d="M362.49 285.38a1.82 1.82 0 0 1-1.81-1.69c-1-12.82-7.06-23.48-13.52-34.76-.52-.9-1-1.8-1.55-2.71a1.82 1.82 0 0 1 3.17-1.8l1.54 2.7c6.38 11.14 13 22.66 14 36.3a1.81 1.81 0 0 1-1.68 1.95Zm-27.91 77c-11.33 0-22.63-1.57-33.6-3.09l-22.35-3.1c-1.49-.2-3-.48-4.63-.78-5.06-.93-10.28-1.89-14.57-.57a1.83 1.83 0 0 1-1.08-3.49c5.15-1.58 11.08-.49 16.31.47 1.57.29 3.06.56 4.47.76l22.35 3.1c12.34 1.71 25.11 3.48 37.71 2.95 17.61-.73 38.34-2.59 58.59-10.86a1.83 1.83 0 0 1 1.38 3.38c-20.77 8.48-41.89 10.39-59.82 11.13-1.58.06-3.17.1-4.76.1Z" style="fill:#6a3650"/><path class="cls-11" d="M109.68 674.39a1.81 1.81 0 0 1-1.81-1.63L90.79 509.21a1.82 1.82 0 1 1 3.63-.38l17.08 163.55a1.83 1.83 0 0 1-1.63 2Z"/><path class="cls-11" d="M99.5 576.13a1.79 1.79 0 0 1-.87-.22L11.12 528.1a1.82 1.82 0 0 1 1.75-3.2l87.51 47.81a1.82 1.82 0 0 1-.88 3.42Zm236.2 98.59h-.19a1.81 1.81 0 0 1-1.62-2L351 508.83a1.82 1.82 0 1 1 3.63.38l-17.12 163.88a1.81 1.81 0 0 1-1.81 1.63Z"/><path class="cls-11" d="M346.17 576a1.82 1.82 0 0 1-.88-3.42l87.24-47.66a1.82 1.82 0 1 1 1.75 3.2L347 575.77a1.84 1.84 0 0 1-.83.23Z"/><path class="cls-6" d="M171.48 295.35c1.43 9.26-3.3 19.33-11.58 23.83-2.89 1.56-6.93 1.68-9 4.5-1.08 1.45-1.66 3.33-2.79 4.82a21.79 21.79 0 0 1-9 7.05 21.63 21.63 0 0 1-29.42-15.71c-.44-2.08.26-4.48-.66-6.37-.83-1.7-2.67-2.56-4.1-3.66a15.18 15.18 0 0 1-5-7.81 20.18 20.18 0 0 1 2.48-15.61A24 24 0 0 1 115.75 276a23.06 23.06 0 0 1 10.85-.69c7.4 1.32 11.51-5.86 18.93-5.79a16.5 16.5 0 0 1 12.21 5.9 14.7 14.7 0 0 1 13.49 8.75 168.09 168.09 0 0 0 40.2-14.35 76.49 76.49 0 0 1-39.95 25.53Z"/></g></g></svg>