<svg xmlns="http://www.w3.org/2000/svg" viewBox="0 0 483.41 768.64"><defs><style>.cls-1{fill:#ffaf82}.cls-3{fill:#32324c}.cls-4{fill:#e63067}.cls-5{fill:#ff8175}.cls-6{fill:#fff}.cls-7{fill:#434361}.cls-8{fill:#f88968}.cls-9{fill:#c11c57}</style></defs><g id="Capa_2" data-name="Capa 2"><g id="Información"><path class="cls-1" d="M51.94 393a84.13 84.13 0 0 1 .73 16.75c-.67 7.81-1.67 17.31-2.17 22.14-.59 5.81-6.79 3.1-6.43-5s.4-9.93.4-9.93-9.42 29.95-15 36.42c-5.1 5.9-.77-10.87 2-24.93 0 0-14.34 27.4-19.75 27.9-7.1.65 10.37-32.48 10.37-32.48s-16.67 22.6-19.21 20.31c-2.83-2.56 11.29-27.69 11.29-27.69S1.28 431 .17 428.93c-2.22-4.15 18.09-39.81 35.95-47 0 .07 14.21 6.77 15.82 11.07Z"/><path style="fill:#345668" d="M125.29 447.75h237.36v312.88H125.29z"/><path class="cls-3" d="M383 697.44s-45.4-155.55-27.67-206.5c0 0-149.69 22.76-156.31-47.18L241 416.17s110.91-26.69 174.68 62.39c12.64 17.65-8.9 208.74-8.9 208.74Z"/><path class="cls-4" d="M477.88 754.11 386.67 756c-4.31.09-7.89-3.44-8.51-8a10.83 10.83 0 0 1-.08-2l2.81-53.69a49.34 49.34 0 0 1 9.05-3.55 9.77 9.77 0 0 0 6.65-7c.06-.25.12-.52.17-.78 1.92-10.36 15.16-13.92 17.78-3.89.34 1.29.64 2.55.9 3.77l.18.9c.43 2.15.75 4.15 1 5.89v.11a63.11 63.11 0 0 1 .57 7.27c1.24 1.7 2.43 3.36 3.59 5 .59.81 1.16 1.62 1.73 2.42q1.83 2.58 3.59 5c.54.75 1.08 1.49 1.62 2.21 1.3 1.74 2.57 3.39 3.85 4.93.57.7 1.15 1.39 1.74 2 4.79 5.44 9.6 9.12 15.22 9.87 9.91 1.31 26.09 2.19 34.17 18.27a6.9 6.9 0 0 1 .41 1c1.21 3.98-1.35 8.27-5.23 8.38Z"/><path class="cls-5" d="M477.88 754.11 386.67 756c-4.31.09-7.89-3.43-8.51-8l105-2.2c1.16 3.91-1.4 8.2-5.28 8.31Z"/><path class="cls-6" d="M422.51 702.47c-1 1.76-3.15 3.9-7.46 5.93-.73.36-1.53.7-2.4 1l-.83-2.65c.86-.34 1.63-.67 2.33-1 5-2.36 6.28-4.6 6.63-5.74.59.85 1.16 1.66 1.73 2.46Z"/><path class="cls-6" d="M415.06 708.06a2.84 2.84 0 1 1-2.88-3.11 3 3 0 0 1 2.88 3.11Zm12.66 1.62a17.71 17.71 0 0 1-6.17 4.52 30.27 30.27 0 0 1-2.87 1.27l-.83-2.65c1-.39 1.86-.77 2.65-1.15a14.52 14.52 0 0 0 5.6-4.2c.54.75 1.08 1.53 1.62 2.21Z"/><path class="cls-6" d="M421.56 714.08a3 3 0 0 1-2.78 3.23 3.19 3.19 0 1 1 2.78-3.23Zm11.75 2.57a18.1 18.1 0 0 1-6 4.34c-.88.44-1.84.87-2.92 1.29l-.82-2.66c1-.38 1.87-.78 2.66-1.17a15.52 15.52 0 0 0 5.32-3.84c.59.7 1.17 1.39 1.76 2.04Z"/><path class="cls-6" d="M427.33 720.88a2.85 2.85 0 1 1-2.88-3.11 3 3 0 0 1 2.88 3.11Zm-10.73-33.21a57.48 57.48 0 0 0-8.12.68v-5.11a18.63 18.63 0 0 1 7.18-1.46c.39 2.15.71 4.15.94 5.89Z"/><path class="cls-7" d="M283.48 470c-27 30.22-58.44 36-79.05 25.34-19.53-10.15-31.31-35.58-27.91-61.66 2.63-20.13 12.35-26.32 12.35-26.32 46.49-3.75 117.93-1.19 117.93-1.19s8.74 27.98-23.32 63.83Z"/><path class="cls-7" d="M362.17 710.05s-45.4-155.55-27.67-206.51c0 0-149.69 22.77-156.3-47.17l41.91-27.6s110.9-26.68 174.67 62.4c12.64 17.65-8.9 208.74-8.9 208.74Z"/><path class="cls-4" d="m454.77 766.72-91.21 1.91c-4.32.09-7.89-3.43-8.51-8a10 10 0 0 1-.08-2l2.8-53.69a50.06 50.06 0 0 1 9.06-3.56 9.77 9.77 0 0 0 6.65-7c.06-.26.11-.52.17-.78 1.92-10.36 15.16-13.92 17.78-3.89.34 1.29.64 2.55.89 3.77.07.3.13.6.19.89.43 2.16.75 4.15 1 5.89v.12a64.9 64.9 0 0 1 .58 7.27c1.23 1.69 2.43 3.36 3.59 5 .59.82 1.16 1.63 1.72 2.43 1.23 1.71 2.42 3.39 3.6 5 .54.75 1.08 1.48 1.62 2.2 1.3 1.75 2.57 3.4 3.85 4.94.57.7 1.14 1.39 1.73 2 4.8 5.43 9.6 9.11 15.23 9.87 9.91 1.31 26.09 2.19 34.16 18.27a5.18 5.18 0 0 1 .41 1c1.21 3.96-1.35 8.28-5.23 8.36Z"/><path class="cls-5" d="m454.77 766.72-91.21 1.91c-4.32.09-7.89-3.44-8.51-8L460 758.42c1.21 3.9-1.35 8.22-5.23 8.3Z"/><path class="cls-6" d="M399.39 715.08c-1 1.75-3.14 3.9-7.45 5.93-.73.35-1.53.7-2.4 1l-.83-2.65c.86-.34 1.63-.67 2.33-1 4.95-2.35 6.28-4.59 6.63-5.74.59.85 1.16 1.66 1.72 2.46Z"/><path class="cls-6" d="M392 720.66a3 3 0 0 1-2.78 3.23 3.19 3.19 0 1 1 2.78-3.23Zm12.61 1.62a17.81 17.81 0 0 1-6.17 4.53 30.27 30.27 0 0 1-2.87 1.27l-.83-2.65c1-.39 1.86-.77 2.64-1.16 3.17-1.55 4.79-3 5.61-4.19.54.75 1.08 1.48 1.62 2.2Z"/><path class="cls-6" d="M398.44 726.69a3 3 0 0 1-2.77 3.22 3 3 0 0 1-2.88-3.1 3 3 0 0 1 2.77-3.23 3 3 0 0 1 2.88 3.11Zm11.75 2.57a18.25 18.25 0 0 1-6 4.34q-1.31.66-2.91 1.29l-.82-2.66c1-.39 1.87-.78 2.66-1.17a15.62 15.62 0 0 0 5.32-3.84c.56.7 1.16 1.39 1.75 2.04Z"/><path class="cls-6" d="M404.22 733.49a2.85 2.85 0 1 1-2.89-3.11 3 3 0 0 1 2.89 3.11Zm-10.73-33.22a58.59 58.59 0 0 0-8.13.69v-5.11a18.62 18.62 0 0 1 7.18-1.47c.4 2.16.72 4.15.95 5.89Z"/><path class="cls-1" d="M129.51 335.44a87.45 87.45 0 0 1 .67 16.75c-.62 7.84-1.63 17.34-2.11 22.17-.57 5.81-6.52 3.1-6.17-5s.4-9.93.4-9.93-9.08 30-14.46 36.43c-4.91 5.91-.73-10.86 2-24.92 0 0-13.79 27.41-19 27.91-6.81.67 10-32.49 10-32.49s-16 22.61-18.47 20.32C79.62 384.15 93.21 359 93.21 359s-12.39 14.56-13.46 12.46c-2.12-4.14 17.42-39.83 34.58-47 0-.02 13.67 6.71 15.18 10.98Z"/><path class="cls-8" d="M114.88 366.69s-14.2-3.82-20.72-15.82c0 0 .57 13.83 20.72 15.82Zm-5.21-13.98s.65-17.16 15.78-16.17c0 0-16.66-6.6-15.78 16.17Z"/><path class="cls-9" d="M309.77 212.23c-20.3 29.69-105.77 26.32-132.69 55.58s-46.76 69.85-46.76 69.85c-12.2.13-18.6-5.28-22.8-10.38 0 0 24.76-62.18 53.48-89.37s147.49-57.8 147.49-57.8 17.72 8.08 1.28 32.12Z"/><path class="cls-4" d="M301.57 291.29c-3.52 9.57-6.42 25.21-6.42 25.21 2.69 23.49 4.19 63.35 11.65 89.69-33.69 17.74-88.18 18.82-120.29 3.26-.17-21.83.67-67.33 4.48-103.14 7.84-73.83 20-120.67 20-120.67l20.93-6.26a105.1 105.1 0 0 1 43.65-3.55l13 1.68 7.41 1 12.58 1.64s-1.2 36.17 7.56 68c7.4 26.86-4.57 30.4-10.57 36.3a11.34 11.34 0 0 0-2.16 2.81 34.12 34.12 0 0 0-1.82 4.03Z"/><path class="cls-9" d="M305.48 284.39a11.34 11.34 0 0 0-2.16 2.81 34.12 34.12 0 0 0-1.75 4.09 105.19 105.19 0 0 1-22.17 3.88c-18.35 1.11-38.81-6.31-39.4-6.53a125.38 125.38 0 0 0 65.48-4.25Z"/><path class="cls-1" d="M288.5 177.51c-2.4 13.22-3.95 35.57-20.77 34.69-20.21-1-32-23.94-35.85-32.82a105.27 105.27 0 0 1 43.65-3.55Z"/><path class="cls-4" d="M202.44 235.93c-36.3 35.08-70.37 50.76-81.58 56.8-3.66 5.73-21.08 32.86-39.24 57.59a517.85 517.85 0 0 0-28.52 43.79c-8.64-.71-15.65-4.66-21.17-11.57 21.64-46.9 44.48-81.42 65.79-105.36C164.16 183.91 226.34 181 226.34 181c10.66 22.87-23.9 54.93-23.9 54.93Z"/><path class="cls-3" d="M332.39 96.74c2 5.85 4.05 11.9 6 18.32 6.24 20.46-13.45 23-13.45 23s6.32 13.93-3.62 25.08-22.52 5.17-22.52 5.17-4.55 6.07-16.53 6.82c-17.38 1.1-23.7-5.88-23.7-5.88L240.42 166c-2.39 1.33-4.25 10.21-23.45 12.46-17.46 2-26.44-8.44-26.44-8.44-4.62 9-26.35 7.46-28.82-6.87-2.31-13.45 3.95-19 4.71-19.58-11.27 8-30.09-13.62-10.15-34.1 8.11-8.34 12.59-12.21 15.62-16.38-9 2.14-18.47-8.38-14.44-17.56 5.21-11.84 14.74-7.12 24.05-24.12 12.37-22.58 21.84-30.28 22.39-30.72 16-15.15 39.57-22.08 65.4-20.48 22 1.35 34.76 10.34 42.17 19.57A46.37 46.37 0 0 1 321.32 48c0 2.14.17 4.24.36 6.33C324.75 61.74 331 75 338.48 79c10.11 5.48 4.46 20-6.09 17.74Z"/><path class="cls-8" d="M301.35 82.11s11.38-13 20.67-1.7c8.17 9.93 3.08 36.22-16.82 35.49Z"/><path class="cls-6" d="M319.14 114.26a4.78 4.78 0 1 1-4.77-4.77 4.77 4.77 0 0 1 4.77 4.77Z"/><path class="cls-1" d="M280.85 181.42c-1 11.91-25.64 18.92-39.64-1.3L239.74 154l-1.08-19.19 45 8.73-2.22 30.26Z"/><path class="cls-8" d="M281.14 177.43c-15.36.22-32.5-10.37-41.08-17.67l-1.4-25 45 8.73Z"/><path class="cls-1" d="M263.72 157.56c-47.47-10.86-56.09-73.09-56.09-73.09a68.56 68.56 0 0 1 .64-10.23 78.35 78.35 0 0 1 2.31-11.35c3.41-12 10.71-25.59 26.32-31.53l1.48-.55c25.89-9.17 63.73-4.88 75.24 29.39a55.91 55.91 0 0 1 1.76 6.63c.27 1.35.52 2.76.72 4.2 5.16 35.38-9.71 96.29-52.38 86.53Z"/><path d="M285.93 130.32a8 8 0 0 1-1.17 4.22 8.19 8.19 0 0 1-14.76-1.66 8.2 8.2 0 1 1 16-2.56Z" style="fill:#920e08"/><path d="M284.76 134.54a8.19 8.19 0 0 1-14.76-1.66 15.06 15.06 0 0 1 8.56-.68 15.73 15.73 0 0 1 6.2 2.34Z" style="fill:#f85c66"/><path class="cls-3" d="M254.28 94a6.11 6.11 0 0 1-6.9-5.18 6 6 0 0 1 .48-3.34c-5-.58-4.89-3.61-4.89-3.61.78 1.3 6.61.54 9 .17l.72-.12h.29a6.09 6.09 0 0 1 1.3 12.08Z"/><path class="cls-1" d="M215.8 85.74s-17-9.34-22.49 6.17c-4.8 13.64 10.71 39.44 31.45 31Z"/><path class="cls-8" d="M216.86 111.64c-1.47-4.49-5.68-13.73-16.1-17.84 0 0 11.13 10.49 12 18.61a2 2 0 0 0 2 1.85h.24a2 2 0 0 0 1.86-2.62Zm57.01 36.13a23 23 0 0 1-7.94-3.16 1.39 1.39 0 0 1 1.57-2.29c.38.26 8.91 5.94 17.94 1.14a1.39 1.39 0 0 1 1.3 2.45 19.11 19.11 0 0 1-12.87 1.86Zm6.13-33.31h-7.2a1.48 1.48 0 1 1 0-3h7.2a.34.34 0 0 0 .27-.14.33.33 0 0 0 .05-.29l-6-20.48a1.48 1.48 0 1 1 2.84-.83l6 20.48a3.29 3.29 0 0 1-3.16 4.22Z"/><path class="cls-3" d="M256.15 66.52a2.83 2.83 0 0 1-1.7 3.82c-5.29 1.74-16.12 6.08-19.8 13.39 0 0-1.17-10.39 17.75-18.68a2.85 2.85 0 0 1 3.75 1.47Zm30.04 1.13a2.82 2.82 0 0 0 2.34 3.46c5.51.8 16.92 3.19 21.82 9.75 0 0-.66-10.44-20.73-15.31a2.84 2.84 0 0 0-3.43 2.1Zm8.31 25.57a6.09 6.09 0 0 0 6.42-8.51c5-.59 4.88-3.61 4.88-3.61-.78 1.29-6.6.54-9 .17-.3-.06-.54-.09-.72-.12a1.37 1.37 0 0 0-.29 0 6.09 6.09 0 0 0-1.23 12.1Z"/><path class="cls-3" d="M241 34.14s-2.38 41.66-21.81 58.48c0 0-1.67-11.05-16.79-9.4 0 0-1.43-2.58-3.65-15.11s5.75-64.27 63.13-60.94c0 0 18.24-3.7 43.78 18.14S316.1 71 316.1 71s-42.59-5.86-75.1-36.86Z"/><path class="cls-6" d="M217.17 124.89a4.78 4.78 0 1 1-4.77-4.78 4.78 4.78 0 0 1 4.77 4.78Z"/></g></g></svg>