<svg xmlns="http://www.w3.org/2000/svg" viewBox="0 0 591.75 715.83"><defs><style>.cls-1{fill:#345668}.cls-2{fill:#ffcfca}.cls-3{fill:#f9bfbb}.cls-4{fill:#97c6b7}.cls-6{fill:#602826}.cls-10{fill:#83b2a3}.cls-12{fill:#1f3c49}</style></defs><g id="Capa_2" data-name="Capa 2"><g id="Información"><path class="cls-1" d="M104.22 462.22h210.42v253.55H104.22z"/><path class="cls-2" d="M333.52 95.94a1.63 1.63 0 0 0 0 1.28c.36.6 1.27.5 1.94.25 5-1.83 8.22-6.78 12.73-9.6a21.18 21.18 0 0 0 4.31-8.17c.1-.34.18-.68.25-1a3.28 3.28 0 0 0-.37-2.93 2.41 2.41 0 0 0-1.86-.64c-1.74.07-3.16 1.32-4.41 2.53a64.63 64.63 0 0 0-7.85 8.85 31.78 31.78 0 0 0-4.74 9.43Z"/><path class="cls-3" d="M333.52 95.94a1.63 1.63 0 0 0 0 1.28c.36.6 1.27.5 1.94.25 5-1.83 8.22-6.78 12.73-9.6a21.18 21.18 0 0 0 4.31-8.17 39.83 39.83 0 0 1-4 2.36 95.71 95.71 0 0 1-10.25 4.43 31.78 31.78 0 0 0-4.73 9.45Z"/><path class="cls-2" d="M350.46 90.59c-.67 1.28-1.65 3.5-.13 4.58s3-.52 3.94-1.62a51.27 51.27 0 0 1 10.46-9.32c1.9-1.27 3.89-2.42 5.84-3.63a97.52 97.52 0 0 0 12.93-9.66 3.36 3.36 0 0 0 1-1.21 2.2 2.2 0 0 0-1.34-2.58l-.29-.11a5.55 5.55 0 0 0-2.86 0 19.85 19.85 0 0 0-2 .54 38.29 38.29 0 0 0-9.52 5c-7.13 4.83-14.07 10.42-18.03 18.01Z"/><path class="cls-3" d="M356 87.05c7.94-7.72 17.47-13.54 26.59-19.81l.28-.2a5.55 5.55 0 0 0-2.86 0 19.85 19.85 0 0 0-2 .54l-2.22 1.26c-1.24.71-2.48 1.41-3.66 2.21-1.46 1-2.81 2.14-4.17 3.27-4.62 3.87-8.96 7.55-11.96 12.73Z"/><path class="cls-2" d="M349.23 88.93a3.11 3.11 0 0 0-.49 1.54c.07 1.39 2.12 2.21 3.5 2.47a43.84 43.84 0 0 1 5.38-7.38c6.33-7 14.48-12.43 22.27-17.77.93-.64 2-1.7 1.49-2.71a1.8 1.8 0 0 0-.79-.73 5.5 5.5 0 0 0-3.89-.41 17.24 17.24 0 0 0-4.17 1.67 31.06 31.06 0 0 0-3.78 2.24c-2.7 2-4.66 4.77-6.91 7.24l-.35.37c-4.14 4.47-9.31 8.14-12.26 13.47Z"/><path class="cls-3" d="m358.41 81.3 6.27-7.4c1.06-1.25 2.13-2.52 3.31-3.66a33.31 33.31 0 0 1 5.28-4.12c1-.62 2-1.19 2.94-1.78a1.7 1.7 0 0 0 .49-.4 17.24 17.24 0 0 0-4.17 1.67 31.06 31.06 0 0 0-3.78 2.24c-2.7 2-4.66 4.77-6.91 7.24l-.35.37a30.15 30.15 0 0 1-3.08 5.84Z"/><path class="cls-2" d="M318.15 127c.17-1.74.34-3.49.53-5.22s.18-3.41.25-5.13a32 32 0 0 1 .57-5.52 21.09 21.09 0 0 1 .84-2.82 30.1 30.1 0 0 1 4.48-7.79 33.29 33.29 0 0 1 5.3-5.38 53.65 53.65 0 0 1 5.13-3.65c4.2-2.67 8.62-5 12.65-7.93a29.74 29.74 0 0 0 3.81-3.36c.3-.32.61-.64.89-1 3.17-3.52 5.72-7.62 8.57-11.37a8 8 0 0 1 1.54-1.63c1.93-1.35 4.9.22 4.62 2.59a1.43 1.43 0 0 1 0 .22v.08a6.17 6.17 0 0 1-.88 1.85c-.68 1.07-1.33 2.16-2 3.24-.47.78-1 1.55-1.44 2.34-1.18 1.89-2.36 3.8-3.55 5.7-.74 1.21-1.49 2.42-2.24 3.62-.11.18-.21.35-.33.53l-.55.89a1.42 1.42 0 0 0-.31.89 3.17 3.17 0 0 0 .41.85 2.71 2.71 0 0 1-.38 2.52s-.12.22-.19.33a189.22 189.22 0 0 1-15.07 22.31q1.16 5.19 2.3 10.37a32.79 32.79 0 0 1-13.87 4.22 29.27 29.27 0 0 1-11.08-1.75Z"/><path class="cls-3" d="M320.33 108.34a20.07 20.07 0 0 0-.83 2.81 32 32 0 0 0-.57 5.52 24.68 24.68 0 0 0 4.21.1 40.23 40.23 0 0 0 5.57-.72 11.85 11.85 0 0 1-5.67-2.3 7.34 7.34 0 0 1-1.64-1.65 6.7 6.7 0 0 1-1.07-3.76Z"/><path class="cls-1" d="M219.59 148c-2.68 25.83-5.71 51.5-6.84 77.44-1.06 24.56-2 49.14-3.87 73.66-19.88 2.1-39.81 2.92-59.8 3s-39.69-1-58.86-6.71a183.67 183.67 0 0 1-29.64-11.65c7.82-13.65 12-29 16.77-43.88a435.64 435.64 0 0 0 12.42-48.66c7-35.87 8-71.3 7.33-107.69-.37-20.7 3.72-42.84 16.26-59.8s35.16-28.07 56.28-22c13.06 3.73 24.19 12.78 32 23.85a86.71 86.71 0 0 1 9.25 16.94q1 2.38 1.87 4.82a132.92 132.92 0 0 1 4.51 15.55 183.65 183.65 0 0 1 3.8 24.72c1.77 20.03.58 40.41-1.48 60.41Z"/><path class="cls-2" d="M203.29 153.49c-2.57 2.38-6 3.48-9.35 4.51a86 86 0 0 1-12.2 3.15c-8.09 1.28-16-.13-24.08-1.17l-2.37-14a176.85 176.85 0 0 0-3.56-17.36c-.48-1.74-1-3.48-1.59-5.19-1.4-4.28-3-8.48-4.71-12.68l-4.06-10.36a28 28 0 0 0 7.44 3.13c11.83 3.77 23.79 7.08 35.8 10.24a53.18 53.18 0 0 0 11 2l4.13 20.28Z"/><path class="cls-3" d="M199.74 136.11a127 127 0 0 1-37.87-7.85c-3.85-1.45-7.86-3-11.73-4.81-1.4-4.28-3-8.48-4.71-12.68l-4.06-10.36a28 28 0 0 0 7.44 3.13c11.83 3.77 23.79 7.08 35.8 10.24a53.18 53.18 0 0 0 11 2Z"/><path class="cls-2" d="M216.6 101.5c-1.4 7.16-4 13.94-9.36 19a33 33 0 0 1-17.53 8.5 41.91 41.91 0 0 1-21.36-2.64 53.15 53.15 0 0 1-9.72-4.93 74.64 74.64 0 0 1-14.37-12.29A92.7 92.7 0 0 1 127 83c-4.67-11-6.69-22.87-4.21-34.76a44.5 44.5 0 0 1 5.36-13.78 42 42 0 0 1 52.77-16.76 53.42 53.42 0 0 1 23.77 21.8 98.78 98.78 0 0 1 4.76 9.21c7.42 16.39 10.55 35.15 7.15 52.79Z"/><path class="cls-1" d="M117.5 83.78c16.47-3 30.07-14.69 37.54-28.65s9.51-29.93 9.28-45.52a52.49 52.49 0 0 0-29.21 8.81c-6.56 4.24-12.78 9.18-17 15.51-4.92 7.46-6.7 16.46-6.34 25.2s2.84 16.31 5.73 24.65Z"/><path class="cls-1" d="M171.62 19.31c2.3-1.15 4.6-2.8 5.29-5.27.83-2.94-1-6.15-3.66-7.71s-5.84-1.79-8.9-1.63c-3.74.18-7.58.92-10.66 3-4.06 2.78-7.61 10.52-1.9 13.49s14.51.81 19.83-1.88Z"/><path class="cls-1" d="M212.8 47.28c-10.53.19-20.93-3.52-29.79-9.18-9.42-6-17.28-14.15-24.42-22.71l-2.52-3.05c11.62-3.78 24.1.38 33.83 7.67 8.11 6.08 14.6 14.44 21 22.45q1.02 2.39 1.9 4.82Z"/><path class="cls-4" d="M346.3 130.45c-.17-1-.37-1.91-.54-2.87-.48-2.66-.72-5.38-1.11-8.06-.81-5.54-6.85-3.74-10.54-2.32a33.49 33.49 0 0 1-13.06 2.25 5.72 5.72 0 0 0-2.47.29c-2.14.93-3.13 4.17-2.72 6.3a93 93 0 0 0 3.76 14.61c2.21 6 13.37 3.38 17.81 2.4 4.05-.9 8.77-2.5 9.27-7.28a19.42 19.42 0 0 0-.4-5.32Z"/><path class="cls-2" d="M250.4 274a271 271 0 0 1-7.49 27.41 435.91 435.91 0 0 1-20.45 50.12c-.79 1.68-1.59 3.34-2.39 5l-2 1.18-31.16 17.94c-7.68 4.42-15.42 8.87-23.77 11.85-13.45 4.79-26.78 3.41-40.48.54.57 0 3.75-36 3.89-38.88.16-3.07.26-6.14.32-9.22a191.26 191.26 0 0 0-1.7-31.55c-.39-2.62-.84-5.23-1.38-7.83-3-15-8.16-29.58-13-44.12-5.22-15.74-7.8-32-12.25-47.94-.7-2.47-1.13-5.17-.19-7.57 1.43-3.65 4.9-4.67 8.12-6.19 20.47-9.71 42.07-17.34 64.41-21.29a181.43 181.43 0 0 1 33.55-2.88c9.63.09 22.21-.5 29.92 6.29s12.52 16.36 15.09 26.21c2.27 8.74 2.9 17.82 3.13 26.85A297.65 297.65 0 0 1 250.4 274Z"/><path class="cls-4" d="M243.55 296.44c-17 2.88-34.28 2.68-51.5 2.61q-16.55-.07-33.08-.77-8.4-.36-16.81-.89c-4.29-.27-9.66-1-13.66.94-8.55 4.17-6.09 20.3-5.21 27.78.78 6.62 5.17 9.18 11 10.73 30.15 8 62.16 5.73 92.46-1.65 4.57-1.11 11-1.56 13.65-6.1 4.11-7.17 6.43-16.49 8.89-24.4 1.42-4.4-.46-9.15-5.74-8.25Z"/><path class="cls-2" d="M549.18 508a20.36 20.36 0 0 1-7.06 2.39 66.68 66.68 0 0 1-12.48.58c-9.64-.14-19-.58-28.67-.72A45.16 45.16 0 0 0 489.82 500c6.14-7.45 12.75-15.05 20.52-20.77l6.15 4.54 25.4 18.78Z"/><path d="M519.07 478.23a7.86 7.86 0 0 1-.45 2.48 13.66 13.66 0 0 1-3.24 4.7 161.12 161.12 0 0 1-12.84 11.95c-6.42 5.22-10.41 9.18-18.09 3.37l-34.26-26c-11.33-8.57-22.65-17.14-33.76-26q-9.33-7.43-18.43-15.16c-8.19-7-16-14.41-23.65-22-2.1-2.08-21.51-23.69-22.55-23.13l-2 1c-30 15.81-59.22 33.47-90.22 47.53-34.61 15.7-72 28.25-110.36 28.09-11.26 0-22.9-1.22-33.23-6-9.44-4.4-16.28-13.81-19.67-23.5a61.06 61.06 0 0 1-1.15-35c.19-.73.38-1.45.58-2.18a129.54 129.54 0 0 1 12.84-30.75 100.53 100.53 0 0 1 14.72-18.93c3.85-3.85 3.42-.39 8.41 0 19 1.49 44.3-1.38 63.07-4.78.39-.08.78-.14 1.17-.23 49.09-9 97.68-22.62 147.56-24.18 18.5-.58 34.55 7.77 48.58 19.25 10.09 8.26 18.92 17.91 27.72 27.53q25.91 28.32 51.8 56.63 13.08 14.28 26.23 28.53c3.92 4.27 13.95 11.7 18.67 19.21a13.86 13.86 0 0 1 2.55 7.57Z" style="fill:#fd7064"/><path class="cls-2" d="M446.57 664.25a20.56 20.56 0 0 1-6.6-3.46 68.9 68.9 0 0 1-9-8.65c-3.17-3.43-6.25-6.87-9.32-10.32-3.27-3.65-6.54-7.31-9.91-11a45.43 45.43 0 0 0-.29-15.12c9.63-.68 19.68-1.12 29.19.57l.64 5.12Z"/><path class="cls-6" d="M457.21 711.62a5.09 5.09 0 0 1-.81 1.84c-3 4.31-7.64 2-10.82-.83-5-4.43-9.07-10.26-13.27-15.45-12-14.88-23.27-30.32-34.54-45.76-1.8-2.45-3.63-5-4.41-7.94a12.46 12.46 0 0 1 .23-7.08 9.9 9.9 0 0 1 2.23-3.74 11.56 11.56 0 0 1 4-2.46c.91-.37 1.87-.67 2.81-1 3.57-1.12 6-2.24 9.55-3.36 9.54 11.79 21.2 21.77 33.5 30.65.35 1.6.7 3.21 1 4.8l6 27.75q.56 2.55 1.09 5.08c.64 3 1.28 5.92 1.91 8.89.58 2.68 2.15 5.84 1.53 8.61Z"/><path d="M461.67 483.48c-.41 3.91-.82 7.76-1.19 11.49-2.63 26.73-7.18 53.69-10 80.12-1 8.81-2.2 17.7-2.64 26.55-.14 2.79.31 6.75 0 10.36-.2 2.55-.78 4.93-2.2 6.57-4 4.67-15.8 2.59-21.25 2.5s-16.07.83-19.26-4.71c-1.72-3-1.29-9.23-1.63-12.6-.87-8.73-1.32-17.5-2.22-26.23q-1.49-14.56-2.46-29.2-.48-7.11-.85-14.23c-.11-2.17-.08-12.15-.22-24-.23-20.41-.95-46.38-3.65-47.7a.46.46 0 0 0-.22-.06H182.5c26.66-4.55 52.57-14.09 77.1-25.22 28.64-13 55.73-29 83.36-43.87q3.42-1.85 6.86-3.66l1.62-.85h.87c14.3.65 27.19.85 41.57 1.67 13.79.79 27.81 2.65 40.26 8.64a52.58 52.58 0 0 1 10.55 6.64c22.15 18.11 19.88 49.74 16.98 77.79Z" style="fill:#f95850"/><path d="M105.78 428.37c.32 1.45.76 2.87 1.22 4.28 1.24 3.77 2.62 7.49 3.83 11.28a17.4 17.4 0 0 1 1 5 6.33 6.33 0 0 1-1.77 4.68 3.93 3.93 0 0 1-4.73.59c-1.25-.85-1.73-2.43-2.13-3.89l-1.56-5.74c-.7-2.58-1.41-5.17-2-7.78-1.18-5.31-1.84-11 .13-16.06.62-1.61 4.49-6.43 5.65-2.69.45 1.45-.21 3.42-.23 4.93a25 25 0 0 0 .59 5.4Z" style="fill:#f4b9b8"/><path class="cls-3" d="M103.55 431.71a42.33 42.33 0 0 0 1.21 4.27c1.24 3.78 2.62 7.5 3.83 11.28a17.14 17.14 0 0 1 1 5 6.33 6.33 0 0 1-1.77 4.68 4 4 0 0 1-4.73.59c-1.25-.85-1.73-2.43-2.13-3.89l-1.56-5.74c-.7-2.58-1.4-5.17-2-7.78-1.18-5.31-1.84-11 .13-16.07.62-1.6 4.49-6.42 5.66-2.68.45 1.45-.22 3.42-.23 4.92a23.83 23.83 0 0 0 .59 5.42Z"/><path class="cls-2" d="M121 371.53c-1.11-2-4.69-5.22-9-8.56l-4.65 3.91c-3.64 3.06-7.26 6.16-10.93 9.18-.79.65-1.87 1.4-3 2.19 5 2.64 9.43 4.95 9.52 5.84a9.24 9.24 0 0 1-.59 3.76l-.12.38A186.27 186.27 0 0 0 96.45 415c-1 6.13-2 12.49-1.33 18.69.71 6.58 2.46 12.94 4.09 19.34a8.27 8.27 0 0 0 1.13 2.86c1.09 1.5 3.61 1.91 4.79.28 2.56-3.54 1.16-8.82.3-12.73a68.75 68.75 0 0 1-2-11 22.63 22.63 0 0 1 2.21-10.35c1.05-2.42 2-4.86 3.1-7.26a21.23 21.23 0 0 1 1.43-2.71 7.19 7.19 0 0 1 2.91-2.75 4.9 4.9 0 0 1 3.84-.27c1.17.61 1.12 2.15 1.22 3.28a16.45 16.45 0 0 1-.25 4c-.35 2.27-.92 4.62-.62 6.92a7.65 7.65 0 0 0 .22 1.16c1.1 4.1 6.65 7.74 8.76 2.27a16.61 16.61 0 0 0 .78-3.69c.84-5.95 2.93-11.73 2.68-17.77a104.57 104.57 0 0 0-1.31-11.44c-2.23-14.28-4.16-16.29-7.4-22.3Z"/><path class="cls-3" d="M110.13 412.14c.27-.86.58-1.71.93-2.54a9 9 0 0 1 2.77-3.86 4.14 4.14 0 0 1 4.51-.41 4.83 4.83 0 0 1 1.92 3.42c.5 3.26-.78 6.5-1.84 9.63a22.28 22.28 0 0 0-1.19 5c-.3-2.3.27-4.65.62-6.92a16.45 16.45 0 0 0 .25-4c-.1-1.13 0-2.67-1.22-3.28a4.9 4.9 0 0 0-3.84.27 7.19 7.19 0 0 0-2.91 2.69Z"/><path class="cls-4" d="M124.44 369.77c-2.39-5.14-6.19-9.6-10.27-13.58a14.16 14.16 0 0 0-4-3c-4-1.82-8.87 1.79-12.15 3.91a55.19 55.19 0 0 0-10.83 9.16 7.31 7.31 0 0 0-2.26 4c-.18 1.94 1.1 3.69 2.31 5.23l8.39 10.65a9.09 9.09 0 0 0 3.18 2.93 8.37 8.37 0 0 0 4.66.29 47.33 47.33 0 0 0 19-7.2 8.89 8.89 0 0 0 3.15-3c1.06-2 .62-4.45-.12-6.59a26.78 26.78 0 0 0-1.06-2.8Z"/><path d="M383.92 237.23c-.82 8.49-2.64 16.6-10.12 21.68-8.37 5.67-19.52 5.82-29.26 5.71a152.32 152.32 0 0 1-18.35-1.37c-7.4-.95-14.75-2.34-22-3.86-15.88-3.3-31.87-6.95-47.39-11.93v1.74c0 3 0 5.94-.07 8.9-.07 5.12.17 11.11.19 17.32.05 14-1 29.23-9.48 38.63-6.85 7.6-15.91 7.11-25.66 10.18-2 .64-4.06 1.23-6.1 1.78-5.79 1.06-11.62 2-17.47 2.67a204.12 204.12 0 0 1-41.2.91 133.68 133.68 0 0 1-32.23-7c-4.84-1.69-7.41-4.85-7.56-10-.17-5.81.91-11.54 1.24-17.32a42.58 42.58 0 0 0-.19-8.05c-1.36-10.57-4.5-20.82-8-30.84-1.11.74-2.23 1.46-3.33 2.2-1.48 1-10.54 7.4-18.73 13.18l-7.55 5.32c-3.2 2.25-5.57 3.92-6.19 4.34l-.17.12c12.78 15.84 22.7 33.76 31.46 52.14q3.36 7 6.41 14.19l.15.36c1.62 3.82 4.3 8.44 2.19 12.61a16.85 16.85 0 0 1-3.82 4.61c-5.4 5-12.13 11.69-19.72 12.88s-13.65-4.87-19.62-8.49A196 196 0 0 1 48.81 354c-17.13-13.94-31.58-30.81-41.91-50.78-4.16-8.05-7.41-17.08-6.83-26.28.58-9 4.78-16.58 10.36-23.42 6.78-8.3 14.62-15.59 22.63-22.77 13.51-12.12 27.68-23.48 42-34.58 13-10.11 25.94-20.59 40.36-28.71a120.83 120.83 0 0 1 24.45-10.34l1.69-.5a137 137 0 0 1 31.2-5.08c17.67-.83 36.75-.2 54.72 2.85l.52.1c4.76.8 9.45 1.79 14 3a161 161 0 0 1 30.34 11.68l36.85 18 12.31 6 .41.2c-.78-.38-1.41-5.7-1.63-6.65-2.61-11.22-4.67-22.56-4.9-34.09-.1-5.13-1.08-10.65.62-15.64a6.16 6.16 0 0 1 1.44-2.43h.12a91.13 91.13 0 0 0 29.08-3.84c5.72 2.94 8.73 11.11 11.42 16.45 2.58 5.13 5.05 10.33 7.42 15.56 6.59 14.57 12.87 29.62 16.31 45.28a94.48 94.48 0 0 1 2.13 29.22Z" style="fill:#baddd4"/><path class="cls-10" d="M145.44 169.25a.53.53 0 0 1-.52-.42.52.52 0 0 1 .41-.62 13.08 13.08 0 0 1 2.71-.32.53.53 0 0 1 0 1.06 11.56 11.56 0 0 0-2.49.29ZM89.55 363a.54.54 0 0 1-.33-.12c-1.4-1.11-2.79-2.25-4.13-3.38a.52.52 0 1 1 .68-.8q2 1.71 4.11 3.36a.52.52 0 0 1 .08.74.51.51 0 0 1-.41.2Zm-8.15-6.86a.51.51 0 0 1-.35-.13c-1.33-1.19-2.66-2.4-4-3.6a.53.53 0 0 1 0-.75.52.52 0 0 1 .74 0c1.28 1.2 2.6 2.4 3.93 3.58a.53.53 0 0 1 0 .74.51.51 0 0 1-.32.11Zm-7.78-7.29a.55.55 0 0 1-.37-.15 225.74 225.74 0 0 1-3.75-3.81.52.52 0 0 1 .76-.72c1.23 1.28 2.48 2.55 3.73 3.78a.53.53 0 0 1 0 .75.55.55 0 0 1-.37.1Zm-7.37-7.69a.54.54 0 0 1-.39-.17c-1.18-1.3-2.38-2.65-3.54-4a.52.52 0 0 1 0-.74.54.54 0 0 1 .75.05c1.16 1.35 2.34 2.69 3.52 4a.52.52 0 0 1 0 .74.49.49 0 0 1-.34.07Zm-7-8.07a.51.51 0 0 1-.4-.2c-1.12-1.37-2.24-2.78-3.32-4.18a.52.52 0 1 1 .83-.64c1.08 1.39 2.19 2.79 3.3 4.16a.52.52 0 0 1-.07.74.54.54 0 0 1-.3.03Zm-6.51-8.44a.51.51 0 0 1-.42-.21c-1-1.44-2.09-2.89-3.1-4.36a.53.53 0 1 1 .87-.59c1 1.45 2 2.9 3.08 4.33a.53.53 0 0 1-.12.73.5.5 0 0 1-.27.05Zm-6.05-8.76a.54.54 0 0 1-.44-.24c-1-1.49-1.93-3-2.86-4.52a.53.53 0 0 1 .9-.55c.92 1.5 1.88 3 2.84 4.49a.52.52 0 0 1-.16.73.47.47 0 0 1-.24.04Zm-5.58-9.09a.52.52 0 0 1-.45-.26c-.89-1.54-1.77-3.11-2.61-4.66a.53.53 0 1 1 .93-.5c.83 1.54 1.71 3.1 2.59 4.63a.53.53 0 0 1-.19.72.54.54 0 0 1-.23.02Zm-5.06-9.37a.52.52 0 0 1-.47-.29c-.89-1.78-1.62-3.37-2.24-4.88a.53.53 0 1 1 1-.4c.6 1.49 1.32 3.06 2.2 4.81a.52.52 0 0 1-.24.7.46.46 0 0 1-.21.01Zm-4-9.88a.53.53 0 0 1-.51-.39 30.46 30.46 0 0 1-1-5.32.53.53 0 0 1 .48-.57.51.51 0 0 1 .57.47 30.23 30.23 0 0 0 .95 5.15.53.53 0 0 1-.37.64ZM31.26 277h-.06a.54.54 0 0 1-.47-.59 32.67 32.67 0 0 1 1.1-5.3.54.54 0 0 1 .66-.35.53.53 0 0 1 .35.65 29.52 29.52 0 0 0-1.06 5.12.53.53 0 0 1-.52.47Zm3-10.18a.59.59 0 0 1-.22 0 .53.53 0 0 1-.25-.7 41.6 41.6 0 0 1 2.61-4.72.53.53 0 0 1 .89.57 41.12 41.12 0 0 0-2.55 4.6.53.53 0 0 1-.5.2Zm5.69-9a.49.49 0 0 1-.32-.12.52.52 0 0 1-.08-.74c.94-1.17 2-2.32 3-3.43l.53-.55.4.34.36.39-.54.55c-1 1.09-2 2.22-3 3.36a.51.51 0 0 1-.37.17Zm7.24-7.82a.55.55 0 0 1-.37-.15.52.52 0 0 1 0-.74l3.73-3.82a.53.53 0 0 1 .75 0 .51.51 0 0 1 0 .74l-3.72 3.81a.52.52 0 0 1-.39.16Zm7.48-7.6a.54.54 0 0 1-.37-.16.51.51 0 0 1 0-.74q1.86-1.87 3.77-3.77a.52.52 0 1 1 .74.74L55 242.22a.52.52 0 0 1-.33.16Zm7.56-7.53a.53.53 0 0 1-.37-.15.53.53 0 0 1 0-.75l3.81-3.73a.53.53 0 1 1 .74.75l-3.81 3.71a.53.53 0 0 1-.37.15Zm7.64-7.44a.52.52 0 0 1-.38-.16.53.53 0 0 1 0-.75c1.27-1.23 2.56-2.46 3.85-3.69a.52.52 0 0 1 .72.76l-3.84 3.69a.55.55 0 0 1-.35.13Zm7.73-7.36a.52.52 0 0 1-.38-.17.52.52 0 0 1 0-.74q1.94-1.83 3.9-3.65a.52.52 0 0 1 .71.77L78 219.91a.54.54 0 0 1-.4.14Zm7.81-7.26a.54.54 0 0 1-.39-.17.52.52 0 0 1 0-.74q2-1.81 4-3.59a.52.52 0 1 1 .7.78c-1.31 1.18-2.62 2.38-3.94 3.58a.49.49 0 0 1-.37.12Zm7.91-7.15a.52.52 0 0 1-.39-.17.52.52 0 0 1 0-.74c1.34-1.2 2.67-2.37 4-3.53a.52.52 0 1 1 .69.79c-1.32 1.16-2.66 2.33-4 3.52a.51.51 0 0 1-.3.11Zm8-7a.53.53 0 0 1-.4-.18.52.52 0 0 1 .06-.74q2.06-1.76 4.08-3.45a.52.52 0 0 1 .74.06.55.55 0 0 1-.07.75l-4.07 3.43a.5.5 0 0 1-.3.1Zm8.19-6.84a.5.5 0 0 1-.41-.19.53.53 0 0 1 .07-.74c1.41-1.15 2.8-2.26 4.17-3.35a.54.54 0 0 1 .74.09.53.53 0 0 1-.09.74q-2.06 1.62-4.15 3.33a.54.54 0 0 1-.29.09Zm8.37-6.61a.55.55 0 0 1-.42-.2.54.54 0 0 1 .1-.74q2.19-1.67 4.29-3.19a.53.53 0 0 1 .74.12.52.52 0 0 1-.12.73c-1.4 1-2.82 2.08-4.27 3.18a.55.55 0 0 1-.28.07Zm8.64-6.25a.51.51 0 0 1-.43-.23.52.52 0 0 1 .14-.73c1.54-1.05 3-2 4.47-2.93a.52.52 0 0 1 .73.16.53.53 0 0 1-.17.73c-1.41.88-2.91 1.86-4.44 2.91a.55.55 0 0 1-.26.06Zm9.06-5.63a.51.51 0 0 1-.46-.28.52.52 0 0 1 .2-.71c1.72-.94 3.34-1.75 4.83-2.39a.53.53 0 0 1 .69.28.53.53 0 0 1-.28.69c-1.45.63-3 1.41-4.73 2.34a.47.47 0 0 1-.21.04Zm-39.76 194.4a.5.5 0 0 1-.31-.1l-2.12-1.57a.51.51 0 0 1-.1-.73.53.53 0 0 1 .74-.11c.69.53 1.4 1 2.1 1.56a.53.53 0 0 1 .11.74.51.51 0 0 1-.42.21Z"/><path class="cls-4" d="M212 148.16c-.34-1-.73-2-1-2.9-1.09-3.87-.78-8.95-5.35-11.3-2.24-1.16-4.85-.71-7.32-.54-2.9.2-5.8.5-8.71.68a115.8 115.8 0 0 1-18.34-.33c-3.11-.31-6.21-.74-9.27-1.29-2.77-.5-5.6-1.49-8.43-1.54-2 0-4.19.65-5.23 2.13a6.61 6.61 0 0 0-.93 3.24c-.6 5.67-1.1 11.43.27 17a8.15 8.15 0 0 0 2.6 4.7c3.43 2.69 10.47 3 14.84 3.59 14.43 1.84 29.65 1 42.56-5a11.34 11.34 0 0 0 4.13-2.79c1.47-1.81.84-3.71.18-5.65Z"/><path class="cls-6" d="M583.55 542.05c-6.68.6-13.68-.48-20.34-1-19.05-1.54-38-4-57-6.49-3-.4-6.12-.82-8.79-2.29a12.41 12.41 0 0 1-5-5 9.61 9.61 0 0 1-1.18-4.2 7.57 7.57 0 0 1 .09-1.51 20 20 0 0 1 2.11-5.76c1.64-3.38 2.49-5.88 4.14-9.26 15.12 1.21 30.39-.34 45.3-3.15l4.19 2.56 24.23 14.8 9.83 6 2.36 1.44c2.31 1.42 5.68 2.46 7.27 4.82a5 5 0 0 1 .77 1.85c1.11 5.14-3.77 6.83-7.98 7.19Z"/><path class="cls-10" d="M154.71 158.65a.55.55 0 0 1-.49-.36 75.2 75.2 0 0 1-2.44-24.94.5.5 0 0 1 .54-.41.49.49 0 0 1 .5.48 74.43 74.43 0 0 0 2.42 24.68.46.46 0 0 1-.4.54Zm4.58 1.2a.49.49 0 0 1-.49-.48 66.9 66.9 0 0 0-.55-11.5l-1.34-12.56c0-.36-.11-.47-.17-.5a.42.42 0 0 1-.19-.62.57.57 0 0 1 .72-.15 1.39 1.39 0 0 1 .69 1.2l1.33 12.57a67.1 67.1 0 0 1 .56 11.62.5.5 0 0 1-.56.42Zm5.56.67a.51.51 0 0 1-.5-.42c-.72-8.15-1.17-16.42-1.31-24.58a.47.47 0 0 1 .51-.45.51.51 0 0 1 .54.45c.14 8.14.59 16.39 1.31 24.52a.48.48 0 0 1-.49.48Zm4.53.54a.49.49 0 0 1-.5-.45 192.42 192.42 0 0 0-1.65-24.32.45.45 0 0 1 .46-.49.52.52 0 0 1 .58.4 192.15 192.15 0 0 1 1.66 24.42.48.48 0 0 1-.52.44Zm5.06.94a.49.49 0 0 1-.51-.47 72.26 72.26 0 0 0-.71-12.9l-.07-.49a29.31 29.31 0 0 1-.36-5.47c0-.63.12-1.26.2-1.89a14.21 14.21 0 0 0 .16-3.49.47.47 0 0 1 .47-.49.52.52 0 0 1 .58.41 15.06 15.06 0 0 1-.16 3.68c-.08.62-.16 1.23-.2 1.85a28.74 28.74 0 0 0 .36 5.31l.06.49a72.92 72.92 0 0 1 .72 13 .48.48 0 0 1-.54.46Zm4.25-.7a.49.49 0 0 1-.48-.49 100.89 100.89 0 0 0-.66-23.29.46.46 0 0 1 .45-.52.52.52 0 0 1 .59.4 101.78 101.78 0 0 1 .65 23.46.5.5 0 0 1-.55.44Zm5.73-.66a.47.47 0 0 1-.48-.49 19.59 19.59 0 0 0-.49-5.38c-.15-.83-.31-1.69-.41-2.55a45.4 45.4 0 0 1-.21-5.7c0-3.11.05-6.34-1.1-9.31a.43.43 0 0 1 .34-.56.56.56 0 0 1 .66.29c1.2 3.12 1.18 6.41 1.15 9.6a45.51 45.51 0 0 0 .2 5.6c.11.83.26 1.68.41 2.5a19.89 19.89 0 0 1 .49 5.6.5.5 0 0 1-.56.4Zm4.49-.72a.5.5 0 0 1-.5-.46 182.87 182.87 0 0 0-1.25-22.78.47.47 0 0 1 .47-.49.51.51 0 0 1 .57.41 180.69 180.69 0 0 1 1.26 22.88.49.49 0 0 1-.53.44Zm5.01-1.56a.5.5 0 0 1-.51-.46c.16-6.91.32-14.05-1.62-20.88a.44.44 0 0 1 .38-.54.53.53 0 0 1 .64.34c2 7 1.81 14.15 1.65 21.11a.48.48 0 0 1-.53.43Zm4.48.39a.5.5 0 0 1-.5-.42l-1.71-21.68a.47.47 0 0 1 .48-.48.52.52 0 0 1 .56.43l1.77 21.68a.47.47 0 0 1-.49.47Zm5.15-1.82a.5.5 0 0 1-.51-.43 152 152 0 0 0-2.22-20.25.46.46 0 0 1 .44-.51.54.54 0 0 1 .6.39 151.84 151.84 0 0 1 2.23 20.35.48.48 0 0 1-.5.46Zm4.92-2.38h-.11a.47.47 0 0 1-.36-.55c.51-1.67.07-3.39-.38-5.22a22.6 22.6 0 0 1-.55-2.57c-.1-.69-.13-1.39-.16-2.07a20.44 20.44 0 0 0-.16-2.05 22.47 22.47 0 0 0-2.33-6.39.41.41 0 0 1 .28-.58.56.56 0 0 1 .69.25 23.25 23.25 0 0 1 2.41 6.63c.1.71.13 1.43.16 2.12s.06 1.34.15 2a24 24 0 0 0 .53 2.49c.47 1.85.95 3.76.38 5.64a.51.51 0 0 1-.55.3ZM101.49 388.07a.5.5 0 0 1-.28-.08 13.53 13.53 0 0 1-2.68-2.55l-.26-.29a56.39 56.39 0 0 0-5.5-5.43.52.52 0 0 1-.06-.74.53.53 0 0 1 .74-.06 58.57 58.57 0 0 1 5.61 5.53l.26.3a12.76 12.76 0 0 0 2.46 2.36.52.52 0 0 1 .15.73.52.52 0 0 1-.44.23Zm4.04-1.07a.54.54 0 0 1-.36-.14 27.93 27.93 0 0 1-2.15-2.36 47.17 47.17 0 0 1-4.49-6 1.5 1.5 0 0 1-.16-1.56.46.46 0 0 1 .64-.14.58.58 0 0 1 .24.7s0 .1.18.46a45.26 45.26 0 0 0 4.39 5.82 26.29 26.29 0 0 0 2.07 2.27.53.53 0 0 1 0 .74.56.56 0 0 1-.36.21Zm4.63-1.42a.53.53 0 0 1-.44-.23 30.18 30.18 0 0 0-4.79-5.66c-.32-.3-.65-.6-1-.89a19.72 19.72 0 0 1-3.11-3.21.53.53 0 0 1 .86-.61 18.32 18.32 0 0 0 3 3c.34.3.68.6 1 .91a31.45 31.45 0 0 1 4.95 5.85.53.53 0 0 1-.15.73.51.51 0 0 1-.32.11Zm4.77-1.07a.53.53 0 0 1-.41-.19 107.24 107.24 0 0 0-10.16-10.83.52.52 0 1 1 .71-.77 109.39 109.39 0 0 1 10.27 10.93.52.52 0 0 1-.08.74.52.52 0 0 1-.33.12Zm3.86-2.62a.53.53 0 0 1-.41-.2 50.51 50.51 0 0 0-10.27-9.75.54.54 0 0 1-.12-.74.53.53 0 0 1 .73-.12 51.55 51.55 0 0 1 10.48 10 .52.52 0 0 1-.08.74.57.57 0 0 1-.33.07Zm4.32-2.42a.46.46 0 0 1-.32-.11 25.06 25.06 0 0 1-3.8-3.91c-.36-.43-.72-.86-1.09-1.28a38.85 38.85 0 0 0-6.5-5.92.53.53 0 0 1-.12-.74.52.52 0 0 1 .73-.11 39.71 39.71 0 0 1 6.68 6.07c.38.43.74.87 1.1 1.3a24.92 24.92 0 0 0 3.64 3.76.53.53 0 0 1-.32.94Zm.53-7.33a.51.51 0 0 1-.36-.15l-8.22-8a.53.53 0 0 1 0-.74.53.53 0 0 1 .75 0l8.21 8a.53.53 0 0 1 0 .75.55.55 0 0 1-.38.14Zm196.18-238.49a.53.53 0 0 1-.52-.42 97.82 97.82 0 0 1-1.72-11.23.53.53 0 0 1 .47-.58.53.53 0 0 1 .57.48 97.62 97.62 0 0 0 1.71 11.1.53.53 0 0 1-.4.63Zm3.31-.71a.53.53 0 0 1-.52-.42c-.68-3.48-1.28-7-1.8-10.54a.53.53 0 0 1 .45-.6.52.52 0 0 1 .59.44c.51 3.5 1.12 7 1.79 10.49a.53.53 0 0 1-.41.62Zm5.14.25a.53.53 0 0 1-.51-.41c-.81-3.63-1.81-7.27-3-10.82a.52.52 0 0 1 1-.32c1.17 3.57 2.17 7.25 3 10.91a.54.54 0 0 1-.4.63Zm2.95-.64a.53.53 0 0 1-.52-.44c-.59-3.85-1.38-7.71-2.34-11.48a.53.53 0 1 1 1-.26c1 3.81 1.76 7.7 2.36 11.58a.53.53 0 0 1-.43.6Zm4.39.32a.52.52 0 0 1-.52-.44l-2-11.93a.51.51 0 0 1 .43-.6.53.53 0 0 1 .61.43l2 11.93a.54.54 0 0 1-.44.61Zm3.65-.87a.53.53 0 0 1-.52-.42l-2.56-13.39a.53.53 0 0 1 .42-.61.54.54 0 0 1 .62.42l2.55 13.38a.53.53 0 0 1-.41.62Zm4.32-1.36a.52.52 0 0 1-.52-.46 104.76 104.76 0 0 0-2-11 .52.52 0 1 1 1-.24 104.74 104.74 0 0 1 2 11.09.53.53 0 0 1-.45.59Z"/><path d="M338.81 216.74a68.43 68.43 0 0 1-8.72-6.23c-8.11-6.61-15.64-14.39-20.88-23.36l12.31 6a194.67 194.67 0 0 0 17.29 23.59Z" style="fill:#a9d3c7"/><path class="cls-10" d="M341.08 246.83a48.82 48.82 0 0 1-5-.27.53.53 0 1 1 .11-1.05 46.9 46.9 0 0 0 4.92.27h.27a.5.5 0 0 1 .53.52.52.52 0 0 1-.52.53Zm5.51-.39a.53.53 0 0 1-.07-1.05 29.55 29.55 0 0 0 5-1.19.52.52 0 0 1 .67.33.53.53 0 0 1-.33.66 30.83 30.83 0 0 1-5.2 1.24Zm-15.68-.67h-.1a76.19 76.19 0 0 1-5.16-1.18.53.53 0 0 1 .27-1c1.76.46 3.47.86 5.09 1.17a.53.53 0 0 1 .41.62.51.51 0 0 1-.51.39Zm-10.18-2.64h-.15c-1.59-.5-3.22-1.05-5-1.68a.53.53 0 0 1 .36-1c1.77.63 3.39 1.18 5 1.67a.54.54 0 0 1 .35.66.52.52 0 0 1-.56.35Zm35.76 0a.54.54 0 0 1-.46-.27.52.52 0 0 1 .2-.71 27.4 27.4 0 0 0 4.2-3 .52.52 0 0 1 .74 0 .53.53 0 0 1-.05.74 27.77 27.77 0 0 1-4.37 3.1.48.48 0 0 1-.26.09Zm-45.68-3.42a.47.47 0 0 1-.17 0c-1.65-.58-3.3-1.19-4.95-1.81a.52.52 0 0 1-.31-.68.53.53 0 0 1 .68-.3q2.46.93 4.93 1.8a.54.54 0 0 1 .32.67.53.53 0 0 1-.5.27Zm53.71-3.29a.55.55 0 0 1-.34-.13.52.52 0 0 1-.05-.74 13 13 0 0 0 2.51-4.35.52.52 0 1 1 1 .33 14 14 0 0 1-2.71 4.71.52.52 0 0 1-.41.13Zm-63.52-.48a.63.63 0 0 1-.19 0q-2.44-1-4.87-2a.53.53 0 0 1-.27-.7.52.52 0 0 1 .69-.27c1.61.69 3.22 1.37 4.84 2a.53.53 0 0 1 .29.69.52.52 0 0 1-.49.28Zm-9.66-4.16a.54.54 0 0 1-.21-.05c-1.6-.73-3.18-1.49-4.77-2.26a.53.53 0 0 1 .47-.95c1.57.77 3.15 1.53 4.74 2.25a.53.53 0 0 1-.23 1Zm-9.44-4.64a.53.53 0 0 1-.24-.06c-1.54-.8-3.1-1.65-4.64-2.5a.53.53 0 1 1 .52-.92c1.52.85 3.07 1.69 4.61 2.49m85.81.52a.53.53 0 0 1-.53-.52 24.61 24.61 0 0 0-.59-5.11.52.52 0 0 1 .4-.62.53.53 0 0 1 .63.4 25.93 25.93 0 0 1 .61 5.32.52.52 0 0 1-.52.53ZM272.69 222a.5.5 0 0 1-.26-.08c-1.53-.91-3-1.84-4.5-2.76a.53.53 0 1 1 .57-.89c1.44.92 2.95 1.84 4.46 2.75a.53.53 0 0 1-.27 1Zm93.19-5.62a.51.51 0 0 1-.49-.35c-.51-1.48-1.13-3.07-1.9-4.87a.53.53 0 0 1 .28-.69.53.53 0 0 1 .69.28c.77 1.82 1.4 3.44 1.92 4.93a.52.52 0 0 1-.32.67Zm-102.06 0a.49.49 0 0 1-.3-.1c-1.46-1-2.91-2-4.32-3a.54.54 0 0 1-.11-.74.52.52 0 0 1 .73-.11c1.4 1 2.84 2 4.29 3a.53.53 0 0 1-.29 1Zm-8.52-6.17a.56.56 0 0 1-.32-.11c-1.38-1.07-2.77-2.18-4.12-3.3a.52.52 0 0 1-.07-.74.53.53 0 0 1 .74-.07c1.34 1.11 2.72 2.21 4.09 3.28a.51.51 0 0 1 .1.73.53.53 0 0 1-.42.21Zm106.42-3.46a.53.53 0 0 1-.47-.28c-.8-1.58-1.6-3.13-2.4-4.68a.53.53 0 1 1 .94-.48q1.2 2.31 2.4 4.68a.53.53 0 0 1-.23.71.52.52 0 0 1-.24.05Zm-4.83-9.33a.53.53 0 0 1-.47-.29l-2.42-4.65a.53.53 0 1 1 .93-.49l2.45 4.66a.51.51 0 0 1-.22.7.44.44 0 0 1-.27.07Zm-4.89-9.31a.53.53 0 0 1-.47-.28l-2.42-4.67a.53.53 0 0 1 .94-.48c.8 1.57 1.61 3.12 2.41 4.66a.52.52 0 0 1-.22.71.53.53 0 0 1-.24.06Zm-4.78-9.37a.52.52 0 0 1-.49-.33 309.8 309.8 0 0 0-1.93-4.88.52.52 0 1 1 1-.4q1 2.43 1.94 4.9a.52.52 0 0 1-.3.68.58.58 0 0 1-.22.03Zm-3.93-9.74a.53.53 0 0 1-.49-.33l-2-4.86a.53.53 0 0 1 1-.4l2 4.86a.53.53 0 0 1-.28.69.79.79 0 0 1-.23.04Zm-4-9.73a.53.53 0 0 1-.49-.33c-.65-1.64-1.29-3.27-1.9-4.91a.52.52 0 1 1 1-.37c.61 1.63 1.25 3.26 1.9 4.89a.53.53 0 0 1-.3.68.43.43 0 0 1-.21.04Zm-3.66-9.86a.52.52 0 0 1-.5-.35c-.59-1.76-1.11-3.4-1.58-5a.53.53 0 0 1 1-.29c.47 1.62 1 3.25 1.57 5a.53.53 0 0 1-.34.67.44.44 0 0 1-.15-.03Zm-2.89-10.1a.53.53 0 0 1-.52-.41l-.11-.5a.52.52 0 0 1 .4-.62.52.52 0 0 1 .63.39l.11.5a.53.53 0 0 1-.4.63Zm-205.85 192.4a.52.52 0 0 1-.5-.54l.24-6a.53.53 0 0 1 .55-.51.53.53 0 0 1 .5.55l-.24 6a.53.53 0 0 1-.55.5Zm3.66 2.81h-.07a.52.52 0 0 1-.45-.59c.3-2.42.56-4.88.78-7.31a.55.55 0 0 1 .58-.48.53.53 0 0 1 .47.57c-.22 2.45-.49 4.92-.79 7.35a.53.53 0 0 1-.52.46Zm4.25 1.48h-.07a.52.52 0 0 1-.45-.59 62.3 62.3 0 0 0 .6-8 .55.55 0 0 1 .54-.52.53.53 0 0 1 .52.53 64.52 64.52 0 0 1-.62 8.1.52.52 0 0 1-.52.48Zm3.68 1.15h-.13a.53.53 0 0 1-.39-.63 64.37 64.37 0 0 0 1.42-8.25.5.5 0 0 1 .57-.47.52.52 0 0 1 .47.57 64.2 64.2 0 0 1-1.43 8.39.53.53 0 0 1-.51.39Zm4.65.79h-.08a.53.53 0 0 1-.45-.59l1.07-7.64a.52.52 0 0 1 .59-.45.53.53 0 0 1 .45.6l-1.06 7.63a.53.53 0 0 1-.52.45Zm4.43.63h-.06a.53.53 0 0 1-.5-.57l.81-7.94a.52.52 0 0 1 1 .1l-.8 7.94a.54.54 0 0 1-.45.47Zm4.15-.32h-.06a.52.52 0 0 1-.46-.58 64.15 64.15 0 0 1 1.13-6.58.52.52 0 0 1 .63-.39.53.53 0 0 1 .4.63 61.42 61.42 0 0 0-1.12 6.46.53.53 0 0 1-.52.46ZM156 340h-.07a.52.52 0 0 1-.45-.59l1-8.25a.52.52 0 0 1 .58-.46.54.54 0 0 1 .46.59l-1 8.25a.53.53 0 0 1-.52.46Zm3.75.36h-.07a.53.53 0 0 1-.45-.59c.35-2.53.69-5.1 1-7.63a.53.53 0 0 1 1 .12c-.3 2.54-.63 5.11-1 7.65a.53.53 0 0 1-.48.45Zm4.09-.31a.53.53 0 0 1-.53-.5 19.1 19.1 0 0 1 .62-5.25v-.17a8.39 8.39 0 0 0 .32-2.22.52.52 0 0 1 .5-.55.55.55 0 0 1 .55.5 9.51 9.51 0 0 1-.35 2.51v.17a18 18 0 0 0-.59 4.95.52.52 0 0 1-.5.55Zm3.72.54a.53.53 0 0 1-.56-.59c.18-2.64.48-5.3.9-7.91a.53.53 0 1 1 1 .17c-.42 2.58-.72 5.21-.89 7.81a.52.52 0 0 1-.45.52Zm4.66-.32h-.09a.51.51 0 0 1-.43-.59c.28-1.79.57-3.63.75-5.44a5.27 5.27 0 0 0-.07-2 .52.52 0 0 1 .35-.66.51.51 0 0 1 .65.34 6 6 0 0 1 .12 2.46c-.18 1.84-.48 3.69-.76 5.48a.54.54 0 0 1-.52.41Zm4.54.47a.54.54 0 0 1-.49-.57l.55-6.66a7.65 7.65 0 0 0 0-1.35.54.54 0 0 1 .49-.57.52.52 0 0 1 .56.48 9.49 9.49 0 0 1 0 1.52l-.55 6.67a.52.52 0 0 1-.56.48Zm4.03-.74a.53.53 0 0 1-.51-.54c.07-2.56.27-5.15.59-7.68a.53.53 0 1 1 1 .13c-.32 2.5-.52 5.05-.59 7.58a.53.53 0 0 1-.49.51Zm4 .36h-.09a.52.52 0 0 1-.43-.61 43 43 0 0 0 .64-8 .51.51 0 0 1 .51-.53.52.52 0 0 1 .54.51 44.18 44.18 0 0 1-.65 8.2.53.53 0 0 1-.52.43Zm3.92-.08a.53.53 0 0 1-.52-.53l.11-7.48a.52.52 0 0 1 .54-.52.54.54 0 0 1 .52.53l-.11 7.48a.53.53 0 0 1-.54.52Zm3.95-1.01a.52.52 0 0 1-.52-.52l-.19-7.63a.53.53 0 0 1 .51-.54.55.55 0 0 1 .54.52l.19 7.63a.54.54 0 0 1-.52.54Zm3.64.73a.53.53 0 0 1-.5-.55l.4-8.57a.53.53 0 0 1 .56-.5.53.53 0 0 1 .5.55l-.41 8.57a.53.53 0 0 1-.55.5Zm4.11-2.37a.53.53 0 0 1-.51-.55l.27-6.85a.56.56 0 0 1 .55-.5.53.53 0 0 1 .51.54l-.27 6.86a.53.53 0 0 1-.55.5Zm4.07-.08a.52.52 0 0 1-.48-.55l.48-7.79a.52.52 0 1 1 1 .06l-.47 7.79a.53.53 0 0 1-.53.49Zm4.13-.55a.55.55 0 0 1-.5-.32 1.27 1.27 0 0 1-.06-.7l1-6.76a.53.53 0 1 1 1 .15l-1 6.76v.15a.51.51 0 0 1-.27.68.45.45 0 0 1-.17.04Zm4.7-1.16a.52.52 0 0 1-.53-.52 53.06 53.06 0 0 1 .52-7.56.53.53 0 0 1 .59-.45.54.54 0 0 1 .45.6 53.81 53.81 0 0 0-.51 7.4.52.52 0 0 1-.52.53Zm4.34-.84a.53.53 0 0 1-.49-.56l.58-7.79a.51.51 0 0 1 .56-.48.53.53 0 0 1 .49.56l-.58 7.79a.52.52 0 0 1-.56.48Zm4.15-.41a.53.53 0 0 1-.5-.55l.46-8.18a.53.53 0 0 1 1.05.06l-.46 8.18a.51.51 0 0 1-.55.49Zm4.07-1.22a.54.54 0 0 1-.22-.05.59.59 0 0 1-.33-.65l.67-5.08a10.67 10.67 0 0 0 .13-2.58.52.52 0 0 1 .46-.58.53.53 0 0 1 .59.46 11.65 11.65 0 0 1-.14 2.84l-.64 4.86a.59.59 0 0 1-.1.6.58.58 0 0 1-.42.18Zm.49-.56Zm3.94.07a.52.52 0 0 1-.51-.54 77 77 0 0 1 .68-8.7.51.51 0 0 1 .59-.45.52.52 0 0 1 .45.59 77.25 77.25 0 0 0-.67 8.59.52.52 0 0 1-.54.51Zm3.4-1.27h-.1a.54.54 0 0 1-.43-.59c.39-2.89.87-5.81 1.42-8.68a.53.53 0 0 1 .62-.42.52.52 0 0 1 .41.61c-.51 2.69-1 5.41-1.33 8.11a.57.57 0 0 1 0 .26l-.08.32a.53.53 0 0 1-.51.39Zm4.62-3.24h-.16a.53.53 0 0 1-.34-.66c.69-2.16 1.28-4.37 1.76-6.58a.52.52 0 1 1 1 .22 70.7 70.7 0 0 1-1.78 6.68.52.52 0 0 1-.48.34Z"/><path class="cls-2" d="M148.78 105.46a20.21 20.21 0 0 1-19.21 5.54 19.88 19.88 0 0 1-13-11.09 17.87 17.87 0 0 1-1-3 14.12 14.12 0 0 1-.34-5.6 12.4 12.4 0 0 1 9-9.69 14.3 14.3 0 0 1 13 3.32l4.48 7.91Z"/><path class="cls-12" d="M158.9 64.05a1.17 1.17 0 0 1-1-.25 1.15 1.15 0 0 1-.15-1.64 11.36 11.36 0 0 1 10.91-3.76 1.15 1.15 0 0 1 .89 1.38 1.18 1.18 0 0 1-1.39.9 9 9 0 0 0-8.62 3 1.24 1.24 0 0 1-.64.37Zm30.99-5.17a1.18 1.18 0 0 1-.91-.53 1.16 1.16 0 0 1 .34-1.61 10.6 10.6 0 0 1 10.64-.4 1.17 1.17 0 0 1-1.12 2 8.18 8.18 0 0 0-8.24.3 1.23 1.23 0 0 1-.71.24Zm-6.96 23.53a3.65 3.65 0 0 1 3.32-1 4.29 4.29 0 0 1 3 2.25 4.22 4.22 0 0 1 .16 3.76 3.64 3.64 0 0 1-2.7 2.18 5.1 5.1 0 0 0 1.4-2.61 3.94 3.94 0 0 0-2.25-4.26 5 5 0 0 0-2.93-.32Z"/><path d="M207.55 90.13v.11a20.32 20.32 0 0 1-2.28 14.39 21.37 21.37 0 0 1-32.08 5.78A20.26 20.26 0 0 1 166.32 99v-.12Z" style="fill:#ea5353"/><path d="M205.3 104.63a21.37 21.37 0 0 1-32.08 5.78 47.68 47.68 0 0 1 4.83-2.71c6.32-3.1 13.36-5.08 20.38-4.44a35 35 0 0 1 6.87 1.37Z" style="fill:#ff948f"/><path d="M203.71 90.94c-1 9.16-25.69 15-33 7Z" style="fill:#fff"/><path class="cls-12" d="M194.33 73.07a.47.47 0 0 1-.31 0 .59.59 0 0 1-.41-.56 5.66 5.66 0 0 1 3.11-4.74 8 8 0 0 1 5.6-.52.58.58 0 1 1-.28 1.13 6.82 6.82 0 0 0-4.78.42 4.91 4.91 0 0 0-2 1.93l.1-.06a8.77 8.77 0 0 1 6.7-.84.58.58 0 0 1-.26 1.14 7.8 7.8 0 0 0-5.8.67 4.29 4.29 0 0 0-1.34 1.21.59.59 0 0 1-.33.22Zm-22.59 3.31a.65.65 0 0 0 .31-.18.66.66 0 0 0 .09-.77 6.3 6.3 0 0 0-5.62-3 9 9 0 0 0-5.77 2.57.65.65 0 1 0 .88 1 7.75 7.75 0 0 1 4.92-2.18 5.47 5.47 0 0 1 3 .82h-.14a9.84 9.84 0 0 0-7 2.81.66.66 0 0 0 .87 1c1.14-1 3.43-2.67 6.06-2.48a4.76 4.76 0 0 1 2 .45.62.62 0 0 0 .4-.04Z"/></g></g></svg>